M48
; DRILL file {KiCad 5.1.5-52549c5~84~ubuntu18.04.1} date Tue 11 Feb 2020 17:12:01 GMT
; FORMAT={-:-/ absolute / metric / decimal}
; #@! TF.CreationDate,2020-02-11T17:12:01+00:00
; #@! TF.GenerationSoftware,Kicad,Pcbnew,5.1.5-52549c5~84~ubuntu18.04.1
; #@! TF.FileFunction,Plated,1,2,PTH
FMAT,2
METRIC
T1C0.900
T2C1.000
%
G90
G05
T1
X121.92Y-71.12
X121.92Y-72.39
X121.92Y-73.66
X121.92Y-74.93
X116.84Y-71.12
X116.84Y-72.39
X116.84Y-73.66
X116.84Y-74.93
X119.38Y-64.77
X119.38Y-66.04
X119.38Y-67.31
X119.38Y-68.58
X114.3Y-71.12
X114.3Y-72.39
X114.3Y-73.66
X114.3Y-74.93
X124.46Y-71.12
X124.46Y-72.39
X124.46Y-73.66
X124.46Y-74.93
X116.84Y-64.77
X116.84Y-66.04
X116.84Y-67.31
X116.84Y-68.58
X119.38Y-71.12
X119.38Y-72.39
X119.38Y-73.66
X119.38Y-74.93
X114.3Y-64.77
X114.3Y-66.04
X114.3Y-67.31
X114.3Y-68.58
X121.92Y-64.77
X121.92Y-66.04
X121.92Y-67.31
X121.92Y-68.58
X124.46Y-64.77
X124.46Y-66.04
X124.46Y-67.31
X124.46Y-68.58
T2
X115.57Y-99.06
X118.11Y-99.06
X120.65Y-99.06
X123.19Y-99.06
T0
M30
