G04 #@! TF.GenerationSoftware,KiCad,Pcbnew,5.1.5-52549c5~84~ubuntu18.04.1*
G04 #@! TF.CreationDate,2020-02-11T17:12:05+00:00*
G04 #@! TF.ProjectId,leds,6c656473-2e6b-4696-9361-645f70636258,rev?*
G04 #@! TF.SameCoordinates,Original*
G04 #@! TF.FileFunction,Legend,Top*
G04 #@! TF.FilePolarity,Positive*
%FSLAX46Y46*%
G04 Gerber Fmt 4.6, Leading zero omitted, Abs format (unit mm)*
G04 Created by KiCad (PCBNEW 5.1.5-52549c5~84~ubuntu18.04.1) date 2020-02-11 17:12:05*
%MOMM*%
%LPD*%
G04 APERTURE LIST*
%ADD10C,0.150000*%
%ADD11C,0.010000*%
%ADD12C,0.120000*%
G04 APERTURE END LIST*
D10*
X123063095Y-96655000D02*
X122967857Y-96607380D01*
X122825000Y-96607380D01*
X122682142Y-96655000D01*
X122586904Y-96750238D01*
X122539285Y-96845476D01*
X122491666Y-97035952D01*
X122491666Y-97178809D01*
X122539285Y-97369285D01*
X122586904Y-97464523D01*
X122682142Y-97559761D01*
X122825000Y-97607380D01*
X122920238Y-97607380D01*
X123063095Y-97559761D01*
X123110714Y-97512142D01*
X123110714Y-97178809D01*
X122920238Y-97178809D01*
X123539285Y-97607380D02*
X123539285Y-96607380D01*
X124110714Y-97607380D01*
X124110714Y-96607380D01*
X124586904Y-97607380D02*
X124586904Y-96607380D01*
X124825000Y-96607380D01*
X124967857Y-96655000D01*
X125063095Y-96750238D01*
X125110714Y-96845476D01*
X125158333Y-97035952D01*
X125158333Y-97178809D01*
X125110714Y-97369285D01*
X125063095Y-97464523D01*
X124967857Y-97559761D01*
X124825000Y-97607380D01*
X124586904Y-97607380D01*
X120721428Y-97083571D02*
X120864285Y-97131190D01*
X120911904Y-97178809D01*
X120959523Y-97274047D01*
X120959523Y-97416904D01*
X120911904Y-97512142D01*
X120864285Y-97559761D01*
X120769047Y-97607380D01*
X120388095Y-97607380D01*
X120388095Y-96607380D01*
X120721428Y-96607380D01*
X120816666Y-96655000D01*
X120864285Y-96702619D01*
X120911904Y-96797857D01*
X120911904Y-96893095D01*
X120864285Y-96988333D01*
X120816666Y-97035952D01*
X120721428Y-97083571D01*
X120388095Y-97083571D01*
X118371904Y-96655000D02*
X118276666Y-96607380D01*
X118133809Y-96607380D01*
X117990952Y-96655000D01*
X117895714Y-96750238D01*
X117848095Y-96845476D01*
X117800476Y-97035952D01*
X117800476Y-97178809D01*
X117848095Y-97369285D01*
X117895714Y-97464523D01*
X117990952Y-97559761D01*
X118133809Y-97607380D01*
X118229047Y-97607380D01*
X118371904Y-97559761D01*
X118419523Y-97512142D01*
X118419523Y-97178809D01*
X118229047Y-97178809D01*
X115879523Y-97607380D02*
X115546190Y-97131190D01*
X115308095Y-97607380D02*
X115308095Y-96607380D01*
X115689047Y-96607380D01*
X115784285Y-96655000D01*
X115831904Y-96702619D01*
X115879523Y-96797857D01*
X115879523Y-96940714D01*
X115831904Y-97035952D01*
X115784285Y-97083571D01*
X115689047Y-97131190D01*
X115308095Y-97131190D01*
D11*
G36*
X119519878Y-83917776D02*
G01*
X119625612Y-83918355D01*
X119702132Y-83919922D01*
X119754372Y-83922972D01*
X119787263Y-83927996D01*
X119805737Y-83935489D01*
X119814727Y-83945944D01*
X119819163Y-83959853D01*
X119819594Y-83961654D01*
X119826333Y-83994145D01*
X119838808Y-84058252D01*
X119855719Y-84147151D01*
X119875771Y-84254019D01*
X119897664Y-84372033D01*
X119898429Y-84376178D01*
X119920359Y-84491831D01*
X119940877Y-84594014D01*
X119958659Y-84676598D01*
X119972381Y-84733456D01*
X119980718Y-84758458D01*
X119981116Y-84758901D01*
X120005677Y-84771110D01*
X120056315Y-84791456D01*
X120122095Y-84815545D01*
X120122461Y-84815674D01*
X120205317Y-84846818D01*
X120303000Y-84886491D01*
X120395077Y-84926381D01*
X120399434Y-84928353D01*
X120549407Y-84996420D01*
X120881498Y-84769639D01*
X120983374Y-84700504D01*
X121075657Y-84638697D01*
X121153003Y-84587733D01*
X121210064Y-84551127D01*
X121241495Y-84532394D01*
X121244479Y-84531004D01*
X121267321Y-84537190D01*
X121309982Y-84567035D01*
X121374128Y-84621947D01*
X121461421Y-84703334D01*
X121550535Y-84789922D01*
X121636441Y-84875247D01*
X121713327Y-84953108D01*
X121776564Y-85018697D01*
X121821523Y-85067205D01*
X121843576Y-85093825D01*
X121844396Y-85095195D01*
X121846834Y-85113463D01*
X121837650Y-85143295D01*
X121814574Y-85188721D01*
X121775337Y-85253770D01*
X121717670Y-85342470D01*
X121640795Y-85456657D01*
X121572570Y-85557162D01*
X121511582Y-85647303D01*
X121461356Y-85721849D01*
X121425416Y-85775565D01*
X121407287Y-85803218D01*
X121406146Y-85805095D01*
X121408359Y-85831590D01*
X121425138Y-85883086D01*
X121453142Y-85949851D01*
X121463122Y-85971172D01*
X121506672Y-86066159D01*
X121553134Y-86173937D01*
X121590877Y-86267192D01*
X121618073Y-86336406D01*
X121639675Y-86389006D01*
X121652158Y-86416497D01*
X121653709Y-86418616D01*
X121676668Y-86422124D01*
X121730786Y-86431738D01*
X121808868Y-86446089D01*
X121903719Y-86463807D01*
X122008143Y-86483525D01*
X122114944Y-86503874D01*
X122216926Y-86523486D01*
X122306894Y-86540991D01*
X122377653Y-86555022D01*
X122422006Y-86564209D01*
X122432885Y-86566807D01*
X122444122Y-86573218D01*
X122452605Y-86587697D01*
X122458714Y-86615133D01*
X122462832Y-86660411D01*
X122465341Y-86728420D01*
X122466621Y-86824047D01*
X122467054Y-86952180D01*
X122467077Y-87004701D01*
X122467077Y-87431845D01*
X122364500Y-87452091D01*
X122307431Y-87463070D01*
X122222269Y-87479095D01*
X122119372Y-87498233D01*
X122009096Y-87518551D01*
X121978615Y-87524132D01*
X121876855Y-87543917D01*
X121788205Y-87563373D01*
X121720108Y-87580697D01*
X121680004Y-87594088D01*
X121673323Y-87598079D01*
X121656919Y-87626342D01*
X121633399Y-87681109D01*
X121607316Y-87751588D01*
X121602142Y-87766769D01*
X121567956Y-87860896D01*
X121525523Y-87967101D01*
X121483997Y-88062473D01*
X121483792Y-88062916D01*
X121414640Y-88212525D01*
X121869512Y-88881617D01*
X121577500Y-89174116D01*
X121489180Y-89261170D01*
X121408625Y-89337909D01*
X121340360Y-89400237D01*
X121288908Y-89444056D01*
X121258794Y-89465270D01*
X121254474Y-89466616D01*
X121229111Y-89456016D01*
X121177358Y-89426547D01*
X121104868Y-89381705D01*
X121017294Y-89324984D01*
X120922612Y-89261462D01*
X120826516Y-89196668D01*
X120740837Y-89140287D01*
X120671016Y-89095788D01*
X120622494Y-89066639D01*
X120600782Y-89056308D01*
X120574293Y-89065050D01*
X120524062Y-89088087D01*
X120460451Y-89120631D01*
X120453708Y-89124249D01*
X120368046Y-89167210D01*
X120309306Y-89188279D01*
X120272772Y-89188503D01*
X120253731Y-89168928D01*
X120253620Y-89168654D01*
X120244102Y-89145472D01*
X120221403Y-89090441D01*
X120187282Y-89007822D01*
X120143500Y-88901872D01*
X120091816Y-88776852D01*
X120033992Y-88637020D01*
X119977991Y-88501637D01*
X119916447Y-88352234D01*
X119859939Y-88213832D01*
X119810161Y-88090673D01*
X119768806Y-87987002D01*
X119737568Y-87907059D01*
X119718141Y-87855088D01*
X119712154Y-87835692D01*
X119727168Y-87813443D01*
X119766439Y-87777982D01*
X119818807Y-87738887D01*
X119967941Y-87615245D01*
X120084511Y-87473522D01*
X120167118Y-87316704D01*
X120214366Y-87147775D01*
X120224857Y-86969722D01*
X120217231Y-86887539D01*
X120175682Y-86717031D01*
X120104123Y-86566459D01*
X120006995Y-86437309D01*
X119888734Y-86331064D01*
X119753780Y-86249210D01*
X119606571Y-86193232D01*
X119451544Y-86164615D01*
X119293139Y-86164844D01*
X119135794Y-86195405D01*
X118983946Y-86257782D01*
X118842035Y-86353460D01*
X118782803Y-86407572D01*
X118669203Y-86546520D01*
X118590106Y-86698361D01*
X118544986Y-86858667D01*
X118533316Y-87023012D01*
X118554569Y-87186971D01*
X118608220Y-87346118D01*
X118693740Y-87496025D01*
X118810605Y-87632267D01*
X118941193Y-87738887D01*
X118995588Y-87779642D01*
X119034014Y-87814718D01*
X119047846Y-87835726D01*
X119040603Y-87858635D01*
X119020005Y-87913365D01*
X118987746Y-87995672D01*
X118945521Y-88101315D01*
X118895023Y-88226050D01*
X118837948Y-88365636D01*
X118781854Y-88501670D01*
X118719967Y-88651201D01*
X118662644Y-88789767D01*
X118611644Y-88913107D01*
X118568727Y-89016964D01*
X118535653Y-89097080D01*
X118514181Y-89149195D01*
X118506225Y-89168654D01*
X118487429Y-89188423D01*
X118451074Y-89188365D01*
X118392479Y-89167441D01*
X118306968Y-89124613D01*
X118306292Y-89124249D01*
X118241907Y-89091012D01*
X118189861Y-89066802D01*
X118160512Y-89056404D01*
X118159217Y-89056308D01*
X118137124Y-89066855D01*
X118088348Y-89096184D01*
X118018331Y-89140827D01*
X117932514Y-89197314D01*
X117837388Y-89261462D01*
X117740540Y-89326411D01*
X117653253Y-89382896D01*
X117581181Y-89427421D01*
X117529977Y-89456490D01*
X117505526Y-89466616D01*
X117483010Y-89453307D01*
X117437742Y-89416112D01*
X117374244Y-89359128D01*
X117297039Y-89286449D01*
X117210651Y-89202171D01*
X117182399Y-89174016D01*
X116890287Y-88881416D01*
X117112631Y-88555104D01*
X117180202Y-88454897D01*
X117239507Y-88364963D01*
X117287217Y-88290510D01*
X117320007Y-88236751D01*
X117334548Y-88208894D01*
X117334974Y-88206912D01*
X117327308Y-88180655D01*
X117306689Y-88127837D01*
X117276685Y-88057310D01*
X117255625Y-88010093D01*
X117216248Y-87919694D01*
X117179165Y-87828366D01*
X117150415Y-87751200D01*
X117142605Y-87727692D01*
X117120417Y-87664916D01*
X117098727Y-87616411D01*
X117086813Y-87598079D01*
X117060523Y-87586859D01*
X117003142Y-87570954D01*
X116922118Y-87552167D01*
X116824895Y-87532299D01*
X116781385Y-87524132D01*
X116670896Y-87503829D01*
X116564916Y-87484170D01*
X116473801Y-87467088D01*
X116407908Y-87454518D01*
X116395500Y-87452091D01*
X116292923Y-87431845D01*
X116292923Y-87004701D01*
X116293153Y-86864246D01*
X116294099Y-86757979D01*
X116296141Y-86681013D01*
X116299662Y-86628460D01*
X116305043Y-86595433D01*
X116312666Y-86577045D01*
X116322912Y-86568408D01*
X116327115Y-86566807D01*
X116352470Y-86561127D01*
X116408484Y-86549795D01*
X116487964Y-86534179D01*
X116583712Y-86515647D01*
X116688533Y-86495569D01*
X116795232Y-86475312D01*
X116896613Y-86456246D01*
X116985479Y-86439739D01*
X117054637Y-86427159D01*
X117096889Y-86419875D01*
X117106290Y-86418616D01*
X117114807Y-86401763D01*
X117133660Y-86356870D01*
X117159324Y-86292430D01*
X117169123Y-86267192D01*
X117208648Y-86169686D01*
X117255192Y-86061959D01*
X117296877Y-85971172D01*
X117327550Y-85901753D01*
X117347956Y-85844710D01*
X117354768Y-85809777D01*
X117353682Y-85805095D01*
X117339285Y-85782991D01*
X117306412Y-85733831D01*
X117258590Y-85662848D01*
X117199348Y-85575278D01*
X117132215Y-85476357D01*
X117118941Y-85456830D01*
X117041046Y-85341140D01*
X116983787Y-85253044D01*
X116944881Y-85188486D01*
X116922044Y-85143411D01*
X116912994Y-85113763D01*
X116915448Y-85095485D01*
X116915511Y-85095369D01*
X116934827Y-85071361D01*
X116977551Y-85024947D01*
X117039051Y-84960937D01*
X117114698Y-84884145D01*
X117199861Y-84799382D01*
X117209465Y-84789922D01*
X117316790Y-84685989D01*
X117399615Y-84609675D01*
X117459605Y-84559571D01*
X117498423Y-84534270D01*
X117515520Y-84531004D01*
X117540473Y-84545250D01*
X117592255Y-84578156D01*
X117665520Y-84626208D01*
X117754920Y-84685890D01*
X117855111Y-84753688D01*
X117878501Y-84769639D01*
X118210593Y-84996420D01*
X118360565Y-84928353D01*
X118451770Y-84888685D01*
X118549669Y-84848791D01*
X118633831Y-84816983D01*
X118637538Y-84815674D01*
X118703369Y-84791576D01*
X118754116Y-84771200D01*
X118778842Y-84758936D01*
X118778884Y-84758901D01*
X118786729Y-84736734D01*
X118800066Y-84682217D01*
X118817570Y-84601480D01*
X118837917Y-84500650D01*
X118859782Y-84385856D01*
X118861571Y-84376178D01*
X118883504Y-84257904D01*
X118903640Y-84150542D01*
X118920680Y-84060917D01*
X118933328Y-83995851D01*
X118940284Y-83962168D01*
X118940406Y-83961654D01*
X118944639Y-83947325D01*
X118952871Y-83936507D01*
X118970033Y-83928706D01*
X119001058Y-83923429D01*
X119050878Y-83920182D01*
X119124424Y-83918472D01*
X119226629Y-83917807D01*
X119362425Y-83917693D01*
X119380000Y-83917692D01*
X119519878Y-83917776D01*
G37*
X119519878Y-83917776D02*
X119625612Y-83918355D01*
X119702132Y-83919922D01*
X119754372Y-83922972D01*
X119787263Y-83927996D01*
X119805737Y-83935489D01*
X119814727Y-83945944D01*
X119819163Y-83959853D01*
X119819594Y-83961654D01*
X119826333Y-83994145D01*
X119838808Y-84058252D01*
X119855719Y-84147151D01*
X119875771Y-84254019D01*
X119897664Y-84372033D01*
X119898429Y-84376178D01*
X119920359Y-84491831D01*
X119940877Y-84594014D01*
X119958659Y-84676598D01*
X119972381Y-84733456D01*
X119980718Y-84758458D01*
X119981116Y-84758901D01*
X120005677Y-84771110D01*
X120056315Y-84791456D01*
X120122095Y-84815545D01*
X120122461Y-84815674D01*
X120205317Y-84846818D01*
X120303000Y-84886491D01*
X120395077Y-84926381D01*
X120399434Y-84928353D01*
X120549407Y-84996420D01*
X120881498Y-84769639D01*
X120983374Y-84700504D01*
X121075657Y-84638697D01*
X121153003Y-84587733D01*
X121210064Y-84551127D01*
X121241495Y-84532394D01*
X121244479Y-84531004D01*
X121267321Y-84537190D01*
X121309982Y-84567035D01*
X121374128Y-84621947D01*
X121461421Y-84703334D01*
X121550535Y-84789922D01*
X121636441Y-84875247D01*
X121713327Y-84953108D01*
X121776564Y-85018697D01*
X121821523Y-85067205D01*
X121843576Y-85093825D01*
X121844396Y-85095195D01*
X121846834Y-85113463D01*
X121837650Y-85143295D01*
X121814574Y-85188721D01*
X121775337Y-85253770D01*
X121717670Y-85342470D01*
X121640795Y-85456657D01*
X121572570Y-85557162D01*
X121511582Y-85647303D01*
X121461356Y-85721849D01*
X121425416Y-85775565D01*
X121407287Y-85803218D01*
X121406146Y-85805095D01*
X121408359Y-85831590D01*
X121425138Y-85883086D01*
X121453142Y-85949851D01*
X121463122Y-85971172D01*
X121506672Y-86066159D01*
X121553134Y-86173937D01*
X121590877Y-86267192D01*
X121618073Y-86336406D01*
X121639675Y-86389006D01*
X121652158Y-86416497D01*
X121653709Y-86418616D01*
X121676668Y-86422124D01*
X121730786Y-86431738D01*
X121808868Y-86446089D01*
X121903719Y-86463807D01*
X122008143Y-86483525D01*
X122114944Y-86503874D01*
X122216926Y-86523486D01*
X122306894Y-86540991D01*
X122377653Y-86555022D01*
X122422006Y-86564209D01*
X122432885Y-86566807D01*
X122444122Y-86573218D01*
X122452605Y-86587697D01*
X122458714Y-86615133D01*
X122462832Y-86660411D01*
X122465341Y-86728420D01*
X122466621Y-86824047D01*
X122467054Y-86952180D01*
X122467077Y-87004701D01*
X122467077Y-87431845D01*
X122364500Y-87452091D01*
X122307431Y-87463070D01*
X122222269Y-87479095D01*
X122119372Y-87498233D01*
X122009096Y-87518551D01*
X121978615Y-87524132D01*
X121876855Y-87543917D01*
X121788205Y-87563373D01*
X121720108Y-87580697D01*
X121680004Y-87594088D01*
X121673323Y-87598079D01*
X121656919Y-87626342D01*
X121633399Y-87681109D01*
X121607316Y-87751588D01*
X121602142Y-87766769D01*
X121567956Y-87860896D01*
X121525523Y-87967101D01*
X121483997Y-88062473D01*
X121483792Y-88062916D01*
X121414640Y-88212525D01*
X121869512Y-88881617D01*
X121577500Y-89174116D01*
X121489180Y-89261170D01*
X121408625Y-89337909D01*
X121340360Y-89400237D01*
X121288908Y-89444056D01*
X121258794Y-89465270D01*
X121254474Y-89466616D01*
X121229111Y-89456016D01*
X121177358Y-89426547D01*
X121104868Y-89381705D01*
X121017294Y-89324984D01*
X120922612Y-89261462D01*
X120826516Y-89196668D01*
X120740837Y-89140287D01*
X120671016Y-89095788D01*
X120622494Y-89066639D01*
X120600782Y-89056308D01*
X120574293Y-89065050D01*
X120524062Y-89088087D01*
X120460451Y-89120631D01*
X120453708Y-89124249D01*
X120368046Y-89167210D01*
X120309306Y-89188279D01*
X120272772Y-89188503D01*
X120253731Y-89168928D01*
X120253620Y-89168654D01*
X120244102Y-89145472D01*
X120221403Y-89090441D01*
X120187282Y-89007822D01*
X120143500Y-88901872D01*
X120091816Y-88776852D01*
X120033992Y-88637020D01*
X119977991Y-88501637D01*
X119916447Y-88352234D01*
X119859939Y-88213832D01*
X119810161Y-88090673D01*
X119768806Y-87987002D01*
X119737568Y-87907059D01*
X119718141Y-87855088D01*
X119712154Y-87835692D01*
X119727168Y-87813443D01*
X119766439Y-87777982D01*
X119818807Y-87738887D01*
X119967941Y-87615245D01*
X120084511Y-87473522D01*
X120167118Y-87316704D01*
X120214366Y-87147775D01*
X120224857Y-86969722D01*
X120217231Y-86887539D01*
X120175682Y-86717031D01*
X120104123Y-86566459D01*
X120006995Y-86437309D01*
X119888734Y-86331064D01*
X119753780Y-86249210D01*
X119606571Y-86193232D01*
X119451544Y-86164615D01*
X119293139Y-86164844D01*
X119135794Y-86195405D01*
X118983946Y-86257782D01*
X118842035Y-86353460D01*
X118782803Y-86407572D01*
X118669203Y-86546520D01*
X118590106Y-86698361D01*
X118544986Y-86858667D01*
X118533316Y-87023012D01*
X118554569Y-87186971D01*
X118608220Y-87346118D01*
X118693740Y-87496025D01*
X118810605Y-87632267D01*
X118941193Y-87738887D01*
X118995588Y-87779642D01*
X119034014Y-87814718D01*
X119047846Y-87835726D01*
X119040603Y-87858635D01*
X119020005Y-87913365D01*
X118987746Y-87995672D01*
X118945521Y-88101315D01*
X118895023Y-88226050D01*
X118837948Y-88365636D01*
X118781854Y-88501670D01*
X118719967Y-88651201D01*
X118662644Y-88789767D01*
X118611644Y-88913107D01*
X118568727Y-89016964D01*
X118535653Y-89097080D01*
X118514181Y-89149195D01*
X118506225Y-89168654D01*
X118487429Y-89188423D01*
X118451074Y-89188365D01*
X118392479Y-89167441D01*
X118306968Y-89124613D01*
X118306292Y-89124249D01*
X118241907Y-89091012D01*
X118189861Y-89066802D01*
X118160512Y-89056404D01*
X118159217Y-89056308D01*
X118137124Y-89066855D01*
X118088348Y-89096184D01*
X118018331Y-89140827D01*
X117932514Y-89197314D01*
X117837388Y-89261462D01*
X117740540Y-89326411D01*
X117653253Y-89382896D01*
X117581181Y-89427421D01*
X117529977Y-89456490D01*
X117505526Y-89466616D01*
X117483010Y-89453307D01*
X117437742Y-89416112D01*
X117374244Y-89359128D01*
X117297039Y-89286449D01*
X117210651Y-89202171D01*
X117182399Y-89174016D01*
X116890287Y-88881416D01*
X117112631Y-88555104D01*
X117180202Y-88454897D01*
X117239507Y-88364963D01*
X117287217Y-88290510D01*
X117320007Y-88236751D01*
X117334548Y-88208894D01*
X117334974Y-88206912D01*
X117327308Y-88180655D01*
X117306689Y-88127837D01*
X117276685Y-88057310D01*
X117255625Y-88010093D01*
X117216248Y-87919694D01*
X117179165Y-87828366D01*
X117150415Y-87751200D01*
X117142605Y-87727692D01*
X117120417Y-87664916D01*
X117098727Y-87616411D01*
X117086813Y-87598079D01*
X117060523Y-87586859D01*
X117003142Y-87570954D01*
X116922118Y-87552167D01*
X116824895Y-87532299D01*
X116781385Y-87524132D01*
X116670896Y-87503829D01*
X116564916Y-87484170D01*
X116473801Y-87467088D01*
X116407908Y-87454518D01*
X116395500Y-87452091D01*
X116292923Y-87431845D01*
X116292923Y-87004701D01*
X116293153Y-86864246D01*
X116294099Y-86757979D01*
X116296141Y-86681013D01*
X116299662Y-86628460D01*
X116305043Y-86595433D01*
X116312666Y-86577045D01*
X116322912Y-86568408D01*
X116327115Y-86566807D01*
X116352470Y-86561127D01*
X116408484Y-86549795D01*
X116487964Y-86534179D01*
X116583712Y-86515647D01*
X116688533Y-86495569D01*
X116795232Y-86475312D01*
X116896613Y-86456246D01*
X116985479Y-86439739D01*
X117054637Y-86427159D01*
X117096889Y-86419875D01*
X117106290Y-86418616D01*
X117114807Y-86401763D01*
X117133660Y-86356870D01*
X117159324Y-86292430D01*
X117169123Y-86267192D01*
X117208648Y-86169686D01*
X117255192Y-86061959D01*
X117296877Y-85971172D01*
X117327550Y-85901753D01*
X117347956Y-85844710D01*
X117354768Y-85809777D01*
X117353682Y-85805095D01*
X117339285Y-85782991D01*
X117306412Y-85733831D01*
X117258590Y-85662848D01*
X117199348Y-85575278D01*
X117132215Y-85476357D01*
X117118941Y-85456830D01*
X117041046Y-85341140D01*
X116983787Y-85253044D01*
X116944881Y-85188486D01*
X116922044Y-85143411D01*
X116912994Y-85113763D01*
X116915448Y-85095485D01*
X116915511Y-85095369D01*
X116934827Y-85071361D01*
X116977551Y-85024947D01*
X117039051Y-84960937D01*
X117114698Y-84884145D01*
X117199861Y-84799382D01*
X117209465Y-84789922D01*
X117316790Y-84685989D01*
X117399615Y-84609675D01*
X117459605Y-84559571D01*
X117498423Y-84534270D01*
X117515520Y-84531004D01*
X117540473Y-84545250D01*
X117592255Y-84578156D01*
X117665520Y-84626208D01*
X117754920Y-84685890D01*
X117855111Y-84753688D01*
X117878501Y-84769639D01*
X118210593Y-84996420D01*
X118360565Y-84928353D01*
X118451770Y-84888685D01*
X118549669Y-84848791D01*
X118633831Y-84816983D01*
X118637538Y-84815674D01*
X118703369Y-84791576D01*
X118754116Y-84771200D01*
X118778842Y-84758936D01*
X118778884Y-84758901D01*
X118786729Y-84736734D01*
X118800066Y-84682217D01*
X118817570Y-84601480D01*
X118837917Y-84500650D01*
X118859782Y-84385856D01*
X118861571Y-84376178D01*
X118883504Y-84257904D01*
X118903640Y-84150542D01*
X118920680Y-84060917D01*
X118933328Y-83995851D01*
X118940284Y-83962168D01*
X118940406Y-83961654D01*
X118944639Y-83947325D01*
X118952871Y-83936507D01*
X118970033Y-83928706D01*
X119001058Y-83923429D01*
X119050878Y-83920182D01*
X119124424Y-83918472D01*
X119226629Y-83917807D01*
X119362425Y-83917693D01*
X119380000Y-83917692D01*
X119519878Y-83917776D01*
G36*
X123625224Y-90277838D02*
G01*
X123702528Y-90328361D01*
X123739814Y-90373590D01*
X123769353Y-90455663D01*
X123771699Y-90520607D01*
X123766385Y-90607445D01*
X123566115Y-90695103D01*
X123468739Y-90739887D01*
X123405113Y-90775913D01*
X123372029Y-90807117D01*
X123366280Y-90837436D01*
X123384658Y-90870805D01*
X123404923Y-90892923D01*
X123463889Y-90928393D01*
X123528024Y-90930879D01*
X123586926Y-90903235D01*
X123630197Y-90848320D01*
X123637936Y-90828928D01*
X123675006Y-90768364D01*
X123717654Y-90742552D01*
X123776154Y-90720471D01*
X123776154Y-90804184D01*
X123770982Y-90861150D01*
X123750723Y-90909189D01*
X123708262Y-90964346D01*
X123701951Y-90971514D01*
X123654720Y-91020585D01*
X123614121Y-91046920D01*
X123563328Y-91059035D01*
X123521220Y-91063003D01*
X123445902Y-91063991D01*
X123392286Y-91051466D01*
X123358838Y-91032869D01*
X123306268Y-90991975D01*
X123269879Y-90947748D01*
X123246850Y-90892126D01*
X123234359Y-90817047D01*
X123229587Y-90714449D01*
X123229206Y-90662376D01*
X123230501Y-90599948D01*
X123348471Y-90599948D01*
X123349839Y-90633438D01*
X123353249Y-90638923D01*
X123375753Y-90631472D01*
X123424182Y-90611753D01*
X123488908Y-90583718D01*
X123502443Y-90577692D01*
X123584244Y-90536096D01*
X123629312Y-90499538D01*
X123639217Y-90465296D01*
X123615526Y-90430648D01*
X123595960Y-90415339D01*
X123525360Y-90384721D01*
X123459280Y-90389780D01*
X123403959Y-90427151D01*
X123365636Y-90493473D01*
X123353349Y-90546116D01*
X123348471Y-90599948D01*
X123230501Y-90599948D01*
X123231730Y-90540720D01*
X123241032Y-90450710D01*
X123259460Y-90385167D01*
X123289360Y-90336912D01*
X123333080Y-90298767D01*
X123352141Y-90286440D01*
X123438726Y-90254336D01*
X123533522Y-90252316D01*
X123625224Y-90277838D01*
G37*
X123625224Y-90277838D02*
X123702528Y-90328361D01*
X123739814Y-90373590D01*
X123769353Y-90455663D01*
X123771699Y-90520607D01*
X123766385Y-90607445D01*
X123566115Y-90695103D01*
X123468739Y-90739887D01*
X123405113Y-90775913D01*
X123372029Y-90807117D01*
X123366280Y-90837436D01*
X123384658Y-90870805D01*
X123404923Y-90892923D01*
X123463889Y-90928393D01*
X123528024Y-90930879D01*
X123586926Y-90903235D01*
X123630197Y-90848320D01*
X123637936Y-90828928D01*
X123675006Y-90768364D01*
X123717654Y-90742552D01*
X123776154Y-90720471D01*
X123776154Y-90804184D01*
X123770982Y-90861150D01*
X123750723Y-90909189D01*
X123708262Y-90964346D01*
X123701951Y-90971514D01*
X123654720Y-91020585D01*
X123614121Y-91046920D01*
X123563328Y-91059035D01*
X123521220Y-91063003D01*
X123445902Y-91063991D01*
X123392286Y-91051466D01*
X123358838Y-91032869D01*
X123306268Y-90991975D01*
X123269879Y-90947748D01*
X123246850Y-90892126D01*
X123234359Y-90817047D01*
X123229587Y-90714449D01*
X123229206Y-90662376D01*
X123230501Y-90599948D01*
X123348471Y-90599948D01*
X123349839Y-90633438D01*
X123353249Y-90638923D01*
X123375753Y-90631472D01*
X123424182Y-90611753D01*
X123488908Y-90583718D01*
X123502443Y-90577692D01*
X123584244Y-90536096D01*
X123629312Y-90499538D01*
X123639217Y-90465296D01*
X123615526Y-90430648D01*
X123595960Y-90415339D01*
X123525360Y-90384721D01*
X123459280Y-90389780D01*
X123403959Y-90427151D01*
X123365636Y-90493473D01*
X123353349Y-90546116D01*
X123348471Y-90599948D01*
X123230501Y-90599948D01*
X123231730Y-90540720D01*
X123241032Y-90450710D01*
X123259460Y-90385167D01*
X123289360Y-90336912D01*
X123333080Y-90298767D01*
X123352141Y-90286440D01*
X123438726Y-90254336D01*
X123533522Y-90252316D01*
X123625224Y-90277838D01*
G36*
X122950807Y-90266782D02*
G01*
X122974161Y-90276988D01*
X123029902Y-90321134D01*
X123077569Y-90384967D01*
X123107048Y-90453087D01*
X123111846Y-90486670D01*
X123095760Y-90533556D01*
X123060475Y-90558365D01*
X123022644Y-90573387D01*
X123005321Y-90576155D01*
X122996886Y-90556066D01*
X122980230Y-90512351D01*
X122972923Y-90492598D01*
X122931948Y-90424271D01*
X122872622Y-90390191D01*
X122796552Y-90391239D01*
X122790918Y-90392581D01*
X122750305Y-90411836D01*
X122720448Y-90449375D01*
X122700055Y-90509809D01*
X122687836Y-90597751D01*
X122682500Y-90717813D01*
X122682000Y-90781698D01*
X122681752Y-90882403D01*
X122680126Y-90951054D01*
X122675801Y-90994673D01*
X122667454Y-91020282D01*
X122653765Y-91034903D01*
X122633411Y-91045558D01*
X122632234Y-91046095D01*
X122593038Y-91062667D01*
X122573619Y-91068769D01*
X122570635Y-91050319D01*
X122568081Y-90999323D01*
X122566140Y-90922308D01*
X122564997Y-90825805D01*
X122564769Y-90755184D01*
X122565932Y-90618525D01*
X122570479Y-90514851D01*
X122579999Y-90438108D01*
X122596081Y-90382246D01*
X122620313Y-90341212D01*
X122654286Y-90308954D01*
X122687833Y-90286440D01*
X122768499Y-90256476D01*
X122862381Y-90249718D01*
X122950807Y-90266782D01*
G37*
X122950807Y-90266782D02*
X122974161Y-90276988D01*
X123029902Y-90321134D01*
X123077569Y-90384967D01*
X123107048Y-90453087D01*
X123111846Y-90486670D01*
X123095760Y-90533556D01*
X123060475Y-90558365D01*
X123022644Y-90573387D01*
X123005321Y-90576155D01*
X122996886Y-90556066D01*
X122980230Y-90512351D01*
X122972923Y-90492598D01*
X122931948Y-90424271D01*
X122872622Y-90390191D01*
X122796552Y-90391239D01*
X122790918Y-90392581D01*
X122750305Y-90411836D01*
X122720448Y-90449375D01*
X122700055Y-90509809D01*
X122687836Y-90597751D01*
X122682500Y-90717813D01*
X122682000Y-90781698D01*
X122681752Y-90882403D01*
X122680126Y-90951054D01*
X122675801Y-90994673D01*
X122667454Y-91020282D01*
X122653765Y-91034903D01*
X122633411Y-91045558D01*
X122632234Y-91046095D01*
X122593038Y-91062667D01*
X122573619Y-91068769D01*
X122570635Y-91050319D01*
X122568081Y-90999323D01*
X122566140Y-90922308D01*
X122564997Y-90825805D01*
X122564769Y-90755184D01*
X122565932Y-90618525D01*
X122570479Y-90514851D01*
X122579999Y-90438108D01*
X122596081Y-90382246D01*
X122620313Y-90341212D01*
X122654286Y-90308954D01*
X122687833Y-90286440D01*
X122768499Y-90256476D01*
X122862381Y-90249718D01*
X122950807Y-90266782D01*
G36*
X122267333Y-90263528D02*
G01*
X122323590Y-90289117D01*
X122367747Y-90320124D01*
X122400101Y-90354795D01*
X122422438Y-90399520D01*
X122436546Y-90460692D01*
X122444211Y-90544701D01*
X122447220Y-90657940D01*
X122447538Y-90732509D01*
X122447538Y-91023420D01*
X122397773Y-91046095D01*
X122358576Y-91062667D01*
X122339157Y-91068769D01*
X122335442Y-91050610D01*
X122332495Y-91001648D01*
X122330691Y-90930153D01*
X122330308Y-90873385D01*
X122328661Y-90791371D01*
X122324222Y-90726309D01*
X122317740Y-90686467D01*
X122312590Y-90678000D01*
X122277977Y-90686646D01*
X122223640Y-90708823D01*
X122160722Y-90738886D01*
X122100368Y-90771192D01*
X122053721Y-90800098D01*
X122031926Y-90819961D01*
X122031839Y-90820175D01*
X122033714Y-90856935D01*
X122050525Y-90892026D01*
X122080039Y-90920528D01*
X122123116Y-90930061D01*
X122159932Y-90928950D01*
X122212074Y-90928133D01*
X122239444Y-90940349D01*
X122255882Y-90972624D01*
X122257955Y-90978710D01*
X122265081Y-91024739D01*
X122246024Y-91052687D01*
X122196353Y-91066007D01*
X122142697Y-91068470D01*
X122046142Y-91050210D01*
X121996159Y-91024131D01*
X121934429Y-90962868D01*
X121901690Y-90887670D01*
X121898753Y-90808211D01*
X121926424Y-90734167D01*
X121968047Y-90687769D01*
X122009604Y-90661793D01*
X122074922Y-90628907D01*
X122151038Y-90595557D01*
X122163726Y-90590461D01*
X122247333Y-90553565D01*
X122295530Y-90521046D01*
X122311030Y-90488718D01*
X122296550Y-90452394D01*
X122271692Y-90424000D01*
X122212939Y-90389039D01*
X122148293Y-90386417D01*
X122089008Y-90413358D01*
X122046339Y-90467088D01*
X122040739Y-90480950D01*
X122008133Y-90531936D01*
X121960530Y-90569787D01*
X121900461Y-90600850D01*
X121900461Y-90512768D01*
X121903997Y-90458951D01*
X121919156Y-90416534D01*
X121952768Y-90371279D01*
X121985035Y-90336420D01*
X122035209Y-90287062D01*
X122074193Y-90260547D01*
X122116064Y-90249911D01*
X122163460Y-90248154D01*
X122267333Y-90263528D01*
G37*
X122267333Y-90263528D02*
X122323590Y-90289117D01*
X122367747Y-90320124D01*
X122400101Y-90354795D01*
X122422438Y-90399520D01*
X122436546Y-90460692D01*
X122444211Y-90544701D01*
X122447220Y-90657940D01*
X122447538Y-90732509D01*
X122447538Y-91023420D01*
X122397773Y-91046095D01*
X122358576Y-91062667D01*
X122339157Y-91068769D01*
X122335442Y-91050610D01*
X122332495Y-91001648D01*
X122330691Y-90930153D01*
X122330308Y-90873385D01*
X122328661Y-90791371D01*
X122324222Y-90726309D01*
X122317740Y-90686467D01*
X122312590Y-90678000D01*
X122277977Y-90686646D01*
X122223640Y-90708823D01*
X122160722Y-90738886D01*
X122100368Y-90771192D01*
X122053721Y-90800098D01*
X122031926Y-90819961D01*
X122031839Y-90820175D01*
X122033714Y-90856935D01*
X122050525Y-90892026D01*
X122080039Y-90920528D01*
X122123116Y-90930061D01*
X122159932Y-90928950D01*
X122212074Y-90928133D01*
X122239444Y-90940349D01*
X122255882Y-90972624D01*
X122257955Y-90978710D01*
X122265081Y-91024739D01*
X122246024Y-91052687D01*
X122196353Y-91066007D01*
X122142697Y-91068470D01*
X122046142Y-91050210D01*
X121996159Y-91024131D01*
X121934429Y-90962868D01*
X121901690Y-90887670D01*
X121898753Y-90808211D01*
X121926424Y-90734167D01*
X121968047Y-90687769D01*
X122009604Y-90661793D01*
X122074922Y-90628907D01*
X122151038Y-90595557D01*
X122163726Y-90590461D01*
X122247333Y-90553565D01*
X122295530Y-90521046D01*
X122311030Y-90488718D01*
X122296550Y-90452394D01*
X122271692Y-90424000D01*
X122212939Y-90389039D01*
X122148293Y-90386417D01*
X122089008Y-90413358D01*
X122046339Y-90467088D01*
X122040739Y-90480950D01*
X122008133Y-90531936D01*
X121960530Y-90569787D01*
X121900461Y-90600850D01*
X121900461Y-90512768D01*
X121903997Y-90458951D01*
X121919156Y-90416534D01*
X121952768Y-90371279D01*
X121985035Y-90336420D01*
X122035209Y-90287062D01*
X122074193Y-90260547D01*
X122116064Y-90249911D01*
X122163460Y-90248154D01*
X122267333Y-90263528D01*
G36*
X121775929Y-90266662D02*
G01*
X121778911Y-90318068D01*
X121781247Y-90396192D01*
X121782749Y-90494857D01*
X121783231Y-90598343D01*
X121783231Y-90948533D01*
X121721401Y-91010363D01*
X121678793Y-91048462D01*
X121641390Y-91063895D01*
X121590270Y-91062918D01*
X121569978Y-91060433D01*
X121506554Y-91053200D01*
X121454095Y-91049055D01*
X121441308Y-91048672D01*
X121398199Y-91051176D01*
X121336544Y-91057462D01*
X121312638Y-91060433D01*
X121253922Y-91065028D01*
X121214464Y-91055046D01*
X121175338Y-91024228D01*
X121161215Y-91010363D01*
X121099385Y-90948533D01*
X121099385Y-90293503D01*
X121149150Y-90270829D01*
X121192002Y-90254034D01*
X121217073Y-90248154D01*
X121223501Y-90266736D01*
X121229509Y-90318655D01*
X121234697Y-90398172D01*
X121238664Y-90499546D01*
X121240577Y-90585192D01*
X121245923Y-90922231D01*
X121292560Y-90928825D01*
X121334976Y-90924214D01*
X121355760Y-90909287D01*
X121361570Y-90881377D01*
X121366530Y-90821925D01*
X121370246Y-90738466D01*
X121372324Y-90638532D01*
X121372624Y-90587104D01*
X121372923Y-90291054D01*
X121434454Y-90269604D01*
X121478004Y-90255020D01*
X121501694Y-90248219D01*
X121502377Y-90248154D01*
X121504754Y-90266642D01*
X121507366Y-90317906D01*
X121509995Y-90395649D01*
X121512421Y-90493574D01*
X121514115Y-90585192D01*
X121519461Y-90922231D01*
X121636692Y-90922231D01*
X121642072Y-90614746D01*
X121647451Y-90307261D01*
X121704601Y-90277707D01*
X121746797Y-90257413D01*
X121771770Y-90248204D01*
X121772491Y-90248154D01*
X121775929Y-90266662D01*
G37*
X121775929Y-90266662D02*
X121778911Y-90318068D01*
X121781247Y-90396192D01*
X121782749Y-90494857D01*
X121783231Y-90598343D01*
X121783231Y-90948533D01*
X121721401Y-91010363D01*
X121678793Y-91048462D01*
X121641390Y-91063895D01*
X121590270Y-91062918D01*
X121569978Y-91060433D01*
X121506554Y-91053200D01*
X121454095Y-91049055D01*
X121441308Y-91048672D01*
X121398199Y-91051176D01*
X121336544Y-91057462D01*
X121312638Y-91060433D01*
X121253922Y-91065028D01*
X121214464Y-91055046D01*
X121175338Y-91024228D01*
X121161215Y-91010363D01*
X121099385Y-90948533D01*
X121099385Y-90293503D01*
X121149150Y-90270829D01*
X121192002Y-90254034D01*
X121217073Y-90248154D01*
X121223501Y-90266736D01*
X121229509Y-90318655D01*
X121234697Y-90398172D01*
X121238664Y-90499546D01*
X121240577Y-90585192D01*
X121245923Y-90922231D01*
X121292560Y-90928825D01*
X121334976Y-90924214D01*
X121355760Y-90909287D01*
X121361570Y-90881377D01*
X121366530Y-90821925D01*
X121370246Y-90738466D01*
X121372324Y-90638532D01*
X121372624Y-90587104D01*
X121372923Y-90291054D01*
X121434454Y-90269604D01*
X121478004Y-90255020D01*
X121501694Y-90248219D01*
X121502377Y-90248154D01*
X121504754Y-90266642D01*
X121507366Y-90317906D01*
X121509995Y-90395649D01*
X121512421Y-90493574D01*
X121514115Y-90585192D01*
X121519461Y-90922231D01*
X121636692Y-90922231D01*
X121642072Y-90614746D01*
X121647451Y-90307261D01*
X121704601Y-90277707D01*
X121746797Y-90257413D01*
X121771770Y-90248204D01*
X121772491Y-90248154D01*
X121775929Y-90266662D01*
G36*
X120982081Y-90410289D02*
G01*
X120981833Y-90556320D01*
X120980872Y-90668655D01*
X120978794Y-90752678D01*
X120975193Y-90813769D01*
X120969665Y-90857309D01*
X120961804Y-90888679D01*
X120951207Y-90913262D01*
X120943182Y-90927294D01*
X120876728Y-91003388D01*
X120792470Y-91051084D01*
X120699249Y-91068199D01*
X120605900Y-91052546D01*
X120550312Y-91024418D01*
X120491957Y-90975760D01*
X120452186Y-90916333D01*
X120428190Y-90838507D01*
X120417161Y-90734652D01*
X120415599Y-90658462D01*
X120415809Y-90652986D01*
X120552308Y-90652986D01*
X120553141Y-90740355D01*
X120556961Y-90798192D01*
X120565746Y-90836029D01*
X120581474Y-90863398D01*
X120600266Y-90884042D01*
X120663375Y-90923890D01*
X120731137Y-90927295D01*
X120795179Y-90894025D01*
X120800164Y-90889517D01*
X120821439Y-90866067D01*
X120834779Y-90838166D01*
X120842001Y-90796641D01*
X120844923Y-90732316D01*
X120845385Y-90661200D01*
X120844383Y-90571858D01*
X120840238Y-90512258D01*
X120831236Y-90473089D01*
X120815667Y-90445040D01*
X120802902Y-90430144D01*
X120743600Y-90392575D01*
X120675301Y-90388057D01*
X120610110Y-90416753D01*
X120597528Y-90427406D01*
X120576111Y-90451063D01*
X120562744Y-90479251D01*
X120555566Y-90521245D01*
X120552719Y-90586319D01*
X120552308Y-90652986D01*
X120415809Y-90652986D01*
X120420322Y-90535765D01*
X120436362Y-90443577D01*
X120466528Y-90374269D01*
X120513629Y-90320211D01*
X120550312Y-90292505D01*
X120616990Y-90262572D01*
X120694272Y-90248678D01*
X120766110Y-90252397D01*
X120806308Y-90267400D01*
X120822082Y-90271670D01*
X120832550Y-90255750D01*
X120839856Y-90213089D01*
X120845385Y-90148106D01*
X120851437Y-90075732D01*
X120859844Y-90032187D01*
X120875141Y-90007287D01*
X120901864Y-89990845D01*
X120918654Y-89983564D01*
X120982154Y-89956963D01*
X120982081Y-90410289D01*
G37*
X120982081Y-90410289D02*
X120981833Y-90556320D01*
X120980872Y-90668655D01*
X120978794Y-90752678D01*
X120975193Y-90813769D01*
X120969665Y-90857309D01*
X120961804Y-90888679D01*
X120951207Y-90913262D01*
X120943182Y-90927294D01*
X120876728Y-91003388D01*
X120792470Y-91051084D01*
X120699249Y-91068199D01*
X120605900Y-91052546D01*
X120550312Y-91024418D01*
X120491957Y-90975760D01*
X120452186Y-90916333D01*
X120428190Y-90838507D01*
X120417161Y-90734652D01*
X120415599Y-90658462D01*
X120415809Y-90652986D01*
X120552308Y-90652986D01*
X120553141Y-90740355D01*
X120556961Y-90798192D01*
X120565746Y-90836029D01*
X120581474Y-90863398D01*
X120600266Y-90884042D01*
X120663375Y-90923890D01*
X120731137Y-90927295D01*
X120795179Y-90894025D01*
X120800164Y-90889517D01*
X120821439Y-90866067D01*
X120834779Y-90838166D01*
X120842001Y-90796641D01*
X120844923Y-90732316D01*
X120845385Y-90661200D01*
X120844383Y-90571858D01*
X120840238Y-90512258D01*
X120831236Y-90473089D01*
X120815667Y-90445040D01*
X120802902Y-90430144D01*
X120743600Y-90392575D01*
X120675301Y-90388057D01*
X120610110Y-90416753D01*
X120597528Y-90427406D01*
X120576111Y-90451063D01*
X120562744Y-90479251D01*
X120555566Y-90521245D01*
X120552719Y-90586319D01*
X120552308Y-90652986D01*
X120415809Y-90652986D01*
X120420322Y-90535765D01*
X120436362Y-90443577D01*
X120466528Y-90374269D01*
X120513629Y-90320211D01*
X120550312Y-90292505D01*
X120616990Y-90262572D01*
X120694272Y-90248678D01*
X120766110Y-90252397D01*
X120806308Y-90267400D01*
X120822082Y-90271670D01*
X120832550Y-90255750D01*
X120839856Y-90213089D01*
X120845385Y-90148106D01*
X120851437Y-90075732D01*
X120859844Y-90032187D01*
X120875141Y-90007287D01*
X120901864Y-89990845D01*
X120918654Y-89983564D01*
X120982154Y-89956963D01*
X120982081Y-90410289D01*
G36*
X120093362Y-90254670D02*
G01*
X120182117Y-90287421D01*
X120254022Y-90345350D01*
X120282144Y-90386128D01*
X120312802Y-90460954D01*
X120312165Y-90515058D01*
X120279987Y-90551446D01*
X120268081Y-90557633D01*
X120216675Y-90576925D01*
X120190422Y-90571982D01*
X120181530Y-90539587D01*
X120181077Y-90521692D01*
X120164797Y-90455859D01*
X120122365Y-90409807D01*
X120063388Y-90387564D01*
X119997475Y-90393161D01*
X119943895Y-90422229D01*
X119925798Y-90438810D01*
X119912971Y-90458925D01*
X119904306Y-90489332D01*
X119898696Y-90536788D01*
X119895035Y-90608050D01*
X119892215Y-90709875D01*
X119891484Y-90742115D01*
X119888820Y-90852410D01*
X119885792Y-90930036D01*
X119881250Y-90981396D01*
X119874046Y-91012890D01*
X119863033Y-91030920D01*
X119847060Y-91041888D01*
X119836834Y-91046733D01*
X119793406Y-91063301D01*
X119767842Y-91068769D01*
X119759395Y-91050507D01*
X119754239Y-90995296D01*
X119752346Y-90902499D01*
X119753689Y-90771478D01*
X119754107Y-90751269D01*
X119757058Y-90631733D01*
X119760548Y-90544449D01*
X119765514Y-90482591D01*
X119772893Y-90439336D01*
X119783624Y-90407860D01*
X119798645Y-90381339D01*
X119806502Y-90369975D01*
X119851553Y-90319692D01*
X119901940Y-90280581D01*
X119908108Y-90277167D01*
X119998458Y-90250212D01*
X120093362Y-90254670D01*
G37*
X120093362Y-90254670D02*
X120182117Y-90287421D01*
X120254022Y-90345350D01*
X120282144Y-90386128D01*
X120312802Y-90460954D01*
X120312165Y-90515058D01*
X120279987Y-90551446D01*
X120268081Y-90557633D01*
X120216675Y-90576925D01*
X120190422Y-90571982D01*
X120181530Y-90539587D01*
X120181077Y-90521692D01*
X120164797Y-90455859D01*
X120122365Y-90409807D01*
X120063388Y-90387564D01*
X119997475Y-90393161D01*
X119943895Y-90422229D01*
X119925798Y-90438810D01*
X119912971Y-90458925D01*
X119904306Y-90489332D01*
X119898696Y-90536788D01*
X119895035Y-90608050D01*
X119892215Y-90709875D01*
X119891484Y-90742115D01*
X119888820Y-90852410D01*
X119885792Y-90930036D01*
X119881250Y-90981396D01*
X119874046Y-91012890D01*
X119863033Y-91030920D01*
X119847060Y-91041888D01*
X119836834Y-91046733D01*
X119793406Y-91063301D01*
X119767842Y-91068769D01*
X119759395Y-91050507D01*
X119754239Y-90995296D01*
X119752346Y-90902499D01*
X119753689Y-90771478D01*
X119754107Y-90751269D01*
X119757058Y-90631733D01*
X119760548Y-90544449D01*
X119765514Y-90482591D01*
X119772893Y-90439336D01*
X119783624Y-90407860D01*
X119798645Y-90381339D01*
X119806502Y-90369975D01*
X119851553Y-90319692D01*
X119901940Y-90280581D01*
X119908108Y-90277167D01*
X119998458Y-90250212D01*
X120093362Y-90254670D01*
G36*
X119433501Y-90256303D02*
G01*
X119510060Y-90284733D01*
X119510936Y-90285279D01*
X119558285Y-90320127D01*
X119593241Y-90360852D01*
X119617825Y-90413925D01*
X119634062Y-90485814D01*
X119643975Y-90582992D01*
X119649586Y-90711928D01*
X119650077Y-90730298D01*
X119657141Y-91007287D01*
X119597695Y-91038028D01*
X119554681Y-91058802D01*
X119528710Y-91068646D01*
X119527509Y-91068769D01*
X119523014Y-91050606D01*
X119519444Y-91001612D01*
X119517248Y-90930031D01*
X119516769Y-90872068D01*
X119516758Y-90778170D01*
X119512466Y-90719203D01*
X119497503Y-90691079D01*
X119465482Y-90689706D01*
X119410014Y-90710998D01*
X119326269Y-90750136D01*
X119264689Y-90782643D01*
X119233017Y-90810845D01*
X119223706Y-90841582D01*
X119223692Y-90843104D01*
X119239057Y-90896054D01*
X119284547Y-90924660D01*
X119354166Y-90928803D01*
X119404313Y-90928084D01*
X119430754Y-90942527D01*
X119447243Y-90977218D01*
X119456733Y-91021416D01*
X119443057Y-91046493D01*
X119437907Y-91050082D01*
X119389425Y-91064496D01*
X119321531Y-91066537D01*
X119251612Y-91056983D01*
X119202068Y-91039522D01*
X119133570Y-90981364D01*
X119094634Y-90900408D01*
X119086923Y-90837160D01*
X119092807Y-90780111D01*
X119114101Y-90733542D01*
X119156265Y-90692181D01*
X119224759Y-90650755D01*
X119325044Y-90603993D01*
X119331154Y-90601350D01*
X119421490Y-90559617D01*
X119477235Y-90525391D01*
X119501129Y-90494635D01*
X119495913Y-90463311D01*
X119464328Y-90427383D01*
X119454883Y-90419116D01*
X119391617Y-90387058D01*
X119326064Y-90388407D01*
X119268972Y-90419838D01*
X119231093Y-90478024D01*
X119227574Y-90489446D01*
X119193300Y-90544837D01*
X119149809Y-90571518D01*
X119086923Y-90597960D01*
X119086923Y-90529548D01*
X119106052Y-90430110D01*
X119162831Y-90338902D01*
X119192378Y-90308389D01*
X119259542Y-90269228D01*
X119344956Y-90251500D01*
X119433501Y-90256303D01*
G37*
X119433501Y-90256303D02*
X119510060Y-90284733D01*
X119510936Y-90285279D01*
X119558285Y-90320127D01*
X119593241Y-90360852D01*
X119617825Y-90413925D01*
X119634062Y-90485814D01*
X119643975Y-90582992D01*
X119649586Y-90711928D01*
X119650077Y-90730298D01*
X119657141Y-91007287D01*
X119597695Y-91038028D01*
X119554681Y-91058802D01*
X119528710Y-91068646D01*
X119527509Y-91068769D01*
X119523014Y-91050606D01*
X119519444Y-91001612D01*
X119517248Y-90930031D01*
X119516769Y-90872068D01*
X119516758Y-90778170D01*
X119512466Y-90719203D01*
X119497503Y-90691079D01*
X119465482Y-90689706D01*
X119410014Y-90710998D01*
X119326269Y-90750136D01*
X119264689Y-90782643D01*
X119233017Y-90810845D01*
X119223706Y-90841582D01*
X119223692Y-90843104D01*
X119239057Y-90896054D01*
X119284547Y-90924660D01*
X119354166Y-90928803D01*
X119404313Y-90928084D01*
X119430754Y-90942527D01*
X119447243Y-90977218D01*
X119456733Y-91021416D01*
X119443057Y-91046493D01*
X119437907Y-91050082D01*
X119389425Y-91064496D01*
X119321531Y-91066537D01*
X119251612Y-91056983D01*
X119202068Y-91039522D01*
X119133570Y-90981364D01*
X119094634Y-90900408D01*
X119086923Y-90837160D01*
X119092807Y-90780111D01*
X119114101Y-90733542D01*
X119156265Y-90692181D01*
X119224759Y-90650755D01*
X119325044Y-90603993D01*
X119331154Y-90601350D01*
X119421490Y-90559617D01*
X119477235Y-90525391D01*
X119501129Y-90494635D01*
X119495913Y-90463311D01*
X119464328Y-90427383D01*
X119454883Y-90419116D01*
X119391617Y-90387058D01*
X119326064Y-90388407D01*
X119268972Y-90419838D01*
X119231093Y-90478024D01*
X119227574Y-90489446D01*
X119193300Y-90544837D01*
X119149809Y-90571518D01*
X119086923Y-90597960D01*
X119086923Y-90529548D01*
X119106052Y-90430110D01*
X119162831Y-90338902D01*
X119192378Y-90308389D01*
X119259542Y-90269228D01*
X119344956Y-90251500D01*
X119433501Y-90256303D01*
G36*
X118539846Y-90122120D02*
G01*
X118545572Y-90201980D01*
X118552149Y-90249039D01*
X118561262Y-90269566D01*
X118574598Y-90269829D01*
X118578923Y-90267378D01*
X118636444Y-90249636D01*
X118711268Y-90250672D01*
X118787339Y-90268910D01*
X118834918Y-90292505D01*
X118883702Y-90330198D01*
X118919364Y-90372855D01*
X118943845Y-90427057D01*
X118959087Y-90499384D01*
X118967030Y-90596419D01*
X118969616Y-90724742D01*
X118969662Y-90749358D01*
X118969692Y-91025870D01*
X118908161Y-91047320D01*
X118864459Y-91061912D01*
X118840482Y-91068706D01*
X118839777Y-91068769D01*
X118837415Y-91050345D01*
X118835406Y-90999526D01*
X118833901Y-90922993D01*
X118833053Y-90827430D01*
X118832923Y-90769329D01*
X118832651Y-90654771D01*
X118831252Y-90572667D01*
X118827849Y-90516393D01*
X118821567Y-90479326D01*
X118811529Y-90454844D01*
X118796861Y-90436325D01*
X118787702Y-90427406D01*
X118724789Y-90391466D01*
X118656136Y-90388775D01*
X118593848Y-90419170D01*
X118582329Y-90430144D01*
X118565433Y-90450779D01*
X118553714Y-90475256D01*
X118546233Y-90510647D01*
X118542054Y-90564026D01*
X118540237Y-90642466D01*
X118539846Y-90750617D01*
X118539846Y-91025870D01*
X118478315Y-91047320D01*
X118434613Y-91061912D01*
X118410636Y-91068706D01*
X118409930Y-91068769D01*
X118408126Y-91050069D01*
X118406500Y-90997322D01*
X118405117Y-90915557D01*
X118404042Y-90809805D01*
X118403340Y-90685094D01*
X118403077Y-90546455D01*
X118403077Y-90011806D01*
X118530077Y-89958236D01*
X118539846Y-90122120D01*
G37*
X118539846Y-90122120D02*
X118545572Y-90201980D01*
X118552149Y-90249039D01*
X118561262Y-90269566D01*
X118574598Y-90269829D01*
X118578923Y-90267378D01*
X118636444Y-90249636D01*
X118711268Y-90250672D01*
X118787339Y-90268910D01*
X118834918Y-90292505D01*
X118883702Y-90330198D01*
X118919364Y-90372855D01*
X118943845Y-90427057D01*
X118959087Y-90499384D01*
X118967030Y-90596419D01*
X118969616Y-90724742D01*
X118969662Y-90749358D01*
X118969692Y-91025870D01*
X118908161Y-91047320D01*
X118864459Y-91061912D01*
X118840482Y-91068706D01*
X118839777Y-91068769D01*
X118837415Y-91050345D01*
X118835406Y-90999526D01*
X118833901Y-90922993D01*
X118833053Y-90827430D01*
X118832923Y-90769329D01*
X118832651Y-90654771D01*
X118831252Y-90572667D01*
X118827849Y-90516393D01*
X118821567Y-90479326D01*
X118811529Y-90454844D01*
X118796861Y-90436325D01*
X118787702Y-90427406D01*
X118724789Y-90391466D01*
X118656136Y-90388775D01*
X118593848Y-90419170D01*
X118582329Y-90430144D01*
X118565433Y-90450779D01*
X118553714Y-90475256D01*
X118546233Y-90510647D01*
X118542054Y-90564026D01*
X118540237Y-90642466D01*
X118539846Y-90750617D01*
X118539846Y-91025870D01*
X118478315Y-91047320D01*
X118434613Y-91061912D01*
X118410636Y-91068706D01*
X118409930Y-91068769D01*
X118408126Y-91050069D01*
X118406500Y-90997322D01*
X118405117Y-90915557D01*
X118404042Y-90809805D01*
X118403340Y-90685094D01*
X118403077Y-90546455D01*
X118403077Y-90011806D01*
X118530077Y-89958236D01*
X118539846Y-90122120D01*
G36*
X116914254Y-90229745D02*
G01*
X116991286Y-90281567D01*
X117050816Y-90356412D01*
X117086378Y-90451654D01*
X117093571Y-90521756D01*
X117092754Y-90551009D01*
X117085914Y-90573407D01*
X117067112Y-90593474D01*
X117030408Y-90615733D01*
X116969862Y-90644709D01*
X116879534Y-90684927D01*
X116879077Y-90685129D01*
X116795933Y-90723210D01*
X116727753Y-90757025D01*
X116681505Y-90782933D01*
X116664158Y-90797295D01*
X116664154Y-90797411D01*
X116679443Y-90828685D01*
X116715196Y-90863157D01*
X116756242Y-90887990D01*
X116777037Y-90892923D01*
X116833770Y-90875862D01*
X116882627Y-90833133D01*
X116906465Y-90786155D01*
X116929397Y-90751522D01*
X116974318Y-90712081D01*
X117027123Y-90678009D01*
X117073710Y-90659480D01*
X117083452Y-90658462D01*
X117094418Y-90675215D01*
X117095079Y-90718039D01*
X117087020Y-90775781D01*
X117071827Y-90837289D01*
X117051086Y-90891409D01*
X117050038Y-90893510D01*
X116987621Y-90980660D01*
X116906726Y-91039939D01*
X116814856Y-91069034D01*
X116719513Y-91065634D01*
X116628198Y-91027428D01*
X116624138Y-91024741D01*
X116552306Y-90959642D01*
X116505073Y-90874705D01*
X116478934Y-90763021D01*
X116475426Y-90731643D01*
X116469213Y-90583536D01*
X116476661Y-90514468D01*
X116664154Y-90514468D01*
X116666590Y-90557552D01*
X116679914Y-90570126D01*
X116713132Y-90560719D01*
X116765494Y-90538483D01*
X116824024Y-90510610D01*
X116825479Y-90509872D01*
X116875089Y-90483777D01*
X116895000Y-90466363D01*
X116890090Y-90448107D01*
X116869416Y-90424120D01*
X116816819Y-90389406D01*
X116760177Y-90386856D01*
X116709369Y-90412119D01*
X116674276Y-90460847D01*
X116664154Y-90514468D01*
X116476661Y-90514468D01*
X116481992Y-90465036D01*
X116514778Y-90371055D01*
X116560421Y-90305215D01*
X116642802Y-90238681D01*
X116733546Y-90205676D01*
X116826185Y-90203573D01*
X116914254Y-90229745D01*
G37*
X116914254Y-90229745D02*
X116991286Y-90281567D01*
X117050816Y-90356412D01*
X117086378Y-90451654D01*
X117093571Y-90521756D01*
X117092754Y-90551009D01*
X117085914Y-90573407D01*
X117067112Y-90593474D01*
X117030408Y-90615733D01*
X116969862Y-90644709D01*
X116879534Y-90684927D01*
X116879077Y-90685129D01*
X116795933Y-90723210D01*
X116727753Y-90757025D01*
X116681505Y-90782933D01*
X116664158Y-90797295D01*
X116664154Y-90797411D01*
X116679443Y-90828685D01*
X116715196Y-90863157D01*
X116756242Y-90887990D01*
X116777037Y-90892923D01*
X116833770Y-90875862D01*
X116882627Y-90833133D01*
X116906465Y-90786155D01*
X116929397Y-90751522D01*
X116974318Y-90712081D01*
X117027123Y-90678009D01*
X117073710Y-90659480D01*
X117083452Y-90658462D01*
X117094418Y-90675215D01*
X117095079Y-90718039D01*
X117087020Y-90775781D01*
X117071827Y-90837289D01*
X117051086Y-90891409D01*
X117050038Y-90893510D01*
X116987621Y-90980660D01*
X116906726Y-91039939D01*
X116814856Y-91069034D01*
X116719513Y-91065634D01*
X116628198Y-91027428D01*
X116624138Y-91024741D01*
X116552306Y-90959642D01*
X116505073Y-90874705D01*
X116478934Y-90763021D01*
X116475426Y-90731643D01*
X116469213Y-90583536D01*
X116476661Y-90514468D01*
X116664154Y-90514468D01*
X116666590Y-90557552D01*
X116679914Y-90570126D01*
X116713132Y-90560719D01*
X116765494Y-90538483D01*
X116824024Y-90510610D01*
X116825479Y-90509872D01*
X116875089Y-90483777D01*
X116895000Y-90466363D01*
X116890090Y-90448107D01*
X116869416Y-90424120D01*
X116816819Y-90389406D01*
X116760177Y-90386856D01*
X116709369Y-90412119D01*
X116674276Y-90460847D01*
X116664154Y-90514468D01*
X116476661Y-90514468D01*
X116481992Y-90465036D01*
X116514778Y-90371055D01*
X116560421Y-90305215D01*
X116642802Y-90238681D01*
X116733546Y-90205676D01*
X116826185Y-90203573D01*
X116914254Y-90229745D01*
G36*
X115396886Y-90217256D02*
G01*
X115488464Y-90265409D01*
X115556049Y-90342905D01*
X115580057Y-90392727D01*
X115598738Y-90467533D01*
X115608301Y-90562052D01*
X115609208Y-90665210D01*
X115601921Y-90765935D01*
X115586903Y-90853153D01*
X115564615Y-90915791D01*
X115557765Y-90926579D01*
X115476632Y-91007105D01*
X115380266Y-91055336D01*
X115275701Y-91069450D01*
X115169968Y-91047629D01*
X115140543Y-91034547D01*
X115083241Y-90994231D01*
X115032950Y-90940775D01*
X115028197Y-90933995D01*
X115008878Y-90901321D01*
X114996108Y-90866394D01*
X114988564Y-90820414D01*
X114984924Y-90754584D01*
X114983865Y-90660105D01*
X114983846Y-90638923D01*
X114983894Y-90632182D01*
X115179231Y-90632182D01*
X115180368Y-90721349D01*
X115184841Y-90780520D01*
X115194246Y-90818741D01*
X115210176Y-90845053D01*
X115218308Y-90853846D01*
X115265058Y-90887261D01*
X115310447Y-90885737D01*
X115356340Y-90856752D01*
X115383712Y-90825809D01*
X115399923Y-90780643D01*
X115409026Y-90709420D01*
X115409651Y-90701114D01*
X115411204Y-90572037D01*
X115394965Y-90476172D01*
X115361152Y-90414107D01*
X115309984Y-90386432D01*
X115291720Y-90384923D01*
X115243760Y-90392513D01*
X115210953Y-90418808D01*
X115190895Y-90469095D01*
X115181178Y-90548664D01*
X115179231Y-90632182D01*
X114983894Y-90632182D01*
X114984574Y-90538249D01*
X114987629Y-90467906D01*
X114994322Y-90419163D01*
X115005960Y-90383288D01*
X115023853Y-90351548D01*
X115027808Y-90345648D01*
X115094267Y-90266104D01*
X115166685Y-90219929D01*
X115254849Y-90201599D01*
X115284787Y-90200703D01*
X115396886Y-90217256D01*
G37*
X115396886Y-90217256D02*
X115488464Y-90265409D01*
X115556049Y-90342905D01*
X115580057Y-90392727D01*
X115598738Y-90467533D01*
X115608301Y-90562052D01*
X115609208Y-90665210D01*
X115601921Y-90765935D01*
X115586903Y-90853153D01*
X115564615Y-90915791D01*
X115557765Y-90926579D01*
X115476632Y-91007105D01*
X115380266Y-91055336D01*
X115275701Y-91069450D01*
X115169968Y-91047629D01*
X115140543Y-91034547D01*
X115083241Y-90994231D01*
X115032950Y-90940775D01*
X115028197Y-90933995D01*
X115008878Y-90901321D01*
X114996108Y-90866394D01*
X114988564Y-90820414D01*
X114984924Y-90754584D01*
X114983865Y-90660105D01*
X114983846Y-90638923D01*
X114983894Y-90632182D01*
X115179231Y-90632182D01*
X115180368Y-90721349D01*
X115184841Y-90780520D01*
X115194246Y-90818741D01*
X115210176Y-90845053D01*
X115218308Y-90853846D01*
X115265058Y-90887261D01*
X115310447Y-90885737D01*
X115356340Y-90856752D01*
X115383712Y-90825809D01*
X115399923Y-90780643D01*
X115409026Y-90709420D01*
X115409651Y-90701114D01*
X115411204Y-90572037D01*
X115394965Y-90476172D01*
X115361152Y-90414107D01*
X115309984Y-90386432D01*
X115291720Y-90384923D01*
X115243760Y-90392513D01*
X115210953Y-90418808D01*
X115190895Y-90469095D01*
X115181178Y-90548664D01*
X115179231Y-90632182D01*
X114983894Y-90632182D01*
X114984574Y-90538249D01*
X114987629Y-90467906D01*
X114994322Y-90419163D01*
X115005960Y-90383288D01*
X115023853Y-90351548D01*
X115027808Y-90345648D01*
X115094267Y-90266104D01*
X115166685Y-90219929D01*
X115254849Y-90201599D01*
X115284787Y-90200703D01*
X115396886Y-90217256D01*
G36*
X117651664Y-90225089D02*
G01*
X117714367Y-90261358D01*
X117757961Y-90297358D01*
X117789845Y-90335075D01*
X117811810Y-90381199D01*
X117825649Y-90442421D01*
X117833153Y-90525431D01*
X117836117Y-90636919D01*
X117836461Y-90717062D01*
X117836461Y-91012065D01*
X117670385Y-91086515D01*
X117660615Y-90763402D01*
X117656579Y-90642729D01*
X117652344Y-90555141D01*
X117647097Y-90494650D01*
X117640025Y-90455268D01*
X117630311Y-90431007D01*
X117617144Y-90415880D01*
X117612919Y-90412606D01*
X117548909Y-90387034D01*
X117484208Y-90397153D01*
X117445692Y-90424000D01*
X117430025Y-90443024D01*
X117419180Y-90467988D01*
X117412288Y-90505834D01*
X117408479Y-90563502D01*
X117406883Y-90647935D01*
X117406615Y-90735928D01*
X117406563Y-90846323D01*
X117404672Y-90924463D01*
X117398345Y-90977165D01*
X117384983Y-91011242D01*
X117361985Y-91033511D01*
X117326754Y-91050787D01*
X117279697Y-91068738D01*
X117228303Y-91088278D01*
X117234421Y-90741485D01*
X117236884Y-90616468D01*
X117239767Y-90524082D01*
X117243898Y-90457881D01*
X117250107Y-90411420D01*
X117259226Y-90378256D01*
X117272083Y-90351944D01*
X117287584Y-90328729D01*
X117362371Y-90254569D01*
X117453628Y-90211684D01*
X117552883Y-90201412D01*
X117651664Y-90225089D01*
G37*
X117651664Y-90225089D02*
X117714367Y-90261358D01*
X117757961Y-90297358D01*
X117789845Y-90335075D01*
X117811810Y-90381199D01*
X117825649Y-90442421D01*
X117833153Y-90525431D01*
X117836117Y-90636919D01*
X117836461Y-90717062D01*
X117836461Y-91012065D01*
X117670385Y-91086515D01*
X117660615Y-90763402D01*
X117656579Y-90642729D01*
X117652344Y-90555141D01*
X117647097Y-90494650D01*
X117640025Y-90455268D01*
X117630311Y-90431007D01*
X117617144Y-90415880D01*
X117612919Y-90412606D01*
X117548909Y-90387034D01*
X117484208Y-90397153D01*
X117445692Y-90424000D01*
X117430025Y-90443024D01*
X117419180Y-90467988D01*
X117412288Y-90505834D01*
X117408479Y-90563502D01*
X117406883Y-90647935D01*
X117406615Y-90735928D01*
X117406563Y-90846323D01*
X117404672Y-90924463D01*
X117398345Y-90977165D01*
X117384983Y-91011242D01*
X117361985Y-91033511D01*
X117326754Y-91050787D01*
X117279697Y-91068738D01*
X117228303Y-91088278D01*
X117234421Y-90741485D01*
X117236884Y-90616468D01*
X117239767Y-90524082D01*
X117243898Y-90457881D01*
X117250107Y-90411420D01*
X117259226Y-90378256D01*
X117272083Y-90351944D01*
X117287584Y-90328729D01*
X117362371Y-90254569D01*
X117453628Y-90211684D01*
X117552883Y-90201412D01*
X117651664Y-90225089D01*
G36*
X116148886Y-90214505D02*
G01*
X116223539Y-90251727D01*
X116289431Y-90320261D01*
X116307577Y-90345648D01*
X116327345Y-90378866D01*
X116340172Y-90414945D01*
X116347510Y-90463098D01*
X116350813Y-90532536D01*
X116351538Y-90624206D01*
X116348263Y-90749830D01*
X116336877Y-90844154D01*
X116315041Y-90914523D01*
X116280419Y-90968286D01*
X116230670Y-91012788D01*
X116227014Y-91015423D01*
X116177985Y-91042377D01*
X116118945Y-91055712D01*
X116043859Y-91059000D01*
X115921795Y-91059000D01*
X115921744Y-91177497D01*
X115920608Y-91243492D01*
X115913686Y-91282202D01*
X115895598Y-91305419D01*
X115860962Y-91324933D01*
X115852645Y-91328920D01*
X115813720Y-91347603D01*
X115783583Y-91359403D01*
X115761174Y-91360422D01*
X115745433Y-91346761D01*
X115735302Y-91314522D01*
X115729723Y-91259804D01*
X115727635Y-91178711D01*
X115727981Y-91067344D01*
X115729700Y-90921802D01*
X115730237Y-90878269D01*
X115732172Y-90728205D01*
X115733904Y-90630042D01*
X115921692Y-90630042D01*
X115922748Y-90713364D01*
X115927438Y-90767880D01*
X115938051Y-90803837D01*
X115956872Y-90831482D01*
X115969650Y-90844965D01*
X116021890Y-90884417D01*
X116068142Y-90887628D01*
X116115867Y-90855049D01*
X116117077Y-90853846D01*
X116136494Y-90828668D01*
X116148307Y-90794447D01*
X116154265Y-90741748D01*
X116156120Y-90661131D01*
X116156154Y-90643271D01*
X116151670Y-90532175D01*
X116137074Y-90455161D01*
X116110650Y-90408147D01*
X116070683Y-90387050D01*
X116047584Y-90384923D01*
X115992762Y-90394900D01*
X115955158Y-90427752D01*
X115932523Y-90487857D01*
X115922606Y-90579598D01*
X115921692Y-90630042D01*
X115733904Y-90630042D01*
X115734222Y-90612060D01*
X115736873Y-90524679D01*
X115740606Y-90460905D01*
X115745907Y-90415582D01*
X115753258Y-90383555D01*
X115763143Y-90359668D01*
X115776046Y-90338764D01*
X115781579Y-90330898D01*
X115854969Y-90256595D01*
X115947760Y-90214467D01*
X116055096Y-90202722D01*
X116148886Y-90214505D01*
G37*
X116148886Y-90214505D02*
X116223539Y-90251727D01*
X116289431Y-90320261D01*
X116307577Y-90345648D01*
X116327345Y-90378866D01*
X116340172Y-90414945D01*
X116347510Y-90463098D01*
X116350813Y-90532536D01*
X116351538Y-90624206D01*
X116348263Y-90749830D01*
X116336877Y-90844154D01*
X116315041Y-90914523D01*
X116280419Y-90968286D01*
X116230670Y-91012788D01*
X116227014Y-91015423D01*
X116177985Y-91042377D01*
X116118945Y-91055712D01*
X116043859Y-91059000D01*
X115921795Y-91059000D01*
X115921744Y-91177497D01*
X115920608Y-91243492D01*
X115913686Y-91282202D01*
X115895598Y-91305419D01*
X115860962Y-91324933D01*
X115852645Y-91328920D01*
X115813720Y-91347603D01*
X115783583Y-91359403D01*
X115761174Y-91360422D01*
X115745433Y-91346761D01*
X115735302Y-91314522D01*
X115729723Y-91259804D01*
X115727635Y-91178711D01*
X115727981Y-91067344D01*
X115729700Y-90921802D01*
X115730237Y-90878269D01*
X115732172Y-90728205D01*
X115733904Y-90630042D01*
X115921692Y-90630042D01*
X115922748Y-90713364D01*
X115927438Y-90767880D01*
X115938051Y-90803837D01*
X115956872Y-90831482D01*
X115969650Y-90844965D01*
X116021890Y-90884417D01*
X116068142Y-90887628D01*
X116115867Y-90855049D01*
X116117077Y-90853846D01*
X116136494Y-90828668D01*
X116148307Y-90794447D01*
X116154265Y-90741748D01*
X116156120Y-90661131D01*
X116156154Y-90643271D01*
X116151670Y-90532175D01*
X116137074Y-90455161D01*
X116110650Y-90408147D01*
X116070683Y-90387050D01*
X116047584Y-90384923D01*
X115992762Y-90394900D01*
X115955158Y-90427752D01*
X115932523Y-90487857D01*
X115922606Y-90579598D01*
X115921692Y-90630042D01*
X115733904Y-90630042D01*
X115734222Y-90612060D01*
X115736873Y-90524679D01*
X115740606Y-90460905D01*
X115745907Y-90415582D01*
X115753258Y-90383555D01*
X115763143Y-90359668D01*
X115776046Y-90338764D01*
X115781579Y-90330898D01*
X115854969Y-90256595D01*
X115947760Y-90214467D01*
X116055096Y-90202722D01*
X116148886Y-90214505D01*
D12*
X115380000Y-69235000D02*
X115845000Y-69235000D01*
X112755000Y-69235000D02*
X113220000Y-69235000D01*
X115380429Y-64420521D02*
G75*
G02X115380000Y-68929684I-1080429J-2254479D01*
G01*
X113219571Y-64420521D02*
G75*
G03X113220000Y-68929684I1080429J-2254479D01*
G01*
X115380827Y-63887185D02*
G75*
G02X115844830Y-69235000I-1080827J-2787815D01*
G01*
X113219173Y-63887185D02*
G75*
G03X112755170Y-69235000I1080827J-2787815D01*
G01*
X113219173Y-70237185D02*
G75*
G03X112755170Y-75585000I1080827J-2787815D01*
G01*
X115380827Y-70237185D02*
G75*
G02X115844830Y-75585000I-1080827J-2787815D01*
G01*
X113219571Y-70770521D02*
G75*
G03X113220000Y-75279684I1080429J-2254479D01*
G01*
X115380429Y-70770521D02*
G75*
G02X115380000Y-75279684I-1080429J-2254479D01*
G01*
X112755000Y-75585000D02*
X113220000Y-75585000D01*
X115380000Y-75585000D02*
X115845000Y-75585000D01*
X115759173Y-63887185D02*
G75*
G03X115295170Y-69235000I1080827J-2787815D01*
G01*
X117920827Y-63887185D02*
G75*
G02X118384830Y-69235000I-1080827J-2787815D01*
G01*
X115759571Y-64420521D02*
G75*
G03X115760000Y-68929684I1080429J-2254479D01*
G01*
X117920429Y-64420521D02*
G75*
G02X117920000Y-68929684I-1080429J-2254479D01*
G01*
X115295000Y-69235000D02*
X115760000Y-69235000D01*
X117920000Y-69235000D02*
X118385000Y-69235000D01*
X117920000Y-75585000D02*
X118385000Y-75585000D01*
X115295000Y-75585000D02*
X115760000Y-75585000D01*
X117920429Y-70770521D02*
G75*
G02X117920000Y-75279684I-1080429J-2254479D01*
G01*
X115759571Y-70770521D02*
G75*
G03X115760000Y-75279684I1080429J-2254479D01*
G01*
X117920827Y-70237185D02*
G75*
G02X118384830Y-75585000I-1080827J-2787815D01*
G01*
X115759173Y-70237185D02*
G75*
G03X115295170Y-75585000I1080827J-2787815D01*
G01*
X120460000Y-69235000D02*
X120925000Y-69235000D01*
X117835000Y-69235000D02*
X118300000Y-69235000D01*
X120460429Y-64420521D02*
G75*
G02X120460000Y-68929684I-1080429J-2254479D01*
G01*
X118299571Y-64420521D02*
G75*
G03X118300000Y-68929684I1080429J-2254479D01*
G01*
X120460827Y-63887185D02*
G75*
G02X120924830Y-69235000I-1080827J-2787815D01*
G01*
X118299173Y-63887185D02*
G75*
G03X117835170Y-69235000I1080827J-2787815D01*
G01*
X118299173Y-70237185D02*
G75*
G03X117835170Y-75585000I1080827J-2787815D01*
G01*
X120460827Y-70237185D02*
G75*
G02X120924830Y-75585000I-1080827J-2787815D01*
G01*
X118299571Y-70770521D02*
G75*
G03X118300000Y-75279684I1080429J-2254479D01*
G01*
X120460429Y-70770521D02*
G75*
G02X120460000Y-75279684I-1080429J-2254479D01*
G01*
X117835000Y-75585000D02*
X118300000Y-75585000D01*
X120460000Y-75585000D02*
X120925000Y-75585000D01*
X120839173Y-63887185D02*
G75*
G03X120375170Y-69235000I1080827J-2787815D01*
G01*
X123000827Y-63887185D02*
G75*
G02X123464830Y-69235000I-1080827J-2787815D01*
G01*
X120839571Y-64420521D02*
G75*
G03X120840000Y-68929684I1080429J-2254479D01*
G01*
X123000429Y-64420521D02*
G75*
G02X123000000Y-68929684I-1080429J-2254479D01*
G01*
X120375000Y-69235000D02*
X120840000Y-69235000D01*
X123000000Y-69235000D02*
X123465000Y-69235000D01*
X123000000Y-75585000D02*
X123465000Y-75585000D01*
X120375000Y-75585000D02*
X120840000Y-75585000D01*
X123000429Y-70770521D02*
G75*
G02X123000000Y-75279684I-1080429J-2254479D01*
G01*
X120839571Y-70770521D02*
G75*
G03X120840000Y-75279684I1080429J-2254479D01*
G01*
X123000827Y-70237185D02*
G75*
G02X123464830Y-75585000I-1080827J-2787815D01*
G01*
X120839173Y-70237185D02*
G75*
G03X120375170Y-75585000I1080827J-2787815D01*
G01*
X125540000Y-69235000D02*
X126005000Y-69235000D01*
X122915000Y-69235000D02*
X123380000Y-69235000D01*
X125540429Y-64420521D02*
G75*
G02X125540000Y-68929684I-1080429J-2254479D01*
G01*
X123379571Y-64420521D02*
G75*
G03X123380000Y-68929684I1080429J-2254479D01*
G01*
X125540827Y-63887185D02*
G75*
G02X126004830Y-69235000I-1080827J-2787815D01*
G01*
X123379173Y-63887185D02*
G75*
G03X122915170Y-69235000I1080827J-2787815D01*
G01*
X123379173Y-70237185D02*
G75*
G03X122915170Y-75585000I1080827J-2787815D01*
G01*
X125540827Y-70237185D02*
G75*
G02X126004830Y-75585000I-1080827J-2787815D01*
G01*
X123379571Y-70770521D02*
G75*
G03X123380000Y-75279684I1080429J-2254479D01*
G01*
X125540429Y-70770521D02*
G75*
G02X125540000Y-75279684I-1080429J-2254479D01*
G01*
X122915000Y-75585000D02*
X123380000Y-75585000D01*
X125540000Y-75585000D02*
X126005000Y-75585000D01*
M02*
