G04 #@! TF.GenerationSoftware,KiCad,Pcbnew,5.1.5-52549c5~84~ubuntu18.04.1*
G04 #@! TF.CreationDate,2020-02-11T17:06:34+00:00*
G04 #@! TF.ProjectId,transmitter,7472616e-736d-4697-9474-65722e6b6963,rev?*
G04 #@! TF.SameCoordinates,Original*
G04 #@! TF.FileFunction,Legend,Top*
G04 #@! TF.FilePolarity,Positive*
%FSLAX46Y46*%
G04 Gerber Fmt 4.6, Leading zero omitted, Abs format (unit mm)*
G04 Created by KiCad (PCBNEW 5.1.5-52549c5~84~ubuntu18.04.1) date 2020-02-11 17:06:34*
%MOMM*%
%LPD*%
G04 APERTURE LIST*
%ADD10C,0.120000*%
%ADD11C,0.010000*%
%ADD12C,0.150000*%
%ADD13C,0.100000*%
G04 APERTURE END LIST*
D10*
X107950000Y-52705000D02*
X97155000Y-52705000D01*
X107950000Y-59055000D02*
X97155000Y-59055000D01*
X107950000Y-52705000D02*
X107950000Y-59055000D01*
D11*
G36*
X-3231114Y-2584505D02*
G01*
X-3156461Y-2621727D01*
X-3090569Y-2690261D01*
X-3072423Y-2715648D01*
X-3052655Y-2748866D01*
X-3039828Y-2784945D01*
X-3032490Y-2833098D01*
X-3029187Y-2902536D01*
X-3028462Y-2994206D01*
X-3031737Y-3119830D01*
X-3043123Y-3214154D01*
X-3064959Y-3284523D01*
X-3099581Y-3338286D01*
X-3149330Y-3382788D01*
X-3152986Y-3385423D01*
X-3202015Y-3412377D01*
X-3261055Y-3425712D01*
X-3336141Y-3429000D01*
X-3458205Y-3429000D01*
X-3458256Y-3547497D01*
X-3459392Y-3613492D01*
X-3466314Y-3652202D01*
X-3484402Y-3675419D01*
X-3519038Y-3694933D01*
X-3527355Y-3698920D01*
X-3566280Y-3717603D01*
X-3596417Y-3729403D01*
X-3618826Y-3730422D01*
X-3634567Y-3716761D01*
X-3644698Y-3684522D01*
X-3650277Y-3629804D01*
X-3652365Y-3548711D01*
X-3652019Y-3437344D01*
X-3650300Y-3291802D01*
X-3649763Y-3248269D01*
X-3647828Y-3098205D01*
X-3646096Y-3000042D01*
X-3458308Y-3000042D01*
X-3457252Y-3083364D01*
X-3452562Y-3137880D01*
X-3441949Y-3173837D01*
X-3423128Y-3201482D01*
X-3410350Y-3214965D01*
X-3358110Y-3254417D01*
X-3311858Y-3257628D01*
X-3264133Y-3225049D01*
X-3262923Y-3223846D01*
X-3243506Y-3198668D01*
X-3231693Y-3164447D01*
X-3225735Y-3111748D01*
X-3223880Y-3031131D01*
X-3223846Y-3013271D01*
X-3228330Y-2902175D01*
X-3242926Y-2825161D01*
X-3269350Y-2778147D01*
X-3309317Y-2757050D01*
X-3332416Y-2754923D01*
X-3387238Y-2764900D01*
X-3424842Y-2797752D01*
X-3447477Y-2857857D01*
X-3457394Y-2949598D01*
X-3458308Y-3000042D01*
X-3646096Y-3000042D01*
X-3645778Y-2982060D01*
X-3643127Y-2894679D01*
X-3639394Y-2830905D01*
X-3634093Y-2785582D01*
X-3626742Y-2753555D01*
X-3616857Y-2729668D01*
X-3603954Y-2708764D01*
X-3598421Y-2700898D01*
X-3525031Y-2626595D01*
X-3432240Y-2584467D01*
X-3324904Y-2572722D01*
X-3231114Y-2584505D01*
G37*
X-3231114Y-2584505D02*
X-3156461Y-2621727D01*
X-3090569Y-2690261D01*
X-3072423Y-2715648D01*
X-3052655Y-2748866D01*
X-3039828Y-2784945D01*
X-3032490Y-2833098D01*
X-3029187Y-2902536D01*
X-3028462Y-2994206D01*
X-3031737Y-3119830D01*
X-3043123Y-3214154D01*
X-3064959Y-3284523D01*
X-3099581Y-3338286D01*
X-3149330Y-3382788D01*
X-3152986Y-3385423D01*
X-3202015Y-3412377D01*
X-3261055Y-3425712D01*
X-3336141Y-3429000D01*
X-3458205Y-3429000D01*
X-3458256Y-3547497D01*
X-3459392Y-3613492D01*
X-3466314Y-3652202D01*
X-3484402Y-3675419D01*
X-3519038Y-3694933D01*
X-3527355Y-3698920D01*
X-3566280Y-3717603D01*
X-3596417Y-3729403D01*
X-3618826Y-3730422D01*
X-3634567Y-3716761D01*
X-3644698Y-3684522D01*
X-3650277Y-3629804D01*
X-3652365Y-3548711D01*
X-3652019Y-3437344D01*
X-3650300Y-3291802D01*
X-3649763Y-3248269D01*
X-3647828Y-3098205D01*
X-3646096Y-3000042D01*
X-3458308Y-3000042D01*
X-3457252Y-3083364D01*
X-3452562Y-3137880D01*
X-3441949Y-3173837D01*
X-3423128Y-3201482D01*
X-3410350Y-3214965D01*
X-3358110Y-3254417D01*
X-3311858Y-3257628D01*
X-3264133Y-3225049D01*
X-3262923Y-3223846D01*
X-3243506Y-3198668D01*
X-3231693Y-3164447D01*
X-3225735Y-3111748D01*
X-3223880Y-3031131D01*
X-3223846Y-3013271D01*
X-3228330Y-2902175D01*
X-3242926Y-2825161D01*
X-3269350Y-2778147D01*
X-3309317Y-2757050D01*
X-3332416Y-2754923D01*
X-3387238Y-2764900D01*
X-3424842Y-2797752D01*
X-3447477Y-2857857D01*
X-3457394Y-2949598D01*
X-3458308Y-3000042D01*
X-3646096Y-3000042D01*
X-3645778Y-2982060D01*
X-3643127Y-2894679D01*
X-3639394Y-2830905D01*
X-3634093Y-2785582D01*
X-3626742Y-2753555D01*
X-3616857Y-2729668D01*
X-3603954Y-2708764D01*
X-3598421Y-2700898D01*
X-3525031Y-2626595D01*
X-3432240Y-2584467D01*
X-3324904Y-2572722D01*
X-3231114Y-2584505D01*
G36*
X-1728336Y-2595089D02*
G01*
X-1665633Y-2631358D01*
X-1622039Y-2667358D01*
X-1590155Y-2705075D01*
X-1568190Y-2751199D01*
X-1554351Y-2812421D01*
X-1546847Y-2895431D01*
X-1543883Y-3006919D01*
X-1543539Y-3087062D01*
X-1543539Y-3382065D01*
X-1709615Y-3456515D01*
X-1719385Y-3133402D01*
X-1723421Y-3012729D01*
X-1727656Y-2925141D01*
X-1732903Y-2864650D01*
X-1739975Y-2825268D01*
X-1749689Y-2801007D01*
X-1762856Y-2785880D01*
X-1767081Y-2782606D01*
X-1831091Y-2757034D01*
X-1895792Y-2767153D01*
X-1934308Y-2794000D01*
X-1949975Y-2813024D01*
X-1960820Y-2837988D01*
X-1967712Y-2875834D01*
X-1971521Y-2933502D01*
X-1973117Y-3017935D01*
X-1973385Y-3105928D01*
X-1973437Y-3216323D01*
X-1975328Y-3294463D01*
X-1981655Y-3347165D01*
X-1995017Y-3381242D01*
X-2018015Y-3403511D01*
X-2053246Y-3420787D01*
X-2100303Y-3438738D01*
X-2151697Y-3458278D01*
X-2145579Y-3111485D01*
X-2143116Y-2986468D01*
X-2140233Y-2894082D01*
X-2136102Y-2827881D01*
X-2129893Y-2781420D01*
X-2120774Y-2748256D01*
X-2107917Y-2721944D01*
X-2092416Y-2698729D01*
X-2017629Y-2624569D01*
X-1926372Y-2581684D01*
X-1827117Y-2571412D01*
X-1728336Y-2595089D01*
G37*
X-1728336Y-2595089D02*
X-1665633Y-2631358D01*
X-1622039Y-2667358D01*
X-1590155Y-2705075D01*
X-1568190Y-2751199D01*
X-1554351Y-2812421D01*
X-1546847Y-2895431D01*
X-1543883Y-3006919D01*
X-1543539Y-3087062D01*
X-1543539Y-3382065D01*
X-1709615Y-3456515D01*
X-1719385Y-3133402D01*
X-1723421Y-3012729D01*
X-1727656Y-2925141D01*
X-1732903Y-2864650D01*
X-1739975Y-2825268D01*
X-1749689Y-2801007D01*
X-1762856Y-2785880D01*
X-1767081Y-2782606D01*
X-1831091Y-2757034D01*
X-1895792Y-2767153D01*
X-1934308Y-2794000D01*
X-1949975Y-2813024D01*
X-1960820Y-2837988D01*
X-1967712Y-2875834D01*
X-1971521Y-2933502D01*
X-1973117Y-3017935D01*
X-1973385Y-3105928D01*
X-1973437Y-3216323D01*
X-1975328Y-3294463D01*
X-1981655Y-3347165D01*
X-1995017Y-3381242D01*
X-2018015Y-3403511D01*
X-2053246Y-3420787D01*
X-2100303Y-3438738D01*
X-2151697Y-3458278D01*
X-2145579Y-3111485D01*
X-2143116Y-2986468D01*
X-2140233Y-2894082D01*
X-2136102Y-2827881D01*
X-2129893Y-2781420D01*
X-2120774Y-2748256D01*
X-2107917Y-2721944D01*
X-2092416Y-2698729D01*
X-2017629Y-2624569D01*
X-1926372Y-2581684D01*
X-1827117Y-2571412D01*
X-1728336Y-2595089D01*
G36*
X-3983114Y-2587256D02*
G01*
X-3891536Y-2635409D01*
X-3823951Y-2712905D01*
X-3799943Y-2762727D01*
X-3781262Y-2837533D01*
X-3771699Y-2932052D01*
X-3770792Y-3035210D01*
X-3778079Y-3135935D01*
X-3793097Y-3223153D01*
X-3815385Y-3285791D01*
X-3822235Y-3296579D01*
X-3903368Y-3377105D01*
X-3999734Y-3425336D01*
X-4104299Y-3439450D01*
X-4210032Y-3417629D01*
X-4239457Y-3404547D01*
X-4296759Y-3364231D01*
X-4347050Y-3310775D01*
X-4351803Y-3303995D01*
X-4371122Y-3271321D01*
X-4383892Y-3236394D01*
X-4391436Y-3190414D01*
X-4395076Y-3124584D01*
X-4396135Y-3030105D01*
X-4396154Y-3008923D01*
X-4396106Y-3002182D01*
X-4200769Y-3002182D01*
X-4199632Y-3091349D01*
X-4195159Y-3150520D01*
X-4185754Y-3188741D01*
X-4169824Y-3215053D01*
X-4161692Y-3223846D01*
X-4114942Y-3257261D01*
X-4069553Y-3255737D01*
X-4023660Y-3226752D01*
X-3996288Y-3195809D01*
X-3980077Y-3150643D01*
X-3970974Y-3079420D01*
X-3970349Y-3071114D01*
X-3968796Y-2942037D01*
X-3985035Y-2846172D01*
X-4018848Y-2784107D01*
X-4070016Y-2756432D01*
X-4088280Y-2754923D01*
X-4136240Y-2762513D01*
X-4169047Y-2788808D01*
X-4189105Y-2839095D01*
X-4198822Y-2918664D01*
X-4200769Y-3002182D01*
X-4396106Y-3002182D01*
X-4395426Y-2908249D01*
X-4392371Y-2837906D01*
X-4385678Y-2789163D01*
X-4374040Y-2753288D01*
X-4356147Y-2721548D01*
X-4352192Y-2715648D01*
X-4285733Y-2636104D01*
X-4213315Y-2589929D01*
X-4125151Y-2571599D01*
X-4095213Y-2570703D01*
X-3983114Y-2587256D01*
G37*
X-3983114Y-2587256D02*
X-3891536Y-2635409D01*
X-3823951Y-2712905D01*
X-3799943Y-2762727D01*
X-3781262Y-2837533D01*
X-3771699Y-2932052D01*
X-3770792Y-3035210D01*
X-3778079Y-3135935D01*
X-3793097Y-3223153D01*
X-3815385Y-3285791D01*
X-3822235Y-3296579D01*
X-3903368Y-3377105D01*
X-3999734Y-3425336D01*
X-4104299Y-3439450D01*
X-4210032Y-3417629D01*
X-4239457Y-3404547D01*
X-4296759Y-3364231D01*
X-4347050Y-3310775D01*
X-4351803Y-3303995D01*
X-4371122Y-3271321D01*
X-4383892Y-3236394D01*
X-4391436Y-3190414D01*
X-4395076Y-3124584D01*
X-4396135Y-3030105D01*
X-4396154Y-3008923D01*
X-4396106Y-3002182D01*
X-4200769Y-3002182D01*
X-4199632Y-3091349D01*
X-4195159Y-3150520D01*
X-4185754Y-3188741D01*
X-4169824Y-3215053D01*
X-4161692Y-3223846D01*
X-4114942Y-3257261D01*
X-4069553Y-3255737D01*
X-4023660Y-3226752D01*
X-3996288Y-3195809D01*
X-3980077Y-3150643D01*
X-3970974Y-3079420D01*
X-3970349Y-3071114D01*
X-3968796Y-2942037D01*
X-3985035Y-2846172D01*
X-4018848Y-2784107D01*
X-4070016Y-2756432D01*
X-4088280Y-2754923D01*
X-4136240Y-2762513D01*
X-4169047Y-2788808D01*
X-4189105Y-2839095D01*
X-4198822Y-2918664D01*
X-4200769Y-3002182D01*
X-4396106Y-3002182D01*
X-4395426Y-2908249D01*
X-4392371Y-2837906D01*
X-4385678Y-2789163D01*
X-4374040Y-2753288D01*
X-4356147Y-2721548D01*
X-4352192Y-2715648D01*
X-4285733Y-2636104D01*
X-4213315Y-2589929D01*
X-4125151Y-2571599D01*
X-4095213Y-2570703D01*
X-3983114Y-2587256D01*
G36*
X-2465746Y-2599745D02*
G01*
X-2388714Y-2651567D01*
X-2329184Y-2726412D01*
X-2293622Y-2821654D01*
X-2286429Y-2891756D01*
X-2287246Y-2921009D01*
X-2294086Y-2943407D01*
X-2312888Y-2963474D01*
X-2349592Y-2985733D01*
X-2410138Y-3014709D01*
X-2500466Y-3054927D01*
X-2500923Y-3055129D01*
X-2584067Y-3093210D01*
X-2652247Y-3127025D01*
X-2698495Y-3152933D01*
X-2715842Y-3167295D01*
X-2715846Y-3167411D01*
X-2700557Y-3198685D01*
X-2664804Y-3233157D01*
X-2623758Y-3257990D01*
X-2602963Y-3262923D01*
X-2546230Y-3245862D01*
X-2497373Y-3203133D01*
X-2473535Y-3156155D01*
X-2450603Y-3121522D01*
X-2405682Y-3082081D01*
X-2352877Y-3048009D01*
X-2306290Y-3029480D01*
X-2296548Y-3028462D01*
X-2285582Y-3045215D01*
X-2284921Y-3088039D01*
X-2292980Y-3145781D01*
X-2308173Y-3207289D01*
X-2328914Y-3261409D01*
X-2329962Y-3263510D01*
X-2392379Y-3350660D01*
X-2473274Y-3409939D01*
X-2565144Y-3439034D01*
X-2660487Y-3435634D01*
X-2751802Y-3397428D01*
X-2755862Y-3394741D01*
X-2827694Y-3329642D01*
X-2874927Y-3244705D01*
X-2901066Y-3133021D01*
X-2904574Y-3101643D01*
X-2910787Y-2953536D01*
X-2903339Y-2884468D01*
X-2715846Y-2884468D01*
X-2713410Y-2927552D01*
X-2700086Y-2940126D01*
X-2666868Y-2930719D01*
X-2614506Y-2908483D01*
X-2555976Y-2880610D01*
X-2554521Y-2879872D01*
X-2504911Y-2853777D01*
X-2485000Y-2836363D01*
X-2489910Y-2818107D01*
X-2510584Y-2794120D01*
X-2563181Y-2759406D01*
X-2619823Y-2756856D01*
X-2670631Y-2782119D01*
X-2705724Y-2830847D01*
X-2715846Y-2884468D01*
X-2903339Y-2884468D01*
X-2898008Y-2835036D01*
X-2865222Y-2741055D01*
X-2819579Y-2675215D01*
X-2737198Y-2608681D01*
X-2646454Y-2575676D01*
X-2553815Y-2573573D01*
X-2465746Y-2599745D01*
G37*
X-2465746Y-2599745D02*
X-2388714Y-2651567D01*
X-2329184Y-2726412D01*
X-2293622Y-2821654D01*
X-2286429Y-2891756D01*
X-2287246Y-2921009D01*
X-2294086Y-2943407D01*
X-2312888Y-2963474D01*
X-2349592Y-2985733D01*
X-2410138Y-3014709D01*
X-2500466Y-3054927D01*
X-2500923Y-3055129D01*
X-2584067Y-3093210D01*
X-2652247Y-3127025D01*
X-2698495Y-3152933D01*
X-2715842Y-3167295D01*
X-2715846Y-3167411D01*
X-2700557Y-3198685D01*
X-2664804Y-3233157D01*
X-2623758Y-3257990D01*
X-2602963Y-3262923D01*
X-2546230Y-3245862D01*
X-2497373Y-3203133D01*
X-2473535Y-3156155D01*
X-2450603Y-3121522D01*
X-2405682Y-3082081D01*
X-2352877Y-3048009D01*
X-2306290Y-3029480D01*
X-2296548Y-3028462D01*
X-2285582Y-3045215D01*
X-2284921Y-3088039D01*
X-2292980Y-3145781D01*
X-2308173Y-3207289D01*
X-2328914Y-3261409D01*
X-2329962Y-3263510D01*
X-2392379Y-3350660D01*
X-2473274Y-3409939D01*
X-2565144Y-3439034D01*
X-2660487Y-3435634D01*
X-2751802Y-3397428D01*
X-2755862Y-3394741D01*
X-2827694Y-3329642D01*
X-2874927Y-3244705D01*
X-2901066Y-3133021D01*
X-2904574Y-3101643D01*
X-2910787Y-2953536D01*
X-2903339Y-2884468D01*
X-2715846Y-2884468D01*
X-2713410Y-2927552D01*
X-2700086Y-2940126D01*
X-2666868Y-2930719D01*
X-2614506Y-2908483D01*
X-2555976Y-2880610D01*
X-2554521Y-2879872D01*
X-2504911Y-2853777D01*
X-2485000Y-2836363D01*
X-2489910Y-2818107D01*
X-2510584Y-2794120D01*
X-2563181Y-2759406D01*
X-2619823Y-2756856D01*
X-2670631Y-2782119D01*
X-2705724Y-2830847D01*
X-2715846Y-2884468D01*
X-2903339Y-2884468D01*
X-2898008Y-2835036D01*
X-2865222Y-2741055D01*
X-2819579Y-2675215D01*
X-2737198Y-2608681D01*
X-2646454Y-2575676D01*
X-2553815Y-2573573D01*
X-2465746Y-2599745D01*
G36*
X-840154Y-2492120D02*
G01*
X-834428Y-2571980D01*
X-827851Y-2619039D01*
X-818738Y-2639566D01*
X-805402Y-2639829D01*
X-801077Y-2637378D01*
X-743556Y-2619636D01*
X-668732Y-2620672D01*
X-592661Y-2638910D01*
X-545082Y-2662505D01*
X-496298Y-2700198D01*
X-460636Y-2742855D01*
X-436155Y-2797057D01*
X-420913Y-2869384D01*
X-412970Y-2966419D01*
X-410384Y-3094742D01*
X-410338Y-3119358D01*
X-410308Y-3395870D01*
X-471839Y-3417320D01*
X-515541Y-3431912D01*
X-539518Y-3438706D01*
X-540223Y-3438769D01*
X-542585Y-3420345D01*
X-544594Y-3369526D01*
X-546099Y-3292993D01*
X-546947Y-3197430D01*
X-547077Y-3139329D01*
X-547349Y-3024771D01*
X-548748Y-2942667D01*
X-552151Y-2886393D01*
X-558433Y-2849326D01*
X-568471Y-2824844D01*
X-583139Y-2806325D01*
X-592298Y-2797406D01*
X-655211Y-2761466D01*
X-723864Y-2758775D01*
X-786152Y-2789170D01*
X-797671Y-2800144D01*
X-814567Y-2820779D01*
X-826286Y-2845256D01*
X-833767Y-2880647D01*
X-837946Y-2934026D01*
X-839763Y-3012466D01*
X-840154Y-3120617D01*
X-840154Y-3395870D01*
X-901685Y-3417320D01*
X-945387Y-3431912D01*
X-969364Y-3438706D01*
X-970070Y-3438769D01*
X-971874Y-3420069D01*
X-973500Y-3367322D01*
X-974883Y-3285557D01*
X-975958Y-3179805D01*
X-976660Y-3055094D01*
X-976923Y-2916455D01*
X-976923Y-2381806D01*
X-849923Y-2328236D01*
X-840154Y-2492120D01*
G37*
X-840154Y-2492120D02*
X-834428Y-2571980D01*
X-827851Y-2619039D01*
X-818738Y-2639566D01*
X-805402Y-2639829D01*
X-801077Y-2637378D01*
X-743556Y-2619636D01*
X-668732Y-2620672D01*
X-592661Y-2638910D01*
X-545082Y-2662505D01*
X-496298Y-2700198D01*
X-460636Y-2742855D01*
X-436155Y-2797057D01*
X-420913Y-2869384D01*
X-412970Y-2966419D01*
X-410384Y-3094742D01*
X-410338Y-3119358D01*
X-410308Y-3395870D01*
X-471839Y-3417320D01*
X-515541Y-3431912D01*
X-539518Y-3438706D01*
X-540223Y-3438769D01*
X-542585Y-3420345D01*
X-544594Y-3369526D01*
X-546099Y-3292993D01*
X-546947Y-3197430D01*
X-547077Y-3139329D01*
X-547349Y-3024771D01*
X-548748Y-2942667D01*
X-552151Y-2886393D01*
X-558433Y-2849326D01*
X-568471Y-2824844D01*
X-583139Y-2806325D01*
X-592298Y-2797406D01*
X-655211Y-2761466D01*
X-723864Y-2758775D01*
X-786152Y-2789170D01*
X-797671Y-2800144D01*
X-814567Y-2820779D01*
X-826286Y-2845256D01*
X-833767Y-2880647D01*
X-837946Y-2934026D01*
X-839763Y-3012466D01*
X-840154Y-3120617D01*
X-840154Y-3395870D01*
X-901685Y-3417320D01*
X-945387Y-3431912D01*
X-969364Y-3438706D01*
X-970070Y-3438769D01*
X-971874Y-3420069D01*
X-973500Y-3367322D01*
X-974883Y-3285557D01*
X-975958Y-3179805D01*
X-976660Y-3055094D01*
X-976923Y-2916455D01*
X-976923Y-2381806D01*
X-849923Y-2328236D01*
X-840154Y-2492120D01*
G36*
X53501Y-2626303D02*
G01*
X130060Y-2654733D01*
X130936Y-2655279D01*
X178285Y-2690127D01*
X213241Y-2730852D01*
X237825Y-2783925D01*
X254062Y-2855814D01*
X263975Y-2952992D01*
X269586Y-3081928D01*
X270077Y-3100298D01*
X277141Y-3377287D01*
X217695Y-3408028D01*
X174681Y-3428802D01*
X148710Y-3438646D01*
X147509Y-3438769D01*
X143014Y-3420606D01*
X139444Y-3371612D01*
X137248Y-3300031D01*
X136769Y-3242068D01*
X136758Y-3148170D01*
X132466Y-3089203D01*
X117503Y-3061079D01*
X85482Y-3059706D01*
X30014Y-3080998D01*
X-53731Y-3120136D01*
X-115311Y-3152643D01*
X-146983Y-3180845D01*
X-156294Y-3211582D01*
X-156308Y-3213104D01*
X-140943Y-3266054D01*
X-95453Y-3294660D01*
X-25834Y-3298803D01*
X24313Y-3298084D01*
X50754Y-3312527D01*
X67243Y-3347218D01*
X76733Y-3391416D01*
X63057Y-3416493D01*
X57907Y-3420082D01*
X9425Y-3434496D01*
X-58469Y-3436537D01*
X-128388Y-3426983D01*
X-177932Y-3409522D01*
X-246430Y-3351364D01*
X-285366Y-3270408D01*
X-293077Y-3207160D01*
X-287193Y-3150111D01*
X-265899Y-3103542D01*
X-223735Y-3062181D01*
X-155241Y-3020755D01*
X-54956Y-2973993D01*
X-48846Y-2971350D01*
X41490Y-2929617D01*
X97235Y-2895391D01*
X121129Y-2864635D01*
X115913Y-2833311D01*
X84328Y-2797383D01*
X74883Y-2789116D01*
X11617Y-2757058D01*
X-53936Y-2758407D01*
X-111028Y-2789838D01*
X-148907Y-2848024D01*
X-152426Y-2859446D01*
X-186700Y-2914837D01*
X-230191Y-2941518D01*
X-293077Y-2967960D01*
X-293077Y-2899548D01*
X-273948Y-2800110D01*
X-217169Y-2708902D01*
X-187622Y-2678389D01*
X-120458Y-2639228D01*
X-35044Y-2621500D01*
X53501Y-2626303D01*
G37*
X53501Y-2626303D02*
X130060Y-2654733D01*
X130936Y-2655279D01*
X178285Y-2690127D01*
X213241Y-2730852D01*
X237825Y-2783925D01*
X254062Y-2855814D01*
X263975Y-2952992D01*
X269586Y-3081928D01*
X270077Y-3100298D01*
X277141Y-3377287D01*
X217695Y-3408028D01*
X174681Y-3428802D01*
X148710Y-3438646D01*
X147509Y-3438769D01*
X143014Y-3420606D01*
X139444Y-3371612D01*
X137248Y-3300031D01*
X136769Y-3242068D01*
X136758Y-3148170D01*
X132466Y-3089203D01*
X117503Y-3061079D01*
X85482Y-3059706D01*
X30014Y-3080998D01*
X-53731Y-3120136D01*
X-115311Y-3152643D01*
X-146983Y-3180845D01*
X-156294Y-3211582D01*
X-156308Y-3213104D01*
X-140943Y-3266054D01*
X-95453Y-3294660D01*
X-25834Y-3298803D01*
X24313Y-3298084D01*
X50754Y-3312527D01*
X67243Y-3347218D01*
X76733Y-3391416D01*
X63057Y-3416493D01*
X57907Y-3420082D01*
X9425Y-3434496D01*
X-58469Y-3436537D01*
X-128388Y-3426983D01*
X-177932Y-3409522D01*
X-246430Y-3351364D01*
X-285366Y-3270408D01*
X-293077Y-3207160D01*
X-287193Y-3150111D01*
X-265899Y-3103542D01*
X-223735Y-3062181D01*
X-155241Y-3020755D01*
X-54956Y-2973993D01*
X-48846Y-2971350D01*
X41490Y-2929617D01*
X97235Y-2895391D01*
X121129Y-2864635D01*
X115913Y-2833311D01*
X84328Y-2797383D01*
X74883Y-2789116D01*
X11617Y-2757058D01*
X-53936Y-2758407D01*
X-111028Y-2789838D01*
X-148907Y-2848024D01*
X-152426Y-2859446D01*
X-186700Y-2914837D01*
X-230191Y-2941518D01*
X-293077Y-2967960D01*
X-293077Y-2899548D01*
X-273948Y-2800110D01*
X-217169Y-2708902D01*
X-187622Y-2678389D01*
X-120458Y-2639228D01*
X-35044Y-2621500D01*
X53501Y-2626303D01*
G36*
X713362Y-2624670D02*
G01*
X802117Y-2657421D01*
X874022Y-2715350D01*
X902144Y-2756128D01*
X932802Y-2830954D01*
X932165Y-2885058D01*
X899987Y-2921446D01*
X888081Y-2927633D01*
X836675Y-2946925D01*
X810422Y-2941982D01*
X801530Y-2909587D01*
X801077Y-2891692D01*
X784797Y-2825859D01*
X742365Y-2779807D01*
X683388Y-2757564D01*
X617475Y-2763161D01*
X563895Y-2792229D01*
X545798Y-2808810D01*
X532971Y-2828925D01*
X524306Y-2859332D01*
X518696Y-2906788D01*
X515035Y-2978050D01*
X512215Y-3079875D01*
X511484Y-3112115D01*
X508820Y-3222410D01*
X505792Y-3300036D01*
X501250Y-3351396D01*
X494046Y-3382890D01*
X483033Y-3400920D01*
X467060Y-3411888D01*
X456834Y-3416733D01*
X413406Y-3433301D01*
X387842Y-3438769D01*
X379395Y-3420507D01*
X374239Y-3365296D01*
X372346Y-3272499D01*
X373689Y-3141478D01*
X374107Y-3121269D01*
X377058Y-3001733D01*
X380548Y-2914449D01*
X385514Y-2852591D01*
X392893Y-2809336D01*
X403624Y-2777860D01*
X418645Y-2751339D01*
X426502Y-2739975D01*
X471553Y-2689692D01*
X521940Y-2650581D01*
X528108Y-2647167D01*
X618458Y-2620212D01*
X713362Y-2624670D01*
G37*
X713362Y-2624670D02*
X802117Y-2657421D01*
X874022Y-2715350D01*
X902144Y-2756128D01*
X932802Y-2830954D01*
X932165Y-2885058D01*
X899987Y-2921446D01*
X888081Y-2927633D01*
X836675Y-2946925D01*
X810422Y-2941982D01*
X801530Y-2909587D01*
X801077Y-2891692D01*
X784797Y-2825859D01*
X742365Y-2779807D01*
X683388Y-2757564D01*
X617475Y-2763161D01*
X563895Y-2792229D01*
X545798Y-2808810D01*
X532971Y-2828925D01*
X524306Y-2859332D01*
X518696Y-2906788D01*
X515035Y-2978050D01*
X512215Y-3079875D01*
X511484Y-3112115D01*
X508820Y-3222410D01*
X505792Y-3300036D01*
X501250Y-3351396D01*
X494046Y-3382890D01*
X483033Y-3400920D01*
X467060Y-3411888D01*
X456834Y-3416733D01*
X413406Y-3433301D01*
X387842Y-3438769D01*
X379395Y-3420507D01*
X374239Y-3365296D01*
X372346Y-3272499D01*
X373689Y-3141478D01*
X374107Y-3121269D01*
X377058Y-3001733D01*
X380548Y-2914449D01*
X385514Y-2852591D01*
X392893Y-2809336D01*
X403624Y-2777860D01*
X418645Y-2751339D01*
X426502Y-2739975D01*
X471553Y-2689692D01*
X521940Y-2650581D01*
X528108Y-2647167D01*
X618458Y-2620212D01*
X713362Y-2624670D01*
G36*
X1602081Y-2780289D02*
G01*
X1601833Y-2926320D01*
X1600872Y-3038655D01*
X1598794Y-3122678D01*
X1595193Y-3183769D01*
X1589665Y-3227309D01*
X1581804Y-3258679D01*
X1571207Y-3283262D01*
X1563182Y-3297294D01*
X1496728Y-3373388D01*
X1412470Y-3421084D01*
X1319249Y-3438199D01*
X1225900Y-3422546D01*
X1170312Y-3394418D01*
X1111957Y-3345760D01*
X1072186Y-3286333D01*
X1048190Y-3208507D01*
X1037161Y-3104652D01*
X1035599Y-3028462D01*
X1035809Y-3022986D01*
X1172308Y-3022986D01*
X1173141Y-3110355D01*
X1176961Y-3168192D01*
X1185746Y-3206029D01*
X1201474Y-3233398D01*
X1220266Y-3254042D01*
X1283375Y-3293890D01*
X1351137Y-3297295D01*
X1415179Y-3264025D01*
X1420164Y-3259517D01*
X1441439Y-3236067D01*
X1454779Y-3208166D01*
X1462001Y-3166641D01*
X1464923Y-3102316D01*
X1465385Y-3031200D01*
X1464383Y-2941858D01*
X1460238Y-2882258D01*
X1451236Y-2843089D01*
X1435667Y-2815040D01*
X1422902Y-2800144D01*
X1363600Y-2762575D01*
X1295301Y-2758057D01*
X1230110Y-2786753D01*
X1217528Y-2797406D01*
X1196111Y-2821063D01*
X1182744Y-2849251D01*
X1175566Y-2891245D01*
X1172719Y-2956319D01*
X1172308Y-3022986D01*
X1035809Y-3022986D01*
X1040322Y-2905765D01*
X1056362Y-2813577D01*
X1086528Y-2744269D01*
X1133629Y-2690211D01*
X1170312Y-2662505D01*
X1236990Y-2632572D01*
X1314272Y-2618678D01*
X1386110Y-2622397D01*
X1426308Y-2637400D01*
X1442082Y-2641670D01*
X1452550Y-2625750D01*
X1459856Y-2583089D01*
X1465385Y-2518106D01*
X1471437Y-2445732D01*
X1479844Y-2402187D01*
X1495141Y-2377287D01*
X1521864Y-2360845D01*
X1538654Y-2353564D01*
X1602154Y-2326963D01*
X1602081Y-2780289D01*
G37*
X1602081Y-2780289D02*
X1601833Y-2926320D01*
X1600872Y-3038655D01*
X1598794Y-3122678D01*
X1595193Y-3183769D01*
X1589665Y-3227309D01*
X1581804Y-3258679D01*
X1571207Y-3283262D01*
X1563182Y-3297294D01*
X1496728Y-3373388D01*
X1412470Y-3421084D01*
X1319249Y-3438199D01*
X1225900Y-3422546D01*
X1170312Y-3394418D01*
X1111957Y-3345760D01*
X1072186Y-3286333D01*
X1048190Y-3208507D01*
X1037161Y-3104652D01*
X1035599Y-3028462D01*
X1035809Y-3022986D01*
X1172308Y-3022986D01*
X1173141Y-3110355D01*
X1176961Y-3168192D01*
X1185746Y-3206029D01*
X1201474Y-3233398D01*
X1220266Y-3254042D01*
X1283375Y-3293890D01*
X1351137Y-3297295D01*
X1415179Y-3264025D01*
X1420164Y-3259517D01*
X1441439Y-3236067D01*
X1454779Y-3208166D01*
X1462001Y-3166641D01*
X1464923Y-3102316D01*
X1465385Y-3031200D01*
X1464383Y-2941858D01*
X1460238Y-2882258D01*
X1451236Y-2843089D01*
X1435667Y-2815040D01*
X1422902Y-2800144D01*
X1363600Y-2762575D01*
X1295301Y-2758057D01*
X1230110Y-2786753D01*
X1217528Y-2797406D01*
X1196111Y-2821063D01*
X1182744Y-2849251D01*
X1175566Y-2891245D01*
X1172719Y-2956319D01*
X1172308Y-3022986D01*
X1035809Y-3022986D01*
X1040322Y-2905765D01*
X1056362Y-2813577D01*
X1086528Y-2744269D01*
X1133629Y-2690211D01*
X1170312Y-2662505D01*
X1236990Y-2632572D01*
X1314272Y-2618678D01*
X1386110Y-2622397D01*
X1426308Y-2637400D01*
X1442082Y-2641670D01*
X1452550Y-2625750D01*
X1459856Y-2583089D01*
X1465385Y-2518106D01*
X1471437Y-2445732D01*
X1479844Y-2402187D01*
X1495141Y-2377287D01*
X1521864Y-2360845D01*
X1538654Y-2353564D01*
X1602154Y-2326963D01*
X1602081Y-2780289D01*
G36*
X2395929Y-2636662D02*
G01*
X2398911Y-2688068D01*
X2401247Y-2766192D01*
X2402749Y-2864857D01*
X2403231Y-2968343D01*
X2403231Y-3318533D01*
X2341401Y-3380363D01*
X2298793Y-3418462D01*
X2261390Y-3433895D01*
X2210270Y-3432918D01*
X2189978Y-3430433D01*
X2126554Y-3423200D01*
X2074095Y-3419055D01*
X2061308Y-3418672D01*
X2018199Y-3421176D01*
X1956544Y-3427462D01*
X1932638Y-3430433D01*
X1873922Y-3435028D01*
X1834464Y-3425046D01*
X1795338Y-3394228D01*
X1781215Y-3380363D01*
X1719385Y-3318533D01*
X1719385Y-2663503D01*
X1769150Y-2640829D01*
X1812002Y-2624034D01*
X1837073Y-2618154D01*
X1843501Y-2636736D01*
X1849509Y-2688655D01*
X1854697Y-2768172D01*
X1858664Y-2869546D01*
X1860577Y-2955192D01*
X1865923Y-3292231D01*
X1912560Y-3298825D01*
X1954976Y-3294214D01*
X1975760Y-3279287D01*
X1981570Y-3251377D01*
X1986530Y-3191925D01*
X1990246Y-3108466D01*
X1992324Y-3008532D01*
X1992624Y-2957104D01*
X1992923Y-2661054D01*
X2054454Y-2639604D01*
X2098004Y-2625020D01*
X2121694Y-2618219D01*
X2122377Y-2618154D01*
X2124754Y-2636642D01*
X2127366Y-2687906D01*
X2129995Y-2765649D01*
X2132421Y-2863574D01*
X2134115Y-2955192D01*
X2139461Y-3292231D01*
X2256692Y-3292231D01*
X2262072Y-2984746D01*
X2267451Y-2677261D01*
X2324601Y-2647707D01*
X2366797Y-2627413D01*
X2391770Y-2618204D01*
X2392491Y-2618154D01*
X2395929Y-2636662D01*
G37*
X2395929Y-2636662D02*
X2398911Y-2688068D01*
X2401247Y-2766192D01*
X2402749Y-2864857D01*
X2403231Y-2968343D01*
X2403231Y-3318533D01*
X2341401Y-3380363D01*
X2298793Y-3418462D01*
X2261390Y-3433895D01*
X2210270Y-3432918D01*
X2189978Y-3430433D01*
X2126554Y-3423200D01*
X2074095Y-3419055D01*
X2061308Y-3418672D01*
X2018199Y-3421176D01*
X1956544Y-3427462D01*
X1932638Y-3430433D01*
X1873922Y-3435028D01*
X1834464Y-3425046D01*
X1795338Y-3394228D01*
X1781215Y-3380363D01*
X1719385Y-3318533D01*
X1719385Y-2663503D01*
X1769150Y-2640829D01*
X1812002Y-2624034D01*
X1837073Y-2618154D01*
X1843501Y-2636736D01*
X1849509Y-2688655D01*
X1854697Y-2768172D01*
X1858664Y-2869546D01*
X1860577Y-2955192D01*
X1865923Y-3292231D01*
X1912560Y-3298825D01*
X1954976Y-3294214D01*
X1975760Y-3279287D01*
X1981570Y-3251377D01*
X1986530Y-3191925D01*
X1990246Y-3108466D01*
X1992324Y-3008532D01*
X1992624Y-2957104D01*
X1992923Y-2661054D01*
X2054454Y-2639604D01*
X2098004Y-2625020D01*
X2121694Y-2618219D01*
X2122377Y-2618154D01*
X2124754Y-2636642D01*
X2127366Y-2687906D01*
X2129995Y-2765649D01*
X2132421Y-2863574D01*
X2134115Y-2955192D01*
X2139461Y-3292231D01*
X2256692Y-3292231D01*
X2262072Y-2984746D01*
X2267451Y-2677261D01*
X2324601Y-2647707D01*
X2366797Y-2627413D01*
X2391770Y-2618204D01*
X2392491Y-2618154D01*
X2395929Y-2636662D01*
G36*
X2887333Y-2633528D02*
G01*
X2943590Y-2659117D01*
X2987747Y-2690124D01*
X3020101Y-2724795D01*
X3042438Y-2769520D01*
X3056546Y-2830692D01*
X3064211Y-2914701D01*
X3067220Y-3027940D01*
X3067538Y-3102509D01*
X3067538Y-3393420D01*
X3017773Y-3416095D01*
X2978576Y-3432667D01*
X2959157Y-3438769D01*
X2955442Y-3420610D01*
X2952495Y-3371648D01*
X2950691Y-3300153D01*
X2950308Y-3243385D01*
X2948661Y-3161371D01*
X2944222Y-3096309D01*
X2937740Y-3056467D01*
X2932590Y-3048000D01*
X2897977Y-3056646D01*
X2843640Y-3078823D01*
X2780722Y-3108886D01*
X2720368Y-3141192D01*
X2673721Y-3170098D01*
X2651926Y-3189961D01*
X2651839Y-3190175D01*
X2653714Y-3226935D01*
X2670525Y-3262026D01*
X2700039Y-3290528D01*
X2743116Y-3300061D01*
X2779932Y-3298950D01*
X2832074Y-3298133D01*
X2859444Y-3310349D01*
X2875882Y-3342624D01*
X2877955Y-3348710D01*
X2885081Y-3394739D01*
X2866024Y-3422687D01*
X2816353Y-3436007D01*
X2762697Y-3438470D01*
X2666142Y-3420210D01*
X2616159Y-3394131D01*
X2554429Y-3332868D01*
X2521690Y-3257670D01*
X2518753Y-3178211D01*
X2546424Y-3104167D01*
X2588047Y-3057769D01*
X2629604Y-3031793D01*
X2694922Y-2998907D01*
X2771038Y-2965557D01*
X2783726Y-2960461D01*
X2867333Y-2923565D01*
X2915530Y-2891046D01*
X2931030Y-2858718D01*
X2916550Y-2822394D01*
X2891692Y-2794000D01*
X2832939Y-2759039D01*
X2768293Y-2756417D01*
X2709008Y-2783358D01*
X2666339Y-2837088D01*
X2660739Y-2850950D01*
X2628133Y-2901936D01*
X2580530Y-2939787D01*
X2520461Y-2970850D01*
X2520461Y-2882768D01*
X2523997Y-2828951D01*
X2539156Y-2786534D01*
X2572768Y-2741279D01*
X2605035Y-2706420D01*
X2655209Y-2657062D01*
X2694193Y-2630547D01*
X2736064Y-2619911D01*
X2783460Y-2618154D01*
X2887333Y-2633528D01*
G37*
X2887333Y-2633528D02*
X2943590Y-2659117D01*
X2987747Y-2690124D01*
X3020101Y-2724795D01*
X3042438Y-2769520D01*
X3056546Y-2830692D01*
X3064211Y-2914701D01*
X3067220Y-3027940D01*
X3067538Y-3102509D01*
X3067538Y-3393420D01*
X3017773Y-3416095D01*
X2978576Y-3432667D01*
X2959157Y-3438769D01*
X2955442Y-3420610D01*
X2952495Y-3371648D01*
X2950691Y-3300153D01*
X2950308Y-3243385D01*
X2948661Y-3161371D01*
X2944222Y-3096309D01*
X2937740Y-3056467D01*
X2932590Y-3048000D01*
X2897977Y-3056646D01*
X2843640Y-3078823D01*
X2780722Y-3108886D01*
X2720368Y-3141192D01*
X2673721Y-3170098D01*
X2651926Y-3189961D01*
X2651839Y-3190175D01*
X2653714Y-3226935D01*
X2670525Y-3262026D01*
X2700039Y-3290528D01*
X2743116Y-3300061D01*
X2779932Y-3298950D01*
X2832074Y-3298133D01*
X2859444Y-3310349D01*
X2875882Y-3342624D01*
X2877955Y-3348710D01*
X2885081Y-3394739D01*
X2866024Y-3422687D01*
X2816353Y-3436007D01*
X2762697Y-3438470D01*
X2666142Y-3420210D01*
X2616159Y-3394131D01*
X2554429Y-3332868D01*
X2521690Y-3257670D01*
X2518753Y-3178211D01*
X2546424Y-3104167D01*
X2588047Y-3057769D01*
X2629604Y-3031793D01*
X2694922Y-2998907D01*
X2771038Y-2965557D01*
X2783726Y-2960461D01*
X2867333Y-2923565D01*
X2915530Y-2891046D01*
X2931030Y-2858718D01*
X2916550Y-2822394D01*
X2891692Y-2794000D01*
X2832939Y-2759039D01*
X2768293Y-2756417D01*
X2709008Y-2783358D01*
X2666339Y-2837088D01*
X2660739Y-2850950D01*
X2628133Y-2901936D01*
X2580530Y-2939787D01*
X2520461Y-2970850D01*
X2520461Y-2882768D01*
X2523997Y-2828951D01*
X2539156Y-2786534D01*
X2572768Y-2741279D01*
X2605035Y-2706420D01*
X2655209Y-2657062D01*
X2694193Y-2630547D01*
X2736064Y-2619911D01*
X2783460Y-2618154D01*
X2887333Y-2633528D01*
G36*
X3570807Y-2636782D02*
G01*
X3594161Y-2646988D01*
X3649902Y-2691134D01*
X3697569Y-2754967D01*
X3727048Y-2823087D01*
X3731846Y-2856670D01*
X3715760Y-2903556D01*
X3680475Y-2928365D01*
X3642644Y-2943387D01*
X3625321Y-2946155D01*
X3616886Y-2926066D01*
X3600230Y-2882351D01*
X3592923Y-2862598D01*
X3551948Y-2794271D01*
X3492622Y-2760191D01*
X3416552Y-2761239D01*
X3410918Y-2762581D01*
X3370305Y-2781836D01*
X3340448Y-2819375D01*
X3320055Y-2879809D01*
X3307836Y-2967751D01*
X3302500Y-3087813D01*
X3302000Y-3151698D01*
X3301752Y-3252403D01*
X3300126Y-3321054D01*
X3295801Y-3364673D01*
X3287454Y-3390282D01*
X3273765Y-3404903D01*
X3253411Y-3415558D01*
X3252234Y-3416095D01*
X3213038Y-3432667D01*
X3193619Y-3438769D01*
X3190635Y-3420319D01*
X3188081Y-3369323D01*
X3186140Y-3292308D01*
X3184997Y-3195805D01*
X3184769Y-3125184D01*
X3185932Y-2988525D01*
X3190479Y-2884851D01*
X3199999Y-2808108D01*
X3216081Y-2752246D01*
X3240313Y-2711212D01*
X3274286Y-2678954D01*
X3307833Y-2656440D01*
X3388499Y-2626476D01*
X3482381Y-2619718D01*
X3570807Y-2636782D01*
G37*
X3570807Y-2636782D02*
X3594161Y-2646988D01*
X3649902Y-2691134D01*
X3697569Y-2754967D01*
X3727048Y-2823087D01*
X3731846Y-2856670D01*
X3715760Y-2903556D01*
X3680475Y-2928365D01*
X3642644Y-2943387D01*
X3625321Y-2946155D01*
X3616886Y-2926066D01*
X3600230Y-2882351D01*
X3592923Y-2862598D01*
X3551948Y-2794271D01*
X3492622Y-2760191D01*
X3416552Y-2761239D01*
X3410918Y-2762581D01*
X3370305Y-2781836D01*
X3340448Y-2819375D01*
X3320055Y-2879809D01*
X3307836Y-2967751D01*
X3302500Y-3087813D01*
X3302000Y-3151698D01*
X3301752Y-3252403D01*
X3300126Y-3321054D01*
X3295801Y-3364673D01*
X3287454Y-3390282D01*
X3273765Y-3404903D01*
X3253411Y-3415558D01*
X3252234Y-3416095D01*
X3213038Y-3432667D01*
X3193619Y-3438769D01*
X3190635Y-3420319D01*
X3188081Y-3369323D01*
X3186140Y-3292308D01*
X3184997Y-3195805D01*
X3184769Y-3125184D01*
X3185932Y-2988525D01*
X3190479Y-2884851D01*
X3199999Y-2808108D01*
X3216081Y-2752246D01*
X3240313Y-2711212D01*
X3274286Y-2678954D01*
X3307833Y-2656440D01*
X3388499Y-2626476D01*
X3482381Y-2619718D01*
X3570807Y-2636782D01*
G36*
X4245224Y-2647838D02*
G01*
X4322528Y-2698361D01*
X4359814Y-2743590D01*
X4389353Y-2825663D01*
X4391699Y-2890607D01*
X4386385Y-2977445D01*
X4186115Y-3065103D01*
X4088739Y-3109887D01*
X4025113Y-3145913D01*
X3992029Y-3177117D01*
X3986280Y-3207436D01*
X4004658Y-3240805D01*
X4024923Y-3262923D01*
X4083889Y-3298393D01*
X4148024Y-3300879D01*
X4206926Y-3273235D01*
X4250197Y-3218320D01*
X4257936Y-3198928D01*
X4295006Y-3138364D01*
X4337654Y-3112552D01*
X4396154Y-3090471D01*
X4396154Y-3174184D01*
X4390982Y-3231150D01*
X4370723Y-3279189D01*
X4328262Y-3334346D01*
X4321951Y-3341514D01*
X4274720Y-3390585D01*
X4234121Y-3416920D01*
X4183328Y-3429035D01*
X4141220Y-3433003D01*
X4065902Y-3433991D01*
X4012286Y-3421466D01*
X3978838Y-3402869D01*
X3926268Y-3361975D01*
X3889879Y-3317748D01*
X3866850Y-3262126D01*
X3854359Y-3187047D01*
X3849587Y-3084449D01*
X3849206Y-3032376D01*
X3850501Y-2969948D01*
X3968471Y-2969948D01*
X3969839Y-3003438D01*
X3973249Y-3008923D01*
X3995753Y-3001472D01*
X4044182Y-2981753D01*
X4108908Y-2953718D01*
X4122443Y-2947692D01*
X4204244Y-2906096D01*
X4249312Y-2869538D01*
X4259217Y-2835296D01*
X4235526Y-2800648D01*
X4215960Y-2785339D01*
X4145360Y-2754721D01*
X4079280Y-2759780D01*
X4023959Y-2797151D01*
X3985636Y-2863473D01*
X3973349Y-2916116D01*
X3968471Y-2969948D01*
X3850501Y-2969948D01*
X3851730Y-2910720D01*
X3861032Y-2820710D01*
X3879460Y-2755167D01*
X3909360Y-2706912D01*
X3953080Y-2668767D01*
X3972141Y-2656440D01*
X4058726Y-2624336D01*
X4153522Y-2622316D01*
X4245224Y-2647838D01*
G37*
X4245224Y-2647838D02*
X4322528Y-2698361D01*
X4359814Y-2743590D01*
X4389353Y-2825663D01*
X4391699Y-2890607D01*
X4386385Y-2977445D01*
X4186115Y-3065103D01*
X4088739Y-3109887D01*
X4025113Y-3145913D01*
X3992029Y-3177117D01*
X3986280Y-3207436D01*
X4004658Y-3240805D01*
X4024923Y-3262923D01*
X4083889Y-3298393D01*
X4148024Y-3300879D01*
X4206926Y-3273235D01*
X4250197Y-3218320D01*
X4257936Y-3198928D01*
X4295006Y-3138364D01*
X4337654Y-3112552D01*
X4396154Y-3090471D01*
X4396154Y-3174184D01*
X4390982Y-3231150D01*
X4370723Y-3279189D01*
X4328262Y-3334346D01*
X4321951Y-3341514D01*
X4274720Y-3390585D01*
X4234121Y-3416920D01*
X4183328Y-3429035D01*
X4141220Y-3433003D01*
X4065902Y-3433991D01*
X4012286Y-3421466D01*
X3978838Y-3402869D01*
X3926268Y-3361975D01*
X3889879Y-3317748D01*
X3866850Y-3262126D01*
X3854359Y-3187047D01*
X3849587Y-3084449D01*
X3849206Y-3032376D01*
X3850501Y-2969948D01*
X3968471Y-2969948D01*
X3969839Y-3003438D01*
X3973249Y-3008923D01*
X3995753Y-3001472D01*
X4044182Y-2981753D01*
X4108908Y-2953718D01*
X4122443Y-2947692D01*
X4204244Y-2906096D01*
X4249312Y-2869538D01*
X4259217Y-2835296D01*
X4235526Y-2800648D01*
X4215960Y-2785339D01*
X4145360Y-2754721D01*
X4079280Y-2759780D01*
X4023959Y-2797151D01*
X3985636Y-2863473D01*
X3973349Y-2916116D01*
X3968471Y-2969948D01*
X3850501Y-2969948D01*
X3851730Y-2910720D01*
X3861032Y-2820710D01*
X3879460Y-2755167D01*
X3909360Y-2706912D01*
X3953080Y-2668767D01*
X3972141Y-2656440D01*
X4058726Y-2624336D01*
X4153522Y-2622316D01*
X4245224Y-2647838D01*
G36*
X139878Y3712224D02*
G01*
X245612Y3711645D01*
X322132Y3710078D01*
X374372Y3707028D01*
X407263Y3702004D01*
X425737Y3694511D01*
X434727Y3684056D01*
X439163Y3670147D01*
X439594Y3668346D01*
X446333Y3635855D01*
X458808Y3571748D01*
X475719Y3482849D01*
X495771Y3375981D01*
X517664Y3257967D01*
X518429Y3253822D01*
X540359Y3138169D01*
X560877Y3035986D01*
X578659Y2953402D01*
X592381Y2896544D01*
X600718Y2871542D01*
X601116Y2871099D01*
X625677Y2858890D01*
X676315Y2838544D01*
X742095Y2814455D01*
X742461Y2814326D01*
X825317Y2783182D01*
X923000Y2743509D01*
X1015077Y2703619D01*
X1019434Y2701647D01*
X1169407Y2633580D01*
X1501498Y2860361D01*
X1603374Y2929496D01*
X1695657Y2991303D01*
X1773003Y3042267D01*
X1830064Y3078873D01*
X1861495Y3097606D01*
X1864479Y3098996D01*
X1887321Y3092810D01*
X1929982Y3062965D01*
X1994128Y3008053D01*
X2081421Y2926666D01*
X2170535Y2840078D01*
X2256441Y2754753D01*
X2333327Y2676892D01*
X2396564Y2611303D01*
X2441523Y2562795D01*
X2463576Y2536175D01*
X2464396Y2534805D01*
X2466834Y2516537D01*
X2457650Y2486705D01*
X2434574Y2441279D01*
X2395337Y2376230D01*
X2337670Y2287530D01*
X2260795Y2173343D01*
X2192570Y2072838D01*
X2131582Y1982697D01*
X2081356Y1908151D01*
X2045416Y1854435D01*
X2027287Y1826782D01*
X2026146Y1824905D01*
X2028359Y1798410D01*
X2045138Y1746914D01*
X2073142Y1680149D01*
X2083122Y1658828D01*
X2126672Y1563841D01*
X2173134Y1456063D01*
X2210877Y1362808D01*
X2238073Y1293594D01*
X2259675Y1240994D01*
X2272158Y1213503D01*
X2273709Y1211384D01*
X2296668Y1207876D01*
X2350786Y1198262D01*
X2428868Y1183911D01*
X2523719Y1166193D01*
X2628143Y1146475D01*
X2734944Y1126126D01*
X2836926Y1106514D01*
X2926894Y1089009D01*
X2997653Y1074978D01*
X3042006Y1065791D01*
X3052885Y1063193D01*
X3064122Y1056782D01*
X3072605Y1042303D01*
X3078714Y1014867D01*
X3082832Y969589D01*
X3085341Y901580D01*
X3086621Y805953D01*
X3087054Y677820D01*
X3087077Y625299D01*
X3087077Y198155D01*
X2984500Y177909D01*
X2927431Y166930D01*
X2842269Y150905D01*
X2739372Y131767D01*
X2629096Y111449D01*
X2598615Y105868D01*
X2496855Y86083D01*
X2408205Y66627D01*
X2340108Y49303D01*
X2300004Y35912D01*
X2293323Y31921D01*
X2276919Y3658D01*
X2253399Y-51109D01*
X2227316Y-121588D01*
X2222142Y-136769D01*
X2187956Y-230896D01*
X2145523Y-337101D01*
X2103997Y-432473D01*
X2103792Y-432916D01*
X2034640Y-582525D01*
X2489512Y-1251617D01*
X2197500Y-1544116D01*
X2109180Y-1631170D01*
X2028625Y-1707909D01*
X1960360Y-1770237D01*
X1908908Y-1814056D01*
X1878794Y-1835270D01*
X1874474Y-1836616D01*
X1849111Y-1826016D01*
X1797358Y-1796547D01*
X1724868Y-1751705D01*
X1637294Y-1694984D01*
X1542612Y-1631462D01*
X1446516Y-1566668D01*
X1360837Y-1510287D01*
X1291016Y-1465788D01*
X1242494Y-1436639D01*
X1220782Y-1426308D01*
X1194293Y-1435050D01*
X1144062Y-1458087D01*
X1080451Y-1490631D01*
X1073708Y-1494249D01*
X988046Y-1537210D01*
X929306Y-1558279D01*
X892772Y-1558503D01*
X873731Y-1538928D01*
X873620Y-1538654D01*
X864102Y-1515472D01*
X841403Y-1460441D01*
X807282Y-1377822D01*
X763500Y-1271872D01*
X711816Y-1146852D01*
X653992Y-1007020D01*
X597991Y-871637D01*
X536447Y-722234D01*
X479939Y-583832D01*
X430161Y-460673D01*
X388806Y-357002D01*
X357568Y-277059D01*
X338141Y-225088D01*
X332154Y-205692D01*
X347168Y-183443D01*
X386439Y-147982D01*
X438807Y-108887D01*
X587941Y14755D01*
X704511Y156478D01*
X787118Y313296D01*
X834366Y482225D01*
X844857Y660278D01*
X837231Y742461D01*
X795682Y912969D01*
X724123Y1063541D01*
X626995Y1192691D01*
X508734Y1298936D01*
X373780Y1380790D01*
X226571Y1436768D01*
X71544Y1465385D01*
X-86861Y1465156D01*
X-244206Y1434595D01*
X-396054Y1372218D01*
X-537965Y1276540D01*
X-597197Y1222428D01*
X-710797Y1083480D01*
X-789894Y931639D01*
X-835014Y771333D01*
X-846684Y606988D01*
X-825431Y443029D01*
X-771780Y283882D01*
X-686260Y133975D01*
X-569395Y-2267D01*
X-438807Y-108887D01*
X-384412Y-149642D01*
X-345986Y-184718D01*
X-332154Y-205726D01*
X-339397Y-228635D01*
X-359995Y-283365D01*
X-392254Y-365672D01*
X-434479Y-471315D01*
X-484977Y-596050D01*
X-542052Y-735636D01*
X-598146Y-871670D01*
X-660033Y-1021201D01*
X-717356Y-1159767D01*
X-768356Y-1283107D01*
X-811273Y-1386964D01*
X-844347Y-1467080D01*
X-865819Y-1519195D01*
X-873775Y-1538654D01*
X-892571Y-1558423D01*
X-928926Y-1558365D01*
X-987521Y-1537441D01*
X-1073032Y-1494613D01*
X-1073708Y-1494249D01*
X-1138093Y-1461012D01*
X-1190139Y-1436802D01*
X-1219488Y-1426404D01*
X-1220783Y-1426308D01*
X-1242876Y-1436855D01*
X-1291652Y-1466184D01*
X-1361669Y-1510827D01*
X-1447486Y-1567314D01*
X-1542612Y-1631462D01*
X-1639460Y-1696411D01*
X-1726747Y-1752896D01*
X-1798819Y-1797421D01*
X-1850023Y-1826490D01*
X-1874474Y-1836616D01*
X-1896990Y-1823307D01*
X-1942258Y-1786112D01*
X-2005756Y-1729128D01*
X-2082961Y-1656449D01*
X-2169349Y-1572171D01*
X-2197601Y-1544016D01*
X-2489713Y-1251416D01*
X-2267369Y-925104D01*
X-2199798Y-824897D01*
X-2140493Y-734963D01*
X-2092783Y-660510D01*
X-2059993Y-606751D01*
X-2045452Y-578894D01*
X-2045026Y-576912D01*
X-2052692Y-550655D01*
X-2073311Y-497837D01*
X-2103315Y-427310D01*
X-2124375Y-380093D01*
X-2163752Y-289694D01*
X-2200835Y-198366D01*
X-2229585Y-121200D01*
X-2237395Y-97692D01*
X-2259583Y-34916D01*
X-2281273Y13589D01*
X-2293187Y31921D01*
X-2319477Y43141D01*
X-2376858Y59046D01*
X-2457882Y77833D01*
X-2555105Y97701D01*
X-2598615Y105868D01*
X-2709104Y126171D01*
X-2815084Y145830D01*
X-2906199Y162912D01*
X-2972092Y175482D01*
X-2984500Y177909D01*
X-3087077Y198155D01*
X-3087077Y625299D01*
X-3086847Y765754D01*
X-3085901Y872021D01*
X-3083859Y948987D01*
X-3080338Y1001540D01*
X-3074957Y1034567D01*
X-3067334Y1052955D01*
X-3057088Y1061592D01*
X-3052885Y1063193D01*
X-3027530Y1068873D01*
X-2971516Y1080205D01*
X-2892036Y1095821D01*
X-2796288Y1114353D01*
X-2691467Y1134431D01*
X-2584768Y1154688D01*
X-2483387Y1173754D01*
X-2394521Y1190261D01*
X-2325363Y1202841D01*
X-2283111Y1210125D01*
X-2273710Y1211384D01*
X-2265193Y1228237D01*
X-2246340Y1273130D01*
X-2220676Y1337570D01*
X-2210877Y1362808D01*
X-2171352Y1460314D01*
X-2124808Y1568041D01*
X-2083123Y1658828D01*
X-2052450Y1728247D01*
X-2032044Y1785290D01*
X-2025232Y1820223D01*
X-2026318Y1824905D01*
X-2040715Y1847009D01*
X-2073588Y1896169D01*
X-2121410Y1967152D01*
X-2180652Y2054722D01*
X-2247785Y2153643D01*
X-2261059Y2173170D01*
X-2338954Y2288860D01*
X-2396213Y2376956D01*
X-2435119Y2441514D01*
X-2457956Y2486589D01*
X-2467006Y2516237D01*
X-2464552Y2534515D01*
X-2464489Y2534631D01*
X-2445173Y2558639D01*
X-2402449Y2605053D01*
X-2340949Y2669063D01*
X-2265302Y2745855D01*
X-2180139Y2830618D01*
X-2170535Y2840078D01*
X-2063210Y2944011D01*
X-1980385Y3020325D01*
X-1920395Y3070429D01*
X-1881577Y3095730D01*
X-1864480Y3098996D01*
X-1839527Y3084750D01*
X-1787745Y3051844D01*
X-1714480Y3003792D01*
X-1625080Y2944110D01*
X-1524889Y2876312D01*
X-1501499Y2860361D01*
X-1169407Y2633580D01*
X-1019435Y2701647D01*
X-928230Y2741315D01*
X-830331Y2781209D01*
X-746169Y2813017D01*
X-742462Y2814326D01*
X-676631Y2838424D01*
X-625884Y2858800D01*
X-601158Y2871064D01*
X-601116Y2871099D01*
X-593271Y2893266D01*
X-579934Y2947783D01*
X-562430Y3028520D01*
X-542083Y3129350D01*
X-520218Y3244144D01*
X-518429Y3253822D01*
X-496496Y3372096D01*
X-476360Y3479458D01*
X-459320Y3569083D01*
X-446672Y3634149D01*
X-439716Y3667832D01*
X-439594Y3668346D01*
X-435361Y3682675D01*
X-427129Y3693493D01*
X-409967Y3701294D01*
X-378942Y3706571D01*
X-329122Y3709818D01*
X-255576Y3711528D01*
X-153371Y3712193D01*
X-17575Y3712307D01*
X0Y3712308D01*
X139878Y3712224D01*
G37*
X139878Y3712224D02*
X245612Y3711645D01*
X322132Y3710078D01*
X374372Y3707028D01*
X407263Y3702004D01*
X425737Y3694511D01*
X434727Y3684056D01*
X439163Y3670147D01*
X439594Y3668346D01*
X446333Y3635855D01*
X458808Y3571748D01*
X475719Y3482849D01*
X495771Y3375981D01*
X517664Y3257967D01*
X518429Y3253822D01*
X540359Y3138169D01*
X560877Y3035986D01*
X578659Y2953402D01*
X592381Y2896544D01*
X600718Y2871542D01*
X601116Y2871099D01*
X625677Y2858890D01*
X676315Y2838544D01*
X742095Y2814455D01*
X742461Y2814326D01*
X825317Y2783182D01*
X923000Y2743509D01*
X1015077Y2703619D01*
X1019434Y2701647D01*
X1169407Y2633580D01*
X1501498Y2860361D01*
X1603374Y2929496D01*
X1695657Y2991303D01*
X1773003Y3042267D01*
X1830064Y3078873D01*
X1861495Y3097606D01*
X1864479Y3098996D01*
X1887321Y3092810D01*
X1929982Y3062965D01*
X1994128Y3008053D01*
X2081421Y2926666D01*
X2170535Y2840078D01*
X2256441Y2754753D01*
X2333327Y2676892D01*
X2396564Y2611303D01*
X2441523Y2562795D01*
X2463576Y2536175D01*
X2464396Y2534805D01*
X2466834Y2516537D01*
X2457650Y2486705D01*
X2434574Y2441279D01*
X2395337Y2376230D01*
X2337670Y2287530D01*
X2260795Y2173343D01*
X2192570Y2072838D01*
X2131582Y1982697D01*
X2081356Y1908151D01*
X2045416Y1854435D01*
X2027287Y1826782D01*
X2026146Y1824905D01*
X2028359Y1798410D01*
X2045138Y1746914D01*
X2073142Y1680149D01*
X2083122Y1658828D01*
X2126672Y1563841D01*
X2173134Y1456063D01*
X2210877Y1362808D01*
X2238073Y1293594D01*
X2259675Y1240994D01*
X2272158Y1213503D01*
X2273709Y1211384D01*
X2296668Y1207876D01*
X2350786Y1198262D01*
X2428868Y1183911D01*
X2523719Y1166193D01*
X2628143Y1146475D01*
X2734944Y1126126D01*
X2836926Y1106514D01*
X2926894Y1089009D01*
X2997653Y1074978D01*
X3042006Y1065791D01*
X3052885Y1063193D01*
X3064122Y1056782D01*
X3072605Y1042303D01*
X3078714Y1014867D01*
X3082832Y969589D01*
X3085341Y901580D01*
X3086621Y805953D01*
X3087054Y677820D01*
X3087077Y625299D01*
X3087077Y198155D01*
X2984500Y177909D01*
X2927431Y166930D01*
X2842269Y150905D01*
X2739372Y131767D01*
X2629096Y111449D01*
X2598615Y105868D01*
X2496855Y86083D01*
X2408205Y66627D01*
X2340108Y49303D01*
X2300004Y35912D01*
X2293323Y31921D01*
X2276919Y3658D01*
X2253399Y-51109D01*
X2227316Y-121588D01*
X2222142Y-136769D01*
X2187956Y-230896D01*
X2145523Y-337101D01*
X2103997Y-432473D01*
X2103792Y-432916D01*
X2034640Y-582525D01*
X2489512Y-1251617D01*
X2197500Y-1544116D01*
X2109180Y-1631170D01*
X2028625Y-1707909D01*
X1960360Y-1770237D01*
X1908908Y-1814056D01*
X1878794Y-1835270D01*
X1874474Y-1836616D01*
X1849111Y-1826016D01*
X1797358Y-1796547D01*
X1724868Y-1751705D01*
X1637294Y-1694984D01*
X1542612Y-1631462D01*
X1446516Y-1566668D01*
X1360837Y-1510287D01*
X1291016Y-1465788D01*
X1242494Y-1436639D01*
X1220782Y-1426308D01*
X1194293Y-1435050D01*
X1144062Y-1458087D01*
X1080451Y-1490631D01*
X1073708Y-1494249D01*
X988046Y-1537210D01*
X929306Y-1558279D01*
X892772Y-1558503D01*
X873731Y-1538928D01*
X873620Y-1538654D01*
X864102Y-1515472D01*
X841403Y-1460441D01*
X807282Y-1377822D01*
X763500Y-1271872D01*
X711816Y-1146852D01*
X653992Y-1007020D01*
X597991Y-871637D01*
X536447Y-722234D01*
X479939Y-583832D01*
X430161Y-460673D01*
X388806Y-357002D01*
X357568Y-277059D01*
X338141Y-225088D01*
X332154Y-205692D01*
X347168Y-183443D01*
X386439Y-147982D01*
X438807Y-108887D01*
X587941Y14755D01*
X704511Y156478D01*
X787118Y313296D01*
X834366Y482225D01*
X844857Y660278D01*
X837231Y742461D01*
X795682Y912969D01*
X724123Y1063541D01*
X626995Y1192691D01*
X508734Y1298936D01*
X373780Y1380790D01*
X226571Y1436768D01*
X71544Y1465385D01*
X-86861Y1465156D01*
X-244206Y1434595D01*
X-396054Y1372218D01*
X-537965Y1276540D01*
X-597197Y1222428D01*
X-710797Y1083480D01*
X-789894Y931639D01*
X-835014Y771333D01*
X-846684Y606988D01*
X-825431Y443029D01*
X-771780Y283882D01*
X-686260Y133975D01*
X-569395Y-2267D01*
X-438807Y-108887D01*
X-384412Y-149642D01*
X-345986Y-184718D01*
X-332154Y-205726D01*
X-339397Y-228635D01*
X-359995Y-283365D01*
X-392254Y-365672D01*
X-434479Y-471315D01*
X-484977Y-596050D01*
X-542052Y-735636D01*
X-598146Y-871670D01*
X-660033Y-1021201D01*
X-717356Y-1159767D01*
X-768356Y-1283107D01*
X-811273Y-1386964D01*
X-844347Y-1467080D01*
X-865819Y-1519195D01*
X-873775Y-1538654D01*
X-892571Y-1558423D01*
X-928926Y-1558365D01*
X-987521Y-1537441D01*
X-1073032Y-1494613D01*
X-1073708Y-1494249D01*
X-1138093Y-1461012D01*
X-1190139Y-1436802D01*
X-1219488Y-1426404D01*
X-1220783Y-1426308D01*
X-1242876Y-1436855D01*
X-1291652Y-1466184D01*
X-1361669Y-1510827D01*
X-1447486Y-1567314D01*
X-1542612Y-1631462D01*
X-1639460Y-1696411D01*
X-1726747Y-1752896D01*
X-1798819Y-1797421D01*
X-1850023Y-1826490D01*
X-1874474Y-1836616D01*
X-1896990Y-1823307D01*
X-1942258Y-1786112D01*
X-2005756Y-1729128D01*
X-2082961Y-1656449D01*
X-2169349Y-1572171D01*
X-2197601Y-1544016D01*
X-2489713Y-1251416D01*
X-2267369Y-925104D01*
X-2199798Y-824897D01*
X-2140493Y-734963D01*
X-2092783Y-660510D01*
X-2059993Y-606751D01*
X-2045452Y-578894D01*
X-2045026Y-576912D01*
X-2052692Y-550655D01*
X-2073311Y-497837D01*
X-2103315Y-427310D01*
X-2124375Y-380093D01*
X-2163752Y-289694D01*
X-2200835Y-198366D01*
X-2229585Y-121200D01*
X-2237395Y-97692D01*
X-2259583Y-34916D01*
X-2281273Y13589D01*
X-2293187Y31921D01*
X-2319477Y43141D01*
X-2376858Y59046D01*
X-2457882Y77833D01*
X-2555105Y97701D01*
X-2598615Y105868D01*
X-2709104Y126171D01*
X-2815084Y145830D01*
X-2906199Y162912D01*
X-2972092Y175482D01*
X-2984500Y177909D01*
X-3087077Y198155D01*
X-3087077Y625299D01*
X-3086847Y765754D01*
X-3085901Y872021D01*
X-3083859Y948987D01*
X-3080338Y1001540D01*
X-3074957Y1034567D01*
X-3067334Y1052955D01*
X-3057088Y1061592D01*
X-3052885Y1063193D01*
X-3027530Y1068873D01*
X-2971516Y1080205D01*
X-2892036Y1095821D01*
X-2796288Y1114353D01*
X-2691467Y1134431D01*
X-2584768Y1154688D01*
X-2483387Y1173754D01*
X-2394521Y1190261D01*
X-2325363Y1202841D01*
X-2283111Y1210125D01*
X-2273710Y1211384D01*
X-2265193Y1228237D01*
X-2246340Y1273130D01*
X-2220676Y1337570D01*
X-2210877Y1362808D01*
X-2171352Y1460314D01*
X-2124808Y1568041D01*
X-2083123Y1658828D01*
X-2052450Y1728247D01*
X-2032044Y1785290D01*
X-2025232Y1820223D01*
X-2026318Y1824905D01*
X-2040715Y1847009D01*
X-2073588Y1896169D01*
X-2121410Y1967152D01*
X-2180652Y2054722D01*
X-2247785Y2153643D01*
X-2261059Y2173170D01*
X-2338954Y2288860D01*
X-2396213Y2376956D01*
X-2435119Y2441514D01*
X-2457956Y2486589D01*
X-2467006Y2516237D01*
X-2464552Y2534515D01*
X-2464489Y2534631D01*
X-2445173Y2558639D01*
X-2402449Y2605053D01*
X-2340949Y2669063D01*
X-2265302Y2745855D01*
X-2180139Y2830618D01*
X-2170535Y2840078D01*
X-2063210Y2944011D01*
X-1980385Y3020325D01*
X-1920395Y3070429D01*
X-1881577Y3095730D01*
X-1864480Y3098996D01*
X-1839527Y3084750D01*
X-1787745Y3051844D01*
X-1714480Y3003792D01*
X-1625080Y2944110D01*
X-1524889Y2876312D01*
X-1501499Y2860361D01*
X-1169407Y2633580D01*
X-1019435Y2701647D01*
X-928230Y2741315D01*
X-830331Y2781209D01*
X-746169Y2813017D01*
X-742462Y2814326D01*
X-676631Y2838424D01*
X-625884Y2858800D01*
X-601158Y2871064D01*
X-601116Y2871099D01*
X-593271Y2893266D01*
X-579934Y2947783D01*
X-562430Y3028520D01*
X-542083Y3129350D01*
X-520218Y3244144D01*
X-518429Y3253822D01*
X-496496Y3372096D01*
X-476360Y3479458D01*
X-459320Y3569083D01*
X-446672Y3634149D01*
X-439716Y3667832D01*
X-439594Y3668346D01*
X-435361Y3682675D01*
X-427129Y3693493D01*
X-409967Y3701294D01*
X-378942Y3706571D01*
X-329122Y3709818D01*
X-255576Y3711528D01*
X-153371Y3712193D01*
X-17575Y3712307D01*
X0Y3712308D01*
X139878Y3712224D01*
D10*
X97095000Y-79010000D02*
G75*
G02X97095000Y-81010000I0J-1000000D01*
G01*
X97095000Y-81010000D02*
X97095000Y-82660000D01*
X97095000Y-82660000D02*
X132775000Y-82660000D01*
X132775000Y-82660000D02*
X132775000Y-77360000D01*
X132775000Y-77360000D02*
X97095000Y-77360000D01*
X97095000Y-77360000D02*
X97095000Y-79010000D01*
X135890000Y-72771000D02*
X141224000Y-72771000D01*
X141224000Y-72771000D02*
X141224000Y-83439000D01*
X141224000Y-83439000D02*
X135890000Y-83439000D01*
X135890000Y-83439000D02*
X135890000Y-83439000D01*
X138430000Y-73279000D02*
X138430000Y-75565000D01*
X138430000Y-75565000D02*
X136144000Y-75565000D01*
X136144000Y-75565000D02*
X136144000Y-75565000D01*
X135560000Y-72195000D02*
X164760000Y-72195000D01*
X164760000Y-72195000D02*
X164760000Y-87645000D01*
X164760000Y-87645000D02*
X135560000Y-87645000D01*
X135560000Y-87645000D02*
X135560000Y-72195000D01*
X135560000Y-72195000D02*
X135560000Y-72195000D01*
X135890000Y-83439000D02*
X135890000Y-72771000D01*
X135890000Y-72771000D02*
X135890000Y-72771000D01*
X109915000Y-68310000D02*
G75*
G02X109915000Y-66310000I0J1000000D01*
G01*
X109915000Y-66310000D02*
X109915000Y-64075000D01*
X109915000Y-64075000D02*
X99635000Y-64075000D01*
X99635000Y-64075000D02*
X99635000Y-70545000D01*
X99635000Y-70545000D02*
X109915000Y-70545000D01*
X109915000Y-70545000D02*
X109915000Y-68310000D01*
X121907000Y-90790000D02*
G75*
G03X121907000Y-85740000I0J2525000D01*
G01*
X115657000Y-90790000D02*
G75*
G02X115657000Y-85740000I0J2525000D01*
G01*
X115657000Y-90790000D02*
X121907000Y-90790000D01*
X115657000Y-85740000D02*
X121907000Y-85740000D01*
X111065000Y-53915000D02*
X111065000Y-56575000D01*
X118745000Y-53915000D02*
X111065000Y-53915000D01*
X118745000Y-56575000D02*
X111065000Y-56575000D01*
X118745000Y-53915000D02*
X118745000Y-56575000D01*
X120015000Y-53915000D02*
X121345000Y-53915000D01*
X121345000Y-53915000D02*
X121345000Y-55245000D01*
X125420000Y-69080000D02*
X125420000Y-62702000D01*
X125420000Y-59218000D02*
X125420000Y-52840000D01*
X133660000Y-69080000D02*
X133660000Y-62702000D01*
X133660000Y-59218000D02*
X133660000Y-52840000D01*
X125420000Y-69080000D02*
X133660000Y-69080000D01*
X125420000Y-52840000D02*
X133660000Y-52840000D01*
X121790000Y-59510000D02*
X122120000Y-59510000D01*
X122120000Y-59510000D02*
X122120000Y-64950000D01*
X122120000Y-64950000D02*
X121790000Y-64950000D01*
X119510000Y-59510000D02*
X119180000Y-59510000D01*
X119180000Y-59510000D02*
X119180000Y-64950000D01*
X119180000Y-64950000D02*
X119510000Y-64950000D01*
X122120000Y-60410000D02*
X119180000Y-60410000D01*
X122120000Y-60530000D02*
X119180000Y-60530000D01*
X122120000Y-60290000D02*
X119180000Y-60290000D01*
X101268000Y-87614000D02*
X101268000Y-90614000D01*
X97868000Y-87614000D02*
X97868000Y-90614000D01*
X100616961Y-86276210D02*
G75*
G02X101268000Y-87614000I-1048961J-1337790D01*
G01*
X100616961Y-91951790D02*
G75*
G03X101268000Y-90614000I-1048961J1337790D01*
G01*
X98519039Y-86276210D02*
G75*
G03X97868000Y-87614000I1048961J-1337790D01*
G01*
X98519039Y-91951790D02*
G75*
G02X97868000Y-90614000I1048961J1337790D01*
G01*
X97885000Y-55860000D02*
G75*
G03X97885000Y-55860000I-3270000J0D01*
G01*
X97845000Y-55860000D02*
X91385000Y-55860000D01*
X97845000Y-55900000D02*
X91385000Y-55900000D01*
X97845000Y-55940000D02*
X91385000Y-55940000D01*
X97843000Y-55980000D02*
X91387000Y-55980000D01*
X97842000Y-56020000D02*
X91388000Y-56020000D01*
X97839000Y-56060000D02*
X91391000Y-56060000D01*
X97837000Y-56100000D02*
X95655000Y-56100000D01*
X93575000Y-56100000D02*
X91393000Y-56100000D01*
X97833000Y-56140000D02*
X95655000Y-56140000D01*
X93575000Y-56140000D02*
X91397000Y-56140000D01*
X97830000Y-56180000D02*
X95655000Y-56180000D01*
X93575000Y-56180000D02*
X91400000Y-56180000D01*
X97826000Y-56220000D02*
X95655000Y-56220000D01*
X93575000Y-56220000D02*
X91404000Y-56220000D01*
X97821000Y-56260000D02*
X95655000Y-56260000D01*
X93575000Y-56260000D02*
X91409000Y-56260000D01*
X97816000Y-56300000D02*
X95655000Y-56300000D01*
X93575000Y-56300000D02*
X91414000Y-56300000D01*
X97810000Y-56340000D02*
X95655000Y-56340000D01*
X93575000Y-56340000D02*
X91420000Y-56340000D01*
X97804000Y-56380000D02*
X95655000Y-56380000D01*
X93575000Y-56380000D02*
X91426000Y-56380000D01*
X97797000Y-56420000D02*
X95655000Y-56420000D01*
X93575000Y-56420000D02*
X91433000Y-56420000D01*
X97790000Y-56460000D02*
X95655000Y-56460000D01*
X93575000Y-56460000D02*
X91440000Y-56460000D01*
X97782000Y-56500000D02*
X95655000Y-56500000D01*
X93575000Y-56500000D02*
X91448000Y-56500000D01*
X97774000Y-56540000D02*
X95655000Y-56540000D01*
X93575000Y-56540000D02*
X91456000Y-56540000D01*
X97765000Y-56581000D02*
X95655000Y-56581000D01*
X93575000Y-56581000D02*
X91465000Y-56581000D01*
X97756000Y-56621000D02*
X95655000Y-56621000D01*
X93575000Y-56621000D02*
X91474000Y-56621000D01*
X97746000Y-56661000D02*
X95655000Y-56661000D01*
X93575000Y-56661000D02*
X91484000Y-56661000D01*
X97736000Y-56701000D02*
X95655000Y-56701000D01*
X93575000Y-56701000D02*
X91494000Y-56701000D01*
X97725000Y-56741000D02*
X95655000Y-56741000D01*
X93575000Y-56741000D02*
X91505000Y-56741000D01*
X97713000Y-56781000D02*
X95655000Y-56781000D01*
X93575000Y-56781000D02*
X91517000Y-56781000D01*
X97701000Y-56821000D02*
X95655000Y-56821000D01*
X93575000Y-56821000D02*
X91529000Y-56821000D01*
X97689000Y-56861000D02*
X95655000Y-56861000D01*
X93575000Y-56861000D02*
X91541000Y-56861000D01*
X97676000Y-56901000D02*
X95655000Y-56901000D01*
X93575000Y-56901000D02*
X91554000Y-56901000D01*
X97662000Y-56941000D02*
X95655000Y-56941000D01*
X93575000Y-56941000D02*
X91568000Y-56941000D01*
X97648000Y-56981000D02*
X95655000Y-56981000D01*
X93575000Y-56981000D02*
X91582000Y-56981000D01*
X97633000Y-57021000D02*
X95655000Y-57021000D01*
X93575000Y-57021000D02*
X91597000Y-57021000D01*
X97617000Y-57061000D02*
X95655000Y-57061000D01*
X93575000Y-57061000D02*
X91613000Y-57061000D01*
X97601000Y-57101000D02*
X95655000Y-57101000D01*
X93575000Y-57101000D02*
X91629000Y-57101000D01*
X97585000Y-57141000D02*
X95655000Y-57141000D01*
X93575000Y-57141000D02*
X91645000Y-57141000D01*
X97567000Y-57181000D02*
X95655000Y-57181000D01*
X93575000Y-57181000D02*
X91663000Y-57181000D01*
X97549000Y-57221000D02*
X95655000Y-57221000D01*
X93575000Y-57221000D02*
X91681000Y-57221000D01*
X97531000Y-57261000D02*
X95655000Y-57261000D01*
X93575000Y-57261000D02*
X91699000Y-57261000D01*
X97511000Y-57301000D02*
X95655000Y-57301000D01*
X93575000Y-57301000D02*
X91719000Y-57301000D01*
X97491000Y-57341000D02*
X95655000Y-57341000D01*
X93575000Y-57341000D02*
X91739000Y-57341000D01*
X97471000Y-57381000D02*
X95655000Y-57381000D01*
X93575000Y-57381000D02*
X91759000Y-57381000D01*
X97449000Y-57421000D02*
X95655000Y-57421000D01*
X93575000Y-57421000D02*
X91781000Y-57421000D01*
X97427000Y-57461000D02*
X95655000Y-57461000D01*
X93575000Y-57461000D02*
X91803000Y-57461000D01*
X97405000Y-57501000D02*
X95655000Y-57501000D01*
X93575000Y-57501000D02*
X91825000Y-57501000D01*
X97381000Y-57541000D02*
X95655000Y-57541000D01*
X93575000Y-57541000D02*
X91849000Y-57541000D01*
X97357000Y-57581000D02*
X95655000Y-57581000D01*
X93575000Y-57581000D02*
X91873000Y-57581000D01*
X97331000Y-57621000D02*
X95655000Y-57621000D01*
X93575000Y-57621000D02*
X91899000Y-57621000D01*
X97305000Y-57661000D02*
X95655000Y-57661000D01*
X93575000Y-57661000D02*
X91925000Y-57661000D01*
X97279000Y-57701000D02*
X95655000Y-57701000D01*
X93575000Y-57701000D02*
X91951000Y-57701000D01*
X97251000Y-57741000D02*
X95655000Y-57741000D01*
X93575000Y-57741000D02*
X91979000Y-57741000D01*
X97222000Y-57781000D02*
X95655000Y-57781000D01*
X93575000Y-57781000D02*
X92008000Y-57781000D01*
X97193000Y-57821000D02*
X95655000Y-57821000D01*
X93575000Y-57821000D02*
X92037000Y-57821000D01*
X97163000Y-57861000D02*
X95655000Y-57861000D01*
X93575000Y-57861000D02*
X92067000Y-57861000D01*
X97131000Y-57901000D02*
X95655000Y-57901000D01*
X93575000Y-57901000D02*
X92099000Y-57901000D01*
X97099000Y-57941000D02*
X95655000Y-57941000D01*
X93575000Y-57941000D02*
X92131000Y-57941000D01*
X97065000Y-57981000D02*
X95655000Y-57981000D01*
X93575000Y-57981000D02*
X92165000Y-57981000D01*
X97031000Y-58021000D02*
X95655000Y-58021000D01*
X93575000Y-58021000D02*
X92199000Y-58021000D01*
X96995000Y-58061000D02*
X95655000Y-58061000D01*
X93575000Y-58061000D02*
X92235000Y-58061000D01*
X96958000Y-58101000D02*
X95655000Y-58101000D01*
X93575000Y-58101000D02*
X92272000Y-58101000D01*
X96920000Y-58141000D02*
X95655000Y-58141000D01*
X93575000Y-58141000D02*
X92310000Y-58141000D01*
X96880000Y-58181000D02*
X92350000Y-58181000D01*
X96839000Y-58221000D02*
X92391000Y-58221000D01*
X96797000Y-58261000D02*
X92433000Y-58261000D01*
X96752000Y-58301000D02*
X92478000Y-58301000D01*
X96707000Y-58341000D02*
X92523000Y-58341000D01*
X96659000Y-58381000D02*
X92571000Y-58381000D01*
X96610000Y-58421000D02*
X92620000Y-58421000D01*
X96559000Y-58461000D02*
X92671000Y-58461000D01*
X96505000Y-58501000D02*
X92725000Y-58501000D01*
X96449000Y-58541000D02*
X92781000Y-58541000D01*
X96391000Y-58581000D02*
X92839000Y-58581000D01*
X96329000Y-58621000D02*
X92901000Y-58621000D01*
X96265000Y-58661000D02*
X92965000Y-58661000D01*
X96196000Y-58701000D02*
X93034000Y-58701000D01*
X96124000Y-58741000D02*
X93106000Y-58741000D01*
X96047000Y-58781000D02*
X93183000Y-58781000D01*
X95965000Y-58821000D02*
X93265000Y-58821000D01*
X95877000Y-58861000D02*
X93353000Y-58861000D01*
X95780000Y-58901000D02*
X93450000Y-58901000D01*
X95674000Y-58941000D02*
X93556000Y-58941000D01*
X95555000Y-58981000D02*
X93675000Y-58981000D01*
X95417000Y-59021000D02*
X93813000Y-59021000D01*
X95248000Y-59061000D02*
X93982000Y-59061000D01*
X95017000Y-59101000D02*
X94213000Y-59101000D01*
X96454000Y-52359759D02*
X96454000Y-52989759D01*
X96769000Y-52674759D02*
X96139000Y-52674759D01*
X136017000Y-52832000D02*
X159385000Y-52832000D01*
X159385000Y-52832000D02*
X159385000Y-69088000D01*
X159385000Y-69088000D02*
X136017000Y-69088000D01*
X136017000Y-69088000D02*
X136017000Y-52832000D01*
X122742000Y-73974000D02*
X122742000Y-68774000D01*
X117602000Y-73974000D02*
X122742000Y-73974000D01*
X115002000Y-68774000D02*
X122742000Y-68774000D01*
X117602000Y-73974000D02*
X117602000Y-71374000D01*
X117602000Y-71374000D02*
X115002000Y-71374000D01*
X115002000Y-71374000D02*
X115002000Y-68774000D01*
X116332000Y-73974000D02*
X115002000Y-73974000D01*
X115002000Y-73974000D02*
X115002000Y-72644000D01*
X78740000Y-58674000D02*
X92964000Y-58674000D01*
X92964000Y-58674000D02*
X92964000Y-70358000D01*
X92964000Y-70358000D02*
X78740000Y-70358000D01*
X78740000Y-70358000D02*
X78740000Y-58674000D01*
X75184000Y-60452000D02*
X78740000Y-60452000D01*
X78740000Y-68580000D02*
X75184000Y-68580000D01*
X75184000Y-68580000D02*
X75184000Y-60452000D01*
X75184000Y-81280000D02*
X75184000Y-73152000D01*
X78740000Y-81280000D02*
X75184000Y-81280000D01*
X75184000Y-73152000D02*
X78740000Y-73152000D01*
X78740000Y-83058000D02*
X78740000Y-71374000D01*
X92964000Y-83058000D02*
X78740000Y-83058000D01*
X92964000Y-71374000D02*
X92964000Y-83058000D01*
X78740000Y-71374000D02*
X92964000Y-71374000D01*
X130872608Y-90064335D02*
G75*
G03X131029516Y-86832000I-1078608J1672335D01*
G01*
X128715392Y-90064335D02*
G75*
G02X128558484Y-86832000I1078608J1672335D01*
G01*
X130873837Y-89433130D02*
G75*
G03X130874000Y-87351039I-1079837J1041130D01*
G01*
X128714163Y-89433130D02*
G75*
G02X128714000Y-87351039I1079837J1041130D01*
G01*
X131030000Y-86832000D02*
X130874000Y-86832000D01*
X128714000Y-86832000D02*
X128558000Y-86832000D01*
X133286000Y-86832000D02*
X133130000Y-86832000D01*
X135602000Y-86832000D02*
X135446000Y-86832000D01*
X133286163Y-89433130D02*
G75*
G02X133286000Y-87351039I1079837J1041130D01*
G01*
X135445837Y-89433130D02*
G75*
G03X135446000Y-87351039I-1079837J1041130D01*
G01*
X133287392Y-90064335D02*
G75*
G02X133130484Y-86832000I1078608J1672335D01*
G01*
X135444608Y-90064335D02*
G75*
G03X135601516Y-86832000I-1078608J1672335D01*
G01*
X140016608Y-90064335D02*
G75*
G03X140173516Y-86832000I-1078608J1672335D01*
G01*
X137859392Y-90064335D02*
G75*
G02X137702484Y-86832000I1078608J1672335D01*
G01*
X140017837Y-89433130D02*
G75*
G03X140018000Y-87351039I-1079837J1041130D01*
G01*
X137858163Y-89433130D02*
G75*
G02X137858000Y-87351039I1079837J1041130D01*
G01*
X140174000Y-86832000D02*
X140018000Y-86832000D01*
X137858000Y-86832000D02*
X137702000Y-86832000D01*
X109160000Y-91500000D02*
X111820000Y-91500000D01*
X109160000Y-88900000D02*
X109160000Y-91500000D01*
X111820000Y-88900000D02*
X111820000Y-91500000D01*
X109160000Y-88900000D02*
X111820000Y-88900000D01*
X109160000Y-87630000D02*
X109160000Y-86300000D01*
X109160000Y-86300000D02*
X110490000Y-86300000D01*
X104080000Y-91500000D02*
X106740000Y-91500000D01*
X104080000Y-88900000D02*
X104080000Y-91500000D01*
X106740000Y-88900000D02*
X106740000Y-91500000D01*
X104080000Y-88900000D02*
X106740000Y-88900000D01*
X104080000Y-87630000D02*
X104080000Y-86300000D01*
X104080000Y-86300000D02*
X105410000Y-86300000D01*
X115002000Y-66608000D02*
X117662000Y-66608000D01*
X115002000Y-64008000D02*
X115002000Y-66608000D01*
X117662000Y-64008000D02*
X117662000Y-66608000D01*
X115002000Y-64008000D02*
X117662000Y-64008000D01*
X115002000Y-62738000D02*
X115002000Y-61408000D01*
X115002000Y-61408000D02*
X116332000Y-61408000D01*
D12*
X92630666Y-83780380D02*
X92630666Y-84494666D01*
X92583047Y-84637523D01*
X92487809Y-84732761D01*
X92344952Y-84780380D01*
X92249714Y-84780380D01*
X93630666Y-84780380D02*
X93059238Y-84780380D01*
X93344952Y-84780380D02*
X93344952Y-83780380D01*
X93249714Y-83923238D01*
X93154476Y-84018476D01*
X93059238Y-84066095D01*
X95547380Y-80771904D02*
X96356904Y-80771904D01*
X96452142Y-80724285D01*
X96499761Y-80676666D01*
X96547380Y-80581428D01*
X96547380Y-80390952D01*
X96499761Y-80295714D01*
X96452142Y-80248095D01*
X96356904Y-80200476D01*
X95547380Y-80200476D01*
X96547380Y-79200476D02*
X96547380Y-79771904D01*
X96547380Y-79486190D02*
X95547380Y-79486190D01*
X95690238Y-79581428D01*
X95785476Y-79676666D01*
X95833095Y-79771904D01*
X137668095Y-83780380D02*
X137668095Y-84589904D01*
X137715714Y-84685142D01*
X137763333Y-84732761D01*
X137858571Y-84780380D01*
X138049047Y-84780380D01*
X138144285Y-84732761D01*
X138191904Y-84685142D01*
X138239523Y-84589904D01*
X138239523Y-83780380D01*
X138668095Y-83875619D02*
X138715714Y-83828000D01*
X138810952Y-83780380D01*
X139049047Y-83780380D01*
X139144285Y-83828000D01*
X139191904Y-83875619D01*
X139239523Y-83970857D01*
X139239523Y-84066095D01*
X139191904Y-84208952D01*
X138620476Y-84780380D01*
X139239523Y-84780380D01*
X110367380Y-68071904D02*
X111176904Y-68071904D01*
X111272142Y-68024285D01*
X111319761Y-67976666D01*
X111367380Y-67881428D01*
X111367380Y-67690952D01*
X111319761Y-67595714D01*
X111272142Y-67548095D01*
X111176904Y-67500476D01*
X110367380Y-67500476D01*
X110700714Y-66595714D02*
X111367380Y-66595714D01*
X110319761Y-66833809D02*
X111034047Y-67071904D01*
X111034047Y-66452857D01*
X118305809Y-88368190D02*
X118305809Y-88844380D01*
X117972476Y-87844380D02*
X118305809Y-88368190D01*
X118639142Y-87844380D01*
X119496285Y-88844380D02*
X118924857Y-88844380D01*
X119210571Y-88844380D02*
X119210571Y-87844380D01*
X119115333Y-87987238D01*
X119020095Y-88082476D01*
X118924857Y-88130095D01*
X115236666Y-57237380D02*
X115236666Y-57951666D01*
X115189047Y-58094523D01*
X115093809Y-58189761D01*
X114950952Y-58237380D01*
X114855714Y-58237380D01*
X115665238Y-57332619D02*
X115712857Y-57285000D01*
X115808095Y-57237380D01*
X116046190Y-57237380D01*
X116141428Y-57285000D01*
X116189047Y-57332619D01*
X116236666Y-57427857D01*
X116236666Y-57523095D01*
X116189047Y-57665952D01*
X115617619Y-58237380D01*
X116236666Y-58237380D01*
X129373333Y-61412380D02*
X128897142Y-61412380D01*
X128897142Y-60412380D01*
X130230476Y-61412380D02*
X129659047Y-61412380D01*
X129944761Y-61412380D02*
X129944761Y-60412380D01*
X129849523Y-60555238D01*
X129754285Y-60650476D01*
X129659047Y-60698095D01*
X121102380Y-63476095D02*
X120102380Y-63476095D01*
X120102380Y-63238000D01*
X120150000Y-63095142D01*
X120245238Y-62999904D01*
X120340476Y-62952285D01*
X120530952Y-62904666D01*
X120673809Y-62904666D01*
X120864285Y-62952285D01*
X120959523Y-62999904D01*
X121054761Y-63095142D01*
X121102380Y-63238000D01*
X121102380Y-63476095D01*
X121102380Y-61952285D02*
X121102380Y-62523714D01*
X121102380Y-62238000D02*
X120102380Y-62238000D01*
X120245238Y-62333238D01*
X120340476Y-62428476D01*
X120388095Y-62523714D01*
X123002380Y-58681904D02*
X122002380Y-58681904D01*
X123002380Y-58110476D02*
X122430952Y-58539047D01*
X122002380Y-58110476D02*
X122573809Y-58681904D01*
X99496571Y-89447333D02*
X99496571Y-89780666D01*
X100020380Y-89780666D02*
X99020380Y-89780666D01*
X99020380Y-89304476D01*
X100020380Y-88399714D02*
X100020380Y-88971142D01*
X100020380Y-88685428D02*
X99020380Y-88685428D01*
X99163238Y-88780666D01*
X99258476Y-88875904D01*
X99306095Y-88971142D01*
X99372142Y-56502857D02*
X99419761Y-56550476D01*
X99467380Y-56693333D01*
X99467380Y-56788571D01*
X99419761Y-56931428D01*
X99324523Y-57026666D01*
X99229285Y-57074285D01*
X99038809Y-57121904D01*
X98895952Y-57121904D01*
X98705476Y-57074285D01*
X98610238Y-57026666D01*
X98515000Y-56931428D01*
X98467380Y-56788571D01*
X98467380Y-56693333D01*
X98515000Y-56550476D01*
X98562619Y-56502857D01*
X99467380Y-55550476D02*
X99467380Y-56121904D01*
X99467380Y-55836190D02*
X98467380Y-55836190D01*
X98610238Y-55931428D01*
X98705476Y-56026666D01*
X98753095Y-56121904D01*
X99467380Y-54598095D02*
X99467380Y-55169523D01*
X99467380Y-54883809D02*
X98467380Y-54883809D01*
X98610238Y-54979047D01*
X98705476Y-55074285D01*
X98753095Y-55169523D01*
D13*
X139914380Y-66293904D02*
X140723904Y-66293904D01*
X140819142Y-66246285D01*
X140866761Y-66198666D01*
X140914380Y-66103428D01*
X140914380Y-65912952D01*
X140866761Y-65817714D01*
X140819142Y-65770095D01*
X140723904Y-65722476D01*
X139914380Y-65722476D01*
X139914380Y-65341523D02*
X139914380Y-64722476D01*
X140295333Y-65055809D01*
X140295333Y-64912952D01*
X140342952Y-64817714D01*
X140390571Y-64770095D01*
X140485809Y-64722476D01*
X140723904Y-64722476D01*
X140819142Y-64770095D01*
X140866761Y-64817714D01*
X140914380Y-64912952D01*
X140914380Y-65198666D01*
X140866761Y-65293904D01*
X140819142Y-65341523D01*
D12*
X140914380Y-59896000D02*
X139914380Y-59896000D01*
X140628666Y-59562666D01*
X139914380Y-59229333D01*
X140914380Y-59229333D01*
X140914380Y-58753142D02*
X139914380Y-58753142D01*
X140390571Y-58753142D02*
X140390571Y-58181714D01*
X140914380Y-58181714D02*
X139914380Y-58181714D01*
X140533428Y-57705523D02*
X140533428Y-56943619D01*
X140914380Y-56467428D02*
X139914380Y-56467428D01*
X140628666Y-56134095D01*
X139914380Y-55800761D01*
X140914380Y-55800761D01*
X140914380Y-54800761D02*
X140914380Y-55372190D01*
X140914380Y-55086476D02*
X139914380Y-55086476D01*
X140057238Y-55181714D01*
X140152476Y-55276952D01*
X140200095Y-55372190D01*
X140342952Y-54229333D02*
X140295333Y-54324571D01*
X140247714Y-54372190D01*
X140152476Y-54419809D01*
X140104857Y-54419809D01*
X140009619Y-54372190D01*
X139962000Y-54324571D01*
X139914380Y-54229333D01*
X139914380Y-54038857D01*
X139962000Y-53943619D01*
X140009619Y-53896000D01*
X140104857Y-53848380D01*
X140152476Y-53848380D01*
X140247714Y-53896000D01*
X140295333Y-53943619D01*
X140342952Y-54038857D01*
X140342952Y-54229333D01*
X140390571Y-54324571D01*
X140438190Y-54372190D01*
X140533428Y-54419809D01*
X140723904Y-54419809D01*
X140819142Y-54372190D01*
X140866761Y-54324571D01*
X140914380Y-54229333D01*
X140914380Y-54038857D01*
X140866761Y-53943619D01*
X140819142Y-53896000D01*
X140723904Y-53848380D01*
X140533428Y-53848380D01*
X140438190Y-53896000D01*
X140390571Y-53943619D01*
X140342952Y-54038857D01*
X113454380Y-71707333D02*
X114168666Y-71707333D01*
X114311523Y-71754952D01*
X114406761Y-71850190D01*
X114454380Y-71993047D01*
X114454380Y-72088285D01*
X113454380Y-70754952D02*
X113454380Y-71231142D01*
X113930571Y-71278761D01*
X113882952Y-71231142D01*
X113835333Y-71135904D01*
X113835333Y-70897809D01*
X113882952Y-70802571D01*
X113930571Y-70754952D01*
X114025809Y-70707333D01*
X114263904Y-70707333D01*
X114359142Y-70754952D01*
X114406761Y-70802571D01*
X114454380Y-70897809D01*
X114454380Y-71135904D01*
X114406761Y-71231142D01*
X114359142Y-71278761D01*
D13*
X87042666Y-65746380D02*
X87042666Y-66460666D01*
X86995047Y-66603523D01*
X86899809Y-66698761D01*
X86756952Y-66746380D01*
X86661714Y-66746380D01*
X87423619Y-65746380D02*
X88042666Y-65746380D01*
X87709333Y-66127333D01*
X87852190Y-66127333D01*
X87947428Y-66174952D01*
X87995047Y-66222571D01*
X88042666Y-66317809D01*
X88042666Y-66555904D01*
X87995047Y-66651142D01*
X87947428Y-66698761D01*
X87852190Y-66746380D01*
X87566476Y-66746380D01*
X87471238Y-66698761D01*
X87423619Y-66651142D01*
D12*
X83201428Y-63968380D02*
X83820476Y-63968380D01*
X83487142Y-64349333D01*
X83630000Y-64349333D01*
X83725238Y-64396952D01*
X83772857Y-64444571D01*
X83820476Y-64539809D01*
X83820476Y-64777904D01*
X83772857Y-64873142D01*
X83725238Y-64920761D01*
X83630000Y-64968380D01*
X83344285Y-64968380D01*
X83249047Y-64920761D01*
X83201428Y-64873142D01*
X84249047Y-64873142D02*
X84296666Y-64920761D01*
X84249047Y-64968380D01*
X84201428Y-64920761D01*
X84249047Y-64873142D01*
X84249047Y-64968380D01*
X85201428Y-63968380D02*
X84725238Y-63968380D01*
X84677619Y-64444571D01*
X84725238Y-64396952D01*
X84820476Y-64349333D01*
X85058571Y-64349333D01*
X85153809Y-64396952D01*
X85201428Y-64444571D01*
X85249047Y-64539809D01*
X85249047Y-64777904D01*
X85201428Y-64873142D01*
X85153809Y-64920761D01*
X85058571Y-64968380D01*
X84820476Y-64968380D01*
X84725238Y-64920761D01*
X84677619Y-64873142D01*
X85677619Y-64968380D02*
X85677619Y-64301714D01*
X85677619Y-64396952D02*
X85725238Y-64349333D01*
X85820476Y-64301714D01*
X85963333Y-64301714D01*
X86058571Y-64349333D01*
X86106190Y-64444571D01*
X86106190Y-64968380D01*
X86106190Y-64444571D02*
X86153809Y-64349333D01*
X86249047Y-64301714D01*
X86391904Y-64301714D01*
X86487142Y-64349333D01*
X86534761Y-64444571D01*
X86534761Y-64968380D01*
X87010952Y-64968380D02*
X87010952Y-64301714D01*
X87010952Y-64396952D02*
X87058571Y-64349333D01*
X87153809Y-64301714D01*
X87296666Y-64301714D01*
X87391904Y-64349333D01*
X87439523Y-64444571D01*
X87439523Y-64968380D01*
X87439523Y-64444571D02*
X87487142Y-64349333D01*
X87582380Y-64301714D01*
X87725238Y-64301714D01*
X87820476Y-64349333D01*
X87868095Y-64444571D01*
X87868095Y-64968380D01*
X89391904Y-63968380D02*
X89391904Y-64682666D01*
X89344285Y-64825523D01*
X89249047Y-64920761D01*
X89106190Y-64968380D01*
X89010952Y-64968380D01*
X90296666Y-64968380D02*
X90296666Y-64444571D01*
X90249047Y-64349333D01*
X90153809Y-64301714D01*
X89963333Y-64301714D01*
X89868095Y-64349333D01*
X90296666Y-64920761D02*
X90201428Y-64968380D01*
X89963333Y-64968380D01*
X89868095Y-64920761D01*
X89820476Y-64825523D01*
X89820476Y-64730285D01*
X89868095Y-64635047D01*
X89963333Y-64587428D01*
X90201428Y-64587428D01*
X90296666Y-64539809D01*
X91201428Y-64920761D02*
X91106190Y-64968380D01*
X90915714Y-64968380D01*
X90820476Y-64920761D01*
X90772857Y-64873142D01*
X90725238Y-64777904D01*
X90725238Y-64492190D01*
X90772857Y-64396952D01*
X90820476Y-64349333D01*
X90915714Y-64301714D01*
X91106190Y-64301714D01*
X91201428Y-64349333D01*
X91630000Y-64968380D02*
X91630000Y-63968380D01*
X91725238Y-64587428D02*
X92010952Y-64968380D01*
X92010952Y-64301714D02*
X91630000Y-64682666D01*
D13*
X87042666Y-78446380D02*
X87042666Y-79160666D01*
X86995047Y-79303523D01*
X86899809Y-79398761D01*
X86756952Y-79446380D01*
X86661714Y-79446380D01*
X87947428Y-78779714D02*
X87947428Y-79446380D01*
X87709333Y-78398761D02*
X87471238Y-79113047D01*
X88090285Y-79113047D01*
D12*
X83201428Y-76668380D02*
X83820476Y-76668380D01*
X83487142Y-77049333D01*
X83630000Y-77049333D01*
X83725238Y-77096952D01*
X83772857Y-77144571D01*
X83820476Y-77239809D01*
X83820476Y-77477904D01*
X83772857Y-77573142D01*
X83725238Y-77620761D01*
X83630000Y-77668380D01*
X83344285Y-77668380D01*
X83249047Y-77620761D01*
X83201428Y-77573142D01*
X84249047Y-77573142D02*
X84296666Y-77620761D01*
X84249047Y-77668380D01*
X84201428Y-77620761D01*
X84249047Y-77573142D01*
X84249047Y-77668380D01*
X85201428Y-76668380D02*
X84725238Y-76668380D01*
X84677619Y-77144571D01*
X84725238Y-77096952D01*
X84820476Y-77049333D01*
X85058571Y-77049333D01*
X85153809Y-77096952D01*
X85201428Y-77144571D01*
X85249047Y-77239809D01*
X85249047Y-77477904D01*
X85201428Y-77573142D01*
X85153809Y-77620761D01*
X85058571Y-77668380D01*
X84820476Y-77668380D01*
X84725238Y-77620761D01*
X84677619Y-77573142D01*
X85677619Y-77668380D02*
X85677619Y-77001714D01*
X85677619Y-77096952D02*
X85725238Y-77049333D01*
X85820476Y-77001714D01*
X85963333Y-77001714D01*
X86058571Y-77049333D01*
X86106190Y-77144571D01*
X86106190Y-77668380D01*
X86106190Y-77144571D02*
X86153809Y-77049333D01*
X86249047Y-77001714D01*
X86391904Y-77001714D01*
X86487142Y-77049333D01*
X86534761Y-77144571D01*
X86534761Y-77668380D01*
X87010952Y-77668380D02*
X87010952Y-77001714D01*
X87010952Y-77096952D02*
X87058571Y-77049333D01*
X87153809Y-77001714D01*
X87296666Y-77001714D01*
X87391904Y-77049333D01*
X87439523Y-77144571D01*
X87439523Y-77668380D01*
X87439523Y-77144571D02*
X87487142Y-77049333D01*
X87582380Y-77001714D01*
X87725238Y-77001714D01*
X87820476Y-77049333D01*
X87868095Y-77144571D01*
X87868095Y-77668380D01*
X89391904Y-76668380D02*
X89391904Y-77382666D01*
X89344285Y-77525523D01*
X89249047Y-77620761D01*
X89106190Y-77668380D01*
X89010952Y-77668380D01*
X90296666Y-77668380D02*
X90296666Y-77144571D01*
X90249047Y-77049333D01*
X90153809Y-77001714D01*
X89963333Y-77001714D01*
X89868095Y-77049333D01*
X90296666Y-77620761D02*
X90201428Y-77668380D01*
X89963333Y-77668380D01*
X89868095Y-77620761D01*
X89820476Y-77525523D01*
X89820476Y-77430285D01*
X89868095Y-77335047D01*
X89963333Y-77287428D01*
X90201428Y-77287428D01*
X90296666Y-77239809D01*
X91201428Y-77620761D02*
X91106190Y-77668380D01*
X90915714Y-77668380D01*
X90820476Y-77620761D01*
X90772857Y-77573142D01*
X90725238Y-77477904D01*
X90725238Y-77192190D01*
X90772857Y-77096952D01*
X90820476Y-77049333D01*
X90915714Y-77001714D01*
X91106190Y-77001714D01*
X91201428Y-77049333D01*
X91630000Y-77668380D02*
X91630000Y-76668380D01*
X91725238Y-77287428D02*
X92010952Y-77668380D01*
X92010952Y-77001714D02*
X91630000Y-77382666D01*
X129055904Y-92146380D02*
X129055904Y-91146380D01*
X129294000Y-91146380D01*
X129436857Y-91194000D01*
X129532095Y-91289238D01*
X129579714Y-91384476D01*
X129627333Y-91574952D01*
X129627333Y-91717809D01*
X129579714Y-91908285D01*
X129532095Y-92003523D01*
X129436857Y-92098761D01*
X129294000Y-92146380D01*
X129055904Y-92146380D01*
X130008285Y-91241619D02*
X130055904Y-91194000D01*
X130151142Y-91146380D01*
X130389238Y-91146380D01*
X130484476Y-91194000D01*
X130532095Y-91241619D01*
X130579714Y-91336857D01*
X130579714Y-91432095D01*
X130532095Y-91574952D01*
X129960666Y-92146380D01*
X130579714Y-92146380D01*
X133627904Y-92146380D02*
X133627904Y-91146380D01*
X133866000Y-91146380D01*
X134008857Y-91194000D01*
X134104095Y-91289238D01*
X134151714Y-91384476D01*
X134199333Y-91574952D01*
X134199333Y-91717809D01*
X134151714Y-91908285D01*
X134104095Y-92003523D01*
X134008857Y-92098761D01*
X133866000Y-92146380D01*
X133627904Y-92146380D01*
X134532666Y-91146380D02*
X135151714Y-91146380D01*
X134818380Y-91527333D01*
X134961238Y-91527333D01*
X135056476Y-91574952D01*
X135104095Y-91622571D01*
X135151714Y-91717809D01*
X135151714Y-91955904D01*
X135104095Y-92051142D01*
X135056476Y-92098761D01*
X134961238Y-92146380D01*
X134675523Y-92146380D01*
X134580285Y-92098761D01*
X134532666Y-92051142D01*
X138199904Y-92146380D02*
X138199904Y-91146380D01*
X138438000Y-91146380D01*
X138580857Y-91194000D01*
X138676095Y-91289238D01*
X138723714Y-91384476D01*
X138771333Y-91574952D01*
X138771333Y-91717809D01*
X138723714Y-91908285D01*
X138676095Y-92003523D01*
X138580857Y-92098761D01*
X138438000Y-92146380D01*
X138199904Y-92146380D01*
X139628476Y-91479714D02*
X139628476Y-92146380D01*
X139390380Y-91098761D02*
X139152285Y-91813047D01*
X139771333Y-91813047D01*
X108608761Y-90233333D02*
X108656380Y-90090476D01*
X108656380Y-89852380D01*
X108608761Y-89757142D01*
X108561142Y-89709523D01*
X108465904Y-89661904D01*
X108370666Y-89661904D01*
X108275428Y-89709523D01*
X108227809Y-89757142D01*
X108180190Y-89852380D01*
X108132571Y-90042857D01*
X108084952Y-90138095D01*
X108037333Y-90185714D01*
X107942095Y-90233333D01*
X107846857Y-90233333D01*
X107751619Y-90185714D01*
X107704000Y-90138095D01*
X107656380Y-90042857D01*
X107656380Y-89804761D01*
X107704000Y-89661904D01*
X107656380Y-89328571D02*
X108656380Y-89090476D01*
X107942095Y-88900000D01*
X108656380Y-88709523D01*
X107656380Y-88471428D01*
X107656380Y-88185714D02*
X107656380Y-87566666D01*
X108037333Y-87900000D01*
X108037333Y-87757142D01*
X108084952Y-87661904D01*
X108132571Y-87614285D01*
X108227809Y-87566666D01*
X108465904Y-87566666D01*
X108561142Y-87614285D01*
X108608761Y-87661904D01*
X108656380Y-87757142D01*
X108656380Y-88042857D01*
X108608761Y-88138095D01*
X108561142Y-88185714D01*
X103274761Y-90233333D02*
X103322380Y-90090476D01*
X103322380Y-89852380D01*
X103274761Y-89757142D01*
X103227142Y-89709523D01*
X103131904Y-89661904D01*
X103036666Y-89661904D01*
X102941428Y-89709523D01*
X102893809Y-89757142D01*
X102846190Y-89852380D01*
X102798571Y-90042857D01*
X102750952Y-90138095D01*
X102703333Y-90185714D01*
X102608095Y-90233333D01*
X102512857Y-90233333D01*
X102417619Y-90185714D01*
X102370000Y-90138095D01*
X102322380Y-90042857D01*
X102322380Y-89804761D01*
X102370000Y-89661904D01*
X102322380Y-89328571D02*
X103322380Y-89090476D01*
X102608095Y-88900000D01*
X103322380Y-88709523D01*
X102322380Y-88471428D01*
X103322380Y-87566666D02*
X103322380Y-88138095D01*
X103322380Y-87852380D02*
X102322380Y-87852380D01*
X102465238Y-87947619D01*
X102560476Y-88042857D01*
X102608095Y-88138095D01*
X114450761Y-65341333D02*
X114498380Y-65198476D01*
X114498380Y-64960380D01*
X114450761Y-64865142D01*
X114403142Y-64817523D01*
X114307904Y-64769904D01*
X114212666Y-64769904D01*
X114117428Y-64817523D01*
X114069809Y-64865142D01*
X114022190Y-64960380D01*
X113974571Y-65150857D01*
X113926952Y-65246095D01*
X113879333Y-65293714D01*
X113784095Y-65341333D01*
X113688857Y-65341333D01*
X113593619Y-65293714D01*
X113546000Y-65246095D01*
X113498380Y-65150857D01*
X113498380Y-64912761D01*
X113546000Y-64769904D01*
X113498380Y-64436571D02*
X114498380Y-64198476D01*
X113784095Y-64008000D01*
X114498380Y-63817523D01*
X113498380Y-63579428D01*
X113593619Y-63246095D02*
X113546000Y-63198476D01*
X113498380Y-63103238D01*
X113498380Y-62865142D01*
X113546000Y-62769904D01*
X113593619Y-62722285D01*
X113688857Y-62674666D01*
X113784095Y-62674666D01*
X113926952Y-62722285D01*
X114498380Y-63293714D01*
X114498380Y-62674666D01*
M02*
