G04 #@! TF.GenerationSoftware,KiCad,Pcbnew,5.1.5-52549c5~84~ubuntu18.04.1*
G04 #@! TF.CreationDate,2020-02-24T11:14:48+00:00*
G04 #@! TF.ProjectId,transmitter,7472616e-736d-4697-9474-65722e6b6963,rev?*
G04 #@! TF.SameCoordinates,Original*
G04 #@! TF.FileFunction,Soldermask,Bot*
G04 #@! TF.FilePolarity,Negative*
%FSLAX46Y46*%
G04 Gerber Fmt 4.6, Leading zero omitted, Abs format (unit mm)*
G04 Created by KiCad (PCBNEW 5.1.5-52549c5~84~ubuntu18.04.1) date 2020-02-24 11:14:48*
%MOMM*%
%LPD*%
G04 APERTURE LIST*
%ADD10C,0.100000*%
G04 APERTURE END LIST*
D10*
G36*
X99681512Y-90717927D02*
G01*
X99830812Y-90747624D01*
X99994784Y-90815544D01*
X100142354Y-90914147D01*
X100267853Y-91039646D01*
X100366456Y-91187216D01*
X100434376Y-91351188D01*
X100469000Y-91525259D01*
X100469000Y-91702741D01*
X100434376Y-91876812D01*
X100366456Y-92040784D01*
X100267853Y-92188354D01*
X100142354Y-92313853D01*
X99994784Y-92412456D01*
X99830812Y-92480376D01*
X99681512Y-92510073D01*
X99656742Y-92515000D01*
X99479258Y-92515000D01*
X99454488Y-92510073D01*
X99305188Y-92480376D01*
X99141216Y-92412456D01*
X98993646Y-92313853D01*
X98868147Y-92188354D01*
X98769544Y-92040784D01*
X98701624Y-91876812D01*
X98667000Y-91702741D01*
X98667000Y-91525259D01*
X98701624Y-91351188D01*
X98769544Y-91187216D01*
X98868147Y-91039646D01*
X98993646Y-90914147D01*
X99141216Y-90815544D01*
X99305188Y-90747624D01*
X99454488Y-90717927D01*
X99479258Y-90713000D01*
X99656742Y-90713000D01*
X99681512Y-90717927D01*
G37*
G36*
X110603512Y-89273927D02*
G01*
X110752812Y-89303624D01*
X110916784Y-89371544D01*
X111064354Y-89470147D01*
X111189853Y-89595646D01*
X111288456Y-89743216D01*
X111356376Y-89907188D01*
X111391000Y-90081259D01*
X111391000Y-90258741D01*
X111356376Y-90432812D01*
X111288456Y-90596784D01*
X111189853Y-90744354D01*
X111064354Y-90869853D01*
X110916784Y-90968456D01*
X110752812Y-91036376D01*
X110603512Y-91066073D01*
X110578742Y-91071000D01*
X110401258Y-91071000D01*
X110376488Y-91066073D01*
X110227188Y-91036376D01*
X110063216Y-90968456D01*
X109915646Y-90869853D01*
X109790147Y-90744354D01*
X109691544Y-90596784D01*
X109623624Y-90432812D01*
X109589000Y-90258741D01*
X109589000Y-90081259D01*
X109623624Y-89907188D01*
X109691544Y-89743216D01*
X109790147Y-89595646D01*
X109915646Y-89470147D01*
X110063216Y-89371544D01*
X110227188Y-89303624D01*
X110376488Y-89273927D01*
X110401258Y-89269000D01*
X110578742Y-89269000D01*
X110603512Y-89273927D01*
G37*
G36*
X105523512Y-89273927D02*
G01*
X105672812Y-89303624D01*
X105836784Y-89371544D01*
X105984354Y-89470147D01*
X106109853Y-89595646D01*
X106208456Y-89743216D01*
X106276376Y-89907188D01*
X106311000Y-90081259D01*
X106311000Y-90258741D01*
X106276376Y-90432812D01*
X106208456Y-90596784D01*
X106109853Y-90744354D01*
X105984354Y-90869853D01*
X105836784Y-90968456D01*
X105672812Y-91036376D01*
X105523512Y-91066073D01*
X105498742Y-91071000D01*
X105321258Y-91071000D01*
X105296488Y-91066073D01*
X105147188Y-91036376D01*
X104983216Y-90968456D01*
X104835646Y-90869853D01*
X104710147Y-90744354D01*
X104611544Y-90596784D01*
X104543624Y-90432812D01*
X104509000Y-90258741D01*
X104509000Y-90081259D01*
X104543624Y-89907188D01*
X104611544Y-89743216D01*
X104710147Y-89595646D01*
X104835646Y-89470147D01*
X104983216Y-89371544D01*
X105147188Y-89303624D01*
X105296488Y-89273927D01*
X105321258Y-89269000D01*
X105498742Y-89269000D01*
X105523512Y-89273927D01*
G37*
G36*
X130071395Y-88747546D02*
G01*
X130244466Y-88819234D01*
X130295530Y-88853354D01*
X130400227Y-88923310D01*
X130532690Y-89055773D01*
X130539523Y-89066000D01*
X130636766Y-89211534D01*
X130708454Y-89384605D01*
X130745000Y-89568333D01*
X130745000Y-89755667D01*
X130708454Y-89939395D01*
X130636766Y-90112466D01*
X130636765Y-90112467D01*
X130532690Y-90268227D01*
X130400227Y-90400690D01*
X130352154Y-90432811D01*
X130244466Y-90504766D01*
X130071395Y-90576454D01*
X129887667Y-90613000D01*
X129700333Y-90613000D01*
X129516605Y-90576454D01*
X129343534Y-90504766D01*
X129235846Y-90432811D01*
X129187773Y-90400690D01*
X129055310Y-90268227D01*
X128951235Y-90112467D01*
X128951234Y-90112466D01*
X128879546Y-89939395D01*
X128843000Y-89755667D01*
X128843000Y-89568333D01*
X128879546Y-89384605D01*
X128951234Y-89211534D01*
X129048477Y-89066000D01*
X129055310Y-89055773D01*
X129187773Y-88923310D01*
X129292470Y-88853354D01*
X129343534Y-88819234D01*
X129516605Y-88747546D01*
X129700333Y-88711000D01*
X129887667Y-88711000D01*
X130071395Y-88747546D01*
G37*
G36*
X139215395Y-88747546D02*
G01*
X139388466Y-88819234D01*
X139439530Y-88853354D01*
X139544227Y-88923310D01*
X139676690Y-89055773D01*
X139683523Y-89066000D01*
X139780766Y-89211534D01*
X139852454Y-89384605D01*
X139889000Y-89568333D01*
X139889000Y-89755667D01*
X139852454Y-89939395D01*
X139780766Y-90112466D01*
X139780765Y-90112467D01*
X139676690Y-90268227D01*
X139544227Y-90400690D01*
X139496154Y-90432811D01*
X139388466Y-90504766D01*
X139215395Y-90576454D01*
X139031667Y-90613000D01*
X138844333Y-90613000D01*
X138660605Y-90576454D01*
X138487534Y-90504766D01*
X138379846Y-90432811D01*
X138331773Y-90400690D01*
X138199310Y-90268227D01*
X138095235Y-90112467D01*
X138095234Y-90112466D01*
X138023546Y-89939395D01*
X137987000Y-89755667D01*
X137987000Y-89568333D01*
X138023546Y-89384605D01*
X138095234Y-89211534D01*
X138192477Y-89066000D01*
X138199310Y-89055773D01*
X138331773Y-88923310D01*
X138436470Y-88853354D01*
X138487534Y-88819234D01*
X138660605Y-88747546D01*
X138844333Y-88711000D01*
X139031667Y-88711000D01*
X139215395Y-88747546D01*
G37*
G36*
X134643395Y-88747546D02*
G01*
X134816466Y-88819234D01*
X134867530Y-88853354D01*
X134972227Y-88923310D01*
X135104690Y-89055773D01*
X135111523Y-89066000D01*
X135208766Y-89211534D01*
X135280454Y-89384605D01*
X135317000Y-89568333D01*
X135317000Y-89755667D01*
X135280454Y-89939395D01*
X135208766Y-90112466D01*
X135208765Y-90112467D01*
X135104690Y-90268227D01*
X134972227Y-90400690D01*
X134924154Y-90432811D01*
X134816466Y-90504766D01*
X134643395Y-90576454D01*
X134459667Y-90613000D01*
X134272333Y-90613000D01*
X134088605Y-90576454D01*
X133915534Y-90504766D01*
X133807846Y-90432811D01*
X133759773Y-90400690D01*
X133627310Y-90268227D01*
X133523235Y-90112467D01*
X133523234Y-90112466D01*
X133451546Y-89939395D01*
X133415000Y-89755667D01*
X133415000Y-89568333D01*
X133451546Y-89384605D01*
X133523234Y-89211534D01*
X133620477Y-89066000D01*
X133627310Y-89055773D01*
X133759773Y-88923310D01*
X133864470Y-88853354D01*
X133915534Y-88819234D01*
X134088605Y-88747546D01*
X134272333Y-88711000D01*
X134459667Y-88711000D01*
X134643395Y-88747546D01*
G37*
G36*
X127872499Y-88695445D02*
G01*
X127909995Y-88706820D01*
X127944554Y-88725292D01*
X127974847Y-88750153D01*
X127999708Y-88780446D01*
X128018180Y-88815005D01*
X128029555Y-88852501D01*
X128034000Y-88897638D01*
X128034000Y-89636362D01*
X128029555Y-89681499D01*
X128018180Y-89718995D01*
X127999708Y-89753554D01*
X127974847Y-89783847D01*
X127944554Y-89808708D01*
X127909995Y-89827180D01*
X127872499Y-89838555D01*
X127827362Y-89843000D01*
X127188638Y-89843000D01*
X127143501Y-89838555D01*
X127106005Y-89827180D01*
X127071446Y-89808708D01*
X127041153Y-89783847D01*
X127016292Y-89753554D01*
X126997820Y-89718995D01*
X126986445Y-89681499D01*
X126982000Y-89636362D01*
X126982000Y-88897638D01*
X126986445Y-88852501D01*
X126997820Y-88815005D01*
X127016292Y-88780446D01*
X127041153Y-88750153D01*
X127071446Y-88725292D01*
X127106005Y-88706820D01*
X127143501Y-88695445D01*
X127188638Y-88691000D01*
X127827362Y-88691000D01*
X127872499Y-88695445D01*
G37*
G36*
X132444499Y-88695445D02*
G01*
X132481995Y-88706820D01*
X132516554Y-88725292D01*
X132546847Y-88750153D01*
X132571708Y-88780446D01*
X132590180Y-88815005D01*
X132601555Y-88852501D01*
X132606000Y-88897638D01*
X132606000Y-89636362D01*
X132601555Y-89681499D01*
X132590180Y-89718995D01*
X132571708Y-89753554D01*
X132546847Y-89783847D01*
X132516554Y-89808708D01*
X132481995Y-89827180D01*
X132444499Y-89838555D01*
X132399362Y-89843000D01*
X131760638Y-89843000D01*
X131715501Y-89838555D01*
X131678005Y-89827180D01*
X131643446Y-89808708D01*
X131613153Y-89783847D01*
X131588292Y-89753554D01*
X131569820Y-89718995D01*
X131558445Y-89681499D01*
X131554000Y-89636362D01*
X131554000Y-88897638D01*
X131558445Y-88852501D01*
X131569820Y-88815005D01*
X131588292Y-88780446D01*
X131613153Y-88750153D01*
X131643446Y-88725292D01*
X131678005Y-88706820D01*
X131715501Y-88695445D01*
X131760638Y-88691000D01*
X132399362Y-88691000D01*
X132444499Y-88695445D01*
G37*
G36*
X137016499Y-88695445D02*
G01*
X137053995Y-88706820D01*
X137088554Y-88725292D01*
X137118847Y-88750153D01*
X137143708Y-88780446D01*
X137162180Y-88815005D01*
X137173555Y-88852501D01*
X137178000Y-88897638D01*
X137178000Y-89636362D01*
X137173555Y-89681499D01*
X137162180Y-89718995D01*
X137143708Y-89753554D01*
X137118847Y-89783847D01*
X137088554Y-89808708D01*
X137053995Y-89827180D01*
X137016499Y-89838555D01*
X136971362Y-89843000D01*
X136332638Y-89843000D01*
X136287501Y-89838555D01*
X136250005Y-89827180D01*
X136215446Y-89808708D01*
X136185153Y-89783847D01*
X136160292Y-89753554D01*
X136141820Y-89718995D01*
X136130445Y-89681499D01*
X136126000Y-89636362D01*
X136126000Y-88897638D01*
X136130445Y-88852501D01*
X136141820Y-88815005D01*
X136160292Y-88780446D01*
X136185153Y-88750153D01*
X136215446Y-88725292D01*
X136250005Y-88706820D01*
X136287501Y-88695445D01*
X136332638Y-88691000D01*
X136971362Y-88691000D01*
X137016499Y-88695445D01*
G37*
G36*
X123681499Y-87933445D02*
G01*
X123718995Y-87944820D01*
X123753554Y-87963292D01*
X123783847Y-87988153D01*
X123808708Y-88018446D01*
X123827180Y-88053005D01*
X123838555Y-88090501D01*
X123843000Y-88135638D01*
X123843000Y-88874362D01*
X123838555Y-88919499D01*
X123827180Y-88956995D01*
X123808708Y-88991554D01*
X123783847Y-89021847D01*
X123753554Y-89046708D01*
X123718995Y-89065180D01*
X123681499Y-89076555D01*
X123636362Y-89081000D01*
X122997638Y-89081000D01*
X122952501Y-89076555D01*
X122915005Y-89065180D01*
X122880446Y-89046708D01*
X122850153Y-89021847D01*
X122825292Y-88991554D01*
X122806820Y-88956995D01*
X122795445Y-88919499D01*
X122791000Y-88874362D01*
X122791000Y-88135638D01*
X122795445Y-88090501D01*
X122806820Y-88053005D01*
X122825292Y-88018446D01*
X122850153Y-87988153D01*
X122880446Y-87963292D01*
X122915005Y-87944820D01*
X122952501Y-87933445D01*
X122997638Y-87929000D01*
X123636362Y-87929000D01*
X123681499Y-87933445D01*
G37*
G36*
X114156499Y-87933445D02*
G01*
X114193995Y-87944820D01*
X114228554Y-87963292D01*
X114258847Y-87988153D01*
X114283708Y-88018446D01*
X114302180Y-88053005D01*
X114313555Y-88090501D01*
X114318000Y-88135638D01*
X114318000Y-88874362D01*
X114313555Y-88919499D01*
X114302180Y-88956995D01*
X114283708Y-88991554D01*
X114258847Y-89021847D01*
X114228554Y-89046708D01*
X114193995Y-89065180D01*
X114156499Y-89076555D01*
X114111362Y-89081000D01*
X113472638Y-89081000D01*
X113427501Y-89076555D01*
X113390005Y-89065180D01*
X113355446Y-89046708D01*
X113325153Y-89021847D01*
X113300292Y-88991554D01*
X113281820Y-88956995D01*
X113270445Y-88919499D01*
X113266000Y-88874362D01*
X113266000Y-88135638D01*
X113270445Y-88090501D01*
X113281820Y-88053005D01*
X113300292Y-88018446D01*
X113325153Y-87988153D01*
X113355446Y-87963292D01*
X113390005Y-87944820D01*
X113427501Y-87933445D01*
X113472638Y-87929000D01*
X114111362Y-87929000D01*
X114156499Y-87933445D01*
G37*
G36*
X116565642Y-87494781D02*
G01*
X116711414Y-87555162D01*
X116711416Y-87555163D01*
X116842608Y-87642822D01*
X116954178Y-87754392D01*
X117041837Y-87885584D01*
X117041838Y-87885586D01*
X117102219Y-88031358D01*
X117133000Y-88186107D01*
X117133000Y-88343893D01*
X117102219Y-88498642D01*
X117041838Y-88644414D01*
X117041837Y-88644416D01*
X116954178Y-88775608D01*
X116842608Y-88887178D01*
X116711416Y-88974837D01*
X116711415Y-88974838D01*
X116711414Y-88974838D01*
X116565642Y-89035219D01*
X116410893Y-89066000D01*
X116253107Y-89066000D01*
X116098358Y-89035219D01*
X115952586Y-88974838D01*
X115952585Y-88974838D01*
X115952584Y-88974837D01*
X115821392Y-88887178D01*
X115709822Y-88775608D01*
X115622163Y-88644416D01*
X115622162Y-88644414D01*
X115561781Y-88498642D01*
X115531000Y-88343893D01*
X115531000Y-88186107D01*
X115561781Y-88031358D01*
X115622162Y-87885586D01*
X115622163Y-87885584D01*
X115709822Y-87754392D01*
X115821392Y-87642822D01*
X115952584Y-87555163D01*
X115952586Y-87555162D01*
X116098358Y-87494781D01*
X116253107Y-87464000D01*
X116410893Y-87464000D01*
X116565642Y-87494781D01*
G37*
G36*
X121465642Y-87494781D02*
G01*
X121611414Y-87555162D01*
X121611416Y-87555163D01*
X121742608Y-87642822D01*
X121854178Y-87754392D01*
X121941837Y-87885584D01*
X121941838Y-87885586D01*
X122002219Y-88031358D01*
X122033000Y-88186107D01*
X122033000Y-88343893D01*
X122002219Y-88498642D01*
X121941838Y-88644414D01*
X121941837Y-88644416D01*
X121854178Y-88775608D01*
X121742608Y-88887178D01*
X121611416Y-88974837D01*
X121611415Y-88974838D01*
X121611414Y-88974838D01*
X121465642Y-89035219D01*
X121310893Y-89066000D01*
X121153107Y-89066000D01*
X120998358Y-89035219D01*
X120852586Y-88974838D01*
X120852585Y-88974838D01*
X120852584Y-88974837D01*
X120721392Y-88887178D01*
X120609822Y-88775608D01*
X120522163Y-88644416D01*
X120522162Y-88644414D01*
X120461781Y-88498642D01*
X120431000Y-88343893D01*
X120431000Y-88186107D01*
X120461781Y-88031358D01*
X120522162Y-87885586D01*
X120522163Y-87885584D01*
X120609822Y-87754392D01*
X120721392Y-87642822D01*
X120852584Y-87555163D01*
X120852586Y-87555162D01*
X120998358Y-87494781D01*
X121153107Y-87464000D01*
X121310893Y-87464000D01*
X121465642Y-87494781D01*
G37*
G36*
X111391000Y-88531000D02*
G01*
X109589000Y-88531000D01*
X109589000Y-86729000D01*
X111391000Y-86729000D01*
X111391000Y-88531000D01*
G37*
G36*
X106311000Y-88531000D02*
G01*
X104509000Y-88531000D01*
X104509000Y-86729000D01*
X106311000Y-86729000D01*
X106311000Y-88531000D01*
G37*
G36*
X127872499Y-86945445D02*
G01*
X127909995Y-86956820D01*
X127944554Y-86975292D01*
X127974847Y-87000153D01*
X127999708Y-87030446D01*
X128018180Y-87065005D01*
X128029555Y-87102501D01*
X128034000Y-87147638D01*
X128034000Y-87886362D01*
X128029555Y-87931499D01*
X128018180Y-87968995D01*
X127999708Y-88003554D01*
X127974847Y-88033847D01*
X127944554Y-88058708D01*
X127909995Y-88077180D01*
X127872499Y-88088555D01*
X127827362Y-88093000D01*
X127188638Y-88093000D01*
X127143501Y-88088555D01*
X127106005Y-88077180D01*
X127071446Y-88058708D01*
X127041153Y-88033847D01*
X127016292Y-88003554D01*
X126997820Y-87968995D01*
X126986445Y-87931499D01*
X126982000Y-87886362D01*
X126982000Y-87147638D01*
X126986445Y-87102501D01*
X126997820Y-87065005D01*
X127016292Y-87030446D01*
X127041153Y-87000153D01*
X127071446Y-86975292D01*
X127106005Y-86956820D01*
X127143501Y-86945445D01*
X127188638Y-86941000D01*
X127827362Y-86941000D01*
X127872499Y-86945445D01*
G37*
G36*
X132444499Y-86945445D02*
G01*
X132481995Y-86956820D01*
X132516554Y-86975292D01*
X132546847Y-87000153D01*
X132571708Y-87030446D01*
X132590180Y-87065005D01*
X132601555Y-87102501D01*
X132606000Y-87147638D01*
X132606000Y-87886362D01*
X132601555Y-87931499D01*
X132590180Y-87968995D01*
X132571708Y-88003554D01*
X132546847Y-88033847D01*
X132516554Y-88058708D01*
X132481995Y-88077180D01*
X132444499Y-88088555D01*
X132399362Y-88093000D01*
X131760638Y-88093000D01*
X131715501Y-88088555D01*
X131678005Y-88077180D01*
X131643446Y-88058708D01*
X131613153Y-88033847D01*
X131588292Y-88003554D01*
X131569820Y-87968995D01*
X131558445Y-87931499D01*
X131554000Y-87886362D01*
X131554000Y-87147638D01*
X131558445Y-87102501D01*
X131569820Y-87065005D01*
X131588292Y-87030446D01*
X131613153Y-87000153D01*
X131643446Y-86975292D01*
X131678005Y-86956820D01*
X131715501Y-86945445D01*
X131760638Y-86941000D01*
X132399362Y-86941000D01*
X132444499Y-86945445D01*
G37*
G36*
X137016499Y-86945445D02*
G01*
X137053995Y-86956820D01*
X137088554Y-86975292D01*
X137118847Y-87000153D01*
X137143708Y-87030446D01*
X137162180Y-87065005D01*
X137173555Y-87102501D01*
X137178000Y-87147638D01*
X137178000Y-87886362D01*
X137173555Y-87931499D01*
X137162180Y-87968995D01*
X137143708Y-88003554D01*
X137118847Y-88033847D01*
X137088554Y-88058708D01*
X137053995Y-88077180D01*
X137016499Y-88088555D01*
X136971362Y-88093000D01*
X136332638Y-88093000D01*
X136287501Y-88088555D01*
X136250005Y-88077180D01*
X136215446Y-88058708D01*
X136185153Y-88033847D01*
X136160292Y-88003554D01*
X136141820Y-87968995D01*
X136130445Y-87931499D01*
X136126000Y-87886362D01*
X136126000Y-87147638D01*
X136130445Y-87102501D01*
X136141820Y-87065005D01*
X136160292Y-87030446D01*
X136185153Y-87000153D01*
X136215446Y-86975292D01*
X136250005Y-86956820D01*
X136287501Y-86945445D01*
X136332638Y-86941000D01*
X136971362Y-86941000D01*
X137016499Y-86945445D01*
G37*
G36*
X139889000Y-88073000D02*
G01*
X137987000Y-88073000D01*
X137987000Y-86171000D01*
X139889000Y-86171000D01*
X139889000Y-88073000D01*
G37*
G36*
X130745000Y-88073000D02*
G01*
X128843000Y-88073000D01*
X128843000Y-86171000D01*
X130745000Y-86171000D01*
X130745000Y-88073000D01*
G37*
G36*
X135317000Y-88073000D02*
G01*
X133415000Y-88073000D01*
X133415000Y-86171000D01*
X135317000Y-86171000D01*
X135317000Y-88073000D01*
G37*
G36*
X94994393Y-85363304D02*
G01*
X95231101Y-85461352D01*
X95231103Y-85461353D01*
X95444135Y-85603696D01*
X95625304Y-85784865D01*
X95767647Y-85997897D01*
X95767648Y-85997899D01*
X95865696Y-86234607D01*
X95915680Y-86485893D01*
X95915680Y-86742107D01*
X95865696Y-86993393D01*
X95767648Y-87230101D01*
X95767647Y-87230103D01*
X95625304Y-87443135D01*
X95444135Y-87624304D01*
X95231103Y-87766647D01*
X95231102Y-87766648D01*
X95231101Y-87766648D01*
X94994393Y-87864696D01*
X94743107Y-87914680D01*
X94486893Y-87914680D01*
X94235607Y-87864696D01*
X93998899Y-87766648D01*
X93998898Y-87766648D01*
X93998897Y-87766647D01*
X93785865Y-87624304D01*
X93604696Y-87443135D01*
X93462353Y-87230103D01*
X93462352Y-87230101D01*
X93364304Y-86993393D01*
X93314320Y-86742107D01*
X93314320Y-86485893D01*
X93364304Y-86234607D01*
X93462352Y-85997899D01*
X93462353Y-85997897D01*
X93604696Y-85784865D01*
X93785865Y-85603696D01*
X93998897Y-85461353D01*
X93998899Y-85461352D01*
X94235607Y-85363304D01*
X94486893Y-85313320D01*
X94743107Y-85313320D01*
X94994393Y-85363304D01*
G37*
G36*
X92105680Y-87914680D02*
G01*
X89504320Y-87914680D01*
X89504320Y-85313320D01*
X92105680Y-85313320D01*
X92105680Y-87914680D01*
G37*
G36*
X99681512Y-85717927D02*
G01*
X99830812Y-85747624D01*
X99994784Y-85815544D01*
X100142354Y-85914147D01*
X100267853Y-86039646D01*
X100366456Y-86187216D01*
X100434376Y-86351188D01*
X100469000Y-86525259D01*
X100469000Y-86702741D01*
X100434376Y-86876812D01*
X100366456Y-87040784D01*
X100267853Y-87188354D01*
X100142354Y-87313853D01*
X99994784Y-87412456D01*
X99830812Y-87480376D01*
X99681512Y-87510073D01*
X99656742Y-87515000D01*
X99479258Y-87515000D01*
X99454488Y-87510073D01*
X99305188Y-87480376D01*
X99141216Y-87412456D01*
X98993646Y-87313853D01*
X98868147Y-87188354D01*
X98769544Y-87040784D01*
X98701624Y-86876812D01*
X98667000Y-86702741D01*
X98667000Y-86525259D01*
X98701624Y-86351188D01*
X98769544Y-86187216D01*
X98868147Y-86039646D01*
X98993646Y-85914147D01*
X99141216Y-85815544D01*
X99305188Y-85747624D01*
X99454488Y-85717927D01*
X99479258Y-85713000D01*
X99656742Y-85713000D01*
X99681512Y-85717927D01*
G37*
G36*
X114156499Y-86183445D02*
G01*
X114193995Y-86194820D01*
X114228554Y-86213292D01*
X114258847Y-86238153D01*
X114283708Y-86268446D01*
X114302180Y-86303005D01*
X114313555Y-86340501D01*
X114318000Y-86385638D01*
X114318000Y-87124362D01*
X114313555Y-87169499D01*
X114302180Y-87206995D01*
X114283708Y-87241554D01*
X114258847Y-87271847D01*
X114228554Y-87296708D01*
X114193995Y-87315180D01*
X114156499Y-87326555D01*
X114111362Y-87331000D01*
X113472638Y-87331000D01*
X113427501Y-87326555D01*
X113390005Y-87315180D01*
X113355446Y-87296708D01*
X113325153Y-87271847D01*
X113300292Y-87241554D01*
X113281820Y-87206995D01*
X113270445Y-87169499D01*
X113266000Y-87124362D01*
X113266000Y-86385638D01*
X113270445Y-86340501D01*
X113281820Y-86303005D01*
X113300292Y-86268446D01*
X113325153Y-86238153D01*
X113355446Y-86213292D01*
X113390005Y-86194820D01*
X113427501Y-86183445D01*
X113472638Y-86179000D01*
X114111362Y-86179000D01*
X114156499Y-86183445D01*
G37*
G36*
X123681499Y-86183445D02*
G01*
X123718995Y-86194820D01*
X123753554Y-86213292D01*
X123783847Y-86238153D01*
X123808708Y-86268446D01*
X123827180Y-86303005D01*
X123838555Y-86340501D01*
X123843000Y-86385638D01*
X123843000Y-87124362D01*
X123838555Y-87169499D01*
X123827180Y-87206995D01*
X123808708Y-87241554D01*
X123783847Y-87271847D01*
X123753554Y-87296708D01*
X123718995Y-87315180D01*
X123681499Y-87326555D01*
X123636362Y-87331000D01*
X122997638Y-87331000D01*
X122952501Y-87326555D01*
X122915005Y-87315180D01*
X122880446Y-87296708D01*
X122850153Y-87271847D01*
X122825292Y-87241554D01*
X122806820Y-87206995D01*
X122795445Y-87169499D01*
X122791000Y-87124362D01*
X122791000Y-86385638D01*
X122795445Y-86340501D01*
X122806820Y-86303005D01*
X122825292Y-86268446D01*
X122850153Y-86238153D01*
X122880446Y-86213292D01*
X122915005Y-86194820D01*
X122952501Y-86183445D01*
X122997638Y-86179000D01*
X123636362Y-86179000D01*
X123681499Y-86183445D01*
G37*
G36*
X129153228Y-83001703D02*
G01*
X129308100Y-83065853D01*
X129447481Y-83158985D01*
X129566015Y-83277519D01*
X129659147Y-83416900D01*
X129723297Y-83571772D01*
X129756000Y-83736184D01*
X129756000Y-83903816D01*
X129723297Y-84068228D01*
X129659147Y-84223100D01*
X129566015Y-84362481D01*
X129447481Y-84481015D01*
X129308100Y-84574147D01*
X129153228Y-84638297D01*
X128988816Y-84671000D01*
X128821184Y-84671000D01*
X128656772Y-84638297D01*
X128501900Y-84574147D01*
X128362519Y-84481015D01*
X128243985Y-84362481D01*
X128150853Y-84223100D01*
X128086703Y-84068228D01*
X128054000Y-83903816D01*
X128054000Y-83736184D01*
X128086703Y-83571772D01*
X128150853Y-83416900D01*
X128243985Y-83277519D01*
X128362519Y-83158985D01*
X128501900Y-83065853D01*
X128656772Y-83001703D01*
X128821184Y-82969000D01*
X128988816Y-82969000D01*
X129153228Y-83001703D01*
G37*
G36*
X106293228Y-83001703D02*
G01*
X106448100Y-83065853D01*
X106587481Y-83158985D01*
X106706015Y-83277519D01*
X106799147Y-83416900D01*
X106863297Y-83571772D01*
X106896000Y-83736184D01*
X106896000Y-83903816D01*
X106863297Y-84068228D01*
X106799147Y-84223100D01*
X106706015Y-84362481D01*
X106587481Y-84481015D01*
X106448100Y-84574147D01*
X106293228Y-84638297D01*
X106128816Y-84671000D01*
X105961184Y-84671000D01*
X105796772Y-84638297D01*
X105641900Y-84574147D01*
X105502519Y-84481015D01*
X105383985Y-84362481D01*
X105290853Y-84223100D01*
X105226703Y-84068228D01*
X105194000Y-83903816D01*
X105194000Y-83736184D01*
X105226703Y-83571772D01*
X105290853Y-83416900D01*
X105383985Y-83277519D01*
X105502519Y-83158985D01*
X105641900Y-83065853D01*
X105796772Y-83001703D01*
X105961184Y-82969000D01*
X106128816Y-82969000D01*
X106293228Y-83001703D01*
G37*
G36*
X108833228Y-83001703D02*
G01*
X108988100Y-83065853D01*
X109127481Y-83158985D01*
X109246015Y-83277519D01*
X109339147Y-83416900D01*
X109403297Y-83571772D01*
X109436000Y-83736184D01*
X109436000Y-83903816D01*
X109403297Y-84068228D01*
X109339147Y-84223100D01*
X109246015Y-84362481D01*
X109127481Y-84481015D01*
X108988100Y-84574147D01*
X108833228Y-84638297D01*
X108668816Y-84671000D01*
X108501184Y-84671000D01*
X108336772Y-84638297D01*
X108181900Y-84574147D01*
X108042519Y-84481015D01*
X107923985Y-84362481D01*
X107830853Y-84223100D01*
X107766703Y-84068228D01*
X107734000Y-83903816D01*
X107734000Y-83736184D01*
X107766703Y-83571772D01*
X107830853Y-83416900D01*
X107923985Y-83277519D01*
X108042519Y-83158985D01*
X108181900Y-83065853D01*
X108336772Y-83001703D01*
X108501184Y-82969000D01*
X108668816Y-82969000D01*
X108833228Y-83001703D01*
G37*
G36*
X111373228Y-83001703D02*
G01*
X111528100Y-83065853D01*
X111667481Y-83158985D01*
X111786015Y-83277519D01*
X111879147Y-83416900D01*
X111943297Y-83571772D01*
X111976000Y-83736184D01*
X111976000Y-83903816D01*
X111943297Y-84068228D01*
X111879147Y-84223100D01*
X111786015Y-84362481D01*
X111667481Y-84481015D01*
X111528100Y-84574147D01*
X111373228Y-84638297D01*
X111208816Y-84671000D01*
X111041184Y-84671000D01*
X110876772Y-84638297D01*
X110721900Y-84574147D01*
X110582519Y-84481015D01*
X110463985Y-84362481D01*
X110370853Y-84223100D01*
X110306703Y-84068228D01*
X110274000Y-83903816D01*
X110274000Y-83736184D01*
X110306703Y-83571772D01*
X110370853Y-83416900D01*
X110463985Y-83277519D01*
X110582519Y-83158985D01*
X110721900Y-83065853D01*
X110876772Y-83001703D01*
X111041184Y-82969000D01*
X111208816Y-82969000D01*
X111373228Y-83001703D01*
G37*
G36*
X113913228Y-83001703D02*
G01*
X114068100Y-83065853D01*
X114207481Y-83158985D01*
X114326015Y-83277519D01*
X114419147Y-83416900D01*
X114483297Y-83571772D01*
X114516000Y-83736184D01*
X114516000Y-83903816D01*
X114483297Y-84068228D01*
X114419147Y-84223100D01*
X114326015Y-84362481D01*
X114207481Y-84481015D01*
X114068100Y-84574147D01*
X113913228Y-84638297D01*
X113748816Y-84671000D01*
X113581184Y-84671000D01*
X113416772Y-84638297D01*
X113261900Y-84574147D01*
X113122519Y-84481015D01*
X113003985Y-84362481D01*
X112910853Y-84223100D01*
X112846703Y-84068228D01*
X112814000Y-83903816D01*
X112814000Y-83736184D01*
X112846703Y-83571772D01*
X112910853Y-83416900D01*
X113003985Y-83277519D01*
X113122519Y-83158985D01*
X113261900Y-83065853D01*
X113416772Y-83001703D01*
X113581184Y-82969000D01*
X113748816Y-82969000D01*
X113913228Y-83001703D01*
G37*
G36*
X116453228Y-83001703D02*
G01*
X116608100Y-83065853D01*
X116747481Y-83158985D01*
X116866015Y-83277519D01*
X116959147Y-83416900D01*
X117023297Y-83571772D01*
X117056000Y-83736184D01*
X117056000Y-83903816D01*
X117023297Y-84068228D01*
X116959147Y-84223100D01*
X116866015Y-84362481D01*
X116747481Y-84481015D01*
X116608100Y-84574147D01*
X116453228Y-84638297D01*
X116288816Y-84671000D01*
X116121184Y-84671000D01*
X115956772Y-84638297D01*
X115801900Y-84574147D01*
X115662519Y-84481015D01*
X115543985Y-84362481D01*
X115450853Y-84223100D01*
X115386703Y-84068228D01*
X115354000Y-83903816D01*
X115354000Y-83736184D01*
X115386703Y-83571772D01*
X115450853Y-83416900D01*
X115543985Y-83277519D01*
X115662519Y-83158985D01*
X115801900Y-83065853D01*
X115956772Y-83001703D01*
X116121184Y-82969000D01*
X116288816Y-82969000D01*
X116453228Y-83001703D01*
G37*
G36*
X118993228Y-83001703D02*
G01*
X119148100Y-83065853D01*
X119287481Y-83158985D01*
X119406015Y-83277519D01*
X119499147Y-83416900D01*
X119563297Y-83571772D01*
X119596000Y-83736184D01*
X119596000Y-83903816D01*
X119563297Y-84068228D01*
X119499147Y-84223100D01*
X119406015Y-84362481D01*
X119287481Y-84481015D01*
X119148100Y-84574147D01*
X118993228Y-84638297D01*
X118828816Y-84671000D01*
X118661184Y-84671000D01*
X118496772Y-84638297D01*
X118341900Y-84574147D01*
X118202519Y-84481015D01*
X118083985Y-84362481D01*
X117990853Y-84223100D01*
X117926703Y-84068228D01*
X117894000Y-83903816D01*
X117894000Y-83736184D01*
X117926703Y-83571772D01*
X117990853Y-83416900D01*
X118083985Y-83277519D01*
X118202519Y-83158985D01*
X118341900Y-83065853D01*
X118496772Y-83001703D01*
X118661184Y-82969000D01*
X118828816Y-82969000D01*
X118993228Y-83001703D01*
G37*
G36*
X126613228Y-83001703D02*
G01*
X126768100Y-83065853D01*
X126907481Y-83158985D01*
X127026015Y-83277519D01*
X127119147Y-83416900D01*
X127183297Y-83571772D01*
X127216000Y-83736184D01*
X127216000Y-83903816D01*
X127183297Y-84068228D01*
X127119147Y-84223100D01*
X127026015Y-84362481D01*
X126907481Y-84481015D01*
X126768100Y-84574147D01*
X126613228Y-84638297D01*
X126448816Y-84671000D01*
X126281184Y-84671000D01*
X126116772Y-84638297D01*
X125961900Y-84574147D01*
X125822519Y-84481015D01*
X125703985Y-84362481D01*
X125610853Y-84223100D01*
X125546703Y-84068228D01*
X125514000Y-83903816D01*
X125514000Y-83736184D01*
X125546703Y-83571772D01*
X125610853Y-83416900D01*
X125703985Y-83277519D01*
X125822519Y-83158985D01*
X125961900Y-83065853D01*
X126116772Y-83001703D01*
X126281184Y-82969000D01*
X126448816Y-82969000D01*
X126613228Y-83001703D01*
G37*
G36*
X124073228Y-83001703D02*
G01*
X124228100Y-83065853D01*
X124367481Y-83158985D01*
X124486015Y-83277519D01*
X124579147Y-83416900D01*
X124643297Y-83571772D01*
X124676000Y-83736184D01*
X124676000Y-83903816D01*
X124643297Y-84068228D01*
X124579147Y-84223100D01*
X124486015Y-84362481D01*
X124367481Y-84481015D01*
X124228100Y-84574147D01*
X124073228Y-84638297D01*
X123908816Y-84671000D01*
X123741184Y-84671000D01*
X123576772Y-84638297D01*
X123421900Y-84574147D01*
X123282519Y-84481015D01*
X123163985Y-84362481D01*
X123070853Y-84223100D01*
X123006703Y-84068228D01*
X122974000Y-83903816D01*
X122974000Y-83736184D01*
X123006703Y-83571772D01*
X123070853Y-83416900D01*
X123163985Y-83277519D01*
X123282519Y-83158985D01*
X123421900Y-83065853D01*
X123576772Y-83001703D01*
X123741184Y-82969000D01*
X123908816Y-82969000D01*
X124073228Y-83001703D01*
G37*
G36*
X131693228Y-83001703D02*
G01*
X131848100Y-83065853D01*
X131987481Y-83158985D01*
X132106015Y-83277519D01*
X132199147Y-83416900D01*
X132263297Y-83571772D01*
X132296000Y-83736184D01*
X132296000Y-83903816D01*
X132263297Y-84068228D01*
X132199147Y-84223100D01*
X132106015Y-84362481D01*
X131987481Y-84481015D01*
X131848100Y-84574147D01*
X131693228Y-84638297D01*
X131528816Y-84671000D01*
X131361184Y-84671000D01*
X131196772Y-84638297D01*
X131041900Y-84574147D01*
X130902519Y-84481015D01*
X130783985Y-84362481D01*
X130690853Y-84223100D01*
X130626703Y-84068228D01*
X130594000Y-83903816D01*
X130594000Y-83736184D01*
X130626703Y-83571772D01*
X130690853Y-83416900D01*
X130783985Y-83277519D01*
X130902519Y-83158985D01*
X131041900Y-83065853D01*
X131196772Y-83001703D01*
X131361184Y-82969000D01*
X131528816Y-82969000D01*
X131693228Y-83001703D01*
G37*
G36*
X103753228Y-83001703D02*
G01*
X103908100Y-83065853D01*
X104047481Y-83158985D01*
X104166015Y-83277519D01*
X104259147Y-83416900D01*
X104323297Y-83571772D01*
X104356000Y-83736184D01*
X104356000Y-83903816D01*
X104323297Y-84068228D01*
X104259147Y-84223100D01*
X104166015Y-84362481D01*
X104047481Y-84481015D01*
X103908100Y-84574147D01*
X103753228Y-84638297D01*
X103588816Y-84671000D01*
X103421184Y-84671000D01*
X103256772Y-84638297D01*
X103101900Y-84574147D01*
X102962519Y-84481015D01*
X102843985Y-84362481D01*
X102750853Y-84223100D01*
X102686703Y-84068228D01*
X102654000Y-83903816D01*
X102654000Y-83736184D01*
X102686703Y-83571772D01*
X102750853Y-83416900D01*
X102843985Y-83277519D01*
X102962519Y-83158985D01*
X103101900Y-83065853D01*
X103256772Y-83001703D01*
X103421184Y-82969000D01*
X103588816Y-82969000D01*
X103753228Y-83001703D01*
G37*
G36*
X101213228Y-83001703D02*
G01*
X101368100Y-83065853D01*
X101507481Y-83158985D01*
X101626015Y-83277519D01*
X101719147Y-83416900D01*
X101783297Y-83571772D01*
X101816000Y-83736184D01*
X101816000Y-83903816D01*
X101783297Y-84068228D01*
X101719147Y-84223100D01*
X101626015Y-84362481D01*
X101507481Y-84481015D01*
X101368100Y-84574147D01*
X101213228Y-84638297D01*
X101048816Y-84671000D01*
X100881184Y-84671000D01*
X100716772Y-84638297D01*
X100561900Y-84574147D01*
X100422519Y-84481015D01*
X100303985Y-84362481D01*
X100210853Y-84223100D01*
X100146703Y-84068228D01*
X100114000Y-83903816D01*
X100114000Y-83736184D01*
X100146703Y-83571772D01*
X100210853Y-83416900D01*
X100303985Y-83277519D01*
X100422519Y-83158985D01*
X100561900Y-83065853D01*
X100716772Y-83001703D01*
X100881184Y-82969000D01*
X101048816Y-82969000D01*
X101213228Y-83001703D01*
G37*
G36*
X99276000Y-84671000D02*
G01*
X97574000Y-84671000D01*
X97574000Y-82969000D01*
X99276000Y-82969000D01*
X99276000Y-84671000D01*
G37*
G36*
X121533228Y-83001703D02*
G01*
X121688100Y-83065853D01*
X121827481Y-83158985D01*
X121946015Y-83277519D01*
X122039147Y-83416900D01*
X122103297Y-83571772D01*
X122136000Y-83736184D01*
X122136000Y-83903816D01*
X122103297Y-84068228D01*
X122039147Y-84223100D01*
X121946015Y-84362481D01*
X121827481Y-84481015D01*
X121688100Y-84574147D01*
X121533228Y-84638297D01*
X121368816Y-84671000D01*
X121201184Y-84671000D01*
X121036772Y-84638297D01*
X120881900Y-84574147D01*
X120742519Y-84481015D01*
X120623985Y-84362481D01*
X120530853Y-84223100D01*
X120466703Y-84068228D01*
X120434000Y-83903816D01*
X120434000Y-83736184D01*
X120466703Y-83571772D01*
X120530853Y-83416900D01*
X120623985Y-83277519D01*
X120742519Y-83158985D01*
X120881900Y-83065853D01*
X121036772Y-83001703D01*
X121201184Y-82969000D01*
X121368816Y-82969000D01*
X121533228Y-83001703D01*
G37*
G36*
X84519487Y-80722996D02*
G01*
X84756253Y-80821068D01*
X84756255Y-80821069D01*
X84969339Y-80963447D01*
X85150553Y-81144661D01*
X85284992Y-81345863D01*
X85292932Y-81357747D01*
X85391004Y-81594513D01*
X85441000Y-81845861D01*
X85441000Y-82102139D01*
X85391004Y-82353487D01*
X85292932Y-82590253D01*
X85292931Y-82590255D01*
X85150553Y-82803339D01*
X84969339Y-82984553D01*
X84756255Y-83126931D01*
X84756254Y-83126932D01*
X84756253Y-83126932D01*
X84519487Y-83225004D01*
X84268139Y-83275000D01*
X84011861Y-83275000D01*
X83760513Y-83225004D01*
X83523747Y-83126932D01*
X83523746Y-83126932D01*
X83523745Y-83126931D01*
X83310661Y-82984553D01*
X83129447Y-82803339D01*
X82987069Y-82590255D01*
X82987068Y-82590253D01*
X82888996Y-82353487D01*
X82839000Y-82102139D01*
X82839000Y-81845861D01*
X82888996Y-81594513D01*
X82987068Y-81357747D01*
X82995009Y-81345863D01*
X83129447Y-81144661D01*
X83310661Y-80963447D01*
X83523745Y-80821069D01*
X83523747Y-80821068D01*
X83760513Y-80722996D01*
X84011861Y-80673000D01*
X84268139Y-80673000D01*
X84519487Y-80722996D01*
G37*
G36*
X92019487Y-80222996D02*
G01*
X92256253Y-80321068D01*
X92256255Y-80321069D01*
X92469339Y-80463447D01*
X92650553Y-80644661D01*
X92783377Y-80843446D01*
X92792932Y-80857747D01*
X92891004Y-81094513D01*
X92941000Y-81345861D01*
X92941000Y-81602139D01*
X92891004Y-81853487D01*
X92832356Y-81995075D01*
X92792931Y-82090255D01*
X92650553Y-82303339D01*
X92469339Y-82484553D01*
X92256255Y-82626931D01*
X92256254Y-82626932D01*
X92256253Y-82626932D01*
X92019487Y-82725004D01*
X91768139Y-82775000D01*
X91511861Y-82775000D01*
X91260513Y-82725004D01*
X91023747Y-82626932D01*
X91023746Y-82626932D01*
X91023745Y-82626931D01*
X90810661Y-82484553D01*
X90629447Y-82303339D01*
X90487069Y-82090255D01*
X90447644Y-81995075D01*
X90388996Y-81853487D01*
X90339000Y-81602139D01*
X90339000Y-81345861D01*
X90388996Y-81094513D01*
X90487068Y-80857747D01*
X90496624Y-80843446D01*
X90629447Y-80644661D01*
X90810661Y-80463447D01*
X91023745Y-80321069D01*
X91023747Y-80321068D01*
X91260513Y-80222996D01*
X91511861Y-80173000D01*
X91768139Y-80173000D01*
X92019487Y-80222996D01*
G37*
G36*
X139937142Y-81133242D02*
G01*
X140085101Y-81194529D01*
X140218255Y-81283499D01*
X140331501Y-81396745D01*
X140420471Y-81529899D01*
X140481758Y-81677858D01*
X140513000Y-81834925D01*
X140513000Y-81995075D01*
X140481758Y-82152142D01*
X140420471Y-82300101D01*
X140331501Y-82433255D01*
X140218255Y-82546501D01*
X140085101Y-82635471D01*
X139937142Y-82696758D01*
X139780075Y-82728000D01*
X139619925Y-82728000D01*
X139462858Y-82696758D01*
X139314899Y-82635471D01*
X139181745Y-82546501D01*
X139068499Y-82433255D01*
X138979529Y-82300101D01*
X138918242Y-82152142D01*
X138887000Y-81995075D01*
X138887000Y-81834925D01*
X138918242Y-81677858D01*
X138979529Y-81529899D01*
X139068499Y-81396745D01*
X139181745Y-81283499D01*
X139314899Y-81194529D01*
X139462858Y-81133242D01*
X139619925Y-81102000D01*
X139780075Y-81102000D01*
X139937142Y-81133242D01*
G37*
G36*
X137397142Y-81133242D02*
G01*
X137545101Y-81194529D01*
X137678255Y-81283499D01*
X137791501Y-81396745D01*
X137880471Y-81529899D01*
X137941758Y-81677858D01*
X137973000Y-81834925D01*
X137973000Y-81995075D01*
X137941758Y-82152142D01*
X137880471Y-82300101D01*
X137791501Y-82433255D01*
X137678255Y-82546501D01*
X137545101Y-82635471D01*
X137397142Y-82696758D01*
X137240075Y-82728000D01*
X137079925Y-82728000D01*
X136922858Y-82696758D01*
X136774899Y-82635471D01*
X136641745Y-82546501D01*
X136528499Y-82433255D01*
X136439529Y-82300101D01*
X136378242Y-82152142D01*
X136347000Y-81995075D01*
X136347000Y-81834925D01*
X136378242Y-81677858D01*
X136439529Y-81529899D01*
X136528499Y-81396745D01*
X136641745Y-81283499D01*
X136774899Y-81194529D01*
X136922858Y-81133242D01*
X137079925Y-81102000D01*
X137240075Y-81102000D01*
X137397142Y-81133242D01*
G37*
G36*
X114206499Y-80758445D02*
G01*
X114243995Y-80769820D01*
X114278554Y-80788292D01*
X114308847Y-80813153D01*
X114333708Y-80843446D01*
X114352180Y-80878005D01*
X114363555Y-80915501D01*
X114368000Y-80960638D01*
X114368000Y-81599362D01*
X114363555Y-81644499D01*
X114352180Y-81681995D01*
X114333708Y-81716554D01*
X114308847Y-81746847D01*
X114278554Y-81771708D01*
X114243995Y-81790180D01*
X114206499Y-81801555D01*
X114161362Y-81806000D01*
X113422638Y-81806000D01*
X113377501Y-81801555D01*
X113340005Y-81790180D01*
X113305446Y-81771708D01*
X113275153Y-81746847D01*
X113250292Y-81716554D01*
X113231820Y-81681995D01*
X113220445Y-81644499D01*
X113216000Y-81599362D01*
X113216000Y-80960638D01*
X113220445Y-80915501D01*
X113231820Y-80878005D01*
X113250292Y-80843446D01*
X113275153Y-80813153D01*
X113305446Y-80788292D01*
X113340005Y-80769820D01*
X113377501Y-80758445D01*
X113422638Y-80754000D01*
X114161362Y-80754000D01*
X114206499Y-80758445D01*
G37*
G36*
X115956499Y-80758445D02*
G01*
X115993995Y-80769820D01*
X116028554Y-80788292D01*
X116058847Y-80813153D01*
X116083708Y-80843446D01*
X116102180Y-80878005D01*
X116113555Y-80915501D01*
X116118000Y-80960638D01*
X116118000Y-81599362D01*
X116113555Y-81644499D01*
X116102180Y-81681995D01*
X116083708Y-81716554D01*
X116058847Y-81746847D01*
X116028554Y-81771708D01*
X115993995Y-81790180D01*
X115956499Y-81801555D01*
X115911362Y-81806000D01*
X115172638Y-81806000D01*
X115127501Y-81801555D01*
X115090005Y-81790180D01*
X115055446Y-81771708D01*
X115025153Y-81746847D01*
X115000292Y-81716554D01*
X114981820Y-81681995D01*
X114970445Y-81644499D01*
X114966000Y-81599362D01*
X114966000Y-80960638D01*
X114970445Y-80915501D01*
X114981820Y-80878005D01*
X115000292Y-80843446D01*
X115025153Y-80813153D01*
X115055446Y-80788292D01*
X115090005Y-80769820D01*
X115127501Y-80758445D01*
X115172638Y-80754000D01*
X115911362Y-80754000D01*
X115956499Y-80758445D01*
G37*
G36*
X101139499Y-80123445D02*
G01*
X101176995Y-80134820D01*
X101211554Y-80153292D01*
X101241847Y-80178153D01*
X101266708Y-80208446D01*
X101285180Y-80243005D01*
X101296555Y-80280501D01*
X101301000Y-80325638D01*
X101301000Y-80964362D01*
X101296555Y-81009499D01*
X101285180Y-81046995D01*
X101266708Y-81081554D01*
X101241847Y-81111847D01*
X101211554Y-81136708D01*
X101176995Y-81155180D01*
X101139499Y-81166555D01*
X101094362Y-81171000D01*
X100355638Y-81171000D01*
X100310501Y-81166555D01*
X100273005Y-81155180D01*
X100238446Y-81136708D01*
X100208153Y-81111847D01*
X100183292Y-81081554D01*
X100164820Y-81046995D01*
X100153445Y-81009499D01*
X100149000Y-80964362D01*
X100149000Y-80325638D01*
X100153445Y-80280501D01*
X100164820Y-80243005D01*
X100183292Y-80208446D01*
X100208153Y-80178153D01*
X100238446Y-80153292D01*
X100273005Y-80134820D01*
X100310501Y-80123445D01*
X100355638Y-80119000D01*
X101094362Y-80119000D01*
X101139499Y-80123445D01*
G37*
G36*
X102889499Y-80123445D02*
G01*
X102926995Y-80134820D01*
X102961554Y-80153292D01*
X102991847Y-80178153D01*
X103016708Y-80208446D01*
X103035180Y-80243005D01*
X103046555Y-80280501D01*
X103051000Y-80325638D01*
X103051000Y-80964362D01*
X103046555Y-81009499D01*
X103035180Y-81046995D01*
X103016708Y-81081554D01*
X102991847Y-81111847D01*
X102961554Y-81136708D01*
X102926995Y-81155180D01*
X102889499Y-81166555D01*
X102844362Y-81171000D01*
X102105638Y-81171000D01*
X102060501Y-81166555D01*
X102023005Y-81155180D01*
X101988446Y-81136708D01*
X101958153Y-81111847D01*
X101933292Y-81081554D01*
X101914820Y-81046995D01*
X101903445Y-81009499D01*
X101899000Y-80964362D01*
X101899000Y-80325638D01*
X101903445Y-80280501D01*
X101914820Y-80243005D01*
X101933292Y-80208446D01*
X101958153Y-80178153D01*
X101988446Y-80153292D01*
X102023005Y-80134820D01*
X102060501Y-80123445D01*
X102105638Y-80119000D01*
X102844362Y-80119000D01*
X102889499Y-80123445D01*
G37*
G36*
X139937142Y-78593242D02*
G01*
X140085101Y-78654529D01*
X140218255Y-78743499D01*
X140331501Y-78856745D01*
X140420471Y-78989899D01*
X140481758Y-79137858D01*
X140513000Y-79294925D01*
X140513000Y-79455075D01*
X140481758Y-79612142D01*
X140420471Y-79760101D01*
X140331501Y-79893255D01*
X140218255Y-80006501D01*
X140085101Y-80095471D01*
X139937142Y-80156758D01*
X139780075Y-80188000D01*
X139619925Y-80188000D01*
X139462858Y-80156758D01*
X139314899Y-80095471D01*
X139181745Y-80006501D01*
X139068499Y-79893255D01*
X138979529Y-79760101D01*
X138918242Y-79612142D01*
X138887000Y-79455075D01*
X138887000Y-79294925D01*
X138918242Y-79137858D01*
X138979529Y-78989899D01*
X139068499Y-78856745D01*
X139181745Y-78743499D01*
X139314899Y-78654529D01*
X139462858Y-78593242D01*
X139619925Y-78562000D01*
X139780075Y-78562000D01*
X139937142Y-78593242D01*
G37*
G36*
X137397142Y-78593242D02*
G01*
X137545101Y-78654529D01*
X137678255Y-78743499D01*
X137791501Y-78856745D01*
X137880471Y-78989899D01*
X137941758Y-79137858D01*
X137973000Y-79294925D01*
X137973000Y-79455075D01*
X137941758Y-79612142D01*
X137880471Y-79760101D01*
X137791501Y-79893255D01*
X137678255Y-80006501D01*
X137545101Y-80095471D01*
X137397142Y-80156758D01*
X137240075Y-80188000D01*
X137079925Y-80188000D01*
X136922858Y-80156758D01*
X136774899Y-80095471D01*
X136641745Y-80006501D01*
X136528499Y-79893255D01*
X136439529Y-79760101D01*
X136378242Y-79612142D01*
X136347000Y-79455075D01*
X136347000Y-79294925D01*
X136378242Y-79137858D01*
X136439529Y-78989899D01*
X136528499Y-78856745D01*
X136641745Y-78743499D01*
X136774899Y-78654529D01*
X136922858Y-78593242D01*
X137079925Y-78562000D01*
X137240075Y-78562000D01*
X137397142Y-78593242D01*
G37*
G36*
X101139499Y-78218445D02*
G01*
X101176995Y-78229820D01*
X101211554Y-78248292D01*
X101241847Y-78273153D01*
X101266708Y-78303446D01*
X101285180Y-78338005D01*
X101296555Y-78375501D01*
X101301000Y-78420638D01*
X101301000Y-79059362D01*
X101296555Y-79104499D01*
X101285180Y-79141995D01*
X101266708Y-79176554D01*
X101241847Y-79206847D01*
X101211554Y-79231708D01*
X101176995Y-79250180D01*
X101139499Y-79261555D01*
X101094362Y-79266000D01*
X100355638Y-79266000D01*
X100310501Y-79261555D01*
X100273005Y-79250180D01*
X100238446Y-79231708D01*
X100208153Y-79206847D01*
X100183292Y-79176554D01*
X100164820Y-79141995D01*
X100153445Y-79104499D01*
X100149000Y-79059362D01*
X100149000Y-78420638D01*
X100153445Y-78375501D01*
X100164820Y-78338005D01*
X100183292Y-78303446D01*
X100208153Y-78273153D01*
X100238446Y-78248292D01*
X100273005Y-78229820D01*
X100310501Y-78218445D01*
X100355638Y-78214000D01*
X101094362Y-78214000D01*
X101139499Y-78218445D01*
G37*
G36*
X102889499Y-78218445D02*
G01*
X102926995Y-78229820D01*
X102961554Y-78248292D01*
X102991847Y-78273153D01*
X103016708Y-78303446D01*
X103035180Y-78338005D01*
X103046555Y-78375501D01*
X103051000Y-78420638D01*
X103051000Y-79059362D01*
X103046555Y-79104499D01*
X103035180Y-79141995D01*
X103016708Y-79176554D01*
X102991847Y-79206847D01*
X102961554Y-79231708D01*
X102926995Y-79250180D01*
X102889499Y-79261555D01*
X102844362Y-79266000D01*
X102105638Y-79266000D01*
X102060501Y-79261555D01*
X102023005Y-79250180D01*
X101988446Y-79231708D01*
X101958153Y-79206847D01*
X101933292Y-79176554D01*
X101914820Y-79141995D01*
X101903445Y-79104499D01*
X101899000Y-79059362D01*
X101899000Y-78420638D01*
X101903445Y-78375501D01*
X101914820Y-78338005D01*
X101933292Y-78303446D01*
X101958153Y-78273153D01*
X101988446Y-78248292D01*
X102023005Y-78229820D01*
X102060501Y-78218445D01*
X102105638Y-78214000D01*
X102844362Y-78214000D01*
X102889499Y-78218445D01*
G37*
G36*
X81119487Y-75922996D02*
G01*
X81356253Y-76021068D01*
X81356255Y-76021069D01*
X81496128Y-76114529D01*
X81569339Y-76163447D01*
X81750553Y-76344661D01*
X81892932Y-76557747D01*
X81991004Y-76794513D01*
X82041000Y-77045861D01*
X82041000Y-77302139D01*
X81991004Y-77553487D01*
X81964796Y-77616758D01*
X81892931Y-77790255D01*
X81750553Y-78003339D01*
X81569339Y-78184553D01*
X81356255Y-78326931D01*
X81356254Y-78326932D01*
X81356253Y-78326932D01*
X81119487Y-78425004D01*
X80868139Y-78475000D01*
X80611861Y-78475000D01*
X80360513Y-78425004D01*
X80123747Y-78326932D01*
X80123746Y-78326932D01*
X80123745Y-78326931D01*
X79910661Y-78184553D01*
X79729447Y-78003339D01*
X79587069Y-77790255D01*
X79515204Y-77616758D01*
X79488996Y-77553487D01*
X79439000Y-77302139D01*
X79439000Y-77045861D01*
X79488996Y-76794513D01*
X79587068Y-76557747D01*
X79729447Y-76344661D01*
X79910661Y-76163447D01*
X79983872Y-76114529D01*
X80123745Y-76021069D01*
X80123747Y-76021068D01*
X80360513Y-75922996D01*
X80611861Y-75873000D01*
X80868139Y-75873000D01*
X81119487Y-75922996D01*
G37*
G36*
X137397142Y-76053242D02*
G01*
X137545101Y-76114529D01*
X137678255Y-76203499D01*
X137791501Y-76316745D01*
X137880471Y-76449899D01*
X137941758Y-76597858D01*
X137973000Y-76754925D01*
X137973000Y-76915075D01*
X137941758Y-77072142D01*
X137880471Y-77220101D01*
X137791501Y-77353255D01*
X137678255Y-77466501D01*
X137545101Y-77555471D01*
X137397142Y-77616758D01*
X137240075Y-77648000D01*
X137079925Y-77648000D01*
X136922858Y-77616758D01*
X136774899Y-77555471D01*
X136641745Y-77466501D01*
X136528499Y-77353255D01*
X136439529Y-77220101D01*
X136378242Y-77072142D01*
X136347000Y-76915075D01*
X136347000Y-76754925D01*
X136378242Y-76597858D01*
X136439529Y-76449899D01*
X136528499Y-76316745D01*
X136641745Y-76203499D01*
X136774899Y-76114529D01*
X136922858Y-76053242D01*
X137079925Y-76022000D01*
X137240075Y-76022000D01*
X137397142Y-76053242D01*
G37*
G36*
X139937142Y-76053242D02*
G01*
X140085101Y-76114529D01*
X140218255Y-76203499D01*
X140331501Y-76316745D01*
X140420471Y-76449899D01*
X140481758Y-76597858D01*
X140513000Y-76754925D01*
X140513000Y-76915075D01*
X140481758Y-77072142D01*
X140420471Y-77220101D01*
X140331501Y-77353255D01*
X140218255Y-77466501D01*
X140085101Y-77555471D01*
X139937142Y-77616758D01*
X139780075Y-77648000D01*
X139619925Y-77648000D01*
X139462858Y-77616758D01*
X139314899Y-77555471D01*
X139181745Y-77466501D01*
X139068499Y-77353255D01*
X138979529Y-77220101D01*
X138918242Y-77072142D01*
X138887000Y-76915075D01*
X138887000Y-76754925D01*
X138918242Y-76597858D01*
X138979529Y-76449899D01*
X139068499Y-76316745D01*
X139181745Y-76203499D01*
X139314899Y-76114529D01*
X139462858Y-76053242D01*
X139619925Y-76022000D01*
X139780075Y-76022000D01*
X139937142Y-76053242D01*
G37*
G36*
X116453228Y-75381703D02*
G01*
X116608100Y-75445853D01*
X116747481Y-75538985D01*
X116866015Y-75657519D01*
X116959147Y-75796900D01*
X117023297Y-75951772D01*
X117056000Y-76116184D01*
X117056000Y-76283816D01*
X117023297Y-76448228D01*
X116959147Y-76603100D01*
X116866015Y-76742481D01*
X116747481Y-76861015D01*
X116608100Y-76954147D01*
X116453228Y-77018297D01*
X116288816Y-77051000D01*
X116121184Y-77051000D01*
X115956772Y-77018297D01*
X115801900Y-76954147D01*
X115662519Y-76861015D01*
X115543985Y-76742481D01*
X115450853Y-76603100D01*
X115386703Y-76448228D01*
X115354000Y-76283816D01*
X115354000Y-76116184D01*
X115386703Y-75951772D01*
X115450853Y-75796900D01*
X115543985Y-75657519D01*
X115662519Y-75538985D01*
X115801900Y-75445853D01*
X115956772Y-75381703D01*
X116121184Y-75349000D01*
X116288816Y-75349000D01*
X116453228Y-75381703D01*
G37*
G36*
X121533228Y-75381703D02*
G01*
X121688100Y-75445853D01*
X121827481Y-75538985D01*
X121946015Y-75657519D01*
X122039147Y-75796900D01*
X122103297Y-75951772D01*
X122136000Y-76116184D01*
X122136000Y-76283816D01*
X122103297Y-76448228D01*
X122039147Y-76603100D01*
X121946015Y-76742481D01*
X121827481Y-76861015D01*
X121688100Y-76954147D01*
X121533228Y-77018297D01*
X121368816Y-77051000D01*
X121201184Y-77051000D01*
X121036772Y-77018297D01*
X120881900Y-76954147D01*
X120742519Y-76861015D01*
X120623985Y-76742481D01*
X120530853Y-76603100D01*
X120466703Y-76448228D01*
X120434000Y-76283816D01*
X120434000Y-76116184D01*
X120466703Y-75951772D01*
X120530853Y-75796900D01*
X120623985Y-75657519D01*
X120742519Y-75538985D01*
X120881900Y-75445853D01*
X121036772Y-75381703D01*
X121201184Y-75349000D01*
X121368816Y-75349000D01*
X121533228Y-75381703D01*
G37*
G36*
X124073228Y-75381703D02*
G01*
X124228100Y-75445853D01*
X124367481Y-75538985D01*
X124486015Y-75657519D01*
X124579147Y-75796900D01*
X124643297Y-75951772D01*
X124676000Y-76116184D01*
X124676000Y-76283816D01*
X124643297Y-76448228D01*
X124579147Y-76603100D01*
X124486015Y-76742481D01*
X124367481Y-76861015D01*
X124228100Y-76954147D01*
X124073228Y-77018297D01*
X123908816Y-77051000D01*
X123741184Y-77051000D01*
X123576772Y-77018297D01*
X123421900Y-76954147D01*
X123282519Y-76861015D01*
X123163985Y-76742481D01*
X123070853Y-76603100D01*
X123006703Y-76448228D01*
X122974000Y-76283816D01*
X122974000Y-76116184D01*
X123006703Y-75951772D01*
X123070853Y-75796900D01*
X123163985Y-75657519D01*
X123282519Y-75538985D01*
X123421900Y-75445853D01*
X123576772Y-75381703D01*
X123741184Y-75349000D01*
X123908816Y-75349000D01*
X124073228Y-75381703D01*
G37*
G36*
X118993228Y-75381703D02*
G01*
X119148100Y-75445853D01*
X119287481Y-75538985D01*
X119406015Y-75657519D01*
X119499147Y-75796900D01*
X119563297Y-75951772D01*
X119596000Y-76116184D01*
X119596000Y-76283816D01*
X119563297Y-76448228D01*
X119499147Y-76603100D01*
X119406015Y-76742481D01*
X119287481Y-76861015D01*
X119148100Y-76954147D01*
X118993228Y-77018297D01*
X118828816Y-77051000D01*
X118661184Y-77051000D01*
X118496772Y-77018297D01*
X118341900Y-76954147D01*
X118202519Y-76861015D01*
X118083985Y-76742481D01*
X117990853Y-76603100D01*
X117926703Y-76448228D01*
X117894000Y-76283816D01*
X117894000Y-76116184D01*
X117926703Y-75951772D01*
X117990853Y-75796900D01*
X118083985Y-75657519D01*
X118202519Y-75538985D01*
X118341900Y-75445853D01*
X118496772Y-75381703D01*
X118661184Y-75349000D01*
X118828816Y-75349000D01*
X118993228Y-75381703D01*
G37*
G36*
X98673228Y-75381703D02*
G01*
X98828100Y-75445853D01*
X98967481Y-75538985D01*
X99086015Y-75657519D01*
X99179147Y-75796900D01*
X99243297Y-75951772D01*
X99276000Y-76116184D01*
X99276000Y-76283816D01*
X99243297Y-76448228D01*
X99179147Y-76603100D01*
X99086015Y-76742481D01*
X98967481Y-76861015D01*
X98828100Y-76954147D01*
X98673228Y-77018297D01*
X98508816Y-77051000D01*
X98341184Y-77051000D01*
X98176772Y-77018297D01*
X98021900Y-76954147D01*
X97882519Y-76861015D01*
X97763985Y-76742481D01*
X97670853Y-76603100D01*
X97606703Y-76448228D01*
X97574000Y-76283816D01*
X97574000Y-76116184D01*
X97606703Y-75951772D01*
X97670853Y-75796900D01*
X97763985Y-75657519D01*
X97882519Y-75538985D01*
X98021900Y-75445853D01*
X98176772Y-75381703D01*
X98341184Y-75349000D01*
X98508816Y-75349000D01*
X98673228Y-75381703D01*
G37*
G36*
X126613228Y-75381703D02*
G01*
X126768100Y-75445853D01*
X126907481Y-75538985D01*
X127026015Y-75657519D01*
X127119147Y-75796900D01*
X127183297Y-75951772D01*
X127216000Y-76116184D01*
X127216000Y-76283816D01*
X127183297Y-76448228D01*
X127119147Y-76603100D01*
X127026015Y-76742481D01*
X126907481Y-76861015D01*
X126768100Y-76954147D01*
X126613228Y-77018297D01*
X126448816Y-77051000D01*
X126281184Y-77051000D01*
X126116772Y-77018297D01*
X125961900Y-76954147D01*
X125822519Y-76861015D01*
X125703985Y-76742481D01*
X125610853Y-76603100D01*
X125546703Y-76448228D01*
X125514000Y-76283816D01*
X125514000Y-76116184D01*
X125546703Y-75951772D01*
X125610853Y-75796900D01*
X125703985Y-75657519D01*
X125822519Y-75538985D01*
X125961900Y-75445853D01*
X126116772Y-75381703D01*
X126281184Y-75349000D01*
X126448816Y-75349000D01*
X126613228Y-75381703D01*
G37*
G36*
X111373228Y-75381703D02*
G01*
X111528100Y-75445853D01*
X111667481Y-75538985D01*
X111786015Y-75657519D01*
X111879147Y-75796900D01*
X111943297Y-75951772D01*
X111976000Y-76116184D01*
X111976000Y-76283816D01*
X111943297Y-76448228D01*
X111879147Y-76603100D01*
X111786015Y-76742481D01*
X111667481Y-76861015D01*
X111528100Y-76954147D01*
X111373228Y-77018297D01*
X111208816Y-77051000D01*
X111041184Y-77051000D01*
X110876772Y-77018297D01*
X110721900Y-76954147D01*
X110582519Y-76861015D01*
X110463985Y-76742481D01*
X110370853Y-76603100D01*
X110306703Y-76448228D01*
X110274000Y-76283816D01*
X110274000Y-76116184D01*
X110306703Y-75951772D01*
X110370853Y-75796900D01*
X110463985Y-75657519D01*
X110582519Y-75538985D01*
X110721900Y-75445853D01*
X110876772Y-75381703D01*
X111041184Y-75349000D01*
X111208816Y-75349000D01*
X111373228Y-75381703D01*
G37*
G36*
X113913228Y-75381703D02*
G01*
X114068100Y-75445853D01*
X114207481Y-75538985D01*
X114326015Y-75657519D01*
X114419147Y-75796900D01*
X114483297Y-75951772D01*
X114516000Y-76116184D01*
X114516000Y-76283816D01*
X114483297Y-76448228D01*
X114419147Y-76603100D01*
X114326015Y-76742481D01*
X114207481Y-76861015D01*
X114068100Y-76954147D01*
X113913228Y-77018297D01*
X113748816Y-77051000D01*
X113581184Y-77051000D01*
X113416772Y-77018297D01*
X113261900Y-76954147D01*
X113122519Y-76861015D01*
X113003985Y-76742481D01*
X112910853Y-76603100D01*
X112846703Y-76448228D01*
X112814000Y-76283816D01*
X112814000Y-76116184D01*
X112846703Y-75951772D01*
X112910853Y-75796900D01*
X113003985Y-75657519D01*
X113122519Y-75538985D01*
X113261900Y-75445853D01*
X113416772Y-75381703D01*
X113581184Y-75349000D01*
X113748816Y-75349000D01*
X113913228Y-75381703D01*
G37*
G36*
X129153228Y-75381703D02*
G01*
X129308100Y-75445853D01*
X129447481Y-75538985D01*
X129566015Y-75657519D01*
X129659147Y-75796900D01*
X129723297Y-75951772D01*
X129756000Y-76116184D01*
X129756000Y-76283816D01*
X129723297Y-76448228D01*
X129659147Y-76603100D01*
X129566015Y-76742481D01*
X129447481Y-76861015D01*
X129308100Y-76954147D01*
X129153228Y-77018297D01*
X128988816Y-77051000D01*
X128821184Y-77051000D01*
X128656772Y-77018297D01*
X128501900Y-76954147D01*
X128362519Y-76861015D01*
X128243985Y-76742481D01*
X128150853Y-76603100D01*
X128086703Y-76448228D01*
X128054000Y-76283816D01*
X128054000Y-76116184D01*
X128086703Y-75951772D01*
X128150853Y-75796900D01*
X128243985Y-75657519D01*
X128362519Y-75538985D01*
X128501900Y-75445853D01*
X128656772Y-75381703D01*
X128821184Y-75349000D01*
X128988816Y-75349000D01*
X129153228Y-75381703D01*
G37*
G36*
X131693228Y-75381703D02*
G01*
X131848100Y-75445853D01*
X131987481Y-75538985D01*
X132106015Y-75657519D01*
X132199147Y-75796900D01*
X132263297Y-75951772D01*
X132296000Y-76116184D01*
X132296000Y-76283816D01*
X132263297Y-76448228D01*
X132199147Y-76603100D01*
X132106015Y-76742481D01*
X131987481Y-76861015D01*
X131848100Y-76954147D01*
X131693228Y-77018297D01*
X131528816Y-77051000D01*
X131361184Y-77051000D01*
X131196772Y-77018297D01*
X131041900Y-76954147D01*
X130902519Y-76861015D01*
X130783985Y-76742481D01*
X130690853Y-76603100D01*
X130626703Y-76448228D01*
X130594000Y-76283816D01*
X130594000Y-76116184D01*
X130626703Y-75951772D01*
X130690853Y-75796900D01*
X130783985Y-75657519D01*
X130902519Y-75538985D01*
X131041900Y-75445853D01*
X131196772Y-75381703D01*
X131361184Y-75349000D01*
X131528816Y-75349000D01*
X131693228Y-75381703D01*
G37*
G36*
X103753228Y-75381703D02*
G01*
X103908100Y-75445853D01*
X104047481Y-75538985D01*
X104166015Y-75657519D01*
X104259147Y-75796900D01*
X104323297Y-75951772D01*
X104356000Y-76116184D01*
X104356000Y-76283816D01*
X104323297Y-76448228D01*
X104259147Y-76603100D01*
X104166015Y-76742481D01*
X104047481Y-76861015D01*
X103908100Y-76954147D01*
X103753228Y-77018297D01*
X103588816Y-77051000D01*
X103421184Y-77051000D01*
X103256772Y-77018297D01*
X103101900Y-76954147D01*
X102962519Y-76861015D01*
X102843985Y-76742481D01*
X102750853Y-76603100D01*
X102686703Y-76448228D01*
X102654000Y-76283816D01*
X102654000Y-76116184D01*
X102686703Y-75951772D01*
X102750853Y-75796900D01*
X102843985Y-75657519D01*
X102962519Y-75538985D01*
X103101900Y-75445853D01*
X103256772Y-75381703D01*
X103421184Y-75349000D01*
X103588816Y-75349000D01*
X103753228Y-75381703D01*
G37*
G36*
X106293228Y-75381703D02*
G01*
X106448100Y-75445853D01*
X106587481Y-75538985D01*
X106706015Y-75657519D01*
X106799147Y-75796900D01*
X106863297Y-75951772D01*
X106896000Y-76116184D01*
X106896000Y-76283816D01*
X106863297Y-76448228D01*
X106799147Y-76603100D01*
X106706015Y-76742481D01*
X106587481Y-76861015D01*
X106448100Y-76954147D01*
X106293228Y-77018297D01*
X106128816Y-77051000D01*
X105961184Y-77051000D01*
X105796772Y-77018297D01*
X105641900Y-76954147D01*
X105502519Y-76861015D01*
X105383985Y-76742481D01*
X105290853Y-76603100D01*
X105226703Y-76448228D01*
X105194000Y-76283816D01*
X105194000Y-76116184D01*
X105226703Y-75951772D01*
X105290853Y-75796900D01*
X105383985Y-75657519D01*
X105502519Y-75538985D01*
X105641900Y-75445853D01*
X105796772Y-75381703D01*
X105961184Y-75349000D01*
X106128816Y-75349000D01*
X106293228Y-75381703D01*
G37*
G36*
X101213228Y-75381703D02*
G01*
X101368100Y-75445853D01*
X101507481Y-75538985D01*
X101626015Y-75657519D01*
X101719147Y-75796900D01*
X101783297Y-75951772D01*
X101816000Y-76116184D01*
X101816000Y-76283816D01*
X101783297Y-76448228D01*
X101719147Y-76603100D01*
X101626015Y-76742481D01*
X101507481Y-76861015D01*
X101368100Y-76954147D01*
X101213228Y-77018297D01*
X101048816Y-77051000D01*
X100881184Y-77051000D01*
X100716772Y-77018297D01*
X100561900Y-76954147D01*
X100422519Y-76861015D01*
X100303985Y-76742481D01*
X100210853Y-76603100D01*
X100146703Y-76448228D01*
X100114000Y-76283816D01*
X100114000Y-76116184D01*
X100146703Y-75951772D01*
X100210853Y-75796900D01*
X100303985Y-75657519D01*
X100422519Y-75538985D01*
X100561900Y-75445853D01*
X100716772Y-75381703D01*
X100881184Y-75349000D01*
X101048816Y-75349000D01*
X101213228Y-75381703D01*
G37*
G36*
X108833228Y-75381703D02*
G01*
X108988100Y-75445853D01*
X109127481Y-75538985D01*
X109246015Y-75657519D01*
X109339147Y-75796900D01*
X109403297Y-75951772D01*
X109436000Y-76116184D01*
X109436000Y-76283816D01*
X109403297Y-76448228D01*
X109339147Y-76603100D01*
X109246015Y-76742481D01*
X109127481Y-76861015D01*
X108988100Y-76954147D01*
X108833228Y-77018297D01*
X108668816Y-77051000D01*
X108501184Y-77051000D01*
X108336772Y-77018297D01*
X108181900Y-76954147D01*
X108042519Y-76861015D01*
X107923985Y-76742481D01*
X107830853Y-76603100D01*
X107766703Y-76448228D01*
X107734000Y-76283816D01*
X107734000Y-76116184D01*
X107766703Y-75951772D01*
X107830853Y-75796900D01*
X107923985Y-75657519D01*
X108042519Y-75538985D01*
X108181900Y-75445853D01*
X108336772Y-75381703D01*
X108501184Y-75349000D01*
X108668816Y-75349000D01*
X108833228Y-75381703D01*
G37*
G36*
X87619487Y-73122996D02*
G01*
X87856253Y-73221068D01*
X87856255Y-73221069D01*
X88011803Y-73325003D01*
X88069339Y-73363447D01*
X88250553Y-73544661D01*
X88392932Y-73757747D01*
X88491004Y-73994513D01*
X88541000Y-74245861D01*
X88541000Y-74502139D01*
X88491004Y-74753487D01*
X88466247Y-74813255D01*
X88392931Y-74990255D01*
X88250553Y-75203339D01*
X88069339Y-75384553D01*
X87856255Y-75526931D01*
X87856254Y-75526932D01*
X87856253Y-75526932D01*
X87619487Y-75625004D01*
X87368139Y-75675000D01*
X87111861Y-75675000D01*
X86860513Y-75625004D01*
X86623747Y-75526932D01*
X86623746Y-75526932D01*
X86623745Y-75526931D01*
X86410661Y-75384553D01*
X86229447Y-75203339D01*
X86087069Y-74990255D01*
X86013753Y-74813255D01*
X85988996Y-74753487D01*
X85939000Y-74502139D01*
X85939000Y-74245861D01*
X85988996Y-73994513D01*
X86087068Y-73757747D01*
X86229447Y-73544661D01*
X86410661Y-73363447D01*
X86468197Y-73325003D01*
X86623745Y-73221069D01*
X86623747Y-73221068D01*
X86860513Y-73122996D01*
X87111861Y-73073000D01*
X87368139Y-73073000D01*
X87619487Y-73122996D01*
G37*
G36*
X137973000Y-75108000D02*
G01*
X136347000Y-75108000D01*
X136347000Y-73482000D01*
X137973000Y-73482000D01*
X137973000Y-75108000D01*
G37*
G36*
X139937142Y-73513242D02*
G01*
X140085101Y-73574529D01*
X140218255Y-73663499D01*
X140331501Y-73776745D01*
X140420471Y-73909899D01*
X140481758Y-74057858D01*
X140513000Y-74214925D01*
X140513000Y-74375075D01*
X140481758Y-74532142D01*
X140420471Y-74680101D01*
X140331501Y-74813255D01*
X140218255Y-74926501D01*
X140085101Y-75015471D01*
X139937142Y-75076758D01*
X139780075Y-75108000D01*
X139619925Y-75108000D01*
X139462858Y-75076758D01*
X139314899Y-75015471D01*
X139181745Y-74926501D01*
X139068499Y-74813255D01*
X138979529Y-74680101D01*
X138918242Y-74532142D01*
X138887000Y-74375075D01*
X138887000Y-74214925D01*
X138918242Y-74057858D01*
X138979529Y-73909899D01*
X139068499Y-73776745D01*
X139181745Y-73663499D01*
X139314899Y-73574529D01*
X139462858Y-73513242D01*
X139619925Y-73482000D01*
X139780075Y-73482000D01*
X139937142Y-73513242D01*
G37*
G36*
X118985512Y-71747927D02*
G01*
X119134812Y-71777624D01*
X119298784Y-71845544D01*
X119446354Y-71944147D01*
X119571853Y-72069646D01*
X119670456Y-72217216D01*
X119738376Y-72381188D01*
X119773000Y-72555259D01*
X119773000Y-72732741D01*
X119738376Y-72906812D01*
X119670456Y-73070784D01*
X119571853Y-73218354D01*
X119446354Y-73343853D01*
X119298784Y-73442456D01*
X119134812Y-73510376D01*
X118985512Y-73540073D01*
X118960742Y-73545000D01*
X118783258Y-73545000D01*
X118758488Y-73540073D01*
X118609188Y-73510376D01*
X118445216Y-73442456D01*
X118297646Y-73343853D01*
X118172147Y-73218354D01*
X118073544Y-73070784D01*
X118005624Y-72906812D01*
X117971000Y-72732741D01*
X117971000Y-72555259D01*
X118005624Y-72381188D01*
X118073544Y-72217216D01*
X118172147Y-72069646D01*
X118297646Y-71944147D01*
X118445216Y-71845544D01*
X118609188Y-71777624D01*
X118758488Y-71747927D01*
X118783258Y-71743000D01*
X118960742Y-71743000D01*
X118985512Y-71747927D01*
G37*
G36*
X117233000Y-73545000D02*
G01*
X115431000Y-73545000D01*
X115431000Y-71743000D01*
X117233000Y-71743000D01*
X117233000Y-73545000D01*
G37*
G36*
X121525512Y-71747927D02*
G01*
X121674812Y-71777624D01*
X121838784Y-71845544D01*
X121986354Y-71944147D01*
X122111853Y-72069646D01*
X122210456Y-72217216D01*
X122278376Y-72381188D01*
X122313000Y-72555259D01*
X122313000Y-72732741D01*
X122278376Y-72906812D01*
X122210456Y-73070784D01*
X122111853Y-73218354D01*
X121986354Y-73343853D01*
X121838784Y-73442456D01*
X121674812Y-73510376D01*
X121525512Y-73540073D01*
X121500742Y-73545000D01*
X121323258Y-73545000D01*
X121298488Y-73540073D01*
X121149188Y-73510376D01*
X120985216Y-73442456D01*
X120837646Y-73343853D01*
X120712147Y-73218354D01*
X120613544Y-73070784D01*
X120545624Y-72906812D01*
X120511000Y-72732741D01*
X120511000Y-72555259D01*
X120545624Y-72381188D01*
X120613544Y-72217216D01*
X120712147Y-72069646D01*
X120837646Y-71944147D01*
X120985216Y-71845544D01*
X121149188Y-71777624D01*
X121298488Y-71747927D01*
X121323258Y-71743000D01*
X121500742Y-71743000D01*
X121525512Y-71747927D01*
G37*
G36*
X89319487Y-70822996D02*
G01*
X89556253Y-70921068D01*
X89556255Y-70921069D01*
X89769339Y-71063447D01*
X89950553Y-71244661D01*
X90077272Y-71434309D01*
X90092932Y-71457747D01*
X90191004Y-71694513D01*
X90241000Y-71945861D01*
X90241000Y-72202139D01*
X90191004Y-72453487D01*
X90114481Y-72638229D01*
X90092931Y-72690255D01*
X89950553Y-72903339D01*
X89769339Y-73084553D01*
X89556255Y-73226931D01*
X89556254Y-73226932D01*
X89556253Y-73226932D01*
X89319487Y-73325004D01*
X89068139Y-73375000D01*
X88811861Y-73375000D01*
X88560513Y-73325004D01*
X88323747Y-73226932D01*
X88323746Y-73226932D01*
X88323745Y-73226931D01*
X88110661Y-73084553D01*
X87929447Y-72903339D01*
X87787069Y-72690255D01*
X87765519Y-72638229D01*
X87688996Y-72453487D01*
X87639000Y-72202139D01*
X87639000Y-71945861D01*
X87688996Y-71694513D01*
X87787068Y-71457747D01*
X87802729Y-71434309D01*
X87929447Y-71244661D01*
X88110661Y-71063447D01*
X88323745Y-70921069D01*
X88323747Y-70921068D01*
X88560513Y-70822996D01*
X88811861Y-70773000D01*
X89068139Y-70773000D01*
X89319487Y-70822996D01*
G37*
G36*
X108833228Y-71571703D02*
G01*
X108988100Y-71635853D01*
X109127481Y-71728985D01*
X109246015Y-71847519D01*
X109339147Y-71986900D01*
X109403297Y-72141772D01*
X109436000Y-72306184D01*
X109436000Y-72473816D01*
X109403297Y-72638228D01*
X109339147Y-72793100D01*
X109246015Y-72932481D01*
X109127481Y-73051015D01*
X108988100Y-73144147D01*
X108833228Y-73208297D01*
X108668816Y-73241000D01*
X108501184Y-73241000D01*
X108336772Y-73208297D01*
X108181900Y-73144147D01*
X108042519Y-73051015D01*
X107923985Y-72932481D01*
X107830853Y-72793100D01*
X107766703Y-72638228D01*
X107734000Y-72473816D01*
X107734000Y-72306184D01*
X107766703Y-72141772D01*
X107830853Y-71986900D01*
X107923985Y-71847519D01*
X108042519Y-71728985D01*
X108181900Y-71635853D01*
X108336772Y-71571703D01*
X108501184Y-71539000D01*
X108668816Y-71539000D01*
X108833228Y-71571703D01*
G37*
G36*
X101213228Y-71571703D02*
G01*
X101368100Y-71635853D01*
X101507481Y-71728985D01*
X101626015Y-71847519D01*
X101719147Y-71986900D01*
X101783297Y-72141772D01*
X101816000Y-72306184D01*
X101816000Y-72473816D01*
X101783297Y-72638228D01*
X101719147Y-72793100D01*
X101626015Y-72932481D01*
X101507481Y-73051015D01*
X101368100Y-73144147D01*
X101213228Y-73208297D01*
X101048816Y-73241000D01*
X100881184Y-73241000D01*
X100716772Y-73208297D01*
X100561900Y-73144147D01*
X100422519Y-73051015D01*
X100303985Y-72932481D01*
X100210853Y-72793100D01*
X100146703Y-72638228D01*
X100114000Y-72473816D01*
X100114000Y-72306184D01*
X100146703Y-72141772D01*
X100210853Y-71986900D01*
X100303985Y-71847519D01*
X100422519Y-71728985D01*
X100561900Y-71635853D01*
X100716772Y-71571703D01*
X100881184Y-71539000D01*
X101048816Y-71539000D01*
X101213228Y-71571703D01*
G37*
G36*
X106293228Y-71571703D02*
G01*
X106448100Y-71635853D01*
X106587481Y-71728985D01*
X106706015Y-71847519D01*
X106799147Y-71986900D01*
X106863297Y-72141772D01*
X106896000Y-72306184D01*
X106896000Y-72473816D01*
X106863297Y-72638228D01*
X106799147Y-72793100D01*
X106706015Y-72932481D01*
X106587481Y-73051015D01*
X106448100Y-73144147D01*
X106293228Y-73208297D01*
X106128816Y-73241000D01*
X105961184Y-73241000D01*
X105796772Y-73208297D01*
X105641900Y-73144147D01*
X105502519Y-73051015D01*
X105383985Y-72932481D01*
X105290853Y-72793100D01*
X105226703Y-72638228D01*
X105194000Y-72473816D01*
X105194000Y-72306184D01*
X105226703Y-72141772D01*
X105290853Y-71986900D01*
X105383985Y-71847519D01*
X105502519Y-71728985D01*
X105641900Y-71635853D01*
X105796772Y-71571703D01*
X105961184Y-71539000D01*
X106128816Y-71539000D01*
X106293228Y-71571703D01*
G37*
G36*
X103753228Y-71571703D02*
G01*
X103908100Y-71635853D01*
X104047481Y-71728985D01*
X104166015Y-71847519D01*
X104259147Y-71986900D01*
X104323297Y-72141772D01*
X104356000Y-72306184D01*
X104356000Y-72473816D01*
X104323297Y-72638228D01*
X104259147Y-72793100D01*
X104166015Y-72932481D01*
X104047481Y-73051015D01*
X103908100Y-73144147D01*
X103753228Y-73208297D01*
X103588816Y-73241000D01*
X103421184Y-73241000D01*
X103256772Y-73208297D01*
X103101900Y-73144147D01*
X102962519Y-73051015D01*
X102843985Y-72932481D01*
X102750853Y-72793100D01*
X102686703Y-72638228D01*
X102654000Y-72473816D01*
X102654000Y-72306184D01*
X102686703Y-72141772D01*
X102750853Y-71986900D01*
X102843985Y-71847519D01*
X102962519Y-71728985D01*
X103101900Y-71635853D01*
X103256772Y-71571703D01*
X103421184Y-71539000D01*
X103588816Y-71539000D01*
X103753228Y-71571703D01*
G37*
G36*
X98317499Y-72122445D02*
G01*
X98354995Y-72133820D01*
X98389554Y-72152292D01*
X98419847Y-72177153D01*
X98444708Y-72207446D01*
X98463180Y-72242005D01*
X98474555Y-72279501D01*
X98479000Y-72324638D01*
X98479000Y-72963362D01*
X98474555Y-73008499D01*
X98463180Y-73045995D01*
X98444708Y-73080554D01*
X98419847Y-73110847D01*
X98389554Y-73135708D01*
X98354995Y-73154180D01*
X98317499Y-73165555D01*
X98272362Y-73170000D01*
X97533638Y-73170000D01*
X97488501Y-73165555D01*
X97451005Y-73154180D01*
X97416446Y-73135708D01*
X97386153Y-73110847D01*
X97361292Y-73080554D01*
X97342820Y-73045995D01*
X97331445Y-73008499D01*
X97327000Y-72963362D01*
X97327000Y-72324638D01*
X97331445Y-72279501D01*
X97342820Y-72242005D01*
X97361292Y-72207446D01*
X97386153Y-72177153D01*
X97416446Y-72152292D01*
X97451005Y-72133820D01*
X97488501Y-72122445D01*
X97533638Y-72118000D01*
X98272362Y-72118000D01*
X98317499Y-72122445D01*
G37*
G36*
X96567499Y-72122445D02*
G01*
X96604995Y-72133820D01*
X96639554Y-72152292D01*
X96669847Y-72177153D01*
X96694708Y-72207446D01*
X96713180Y-72242005D01*
X96724555Y-72279501D01*
X96729000Y-72324638D01*
X96729000Y-72963362D01*
X96724555Y-73008499D01*
X96713180Y-73045995D01*
X96694708Y-73080554D01*
X96669847Y-73110847D01*
X96639554Y-73135708D01*
X96604995Y-73154180D01*
X96567499Y-73165555D01*
X96522362Y-73170000D01*
X95783638Y-73170000D01*
X95738501Y-73165555D01*
X95701005Y-73154180D01*
X95666446Y-73135708D01*
X95636153Y-73110847D01*
X95611292Y-73080554D01*
X95592820Y-73045995D01*
X95581445Y-73008499D01*
X95577000Y-72963362D01*
X95577000Y-72324638D01*
X95581445Y-72279501D01*
X95592820Y-72242005D01*
X95611292Y-72207446D01*
X95636153Y-72177153D01*
X95666446Y-72152292D01*
X95701005Y-72133820D01*
X95738501Y-72122445D01*
X95783638Y-72118000D01*
X96522362Y-72118000D01*
X96567499Y-72122445D01*
G37*
G36*
X137969499Y-70598445D02*
G01*
X138006995Y-70609820D01*
X138041554Y-70628292D01*
X138071847Y-70653153D01*
X138096708Y-70683446D01*
X138115180Y-70718005D01*
X138126555Y-70755501D01*
X138131000Y-70800638D01*
X138131000Y-71439362D01*
X138126555Y-71484499D01*
X138115180Y-71521995D01*
X138096708Y-71556554D01*
X138071847Y-71586847D01*
X138041554Y-71611708D01*
X138006995Y-71630180D01*
X137969499Y-71641555D01*
X137924362Y-71646000D01*
X137185638Y-71646000D01*
X137140501Y-71641555D01*
X137103005Y-71630180D01*
X137068446Y-71611708D01*
X137038153Y-71586847D01*
X137013292Y-71556554D01*
X136994820Y-71521995D01*
X136983445Y-71484499D01*
X136979000Y-71439362D01*
X136979000Y-70800638D01*
X136983445Y-70755501D01*
X136994820Y-70718005D01*
X137013292Y-70683446D01*
X137038153Y-70653153D01*
X137068446Y-70628292D01*
X137103005Y-70609820D01*
X137140501Y-70598445D01*
X137185638Y-70594000D01*
X137924362Y-70594000D01*
X137969499Y-70598445D01*
G37*
G36*
X139719499Y-70598445D02*
G01*
X139756995Y-70609820D01*
X139791554Y-70628292D01*
X139821847Y-70653153D01*
X139846708Y-70683446D01*
X139865180Y-70718005D01*
X139876555Y-70755501D01*
X139881000Y-70800638D01*
X139881000Y-71439362D01*
X139876555Y-71484499D01*
X139865180Y-71521995D01*
X139846708Y-71556554D01*
X139821847Y-71586847D01*
X139791554Y-71611708D01*
X139756995Y-71630180D01*
X139719499Y-71641555D01*
X139674362Y-71646000D01*
X138935638Y-71646000D01*
X138890501Y-71641555D01*
X138853005Y-71630180D01*
X138818446Y-71611708D01*
X138788153Y-71586847D01*
X138763292Y-71556554D01*
X138744820Y-71521995D01*
X138733445Y-71484499D01*
X138729000Y-71439362D01*
X138729000Y-70800638D01*
X138733445Y-70755501D01*
X138744820Y-70718005D01*
X138763292Y-70683446D01*
X138788153Y-70653153D01*
X138818446Y-70628292D01*
X138853005Y-70609820D01*
X138890501Y-70598445D01*
X138935638Y-70594000D01*
X139674362Y-70594000D01*
X139719499Y-70598445D01*
G37*
G36*
X118985512Y-69207927D02*
G01*
X119134812Y-69237624D01*
X119298784Y-69305544D01*
X119446354Y-69404147D01*
X119571853Y-69529646D01*
X119670456Y-69677216D01*
X119738376Y-69841188D01*
X119773000Y-70015259D01*
X119773000Y-70192741D01*
X119738376Y-70366812D01*
X119670456Y-70530784D01*
X119571853Y-70678354D01*
X119446354Y-70803853D01*
X119298784Y-70902456D01*
X119134812Y-70970376D01*
X118985512Y-71000073D01*
X118960742Y-71005000D01*
X118783258Y-71005000D01*
X118758488Y-71000073D01*
X118609188Y-70970376D01*
X118445216Y-70902456D01*
X118297646Y-70803853D01*
X118172147Y-70678354D01*
X118073544Y-70530784D01*
X118005624Y-70366812D01*
X117971000Y-70192741D01*
X117971000Y-70015259D01*
X118005624Y-69841188D01*
X118073544Y-69677216D01*
X118172147Y-69529646D01*
X118297646Y-69404147D01*
X118445216Y-69305544D01*
X118609188Y-69237624D01*
X118758488Y-69207927D01*
X118783258Y-69203000D01*
X118960742Y-69203000D01*
X118985512Y-69207927D01*
G37*
G36*
X121525512Y-69207927D02*
G01*
X121674812Y-69237624D01*
X121838784Y-69305544D01*
X121986354Y-69404147D01*
X122111853Y-69529646D01*
X122210456Y-69677216D01*
X122278376Y-69841188D01*
X122313000Y-70015259D01*
X122313000Y-70192741D01*
X122278376Y-70366812D01*
X122210456Y-70530784D01*
X122111853Y-70678354D01*
X121986354Y-70803853D01*
X121838784Y-70902456D01*
X121674812Y-70970376D01*
X121525512Y-71000073D01*
X121500742Y-71005000D01*
X121323258Y-71005000D01*
X121298488Y-71000073D01*
X121149188Y-70970376D01*
X120985216Y-70902456D01*
X120837646Y-70803853D01*
X120712147Y-70678354D01*
X120613544Y-70530784D01*
X120545624Y-70366812D01*
X120511000Y-70192741D01*
X120511000Y-70015259D01*
X120545624Y-69841188D01*
X120613544Y-69677216D01*
X120712147Y-69529646D01*
X120837646Y-69404147D01*
X120985216Y-69305544D01*
X121149188Y-69237624D01*
X121298488Y-69207927D01*
X121323258Y-69203000D01*
X121500742Y-69203000D01*
X121525512Y-69207927D01*
G37*
G36*
X116445512Y-69207927D02*
G01*
X116594812Y-69237624D01*
X116758784Y-69305544D01*
X116906354Y-69404147D01*
X117031853Y-69529646D01*
X117130456Y-69677216D01*
X117198376Y-69841188D01*
X117233000Y-70015259D01*
X117233000Y-70192741D01*
X117198376Y-70366812D01*
X117130456Y-70530784D01*
X117031853Y-70678354D01*
X116906354Y-70803853D01*
X116758784Y-70902456D01*
X116594812Y-70970376D01*
X116445512Y-71000073D01*
X116420742Y-71005000D01*
X116243258Y-71005000D01*
X116218488Y-71000073D01*
X116069188Y-70970376D01*
X115905216Y-70902456D01*
X115757646Y-70803853D01*
X115632147Y-70678354D01*
X115533544Y-70530784D01*
X115465624Y-70366812D01*
X115431000Y-70192741D01*
X115431000Y-70015259D01*
X115465624Y-69841188D01*
X115533544Y-69677216D01*
X115632147Y-69529646D01*
X115757646Y-69404147D01*
X115905216Y-69305544D01*
X116069188Y-69237624D01*
X116218488Y-69207927D01*
X116243258Y-69203000D01*
X116420742Y-69203000D01*
X116445512Y-69207927D01*
G37*
G36*
X103488499Y-69518445D02*
G01*
X103525995Y-69529820D01*
X103560554Y-69548292D01*
X103590847Y-69573153D01*
X103615708Y-69603446D01*
X103634180Y-69638005D01*
X103645555Y-69675501D01*
X103650000Y-69720638D01*
X103650000Y-70459362D01*
X103645555Y-70504499D01*
X103634180Y-70541995D01*
X103615708Y-70576554D01*
X103590847Y-70606847D01*
X103560554Y-70631708D01*
X103525995Y-70650180D01*
X103488499Y-70661555D01*
X103443362Y-70666000D01*
X102804638Y-70666000D01*
X102759501Y-70661555D01*
X102722005Y-70650180D01*
X102687446Y-70631708D01*
X102657153Y-70606847D01*
X102632292Y-70576554D01*
X102613820Y-70541995D01*
X102602445Y-70504499D01*
X102598000Y-70459362D01*
X102598000Y-69720638D01*
X102602445Y-69675501D01*
X102613820Y-69638005D01*
X102632292Y-69603446D01*
X102657153Y-69573153D01*
X102687446Y-69548292D01*
X102722005Y-69529820D01*
X102759501Y-69518445D01*
X102804638Y-69514000D01*
X103443362Y-69514000D01*
X103488499Y-69518445D01*
G37*
G36*
X96567499Y-69582445D02*
G01*
X96604995Y-69593820D01*
X96639554Y-69612292D01*
X96669847Y-69637153D01*
X96694708Y-69667446D01*
X96713180Y-69702005D01*
X96724555Y-69739501D01*
X96729000Y-69784638D01*
X96729000Y-70423362D01*
X96724555Y-70468499D01*
X96713180Y-70505995D01*
X96694708Y-70540554D01*
X96669847Y-70570847D01*
X96639554Y-70595708D01*
X96604995Y-70614180D01*
X96567499Y-70625555D01*
X96522362Y-70630000D01*
X95783638Y-70630000D01*
X95738501Y-70625555D01*
X95701005Y-70614180D01*
X95666446Y-70595708D01*
X95636153Y-70570847D01*
X95611292Y-70540554D01*
X95592820Y-70505995D01*
X95581445Y-70468499D01*
X95577000Y-70423362D01*
X95577000Y-69784638D01*
X95581445Y-69739501D01*
X95592820Y-69702005D01*
X95611292Y-69667446D01*
X95636153Y-69637153D01*
X95666446Y-69612292D01*
X95701005Y-69593820D01*
X95738501Y-69582445D01*
X95783638Y-69578000D01*
X96522362Y-69578000D01*
X96567499Y-69582445D01*
G37*
G36*
X98317499Y-69582445D02*
G01*
X98354995Y-69593820D01*
X98389554Y-69612292D01*
X98419847Y-69637153D01*
X98444708Y-69667446D01*
X98463180Y-69702005D01*
X98474555Y-69739501D01*
X98479000Y-69784638D01*
X98479000Y-70423362D01*
X98474555Y-70468499D01*
X98463180Y-70505995D01*
X98444708Y-70540554D01*
X98419847Y-70570847D01*
X98389554Y-70595708D01*
X98354995Y-70614180D01*
X98317499Y-70625555D01*
X98272362Y-70630000D01*
X97533638Y-70630000D01*
X97488501Y-70625555D01*
X97451005Y-70614180D01*
X97416446Y-70595708D01*
X97386153Y-70570847D01*
X97361292Y-70540554D01*
X97342820Y-70505995D01*
X97331445Y-70468499D01*
X97327000Y-70423362D01*
X97327000Y-69784638D01*
X97331445Y-69739501D01*
X97342820Y-69702005D01*
X97361292Y-69667446D01*
X97386153Y-69637153D01*
X97416446Y-69612292D01*
X97451005Y-69593820D01*
X97488501Y-69582445D01*
X97533638Y-69578000D01*
X98272362Y-69578000D01*
X98317499Y-69582445D01*
G37*
G36*
X84519487Y-68022996D02*
G01*
X84756253Y-68121068D01*
X84756255Y-68121069D01*
X84969339Y-68263447D01*
X85150553Y-68444661D01*
X85284992Y-68645863D01*
X85292932Y-68657747D01*
X85391004Y-68894513D01*
X85441000Y-69145861D01*
X85441000Y-69402139D01*
X85391004Y-69653487D01*
X85336679Y-69784638D01*
X85292931Y-69890255D01*
X85150553Y-70103339D01*
X84969339Y-70284553D01*
X84756255Y-70426931D01*
X84756254Y-70426932D01*
X84756253Y-70426932D01*
X84519487Y-70525004D01*
X84268139Y-70575000D01*
X84011861Y-70575000D01*
X83760513Y-70525004D01*
X83523747Y-70426932D01*
X83523746Y-70426932D01*
X83523745Y-70426931D01*
X83310661Y-70284553D01*
X83129447Y-70103339D01*
X82987069Y-69890255D01*
X82943321Y-69784638D01*
X82888996Y-69653487D01*
X82839000Y-69402139D01*
X82839000Y-69145861D01*
X82888996Y-68894513D01*
X82987068Y-68657747D01*
X82995009Y-68645863D01*
X83129447Y-68444661D01*
X83310661Y-68263447D01*
X83523745Y-68121069D01*
X83523747Y-68121068D01*
X83760513Y-68022996D01*
X84011861Y-67973000D01*
X84268139Y-67973000D01*
X84519487Y-68022996D01*
G37*
G36*
X92019487Y-67522996D02*
G01*
X92256253Y-67621068D01*
X92256255Y-67621069D01*
X92469339Y-67763447D01*
X92650553Y-67944661D01*
X92718050Y-68045677D01*
X92792932Y-68157747D01*
X92891004Y-68394513D01*
X92941000Y-68645861D01*
X92941000Y-68902139D01*
X92891004Y-69153487D01*
X92792932Y-69390253D01*
X92792931Y-69390255D01*
X92650553Y-69603339D01*
X92469339Y-69784553D01*
X92256255Y-69926931D01*
X92256254Y-69926932D01*
X92256253Y-69926932D01*
X92019487Y-70025004D01*
X91768139Y-70075000D01*
X91511861Y-70075000D01*
X91260513Y-70025004D01*
X91023747Y-69926932D01*
X91023746Y-69926932D01*
X91023745Y-69926931D01*
X90810661Y-69784553D01*
X90629447Y-69603339D01*
X90487069Y-69390255D01*
X90487068Y-69390253D01*
X90388996Y-69153487D01*
X90339000Y-68902139D01*
X90339000Y-68645861D01*
X90388996Y-68394513D01*
X90487068Y-68157747D01*
X90561951Y-68045677D01*
X90629447Y-67944661D01*
X90810661Y-67763447D01*
X91023745Y-67621069D01*
X91023747Y-67621068D01*
X91260513Y-67522996D01*
X91511861Y-67473000D01*
X91768139Y-67473000D01*
X92019487Y-67522996D01*
G37*
G36*
X103488499Y-67768445D02*
G01*
X103525995Y-67779820D01*
X103560554Y-67798292D01*
X103590847Y-67823153D01*
X103615708Y-67853446D01*
X103634180Y-67888005D01*
X103645555Y-67925501D01*
X103650000Y-67970638D01*
X103650000Y-68709362D01*
X103645555Y-68754499D01*
X103634180Y-68791995D01*
X103615708Y-68826554D01*
X103590847Y-68856847D01*
X103560554Y-68881708D01*
X103525995Y-68900180D01*
X103488499Y-68911555D01*
X103443362Y-68916000D01*
X102804638Y-68916000D01*
X102759501Y-68911555D01*
X102722005Y-68900180D01*
X102687446Y-68881708D01*
X102657153Y-68856847D01*
X102632292Y-68826554D01*
X102613820Y-68791995D01*
X102602445Y-68754499D01*
X102598000Y-68709362D01*
X102598000Y-67970638D01*
X102602445Y-67925501D01*
X102613820Y-67888005D01*
X102632292Y-67853446D01*
X102657153Y-67823153D01*
X102687446Y-67798292D01*
X102722005Y-67779820D01*
X102759501Y-67768445D01*
X102804638Y-67764000D01*
X103443362Y-67764000D01*
X103488499Y-67768445D01*
G37*
G36*
X137908512Y-66413927D02*
G01*
X138057812Y-66443624D01*
X138221784Y-66511544D01*
X138369354Y-66610147D01*
X138494853Y-66735646D01*
X138593456Y-66883216D01*
X138661376Y-67047188D01*
X138696000Y-67221259D01*
X138696000Y-67398741D01*
X138661376Y-67572812D01*
X138593456Y-67736784D01*
X138494853Y-67884354D01*
X138369354Y-68009853D01*
X138221784Y-68108456D01*
X138057812Y-68176376D01*
X137908512Y-68206073D01*
X137883742Y-68211000D01*
X137706258Y-68211000D01*
X137681488Y-68206073D01*
X137532188Y-68176376D01*
X137368216Y-68108456D01*
X137220646Y-68009853D01*
X137095147Y-67884354D01*
X136996544Y-67736784D01*
X136928624Y-67572812D01*
X136894000Y-67398741D01*
X136894000Y-67221259D01*
X136928624Y-67047188D01*
X136996544Y-66883216D01*
X137095147Y-66735646D01*
X137220646Y-66610147D01*
X137368216Y-66511544D01*
X137532188Y-66443624D01*
X137681488Y-66413927D01*
X137706258Y-66409000D01*
X137883742Y-66409000D01*
X137908512Y-66413927D01*
G37*
G36*
X98317499Y-67042445D02*
G01*
X98354995Y-67053820D01*
X98389554Y-67072292D01*
X98419847Y-67097153D01*
X98444708Y-67127446D01*
X98463180Y-67162005D01*
X98474555Y-67199501D01*
X98479000Y-67244638D01*
X98479000Y-67883362D01*
X98474555Y-67928499D01*
X98463180Y-67965995D01*
X98444708Y-68000554D01*
X98419847Y-68030847D01*
X98389554Y-68055708D01*
X98354995Y-68074180D01*
X98317499Y-68085555D01*
X98272362Y-68090000D01*
X97533638Y-68090000D01*
X97488501Y-68085555D01*
X97451005Y-68074180D01*
X97416446Y-68055708D01*
X97386153Y-68030847D01*
X97361292Y-68000554D01*
X97342820Y-67965995D01*
X97331445Y-67928499D01*
X97327000Y-67883362D01*
X97327000Y-67244638D01*
X97331445Y-67199501D01*
X97342820Y-67162005D01*
X97361292Y-67127446D01*
X97386153Y-67097153D01*
X97416446Y-67072292D01*
X97451005Y-67053820D01*
X97488501Y-67042445D01*
X97533638Y-67038000D01*
X98272362Y-67038000D01*
X98317499Y-67042445D01*
G37*
G36*
X96567499Y-67042445D02*
G01*
X96604995Y-67053820D01*
X96639554Y-67072292D01*
X96669847Y-67097153D01*
X96694708Y-67127446D01*
X96713180Y-67162005D01*
X96724555Y-67199501D01*
X96729000Y-67244638D01*
X96729000Y-67883362D01*
X96724555Y-67928499D01*
X96713180Y-67965995D01*
X96694708Y-68000554D01*
X96669847Y-68030847D01*
X96639554Y-68055708D01*
X96604995Y-68074180D01*
X96567499Y-68085555D01*
X96522362Y-68090000D01*
X95783638Y-68090000D01*
X95738501Y-68085555D01*
X95701005Y-68074180D01*
X95666446Y-68055708D01*
X95636153Y-68030847D01*
X95611292Y-68000554D01*
X95592820Y-67965995D01*
X95581445Y-67928499D01*
X95577000Y-67883362D01*
X95577000Y-67244638D01*
X95581445Y-67199501D01*
X95592820Y-67162005D01*
X95611292Y-67127446D01*
X95636153Y-67097153D01*
X95666446Y-67072292D01*
X95701005Y-67053820D01*
X95738501Y-67042445D01*
X95783638Y-67038000D01*
X96522362Y-67038000D01*
X96567499Y-67042445D01*
G37*
G36*
X120927395Y-65125546D02*
G01*
X121100466Y-65197234D01*
X121177818Y-65248919D01*
X121256227Y-65301310D01*
X121388690Y-65433773D01*
X121388691Y-65433775D01*
X121492766Y-65589534D01*
X121564454Y-65762605D01*
X121601000Y-65946333D01*
X121601000Y-66133667D01*
X121564454Y-66317395D01*
X121492766Y-66490466D01*
X121492765Y-66490467D01*
X121388690Y-66646227D01*
X121256227Y-66778690D01*
X121193435Y-66820646D01*
X121100466Y-66882766D01*
X120927395Y-66954454D01*
X120743667Y-66991000D01*
X120556333Y-66991000D01*
X120372605Y-66954454D01*
X120199534Y-66882766D01*
X120106565Y-66820646D01*
X120043773Y-66778690D01*
X119911310Y-66646227D01*
X119807235Y-66490467D01*
X119807234Y-66490466D01*
X119735546Y-66317395D01*
X119699000Y-66133667D01*
X119699000Y-65946333D01*
X119735546Y-65762605D01*
X119807234Y-65589534D01*
X119911309Y-65433775D01*
X119911310Y-65433773D01*
X120043773Y-65301310D01*
X120122182Y-65248919D01*
X120199534Y-65197234D01*
X120372605Y-65125546D01*
X120556333Y-65089000D01*
X120743667Y-65089000D01*
X120927395Y-65125546D01*
G37*
G36*
X109076499Y-65835445D02*
G01*
X109113995Y-65846820D01*
X109148554Y-65865292D01*
X109178847Y-65890153D01*
X109203708Y-65920446D01*
X109222180Y-65955005D01*
X109233555Y-65992501D01*
X109238000Y-66037638D01*
X109238000Y-66776362D01*
X109233555Y-66821499D01*
X109222180Y-66858995D01*
X109203708Y-66893554D01*
X109178847Y-66923847D01*
X109148554Y-66948708D01*
X109113995Y-66967180D01*
X109076499Y-66978555D01*
X109031362Y-66983000D01*
X108392638Y-66983000D01*
X108347501Y-66978555D01*
X108310005Y-66967180D01*
X108275446Y-66948708D01*
X108245153Y-66923847D01*
X108220292Y-66893554D01*
X108201820Y-66858995D01*
X108190445Y-66821499D01*
X108186000Y-66776362D01*
X108186000Y-66037638D01*
X108190445Y-65992501D01*
X108201820Y-65955005D01*
X108220292Y-65920446D01*
X108245153Y-65890153D01*
X108275446Y-65865292D01*
X108310005Y-65846820D01*
X108347501Y-65835445D01*
X108392638Y-65831000D01*
X109031362Y-65831000D01*
X109076499Y-65835445D01*
G37*
G36*
X111616499Y-65835445D02*
G01*
X111653995Y-65846820D01*
X111688554Y-65865292D01*
X111718847Y-65890153D01*
X111743708Y-65920446D01*
X111762180Y-65955005D01*
X111773555Y-65992501D01*
X111778000Y-66037638D01*
X111778000Y-66776362D01*
X111773555Y-66821499D01*
X111762180Y-66858995D01*
X111743708Y-66893554D01*
X111718847Y-66923847D01*
X111688554Y-66948708D01*
X111653995Y-66967180D01*
X111616499Y-66978555D01*
X111571362Y-66983000D01*
X110932638Y-66983000D01*
X110887501Y-66978555D01*
X110850005Y-66967180D01*
X110815446Y-66948708D01*
X110785153Y-66923847D01*
X110760292Y-66893554D01*
X110741820Y-66858995D01*
X110730445Y-66821499D01*
X110726000Y-66776362D01*
X110726000Y-66037638D01*
X110730445Y-65992501D01*
X110741820Y-65955005D01*
X110760292Y-65920446D01*
X110785153Y-65890153D01*
X110815446Y-65865292D01*
X110850005Y-65846820D01*
X110887501Y-65835445D01*
X110932638Y-65831000D01*
X111571362Y-65831000D01*
X111616499Y-65835445D01*
G37*
G36*
X116445512Y-64381927D02*
G01*
X116594812Y-64411624D01*
X116758784Y-64479544D01*
X116906354Y-64578147D01*
X117031853Y-64703646D01*
X117130456Y-64851216D01*
X117198376Y-65015188D01*
X117218451Y-65116115D01*
X117229935Y-65173847D01*
X117233000Y-65189259D01*
X117233000Y-65366741D01*
X117198376Y-65540812D01*
X117130456Y-65704784D01*
X117031853Y-65852354D01*
X116906354Y-65977853D01*
X116758784Y-66076456D01*
X116594812Y-66144376D01*
X116445512Y-66174073D01*
X116420742Y-66179000D01*
X116243258Y-66179000D01*
X116218488Y-66174073D01*
X116069188Y-66144376D01*
X115905216Y-66076456D01*
X115757646Y-65977853D01*
X115632147Y-65852354D01*
X115533544Y-65704784D01*
X115465624Y-65540812D01*
X115431000Y-65366741D01*
X115431000Y-65189259D01*
X115434066Y-65173847D01*
X115445549Y-65116115D01*
X115465624Y-65015188D01*
X115533544Y-64851216D01*
X115632147Y-64703646D01*
X115757646Y-64578147D01*
X115905216Y-64479544D01*
X116069188Y-64411624D01*
X116218488Y-64381927D01*
X116243258Y-64377000D01*
X116420742Y-64377000D01*
X116445512Y-64381927D01*
G37*
G36*
X98317499Y-64883445D02*
G01*
X98354995Y-64894820D01*
X98389554Y-64913292D01*
X98419847Y-64938153D01*
X98444708Y-64968446D01*
X98463180Y-65003005D01*
X98474555Y-65040501D01*
X98479000Y-65085638D01*
X98479000Y-65724362D01*
X98474555Y-65769499D01*
X98463180Y-65806995D01*
X98444708Y-65841554D01*
X98419847Y-65871847D01*
X98389554Y-65896708D01*
X98354995Y-65915180D01*
X98317499Y-65926555D01*
X98272362Y-65931000D01*
X97533638Y-65931000D01*
X97488501Y-65926555D01*
X97451005Y-65915180D01*
X97416446Y-65896708D01*
X97386153Y-65871847D01*
X97361292Y-65841554D01*
X97342820Y-65806995D01*
X97331445Y-65769499D01*
X97327000Y-65724362D01*
X97327000Y-65085638D01*
X97331445Y-65040501D01*
X97342820Y-65003005D01*
X97361292Y-64968446D01*
X97386153Y-64938153D01*
X97416446Y-64913292D01*
X97451005Y-64894820D01*
X97488501Y-64883445D01*
X97533638Y-64879000D01*
X98272362Y-64879000D01*
X98317499Y-64883445D01*
G37*
G36*
X96567499Y-64883445D02*
G01*
X96604995Y-64894820D01*
X96639554Y-64913292D01*
X96669847Y-64938153D01*
X96694708Y-64968446D01*
X96713180Y-65003005D01*
X96724555Y-65040501D01*
X96729000Y-65085638D01*
X96729000Y-65724362D01*
X96724555Y-65769499D01*
X96713180Y-65806995D01*
X96694708Y-65841554D01*
X96669847Y-65871847D01*
X96639554Y-65896708D01*
X96604995Y-65915180D01*
X96567499Y-65926555D01*
X96522362Y-65931000D01*
X95783638Y-65931000D01*
X95738501Y-65926555D01*
X95701005Y-65915180D01*
X95666446Y-65896708D01*
X95636153Y-65871847D01*
X95611292Y-65841554D01*
X95592820Y-65806995D01*
X95581445Y-65769499D01*
X95577000Y-65724362D01*
X95577000Y-65085638D01*
X95581445Y-65040501D01*
X95592820Y-65003005D01*
X95611292Y-64968446D01*
X95636153Y-64938153D01*
X95666446Y-64913292D01*
X95701005Y-64894820D01*
X95738501Y-64883445D01*
X95783638Y-64879000D01*
X96522362Y-64879000D01*
X96567499Y-64883445D01*
G37*
G36*
X81119487Y-63222996D02*
G01*
X81356253Y-63321068D01*
X81356255Y-63321069D01*
X81569339Y-63463447D01*
X81750553Y-63644661D01*
X81892932Y-63857747D01*
X81991004Y-64094513D01*
X82041000Y-64345861D01*
X82041000Y-64602139D01*
X81991004Y-64853487D01*
X81893451Y-65089000D01*
X81892931Y-65090255D01*
X81750553Y-65303339D01*
X81569339Y-65484553D01*
X81356255Y-65626931D01*
X81356254Y-65626932D01*
X81356253Y-65626932D01*
X81119487Y-65725004D01*
X80868139Y-65775000D01*
X80611861Y-65775000D01*
X80360513Y-65725004D01*
X80123747Y-65626932D01*
X80123746Y-65626932D01*
X80123745Y-65626931D01*
X79910661Y-65484553D01*
X79729447Y-65303339D01*
X79587069Y-65090255D01*
X79586549Y-65089000D01*
X79488996Y-64853487D01*
X79439000Y-64602139D01*
X79439000Y-64345861D01*
X79488996Y-64094513D01*
X79587068Y-63857747D01*
X79729447Y-63644661D01*
X79910661Y-63463447D01*
X80123745Y-63321069D01*
X80123747Y-63321068D01*
X80360513Y-63222996D01*
X80611861Y-63173000D01*
X80868139Y-63173000D01*
X81119487Y-63222996D01*
G37*
G36*
X137908512Y-63873927D02*
G01*
X138057812Y-63903624D01*
X138221784Y-63971544D01*
X138369354Y-64070147D01*
X138494853Y-64195646D01*
X138593456Y-64343216D01*
X138661376Y-64507188D01*
X138696000Y-64681259D01*
X138696000Y-64858741D01*
X138661376Y-65032812D01*
X138593456Y-65196784D01*
X138494853Y-65344354D01*
X138369354Y-65469853D01*
X138221784Y-65568456D01*
X138057812Y-65636376D01*
X137908512Y-65666073D01*
X137883742Y-65671000D01*
X137706258Y-65671000D01*
X137681488Y-65666073D01*
X137532188Y-65636376D01*
X137368216Y-65568456D01*
X137220646Y-65469853D01*
X137095147Y-65344354D01*
X136996544Y-65196784D01*
X136928624Y-65032812D01*
X136894000Y-64858741D01*
X136894000Y-64681259D01*
X136928624Y-64507188D01*
X136996544Y-64343216D01*
X137095147Y-64195646D01*
X137220646Y-64070147D01*
X137368216Y-63971544D01*
X137532188Y-63903624D01*
X137681488Y-63873927D01*
X137706258Y-63869000D01*
X137883742Y-63869000D01*
X137908512Y-63873927D01*
G37*
G36*
X109076499Y-64085445D02*
G01*
X109113995Y-64096820D01*
X109148554Y-64115292D01*
X109178847Y-64140153D01*
X109203708Y-64170446D01*
X109222180Y-64205005D01*
X109233555Y-64242501D01*
X109238000Y-64287638D01*
X109238000Y-65026362D01*
X109233555Y-65071499D01*
X109222180Y-65108995D01*
X109203708Y-65143554D01*
X109178847Y-65173847D01*
X109148554Y-65198708D01*
X109113995Y-65217180D01*
X109076499Y-65228555D01*
X109031362Y-65233000D01*
X108392638Y-65233000D01*
X108347501Y-65228555D01*
X108310005Y-65217180D01*
X108275446Y-65198708D01*
X108245153Y-65173847D01*
X108220292Y-65143554D01*
X108201820Y-65108995D01*
X108190445Y-65071499D01*
X108186000Y-65026362D01*
X108186000Y-64287638D01*
X108190445Y-64242501D01*
X108201820Y-64205005D01*
X108220292Y-64170446D01*
X108245153Y-64140153D01*
X108275446Y-64115292D01*
X108310005Y-64096820D01*
X108347501Y-64085445D01*
X108392638Y-64081000D01*
X109031362Y-64081000D01*
X109076499Y-64085445D01*
G37*
G36*
X111616499Y-64085445D02*
G01*
X111653995Y-64096820D01*
X111688554Y-64115292D01*
X111718847Y-64140153D01*
X111743708Y-64170446D01*
X111762180Y-64205005D01*
X111773555Y-64242501D01*
X111778000Y-64287638D01*
X111778000Y-65026362D01*
X111773555Y-65071499D01*
X111762180Y-65108995D01*
X111743708Y-65143554D01*
X111718847Y-65173847D01*
X111688554Y-65198708D01*
X111653995Y-65217180D01*
X111616499Y-65228555D01*
X111571362Y-65233000D01*
X110932638Y-65233000D01*
X110887501Y-65228555D01*
X110850005Y-65217180D01*
X110815446Y-65198708D01*
X110785153Y-65173847D01*
X110760292Y-65143554D01*
X110741820Y-65108995D01*
X110730445Y-65071499D01*
X110726000Y-65026362D01*
X110726000Y-64287638D01*
X110730445Y-64242501D01*
X110741820Y-64205005D01*
X110760292Y-64170446D01*
X110785153Y-64140153D01*
X110815446Y-64115292D01*
X110850005Y-64096820D01*
X110887501Y-64085445D01*
X110932638Y-64081000D01*
X111571362Y-64081000D01*
X111616499Y-64085445D01*
G37*
G36*
X117233000Y-63639000D02*
G01*
X115431000Y-63639000D01*
X115431000Y-61837000D01*
X117233000Y-61837000D01*
X117233000Y-63639000D01*
G37*
G36*
X137908512Y-61333927D02*
G01*
X138057812Y-61363624D01*
X138221784Y-61431544D01*
X138369354Y-61530147D01*
X138494853Y-61655646D01*
X138593456Y-61803216D01*
X138661376Y-61967188D01*
X138696000Y-62141259D01*
X138696000Y-62318741D01*
X138661376Y-62492812D01*
X138593456Y-62656784D01*
X138494853Y-62804354D01*
X138369354Y-62929853D01*
X138221784Y-63028456D01*
X138057812Y-63096376D01*
X137908512Y-63126073D01*
X137883742Y-63131000D01*
X137706258Y-63131000D01*
X137681488Y-63126073D01*
X137532188Y-63096376D01*
X137368216Y-63028456D01*
X137220646Y-62929853D01*
X137095147Y-62804354D01*
X136996544Y-62656784D01*
X136928624Y-62492812D01*
X136894000Y-62318741D01*
X136894000Y-62141259D01*
X136928624Y-61967188D01*
X136996544Y-61803216D01*
X137095147Y-61655646D01*
X137220646Y-61530147D01*
X137368216Y-61431544D01*
X137532188Y-61363624D01*
X137681488Y-61333927D01*
X137706258Y-61329000D01*
X137883742Y-61329000D01*
X137908512Y-61333927D01*
G37*
G36*
X106293228Y-61411703D02*
G01*
X106448100Y-61475853D01*
X106587481Y-61568985D01*
X106706015Y-61687519D01*
X106799147Y-61826900D01*
X106863297Y-61981772D01*
X106896000Y-62146184D01*
X106896000Y-62313816D01*
X106863297Y-62478228D01*
X106799147Y-62633100D01*
X106706015Y-62772481D01*
X106587481Y-62891015D01*
X106448100Y-62984147D01*
X106293228Y-63048297D01*
X106128816Y-63081000D01*
X105961184Y-63081000D01*
X105796772Y-63048297D01*
X105641900Y-62984147D01*
X105502519Y-62891015D01*
X105383985Y-62772481D01*
X105290853Y-62633100D01*
X105226703Y-62478228D01*
X105194000Y-62313816D01*
X105194000Y-62146184D01*
X105226703Y-61981772D01*
X105290853Y-61826900D01*
X105383985Y-61687519D01*
X105502519Y-61568985D01*
X105641900Y-61475853D01*
X105796772Y-61411703D01*
X105961184Y-61379000D01*
X106128816Y-61379000D01*
X106293228Y-61411703D01*
G37*
G36*
X101213228Y-61411703D02*
G01*
X101368100Y-61475853D01*
X101507481Y-61568985D01*
X101626015Y-61687519D01*
X101719147Y-61826900D01*
X101783297Y-61981772D01*
X101816000Y-62146184D01*
X101816000Y-62313816D01*
X101783297Y-62478228D01*
X101719147Y-62633100D01*
X101626015Y-62772481D01*
X101507481Y-62891015D01*
X101368100Y-62984147D01*
X101213228Y-63048297D01*
X101048816Y-63081000D01*
X100881184Y-63081000D01*
X100716772Y-63048297D01*
X100561900Y-62984147D01*
X100422519Y-62891015D01*
X100303985Y-62772481D01*
X100210853Y-62633100D01*
X100146703Y-62478228D01*
X100114000Y-62313816D01*
X100114000Y-62146184D01*
X100146703Y-61981772D01*
X100210853Y-61826900D01*
X100303985Y-61687519D01*
X100422519Y-61568985D01*
X100561900Y-61475853D01*
X100716772Y-61411703D01*
X100881184Y-61379000D01*
X101048816Y-61379000D01*
X101213228Y-61411703D01*
G37*
G36*
X103753228Y-61411703D02*
G01*
X103908100Y-61475853D01*
X104047481Y-61568985D01*
X104166015Y-61687519D01*
X104259147Y-61826900D01*
X104323297Y-61981772D01*
X104356000Y-62146184D01*
X104356000Y-62313816D01*
X104323297Y-62478228D01*
X104259147Y-62633100D01*
X104166015Y-62772481D01*
X104047481Y-62891015D01*
X103908100Y-62984147D01*
X103753228Y-63048297D01*
X103588816Y-63081000D01*
X103421184Y-63081000D01*
X103256772Y-63048297D01*
X103101900Y-62984147D01*
X102962519Y-62891015D01*
X102843985Y-62772481D01*
X102750853Y-62633100D01*
X102686703Y-62478228D01*
X102654000Y-62313816D01*
X102654000Y-62146184D01*
X102686703Y-61981772D01*
X102750853Y-61826900D01*
X102843985Y-61687519D01*
X102962519Y-61568985D01*
X103101900Y-61475853D01*
X103256772Y-61411703D01*
X103421184Y-61379000D01*
X103588816Y-61379000D01*
X103753228Y-61411703D01*
G37*
G36*
X109436000Y-63081000D02*
G01*
X107734000Y-63081000D01*
X107734000Y-61379000D01*
X109436000Y-61379000D01*
X109436000Y-63081000D01*
G37*
G36*
X140699499Y-61898445D02*
G01*
X140736995Y-61909820D01*
X140771554Y-61928292D01*
X140801847Y-61953153D01*
X140826708Y-61983446D01*
X140845180Y-62018005D01*
X140856555Y-62055501D01*
X140861000Y-62100638D01*
X140861000Y-62839362D01*
X140856555Y-62884499D01*
X140845180Y-62921995D01*
X140826708Y-62956554D01*
X140801847Y-62986847D01*
X140771554Y-63011708D01*
X140736995Y-63030180D01*
X140699499Y-63041555D01*
X140654362Y-63046000D01*
X140015638Y-63046000D01*
X139970501Y-63041555D01*
X139933005Y-63030180D01*
X139898446Y-63011708D01*
X139868153Y-62986847D01*
X139843292Y-62956554D01*
X139824820Y-62921995D01*
X139813445Y-62884499D01*
X139809000Y-62839362D01*
X139809000Y-62100638D01*
X139813445Y-62055501D01*
X139824820Y-62018005D01*
X139843292Y-61983446D01*
X139868153Y-61953153D01*
X139898446Y-61928292D01*
X139933005Y-61909820D01*
X139970501Y-61898445D01*
X140015638Y-61894000D01*
X140654362Y-61894000D01*
X140699499Y-61898445D01*
G37*
G36*
X87619487Y-60422996D02*
G01*
X87856253Y-60521068D01*
X87856255Y-60521069D01*
X87960914Y-60591000D01*
X88069339Y-60663447D01*
X88250553Y-60844661D01*
X88392932Y-61057747D01*
X88491004Y-61294513D01*
X88541000Y-61545861D01*
X88541000Y-61802139D01*
X88491004Y-62053487D01*
X88452607Y-62146185D01*
X88392931Y-62290255D01*
X88250553Y-62503339D01*
X88069339Y-62684553D01*
X87856255Y-62826931D01*
X87856254Y-62826932D01*
X87856253Y-62826932D01*
X87619487Y-62925004D01*
X87368139Y-62975000D01*
X87111861Y-62975000D01*
X86860513Y-62925004D01*
X86623747Y-62826932D01*
X86623746Y-62826932D01*
X86623745Y-62826931D01*
X86410661Y-62684553D01*
X86229447Y-62503339D01*
X86087069Y-62290255D01*
X86027393Y-62146185D01*
X85988996Y-62053487D01*
X85939000Y-61802139D01*
X85939000Y-61545861D01*
X85988996Y-61294513D01*
X86087068Y-61057747D01*
X86229447Y-60844661D01*
X86410661Y-60663447D01*
X86519086Y-60591000D01*
X86623745Y-60521069D01*
X86623747Y-60521068D01*
X86860513Y-60422996D01*
X87111861Y-60373000D01*
X87368139Y-60373000D01*
X87619487Y-60422996D01*
G37*
G36*
X126032585Y-59438802D02*
G01*
X126182410Y-59468604D01*
X126464674Y-59585521D01*
X126718705Y-59755259D01*
X126934741Y-59971295D01*
X127104479Y-60225326D01*
X127213470Y-60488456D01*
X127221396Y-60507591D01*
X127281000Y-60807239D01*
X127281000Y-61112761D01*
X127267801Y-61179115D01*
X127221396Y-61412410D01*
X127104479Y-61694674D01*
X126934741Y-61948705D01*
X126718705Y-62164741D01*
X126464674Y-62334479D01*
X126182410Y-62451396D01*
X126047516Y-62478228D01*
X125882761Y-62511000D01*
X125577239Y-62511000D01*
X125412484Y-62478228D01*
X125277590Y-62451396D01*
X124995326Y-62334479D01*
X124741295Y-62164741D01*
X124525259Y-61948705D01*
X124355521Y-61694674D01*
X124238604Y-61412410D01*
X124192199Y-61179115D01*
X124179000Y-61112761D01*
X124179000Y-60807239D01*
X124238604Y-60507591D01*
X124246530Y-60488456D01*
X124355521Y-60225326D01*
X124525259Y-59971295D01*
X124741295Y-59755259D01*
X124995326Y-59585521D01*
X125277590Y-59468604D01*
X125427415Y-59438802D01*
X125577239Y-59409000D01*
X125882761Y-59409000D01*
X126032585Y-59438802D01*
G37*
G36*
X133652585Y-59438802D02*
G01*
X133802410Y-59468604D01*
X134084674Y-59585521D01*
X134338705Y-59755259D01*
X134554741Y-59971295D01*
X134724479Y-60225326D01*
X134833470Y-60488456D01*
X134841396Y-60507591D01*
X134901000Y-60807239D01*
X134901000Y-61112761D01*
X134887801Y-61179115D01*
X134841396Y-61412410D01*
X134724479Y-61694674D01*
X134554741Y-61948705D01*
X134338705Y-62164741D01*
X134084674Y-62334479D01*
X133802410Y-62451396D01*
X133667516Y-62478228D01*
X133502761Y-62511000D01*
X133197239Y-62511000D01*
X133032484Y-62478228D01*
X132897590Y-62451396D01*
X132615326Y-62334479D01*
X132361295Y-62164741D01*
X132145259Y-61948705D01*
X131975521Y-61694674D01*
X131858604Y-61412410D01*
X131812199Y-61179115D01*
X131799000Y-61112761D01*
X131799000Y-60807239D01*
X131858604Y-60507591D01*
X131866530Y-60488456D01*
X131975521Y-60225326D01*
X132145259Y-59971295D01*
X132361295Y-59755259D01*
X132615326Y-59585521D01*
X132897590Y-59468604D01*
X133047415Y-59438802D01*
X133197239Y-59409000D01*
X133502761Y-59409000D01*
X133652585Y-59438802D01*
G37*
G36*
X140699499Y-60148445D02*
G01*
X140736995Y-60159820D01*
X140771554Y-60178292D01*
X140801847Y-60203153D01*
X140826708Y-60233446D01*
X140845180Y-60268005D01*
X140856555Y-60305501D01*
X140861000Y-60350638D01*
X140861000Y-61089362D01*
X140856555Y-61134499D01*
X140845180Y-61171995D01*
X140826708Y-61206554D01*
X140801847Y-61236847D01*
X140771554Y-61261708D01*
X140736995Y-61280180D01*
X140699499Y-61291555D01*
X140654362Y-61296000D01*
X140015638Y-61296000D01*
X139970501Y-61291555D01*
X139933005Y-61280180D01*
X139898446Y-61261708D01*
X139868153Y-61236847D01*
X139843292Y-61206554D01*
X139824820Y-61171995D01*
X139813445Y-61134499D01*
X139809000Y-61089362D01*
X139809000Y-60350638D01*
X139813445Y-60305501D01*
X139824820Y-60268005D01*
X139843292Y-60233446D01*
X139868153Y-60203153D01*
X139898446Y-60178292D01*
X139933005Y-60159820D01*
X139970501Y-60148445D01*
X140015638Y-60144000D01*
X140654362Y-60144000D01*
X140699499Y-60148445D01*
G37*
G36*
X89319487Y-58122996D02*
G01*
X89556253Y-58221068D01*
X89556255Y-58221069D01*
X89769339Y-58363447D01*
X89950553Y-58544661D01*
X90092932Y-58757747D01*
X90191004Y-58994513D01*
X90241000Y-59245861D01*
X90241000Y-59502139D01*
X90191004Y-59753487D01*
X90100784Y-59971296D01*
X90092931Y-59990255D01*
X89950553Y-60203339D01*
X89769339Y-60384553D01*
X89556255Y-60526931D01*
X89556254Y-60526932D01*
X89556253Y-60526932D01*
X89319487Y-60625004D01*
X89068139Y-60675000D01*
X88811861Y-60675000D01*
X88560513Y-60625004D01*
X88323747Y-60526932D01*
X88323746Y-60526932D01*
X88323745Y-60526931D01*
X88110661Y-60384553D01*
X87929447Y-60203339D01*
X87787069Y-59990255D01*
X87779216Y-59971296D01*
X87688996Y-59753487D01*
X87639000Y-59502139D01*
X87639000Y-59245861D01*
X87688996Y-58994513D01*
X87787068Y-58757747D01*
X87929447Y-58544661D01*
X88110661Y-58363447D01*
X88323745Y-58221069D01*
X88323747Y-58221068D01*
X88560513Y-58122996D01*
X88811861Y-58073000D01*
X89068139Y-58073000D01*
X89319487Y-58122996D01*
G37*
G36*
X137908512Y-58793927D02*
G01*
X138057812Y-58823624D01*
X138221784Y-58891544D01*
X138369354Y-58990147D01*
X138494853Y-59115646D01*
X138593456Y-59263216D01*
X138661376Y-59427188D01*
X138696000Y-59601259D01*
X138696000Y-59778741D01*
X138661376Y-59952812D01*
X138593456Y-60116784D01*
X138494853Y-60264354D01*
X138369354Y-60389853D01*
X138221784Y-60488456D01*
X138057812Y-60556376D01*
X137908512Y-60586073D01*
X137883742Y-60591000D01*
X137706258Y-60591000D01*
X137681488Y-60586073D01*
X137532188Y-60556376D01*
X137368216Y-60488456D01*
X137220646Y-60389853D01*
X137095147Y-60264354D01*
X136996544Y-60116784D01*
X136928624Y-59952812D01*
X136894000Y-59778741D01*
X136894000Y-59601259D01*
X136928624Y-59427188D01*
X136996544Y-59263216D01*
X137095147Y-59115646D01*
X137220646Y-58990147D01*
X137368216Y-58891544D01*
X137532188Y-58823624D01*
X137681488Y-58793927D01*
X137706258Y-58789000D01*
X137883742Y-58789000D01*
X137908512Y-58793927D01*
G37*
G36*
X108477499Y-58914445D02*
G01*
X108514995Y-58925820D01*
X108549554Y-58944292D01*
X108579847Y-58969153D01*
X108604708Y-58999446D01*
X108623180Y-59034005D01*
X108634555Y-59071501D01*
X108639000Y-59116638D01*
X108639000Y-59755362D01*
X108634555Y-59800499D01*
X108623180Y-59837995D01*
X108604708Y-59872554D01*
X108579847Y-59902847D01*
X108549554Y-59927708D01*
X108514995Y-59946180D01*
X108477499Y-59957555D01*
X108432362Y-59962000D01*
X107693638Y-59962000D01*
X107648501Y-59957555D01*
X107611005Y-59946180D01*
X107576446Y-59927708D01*
X107546153Y-59902847D01*
X107521292Y-59872554D01*
X107502820Y-59837995D01*
X107491445Y-59800499D01*
X107487000Y-59755362D01*
X107487000Y-59116638D01*
X107491445Y-59071501D01*
X107502820Y-59034005D01*
X107521292Y-58999446D01*
X107546153Y-58969153D01*
X107576446Y-58944292D01*
X107611005Y-58925820D01*
X107648501Y-58914445D01*
X107693638Y-58910000D01*
X108432362Y-58910000D01*
X108477499Y-58914445D01*
G37*
G36*
X106727499Y-58914445D02*
G01*
X106764995Y-58925820D01*
X106799554Y-58944292D01*
X106829847Y-58969153D01*
X106854708Y-58999446D01*
X106873180Y-59034005D01*
X106884555Y-59071501D01*
X106889000Y-59116638D01*
X106889000Y-59755362D01*
X106884555Y-59800499D01*
X106873180Y-59837995D01*
X106854708Y-59872554D01*
X106829847Y-59902847D01*
X106799554Y-59927708D01*
X106764995Y-59946180D01*
X106727499Y-59957555D01*
X106682362Y-59962000D01*
X105943638Y-59962000D01*
X105898501Y-59957555D01*
X105861005Y-59946180D01*
X105826446Y-59927708D01*
X105796153Y-59902847D01*
X105771292Y-59872554D01*
X105752820Y-59837995D01*
X105741445Y-59800499D01*
X105737000Y-59755362D01*
X105737000Y-59116638D01*
X105741445Y-59071501D01*
X105752820Y-59034005D01*
X105771292Y-58999446D01*
X105796153Y-58969153D01*
X105826446Y-58944292D01*
X105861005Y-58925820D01*
X105898501Y-58914445D01*
X105943638Y-58910000D01*
X106682362Y-58910000D01*
X106727499Y-58914445D01*
G37*
G36*
X121601000Y-59371000D02*
G01*
X119699000Y-59371000D01*
X119699000Y-57469000D01*
X121601000Y-57469000D01*
X121601000Y-59371000D01*
G37*
G36*
X137908512Y-56253927D02*
G01*
X138057812Y-56283624D01*
X138221784Y-56351544D01*
X138369354Y-56450147D01*
X138494853Y-56575646D01*
X138593456Y-56723216D01*
X138661376Y-56887188D01*
X138696000Y-57061259D01*
X138696000Y-57238741D01*
X138661376Y-57412812D01*
X138593456Y-57576784D01*
X138494853Y-57724354D01*
X138369354Y-57849853D01*
X138221784Y-57948456D01*
X138057812Y-58016376D01*
X137908512Y-58046073D01*
X137883742Y-58051000D01*
X137706258Y-58051000D01*
X137681488Y-58046073D01*
X137532188Y-58016376D01*
X137368216Y-57948456D01*
X137220646Y-57849853D01*
X137095147Y-57724354D01*
X136996544Y-57576784D01*
X136928624Y-57412812D01*
X136894000Y-57238741D01*
X136894000Y-57061259D01*
X136928624Y-56887188D01*
X136996544Y-56723216D01*
X137095147Y-56575646D01*
X137220646Y-56450147D01*
X137368216Y-56351544D01*
X137532188Y-56283624D01*
X137681488Y-56253927D01*
X137706258Y-56249000D01*
X137883742Y-56249000D01*
X137908512Y-56253927D01*
G37*
G36*
X94863228Y-56291703D02*
G01*
X95018100Y-56355853D01*
X95157481Y-56448985D01*
X95276015Y-56567519D01*
X95369147Y-56706900D01*
X95433297Y-56861772D01*
X95466000Y-57026184D01*
X95466000Y-57193816D01*
X95433297Y-57358228D01*
X95369147Y-57513100D01*
X95276015Y-57652481D01*
X95157481Y-57771015D01*
X95018100Y-57864147D01*
X94863228Y-57928297D01*
X94698816Y-57961000D01*
X94531184Y-57961000D01*
X94366772Y-57928297D01*
X94211900Y-57864147D01*
X94072519Y-57771015D01*
X93953985Y-57652481D01*
X93860853Y-57513100D01*
X93796703Y-57358228D01*
X93764000Y-57193816D01*
X93764000Y-57026184D01*
X93796703Y-56861772D01*
X93860853Y-56706900D01*
X93953985Y-56567519D01*
X94072519Y-56448985D01*
X94211900Y-56355853D01*
X94366772Y-56291703D01*
X94531184Y-56259000D01*
X94698816Y-56259000D01*
X94863228Y-56291703D01*
G37*
G36*
X117579769Y-54347188D02*
G01*
X117737812Y-54378624D01*
X117901784Y-54446544D01*
X118049354Y-54545147D01*
X118174853Y-54670646D01*
X118273456Y-54818216D01*
X118341376Y-54982188D01*
X118376000Y-55156259D01*
X118376000Y-55333741D01*
X118341376Y-55507812D01*
X118273456Y-55671784D01*
X118174853Y-55819354D01*
X118049354Y-55944853D01*
X117901784Y-56043456D01*
X117737812Y-56111376D01*
X117588512Y-56141073D01*
X117563742Y-56146000D01*
X117386258Y-56146000D01*
X117361488Y-56141073D01*
X117212188Y-56111376D01*
X117048216Y-56043456D01*
X116900646Y-55944853D01*
X116775147Y-55819354D01*
X116676544Y-55671784D01*
X116608624Y-55507812D01*
X116574000Y-55333741D01*
X116574000Y-55156259D01*
X116608624Y-54982188D01*
X116676544Y-54818216D01*
X116775147Y-54670646D01*
X116900646Y-54545147D01*
X117048216Y-54446544D01*
X117212188Y-54378624D01*
X117370231Y-54347188D01*
X117386258Y-54344000D01*
X117563742Y-54344000D01*
X117579769Y-54347188D01*
G37*
G36*
X115039769Y-54347188D02*
G01*
X115197812Y-54378624D01*
X115361784Y-54446544D01*
X115509354Y-54545147D01*
X115634853Y-54670646D01*
X115733456Y-54818216D01*
X115801376Y-54982188D01*
X115836000Y-55156259D01*
X115836000Y-55333741D01*
X115801376Y-55507812D01*
X115733456Y-55671784D01*
X115634853Y-55819354D01*
X115509354Y-55944853D01*
X115361784Y-56043456D01*
X115197812Y-56111376D01*
X115048512Y-56141073D01*
X115023742Y-56146000D01*
X114846258Y-56146000D01*
X114821488Y-56141073D01*
X114672188Y-56111376D01*
X114508216Y-56043456D01*
X114360646Y-55944853D01*
X114235147Y-55819354D01*
X114136544Y-55671784D01*
X114068624Y-55507812D01*
X114034000Y-55333741D01*
X114034000Y-55156259D01*
X114068624Y-54982188D01*
X114136544Y-54818216D01*
X114235147Y-54670646D01*
X114360646Y-54545147D01*
X114508216Y-54446544D01*
X114672188Y-54378624D01*
X114830231Y-54347188D01*
X114846258Y-54344000D01*
X115023742Y-54344000D01*
X115039769Y-54347188D01*
G37*
G36*
X120916000Y-56146000D02*
G01*
X119114000Y-56146000D01*
X119114000Y-54344000D01*
X120916000Y-54344000D01*
X120916000Y-56146000D01*
G37*
G36*
X112499769Y-54347188D02*
G01*
X112657812Y-54378624D01*
X112821784Y-54446544D01*
X112969354Y-54545147D01*
X113094853Y-54670646D01*
X113193456Y-54818216D01*
X113261376Y-54982188D01*
X113296000Y-55156259D01*
X113296000Y-55333741D01*
X113261376Y-55507812D01*
X113193456Y-55671784D01*
X113094853Y-55819354D01*
X112969354Y-55944853D01*
X112821784Y-56043456D01*
X112657812Y-56111376D01*
X112508512Y-56141073D01*
X112483742Y-56146000D01*
X112306258Y-56146000D01*
X112281488Y-56141073D01*
X112132188Y-56111376D01*
X111968216Y-56043456D01*
X111820646Y-55944853D01*
X111695147Y-55819354D01*
X111596544Y-55671784D01*
X111528624Y-55507812D01*
X111494000Y-55333741D01*
X111494000Y-55156259D01*
X111528624Y-54982188D01*
X111596544Y-54818216D01*
X111695147Y-54670646D01*
X111820646Y-54545147D01*
X111968216Y-54446544D01*
X112132188Y-54378624D01*
X112290231Y-54347188D01*
X112306258Y-54344000D01*
X112483742Y-54344000D01*
X112499769Y-54347188D01*
G37*
G36*
X137908512Y-53713927D02*
G01*
X138057812Y-53743624D01*
X138221784Y-53811544D01*
X138369354Y-53910147D01*
X138494853Y-54035646D01*
X138593456Y-54183216D01*
X138661376Y-54347188D01*
X138696000Y-54521259D01*
X138696000Y-54698741D01*
X138661376Y-54872812D01*
X138593456Y-55036784D01*
X138494853Y-55184354D01*
X138369354Y-55309853D01*
X138221784Y-55408456D01*
X138057812Y-55476376D01*
X137908512Y-55506073D01*
X137883742Y-55511000D01*
X137706258Y-55511000D01*
X137681488Y-55506073D01*
X137532188Y-55476376D01*
X137368216Y-55408456D01*
X137220646Y-55309853D01*
X137095147Y-55184354D01*
X136996544Y-55036784D01*
X136928624Y-54872812D01*
X136894000Y-54698741D01*
X136894000Y-54521259D01*
X136928624Y-54347188D01*
X136996544Y-54183216D01*
X137095147Y-54035646D01*
X137220646Y-53910147D01*
X137368216Y-53811544D01*
X137532188Y-53743624D01*
X137681488Y-53713927D01*
X137706258Y-53709000D01*
X137883742Y-53709000D01*
X137908512Y-53713927D01*
G37*
G36*
X95466000Y-55461000D02*
G01*
X93764000Y-55461000D01*
X93764000Y-53759000D01*
X95466000Y-53759000D01*
X95466000Y-55461000D01*
G37*
M02*
