G04 #@! TF.GenerationSoftware,KiCad,Pcbnew,5.1.5-52549c5~84~ubuntu18.04.1*
G04 #@! TF.CreationDate,2020-02-11T14:40:58+00:00*
G04 #@! TF.ProjectId,transmitter,7472616e-736d-4697-9474-65722e6b6963,rev?*
G04 #@! TF.SameCoordinates,Original*
G04 #@! TF.FileFunction,Legend,Bot*
G04 #@! TF.FilePolarity,Positive*
%FSLAX46Y46*%
G04 Gerber Fmt 4.6, Leading zero omitted, Abs format (unit mm)*
G04 Created by KiCad (PCBNEW 5.1.5-52549c5~84~ubuntu18.04.1) date 2020-02-11 14:40:58*
%MOMM*%
%LPD*%
G04 APERTURE LIST*
%ADD10C,0.120000*%
%ADD11C,0.150000*%
G04 APERTURE END LIST*
D10*
X96856733Y-73154000D02*
X97199267Y-73154000D01*
X96856733Y-72134000D02*
X97199267Y-72134000D01*
X114838267Y-81790000D02*
X114495733Y-81790000D01*
X114838267Y-80770000D02*
X114495733Y-80770000D01*
X114302000Y-87458733D02*
X114302000Y-87801267D01*
X113282000Y-87458733D02*
X113282000Y-87801267D01*
X123827000Y-87458733D02*
X123827000Y-87801267D01*
X122807000Y-87458733D02*
X122807000Y-87801267D01*
X138258733Y-70610000D02*
X138601267Y-70610000D01*
X138258733Y-71630000D02*
X138601267Y-71630000D01*
X140845000Y-61766267D02*
X140845000Y-61423733D01*
X139825000Y-61766267D02*
X139825000Y-61423733D01*
X97199267Y-70614000D02*
X96856733Y-70614000D01*
X97199267Y-69594000D02*
X96856733Y-69594000D01*
X110742000Y-65360733D02*
X110742000Y-65703267D01*
X111762000Y-65360733D02*
X111762000Y-65703267D01*
X107359267Y-58926000D02*
X107016733Y-58926000D01*
X107359267Y-59946000D02*
X107016733Y-59946000D01*
X102614000Y-69043733D02*
X102614000Y-69386267D01*
X103634000Y-69043733D02*
X103634000Y-69386267D01*
X97199267Y-68074000D02*
X96856733Y-68074000D01*
X97199267Y-67054000D02*
X96856733Y-67054000D01*
X97199267Y-65915000D02*
X96856733Y-65915000D01*
X97199267Y-64895000D02*
X96856733Y-64895000D01*
X108202000Y-65360733D02*
X108202000Y-65703267D01*
X109222000Y-65360733D02*
X109222000Y-65703267D01*
X101771267Y-81155000D02*
X101428733Y-81155000D01*
X101771267Y-80135000D02*
X101428733Y-80135000D01*
X101428733Y-79250000D02*
X101771267Y-79250000D01*
X101428733Y-78230000D02*
X101771267Y-78230000D01*
X126998000Y-88220733D02*
X126998000Y-88563267D01*
X128018000Y-88220733D02*
X128018000Y-88563267D01*
X132590000Y-88220733D02*
X132590000Y-88563267D01*
X131570000Y-88220733D02*
X131570000Y-88563267D01*
X136142000Y-88220733D02*
X136142000Y-88563267D01*
X137162000Y-88220733D02*
X137162000Y-88563267D01*
D11*
X94622857Y-73001142D02*
X94670476Y-73048761D01*
X94813333Y-73096380D01*
X94908571Y-73096380D01*
X95051428Y-73048761D01*
X95146666Y-72953523D01*
X95194285Y-72858285D01*
X95241904Y-72667809D01*
X95241904Y-72524952D01*
X95194285Y-72334476D01*
X95146666Y-72239238D01*
X95051428Y-72144000D01*
X94908571Y-72096380D01*
X94813333Y-72096380D01*
X94670476Y-72144000D01*
X94622857Y-72191619D01*
X93670476Y-73096380D02*
X94241904Y-73096380D01*
X93956190Y-73096380D02*
X93956190Y-72096380D01*
X94051428Y-72239238D01*
X94146666Y-72334476D01*
X94241904Y-72382095D01*
X93051428Y-72096380D02*
X92956190Y-72096380D01*
X92860952Y-72144000D01*
X92813333Y-72191619D01*
X92765714Y-72286857D01*
X92718095Y-72477333D01*
X92718095Y-72715428D01*
X92765714Y-72905904D01*
X92813333Y-73001142D01*
X92860952Y-73048761D01*
X92956190Y-73096380D01*
X93051428Y-73096380D01*
X93146666Y-73048761D01*
X93194285Y-73001142D01*
X93241904Y-72905904D01*
X93289523Y-72715428D01*
X93289523Y-72477333D01*
X93241904Y-72286857D01*
X93194285Y-72191619D01*
X93146666Y-72144000D01*
X93051428Y-72096380D01*
X114833666Y-80207142D02*
X114881285Y-80254761D01*
X115024142Y-80302380D01*
X115119380Y-80302380D01*
X115262238Y-80254761D01*
X115357476Y-80159523D01*
X115405095Y-80064285D01*
X115452714Y-79873809D01*
X115452714Y-79730952D01*
X115405095Y-79540476D01*
X115357476Y-79445238D01*
X115262238Y-79350000D01*
X115119380Y-79302380D01*
X115024142Y-79302380D01*
X114881285Y-79350000D01*
X114833666Y-79397619D01*
X113881285Y-80302380D02*
X114452714Y-80302380D01*
X114167000Y-80302380D02*
X114167000Y-79302380D01*
X114262238Y-79445238D01*
X114357476Y-79540476D01*
X114452714Y-79588095D01*
X114149142Y-90257333D02*
X114196761Y-90209714D01*
X114244380Y-90066857D01*
X114244380Y-89971619D01*
X114196761Y-89828761D01*
X114101523Y-89733523D01*
X114006285Y-89685904D01*
X113815809Y-89638285D01*
X113672952Y-89638285D01*
X113482476Y-89685904D01*
X113387238Y-89733523D01*
X113292000Y-89828761D01*
X113244380Y-89971619D01*
X113244380Y-90066857D01*
X113292000Y-90209714D01*
X113339619Y-90257333D01*
X113339619Y-90638285D02*
X113292000Y-90685904D01*
X113244380Y-90781142D01*
X113244380Y-91019238D01*
X113292000Y-91114476D01*
X113339619Y-91162095D01*
X113434857Y-91209714D01*
X113530095Y-91209714D01*
X113672952Y-91162095D01*
X114244380Y-90590666D01*
X114244380Y-91209714D01*
X123674142Y-90257333D02*
X123721761Y-90209714D01*
X123769380Y-90066857D01*
X123769380Y-89971619D01*
X123721761Y-89828761D01*
X123626523Y-89733523D01*
X123531285Y-89685904D01*
X123340809Y-89638285D01*
X123197952Y-89638285D01*
X123007476Y-89685904D01*
X122912238Y-89733523D01*
X122817000Y-89828761D01*
X122769380Y-89971619D01*
X122769380Y-90066857D01*
X122817000Y-90209714D01*
X122864619Y-90257333D01*
X122769380Y-90590666D02*
X122769380Y-91209714D01*
X123150333Y-90876380D01*
X123150333Y-91019238D01*
X123197952Y-91114476D01*
X123245571Y-91162095D01*
X123340809Y-91209714D01*
X123578904Y-91209714D01*
X123674142Y-91162095D01*
X123721761Y-91114476D01*
X123769380Y-91019238D01*
X123769380Y-90733523D01*
X123721761Y-90638285D01*
X123674142Y-90590666D01*
X138596666Y-70080142D02*
X138644285Y-70127761D01*
X138787142Y-70175380D01*
X138882380Y-70175380D01*
X139025238Y-70127761D01*
X139120476Y-70032523D01*
X139168095Y-69937285D01*
X139215714Y-69746809D01*
X139215714Y-69603952D01*
X139168095Y-69413476D01*
X139120476Y-69318238D01*
X139025238Y-69223000D01*
X138882380Y-69175380D01*
X138787142Y-69175380D01*
X138644285Y-69223000D01*
X138596666Y-69270619D01*
X137739523Y-69508714D02*
X137739523Y-70175380D01*
X137977619Y-69127761D02*
X138215714Y-69842047D01*
X137596666Y-69842047D01*
X140819142Y-58507333D02*
X140866761Y-58459714D01*
X140914380Y-58316857D01*
X140914380Y-58221619D01*
X140866761Y-58078761D01*
X140771523Y-57983523D01*
X140676285Y-57935904D01*
X140485809Y-57888285D01*
X140342952Y-57888285D01*
X140152476Y-57935904D01*
X140057238Y-57983523D01*
X139962000Y-58078761D01*
X139914380Y-58221619D01*
X139914380Y-58316857D01*
X139962000Y-58459714D01*
X140009619Y-58507333D01*
X139914380Y-59412095D02*
X139914380Y-58935904D01*
X140390571Y-58888285D01*
X140342952Y-58935904D01*
X140295333Y-59031142D01*
X140295333Y-59269238D01*
X140342952Y-59364476D01*
X140390571Y-59412095D01*
X140485809Y-59459714D01*
X140723904Y-59459714D01*
X140819142Y-59412095D01*
X140866761Y-59364476D01*
X140914380Y-59269238D01*
X140914380Y-59031142D01*
X140866761Y-58935904D01*
X140819142Y-58888285D01*
X99861666Y-70461142D02*
X99909285Y-70508761D01*
X100052142Y-70556380D01*
X100147380Y-70556380D01*
X100290238Y-70508761D01*
X100385476Y-70413523D01*
X100433095Y-70318285D01*
X100480714Y-70127809D01*
X100480714Y-69984952D01*
X100433095Y-69794476D01*
X100385476Y-69699238D01*
X100290238Y-69604000D01*
X100147380Y-69556380D01*
X100052142Y-69556380D01*
X99909285Y-69604000D01*
X99861666Y-69651619D01*
X99004523Y-69556380D02*
X99195000Y-69556380D01*
X99290238Y-69604000D01*
X99337857Y-69651619D01*
X99433095Y-69794476D01*
X99480714Y-69984952D01*
X99480714Y-70365904D01*
X99433095Y-70461142D01*
X99385476Y-70508761D01*
X99290238Y-70556380D01*
X99099761Y-70556380D01*
X99004523Y-70508761D01*
X98956904Y-70461142D01*
X98909285Y-70365904D01*
X98909285Y-70127809D01*
X98956904Y-70032571D01*
X99004523Y-69984952D01*
X99099761Y-69937333D01*
X99290238Y-69937333D01*
X99385476Y-69984952D01*
X99433095Y-70032571D01*
X99480714Y-70127809D01*
X111609142Y-68159333D02*
X111656761Y-68111714D01*
X111704380Y-67968857D01*
X111704380Y-67873619D01*
X111656761Y-67730761D01*
X111561523Y-67635523D01*
X111466285Y-67587904D01*
X111275809Y-67540285D01*
X111132952Y-67540285D01*
X110942476Y-67587904D01*
X110847238Y-67635523D01*
X110752000Y-67730761D01*
X110704380Y-67873619D01*
X110704380Y-67968857D01*
X110752000Y-68111714D01*
X110799619Y-68159333D01*
X110704380Y-68492666D02*
X110704380Y-69159333D01*
X111704380Y-68730761D01*
X107354666Y-58363142D02*
X107402285Y-58410761D01*
X107545142Y-58458380D01*
X107640380Y-58458380D01*
X107783238Y-58410761D01*
X107878476Y-58315523D01*
X107926095Y-58220285D01*
X107973714Y-58029809D01*
X107973714Y-57886952D01*
X107926095Y-57696476D01*
X107878476Y-57601238D01*
X107783238Y-57506000D01*
X107640380Y-57458380D01*
X107545142Y-57458380D01*
X107402285Y-57506000D01*
X107354666Y-57553619D01*
X106783238Y-57886952D02*
X106878476Y-57839333D01*
X106926095Y-57791714D01*
X106973714Y-57696476D01*
X106973714Y-57648857D01*
X106926095Y-57553619D01*
X106878476Y-57506000D01*
X106783238Y-57458380D01*
X106592761Y-57458380D01*
X106497523Y-57506000D01*
X106449904Y-57553619D01*
X106402285Y-57648857D01*
X106402285Y-57696476D01*
X106449904Y-57791714D01*
X106497523Y-57839333D01*
X106592761Y-57886952D01*
X106783238Y-57886952D01*
X106878476Y-57934571D01*
X106926095Y-57982190D01*
X106973714Y-58077428D01*
X106973714Y-58267904D01*
X106926095Y-58363142D01*
X106878476Y-58410761D01*
X106783238Y-58458380D01*
X106592761Y-58458380D01*
X106497523Y-58410761D01*
X106449904Y-58363142D01*
X106402285Y-58267904D01*
X106402285Y-58077428D01*
X106449904Y-57982190D01*
X106497523Y-57934571D01*
X106592761Y-57886952D01*
X103481142Y-66127333D02*
X103528761Y-66079714D01*
X103576380Y-65936857D01*
X103576380Y-65841619D01*
X103528761Y-65698761D01*
X103433523Y-65603523D01*
X103338285Y-65555904D01*
X103147809Y-65508285D01*
X103004952Y-65508285D01*
X102814476Y-65555904D01*
X102719238Y-65603523D01*
X102624000Y-65698761D01*
X102576380Y-65841619D01*
X102576380Y-65936857D01*
X102624000Y-66079714D01*
X102671619Y-66127333D01*
X103576380Y-66603523D02*
X103576380Y-66794000D01*
X103528761Y-66889238D01*
X103481142Y-66936857D01*
X103338285Y-67032095D01*
X103147809Y-67079714D01*
X102766857Y-67079714D01*
X102671619Y-67032095D01*
X102624000Y-66984476D01*
X102576380Y-66889238D01*
X102576380Y-66698761D01*
X102624000Y-66603523D01*
X102671619Y-66555904D01*
X102766857Y-66508285D01*
X103004952Y-66508285D01*
X103100190Y-66555904D01*
X103147809Y-66603523D01*
X103195428Y-66698761D01*
X103195428Y-66889238D01*
X103147809Y-66984476D01*
X103100190Y-67032095D01*
X103004952Y-67079714D01*
X99734666Y-65984380D02*
X100068000Y-65508190D01*
X100306095Y-65984380D02*
X100306095Y-64984380D01*
X99925142Y-64984380D01*
X99829904Y-65032000D01*
X99782285Y-65079619D01*
X99734666Y-65174857D01*
X99734666Y-65317714D01*
X99782285Y-65412952D01*
X99829904Y-65460571D01*
X99925142Y-65508190D01*
X100306095Y-65508190D01*
X98782285Y-65984380D02*
X99353714Y-65984380D01*
X99068000Y-65984380D02*
X99068000Y-64984380D01*
X99163238Y-65127238D01*
X99258476Y-65222476D01*
X99353714Y-65270095D01*
X99734666Y-68016380D02*
X100068000Y-67540190D01*
X100306095Y-68016380D02*
X100306095Y-67016380D01*
X99925142Y-67016380D01*
X99829904Y-67064000D01*
X99782285Y-67111619D01*
X99734666Y-67206857D01*
X99734666Y-67349714D01*
X99782285Y-67444952D01*
X99829904Y-67492571D01*
X99925142Y-67540190D01*
X100306095Y-67540190D01*
X99353714Y-67111619D02*
X99306095Y-67064000D01*
X99210857Y-67016380D01*
X98972761Y-67016380D01*
X98877523Y-67064000D01*
X98829904Y-67111619D01*
X98782285Y-67206857D01*
X98782285Y-67302095D01*
X98829904Y-67444952D01*
X99401333Y-68016380D01*
X98782285Y-68016380D01*
X109291380Y-68032333D02*
X108815190Y-67699000D01*
X109291380Y-67460904D02*
X108291380Y-67460904D01*
X108291380Y-67841857D01*
X108339000Y-67937095D01*
X108386619Y-67984714D01*
X108481857Y-68032333D01*
X108624714Y-68032333D01*
X108719952Y-67984714D01*
X108767571Y-67937095D01*
X108815190Y-67841857D01*
X108815190Y-67460904D01*
X108291380Y-68365666D02*
X108291380Y-68984714D01*
X108672333Y-68651380D01*
X108672333Y-68794238D01*
X108719952Y-68889476D01*
X108767571Y-68937095D01*
X108862809Y-68984714D01*
X109100904Y-68984714D01*
X109196142Y-68937095D01*
X109243761Y-68889476D01*
X109291380Y-68794238D01*
X109291380Y-68508523D01*
X109243761Y-68413285D01*
X109196142Y-68365666D01*
X104941666Y-81097380D02*
X105275000Y-80621190D01*
X105513095Y-81097380D02*
X105513095Y-80097380D01*
X105132142Y-80097380D01*
X105036904Y-80145000D01*
X104989285Y-80192619D01*
X104941666Y-80287857D01*
X104941666Y-80430714D01*
X104989285Y-80525952D01*
X105036904Y-80573571D01*
X105132142Y-80621190D01*
X105513095Y-80621190D01*
X104084523Y-80430714D02*
X104084523Y-81097380D01*
X104322619Y-80049761D02*
X104560714Y-80764047D01*
X103941666Y-80764047D01*
X104941666Y-79192380D02*
X105275000Y-78716190D01*
X105513095Y-79192380D02*
X105513095Y-78192380D01*
X105132142Y-78192380D01*
X105036904Y-78240000D01*
X104989285Y-78287619D01*
X104941666Y-78382857D01*
X104941666Y-78525714D01*
X104989285Y-78620952D01*
X105036904Y-78668571D01*
X105132142Y-78716190D01*
X105513095Y-78716190D01*
X104036904Y-78192380D02*
X104513095Y-78192380D01*
X104560714Y-78668571D01*
X104513095Y-78620952D01*
X104417857Y-78573333D01*
X104179761Y-78573333D01*
X104084523Y-78620952D01*
X104036904Y-78668571D01*
X103989285Y-78763809D01*
X103989285Y-79001904D01*
X104036904Y-79097142D01*
X104084523Y-79144761D01*
X104179761Y-79192380D01*
X104417857Y-79192380D01*
X104513095Y-79144761D01*
X104560714Y-79097142D01*
X127960380Y-85685333D02*
X127484190Y-85352000D01*
X127960380Y-85113904D02*
X126960380Y-85113904D01*
X126960380Y-85494857D01*
X127008000Y-85590095D01*
X127055619Y-85637714D01*
X127150857Y-85685333D01*
X127293714Y-85685333D01*
X127388952Y-85637714D01*
X127436571Y-85590095D01*
X127484190Y-85494857D01*
X127484190Y-85113904D01*
X126960380Y-86542476D02*
X126960380Y-86352000D01*
X127008000Y-86256761D01*
X127055619Y-86209142D01*
X127198476Y-86113904D01*
X127388952Y-86066285D01*
X127769904Y-86066285D01*
X127865142Y-86113904D01*
X127912761Y-86161523D01*
X127960380Y-86256761D01*
X127960380Y-86447238D01*
X127912761Y-86542476D01*
X127865142Y-86590095D01*
X127769904Y-86637714D01*
X127531809Y-86637714D01*
X127436571Y-86590095D01*
X127388952Y-86542476D01*
X127341333Y-86447238D01*
X127341333Y-86256761D01*
X127388952Y-86161523D01*
X127436571Y-86113904D01*
X127531809Y-86066285D01*
X132532380Y-85685333D02*
X132056190Y-85352000D01*
X132532380Y-85113904D02*
X131532380Y-85113904D01*
X131532380Y-85494857D01*
X131580000Y-85590095D01*
X131627619Y-85637714D01*
X131722857Y-85685333D01*
X131865714Y-85685333D01*
X131960952Y-85637714D01*
X132008571Y-85590095D01*
X132056190Y-85494857D01*
X132056190Y-85113904D01*
X131532380Y-86018666D02*
X131532380Y-86685333D01*
X132532380Y-86256761D01*
X137104380Y-85685333D02*
X136628190Y-85352000D01*
X137104380Y-85113904D02*
X136104380Y-85113904D01*
X136104380Y-85494857D01*
X136152000Y-85590095D01*
X136199619Y-85637714D01*
X136294857Y-85685333D01*
X136437714Y-85685333D01*
X136532952Y-85637714D01*
X136580571Y-85590095D01*
X136628190Y-85494857D01*
X136628190Y-85113904D01*
X136532952Y-86256761D02*
X136485333Y-86161523D01*
X136437714Y-86113904D01*
X136342476Y-86066285D01*
X136294857Y-86066285D01*
X136199619Y-86113904D01*
X136152000Y-86161523D01*
X136104380Y-86256761D01*
X136104380Y-86447238D01*
X136152000Y-86542476D01*
X136199619Y-86590095D01*
X136294857Y-86637714D01*
X136342476Y-86637714D01*
X136437714Y-86590095D01*
X136485333Y-86542476D01*
X136532952Y-86447238D01*
X136532952Y-86256761D01*
X136580571Y-86161523D01*
X136628190Y-86113904D01*
X136723428Y-86066285D01*
X136913904Y-86066285D01*
X137009142Y-86113904D01*
X137056761Y-86161523D01*
X137104380Y-86256761D01*
X137104380Y-86447238D01*
X137056761Y-86542476D01*
X137009142Y-86590095D01*
X136913904Y-86637714D01*
X136723428Y-86637714D01*
X136628190Y-86590095D01*
X136580571Y-86542476D01*
X136532952Y-86447238D01*
M02*
