M48
; DRILL file {KiCad 5.1.5-52549c5~84~ubuntu18.04.1} date Tue 11 Feb 2020 14:41:02 GMT
; FORMAT={-:-/ absolute / metric / decimal}
; #@! TF.CreationDate,2020-02-11T14:41:02+00:00
; #@! TF.GenerationSoftware,Kicad,Pcbnew,5.1.5-52549c5~84~ubuntu18.04.1
; #@! TF.FileFunction,Plated,1,2,PTH
FMAT,2
METRIC
T1C0.400
T2C0.762
T3C0.800
T4C0.900
T5C1.000
T6C1.001
T7C1.500
T8C1.800
%
G90
G05
T1
X90.17Y-66.294
X96.012Y-67.564
X99.06Y-80.645
X108.712Y-64.516
X108.712Y-66.407
X114.935Y-57.785
X118.364Y-74.676
X122.437Y-68.055
X125.095Y-77.47
X127.508Y-87.517
X127.635Y-80.01
X132.08Y-87.517
X136.652Y-87.517
X139.7Y-71.12
X140.716Y-69.596
T2
X137.16Y-74.295
X137.16Y-76.835
X137.16Y-79.375
X137.16Y-81.915
X139.7Y-74.295
X139.7Y-76.835
X139.7Y-79.375
X139.7Y-81.915
T3
X98.425Y-76.2
X98.425Y-83.82
X100.965Y-76.2
X100.965Y-83.82
X103.505Y-76.2
X103.505Y-83.82
X106.045Y-76.2
X106.045Y-83.82
X108.585Y-76.2
X108.585Y-83.82
X111.125Y-76.2
X111.125Y-83.82
X113.665Y-76.2
X113.665Y-83.82
X116.205Y-76.2
X116.205Y-83.82
X118.745Y-76.2
X118.745Y-83.82
X121.285Y-76.2
X121.285Y-83.82
X123.825Y-76.2
X123.825Y-83.82
X126.365Y-76.2
X126.365Y-83.82
X128.905Y-76.2
X128.905Y-83.82
X131.445Y-76.2
X131.445Y-83.82
X116.332Y-88.265
X121.232Y-88.265
X100.965Y-62.23
X100.965Y-72.39
X103.505Y-62.23
X103.505Y-72.39
X106.045Y-62.23
X106.045Y-72.39
X108.585Y-62.23
X108.585Y-72.39
X94.615Y-54.61
X94.615Y-57.11
T4
X138.938Y-87.122
X138.938Y-89.662
X129.794Y-87.122
X129.794Y-89.662
X134.366Y-87.122
X134.366Y-89.662
X120.65Y-58.42
X120.65Y-66.04
T5
X116.332Y-62.738
X116.332Y-65.278
X112.395Y-55.245
X114.935Y-55.245
X117.475Y-55.245
X120.015Y-55.245
X110.49Y-87.63
X110.49Y-90.17
X116.332Y-70.104
X116.332Y-72.644
X118.872Y-70.104
X118.872Y-72.644
X121.412Y-70.104
X121.412Y-72.644
X105.41Y-87.63
X105.41Y-90.17
X137.795Y-54.61
X137.795Y-57.15
X137.795Y-59.69
X137.795Y-62.23
X137.795Y-64.77
X137.795Y-67.31
X99.568Y-86.614
X99.568Y-91.614
T6
X90.805Y-86.614
X94.615Y-86.614
T7
X125.73Y-60.96
X133.35Y-60.96
T8
X80.74Y-64.474
X84.14Y-69.274
X87.24Y-61.674
X88.94Y-59.374
X91.64Y-68.774
X80.74Y-77.174
X84.14Y-81.974
X87.24Y-74.374
X88.94Y-72.074
X91.64Y-81.474
T0
M30
