G04 #@! TF.GenerationSoftware,KiCad,Pcbnew,5.1.5-52549c5~84~ubuntu18.04.1*
G04 #@! TF.CreationDate,2020-02-11T14:40:58+00:00*
G04 #@! TF.ProjectId,transmitter,7472616e-736d-4697-9474-65722e6b6963,rev?*
G04 #@! TF.SameCoordinates,Original*
G04 #@! TF.FileFunction,Legend,Top*
G04 #@! TF.FilePolarity,Positive*
%FSLAX46Y46*%
G04 Gerber Fmt 4.6, Leading zero omitted, Abs format (unit mm)*
G04 Created by KiCad (PCBNEW 5.1.5-52549c5~84~ubuntu18.04.1) date 2020-02-11 14:40:58*
%MOMM*%
%LPD*%
G04 APERTURE LIST*
%ADD10C,0.120000*%
%ADD11C,0.150000*%
%ADD12C,0.100000*%
G04 APERTURE END LIST*
D10*
X107950000Y-52705000D02*
X97155000Y-52705000D01*
X107950000Y-59055000D02*
X97155000Y-59055000D01*
X107950000Y-52705000D02*
X107950000Y-59055000D01*
X97095000Y-79010000D02*
G75*
G02X97095000Y-81010000I0J-1000000D01*
G01*
X97095000Y-81010000D02*
X97095000Y-82660000D01*
X97095000Y-82660000D02*
X132775000Y-82660000D01*
X132775000Y-82660000D02*
X132775000Y-77360000D01*
X132775000Y-77360000D02*
X97095000Y-77360000D01*
X97095000Y-77360000D02*
X97095000Y-79010000D01*
X135890000Y-72771000D02*
X141224000Y-72771000D01*
X141224000Y-72771000D02*
X141224000Y-83439000D01*
X141224000Y-83439000D02*
X135890000Y-83439000D01*
X135890000Y-83439000D02*
X135890000Y-83439000D01*
X138430000Y-73279000D02*
X138430000Y-75565000D01*
X138430000Y-75565000D02*
X136144000Y-75565000D01*
X136144000Y-75565000D02*
X136144000Y-75565000D01*
X135560000Y-72195000D02*
X164760000Y-72195000D01*
X164760000Y-72195000D02*
X164760000Y-87645000D01*
X164760000Y-87645000D02*
X135560000Y-87645000D01*
X135560000Y-87645000D02*
X135560000Y-72195000D01*
X135560000Y-72195000D02*
X135560000Y-72195000D01*
X135890000Y-83439000D02*
X135890000Y-72771000D01*
X135890000Y-72771000D02*
X135890000Y-72771000D01*
X109915000Y-68310000D02*
G75*
G02X109915000Y-66310000I0J1000000D01*
G01*
X109915000Y-66310000D02*
X109915000Y-64075000D01*
X109915000Y-64075000D02*
X99635000Y-64075000D01*
X99635000Y-64075000D02*
X99635000Y-70545000D01*
X99635000Y-70545000D02*
X109915000Y-70545000D01*
X109915000Y-70545000D02*
X109915000Y-68310000D01*
X121907000Y-90790000D02*
G75*
G03X121907000Y-85740000I0J2525000D01*
G01*
X115657000Y-90790000D02*
G75*
G02X115657000Y-85740000I0J2525000D01*
G01*
X115657000Y-90790000D02*
X121907000Y-90790000D01*
X115657000Y-85740000D02*
X121907000Y-85740000D01*
X111065000Y-53915000D02*
X111065000Y-56575000D01*
X118745000Y-53915000D02*
X111065000Y-53915000D01*
X118745000Y-56575000D02*
X111065000Y-56575000D01*
X118745000Y-53915000D02*
X118745000Y-56575000D01*
X120015000Y-53915000D02*
X121345000Y-53915000D01*
X121345000Y-53915000D02*
X121345000Y-55245000D01*
X125420000Y-69080000D02*
X125420000Y-62702000D01*
X125420000Y-59218000D02*
X125420000Y-52840000D01*
X133660000Y-69080000D02*
X133660000Y-62702000D01*
X133660000Y-59218000D02*
X133660000Y-52840000D01*
X125420000Y-69080000D02*
X133660000Y-69080000D01*
X125420000Y-52840000D02*
X133660000Y-52840000D01*
X121790000Y-59510000D02*
X122120000Y-59510000D01*
X122120000Y-59510000D02*
X122120000Y-64950000D01*
X122120000Y-64950000D02*
X121790000Y-64950000D01*
X119510000Y-59510000D02*
X119180000Y-59510000D01*
X119180000Y-59510000D02*
X119180000Y-64950000D01*
X119180000Y-64950000D02*
X119510000Y-64950000D01*
X122120000Y-60410000D02*
X119180000Y-60410000D01*
X122120000Y-60530000D02*
X119180000Y-60530000D01*
X122120000Y-60290000D02*
X119180000Y-60290000D01*
X101268000Y-87614000D02*
X101268000Y-90614000D01*
X97868000Y-87614000D02*
X97868000Y-90614000D01*
X100616961Y-86276210D02*
G75*
G02X101268000Y-87614000I-1048961J-1337790D01*
G01*
X100616961Y-91951790D02*
G75*
G03X101268000Y-90614000I-1048961J1337790D01*
G01*
X98519039Y-86276210D02*
G75*
G03X97868000Y-87614000I1048961J-1337790D01*
G01*
X98519039Y-91951790D02*
G75*
G02X97868000Y-90614000I1048961J1337790D01*
G01*
X97885000Y-55860000D02*
G75*
G03X97885000Y-55860000I-3270000J0D01*
G01*
X97845000Y-55860000D02*
X91385000Y-55860000D01*
X97845000Y-55900000D02*
X91385000Y-55900000D01*
X97845000Y-55940000D02*
X91385000Y-55940000D01*
X97843000Y-55980000D02*
X91387000Y-55980000D01*
X97842000Y-56020000D02*
X91388000Y-56020000D01*
X97839000Y-56060000D02*
X91391000Y-56060000D01*
X97837000Y-56100000D02*
X95655000Y-56100000D01*
X93575000Y-56100000D02*
X91393000Y-56100000D01*
X97833000Y-56140000D02*
X95655000Y-56140000D01*
X93575000Y-56140000D02*
X91397000Y-56140000D01*
X97830000Y-56180000D02*
X95655000Y-56180000D01*
X93575000Y-56180000D02*
X91400000Y-56180000D01*
X97826000Y-56220000D02*
X95655000Y-56220000D01*
X93575000Y-56220000D02*
X91404000Y-56220000D01*
X97821000Y-56260000D02*
X95655000Y-56260000D01*
X93575000Y-56260000D02*
X91409000Y-56260000D01*
X97816000Y-56300000D02*
X95655000Y-56300000D01*
X93575000Y-56300000D02*
X91414000Y-56300000D01*
X97810000Y-56340000D02*
X95655000Y-56340000D01*
X93575000Y-56340000D02*
X91420000Y-56340000D01*
X97804000Y-56380000D02*
X95655000Y-56380000D01*
X93575000Y-56380000D02*
X91426000Y-56380000D01*
X97797000Y-56420000D02*
X95655000Y-56420000D01*
X93575000Y-56420000D02*
X91433000Y-56420000D01*
X97790000Y-56460000D02*
X95655000Y-56460000D01*
X93575000Y-56460000D02*
X91440000Y-56460000D01*
X97782000Y-56500000D02*
X95655000Y-56500000D01*
X93575000Y-56500000D02*
X91448000Y-56500000D01*
X97774000Y-56540000D02*
X95655000Y-56540000D01*
X93575000Y-56540000D02*
X91456000Y-56540000D01*
X97765000Y-56581000D02*
X95655000Y-56581000D01*
X93575000Y-56581000D02*
X91465000Y-56581000D01*
X97756000Y-56621000D02*
X95655000Y-56621000D01*
X93575000Y-56621000D02*
X91474000Y-56621000D01*
X97746000Y-56661000D02*
X95655000Y-56661000D01*
X93575000Y-56661000D02*
X91484000Y-56661000D01*
X97736000Y-56701000D02*
X95655000Y-56701000D01*
X93575000Y-56701000D02*
X91494000Y-56701000D01*
X97725000Y-56741000D02*
X95655000Y-56741000D01*
X93575000Y-56741000D02*
X91505000Y-56741000D01*
X97713000Y-56781000D02*
X95655000Y-56781000D01*
X93575000Y-56781000D02*
X91517000Y-56781000D01*
X97701000Y-56821000D02*
X95655000Y-56821000D01*
X93575000Y-56821000D02*
X91529000Y-56821000D01*
X97689000Y-56861000D02*
X95655000Y-56861000D01*
X93575000Y-56861000D02*
X91541000Y-56861000D01*
X97676000Y-56901000D02*
X95655000Y-56901000D01*
X93575000Y-56901000D02*
X91554000Y-56901000D01*
X97662000Y-56941000D02*
X95655000Y-56941000D01*
X93575000Y-56941000D02*
X91568000Y-56941000D01*
X97648000Y-56981000D02*
X95655000Y-56981000D01*
X93575000Y-56981000D02*
X91582000Y-56981000D01*
X97633000Y-57021000D02*
X95655000Y-57021000D01*
X93575000Y-57021000D02*
X91597000Y-57021000D01*
X97617000Y-57061000D02*
X95655000Y-57061000D01*
X93575000Y-57061000D02*
X91613000Y-57061000D01*
X97601000Y-57101000D02*
X95655000Y-57101000D01*
X93575000Y-57101000D02*
X91629000Y-57101000D01*
X97585000Y-57141000D02*
X95655000Y-57141000D01*
X93575000Y-57141000D02*
X91645000Y-57141000D01*
X97567000Y-57181000D02*
X95655000Y-57181000D01*
X93575000Y-57181000D02*
X91663000Y-57181000D01*
X97549000Y-57221000D02*
X95655000Y-57221000D01*
X93575000Y-57221000D02*
X91681000Y-57221000D01*
X97531000Y-57261000D02*
X95655000Y-57261000D01*
X93575000Y-57261000D02*
X91699000Y-57261000D01*
X97511000Y-57301000D02*
X95655000Y-57301000D01*
X93575000Y-57301000D02*
X91719000Y-57301000D01*
X97491000Y-57341000D02*
X95655000Y-57341000D01*
X93575000Y-57341000D02*
X91739000Y-57341000D01*
X97471000Y-57381000D02*
X95655000Y-57381000D01*
X93575000Y-57381000D02*
X91759000Y-57381000D01*
X97449000Y-57421000D02*
X95655000Y-57421000D01*
X93575000Y-57421000D02*
X91781000Y-57421000D01*
X97427000Y-57461000D02*
X95655000Y-57461000D01*
X93575000Y-57461000D02*
X91803000Y-57461000D01*
X97405000Y-57501000D02*
X95655000Y-57501000D01*
X93575000Y-57501000D02*
X91825000Y-57501000D01*
X97381000Y-57541000D02*
X95655000Y-57541000D01*
X93575000Y-57541000D02*
X91849000Y-57541000D01*
X97357000Y-57581000D02*
X95655000Y-57581000D01*
X93575000Y-57581000D02*
X91873000Y-57581000D01*
X97331000Y-57621000D02*
X95655000Y-57621000D01*
X93575000Y-57621000D02*
X91899000Y-57621000D01*
X97305000Y-57661000D02*
X95655000Y-57661000D01*
X93575000Y-57661000D02*
X91925000Y-57661000D01*
X97279000Y-57701000D02*
X95655000Y-57701000D01*
X93575000Y-57701000D02*
X91951000Y-57701000D01*
X97251000Y-57741000D02*
X95655000Y-57741000D01*
X93575000Y-57741000D02*
X91979000Y-57741000D01*
X97222000Y-57781000D02*
X95655000Y-57781000D01*
X93575000Y-57781000D02*
X92008000Y-57781000D01*
X97193000Y-57821000D02*
X95655000Y-57821000D01*
X93575000Y-57821000D02*
X92037000Y-57821000D01*
X97163000Y-57861000D02*
X95655000Y-57861000D01*
X93575000Y-57861000D02*
X92067000Y-57861000D01*
X97131000Y-57901000D02*
X95655000Y-57901000D01*
X93575000Y-57901000D02*
X92099000Y-57901000D01*
X97099000Y-57941000D02*
X95655000Y-57941000D01*
X93575000Y-57941000D02*
X92131000Y-57941000D01*
X97065000Y-57981000D02*
X95655000Y-57981000D01*
X93575000Y-57981000D02*
X92165000Y-57981000D01*
X97031000Y-58021000D02*
X95655000Y-58021000D01*
X93575000Y-58021000D02*
X92199000Y-58021000D01*
X96995000Y-58061000D02*
X95655000Y-58061000D01*
X93575000Y-58061000D02*
X92235000Y-58061000D01*
X96958000Y-58101000D02*
X95655000Y-58101000D01*
X93575000Y-58101000D02*
X92272000Y-58101000D01*
X96920000Y-58141000D02*
X95655000Y-58141000D01*
X93575000Y-58141000D02*
X92310000Y-58141000D01*
X96880000Y-58181000D02*
X92350000Y-58181000D01*
X96839000Y-58221000D02*
X92391000Y-58221000D01*
X96797000Y-58261000D02*
X92433000Y-58261000D01*
X96752000Y-58301000D02*
X92478000Y-58301000D01*
X96707000Y-58341000D02*
X92523000Y-58341000D01*
X96659000Y-58381000D02*
X92571000Y-58381000D01*
X96610000Y-58421000D02*
X92620000Y-58421000D01*
X96559000Y-58461000D02*
X92671000Y-58461000D01*
X96505000Y-58501000D02*
X92725000Y-58501000D01*
X96449000Y-58541000D02*
X92781000Y-58541000D01*
X96391000Y-58581000D02*
X92839000Y-58581000D01*
X96329000Y-58621000D02*
X92901000Y-58621000D01*
X96265000Y-58661000D02*
X92965000Y-58661000D01*
X96196000Y-58701000D02*
X93034000Y-58701000D01*
X96124000Y-58741000D02*
X93106000Y-58741000D01*
X96047000Y-58781000D02*
X93183000Y-58781000D01*
X95965000Y-58821000D02*
X93265000Y-58821000D01*
X95877000Y-58861000D02*
X93353000Y-58861000D01*
X95780000Y-58901000D02*
X93450000Y-58901000D01*
X95674000Y-58941000D02*
X93556000Y-58941000D01*
X95555000Y-58981000D02*
X93675000Y-58981000D01*
X95417000Y-59021000D02*
X93813000Y-59021000D01*
X95248000Y-59061000D02*
X93982000Y-59061000D01*
X95017000Y-59101000D02*
X94213000Y-59101000D01*
X96454000Y-52359759D02*
X96454000Y-52989759D01*
X96769000Y-52674759D02*
X96139000Y-52674759D01*
X136017000Y-52832000D02*
X159385000Y-52832000D01*
X159385000Y-52832000D02*
X159385000Y-69088000D01*
X159385000Y-69088000D02*
X136017000Y-69088000D01*
X136017000Y-69088000D02*
X136017000Y-52832000D01*
X122742000Y-73974000D02*
X122742000Y-68774000D01*
X117602000Y-73974000D02*
X122742000Y-73974000D01*
X115002000Y-68774000D02*
X122742000Y-68774000D01*
X117602000Y-73974000D02*
X117602000Y-71374000D01*
X117602000Y-71374000D02*
X115002000Y-71374000D01*
X115002000Y-71374000D02*
X115002000Y-68774000D01*
X116332000Y-73974000D02*
X115002000Y-73974000D01*
X115002000Y-73974000D02*
X115002000Y-72644000D01*
X78740000Y-58674000D02*
X92964000Y-58674000D01*
X92964000Y-58674000D02*
X92964000Y-70358000D01*
X92964000Y-70358000D02*
X78740000Y-70358000D01*
X78740000Y-70358000D02*
X78740000Y-58674000D01*
X75184000Y-60452000D02*
X78740000Y-60452000D01*
X78740000Y-68580000D02*
X75184000Y-68580000D01*
X75184000Y-68580000D02*
X75184000Y-60452000D01*
X75184000Y-81280000D02*
X75184000Y-73152000D01*
X78740000Y-81280000D02*
X75184000Y-81280000D01*
X75184000Y-73152000D02*
X78740000Y-73152000D01*
X78740000Y-83058000D02*
X78740000Y-71374000D01*
X92964000Y-83058000D02*
X78740000Y-83058000D01*
X92964000Y-71374000D02*
X92964000Y-83058000D01*
X78740000Y-71374000D02*
X92964000Y-71374000D01*
X130872608Y-90064335D02*
G75*
G03X131029516Y-86832000I-1078608J1672335D01*
G01*
X128715392Y-90064335D02*
G75*
G02X128558484Y-86832000I1078608J1672335D01*
G01*
X130873837Y-89433130D02*
G75*
G03X130874000Y-87351039I-1079837J1041130D01*
G01*
X128714163Y-89433130D02*
G75*
G02X128714000Y-87351039I1079837J1041130D01*
G01*
X131030000Y-86832000D02*
X130874000Y-86832000D01*
X128714000Y-86832000D02*
X128558000Y-86832000D01*
X133286000Y-86832000D02*
X133130000Y-86832000D01*
X135602000Y-86832000D02*
X135446000Y-86832000D01*
X133286163Y-89433130D02*
G75*
G02X133286000Y-87351039I1079837J1041130D01*
G01*
X135445837Y-89433130D02*
G75*
G03X135446000Y-87351039I-1079837J1041130D01*
G01*
X133287392Y-90064335D02*
G75*
G02X133130484Y-86832000I1078608J1672335D01*
G01*
X135444608Y-90064335D02*
G75*
G03X135601516Y-86832000I-1078608J1672335D01*
G01*
X140016608Y-90064335D02*
G75*
G03X140173516Y-86832000I-1078608J1672335D01*
G01*
X137859392Y-90064335D02*
G75*
G02X137702484Y-86832000I1078608J1672335D01*
G01*
X140017837Y-89433130D02*
G75*
G03X140018000Y-87351039I-1079837J1041130D01*
G01*
X137858163Y-89433130D02*
G75*
G02X137858000Y-87351039I1079837J1041130D01*
G01*
X140174000Y-86832000D02*
X140018000Y-86832000D01*
X137858000Y-86832000D02*
X137702000Y-86832000D01*
X109160000Y-91500000D02*
X111820000Y-91500000D01*
X109160000Y-88900000D02*
X109160000Y-91500000D01*
X111820000Y-88900000D02*
X111820000Y-91500000D01*
X109160000Y-88900000D02*
X111820000Y-88900000D01*
X109160000Y-87630000D02*
X109160000Y-86300000D01*
X109160000Y-86300000D02*
X110490000Y-86300000D01*
X104080000Y-91500000D02*
X106740000Y-91500000D01*
X104080000Y-88900000D02*
X104080000Y-91500000D01*
X106740000Y-88900000D02*
X106740000Y-91500000D01*
X104080000Y-88900000D02*
X106740000Y-88900000D01*
X104080000Y-87630000D02*
X104080000Y-86300000D01*
X104080000Y-86300000D02*
X105410000Y-86300000D01*
X115002000Y-66608000D02*
X117662000Y-66608000D01*
X115002000Y-64008000D02*
X115002000Y-66608000D01*
X117662000Y-64008000D02*
X117662000Y-66608000D01*
X115002000Y-64008000D02*
X117662000Y-64008000D01*
X115002000Y-62738000D02*
X115002000Y-61408000D01*
X115002000Y-61408000D02*
X116332000Y-61408000D01*
D11*
X92630666Y-83780380D02*
X92630666Y-84494666D01*
X92583047Y-84637523D01*
X92487809Y-84732761D01*
X92344952Y-84780380D01*
X92249714Y-84780380D01*
X93630666Y-84780380D02*
X93059238Y-84780380D01*
X93344952Y-84780380D02*
X93344952Y-83780380D01*
X93249714Y-83923238D01*
X93154476Y-84018476D01*
X93059238Y-84066095D01*
X95547380Y-80771904D02*
X96356904Y-80771904D01*
X96452142Y-80724285D01*
X96499761Y-80676666D01*
X96547380Y-80581428D01*
X96547380Y-80390952D01*
X96499761Y-80295714D01*
X96452142Y-80248095D01*
X96356904Y-80200476D01*
X95547380Y-80200476D01*
X96547380Y-79200476D02*
X96547380Y-79771904D01*
X96547380Y-79486190D02*
X95547380Y-79486190D01*
X95690238Y-79581428D01*
X95785476Y-79676666D01*
X95833095Y-79771904D01*
X137668095Y-83780380D02*
X137668095Y-84589904D01*
X137715714Y-84685142D01*
X137763333Y-84732761D01*
X137858571Y-84780380D01*
X138049047Y-84780380D01*
X138144285Y-84732761D01*
X138191904Y-84685142D01*
X138239523Y-84589904D01*
X138239523Y-83780380D01*
X138668095Y-83875619D02*
X138715714Y-83828000D01*
X138810952Y-83780380D01*
X139049047Y-83780380D01*
X139144285Y-83828000D01*
X139191904Y-83875619D01*
X139239523Y-83970857D01*
X139239523Y-84066095D01*
X139191904Y-84208952D01*
X138620476Y-84780380D01*
X139239523Y-84780380D01*
X110367380Y-68071904D02*
X111176904Y-68071904D01*
X111272142Y-68024285D01*
X111319761Y-67976666D01*
X111367380Y-67881428D01*
X111367380Y-67690952D01*
X111319761Y-67595714D01*
X111272142Y-67548095D01*
X111176904Y-67500476D01*
X110367380Y-67500476D01*
X110700714Y-66595714D02*
X111367380Y-66595714D01*
X110319761Y-66833809D02*
X111034047Y-67071904D01*
X111034047Y-66452857D01*
X118305809Y-88368190D02*
X118305809Y-88844380D01*
X117972476Y-87844380D02*
X118305809Y-88368190D01*
X118639142Y-87844380D01*
X119496285Y-88844380D02*
X118924857Y-88844380D01*
X119210571Y-88844380D02*
X119210571Y-87844380D01*
X119115333Y-87987238D01*
X119020095Y-88082476D01*
X118924857Y-88130095D01*
X115236666Y-57237380D02*
X115236666Y-57951666D01*
X115189047Y-58094523D01*
X115093809Y-58189761D01*
X114950952Y-58237380D01*
X114855714Y-58237380D01*
X115665238Y-57332619D02*
X115712857Y-57285000D01*
X115808095Y-57237380D01*
X116046190Y-57237380D01*
X116141428Y-57285000D01*
X116189047Y-57332619D01*
X116236666Y-57427857D01*
X116236666Y-57523095D01*
X116189047Y-57665952D01*
X115617619Y-58237380D01*
X116236666Y-58237380D01*
X129373333Y-61412380D02*
X128897142Y-61412380D01*
X128897142Y-60412380D01*
X130230476Y-61412380D02*
X129659047Y-61412380D01*
X129944761Y-61412380D02*
X129944761Y-60412380D01*
X129849523Y-60555238D01*
X129754285Y-60650476D01*
X129659047Y-60698095D01*
X121102380Y-63476095D02*
X120102380Y-63476095D01*
X120102380Y-63238000D01*
X120150000Y-63095142D01*
X120245238Y-62999904D01*
X120340476Y-62952285D01*
X120530952Y-62904666D01*
X120673809Y-62904666D01*
X120864285Y-62952285D01*
X120959523Y-62999904D01*
X121054761Y-63095142D01*
X121102380Y-63238000D01*
X121102380Y-63476095D01*
X121102380Y-61952285D02*
X121102380Y-62523714D01*
X121102380Y-62238000D02*
X120102380Y-62238000D01*
X120245238Y-62333238D01*
X120340476Y-62428476D01*
X120388095Y-62523714D01*
X123002380Y-58681904D02*
X122002380Y-58681904D01*
X123002380Y-58110476D02*
X122430952Y-58539047D01*
X122002380Y-58110476D02*
X122573809Y-58681904D01*
X99496571Y-89447333D02*
X99496571Y-89780666D01*
X100020380Y-89780666D02*
X99020380Y-89780666D01*
X99020380Y-89304476D01*
X100020380Y-88399714D02*
X100020380Y-88971142D01*
X100020380Y-88685428D02*
X99020380Y-88685428D01*
X99163238Y-88780666D01*
X99258476Y-88875904D01*
X99306095Y-88971142D01*
X99372142Y-56502857D02*
X99419761Y-56550476D01*
X99467380Y-56693333D01*
X99467380Y-56788571D01*
X99419761Y-56931428D01*
X99324523Y-57026666D01*
X99229285Y-57074285D01*
X99038809Y-57121904D01*
X98895952Y-57121904D01*
X98705476Y-57074285D01*
X98610238Y-57026666D01*
X98515000Y-56931428D01*
X98467380Y-56788571D01*
X98467380Y-56693333D01*
X98515000Y-56550476D01*
X98562619Y-56502857D01*
X99467380Y-55550476D02*
X99467380Y-56121904D01*
X99467380Y-55836190D02*
X98467380Y-55836190D01*
X98610238Y-55931428D01*
X98705476Y-56026666D01*
X98753095Y-56121904D01*
X99467380Y-54598095D02*
X99467380Y-55169523D01*
X99467380Y-54883809D02*
X98467380Y-54883809D01*
X98610238Y-54979047D01*
X98705476Y-55074285D01*
X98753095Y-55169523D01*
D12*
X139914380Y-66293904D02*
X140723904Y-66293904D01*
X140819142Y-66246285D01*
X140866761Y-66198666D01*
X140914380Y-66103428D01*
X140914380Y-65912952D01*
X140866761Y-65817714D01*
X140819142Y-65770095D01*
X140723904Y-65722476D01*
X139914380Y-65722476D01*
X139914380Y-65341523D02*
X139914380Y-64722476D01*
X140295333Y-65055809D01*
X140295333Y-64912952D01*
X140342952Y-64817714D01*
X140390571Y-64770095D01*
X140485809Y-64722476D01*
X140723904Y-64722476D01*
X140819142Y-64770095D01*
X140866761Y-64817714D01*
X140914380Y-64912952D01*
X140914380Y-65198666D01*
X140866761Y-65293904D01*
X140819142Y-65341523D01*
D11*
X140914380Y-59896000D02*
X139914380Y-59896000D01*
X140628666Y-59562666D01*
X139914380Y-59229333D01*
X140914380Y-59229333D01*
X140914380Y-58753142D02*
X139914380Y-58753142D01*
X140390571Y-58753142D02*
X140390571Y-58181714D01*
X140914380Y-58181714D02*
X139914380Y-58181714D01*
X140533428Y-57705523D02*
X140533428Y-56943619D01*
X140914380Y-56467428D02*
X139914380Y-56467428D01*
X140628666Y-56134095D01*
X139914380Y-55800761D01*
X140914380Y-55800761D01*
X140914380Y-54800761D02*
X140914380Y-55372190D01*
X140914380Y-55086476D02*
X139914380Y-55086476D01*
X140057238Y-55181714D01*
X140152476Y-55276952D01*
X140200095Y-55372190D01*
X140342952Y-54229333D02*
X140295333Y-54324571D01*
X140247714Y-54372190D01*
X140152476Y-54419809D01*
X140104857Y-54419809D01*
X140009619Y-54372190D01*
X139962000Y-54324571D01*
X139914380Y-54229333D01*
X139914380Y-54038857D01*
X139962000Y-53943619D01*
X140009619Y-53896000D01*
X140104857Y-53848380D01*
X140152476Y-53848380D01*
X140247714Y-53896000D01*
X140295333Y-53943619D01*
X140342952Y-54038857D01*
X140342952Y-54229333D01*
X140390571Y-54324571D01*
X140438190Y-54372190D01*
X140533428Y-54419809D01*
X140723904Y-54419809D01*
X140819142Y-54372190D01*
X140866761Y-54324571D01*
X140914380Y-54229333D01*
X140914380Y-54038857D01*
X140866761Y-53943619D01*
X140819142Y-53896000D01*
X140723904Y-53848380D01*
X140533428Y-53848380D01*
X140438190Y-53896000D01*
X140390571Y-53943619D01*
X140342952Y-54038857D01*
X113454380Y-71707333D02*
X114168666Y-71707333D01*
X114311523Y-71754952D01*
X114406761Y-71850190D01*
X114454380Y-71993047D01*
X114454380Y-72088285D01*
X113454380Y-70754952D02*
X113454380Y-71231142D01*
X113930571Y-71278761D01*
X113882952Y-71231142D01*
X113835333Y-71135904D01*
X113835333Y-70897809D01*
X113882952Y-70802571D01*
X113930571Y-70754952D01*
X114025809Y-70707333D01*
X114263904Y-70707333D01*
X114359142Y-70754952D01*
X114406761Y-70802571D01*
X114454380Y-70897809D01*
X114454380Y-71135904D01*
X114406761Y-71231142D01*
X114359142Y-71278761D01*
D12*
X87042666Y-65746380D02*
X87042666Y-66460666D01*
X86995047Y-66603523D01*
X86899809Y-66698761D01*
X86756952Y-66746380D01*
X86661714Y-66746380D01*
X87423619Y-65746380D02*
X88042666Y-65746380D01*
X87709333Y-66127333D01*
X87852190Y-66127333D01*
X87947428Y-66174952D01*
X87995047Y-66222571D01*
X88042666Y-66317809D01*
X88042666Y-66555904D01*
X87995047Y-66651142D01*
X87947428Y-66698761D01*
X87852190Y-66746380D01*
X87566476Y-66746380D01*
X87471238Y-66698761D01*
X87423619Y-66651142D01*
D11*
X83201428Y-63968380D02*
X83820476Y-63968380D01*
X83487142Y-64349333D01*
X83630000Y-64349333D01*
X83725238Y-64396952D01*
X83772857Y-64444571D01*
X83820476Y-64539809D01*
X83820476Y-64777904D01*
X83772857Y-64873142D01*
X83725238Y-64920761D01*
X83630000Y-64968380D01*
X83344285Y-64968380D01*
X83249047Y-64920761D01*
X83201428Y-64873142D01*
X84249047Y-64873142D02*
X84296666Y-64920761D01*
X84249047Y-64968380D01*
X84201428Y-64920761D01*
X84249047Y-64873142D01*
X84249047Y-64968380D01*
X85201428Y-63968380D02*
X84725238Y-63968380D01*
X84677619Y-64444571D01*
X84725238Y-64396952D01*
X84820476Y-64349333D01*
X85058571Y-64349333D01*
X85153809Y-64396952D01*
X85201428Y-64444571D01*
X85249047Y-64539809D01*
X85249047Y-64777904D01*
X85201428Y-64873142D01*
X85153809Y-64920761D01*
X85058571Y-64968380D01*
X84820476Y-64968380D01*
X84725238Y-64920761D01*
X84677619Y-64873142D01*
X85677619Y-64968380D02*
X85677619Y-64301714D01*
X85677619Y-64396952D02*
X85725238Y-64349333D01*
X85820476Y-64301714D01*
X85963333Y-64301714D01*
X86058571Y-64349333D01*
X86106190Y-64444571D01*
X86106190Y-64968380D01*
X86106190Y-64444571D02*
X86153809Y-64349333D01*
X86249047Y-64301714D01*
X86391904Y-64301714D01*
X86487142Y-64349333D01*
X86534761Y-64444571D01*
X86534761Y-64968380D01*
X87010952Y-64968380D02*
X87010952Y-64301714D01*
X87010952Y-64396952D02*
X87058571Y-64349333D01*
X87153809Y-64301714D01*
X87296666Y-64301714D01*
X87391904Y-64349333D01*
X87439523Y-64444571D01*
X87439523Y-64968380D01*
X87439523Y-64444571D02*
X87487142Y-64349333D01*
X87582380Y-64301714D01*
X87725238Y-64301714D01*
X87820476Y-64349333D01*
X87868095Y-64444571D01*
X87868095Y-64968380D01*
X89391904Y-63968380D02*
X89391904Y-64682666D01*
X89344285Y-64825523D01*
X89249047Y-64920761D01*
X89106190Y-64968380D01*
X89010952Y-64968380D01*
X90296666Y-64968380D02*
X90296666Y-64444571D01*
X90249047Y-64349333D01*
X90153809Y-64301714D01*
X89963333Y-64301714D01*
X89868095Y-64349333D01*
X90296666Y-64920761D02*
X90201428Y-64968380D01*
X89963333Y-64968380D01*
X89868095Y-64920761D01*
X89820476Y-64825523D01*
X89820476Y-64730285D01*
X89868095Y-64635047D01*
X89963333Y-64587428D01*
X90201428Y-64587428D01*
X90296666Y-64539809D01*
X91201428Y-64920761D02*
X91106190Y-64968380D01*
X90915714Y-64968380D01*
X90820476Y-64920761D01*
X90772857Y-64873142D01*
X90725238Y-64777904D01*
X90725238Y-64492190D01*
X90772857Y-64396952D01*
X90820476Y-64349333D01*
X90915714Y-64301714D01*
X91106190Y-64301714D01*
X91201428Y-64349333D01*
X91630000Y-64968380D02*
X91630000Y-63968380D01*
X91725238Y-64587428D02*
X92010952Y-64968380D01*
X92010952Y-64301714D02*
X91630000Y-64682666D01*
D12*
X87042666Y-78446380D02*
X87042666Y-79160666D01*
X86995047Y-79303523D01*
X86899809Y-79398761D01*
X86756952Y-79446380D01*
X86661714Y-79446380D01*
X87947428Y-78779714D02*
X87947428Y-79446380D01*
X87709333Y-78398761D02*
X87471238Y-79113047D01*
X88090285Y-79113047D01*
D11*
X83201428Y-76668380D02*
X83820476Y-76668380D01*
X83487142Y-77049333D01*
X83630000Y-77049333D01*
X83725238Y-77096952D01*
X83772857Y-77144571D01*
X83820476Y-77239809D01*
X83820476Y-77477904D01*
X83772857Y-77573142D01*
X83725238Y-77620761D01*
X83630000Y-77668380D01*
X83344285Y-77668380D01*
X83249047Y-77620761D01*
X83201428Y-77573142D01*
X84249047Y-77573142D02*
X84296666Y-77620761D01*
X84249047Y-77668380D01*
X84201428Y-77620761D01*
X84249047Y-77573142D01*
X84249047Y-77668380D01*
X85201428Y-76668380D02*
X84725238Y-76668380D01*
X84677619Y-77144571D01*
X84725238Y-77096952D01*
X84820476Y-77049333D01*
X85058571Y-77049333D01*
X85153809Y-77096952D01*
X85201428Y-77144571D01*
X85249047Y-77239809D01*
X85249047Y-77477904D01*
X85201428Y-77573142D01*
X85153809Y-77620761D01*
X85058571Y-77668380D01*
X84820476Y-77668380D01*
X84725238Y-77620761D01*
X84677619Y-77573142D01*
X85677619Y-77668380D02*
X85677619Y-77001714D01*
X85677619Y-77096952D02*
X85725238Y-77049333D01*
X85820476Y-77001714D01*
X85963333Y-77001714D01*
X86058571Y-77049333D01*
X86106190Y-77144571D01*
X86106190Y-77668380D01*
X86106190Y-77144571D02*
X86153809Y-77049333D01*
X86249047Y-77001714D01*
X86391904Y-77001714D01*
X86487142Y-77049333D01*
X86534761Y-77144571D01*
X86534761Y-77668380D01*
X87010952Y-77668380D02*
X87010952Y-77001714D01*
X87010952Y-77096952D02*
X87058571Y-77049333D01*
X87153809Y-77001714D01*
X87296666Y-77001714D01*
X87391904Y-77049333D01*
X87439523Y-77144571D01*
X87439523Y-77668380D01*
X87439523Y-77144571D02*
X87487142Y-77049333D01*
X87582380Y-77001714D01*
X87725238Y-77001714D01*
X87820476Y-77049333D01*
X87868095Y-77144571D01*
X87868095Y-77668380D01*
X89391904Y-76668380D02*
X89391904Y-77382666D01*
X89344285Y-77525523D01*
X89249047Y-77620761D01*
X89106190Y-77668380D01*
X89010952Y-77668380D01*
X90296666Y-77668380D02*
X90296666Y-77144571D01*
X90249047Y-77049333D01*
X90153809Y-77001714D01*
X89963333Y-77001714D01*
X89868095Y-77049333D01*
X90296666Y-77620761D02*
X90201428Y-77668380D01*
X89963333Y-77668380D01*
X89868095Y-77620761D01*
X89820476Y-77525523D01*
X89820476Y-77430285D01*
X89868095Y-77335047D01*
X89963333Y-77287428D01*
X90201428Y-77287428D01*
X90296666Y-77239809D01*
X91201428Y-77620761D02*
X91106190Y-77668380D01*
X90915714Y-77668380D01*
X90820476Y-77620761D01*
X90772857Y-77573142D01*
X90725238Y-77477904D01*
X90725238Y-77192190D01*
X90772857Y-77096952D01*
X90820476Y-77049333D01*
X90915714Y-77001714D01*
X91106190Y-77001714D01*
X91201428Y-77049333D01*
X91630000Y-77668380D02*
X91630000Y-76668380D01*
X91725238Y-77287428D02*
X92010952Y-77668380D01*
X92010952Y-77001714D02*
X91630000Y-77382666D01*
X129055904Y-92146380D02*
X129055904Y-91146380D01*
X129294000Y-91146380D01*
X129436857Y-91194000D01*
X129532095Y-91289238D01*
X129579714Y-91384476D01*
X129627333Y-91574952D01*
X129627333Y-91717809D01*
X129579714Y-91908285D01*
X129532095Y-92003523D01*
X129436857Y-92098761D01*
X129294000Y-92146380D01*
X129055904Y-92146380D01*
X130008285Y-91241619D02*
X130055904Y-91194000D01*
X130151142Y-91146380D01*
X130389238Y-91146380D01*
X130484476Y-91194000D01*
X130532095Y-91241619D01*
X130579714Y-91336857D01*
X130579714Y-91432095D01*
X130532095Y-91574952D01*
X129960666Y-92146380D01*
X130579714Y-92146380D01*
X133627904Y-92146380D02*
X133627904Y-91146380D01*
X133866000Y-91146380D01*
X134008857Y-91194000D01*
X134104095Y-91289238D01*
X134151714Y-91384476D01*
X134199333Y-91574952D01*
X134199333Y-91717809D01*
X134151714Y-91908285D01*
X134104095Y-92003523D01*
X134008857Y-92098761D01*
X133866000Y-92146380D01*
X133627904Y-92146380D01*
X134532666Y-91146380D02*
X135151714Y-91146380D01*
X134818380Y-91527333D01*
X134961238Y-91527333D01*
X135056476Y-91574952D01*
X135104095Y-91622571D01*
X135151714Y-91717809D01*
X135151714Y-91955904D01*
X135104095Y-92051142D01*
X135056476Y-92098761D01*
X134961238Y-92146380D01*
X134675523Y-92146380D01*
X134580285Y-92098761D01*
X134532666Y-92051142D01*
X138199904Y-92146380D02*
X138199904Y-91146380D01*
X138438000Y-91146380D01*
X138580857Y-91194000D01*
X138676095Y-91289238D01*
X138723714Y-91384476D01*
X138771333Y-91574952D01*
X138771333Y-91717809D01*
X138723714Y-91908285D01*
X138676095Y-92003523D01*
X138580857Y-92098761D01*
X138438000Y-92146380D01*
X138199904Y-92146380D01*
X139628476Y-91479714D02*
X139628476Y-92146380D01*
X139390380Y-91098761D02*
X139152285Y-91813047D01*
X139771333Y-91813047D01*
X108608761Y-90233333D02*
X108656380Y-90090476D01*
X108656380Y-89852380D01*
X108608761Y-89757142D01*
X108561142Y-89709523D01*
X108465904Y-89661904D01*
X108370666Y-89661904D01*
X108275428Y-89709523D01*
X108227809Y-89757142D01*
X108180190Y-89852380D01*
X108132571Y-90042857D01*
X108084952Y-90138095D01*
X108037333Y-90185714D01*
X107942095Y-90233333D01*
X107846857Y-90233333D01*
X107751619Y-90185714D01*
X107704000Y-90138095D01*
X107656380Y-90042857D01*
X107656380Y-89804761D01*
X107704000Y-89661904D01*
X107656380Y-89328571D02*
X108656380Y-89090476D01*
X107942095Y-88900000D01*
X108656380Y-88709523D01*
X107656380Y-88471428D01*
X107656380Y-88185714D02*
X107656380Y-87566666D01*
X108037333Y-87900000D01*
X108037333Y-87757142D01*
X108084952Y-87661904D01*
X108132571Y-87614285D01*
X108227809Y-87566666D01*
X108465904Y-87566666D01*
X108561142Y-87614285D01*
X108608761Y-87661904D01*
X108656380Y-87757142D01*
X108656380Y-88042857D01*
X108608761Y-88138095D01*
X108561142Y-88185714D01*
X103274761Y-90233333D02*
X103322380Y-90090476D01*
X103322380Y-89852380D01*
X103274761Y-89757142D01*
X103227142Y-89709523D01*
X103131904Y-89661904D01*
X103036666Y-89661904D01*
X102941428Y-89709523D01*
X102893809Y-89757142D01*
X102846190Y-89852380D01*
X102798571Y-90042857D01*
X102750952Y-90138095D01*
X102703333Y-90185714D01*
X102608095Y-90233333D01*
X102512857Y-90233333D01*
X102417619Y-90185714D01*
X102370000Y-90138095D01*
X102322380Y-90042857D01*
X102322380Y-89804761D01*
X102370000Y-89661904D01*
X102322380Y-89328571D02*
X103322380Y-89090476D01*
X102608095Y-88900000D01*
X103322380Y-88709523D01*
X102322380Y-88471428D01*
X103322380Y-87566666D02*
X103322380Y-88138095D01*
X103322380Y-87852380D02*
X102322380Y-87852380D01*
X102465238Y-87947619D01*
X102560476Y-88042857D01*
X102608095Y-88138095D01*
X114450761Y-65341333D02*
X114498380Y-65198476D01*
X114498380Y-64960380D01*
X114450761Y-64865142D01*
X114403142Y-64817523D01*
X114307904Y-64769904D01*
X114212666Y-64769904D01*
X114117428Y-64817523D01*
X114069809Y-64865142D01*
X114022190Y-64960380D01*
X113974571Y-65150857D01*
X113926952Y-65246095D01*
X113879333Y-65293714D01*
X113784095Y-65341333D01*
X113688857Y-65341333D01*
X113593619Y-65293714D01*
X113546000Y-65246095D01*
X113498380Y-65150857D01*
X113498380Y-64912761D01*
X113546000Y-64769904D01*
X113498380Y-64436571D02*
X114498380Y-64198476D01*
X113784095Y-64008000D01*
X114498380Y-63817523D01*
X113498380Y-63579428D01*
X113593619Y-63246095D02*
X113546000Y-63198476D01*
X113498380Y-63103238D01*
X113498380Y-62865142D01*
X113546000Y-62769904D01*
X113593619Y-62722285D01*
X113688857Y-62674666D01*
X113784095Y-62674666D01*
X113926952Y-62722285D01*
X114498380Y-63293714D01*
X114498380Y-62674666D01*
M02*
