G04 #@! TF.GenerationSoftware,KiCad,Pcbnew,5.1.5-52549c5~84~ubuntu18.04.1*
G04 #@! TF.CreationDate,2020-02-11T17:06:34+00:00*
G04 #@! TF.ProjectId,transmitter,7472616e-736d-4697-9474-65722e6b6963,rev?*
G04 #@! TF.SameCoordinates,Original*
G04 #@! TF.FileFunction,Legend,Bot*
G04 #@! TF.FilePolarity,Positive*
%FSLAX46Y46*%
G04 Gerber Fmt 4.6, Leading zero omitted, Abs format (unit mm)*
G04 Created by KiCad (PCBNEW 5.1.5-52549c5~84~ubuntu18.04.1) date 2020-02-11 17:06:34*
%MOMM*%
%LPD*%
G04 APERTURE LIST*
%ADD10C,0.150000*%
%ADD11C,0.010000*%
%ADD12C,0.120000*%
G04 APERTURE END LIST*
D10*
X134078023Y-79224666D02*
X133601833Y-79224666D01*
X134173261Y-79510380D02*
X133839928Y-78510380D01*
X133506595Y-79510380D01*
X132744690Y-78843714D02*
X132744690Y-79510380D01*
X133173261Y-78843714D02*
X133173261Y-79367523D01*
X133125642Y-79462761D01*
X133030404Y-79510380D01*
X132887547Y-79510380D01*
X132792309Y-79462761D01*
X132744690Y-79415142D01*
X131839928Y-79510380D02*
X131839928Y-78510380D01*
X131839928Y-79462761D02*
X131935166Y-79510380D01*
X132125642Y-79510380D01*
X132220880Y-79462761D01*
X132268500Y-79415142D01*
X132316119Y-79319904D01*
X132316119Y-79034190D01*
X132268500Y-78938952D01*
X132220880Y-78891333D01*
X132125642Y-78843714D01*
X131935166Y-78843714D01*
X131839928Y-78891333D01*
X131363738Y-79510380D02*
X131363738Y-78843714D01*
X131363738Y-78510380D02*
X131411357Y-78558000D01*
X131363738Y-78605619D01*
X131316119Y-78558000D01*
X131363738Y-78510380D01*
X131363738Y-78605619D01*
X130744690Y-79510380D02*
X130839928Y-79462761D01*
X130887547Y-79415142D01*
X130935166Y-79319904D01*
X130935166Y-79034190D01*
X130887547Y-78938952D01*
X130839928Y-78891333D01*
X130744690Y-78843714D01*
X130601833Y-78843714D01*
X130506595Y-78891333D01*
X130458976Y-78938952D01*
X130411357Y-79034190D01*
X130411357Y-79319904D01*
X130458976Y-79415142D01*
X130506595Y-79462761D01*
X130601833Y-79510380D01*
X130744690Y-79510380D01*
X128744690Y-79510380D02*
X129220880Y-79510380D01*
X129220880Y-78510380D01*
X128411357Y-79510380D02*
X128411357Y-78843714D01*
X128411357Y-78510380D02*
X128458976Y-78558000D01*
X128411357Y-78605619D01*
X128363738Y-78558000D01*
X128411357Y-78510380D01*
X128411357Y-78605619D01*
X127506595Y-78843714D02*
X127506595Y-79653238D01*
X127554214Y-79748476D01*
X127601833Y-79796095D01*
X127697071Y-79843714D01*
X127839928Y-79843714D01*
X127935166Y-79796095D01*
X127506595Y-79462761D02*
X127601833Y-79510380D01*
X127792309Y-79510380D01*
X127887547Y-79462761D01*
X127935166Y-79415142D01*
X127982785Y-79319904D01*
X127982785Y-79034190D01*
X127935166Y-78938952D01*
X127887547Y-78891333D01*
X127792309Y-78843714D01*
X127601833Y-78843714D01*
X127506595Y-78891333D01*
X127030404Y-79510380D02*
X127030404Y-78510380D01*
X126601833Y-79510380D02*
X126601833Y-78986571D01*
X126649452Y-78891333D01*
X126744690Y-78843714D01*
X126887547Y-78843714D01*
X126982785Y-78891333D01*
X127030404Y-78938952D01*
X126268500Y-78843714D02*
X125887547Y-78843714D01*
X126125642Y-78510380D02*
X126125642Y-79367523D01*
X126078023Y-79462761D01*
X125982785Y-79510380D01*
X125887547Y-79510380D01*
X125554214Y-79510380D02*
X125554214Y-78843714D01*
X125554214Y-78510380D02*
X125601833Y-78558000D01*
X125554214Y-78605619D01*
X125506595Y-78558000D01*
X125554214Y-78510380D01*
X125554214Y-78605619D01*
X125078023Y-78843714D02*
X125078023Y-79510380D01*
X125078023Y-78938952D02*
X125030404Y-78891333D01*
X124935166Y-78843714D01*
X124792309Y-78843714D01*
X124697071Y-78891333D01*
X124649452Y-78986571D01*
X124649452Y-79510380D01*
X123744690Y-78843714D02*
X123744690Y-79653238D01*
X123792309Y-79748476D01*
X123839928Y-79796095D01*
X123935166Y-79843714D01*
X124078023Y-79843714D01*
X124173261Y-79796095D01*
X123744690Y-79462761D02*
X123839928Y-79510380D01*
X124030404Y-79510380D01*
X124125642Y-79462761D01*
X124173261Y-79415142D01*
X124220880Y-79319904D01*
X124220880Y-79034190D01*
X124173261Y-78938952D01*
X124125642Y-78891333D01*
X124030404Y-78843714D01*
X123839928Y-78843714D01*
X123744690Y-78891333D01*
X122649452Y-78510380D02*
X122078023Y-78510380D01*
X122363738Y-79510380D02*
X122363738Y-78510380D01*
X121744690Y-79510380D02*
X121744690Y-78843714D01*
X121744690Y-79034190D02*
X121697071Y-78938952D01*
X121649452Y-78891333D01*
X121554214Y-78843714D01*
X121458976Y-78843714D01*
X120697071Y-79510380D02*
X120697071Y-78986571D01*
X120744690Y-78891333D01*
X120839928Y-78843714D01*
X121030404Y-78843714D01*
X121125642Y-78891333D01*
X120697071Y-79462761D02*
X120792309Y-79510380D01*
X121030404Y-79510380D01*
X121125642Y-79462761D01*
X121173261Y-79367523D01*
X121173261Y-79272285D01*
X121125642Y-79177047D01*
X121030404Y-79129428D01*
X120792309Y-79129428D01*
X120697071Y-79081809D01*
X120220880Y-78843714D02*
X120220880Y-79510380D01*
X120220880Y-78938952D02*
X120173261Y-78891333D01*
X120078023Y-78843714D01*
X119935166Y-78843714D01*
X119839928Y-78891333D01*
X119792309Y-78986571D01*
X119792309Y-79510380D01*
X119363738Y-79462761D02*
X119268500Y-79510380D01*
X119078023Y-79510380D01*
X118982785Y-79462761D01*
X118935166Y-79367523D01*
X118935166Y-79319904D01*
X118982785Y-79224666D01*
X119078023Y-79177047D01*
X119220880Y-79177047D01*
X119316119Y-79129428D01*
X119363738Y-79034190D01*
X119363738Y-78986571D01*
X119316119Y-78891333D01*
X119220880Y-78843714D01*
X119078023Y-78843714D01*
X118982785Y-78891333D01*
X118506595Y-79510380D02*
X118506595Y-78843714D01*
X118506595Y-78938952D02*
X118458976Y-78891333D01*
X118363738Y-78843714D01*
X118220880Y-78843714D01*
X118125642Y-78891333D01*
X118078023Y-78986571D01*
X118078023Y-79510380D01*
X118078023Y-78986571D02*
X118030404Y-78891333D01*
X117935166Y-78843714D01*
X117792309Y-78843714D01*
X117697071Y-78891333D01*
X117649452Y-78986571D01*
X117649452Y-79510380D01*
X117173261Y-79510380D02*
X117173261Y-78843714D01*
X117173261Y-78510380D02*
X117220880Y-78558000D01*
X117173261Y-78605619D01*
X117125642Y-78558000D01*
X117173261Y-78510380D01*
X117173261Y-78605619D01*
X116839928Y-78843714D02*
X116458976Y-78843714D01*
X116697071Y-78510380D02*
X116697071Y-79367523D01*
X116649452Y-79462761D01*
X116554214Y-79510380D01*
X116458976Y-79510380D01*
X116268500Y-78843714D02*
X115887547Y-78843714D01*
X116125642Y-78510380D02*
X116125642Y-79367523D01*
X116078023Y-79462761D01*
X115982785Y-79510380D01*
X115887547Y-79510380D01*
X115173261Y-79462761D02*
X115268500Y-79510380D01*
X115458976Y-79510380D01*
X115554214Y-79462761D01*
X115601833Y-79367523D01*
X115601833Y-78986571D01*
X115554214Y-78891333D01*
X115458976Y-78843714D01*
X115268500Y-78843714D01*
X115173261Y-78891333D01*
X115125642Y-78986571D01*
X115125642Y-79081809D01*
X115601833Y-79177047D01*
X114697071Y-79510380D02*
X114697071Y-78843714D01*
X114697071Y-79034190D02*
X114649452Y-78938952D01*
X114601833Y-78891333D01*
X114506595Y-78843714D01*
X114411357Y-78843714D01*
X113411357Y-78843714D02*
X113173261Y-79510380D01*
X112935166Y-78843714D01*
X112030404Y-79510380D02*
X112601833Y-79510380D01*
X112316119Y-79510380D02*
X112316119Y-78510380D01*
X112411357Y-78653238D01*
X112506595Y-78748476D01*
X112601833Y-78796095D01*
X111601833Y-79415142D02*
X111554214Y-79462761D01*
X111601833Y-79510380D01*
X111649452Y-79462761D01*
X111601833Y-79415142D01*
X111601833Y-79510380D01*
X110935166Y-78510380D02*
X110839928Y-78510380D01*
X110744690Y-78558000D01*
X110697071Y-78605619D01*
X110649452Y-78700857D01*
X110601833Y-78891333D01*
X110601833Y-79129428D01*
X110649452Y-79319904D01*
X110697071Y-79415142D01*
X110744690Y-79462761D01*
X110839928Y-79510380D01*
X110935166Y-79510380D01*
X111030404Y-79462761D01*
X111078023Y-79415142D01*
X111125642Y-79319904D01*
X111173261Y-79129428D01*
X111173261Y-78891333D01*
X111125642Y-78700857D01*
X111078023Y-78605619D01*
X111030404Y-78558000D01*
X110935166Y-78510380D01*
X134030404Y-81160380D02*
X134030404Y-80160380D01*
X133792309Y-80160380D01*
X133649452Y-80208000D01*
X133554214Y-80303238D01*
X133506595Y-80398476D01*
X133458976Y-80588952D01*
X133458976Y-80731809D01*
X133506595Y-80922285D01*
X133554214Y-81017523D01*
X133649452Y-81112761D01*
X133792309Y-81160380D01*
X134030404Y-81160380D01*
X132601833Y-81160380D02*
X132601833Y-80636571D01*
X132649452Y-80541333D01*
X132744690Y-80493714D01*
X132935166Y-80493714D01*
X133030404Y-80541333D01*
X132601833Y-81112761D02*
X132697071Y-81160380D01*
X132935166Y-81160380D01*
X133030404Y-81112761D01*
X133078023Y-81017523D01*
X133078023Y-80922285D01*
X133030404Y-80827047D01*
X132935166Y-80779428D01*
X132697071Y-80779428D01*
X132601833Y-80731809D01*
X132125642Y-81160380D02*
X132125642Y-80493714D01*
X132125642Y-80588952D02*
X132078023Y-80541333D01*
X131982785Y-80493714D01*
X131839928Y-80493714D01*
X131744690Y-80541333D01*
X131697071Y-80636571D01*
X131697071Y-81160380D01*
X131697071Y-80636571D02*
X131649452Y-80541333D01*
X131554214Y-80493714D01*
X131411357Y-80493714D01*
X131316119Y-80541333D01*
X131268500Y-80636571D01*
X131268500Y-81160380D01*
X130792309Y-81160380D02*
X130792309Y-80493714D01*
X130792309Y-80160380D02*
X130839928Y-80208000D01*
X130792309Y-80255619D01*
X130744690Y-80208000D01*
X130792309Y-80160380D01*
X130792309Y-80255619D01*
X129887547Y-81160380D02*
X129887547Y-80636571D01*
X129935166Y-80541333D01*
X130030404Y-80493714D01*
X130220880Y-80493714D01*
X130316119Y-80541333D01*
X129887547Y-81112761D02*
X129982785Y-81160380D01*
X130220880Y-81160380D01*
X130316119Y-81112761D01*
X130363738Y-81017523D01*
X130363738Y-80922285D01*
X130316119Y-80827047D01*
X130220880Y-80779428D01*
X129982785Y-80779428D01*
X129887547Y-80731809D01*
X129411357Y-80493714D02*
X129411357Y-81160380D01*
X129411357Y-80588952D02*
X129363738Y-80541333D01*
X129268500Y-80493714D01*
X129125642Y-80493714D01*
X129030404Y-80541333D01*
X128982785Y-80636571D01*
X128982785Y-81160380D01*
X127744690Y-81160380D02*
X127744690Y-80160380D01*
X127411357Y-80874666D01*
X127078023Y-80160380D01*
X127078023Y-81160380D01*
X126458976Y-81160380D02*
X126554214Y-81112761D01*
X126601833Y-81065142D01*
X126649452Y-80969904D01*
X126649452Y-80684190D01*
X126601833Y-80588952D01*
X126554214Y-80541333D01*
X126458976Y-80493714D01*
X126316119Y-80493714D01*
X126220880Y-80541333D01*
X126173261Y-80588952D01*
X126125642Y-80684190D01*
X126125642Y-80969904D01*
X126173261Y-81065142D01*
X126220880Y-81112761D01*
X126316119Y-81160380D01*
X126458976Y-81160380D01*
X125554214Y-81160380D02*
X125649452Y-81112761D01*
X125697071Y-81065142D01*
X125744690Y-80969904D01*
X125744690Y-80684190D01*
X125697071Y-80588952D01*
X125649452Y-80541333D01*
X125554214Y-80493714D01*
X125411357Y-80493714D01*
X125316119Y-80541333D01*
X125268500Y-80588952D01*
X125220880Y-80684190D01*
X125220880Y-80969904D01*
X125268500Y-81065142D01*
X125316119Y-81112761D01*
X125411357Y-81160380D01*
X125554214Y-81160380D01*
X124792309Y-81160380D02*
X124792309Y-80493714D01*
X124792309Y-80684190D02*
X124744690Y-80588952D01*
X124697071Y-80541333D01*
X124601833Y-80493714D01*
X124506595Y-80493714D01*
X123792309Y-81112761D02*
X123887547Y-81160380D01*
X124078023Y-81160380D01*
X124173261Y-81112761D01*
X124220880Y-81017523D01*
X124220880Y-80636571D01*
X124173261Y-80541333D01*
X124078023Y-80493714D01*
X123887547Y-80493714D01*
X123792309Y-80541333D01*
X123744690Y-80636571D01*
X123744690Y-80731809D01*
X124220880Y-80827047D01*
X122601833Y-80255619D02*
X122554214Y-80208000D01*
X122458976Y-80160380D01*
X122220880Y-80160380D01*
X122125642Y-80208000D01*
X122078023Y-80255619D01*
X122030404Y-80350857D01*
X122030404Y-80446095D01*
X122078023Y-80588952D01*
X122649452Y-81160380D01*
X122030404Y-81160380D01*
X121411357Y-80160380D02*
X121316119Y-80160380D01*
X121220880Y-80208000D01*
X121173261Y-80255619D01*
X121125642Y-80350857D01*
X121078023Y-80541333D01*
X121078023Y-80779428D01*
X121125642Y-80969904D01*
X121173261Y-81065142D01*
X121220880Y-81112761D01*
X121316119Y-81160380D01*
X121411357Y-81160380D01*
X121506595Y-81112761D01*
X121554214Y-81065142D01*
X121601833Y-80969904D01*
X121649452Y-80779428D01*
X121649452Y-80541333D01*
X121601833Y-80350857D01*
X121554214Y-80255619D01*
X121506595Y-80208000D01*
X121411357Y-80160380D01*
X120697071Y-80255619D02*
X120649452Y-80208000D01*
X120554214Y-80160380D01*
X120316119Y-80160380D01*
X120220880Y-80208000D01*
X120173261Y-80255619D01*
X120125642Y-80350857D01*
X120125642Y-80446095D01*
X120173261Y-80588952D01*
X120744690Y-81160380D01*
X120125642Y-81160380D01*
X119506595Y-80160380D02*
X119411357Y-80160380D01*
X119316119Y-80208000D01*
X119268500Y-80255619D01*
X119220880Y-80350857D01*
X119173261Y-80541333D01*
X119173261Y-80779428D01*
X119220880Y-80969904D01*
X119268500Y-81065142D01*
X119316119Y-81112761D01*
X119411357Y-81160380D01*
X119506595Y-81160380D01*
X119601833Y-81112761D01*
X119649452Y-81065142D01*
X119697071Y-80969904D01*
X119744690Y-80779428D01*
X119744690Y-80541333D01*
X119697071Y-80350857D01*
X119649452Y-80255619D01*
X119601833Y-80208000D01*
X119506595Y-80160380D01*
D11*
G36*
X129400122Y-61819776D02*
G01*
X129294388Y-61820355D01*
X129217868Y-61821922D01*
X129165628Y-61824972D01*
X129132737Y-61829996D01*
X129114263Y-61837489D01*
X129105273Y-61847944D01*
X129100837Y-61861853D01*
X129100406Y-61863654D01*
X129093667Y-61896145D01*
X129081192Y-61960252D01*
X129064281Y-62049151D01*
X129044229Y-62156019D01*
X129022336Y-62274033D01*
X129021571Y-62278178D01*
X128999641Y-62393831D01*
X128979123Y-62496014D01*
X128961341Y-62578598D01*
X128947619Y-62635456D01*
X128939282Y-62660458D01*
X128938884Y-62660901D01*
X128914323Y-62673110D01*
X128863685Y-62693456D01*
X128797905Y-62717545D01*
X128797539Y-62717674D01*
X128714683Y-62748818D01*
X128617000Y-62788491D01*
X128524923Y-62828381D01*
X128520566Y-62830353D01*
X128370593Y-62898420D01*
X128038502Y-62671639D01*
X127936626Y-62602504D01*
X127844343Y-62540697D01*
X127766997Y-62489733D01*
X127709936Y-62453127D01*
X127678505Y-62434394D01*
X127675521Y-62433004D01*
X127652679Y-62439190D01*
X127610018Y-62469035D01*
X127545872Y-62523947D01*
X127458579Y-62605334D01*
X127369465Y-62691922D01*
X127283559Y-62777247D01*
X127206673Y-62855108D01*
X127143436Y-62920697D01*
X127098477Y-62969205D01*
X127076424Y-62995825D01*
X127075604Y-62997195D01*
X127073166Y-63015463D01*
X127082350Y-63045295D01*
X127105426Y-63090721D01*
X127144663Y-63155770D01*
X127202330Y-63244470D01*
X127279205Y-63358657D01*
X127347430Y-63459162D01*
X127408418Y-63549303D01*
X127458644Y-63623849D01*
X127494584Y-63677565D01*
X127512713Y-63705218D01*
X127513854Y-63707095D01*
X127511641Y-63733590D01*
X127494862Y-63785086D01*
X127466858Y-63851851D01*
X127456878Y-63873172D01*
X127413328Y-63968159D01*
X127366866Y-64075937D01*
X127329123Y-64169192D01*
X127301927Y-64238406D01*
X127280325Y-64291006D01*
X127267842Y-64318497D01*
X127266291Y-64320616D01*
X127243332Y-64324124D01*
X127189214Y-64333738D01*
X127111132Y-64348089D01*
X127016281Y-64365807D01*
X126911857Y-64385525D01*
X126805056Y-64405874D01*
X126703074Y-64425486D01*
X126613106Y-64442991D01*
X126542347Y-64457022D01*
X126497994Y-64466209D01*
X126487115Y-64468807D01*
X126475878Y-64475218D01*
X126467395Y-64489697D01*
X126461286Y-64517133D01*
X126457168Y-64562411D01*
X126454659Y-64630420D01*
X126453379Y-64726047D01*
X126452946Y-64854180D01*
X126452923Y-64906701D01*
X126452923Y-65333845D01*
X126555500Y-65354091D01*
X126612569Y-65365070D01*
X126697731Y-65381095D01*
X126800628Y-65400233D01*
X126910904Y-65420551D01*
X126941385Y-65426132D01*
X127043145Y-65445917D01*
X127131795Y-65465373D01*
X127199892Y-65482697D01*
X127239996Y-65496088D01*
X127246677Y-65500079D01*
X127263081Y-65528342D01*
X127286601Y-65583109D01*
X127312684Y-65653588D01*
X127317858Y-65668769D01*
X127352044Y-65762896D01*
X127394477Y-65869101D01*
X127436003Y-65964473D01*
X127436208Y-65964916D01*
X127505360Y-66114525D01*
X127050488Y-66783617D01*
X127342500Y-67076116D01*
X127430820Y-67163170D01*
X127511375Y-67239909D01*
X127579640Y-67302237D01*
X127631092Y-67346056D01*
X127661206Y-67367270D01*
X127665526Y-67368616D01*
X127690889Y-67358016D01*
X127742642Y-67328547D01*
X127815132Y-67283705D01*
X127902706Y-67226984D01*
X127997388Y-67163462D01*
X128093484Y-67098668D01*
X128179163Y-67042287D01*
X128248984Y-66997788D01*
X128297506Y-66968639D01*
X128319218Y-66958308D01*
X128345707Y-66967050D01*
X128395938Y-66990087D01*
X128459549Y-67022631D01*
X128466292Y-67026249D01*
X128551954Y-67069210D01*
X128610694Y-67090279D01*
X128647228Y-67090503D01*
X128666269Y-67070928D01*
X128666380Y-67070654D01*
X128675898Y-67047472D01*
X128698597Y-66992441D01*
X128732718Y-66909822D01*
X128776500Y-66803872D01*
X128828184Y-66678852D01*
X128886008Y-66539020D01*
X128942009Y-66403637D01*
X129003553Y-66254234D01*
X129060061Y-66115832D01*
X129109839Y-65992673D01*
X129151194Y-65889002D01*
X129182432Y-65809059D01*
X129201859Y-65757088D01*
X129207846Y-65737692D01*
X129192832Y-65715443D01*
X129153561Y-65679982D01*
X129101193Y-65640887D01*
X128952059Y-65517245D01*
X128835489Y-65375522D01*
X128752882Y-65218704D01*
X128705634Y-65049775D01*
X128695143Y-64871722D01*
X128702769Y-64789539D01*
X128744318Y-64619031D01*
X128815877Y-64468459D01*
X128913005Y-64339309D01*
X129031266Y-64233064D01*
X129166220Y-64151210D01*
X129313429Y-64095232D01*
X129468456Y-64066615D01*
X129626861Y-64066844D01*
X129784206Y-64097405D01*
X129936054Y-64159782D01*
X130077965Y-64255460D01*
X130137197Y-64309572D01*
X130250797Y-64448520D01*
X130329894Y-64600361D01*
X130375014Y-64760667D01*
X130386684Y-64925012D01*
X130365431Y-65088971D01*
X130311780Y-65248118D01*
X130226260Y-65398025D01*
X130109395Y-65534267D01*
X129978807Y-65640887D01*
X129924412Y-65681642D01*
X129885986Y-65716718D01*
X129872154Y-65737726D01*
X129879397Y-65760635D01*
X129899995Y-65815365D01*
X129932254Y-65897672D01*
X129974479Y-66003315D01*
X130024977Y-66128050D01*
X130082052Y-66267636D01*
X130138146Y-66403670D01*
X130200033Y-66553201D01*
X130257356Y-66691767D01*
X130308356Y-66815107D01*
X130351273Y-66918964D01*
X130384347Y-66999080D01*
X130405819Y-67051195D01*
X130413775Y-67070654D01*
X130432571Y-67090423D01*
X130468926Y-67090365D01*
X130527521Y-67069441D01*
X130613032Y-67026613D01*
X130613708Y-67026249D01*
X130678093Y-66993012D01*
X130730139Y-66968802D01*
X130759488Y-66958404D01*
X130760783Y-66958308D01*
X130782876Y-66968855D01*
X130831652Y-66998184D01*
X130901669Y-67042827D01*
X130987486Y-67099314D01*
X131082612Y-67163462D01*
X131179460Y-67228411D01*
X131266747Y-67284896D01*
X131338819Y-67329421D01*
X131390023Y-67358490D01*
X131414474Y-67368616D01*
X131436990Y-67355307D01*
X131482258Y-67318112D01*
X131545756Y-67261128D01*
X131622961Y-67188449D01*
X131709349Y-67104171D01*
X131737601Y-67076016D01*
X132029713Y-66783416D01*
X131807369Y-66457104D01*
X131739798Y-66356897D01*
X131680493Y-66266963D01*
X131632783Y-66192510D01*
X131599993Y-66138751D01*
X131585452Y-66110894D01*
X131585026Y-66108912D01*
X131592692Y-66082655D01*
X131613311Y-66029837D01*
X131643315Y-65959310D01*
X131664375Y-65912093D01*
X131703752Y-65821694D01*
X131740835Y-65730366D01*
X131769585Y-65653200D01*
X131777395Y-65629692D01*
X131799583Y-65566916D01*
X131821273Y-65518411D01*
X131833187Y-65500079D01*
X131859477Y-65488859D01*
X131916858Y-65472954D01*
X131997882Y-65454167D01*
X132095105Y-65434299D01*
X132138615Y-65426132D01*
X132249104Y-65405829D01*
X132355084Y-65386170D01*
X132446199Y-65369088D01*
X132512092Y-65356518D01*
X132524500Y-65354091D01*
X132627077Y-65333845D01*
X132627077Y-64906701D01*
X132626847Y-64766246D01*
X132625901Y-64659979D01*
X132623859Y-64583013D01*
X132620338Y-64530460D01*
X132614957Y-64497433D01*
X132607334Y-64479045D01*
X132597088Y-64470408D01*
X132592885Y-64468807D01*
X132567530Y-64463127D01*
X132511516Y-64451795D01*
X132432036Y-64436179D01*
X132336288Y-64417647D01*
X132231467Y-64397569D01*
X132124768Y-64377312D01*
X132023387Y-64358246D01*
X131934521Y-64341739D01*
X131865363Y-64329159D01*
X131823111Y-64321875D01*
X131813710Y-64320616D01*
X131805193Y-64303763D01*
X131786340Y-64258870D01*
X131760676Y-64194430D01*
X131750877Y-64169192D01*
X131711352Y-64071686D01*
X131664808Y-63963959D01*
X131623123Y-63873172D01*
X131592450Y-63803753D01*
X131572044Y-63746710D01*
X131565232Y-63711777D01*
X131566318Y-63707095D01*
X131580715Y-63684991D01*
X131613588Y-63635831D01*
X131661410Y-63564848D01*
X131720652Y-63477278D01*
X131787785Y-63378357D01*
X131801059Y-63358830D01*
X131878954Y-63243140D01*
X131936213Y-63155044D01*
X131975119Y-63090486D01*
X131997956Y-63045411D01*
X132007006Y-63015763D01*
X132004552Y-62997485D01*
X132004489Y-62997369D01*
X131985173Y-62973361D01*
X131942449Y-62926947D01*
X131880949Y-62862937D01*
X131805302Y-62786145D01*
X131720139Y-62701382D01*
X131710535Y-62691922D01*
X131603210Y-62587989D01*
X131520385Y-62511675D01*
X131460395Y-62461571D01*
X131421577Y-62436270D01*
X131404480Y-62433004D01*
X131379527Y-62447250D01*
X131327745Y-62480156D01*
X131254480Y-62528208D01*
X131165080Y-62587890D01*
X131064889Y-62655688D01*
X131041499Y-62671639D01*
X130709407Y-62898420D01*
X130559435Y-62830353D01*
X130468230Y-62790685D01*
X130370331Y-62750791D01*
X130286169Y-62718983D01*
X130282462Y-62717674D01*
X130216631Y-62693576D01*
X130165884Y-62673200D01*
X130141158Y-62660936D01*
X130141116Y-62660901D01*
X130133271Y-62638734D01*
X130119934Y-62584217D01*
X130102430Y-62503480D01*
X130082083Y-62402650D01*
X130060218Y-62287856D01*
X130058429Y-62278178D01*
X130036496Y-62159904D01*
X130016360Y-62052542D01*
X129999320Y-61962917D01*
X129986672Y-61897851D01*
X129979716Y-61864168D01*
X129979594Y-61863654D01*
X129975361Y-61849325D01*
X129967129Y-61838507D01*
X129949967Y-61830706D01*
X129918942Y-61825429D01*
X129869122Y-61822182D01*
X129795576Y-61820472D01*
X129693371Y-61819807D01*
X129557575Y-61819693D01*
X129540000Y-61819692D01*
X129400122Y-61819776D01*
G37*
X129400122Y-61819776D02*
X129294388Y-61820355D01*
X129217868Y-61821922D01*
X129165628Y-61824972D01*
X129132737Y-61829996D01*
X129114263Y-61837489D01*
X129105273Y-61847944D01*
X129100837Y-61861853D01*
X129100406Y-61863654D01*
X129093667Y-61896145D01*
X129081192Y-61960252D01*
X129064281Y-62049151D01*
X129044229Y-62156019D01*
X129022336Y-62274033D01*
X129021571Y-62278178D01*
X128999641Y-62393831D01*
X128979123Y-62496014D01*
X128961341Y-62578598D01*
X128947619Y-62635456D01*
X128939282Y-62660458D01*
X128938884Y-62660901D01*
X128914323Y-62673110D01*
X128863685Y-62693456D01*
X128797905Y-62717545D01*
X128797539Y-62717674D01*
X128714683Y-62748818D01*
X128617000Y-62788491D01*
X128524923Y-62828381D01*
X128520566Y-62830353D01*
X128370593Y-62898420D01*
X128038502Y-62671639D01*
X127936626Y-62602504D01*
X127844343Y-62540697D01*
X127766997Y-62489733D01*
X127709936Y-62453127D01*
X127678505Y-62434394D01*
X127675521Y-62433004D01*
X127652679Y-62439190D01*
X127610018Y-62469035D01*
X127545872Y-62523947D01*
X127458579Y-62605334D01*
X127369465Y-62691922D01*
X127283559Y-62777247D01*
X127206673Y-62855108D01*
X127143436Y-62920697D01*
X127098477Y-62969205D01*
X127076424Y-62995825D01*
X127075604Y-62997195D01*
X127073166Y-63015463D01*
X127082350Y-63045295D01*
X127105426Y-63090721D01*
X127144663Y-63155770D01*
X127202330Y-63244470D01*
X127279205Y-63358657D01*
X127347430Y-63459162D01*
X127408418Y-63549303D01*
X127458644Y-63623849D01*
X127494584Y-63677565D01*
X127512713Y-63705218D01*
X127513854Y-63707095D01*
X127511641Y-63733590D01*
X127494862Y-63785086D01*
X127466858Y-63851851D01*
X127456878Y-63873172D01*
X127413328Y-63968159D01*
X127366866Y-64075937D01*
X127329123Y-64169192D01*
X127301927Y-64238406D01*
X127280325Y-64291006D01*
X127267842Y-64318497D01*
X127266291Y-64320616D01*
X127243332Y-64324124D01*
X127189214Y-64333738D01*
X127111132Y-64348089D01*
X127016281Y-64365807D01*
X126911857Y-64385525D01*
X126805056Y-64405874D01*
X126703074Y-64425486D01*
X126613106Y-64442991D01*
X126542347Y-64457022D01*
X126497994Y-64466209D01*
X126487115Y-64468807D01*
X126475878Y-64475218D01*
X126467395Y-64489697D01*
X126461286Y-64517133D01*
X126457168Y-64562411D01*
X126454659Y-64630420D01*
X126453379Y-64726047D01*
X126452946Y-64854180D01*
X126452923Y-64906701D01*
X126452923Y-65333845D01*
X126555500Y-65354091D01*
X126612569Y-65365070D01*
X126697731Y-65381095D01*
X126800628Y-65400233D01*
X126910904Y-65420551D01*
X126941385Y-65426132D01*
X127043145Y-65445917D01*
X127131795Y-65465373D01*
X127199892Y-65482697D01*
X127239996Y-65496088D01*
X127246677Y-65500079D01*
X127263081Y-65528342D01*
X127286601Y-65583109D01*
X127312684Y-65653588D01*
X127317858Y-65668769D01*
X127352044Y-65762896D01*
X127394477Y-65869101D01*
X127436003Y-65964473D01*
X127436208Y-65964916D01*
X127505360Y-66114525D01*
X127050488Y-66783617D01*
X127342500Y-67076116D01*
X127430820Y-67163170D01*
X127511375Y-67239909D01*
X127579640Y-67302237D01*
X127631092Y-67346056D01*
X127661206Y-67367270D01*
X127665526Y-67368616D01*
X127690889Y-67358016D01*
X127742642Y-67328547D01*
X127815132Y-67283705D01*
X127902706Y-67226984D01*
X127997388Y-67163462D01*
X128093484Y-67098668D01*
X128179163Y-67042287D01*
X128248984Y-66997788D01*
X128297506Y-66968639D01*
X128319218Y-66958308D01*
X128345707Y-66967050D01*
X128395938Y-66990087D01*
X128459549Y-67022631D01*
X128466292Y-67026249D01*
X128551954Y-67069210D01*
X128610694Y-67090279D01*
X128647228Y-67090503D01*
X128666269Y-67070928D01*
X128666380Y-67070654D01*
X128675898Y-67047472D01*
X128698597Y-66992441D01*
X128732718Y-66909822D01*
X128776500Y-66803872D01*
X128828184Y-66678852D01*
X128886008Y-66539020D01*
X128942009Y-66403637D01*
X129003553Y-66254234D01*
X129060061Y-66115832D01*
X129109839Y-65992673D01*
X129151194Y-65889002D01*
X129182432Y-65809059D01*
X129201859Y-65757088D01*
X129207846Y-65737692D01*
X129192832Y-65715443D01*
X129153561Y-65679982D01*
X129101193Y-65640887D01*
X128952059Y-65517245D01*
X128835489Y-65375522D01*
X128752882Y-65218704D01*
X128705634Y-65049775D01*
X128695143Y-64871722D01*
X128702769Y-64789539D01*
X128744318Y-64619031D01*
X128815877Y-64468459D01*
X128913005Y-64339309D01*
X129031266Y-64233064D01*
X129166220Y-64151210D01*
X129313429Y-64095232D01*
X129468456Y-64066615D01*
X129626861Y-64066844D01*
X129784206Y-64097405D01*
X129936054Y-64159782D01*
X130077965Y-64255460D01*
X130137197Y-64309572D01*
X130250797Y-64448520D01*
X130329894Y-64600361D01*
X130375014Y-64760667D01*
X130386684Y-64925012D01*
X130365431Y-65088971D01*
X130311780Y-65248118D01*
X130226260Y-65398025D01*
X130109395Y-65534267D01*
X129978807Y-65640887D01*
X129924412Y-65681642D01*
X129885986Y-65716718D01*
X129872154Y-65737726D01*
X129879397Y-65760635D01*
X129899995Y-65815365D01*
X129932254Y-65897672D01*
X129974479Y-66003315D01*
X130024977Y-66128050D01*
X130082052Y-66267636D01*
X130138146Y-66403670D01*
X130200033Y-66553201D01*
X130257356Y-66691767D01*
X130308356Y-66815107D01*
X130351273Y-66918964D01*
X130384347Y-66999080D01*
X130405819Y-67051195D01*
X130413775Y-67070654D01*
X130432571Y-67090423D01*
X130468926Y-67090365D01*
X130527521Y-67069441D01*
X130613032Y-67026613D01*
X130613708Y-67026249D01*
X130678093Y-66993012D01*
X130730139Y-66968802D01*
X130759488Y-66958404D01*
X130760783Y-66958308D01*
X130782876Y-66968855D01*
X130831652Y-66998184D01*
X130901669Y-67042827D01*
X130987486Y-67099314D01*
X131082612Y-67163462D01*
X131179460Y-67228411D01*
X131266747Y-67284896D01*
X131338819Y-67329421D01*
X131390023Y-67358490D01*
X131414474Y-67368616D01*
X131436990Y-67355307D01*
X131482258Y-67318112D01*
X131545756Y-67261128D01*
X131622961Y-67188449D01*
X131709349Y-67104171D01*
X131737601Y-67076016D01*
X132029713Y-66783416D01*
X131807369Y-66457104D01*
X131739798Y-66356897D01*
X131680493Y-66266963D01*
X131632783Y-66192510D01*
X131599993Y-66138751D01*
X131585452Y-66110894D01*
X131585026Y-66108912D01*
X131592692Y-66082655D01*
X131613311Y-66029837D01*
X131643315Y-65959310D01*
X131664375Y-65912093D01*
X131703752Y-65821694D01*
X131740835Y-65730366D01*
X131769585Y-65653200D01*
X131777395Y-65629692D01*
X131799583Y-65566916D01*
X131821273Y-65518411D01*
X131833187Y-65500079D01*
X131859477Y-65488859D01*
X131916858Y-65472954D01*
X131997882Y-65454167D01*
X132095105Y-65434299D01*
X132138615Y-65426132D01*
X132249104Y-65405829D01*
X132355084Y-65386170D01*
X132446199Y-65369088D01*
X132512092Y-65356518D01*
X132524500Y-65354091D01*
X132627077Y-65333845D01*
X132627077Y-64906701D01*
X132626847Y-64766246D01*
X132625901Y-64659979D01*
X132623859Y-64583013D01*
X132620338Y-64530460D01*
X132614957Y-64497433D01*
X132607334Y-64479045D01*
X132597088Y-64470408D01*
X132592885Y-64468807D01*
X132567530Y-64463127D01*
X132511516Y-64451795D01*
X132432036Y-64436179D01*
X132336288Y-64417647D01*
X132231467Y-64397569D01*
X132124768Y-64377312D01*
X132023387Y-64358246D01*
X131934521Y-64341739D01*
X131865363Y-64329159D01*
X131823111Y-64321875D01*
X131813710Y-64320616D01*
X131805193Y-64303763D01*
X131786340Y-64258870D01*
X131760676Y-64194430D01*
X131750877Y-64169192D01*
X131711352Y-64071686D01*
X131664808Y-63963959D01*
X131623123Y-63873172D01*
X131592450Y-63803753D01*
X131572044Y-63746710D01*
X131565232Y-63711777D01*
X131566318Y-63707095D01*
X131580715Y-63684991D01*
X131613588Y-63635831D01*
X131661410Y-63564848D01*
X131720652Y-63477278D01*
X131787785Y-63378357D01*
X131801059Y-63358830D01*
X131878954Y-63243140D01*
X131936213Y-63155044D01*
X131975119Y-63090486D01*
X131997956Y-63045411D01*
X132007006Y-63015763D01*
X132004552Y-62997485D01*
X132004489Y-62997369D01*
X131985173Y-62973361D01*
X131942449Y-62926947D01*
X131880949Y-62862937D01*
X131805302Y-62786145D01*
X131720139Y-62701382D01*
X131710535Y-62691922D01*
X131603210Y-62587989D01*
X131520385Y-62511675D01*
X131460395Y-62461571D01*
X131421577Y-62436270D01*
X131404480Y-62433004D01*
X131379527Y-62447250D01*
X131327745Y-62480156D01*
X131254480Y-62528208D01*
X131165080Y-62587890D01*
X131064889Y-62655688D01*
X131041499Y-62671639D01*
X130709407Y-62898420D01*
X130559435Y-62830353D01*
X130468230Y-62790685D01*
X130370331Y-62750791D01*
X130286169Y-62718983D01*
X130282462Y-62717674D01*
X130216631Y-62693576D01*
X130165884Y-62673200D01*
X130141158Y-62660936D01*
X130141116Y-62660901D01*
X130133271Y-62638734D01*
X130119934Y-62584217D01*
X130102430Y-62503480D01*
X130082083Y-62402650D01*
X130060218Y-62287856D01*
X130058429Y-62278178D01*
X130036496Y-62159904D01*
X130016360Y-62052542D01*
X129999320Y-61962917D01*
X129986672Y-61897851D01*
X129979716Y-61864168D01*
X129979594Y-61863654D01*
X129975361Y-61849325D01*
X129967129Y-61838507D01*
X129949967Y-61830706D01*
X129918942Y-61825429D01*
X129869122Y-61822182D01*
X129795576Y-61820472D01*
X129693371Y-61819807D01*
X129557575Y-61819693D01*
X129540000Y-61819692D01*
X129400122Y-61819776D01*
G36*
X125294776Y-68179838D02*
G01*
X125217472Y-68230361D01*
X125180186Y-68275590D01*
X125150647Y-68357663D01*
X125148301Y-68422607D01*
X125153615Y-68509445D01*
X125353885Y-68597103D01*
X125451261Y-68641887D01*
X125514887Y-68677913D01*
X125547971Y-68709117D01*
X125553720Y-68739436D01*
X125535342Y-68772805D01*
X125515077Y-68794923D01*
X125456111Y-68830393D01*
X125391976Y-68832879D01*
X125333074Y-68805235D01*
X125289803Y-68750320D01*
X125282064Y-68730928D01*
X125244994Y-68670364D01*
X125202346Y-68644552D01*
X125143846Y-68622471D01*
X125143846Y-68706184D01*
X125149018Y-68763150D01*
X125169277Y-68811189D01*
X125211738Y-68866346D01*
X125218049Y-68873514D01*
X125265280Y-68922585D01*
X125305879Y-68948920D01*
X125356672Y-68961035D01*
X125398780Y-68965003D01*
X125474098Y-68965991D01*
X125527714Y-68953466D01*
X125561162Y-68934869D01*
X125613732Y-68893975D01*
X125650121Y-68849748D01*
X125673150Y-68794126D01*
X125685641Y-68719047D01*
X125690413Y-68616449D01*
X125690794Y-68564376D01*
X125689499Y-68501948D01*
X125571529Y-68501948D01*
X125570161Y-68535438D01*
X125566751Y-68540923D01*
X125544247Y-68533472D01*
X125495818Y-68513753D01*
X125431092Y-68485718D01*
X125417557Y-68479692D01*
X125335756Y-68438096D01*
X125290688Y-68401538D01*
X125280783Y-68367296D01*
X125304474Y-68332648D01*
X125324040Y-68317339D01*
X125394640Y-68286721D01*
X125460720Y-68291780D01*
X125516041Y-68329151D01*
X125554364Y-68395473D01*
X125566651Y-68448116D01*
X125571529Y-68501948D01*
X125689499Y-68501948D01*
X125688270Y-68442720D01*
X125678968Y-68352710D01*
X125660540Y-68287167D01*
X125630640Y-68238912D01*
X125586920Y-68200767D01*
X125567859Y-68188440D01*
X125481274Y-68156336D01*
X125386478Y-68154316D01*
X125294776Y-68179838D01*
G37*
X125294776Y-68179838D02*
X125217472Y-68230361D01*
X125180186Y-68275590D01*
X125150647Y-68357663D01*
X125148301Y-68422607D01*
X125153615Y-68509445D01*
X125353885Y-68597103D01*
X125451261Y-68641887D01*
X125514887Y-68677913D01*
X125547971Y-68709117D01*
X125553720Y-68739436D01*
X125535342Y-68772805D01*
X125515077Y-68794923D01*
X125456111Y-68830393D01*
X125391976Y-68832879D01*
X125333074Y-68805235D01*
X125289803Y-68750320D01*
X125282064Y-68730928D01*
X125244994Y-68670364D01*
X125202346Y-68644552D01*
X125143846Y-68622471D01*
X125143846Y-68706184D01*
X125149018Y-68763150D01*
X125169277Y-68811189D01*
X125211738Y-68866346D01*
X125218049Y-68873514D01*
X125265280Y-68922585D01*
X125305879Y-68948920D01*
X125356672Y-68961035D01*
X125398780Y-68965003D01*
X125474098Y-68965991D01*
X125527714Y-68953466D01*
X125561162Y-68934869D01*
X125613732Y-68893975D01*
X125650121Y-68849748D01*
X125673150Y-68794126D01*
X125685641Y-68719047D01*
X125690413Y-68616449D01*
X125690794Y-68564376D01*
X125689499Y-68501948D01*
X125571529Y-68501948D01*
X125570161Y-68535438D01*
X125566751Y-68540923D01*
X125544247Y-68533472D01*
X125495818Y-68513753D01*
X125431092Y-68485718D01*
X125417557Y-68479692D01*
X125335756Y-68438096D01*
X125290688Y-68401538D01*
X125280783Y-68367296D01*
X125304474Y-68332648D01*
X125324040Y-68317339D01*
X125394640Y-68286721D01*
X125460720Y-68291780D01*
X125516041Y-68329151D01*
X125554364Y-68395473D01*
X125566651Y-68448116D01*
X125571529Y-68501948D01*
X125689499Y-68501948D01*
X125688270Y-68442720D01*
X125678968Y-68352710D01*
X125660540Y-68287167D01*
X125630640Y-68238912D01*
X125586920Y-68200767D01*
X125567859Y-68188440D01*
X125481274Y-68156336D01*
X125386478Y-68154316D01*
X125294776Y-68179838D01*
G36*
X125969193Y-68168782D02*
G01*
X125945839Y-68178988D01*
X125890098Y-68223134D01*
X125842431Y-68286967D01*
X125812952Y-68355087D01*
X125808154Y-68388670D01*
X125824240Y-68435556D01*
X125859525Y-68460365D01*
X125897356Y-68475387D01*
X125914679Y-68478155D01*
X125923114Y-68458066D01*
X125939770Y-68414351D01*
X125947077Y-68394598D01*
X125988052Y-68326271D01*
X126047378Y-68292191D01*
X126123448Y-68293239D01*
X126129082Y-68294581D01*
X126169695Y-68313836D01*
X126199552Y-68351375D01*
X126219945Y-68411809D01*
X126232164Y-68499751D01*
X126237500Y-68619813D01*
X126238000Y-68683698D01*
X126238248Y-68784403D01*
X126239874Y-68853054D01*
X126244199Y-68896673D01*
X126252546Y-68922282D01*
X126266235Y-68936903D01*
X126286589Y-68947558D01*
X126287766Y-68948095D01*
X126326962Y-68964667D01*
X126346381Y-68970769D01*
X126349365Y-68952319D01*
X126351919Y-68901323D01*
X126353860Y-68824308D01*
X126355003Y-68727805D01*
X126355231Y-68657184D01*
X126354068Y-68520525D01*
X126349521Y-68416851D01*
X126340001Y-68340108D01*
X126323919Y-68284246D01*
X126299687Y-68243212D01*
X126265714Y-68210954D01*
X126232167Y-68188440D01*
X126151501Y-68158476D01*
X126057619Y-68151718D01*
X125969193Y-68168782D01*
G37*
X125969193Y-68168782D02*
X125945839Y-68178988D01*
X125890098Y-68223134D01*
X125842431Y-68286967D01*
X125812952Y-68355087D01*
X125808154Y-68388670D01*
X125824240Y-68435556D01*
X125859525Y-68460365D01*
X125897356Y-68475387D01*
X125914679Y-68478155D01*
X125923114Y-68458066D01*
X125939770Y-68414351D01*
X125947077Y-68394598D01*
X125988052Y-68326271D01*
X126047378Y-68292191D01*
X126123448Y-68293239D01*
X126129082Y-68294581D01*
X126169695Y-68313836D01*
X126199552Y-68351375D01*
X126219945Y-68411809D01*
X126232164Y-68499751D01*
X126237500Y-68619813D01*
X126238000Y-68683698D01*
X126238248Y-68784403D01*
X126239874Y-68853054D01*
X126244199Y-68896673D01*
X126252546Y-68922282D01*
X126266235Y-68936903D01*
X126286589Y-68947558D01*
X126287766Y-68948095D01*
X126326962Y-68964667D01*
X126346381Y-68970769D01*
X126349365Y-68952319D01*
X126351919Y-68901323D01*
X126353860Y-68824308D01*
X126355003Y-68727805D01*
X126355231Y-68657184D01*
X126354068Y-68520525D01*
X126349521Y-68416851D01*
X126340001Y-68340108D01*
X126323919Y-68284246D01*
X126299687Y-68243212D01*
X126265714Y-68210954D01*
X126232167Y-68188440D01*
X126151501Y-68158476D01*
X126057619Y-68151718D01*
X125969193Y-68168782D01*
G36*
X126652667Y-68165528D02*
G01*
X126596410Y-68191117D01*
X126552253Y-68222124D01*
X126519899Y-68256795D01*
X126497562Y-68301520D01*
X126483454Y-68362692D01*
X126475789Y-68446701D01*
X126472780Y-68559940D01*
X126472462Y-68634509D01*
X126472462Y-68925420D01*
X126522227Y-68948095D01*
X126561424Y-68964667D01*
X126580843Y-68970769D01*
X126584558Y-68952610D01*
X126587505Y-68903648D01*
X126589309Y-68832153D01*
X126589692Y-68775385D01*
X126591339Y-68693371D01*
X126595778Y-68628309D01*
X126602260Y-68588467D01*
X126607410Y-68580000D01*
X126642023Y-68588646D01*
X126696360Y-68610823D01*
X126759278Y-68640886D01*
X126819632Y-68673192D01*
X126866279Y-68702098D01*
X126888074Y-68721961D01*
X126888161Y-68722175D01*
X126886286Y-68758935D01*
X126869475Y-68794026D01*
X126839961Y-68822528D01*
X126796884Y-68832061D01*
X126760068Y-68830950D01*
X126707926Y-68830133D01*
X126680556Y-68842349D01*
X126664118Y-68874624D01*
X126662045Y-68880710D01*
X126654919Y-68926739D01*
X126673976Y-68954687D01*
X126723647Y-68968007D01*
X126777303Y-68970470D01*
X126873858Y-68952210D01*
X126923841Y-68926131D01*
X126985571Y-68864868D01*
X127018310Y-68789670D01*
X127021247Y-68710211D01*
X126993576Y-68636167D01*
X126951953Y-68589769D01*
X126910396Y-68563793D01*
X126845078Y-68530907D01*
X126768962Y-68497557D01*
X126756274Y-68492461D01*
X126672667Y-68455565D01*
X126624470Y-68423046D01*
X126608970Y-68390718D01*
X126623450Y-68354394D01*
X126648308Y-68326000D01*
X126707061Y-68291039D01*
X126771707Y-68288417D01*
X126830992Y-68315358D01*
X126873661Y-68369088D01*
X126879261Y-68382950D01*
X126911867Y-68433936D01*
X126959470Y-68471787D01*
X127019539Y-68502850D01*
X127019539Y-68414768D01*
X127016003Y-68360951D01*
X127000844Y-68318534D01*
X126967232Y-68273279D01*
X126934965Y-68238420D01*
X126884791Y-68189062D01*
X126845807Y-68162547D01*
X126803936Y-68151911D01*
X126756540Y-68150154D01*
X126652667Y-68165528D01*
G37*
X126652667Y-68165528D02*
X126596410Y-68191117D01*
X126552253Y-68222124D01*
X126519899Y-68256795D01*
X126497562Y-68301520D01*
X126483454Y-68362692D01*
X126475789Y-68446701D01*
X126472780Y-68559940D01*
X126472462Y-68634509D01*
X126472462Y-68925420D01*
X126522227Y-68948095D01*
X126561424Y-68964667D01*
X126580843Y-68970769D01*
X126584558Y-68952610D01*
X126587505Y-68903648D01*
X126589309Y-68832153D01*
X126589692Y-68775385D01*
X126591339Y-68693371D01*
X126595778Y-68628309D01*
X126602260Y-68588467D01*
X126607410Y-68580000D01*
X126642023Y-68588646D01*
X126696360Y-68610823D01*
X126759278Y-68640886D01*
X126819632Y-68673192D01*
X126866279Y-68702098D01*
X126888074Y-68721961D01*
X126888161Y-68722175D01*
X126886286Y-68758935D01*
X126869475Y-68794026D01*
X126839961Y-68822528D01*
X126796884Y-68832061D01*
X126760068Y-68830950D01*
X126707926Y-68830133D01*
X126680556Y-68842349D01*
X126664118Y-68874624D01*
X126662045Y-68880710D01*
X126654919Y-68926739D01*
X126673976Y-68954687D01*
X126723647Y-68968007D01*
X126777303Y-68970470D01*
X126873858Y-68952210D01*
X126923841Y-68926131D01*
X126985571Y-68864868D01*
X127018310Y-68789670D01*
X127021247Y-68710211D01*
X126993576Y-68636167D01*
X126951953Y-68589769D01*
X126910396Y-68563793D01*
X126845078Y-68530907D01*
X126768962Y-68497557D01*
X126756274Y-68492461D01*
X126672667Y-68455565D01*
X126624470Y-68423046D01*
X126608970Y-68390718D01*
X126623450Y-68354394D01*
X126648308Y-68326000D01*
X126707061Y-68291039D01*
X126771707Y-68288417D01*
X126830992Y-68315358D01*
X126873661Y-68369088D01*
X126879261Y-68382950D01*
X126911867Y-68433936D01*
X126959470Y-68471787D01*
X127019539Y-68502850D01*
X127019539Y-68414768D01*
X127016003Y-68360951D01*
X127000844Y-68318534D01*
X126967232Y-68273279D01*
X126934965Y-68238420D01*
X126884791Y-68189062D01*
X126845807Y-68162547D01*
X126803936Y-68151911D01*
X126756540Y-68150154D01*
X126652667Y-68165528D01*
G36*
X127144071Y-68168662D02*
G01*
X127141089Y-68220068D01*
X127138753Y-68298192D01*
X127137251Y-68396857D01*
X127136769Y-68500343D01*
X127136769Y-68850533D01*
X127198599Y-68912363D01*
X127241207Y-68950462D01*
X127278610Y-68965895D01*
X127329730Y-68964918D01*
X127350022Y-68962433D01*
X127413446Y-68955200D01*
X127465905Y-68951055D01*
X127478692Y-68950672D01*
X127521801Y-68953176D01*
X127583456Y-68959462D01*
X127607362Y-68962433D01*
X127666078Y-68967028D01*
X127705536Y-68957046D01*
X127744662Y-68926228D01*
X127758785Y-68912363D01*
X127820615Y-68850533D01*
X127820615Y-68195503D01*
X127770850Y-68172829D01*
X127727998Y-68156034D01*
X127702927Y-68150154D01*
X127696499Y-68168736D01*
X127690491Y-68220655D01*
X127685303Y-68300172D01*
X127681336Y-68401546D01*
X127679423Y-68487192D01*
X127674077Y-68824231D01*
X127627440Y-68830825D01*
X127585024Y-68826214D01*
X127564240Y-68811287D01*
X127558430Y-68783377D01*
X127553470Y-68723925D01*
X127549754Y-68640466D01*
X127547676Y-68540532D01*
X127547376Y-68489104D01*
X127547077Y-68193054D01*
X127485546Y-68171604D01*
X127441996Y-68157020D01*
X127418306Y-68150219D01*
X127417623Y-68150154D01*
X127415246Y-68168642D01*
X127412634Y-68219906D01*
X127410005Y-68297649D01*
X127407579Y-68395574D01*
X127405885Y-68487192D01*
X127400539Y-68824231D01*
X127283308Y-68824231D01*
X127277928Y-68516746D01*
X127272549Y-68209261D01*
X127215399Y-68179707D01*
X127173203Y-68159413D01*
X127148230Y-68150204D01*
X127147509Y-68150154D01*
X127144071Y-68168662D01*
G37*
X127144071Y-68168662D02*
X127141089Y-68220068D01*
X127138753Y-68298192D01*
X127137251Y-68396857D01*
X127136769Y-68500343D01*
X127136769Y-68850533D01*
X127198599Y-68912363D01*
X127241207Y-68950462D01*
X127278610Y-68965895D01*
X127329730Y-68964918D01*
X127350022Y-68962433D01*
X127413446Y-68955200D01*
X127465905Y-68951055D01*
X127478692Y-68950672D01*
X127521801Y-68953176D01*
X127583456Y-68959462D01*
X127607362Y-68962433D01*
X127666078Y-68967028D01*
X127705536Y-68957046D01*
X127744662Y-68926228D01*
X127758785Y-68912363D01*
X127820615Y-68850533D01*
X127820615Y-68195503D01*
X127770850Y-68172829D01*
X127727998Y-68156034D01*
X127702927Y-68150154D01*
X127696499Y-68168736D01*
X127690491Y-68220655D01*
X127685303Y-68300172D01*
X127681336Y-68401546D01*
X127679423Y-68487192D01*
X127674077Y-68824231D01*
X127627440Y-68830825D01*
X127585024Y-68826214D01*
X127564240Y-68811287D01*
X127558430Y-68783377D01*
X127553470Y-68723925D01*
X127549754Y-68640466D01*
X127547676Y-68540532D01*
X127547376Y-68489104D01*
X127547077Y-68193054D01*
X127485546Y-68171604D01*
X127441996Y-68157020D01*
X127418306Y-68150219D01*
X127417623Y-68150154D01*
X127415246Y-68168642D01*
X127412634Y-68219906D01*
X127410005Y-68297649D01*
X127407579Y-68395574D01*
X127405885Y-68487192D01*
X127400539Y-68824231D01*
X127283308Y-68824231D01*
X127277928Y-68516746D01*
X127272549Y-68209261D01*
X127215399Y-68179707D01*
X127173203Y-68159413D01*
X127148230Y-68150204D01*
X127147509Y-68150154D01*
X127144071Y-68168662D01*
G36*
X127937919Y-68312289D02*
G01*
X127938167Y-68458320D01*
X127939128Y-68570655D01*
X127941206Y-68654678D01*
X127944807Y-68715769D01*
X127950335Y-68759309D01*
X127958196Y-68790679D01*
X127968793Y-68815262D01*
X127976818Y-68829294D01*
X128043272Y-68905388D01*
X128127530Y-68953084D01*
X128220751Y-68970199D01*
X128314100Y-68954546D01*
X128369688Y-68926418D01*
X128428043Y-68877760D01*
X128467814Y-68818333D01*
X128491810Y-68740507D01*
X128502839Y-68636652D01*
X128504401Y-68560462D01*
X128504191Y-68554986D01*
X128367692Y-68554986D01*
X128366859Y-68642355D01*
X128363039Y-68700192D01*
X128354254Y-68738029D01*
X128338526Y-68765398D01*
X128319734Y-68786042D01*
X128256625Y-68825890D01*
X128188863Y-68829295D01*
X128124821Y-68796025D01*
X128119836Y-68791517D01*
X128098561Y-68768067D01*
X128085221Y-68740166D01*
X128077999Y-68698641D01*
X128075077Y-68634316D01*
X128074615Y-68563200D01*
X128075617Y-68473858D01*
X128079762Y-68414258D01*
X128088764Y-68375089D01*
X128104333Y-68347040D01*
X128117098Y-68332144D01*
X128176400Y-68294575D01*
X128244699Y-68290057D01*
X128309890Y-68318753D01*
X128322472Y-68329406D01*
X128343889Y-68353063D01*
X128357256Y-68381251D01*
X128364434Y-68423245D01*
X128367281Y-68488319D01*
X128367692Y-68554986D01*
X128504191Y-68554986D01*
X128499678Y-68437765D01*
X128483638Y-68345577D01*
X128453472Y-68276269D01*
X128406371Y-68222211D01*
X128369688Y-68194505D01*
X128303010Y-68164572D01*
X128225728Y-68150678D01*
X128153890Y-68154397D01*
X128113692Y-68169400D01*
X128097918Y-68173670D01*
X128087450Y-68157750D01*
X128080144Y-68115089D01*
X128074615Y-68050106D01*
X128068563Y-67977732D01*
X128060156Y-67934187D01*
X128044859Y-67909287D01*
X128018136Y-67892845D01*
X128001346Y-67885564D01*
X127937846Y-67858963D01*
X127937919Y-68312289D01*
G37*
X127937919Y-68312289D02*
X127938167Y-68458320D01*
X127939128Y-68570655D01*
X127941206Y-68654678D01*
X127944807Y-68715769D01*
X127950335Y-68759309D01*
X127958196Y-68790679D01*
X127968793Y-68815262D01*
X127976818Y-68829294D01*
X128043272Y-68905388D01*
X128127530Y-68953084D01*
X128220751Y-68970199D01*
X128314100Y-68954546D01*
X128369688Y-68926418D01*
X128428043Y-68877760D01*
X128467814Y-68818333D01*
X128491810Y-68740507D01*
X128502839Y-68636652D01*
X128504401Y-68560462D01*
X128504191Y-68554986D01*
X128367692Y-68554986D01*
X128366859Y-68642355D01*
X128363039Y-68700192D01*
X128354254Y-68738029D01*
X128338526Y-68765398D01*
X128319734Y-68786042D01*
X128256625Y-68825890D01*
X128188863Y-68829295D01*
X128124821Y-68796025D01*
X128119836Y-68791517D01*
X128098561Y-68768067D01*
X128085221Y-68740166D01*
X128077999Y-68698641D01*
X128075077Y-68634316D01*
X128074615Y-68563200D01*
X128075617Y-68473858D01*
X128079762Y-68414258D01*
X128088764Y-68375089D01*
X128104333Y-68347040D01*
X128117098Y-68332144D01*
X128176400Y-68294575D01*
X128244699Y-68290057D01*
X128309890Y-68318753D01*
X128322472Y-68329406D01*
X128343889Y-68353063D01*
X128357256Y-68381251D01*
X128364434Y-68423245D01*
X128367281Y-68488319D01*
X128367692Y-68554986D01*
X128504191Y-68554986D01*
X128499678Y-68437765D01*
X128483638Y-68345577D01*
X128453472Y-68276269D01*
X128406371Y-68222211D01*
X128369688Y-68194505D01*
X128303010Y-68164572D01*
X128225728Y-68150678D01*
X128153890Y-68154397D01*
X128113692Y-68169400D01*
X128097918Y-68173670D01*
X128087450Y-68157750D01*
X128080144Y-68115089D01*
X128074615Y-68050106D01*
X128068563Y-67977732D01*
X128060156Y-67934187D01*
X128044859Y-67909287D01*
X128018136Y-67892845D01*
X128001346Y-67885564D01*
X127937846Y-67858963D01*
X127937919Y-68312289D01*
G36*
X128826638Y-68156670D02*
G01*
X128737883Y-68189421D01*
X128665978Y-68247350D01*
X128637856Y-68288128D01*
X128607198Y-68362954D01*
X128607835Y-68417058D01*
X128640013Y-68453446D01*
X128651919Y-68459633D01*
X128703325Y-68478925D01*
X128729578Y-68473982D01*
X128738470Y-68441587D01*
X128738923Y-68423692D01*
X128755203Y-68357859D01*
X128797635Y-68311807D01*
X128856612Y-68289564D01*
X128922525Y-68295161D01*
X128976105Y-68324229D01*
X128994202Y-68340810D01*
X129007029Y-68360925D01*
X129015694Y-68391332D01*
X129021304Y-68438788D01*
X129024965Y-68510050D01*
X129027785Y-68611875D01*
X129028516Y-68644115D01*
X129031180Y-68754410D01*
X129034208Y-68832036D01*
X129038750Y-68883396D01*
X129045954Y-68914890D01*
X129056967Y-68932920D01*
X129072940Y-68943888D01*
X129083166Y-68948733D01*
X129126594Y-68965301D01*
X129152158Y-68970769D01*
X129160605Y-68952507D01*
X129165761Y-68897296D01*
X129167654Y-68804499D01*
X129166311Y-68673478D01*
X129165893Y-68653269D01*
X129162942Y-68533733D01*
X129159452Y-68446449D01*
X129154486Y-68384591D01*
X129147107Y-68341336D01*
X129136376Y-68309860D01*
X129121355Y-68283339D01*
X129113498Y-68271975D01*
X129068447Y-68221692D01*
X129018060Y-68182581D01*
X129011892Y-68179167D01*
X128921542Y-68152212D01*
X128826638Y-68156670D01*
G37*
X128826638Y-68156670D02*
X128737883Y-68189421D01*
X128665978Y-68247350D01*
X128637856Y-68288128D01*
X128607198Y-68362954D01*
X128607835Y-68417058D01*
X128640013Y-68453446D01*
X128651919Y-68459633D01*
X128703325Y-68478925D01*
X128729578Y-68473982D01*
X128738470Y-68441587D01*
X128738923Y-68423692D01*
X128755203Y-68357859D01*
X128797635Y-68311807D01*
X128856612Y-68289564D01*
X128922525Y-68295161D01*
X128976105Y-68324229D01*
X128994202Y-68340810D01*
X129007029Y-68360925D01*
X129015694Y-68391332D01*
X129021304Y-68438788D01*
X129024965Y-68510050D01*
X129027785Y-68611875D01*
X129028516Y-68644115D01*
X129031180Y-68754410D01*
X129034208Y-68832036D01*
X129038750Y-68883396D01*
X129045954Y-68914890D01*
X129056967Y-68932920D01*
X129072940Y-68943888D01*
X129083166Y-68948733D01*
X129126594Y-68965301D01*
X129152158Y-68970769D01*
X129160605Y-68952507D01*
X129165761Y-68897296D01*
X129167654Y-68804499D01*
X129166311Y-68673478D01*
X129165893Y-68653269D01*
X129162942Y-68533733D01*
X129159452Y-68446449D01*
X129154486Y-68384591D01*
X129147107Y-68341336D01*
X129136376Y-68309860D01*
X129121355Y-68283339D01*
X129113498Y-68271975D01*
X129068447Y-68221692D01*
X129018060Y-68182581D01*
X129011892Y-68179167D01*
X128921542Y-68152212D01*
X128826638Y-68156670D01*
G36*
X129486499Y-68158303D02*
G01*
X129409940Y-68186733D01*
X129409064Y-68187279D01*
X129361715Y-68222127D01*
X129326759Y-68262852D01*
X129302175Y-68315925D01*
X129285938Y-68387814D01*
X129276025Y-68484992D01*
X129270414Y-68613928D01*
X129269923Y-68632298D01*
X129262859Y-68909287D01*
X129322305Y-68940028D01*
X129365319Y-68960802D01*
X129391290Y-68970646D01*
X129392491Y-68970769D01*
X129396986Y-68952606D01*
X129400556Y-68903612D01*
X129402752Y-68832031D01*
X129403231Y-68774068D01*
X129403242Y-68680170D01*
X129407534Y-68621203D01*
X129422497Y-68593079D01*
X129454518Y-68591706D01*
X129509986Y-68612998D01*
X129593731Y-68652136D01*
X129655311Y-68684643D01*
X129686983Y-68712845D01*
X129696294Y-68743582D01*
X129696308Y-68745104D01*
X129680943Y-68798054D01*
X129635453Y-68826660D01*
X129565834Y-68830803D01*
X129515687Y-68830084D01*
X129489246Y-68844527D01*
X129472757Y-68879218D01*
X129463267Y-68923416D01*
X129476943Y-68948493D01*
X129482093Y-68952082D01*
X129530575Y-68966496D01*
X129598469Y-68968537D01*
X129668388Y-68958983D01*
X129717932Y-68941522D01*
X129786430Y-68883364D01*
X129825366Y-68802408D01*
X129833077Y-68739160D01*
X129827193Y-68682111D01*
X129805899Y-68635542D01*
X129763735Y-68594181D01*
X129695241Y-68552755D01*
X129594956Y-68505993D01*
X129588846Y-68503350D01*
X129498510Y-68461617D01*
X129442765Y-68427391D01*
X129418871Y-68396635D01*
X129424087Y-68365311D01*
X129455672Y-68329383D01*
X129465117Y-68321116D01*
X129528383Y-68289058D01*
X129593936Y-68290407D01*
X129651028Y-68321838D01*
X129688907Y-68380024D01*
X129692426Y-68391446D01*
X129726700Y-68446837D01*
X129770191Y-68473518D01*
X129833077Y-68499960D01*
X129833077Y-68431548D01*
X129813948Y-68332110D01*
X129757169Y-68240902D01*
X129727622Y-68210389D01*
X129660458Y-68171228D01*
X129575044Y-68153500D01*
X129486499Y-68158303D01*
G37*
X129486499Y-68158303D02*
X129409940Y-68186733D01*
X129409064Y-68187279D01*
X129361715Y-68222127D01*
X129326759Y-68262852D01*
X129302175Y-68315925D01*
X129285938Y-68387814D01*
X129276025Y-68484992D01*
X129270414Y-68613928D01*
X129269923Y-68632298D01*
X129262859Y-68909287D01*
X129322305Y-68940028D01*
X129365319Y-68960802D01*
X129391290Y-68970646D01*
X129392491Y-68970769D01*
X129396986Y-68952606D01*
X129400556Y-68903612D01*
X129402752Y-68832031D01*
X129403231Y-68774068D01*
X129403242Y-68680170D01*
X129407534Y-68621203D01*
X129422497Y-68593079D01*
X129454518Y-68591706D01*
X129509986Y-68612998D01*
X129593731Y-68652136D01*
X129655311Y-68684643D01*
X129686983Y-68712845D01*
X129696294Y-68743582D01*
X129696308Y-68745104D01*
X129680943Y-68798054D01*
X129635453Y-68826660D01*
X129565834Y-68830803D01*
X129515687Y-68830084D01*
X129489246Y-68844527D01*
X129472757Y-68879218D01*
X129463267Y-68923416D01*
X129476943Y-68948493D01*
X129482093Y-68952082D01*
X129530575Y-68966496D01*
X129598469Y-68968537D01*
X129668388Y-68958983D01*
X129717932Y-68941522D01*
X129786430Y-68883364D01*
X129825366Y-68802408D01*
X129833077Y-68739160D01*
X129827193Y-68682111D01*
X129805899Y-68635542D01*
X129763735Y-68594181D01*
X129695241Y-68552755D01*
X129594956Y-68505993D01*
X129588846Y-68503350D01*
X129498510Y-68461617D01*
X129442765Y-68427391D01*
X129418871Y-68396635D01*
X129424087Y-68365311D01*
X129455672Y-68329383D01*
X129465117Y-68321116D01*
X129528383Y-68289058D01*
X129593936Y-68290407D01*
X129651028Y-68321838D01*
X129688907Y-68380024D01*
X129692426Y-68391446D01*
X129726700Y-68446837D01*
X129770191Y-68473518D01*
X129833077Y-68499960D01*
X129833077Y-68431548D01*
X129813948Y-68332110D01*
X129757169Y-68240902D01*
X129727622Y-68210389D01*
X129660458Y-68171228D01*
X129575044Y-68153500D01*
X129486499Y-68158303D01*
G36*
X130380154Y-68024120D02*
G01*
X130374428Y-68103980D01*
X130367851Y-68151039D01*
X130358738Y-68171566D01*
X130345402Y-68171829D01*
X130341077Y-68169378D01*
X130283556Y-68151636D01*
X130208732Y-68152672D01*
X130132661Y-68170910D01*
X130085082Y-68194505D01*
X130036298Y-68232198D01*
X130000636Y-68274855D01*
X129976155Y-68329057D01*
X129960913Y-68401384D01*
X129952970Y-68498419D01*
X129950384Y-68626742D01*
X129950338Y-68651358D01*
X129950308Y-68927870D01*
X130011839Y-68949320D01*
X130055541Y-68963912D01*
X130079518Y-68970706D01*
X130080223Y-68970769D01*
X130082585Y-68952345D01*
X130084594Y-68901526D01*
X130086099Y-68824993D01*
X130086947Y-68729430D01*
X130087077Y-68671329D01*
X130087349Y-68556771D01*
X130088748Y-68474667D01*
X130092151Y-68418393D01*
X130098433Y-68381326D01*
X130108471Y-68356844D01*
X130123139Y-68338325D01*
X130132298Y-68329406D01*
X130195211Y-68293466D01*
X130263864Y-68290775D01*
X130326152Y-68321170D01*
X130337671Y-68332144D01*
X130354567Y-68352779D01*
X130366286Y-68377256D01*
X130373767Y-68412647D01*
X130377946Y-68466026D01*
X130379763Y-68544466D01*
X130380154Y-68652617D01*
X130380154Y-68927870D01*
X130441685Y-68949320D01*
X130485387Y-68963912D01*
X130509364Y-68970706D01*
X130510070Y-68970769D01*
X130511874Y-68952069D01*
X130513500Y-68899322D01*
X130514883Y-68817557D01*
X130515958Y-68711805D01*
X130516660Y-68587094D01*
X130516923Y-68448455D01*
X130516923Y-67913806D01*
X130389923Y-67860236D01*
X130380154Y-68024120D01*
G37*
X130380154Y-68024120D02*
X130374428Y-68103980D01*
X130367851Y-68151039D01*
X130358738Y-68171566D01*
X130345402Y-68171829D01*
X130341077Y-68169378D01*
X130283556Y-68151636D01*
X130208732Y-68152672D01*
X130132661Y-68170910D01*
X130085082Y-68194505D01*
X130036298Y-68232198D01*
X130000636Y-68274855D01*
X129976155Y-68329057D01*
X129960913Y-68401384D01*
X129952970Y-68498419D01*
X129950384Y-68626742D01*
X129950338Y-68651358D01*
X129950308Y-68927870D01*
X130011839Y-68949320D01*
X130055541Y-68963912D01*
X130079518Y-68970706D01*
X130080223Y-68970769D01*
X130082585Y-68952345D01*
X130084594Y-68901526D01*
X130086099Y-68824993D01*
X130086947Y-68729430D01*
X130087077Y-68671329D01*
X130087349Y-68556771D01*
X130088748Y-68474667D01*
X130092151Y-68418393D01*
X130098433Y-68381326D01*
X130108471Y-68356844D01*
X130123139Y-68338325D01*
X130132298Y-68329406D01*
X130195211Y-68293466D01*
X130263864Y-68290775D01*
X130326152Y-68321170D01*
X130337671Y-68332144D01*
X130354567Y-68352779D01*
X130366286Y-68377256D01*
X130373767Y-68412647D01*
X130377946Y-68466026D01*
X130379763Y-68544466D01*
X130380154Y-68652617D01*
X130380154Y-68927870D01*
X130441685Y-68949320D01*
X130485387Y-68963912D01*
X130509364Y-68970706D01*
X130510070Y-68970769D01*
X130511874Y-68952069D01*
X130513500Y-68899322D01*
X130514883Y-68817557D01*
X130515958Y-68711805D01*
X130516660Y-68587094D01*
X130516923Y-68448455D01*
X130516923Y-67913806D01*
X130389923Y-67860236D01*
X130380154Y-68024120D01*
G36*
X132005746Y-68131745D02*
G01*
X131928714Y-68183567D01*
X131869184Y-68258412D01*
X131833622Y-68353654D01*
X131826429Y-68423756D01*
X131827246Y-68453009D01*
X131834086Y-68475407D01*
X131852888Y-68495474D01*
X131889592Y-68517733D01*
X131950138Y-68546709D01*
X132040466Y-68586927D01*
X132040923Y-68587129D01*
X132124067Y-68625210D01*
X132192247Y-68659025D01*
X132238495Y-68684933D01*
X132255842Y-68699295D01*
X132255846Y-68699411D01*
X132240557Y-68730685D01*
X132204804Y-68765157D01*
X132163758Y-68789990D01*
X132142963Y-68794923D01*
X132086230Y-68777862D01*
X132037373Y-68735133D01*
X132013535Y-68688155D01*
X131990603Y-68653522D01*
X131945682Y-68614081D01*
X131892877Y-68580009D01*
X131846290Y-68561480D01*
X131836548Y-68560462D01*
X131825582Y-68577215D01*
X131824921Y-68620039D01*
X131832980Y-68677781D01*
X131848173Y-68739289D01*
X131868914Y-68793409D01*
X131869962Y-68795510D01*
X131932379Y-68882660D01*
X132013274Y-68941939D01*
X132105144Y-68971034D01*
X132200487Y-68967634D01*
X132291802Y-68929428D01*
X132295862Y-68926741D01*
X132367694Y-68861642D01*
X132414927Y-68776705D01*
X132441066Y-68665021D01*
X132444574Y-68633643D01*
X132450787Y-68485536D01*
X132443339Y-68416468D01*
X132255846Y-68416468D01*
X132253410Y-68459552D01*
X132240086Y-68472126D01*
X132206868Y-68462719D01*
X132154506Y-68440483D01*
X132095976Y-68412610D01*
X132094521Y-68411872D01*
X132044911Y-68385777D01*
X132025000Y-68368363D01*
X132029910Y-68350107D01*
X132050584Y-68326120D01*
X132103181Y-68291406D01*
X132159823Y-68288856D01*
X132210631Y-68314119D01*
X132245724Y-68362847D01*
X132255846Y-68416468D01*
X132443339Y-68416468D01*
X132438008Y-68367036D01*
X132405222Y-68273055D01*
X132359579Y-68207215D01*
X132277198Y-68140681D01*
X132186454Y-68107676D01*
X132093815Y-68105573D01*
X132005746Y-68131745D01*
G37*
X132005746Y-68131745D02*
X131928714Y-68183567D01*
X131869184Y-68258412D01*
X131833622Y-68353654D01*
X131826429Y-68423756D01*
X131827246Y-68453009D01*
X131834086Y-68475407D01*
X131852888Y-68495474D01*
X131889592Y-68517733D01*
X131950138Y-68546709D01*
X132040466Y-68586927D01*
X132040923Y-68587129D01*
X132124067Y-68625210D01*
X132192247Y-68659025D01*
X132238495Y-68684933D01*
X132255842Y-68699295D01*
X132255846Y-68699411D01*
X132240557Y-68730685D01*
X132204804Y-68765157D01*
X132163758Y-68789990D01*
X132142963Y-68794923D01*
X132086230Y-68777862D01*
X132037373Y-68735133D01*
X132013535Y-68688155D01*
X131990603Y-68653522D01*
X131945682Y-68614081D01*
X131892877Y-68580009D01*
X131846290Y-68561480D01*
X131836548Y-68560462D01*
X131825582Y-68577215D01*
X131824921Y-68620039D01*
X131832980Y-68677781D01*
X131848173Y-68739289D01*
X131868914Y-68793409D01*
X131869962Y-68795510D01*
X131932379Y-68882660D01*
X132013274Y-68941939D01*
X132105144Y-68971034D01*
X132200487Y-68967634D01*
X132291802Y-68929428D01*
X132295862Y-68926741D01*
X132367694Y-68861642D01*
X132414927Y-68776705D01*
X132441066Y-68665021D01*
X132444574Y-68633643D01*
X132450787Y-68485536D01*
X132443339Y-68416468D01*
X132255846Y-68416468D01*
X132253410Y-68459552D01*
X132240086Y-68472126D01*
X132206868Y-68462719D01*
X132154506Y-68440483D01*
X132095976Y-68412610D01*
X132094521Y-68411872D01*
X132044911Y-68385777D01*
X132025000Y-68368363D01*
X132029910Y-68350107D01*
X132050584Y-68326120D01*
X132103181Y-68291406D01*
X132159823Y-68288856D01*
X132210631Y-68314119D01*
X132245724Y-68362847D01*
X132255846Y-68416468D01*
X132443339Y-68416468D01*
X132438008Y-68367036D01*
X132405222Y-68273055D01*
X132359579Y-68207215D01*
X132277198Y-68140681D01*
X132186454Y-68107676D01*
X132093815Y-68105573D01*
X132005746Y-68131745D01*
G36*
X133523114Y-68119256D02*
G01*
X133431536Y-68167409D01*
X133363951Y-68244905D01*
X133339943Y-68294727D01*
X133321262Y-68369533D01*
X133311699Y-68464052D01*
X133310792Y-68567210D01*
X133318079Y-68667935D01*
X133333097Y-68755153D01*
X133355385Y-68817791D01*
X133362235Y-68828579D01*
X133443368Y-68909105D01*
X133539734Y-68957336D01*
X133644299Y-68971450D01*
X133750032Y-68949629D01*
X133779457Y-68936547D01*
X133836759Y-68896231D01*
X133887050Y-68842775D01*
X133891803Y-68835995D01*
X133911122Y-68803321D01*
X133923892Y-68768394D01*
X133931436Y-68722414D01*
X133935076Y-68656584D01*
X133936135Y-68562105D01*
X133936154Y-68540923D01*
X133936106Y-68534182D01*
X133740769Y-68534182D01*
X133739632Y-68623349D01*
X133735159Y-68682520D01*
X133725754Y-68720741D01*
X133709824Y-68747053D01*
X133701692Y-68755846D01*
X133654942Y-68789261D01*
X133609553Y-68787737D01*
X133563660Y-68758752D01*
X133536288Y-68727809D01*
X133520077Y-68682643D01*
X133510974Y-68611420D01*
X133510349Y-68603114D01*
X133508796Y-68474037D01*
X133525035Y-68378172D01*
X133558848Y-68316107D01*
X133610016Y-68288432D01*
X133628280Y-68286923D01*
X133676240Y-68294513D01*
X133709047Y-68320808D01*
X133729105Y-68371095D01*
X133738822Y-68450664D01*
X133740769Y-68534182D01*
X133936106Y-68534182D01*
X133935426Y-68440249D01*
X133932371Y-68369906D01*
X133925678Y-68321163D01*
X133914040Y-68285288D01*
X133896147Y-68253548D01*
X133892192Y-68247648D01*
X133825733Y-68168104D01*
X133753315Y-68121929D01*
X133665151Y-68103599D01*
X133635213Y-68102703D01*
X133523114Y-68119256D01*
G37*
X133523114Y-68119256D02*
X133431536Y-68167409D01*
X133363951Y-68244905D01*
X133339943Y-68294727D01*
X133321262Y-68369533D01*
X133311699Y-68464052D01*
X133310792Y-68567210D01*
X133318079Y-68667935D01*
X133333097Y-68755153D01*
X133355385Y-68817791D01*
X133362235Y-68828579D01*
X133443368Y-68909105D01*
X133539734Y-68957336D01*
X133644299Y-68971450D01*
X133750032Y-68949629D01*
X133779457Y-68936547D01*
X133836759Y-68896231D01*
X133887050Y-68842775D01*
X133891803Y-68835995D01*
X133911122Y-68803321D01*
X133923892Y-68768394D01*
X133931436Y-68722414D01*
X133935076Y-68656584D01*
X133936135Y-68562105D01*
X133936154Y-68540923D01*
X133936106Y-68534182D01*
X133740769Y-68534182D01*
X133739632Y-68623349D01*
X133735159Y-68682520D01*
X133725754Y-68720741D01*
X133709824Y-68747053D01*
X133701692Y-68755846D01*
X133654942Y-68789261D01*
X133609553Y-68787737D01*
X133563660Y-68758752D01*
X133536288Y-68727809D01*
X133520077Y-68682643D01*
X133510974Y-68611420D01*
X133510349Y-68603114D01*
X133508796Y-68474037D01*
X133525035Y-68378172D01*
X133558848Y-68316107D01*
X133610016Y-68288432D01*
X133628280Y-68286923D01*
X133676240Y-68294513D01*
X133709047Y-68320808D01*
X133729105Y-68371095D01*
X133738822Y-68450664D01*
X133740769Y-68534182D01*
X133936106Y-68534182D01*
X133935426Y-68440249D01*
X133932371Y-68369906D01*
X133925678Y-68321163D01*
X133914040Y-68285288D01*
X133896147Y-68253548D01*
X133892192Y-68247648D01*
X133825733Y-68168104D01*
X133753315Y-68121929D01*
X133665151Y-68103599D01*
X133635213Y-68102703D01*
X133523114Y-68119256D01*
G36*
X131268336Y-68127089D02*
G01*
X131205633Y-68163358D01*
X131162039Y-68199358D01*
X131130155Y-68237075D01*
X131108190Y-68283199D01*
X131094351Y-68344421D01*
X131086847Y-68427431D01*
X131083883Y-68538919D01*
X131083539Y-68619062D01*
X131083539Y-68914065D01*
X131249615Y-68988515D01*
X131259385Y-68665402D01*
X131263421Y-68544729D01*
X131267656Y-68457141D01*
X131272903Y-68396650D01*
X131279975Y-68357268D01*
X131289689Y-68333007D01*
X131302856Y-68317880D01*
X131307081Y-68314606D01*
X131371091Y-68289034D01*
X131435792Y-68299153D01*
X131474308Y-68326000D01*
X131489975Y-68345024D01*
X131500820Y-68369988D01*
X131507712Y-68407834D01*
X131511521Y-68465502D01*
X131513117Y-68549935D01*
X131513385Y-68637928D01*
X131513437Y-68748323D01*
X131515328Y-68826463D01*
X131521655Y-68879165D01*
X131535017Y-68913242D01*
X131558015Y-68935511D01*
X131593246Y-68952787D01*
X131640303Y-68970738D01*
X131691697Y-68990278D01*
X131685579Y-68643485D01*
X131683116Y-68518468D01*
X131680233Y-68426082D01*
X131676102Y-68359881D01*
X131669893Y-68313420D01*
X131660774Y-68280256D01*
X131647917Y-68253944D01*
X131632416Y-68230729D01*
X131557629Y-68156569D01*
X131466372Y-68113684D01*
X131367117Y-68103412D01*
X131268336Y-68127089D01*
G37*
X131268336Y-68127089D02*
X131205633Y-68163358D01*
X131162039Y-68199358D01*
X131130155Y-68237075D01*
X131108190Y-68283199D01*
X131094351Y-68344421D01*
X131086847Y-68427431D01*
X131083883Y-68538919D01*
X131083539Y-68619062D01*
X131083539Y-68914065D01*
X131249615Y-68988515D01*
X131259385Y-68665402D01*
X131263421Y-68544729D01*
X131267656Y-68457141D01*
X131272903Y-68396650D01*
X131279975Y-68357268D01*
X131289689Y-68333007D01*
X131302856Y-68317880D01*
X131307081Y-68314606D01*
X131371091Y-68289034D01*
X131435792Y-68299153D01*
X131474308Y-68326000D01*
X131489975Y-68345024D01*
X131500820Y-68369988D01*
X131507712Y-68407834D01*
X131511521Y-68465502D01*
X131513117Y-68549935D01*
X131513385Y-68637928D01*
X131513437Y-68748323D01*
X131515328Y-68826463D01*
X131521655Y-68879165D01*
X131535017Y-68913242D01*
X131558015Y-68935511D01*
X131593246Y-68952787D01*
X131640303Y-68970738D01*
X131691697Y-68990278D01*
X131685579Y-68643485D01*
X131683116Y-68518468D01*
X131680233Y-68426082D01*
X131676102Y-68359881D01*
X131669893Y-68313420D01*
X131660774Y-68280256D01*
X131647917Y-68253944D01*
X131632416Y-68230729D01*
X131557629Y-68156569D01*
X131466372Y-68113684D01*
X131367117Y-68103412D01*
X131268336Y-68127089D01*
G36*
X132771114Y-68116505D02*
G01*
X132696461Y-68153727D01*
X132630569Y-68222261D01*
X132612423Y-68247648D01*
X132592655Y-68280866D01*
X132579828Y-68316945D01*
X132572490Y-68365098D01*
X132569187Y-68434536D01*
X132568462Y-68526206D01*
X132571737Y-68651830D01*
X132583123Y-68746154D01*
X132604959Y-68816523D01*
X132639581Y-68870286D01*
X132689330Y-68914788D01*
X132692986Y-68917423D01*
X132742015Y-68944377D01*
X132801055Y-68957712D01*
X132876141Y-68961000D01*
X132998205Y-68961000D01*
X132998256Y-69079497D01*
X132999392Y-69145492D01*
X133006314Y-69184202D01*
X133024402Y-69207419D01*
X133059038Y-69226933D01*
X133067355Y-69230920D01*
X133106280Y-69249603D01*
X133136417Y-69261403D01*
X133158826Y-69262422D01*
X133174567Y-69248761D01*
X133184698Y-69216522D01*
X133190277Y-69161804D01*
X133192365Y-69080711D01*
X133192019Y-68969344D01*
X133190300Y-68823802D01*
X133189763Y-68780269D01*
X133187828Y-68630205D01*
X133186096Y-68532042D01*
X132998308Y-68532042D01*
X132997252Y-68615364D01*
X132992562Y-68669880D01*
X132981949Y-68705837D01*
X132963128Y-68733482D01*
X132950350Y-68746965D01*
X132898110Y-68786417D01*
X132851858Y-68789628D01*
X132804133Y-68757049D01*
X132802923Y-68755846D01*
X132783506Y-68730668D01*
X132771693Y-68696447D01*
X132765735Y-68643748D01*
X132763880Y-68563131D01*
X132763846Y-68545271D01*
X132768330Y-68434175D01*
X132782926Y-68357161D01*
X132809350Y-68310147D01*
X132849317Y-68289050D01*
X132872416Y-68286923D01*
X132927238Y-68296900D01*
X132964842Y-68329752D01*
X132987477Y-68389857D01*
X132997394Y-68481598D01*
X132998308Y-68532042D01*
X133186096Y-68532042D01*
X133185778Y-68514060D01*
X133183127Y-68426679D01*
X133179394Y-68362905D01*
X133174093Y-68317582D01*
X133166742Y-68285555D01*
X133156857Y-68261668D01*
X133143954Y-68240764D01*
X133138421Y-68232898D01*
X133065031Y-68158595D01*
X132972240Y-68116467D01*
X132864904Y-68104722D01*
X132771114Y-68116505D01*
G37*
X132771114Y-68116505D02*
X132696461Y-68153727D01*
X132630569Y-68222261D01*
X132612423Y-68247648D01*
X132592655Y-68280866D01*
X132579828Y-68316945D01*
X132572490Y-68365098D01*
X132569187Y-68434536D01*
X132568462Y-68526206D01*
X132571737Y-68651830D01*
X132583123Y-68746154D01*
X132604959Y-68816523D01*
X132639581Y-68870286D01*
X132689330Y-68914788D01*
X132692986Y-68917423D01*
X132742015Y-68944377D01*
X132801055Y-68957712D01*
X132876141Y-68961000D01*
X132998205Y-68961000D01*
X132998256Y-69079497D01*
X132999392Y-69145492D01*
X133006314Y-69184202D01*
X133024402Y-69207419D01*
X133059038Y-69226933D01*
X133067355Y-69230920D01*
X133106280Y-69249603D01*
X133136417Y-69261403D01*
X133158826Y-69262422D01*
X133174567Y-69248761D01*
X133184698Y-69216522D01*
X133190277Y-69161804D01*
X133192365Y-69080711D01*
X133192019Y-68969344D01*
X133190300Y-68823802D01*
X133189763Y-68780269D01*
X133187828Y-68630205D01*
X133186096Y-68532042D01*
X132998308Y-68532042D01*
X132997252Y-68615364D01*
X132992562Y-68669880D01*
X132981949Y-68705837D01*
X132963128Y-68733482D01*
X132950350Y-68746965D01*
X132898110Y-68786417D01*
X132851858Y-68789628D01*
X132804133Y-68757049D01*
X132802923Y-68755846D01*
X132783506Y-68730668D01*
X132771693Y-68696447D01*
X132765735Y-68643748D01*
X132763880Y-68563131D01*
X132763846Y-68545271D01*
X132768330Y-68434175D01*
X132782926Y-68357161D01*
X132809350Y-68310147D01*
X132849317Y-68289050D01*
X132872416Y-68286923D01*
X132927238Y-68296900D01*
X132964842Y-68329752D01*
X132987477Y-68389857D01*
X132997394Y-68481598D01*
X132998308Y-68532042D01*
X133186096Y-68532042D01*
X133185778Y-68514060D01*
X133183127Y-68426679D01*
X133179394Y-68362905D01*
X133174093Y-68317582D01*
X133166742Y-68285555D01*
X133156857Y-68261668D01*
X133143954Y-68240764D01*
X133138421Y-68232898D01*
X133065031Y-68158595D01*
X132972240Y-68116467D01*
X132864904Y-68104722D01*
X132771114Y-68116505D01*
D12*
X96856733Y-73154000D02*
X97199267Y-73154000D01*
X96856733Y-72134000D02*
X97199267Y-72134000D01*
X114838267Y-81790000D02*
X114495733Y-81790000D01*
X114838267Y-80770000D02*
X114495733Y-80770000D01*
X114302000Y-87458733D02*
X114302000Y-87801267D01*
X113282000Y-87458733D02*
X113282000Y-87801267D01*
X123827000Y-87458733D02*
X123827000Y-87801267D01*
X122807000Y-87458733D02*
X122807000Y-87801267D01*
X138258733Y-70610000D02*
X138601267Y-70610000D01*
X138258733Y-71630000D02*
X138601267Y-71630000D01*
X140845000Y-61766267D02*
X140845000Y-61423733D01*
X139825000Y-61766267D02*
X139825000Y-61423733D01*
X97199267Y-70614000D02*
X96856733Y-70614000D01*
X97199267Y-69594000D02*
X96856733Y-69594000D01*
X110742000Y-65360733D02*
X110742000Y-65703267D01*
X111762000Y-65360733D02*
X111762000Y-65703267D01*
X107359267Y-58926000D02*
X107016733Y-58926000D01*
X107359267Y-59946000D02*
X107016733Y-59946000D01*
X102614000Y-69043733D02*
X102614000Y-69386267D01*
X103634000Y-69043733D02*
X103634000Y-69386267D01*
X97199267Y-68074000D02*
X96856733Y-68074000D01*
X97199267Y-67054000D02*
X96856733Y-67054000D01*
X97199267Y-65915000D02*
X96856733Y-65915000D01*
X97199267Y-64895000D02*
X96856733Y-64895000D01*
X108202000Y-65360733D02*
X108202000Y-65703267D01*
X109222000Y-65360733D02*
X109222000Y-65703267D01*
X101771267Y-81155000D02*
X101428733Y-81155000D01*
X101771267Y-80135000D02*
X101428733Y-80135000D01*
X101428733Y-79250000D02*
X101771267Y-79250000D01*
X101428733Y-78230000D02*
X101771267Y-78230000D01*
X126998000Y-88220733D02*
X126998000Y-88563267D01*
X128018000Y-88220733D02*
X128018000Y-88563267D01*
X132590000Y-88220733D02*
X132590000Y-88563267D01*
X131570000Y-88220733D02*
X131570000Y-88563267D01*
X136142000Y-88220733D02*
X136142000Y-88563267D01*
X137162000Y-88220733D02*
X137162000Y-88563267D01*
D10*
X94622857Y-73001142D02*
X94670476Y-73048761D01*
X94813333Y-73096380D01*
X94908571Y-73096380D01*
X95051428Y-73048761D01*
X95146666Y-72953523D01*
X95194285Y-72858285D01*
X95241904Y-72667809D01*
X95241904Y-72524952D01*
X95194285Y-72334476D01*
X95146666Y-72239238D01*
X95051428Y-72144000D01*
X94908571Y-72096380D01*
X94813333Y-72096380D01*
X94670476Y-72144000D01*
X94622857Y-72191619D01*
X93670476Y-73096380D02*
X94241904Y-73096380D01*
X93956190Y-73096380D02*
X93956190Y-72096380D01*
X94051428Y-72239238D01*
X94146666Y-72334476D01*
X94241904Y-72382095D01*
X93051428Y-72096380D02*
X92956190Y-72096380D01*
X92860952Y-72144000D01*
X92813333Y-72191619D01*
X92765714Y-72286857D01*
X92718095Y-72477333D01*
X92718095Y-72715428D01*
X92765714Y-72905904D01*
X92813333Y-73001142D01*
X92860952Y-73048761D01*
X92956190Y-73096380D01*
X93051428Y-73096380D01*
X93146666Y-73048761D01*
X93194285Y-73001142D01*
X93241904Y-72905904D01*
X93289523Y-72715428D01*
X93289523Y-72477333D01*
X93241904Y-72286857D01*
X93194285Y-72191619D01*
X93146666Y-72144000D01*
X93051428Y-72096380D01*
X111926666Y-81637142D02*
X111974285Y-81684761D01*
X112117142Y-81732380D01*
X112212380Y-81732380D01*
X112355238Y-81684761D01*
X112450476Y-81589523D01*
X112498095Y-81494285D01*
X112545714Y-81303809D01*
X112545714Y-81160952D01*
X112498095Y-80970476D01*
X112450476Y-80875238D01*
X112355238Y-80780000D01*
X112212380Y-80732380D01*
X112117142Y-80732380D01*
X111974285Y-80780000D01*
X111926666Y-80827619D01*
X110974285Y-81732380D02*
X111545714Y-81732380D01*
X111260000Y-81732380D02*
X111260000Y-80732380D01*
X111355238Y-80875238D01*
X111450476Y-80970476D01*
X111545714Y-81018095D01*
X114149142Y-90257333D02*
X114196761Y-90209714D01*
X114244380Y-90066857D01*
X114244380Y-89971619D01*
X114196761Y-89828761D01*
X114101523Y-89733523D01*
X114006285Y-89685904D01*
X113815809Y-89638285D01*
X113672952Y-89638285D01*
X113482476Y-89685904D01*
X113387238Y-89733523D01*
X113292000Y-89828761D01*
X113244380Y-89971619D01*
X113244380Y-90066857D01*
X113292000Y-90209714D01*
X113339619Y-90257333D01*
X113339619Y-90638285D02*
X113292000Y-90685904D01*
X113244380Y-90781142D01*
X113244380Y-91019238D01*
X113292000Y-91114476D01*
X113339619Y-91162095D01*
X113434857Y-91209714D01*
X113530095Y-91209714D01*
X113672952Y-91162095D01*
X114244380Y-90590666D01*
X114244380Y-91209714D01*
X123674142Y-90257333D02*
X123721761Y-90209714D01*
X123769380Y-90066857D01*
X123769380Y-89971619D01*
X123721761Y-89828761D01*
X123626523Y-89733523D01*
X123531285Y-89685904D01*
X123340809Y-89638285D01*
X123197952Y-89638285D01*
X123007476Y-89685904D01*
X122912238Y-89733523D01*
X122817000Y-89828761D01*
X122769380Y-89971619D01*
X122769380Y-90066857D01*
X122817000Y-90209714D01*
X122864619Y-90257333D01*
X122769380Y-90590666D02*
X122769380Y-91209714D01*
X123150333Y-90876380D01*
X123150333Y-91019238D01*
X123197952Y-91114476D01*
X123245571Y-91162095D01*
X123340809Y-91209714D01*
X123578904Y-91209714D01*
X123674142Y-91162095D01*
X123721761Y-91114476D01*
X123769380Y-91019238D01*
X123769380Y-90733523D01*
X123721761Y-90638285D01*
X123674142Y-90590666D01*
X138596666Y-70080142D02*
X138644285Y-70127761D01*
X138787142Y-70175380D01*
X138882380Y-70175380D01*
X139025238Y-70127761D01*
X139120476Y-70032523D01*
X139168095Y-69937285D01*
X139215714Y-69746809D01*
X139215714Y-69603952D01*
X139168095Y-69413476D01*
X139120476Y-69318238D01*
X139025238Y-69223000D01*
X138882380Y-69175380D01*
X138787142Y-69175380D01*
X138644285Y-69223000D01*
X138596666Y-69270619D01*
X137739523Y-69508714D02*
X137739523Y-70175380D01*
X137977619Y-69127761D02*
X138215714Y-69842047D01*
X137596666Y-69842047D01*
X140819142Y-58507333D02*
X140866761Y-58459714D01*
X140914380Y-58316857D01*
X140914380Y-58221619D01*
X140866761Y-58078761D01*
X140771523Y-57983523D01*
X140676285Y-57935904D01*
X140485809Y-57888285D01*
X140342952Y-57888285D01*
X140152476Y-57935904D01*
X140057238Y-57983523D01*
X139962000Y-58078761D01*
X139914380Y-58221619D01*
X139914380Y-58316857D01*
X139962000Y-58459714D01*
X140009619Y-58507333D01*
X139914380Y-59412095D02*
X139914380Y-58935904D01*
X140390571Y-58888285D01*
X140342952Y-58935904D01*
X140295333Y-59031142D01*
X140295333Y-59269238D01*
X140342952Y-59364476D01*
X140390571Y-59412095D01*
X140485809Y-59459714D01*
X140723904Y-59459714D01*
X140819142Y-59412095D01*
X140866761Y-59364476D01*
X140914380Y-59269238D01*
X140914380Y-59031142D01*
X140866761Y-58935904D01*
X140819142Y-58888285D01*
X99861666Y-70461142D02*
X99909285Y-70508761D01*
X100052142Y-70556380D01*
X100147380Y-70556380D01*
X100290238Y-70508761D01*
X100385476Y-70413523D01*
X100433095Y-70318285D01*
X100480714Y-70127809D01*
X100480714Y-69984952D01*
X100433095Y-69794476D01*
X100385476Y-69699238D01*
X100290238Y-69604000D01*
X100147380Y-69556380D01*
X100052142Y-69556380D01*
X99909285Y-69604000D01*
X99861666Y-69651619D01*
X99004523Y-69556380D02*
X99195000Y-69556380D01*
X99290238Y-69604000D01*
X99337857Y-69651619D01*
X99433095Y-69794476D01*
X99480714Y-69984952D01*
X99480714Y-70365904D01*
X99433095Y-70461142D01*
X99385476Y-70508761D01*
X99290238Y-70556380D01*
X99099761Y-70556380D01*
X99004523Y-70508761D01*
X98956904Y-70461142D01*
X98909285Y-70365904D01*
X98909285Y-70127809D01*
X98956904Y-70032571D01*
X99004523Y-69984952D01*
X99099761Y-69937333D01*
X99290238Y-69937333D01*
X99385476Y-69984952D01*
X99433095Y-70032571D01*
X99480714Y-70127809D01*
X111609142Y-68159333D02*
X111656761Y-68111714D01*
X111704380Y-67968857D01*
X111704380Y-67873619D01*
X111656761Y-67730761D01*
X111561523Y-67635523D01*
X111466285Y-67587904D01*
X111275809Y-67540285D01*
X111132952Y-67540285D01*
X110942476Y-67587904D01*
X110847238Y-67635523D01*
X110752000Y-67730761D01*
X110704380Y-67873619D01*
X110704380Y-67968857D01*
X110752000Y-68111714D01*
X110799619Y-68159333D01*
X110704380Y-68492666D02*
X110704380Y-69159333D01*
X111704380Y-68730761D01*
X107354666Y-58363142D02*
X107402285Y-58410761D01*
X107545142Y-58458380D01*
X107640380Y-58458380D01*
X107783238Y-58410761D01*
X107878476Y-58315523D01*
X107926095Y-58220285D01*
X107973714Y-58029809D01*
X107973714Y-57886952D01*
X107926095Y-57696476D01*
X107878476Y-57601238D01*
X107783238Y-57506000D01*
X107640380Y-57458380D01*
X107545142Y-57458380D01*
X107402285Y-57506000D01*
X107354666Y-57553619D01*
X106783238Y-57886952D02*
X106878476Y-57839333D01*
X106926095Y-57791714D01*
X106973714Y-57696476D01*
X106973714Y-57648857D01*
X106926095Y-57553619D01*
X106878476Y-57506000D01*
X106783238Y-57458380D01*
X106592761Y-57458380D01*
X106497523Y-57506000D01*
X106449904Y-57553619D01*
X106402285Y-57648857D01*
X106402285Y-57696476D01*
X106449904Y-57791714D01*
X106497523Y-57839333D01*
X106592761Y-57886952D01*
X106783238Y-57886952D01*
X106878476Y-57934571D01*
X106926095Y-57982190D01*
X106973714Y-58077428D01*
X106973714Y-58267904D01*
X106926095Y-58363142D01*
X106878476Y-58410761D01*
X106783238Y-58458380D01*
X106592761Y-58458380D01*
X106497523Y-58410761D01*
X106449904Y-58363142D01*
X106402285Y-58267904D01*
X106402285Y-58077428D01*
X106449904Y-57982190D01*
X106497523Y-57934571D01*
X106592761Y-57886952D01*
X103481142Y-66127333D02*
X103528761Y-66079714D01*
X103576380Y-65936857D01*
X103576380Y-65841619D01*
X103528761Y-65698761D01*
X103433523Y-65603523D01*
X103338285Y-65555904D01*
X103147809Y-65508285D01*
X103004952Y-65508285D01*
X102814476Y-65555904D01*
X102719238Y-65603523D01*
X102624000Y-65698761D01*
X102576380Y-65841619D01*
X102576380Y-65936857D01*
X102624000Y-66079714D01*
X102671619Y-66127333D01*
X103576380Y-66603523D02*
X103576380Y-66794000D01*
X103528761Y-66889238D01*
X103481142Y-66936857D01*
X103338285Y-67032095D01*
X103147809Y-67079714D01*
X102766857Y-67079714D01*
X102671619Y-67032095D01*
X102624000Y-66984476D01*
X102576380Y-66889238D01*
X102576380Y-66698761D01*
X102624000Y-66603523D01*
X102671619Y-66555904D01*
X102766857Y-66508285D01*
X103004952Y-66508285D01*
X103100190Y-66555904D01*
X103147809Y-66603523D01*
X103195428Y-66698761D01*
X103195428Y-66889238D01*
X103147809Y-66984476D01*
X103100190Y-67032095D01*
X103004952Y-67079714D01*
X99734666Y-65984380D02*
X100068000Y-65508190D01*
X100306095Y-65984380D02*
X100306095Y-64984380D01*
X99925142Y-64984380D01*
X99829904Y-65032000D01*
X99782285Y-65079619D01*
X99734666Y-65174857D01*
X99734666Y-65317714D01*
X99782285Y-65412952D01*
X99829904Y-65460571D01*
X99925142Y-65508190D01*
X100306095Y-65508190D01*
X98782285Y-65984380D02*
X99353714Y-65984380D01*
X99068000Y-65984380D02*
X99068000Y-64984380D01*
X99163238Y-65127238D01*
X99258476Y-65222476D01*
X99353714Y-65270095D01*
X99734666Y-68016380D02*
X100068000Y-67540190D01*
X100306095Y-68016380D02*
X100306095Y-67016380D01*
X99925142Y-67016380D01*
X99829904Y-67064000D01*
X99782285Y-67111619D01*
X99734666Y-67206857D01*
X99734666Y-67349714D01*
X99782285Y-67444952D01*
X99829904Y-67492571D01*
X99925142Y-67540190D01*
X100306095Y-67540190D01*
X99353714Y-67111619D02*
X99306095Y-67064000D01*
X99210857Y-67016380D01*
X98972761Y-67016380D01*
X98877523Y-67064000D01*
X98829904Y-67111619D01*
X98782285Y-67206857D01*
X98782285Y-67302095D01*
X98829904Y-67444952D01*
X99401333Y-68016380D01*
X98782285Y-68016380D01*
X109291380Y-68032333D02*
X108815190Y-67699000D01*
X109291380Y-67460904D02*
X108291380Y-67460904D01*
X108291380Y-67841857D01*
X108339000Y-67937095D01*
X108386619Y-67984714D01*
X108481857Y-68032333D01*
X108624714Y-68032333D01*
X108719952Y-67984714D01*
X108767571Y-67937095D01*
X108815190Y-67841857D01*
X108815190Y-67460904D01*
X108291380Y-68365666D02*
X108291380Y-68984714D01*
X108672333Y-68651380D01*
X108672333Y-68794238D01*
X108719952Y-68889476D01*
X108767571Y-68937095D01*
X108862809Y-68984714D01*
X109100904Y-68984714D01*
X109196142Y-68937095D01*
X109243761Y-68889476D01*
X109291380Y-68794238D01*
X109291380Y-68508523D01*
X109243761Y-68413285D01*
X109196142Y-68365666D01*
X104941666Y-81097380D02*
X105275000Y-80621190D01*
X105513095Y-81097380D02*
X105513095Y-80097380D01*
X105132142Y-80097380D01*
X105036904Y-80145000D01*
X104989285Y-80192619D01*
X104941666Y-80287857D01*
X104941666Y-80430714D01*
X104989285Y-80525952D01*
X105036904Y-80573571D01*
X105132142Y-80621190D01*
X105513095Y-80621190D01*
X104084523Y-80430714D02*
X104084523Y-81097380D01*
X104322619Y-80049761D02*
X104560714Y-80764047D01*
X103941666Y-80764047D01*
X104941666Y-79192380D02*
X105275000Y-78716190D01*
X105513095Y-79192380D02*
X105513095Y-78192380D01*
X105132142Y-78192380D01*
X105036904Y-78240000D01*
X104989285Y-78287619D01*
X104941666Y-78382857D01*
X104941666Y-78525714D01*
X104989285Y-78620952D01*
X105036904Y-78668571D01*
X105132142Y-78716190D01*
X105513095Y-78716190D01*
X104036904Y-78192380D02*
X104513095Y-78192380D01*
X104560714Y-78668571D01*
X104513095Y-78620952D01*
X104417857Y-78573333D01*
X104179761Y-78573333D01*
X104084523Y-78620952D01*
X104036904Y-78668571D01*
X103989285Y-78763809D01*
X103989285Y-79001904D01*
X104036904Y-79097142D01*
X104084523Y-79144761D01*
X104179761Y-79192380D01*
X104417857Y-79192380D01*
X104513095Y-79144761D01*
X104560714Y-79097142D01*
X127960380Y-85685333D02*
X127484190Y-85352000D01*
X127960380Y-85113904D02*
X126960380Y-85113904D01*
X126960380Y-85494857D01*
X127008000Y-85590095D01*
X127055619Y-85637714D01*
X127150857Y-85685333D01*
X127293714Y-85685333D01*
X127388952Y-85637714D01*
X127436571Y-85590095D01*
X127484190Y-85494857D01*
X127484190Y-85113904D01*
X126960380Y-86542476D02*
X126960380Y-86352000D01*
X127008000Y-86256761D01*
X127055619Y-86209142D01*
X127198476Y-86113904D01*
X127388952Y-86066285D01*
X127769904Y-86066285D01*
X127865142Y-86113904D01*
X127912761Y-86161523D01*
X127960380Y-86256761D01*
X127960380Y-86447238D01*
X127912761Y-86542476D01*
X127865142Y-86590095D01*
X127769904Y-86637714D01*
X127531809Y-86637714D01*
X127436571Y-86590095D01*
X127388952Y-86542476D01*
X127341333Y-86447238D01*
X127341333Y-86256761D01*
X127388952Y-86161523D01*
X127436571Y-86113904D01*
X127531809Y-86066285D01*
X132532380Y-85685333D02*
X132056190Y-85352000D01*
X132532380Y-85113904D02*
X131532380Y-85113904D01*
X131532380Y-85494857D01*
X131580000Y-85590095D01*
X131627619Y-85637714D01*
X131722857Y-85685333D01*
X131865714Y-85685333D01*
X131960952Y-85637714D01*
X132008571Y-85590095D01*
X132056190Y-85494857D01*
X132056190Y-85113904D01*
X131532380Y-86018666D02*
X131532380Y-86685333D01*
X132532380Y-86256761D01*
X137104380Y-85685333D02*
X136628190Y-85352000D01*
X137104380Y-85113904D02*
X136104380Y-85113904D01*
X136104380Y-85494857D01*
X136152000Y-85590095D01*
X136199619Y-85637714D01*
X136294857Y-85685333D01*
X136437714Y-85685333D01*
X136532952Y-85637714D01*
X136580571Y-85590095D01*
X136628190Y-85494857D01*
X136628190Y-85113904D01*
X136532952Y-86256761D02*
X136485333Y-86161523D01*
X136437714Y-86113904D01*
X136342476Y-86066285D01*
X136294857Y-86066285D01*
X136199619Y-86113904D01*
X136152000Y-86161523D01*
X136104380Y-86256761D01*
X136104380Y-86447238D01*
X136152000Y-86542476D01*
X136199619Y-86590095D01*
X136294857Y-86637714D01*
X136342476Y-86637714D01*
X136437714Y-86590095D01*
X136485333Y-86542476D01*
X136532952Y-86447238D01*
X136532952Y-86256761D01*
X136580571Y-86161523D01*
X136628190Y-86113904D01*
X136723428Y-86066285D01*
X136913904Y-86066285D01*
X137009142Y-86113904D01*
X137056761Y-86161523D01*
X137104380Y-86256761D01*
X137104380Y-86447238D01*
X137056761Y-86542476D01*
X137009142Y-86590095D01*
X136913904Y-86637714D01*
X136723428Y-86637714D01*
X136628190Y-86590095D01*
X136580571Y-86542476D01*
X136532952Y-86447238D01*
M02*
