G04 #@! TF.GenerationSoftware,KiCad,Pcbnew,5.1.5-52549c5~84~ubuntu18.04.1*
G04 #@! TF.CreationDate,2020-01-02T13:16:35+00:00*
G04 #@! TF.ProjectId,receiver,72656365-6976-4657-922e-6b696361645f,rev?*
G04 #@! TF.SameCoordinates,Original*
G04 #@! TF.FileFunction,Legend,Bot*
G04 #@! TF.FilePolarity,Positive*
%FSLAX46Y46*%
G04 Gerber Fmt 4.6, Leading zero omitted, Abs format (unit mm)*
G04 Created by KiCad (PCBNEW 5.1.5-52549c5~84~ubuntu18.04.1) date 2020-01-02 13:16:35*
%MOMM*%
%LPD*%
G04 APERTURE LIST*
%ADD10C,0.150000*%
%ADD11C,0.010000*%
%ADD12C,0.120000*%
G04 APERTURE END LIST*
D10*
X112593333Y-120323928D02*
X112593333Y-119752500D01*
X112221904Y-120438214D02*
X113521904Y-120038214D01*
X112221904Y-119638214D01*
X113088571Y-118723928D02*
X112221904Y-118723928D01*
X113088571Y-119238214D02*
X112407619Y-119238214D01*
X112283809Y-119181071D01*
X112221904Y-119066785D01*
X112221904Y-118895357D01*
X112283809Y-118781071D01*
X112345714Y-118723928D01*
X112221904Y-117638214D02*
X113521904Y-117638214D01*
X112283809Y-117638214D02*
X112221904Y-117752500D01*
X112221904Y-117981071D01*
X112283809Y-118095357D01*
X112345714Y-118152500D01*
X112469523Y-118209642D01*
X112840952Y-118209642D01*
X112964761Y-118152500D01*
X113026666Y-118095357D01*
X113088571Y-117981071D01*
X113088571Y-117752500D01*
X113026666Y-117638214D01*
X112221904Y-117066785D02*
X113088571Y-117066785D01*
X113521904Y-117066785D02*
X113460000Y-117123928D01*
X113398095Y-117066785D01*
X113460000Y-117009642D01*
X113521904Y-117066785D01*
X113398095Y-117066785D01*
X112221904Y-116323928D02*
X112283809Y-116438214D01*
X112345714Y-116495357D01*
X112469523Y-116552500D01*
X112840952Y-116552500D01*
X112964761Y-116495357D01*
X113026666Y-116438214D01*
X113088571Y-116323928D01*
X113088571Y-116152500D01*
X113026666Y-116038214D01*
X112964761Y-115981071D01*
X112840952Y-115923928D01*
X112469523Y-115923928D01*
X112345714Y-115981071D01*
X112283809Y-116038214D01*
X112221904Y-116152500D01*
X112221904Y-116323928D01*
X112221904Y-113923928D02*
X112221904Y-114495357D01*
X113521904Y-114495357D01*
X112221904Y-113523928D02*
X113088571Y-113523928D01*
X113521904Y-113523928D02*
X113460000Y-113581071D01*
X113398095Y-113523928D01*
X113460000Y-113466785D01*
X113521904Y-113523928D01*
X113398095Y-113523928D01*
X113088571Y-112438214D02*
X112036190Y-112438214D01*
X111912380Y-112495357D01*
X111850476Y-112552500D01*
X111788571Y-112666785D01*
X111788571Y-112838214D01*
X111850476Y-112952500D01*
X112283809Y-112438214D02*
X112221904Y-112552500D01*
X112221904Y-112781071D01*
X112283809Y-112895357D01*
X112345714Y-112952500D01*
X112469523Y-113009642D01*
X112840952Y-113009642D01*
X112964761Y-112952500D01*
X113026666Y-112895357D01*
X113088571Y-112781071D01*
X113088571Y-112552500D01*
X113026666Y-112438214D01*
X112221904Y-111866785D02*
X113521904Y-111866785D01*
X112221904Y-111352500D02*
X112902857Y-111352500D01*
X113026666Y-111409642D01*
X113088571Y-111523928D01*
X113088571Y-111695357D01*
X113026666Y-111809642D01*
X112964761Y-111866785D01*
X113088571Y-110952500D02*
X113088571Y-110495357D01*
X113521904Y-110781071D02*
X112407619Y-110781071D01*
X112283809Y-110723928D01*
X112221904Y-110609642D01*
X112221904Y-110495357D01*
X112221904Y-110095357D02*
X113088571Y-110095357D01*
X113521904Y-110095357D02*
X113460000Y-110152500D01*
X113398095Y-110095357D01*
X113460000Y-110038214D01*
X113521904Y-110095357D01*
X113398095Y-110095357D01*
X113088571Y-109523928D02*
X112221904Y-109523928D01*
X112964761Y-109523928D02*
X113026666Y-109466785D01*
X113088571Y-109352500D01*
X113088571Y-109181071D01*
X113026666Y-109066785D01*
X112902857Y-109009642D01*
X112221904Y-109009642D01*
X113088571Y-107923928D02*
X112036190Y-107923928D01*
X111912380Y-107981071D01*
X111850476Y-108038214D01*
X111788571Y-108152500D01*
X111788571Y-108323928D01*
X111850476Y-108438214D01*
X112283809Y-107923928D02*
X112221904Y-108038214D01*
X112221904Y-108266785D01*
X112283809Y-108381071D01*
X112345714Y-108438214D01*
X112469523Y-108495357D01*
X112840952Y-108495357D01*
X112964761Y-108438214D01*
X113026666Y-108381071D01*
X113088571Y-108266785D01*
X113088571Y-108038214D01*
X113026666Y-107923928D01*
X112221904Y-105752500D02*
X112840952Y-106152500D01*
X112221904Y-106438214D02*
X113521904Y-106438214D01*
X113521904Y-105981071D01*
X113460000Y-105866785D01*
X113398095Y-105809642D01*
X113274285Y-105752500D01*
X113088571Y-105752500D01*
X112964761Y-105809642D01*
X112902857Y-105866785D01*
X112840952Y-105981071D01*
X112840952Y-106438214D01*
X112283809Y-104781071D02*
X112221904Y-104895357D01*
X112221904Y-105123928D01*
X112283809Y-105238214D01*
X112407619Y-105295357D01*
X112902857Y-105295357D01*
X113026666Y-105238214D01*
X113088571Y-105123928D01*
X113088571Y-104895357D01*
X113026666Y-104781071D01*
X112902857Y-104723928D01*
X112779047Y-104723928D01*
X112655238Y-105295357D01*
X112283809Y-103695357D02*
X112221904Y-103809642D01*
X112221904Y-104038214D01*
X112283809Y-104152500D01*
X112345714Y-104209642D01*
X112469523Y-104266785D01*
X112840952Y-104266785D01*
X112964761Y-104209642D01*
X113026666Y-104152500D01*
X113088571Y-104038214D01*
X113088571Y-103809642D01*
X113026666Y-103695357D01*
X112283809Y-102723928D02*
X112221904Y-102838214D01*
X112221904Y-103066785D01*
X112283809Y-103181071D01*
X112407619Y-103238214D01*
X112902857Y-103238214D01*
X113026666Y-103181071D01*
X113088571Y-103066785D01*
X113088571Y-102838214D01*
X113026666Y-102723928D01*
X112902857Y-102666785D01*
X112779047Y-102666785D01*
X112655238Y-103238214D01*
X112221904Y-102152500D02*
X113088571Y-102152500D01*
X113521904Y-102152500D02*
X113460000Y-102209642D01*
X113398095Y-102152500D01*
X113460000Y-102095357D01*
X113521904Y-102152500D01*
X113398095Y-102152500D01*
X113088571Y-101695357D02*
X112221904Y-101409642D01*
X113088571Y-101123928D01*
X112283809Y-100209642D02*
X112221904Y-100323928D01*
X112221904Y-100552500D01*
X112283809Y-100666785D01*
X112407619Y-100723928D01*
X112902857Y-100723928D01*
X113026666Y-100666785D01*
X113088571Y-100552500D01*
X113088571Y-100323928D01*
X113026666Y-100209642D01*
X112902857Y-100152500D01*
X112779047Y-100152500D01*
X112655238Y-100723928D01*
X112221904Y-99638214D02*
X113088571Y-99638214D01*
X112840952Y-99638214D02*
X112964761Y-99581071D01*
X113026666Y-99523928D01*
X113088571Y-99409642D01*
X113088571Y-99295357D01*
X113088571Y-98095357D02*
X112221904Y-97809642D01*
X113088571Y-97523928D01*
X112221904Y-96438214D02*
X112221904Y-97123928D01*
X112221904Y-96781071D02*
X113521904Y-96781071D01*
X113336190Y-96895357D01*
X113212380Y-97009642D01*
X113150476Y-97123928D01*
X112345714Y-95923928D02*
X112283809Y-95866785D01*
X112221904Y-95923928D01*
X112283809Y-95981071D01*
X112345714Y-95923928D01*
X112221904Y-95923928D01*
X113521904Y-95123928D02*
X113521904Y-95009642D01*
X113460000Y-94895357D01*
X113398095Y-94838214D01*
X113274285Y-94781071D01*
X113026666Y-94723928D01*
X112717142Y-94723928D01*
X112469523Y-94781071D01*
X112345714Y-94838214D01*
X112283809Y-94895357D01*
X112221904Y-95009642D01*
X112221904Y-95123928D01*
X112283809Y-95238214D01*
X112345714Y-95295357D01*
X112469523Y-95352500D01*
X112717142Y-95409642D01*
X113026666Y-95409642D01*
X113274285Y-95352500D01*
X113398095Y-95295357D01*
X113460000Y-95238214D01*
X113521904Y-95123928D01*
X110121904Y-120266785D02*
X111421904Y-120266785D01*
X111421904Y-119981071D01*
X111360000Y-119809642D01*
X111236190Y-119695357D01*
X111112380Y-119638214D01*
X110864761Y-119581071D01*
X110679047Y-119581071D01*
X110431428Y-119638214D01*
X110307619Y-119695357D01*
X110183809Y-119809642D01*
X110121904Y-119981071D01*
X110121904Y-120266785D01*
X110121904Y-118552500D02*
X110802857Y-118552500D01*
X110926666Y-118609642D01*
X110988571Y-118723928D01*
X110988571Y-118952500D01*
X110926666Y-119066785D01*
X110183809Y-118552500D02*
X110121904Y-118666785D01*
X110121904Y-118952500D01*
X110183809Y-119066785D01*
X110307619Y-119123928D01*
X110431428Y-119123928D01*
X110555238Y-119066785D01*
X110617142Y-118952500D01*
X110617142Y-118666785D01*
X110679047Y-118552500D01*
X110121904Y-117981071D02*
X110988571Y-117981071D01*
X110864761Y-117981071D02*
X110926666Y-117923928D01*
X110988571Y-117809642D01*
X110988571Y-117638214D01*
X110926666Y-117523928D01*
X110802857Y-117466785D01*
X110121904Y-117466785D01*
X110802857Y-117466785D02*
X110926666Y-117409642D01*
X110988571Y-117295357D01*
X110988571Y-117123928D01*
X110926666Y-117009642D01*
X110802857Y-116952500D01*
X110121904Y-116952500D01*
X110121904Y-116381071D02*
X110988571Y-116381071D01*
X111421904Y-116381071D02*
X111360000Y-116438214D01*
X111298095Y-116381071D01*
X111360000Y-116323928D01*
X111421904Y-116381071D01*
X111298095Y-116381071D01*
X110121904Y-115295357D02*
X110802857Y-115295357D01*
X110926666Y-115352500D01*
X110988571Y-115466785D01*
X110988571Y-115695357D01*
X110926666Y-115809642D01*
X110183809Y-115295357D02*
X110121904Y-115409642D01*
X110121904Y-115695357D01*
X110183809Y-115809642D01*
X110307619Y-115866785D01*
X110431428Y-115866785D01*
X110555238Y-115809642D01*
X110617142Y-115695357D01*
X110617142Y-115409642D01*
X110679047Y-115295357D01*
X110988571Y-114723928D02*
X110121904Y-114723928D01*
X110864761Y-114723928D02*
X110926666Y-114666785D01*
X110988571Y-114552500D01*
X110988571Y-114381071D01*
X110926666Y-114266785D01*
X110802857Y-114209642D01*
X110121904Y-114209642D01*
X110121904Y-112723928D02*
X111421904Y-112723928D01*
X110493333Y-112323928D01*
X111421904Y-111923928D01*
X110121904Y-111923928D01*
X110121904Y-111181071D02*
X110183809Y-111295357D01*
X110245714Y-111352500D01*
X110369523Y-111409642D01*
X110740952Y-111409642D01*
X110864761Y-111352500D01*
X110926666Y-111295357D01*
X110988571Y-111181071D01*
X110988571Y-111009642D01*
X110926666Y-110895357D01*
X110864761Y-110838214D01*
X110740952Y-110781071D01*
X110369523Y-110781071D01*
X110245714Y-110838214D01*
X110183809Y-110895357D01*
X110121904Y-111009642D01*
X110121904Y-111181071D01*
X110121904Y-110095357D02*
X110183809Y-110209642D01*
X110245714Y-110266785D01*
X110369523Y-110323928D01*
X110740952Y-110323928D01*
X110864761Y-110266785D01*
X110926666Y-110209642D01*
X110988571Y-110095357D01*
X110988571Y-109923928D01*
X110926666Y-109809642D01*
X110864761Y-109752500D01*
X110740952Y-109695357D01*
X110369523Y-109695357D01*
X110245714Y-109752500D01*
X110183809Y-109809642D01*
X110121904Y-109923928D01*
X110121904Y-110095357D01*
X110121904Y-109181071D02*
X110988571Y-109181071D01*
X110740952Y-109181071D02*
X110864761Y-109123928D01*
X110926666Y-109066785D01*
X110988571Y-108952500D01*
X110988571Y-108838214D01*
X110183809Y-107981071D02*
X110121904Y-108095357D01*
X110121904Y-108323928D01*
X110183809Y-108438214D01*
X110307619Y-108495357D01*
X110802857Y-108495357D01*
X110926666Y-108438214D01*
X110988571Y-108323928D01*
X110988571Y-108095357D01*
X110926666Y-107981071D01*
X110802857Y-107923928D01*
X110679047Y-107923928D01*
X110555238Y-108495357D01*
X111298095Y-106552500D02*
X111360000Y-106495357D01*
X111421904Y-106381071D01*
X111421904Y-106095357D01*
X111360000Y-105981071D01*
X111298095Y-105923928D01*
X111174285Y-105866785D01*
X111050476Y-105866785D01*
X110864761Y-105923928D01*
X110121904Y-106609642D01*
X110121904Y-105866785D01*
X111421904Y-105123928D02*
X111421904Y-105009642D01*
X111360000Y-104895357D01*
X111298095Y-104838214D01*
X111174285Y-104781071D01*
X110926666Y-104723928D01*
X110617142Y-104723928D01*
X110369523Y-104781071D01*
X110245714Y-104838214D01*
X110183809Y-104895357D01*
X110121904Y-105009642D01*
X110121904Y-105123928D01*
X110183809Y-105238214D01*
X110245714Y-105295357D01*
X110369523Y-105352500D01*
X110617142Y-105409642D01*
X110926666Y-105409642D01*
X111174285Y-105352500D01*
X111298095Y-105295357D01*
X111360000Y-105238214D01*
X111421904Y-105123928D01*
X111298095Y-104266785D02*
X111360000Y-104209642D01*
X111421904Y-104095357D01*
X111421904Y-103809642D01*
X111360000Y-103695357D01*
X111298095Y-103638214D01*
X111174285Y-103581071D01*
X111050476Y-103581071D01*
X110864761Y-103638214D01*
X110121904Y-104323928D01*
X110121904Y-103581071D01*
X111421904Y-102838214D02*
X111421904Y-102723928D01*
X111360000Y-102609642D01*
X111298095Y-102552500D01*
X111174285Y-102495357D01*
X110926666Y-102438214D01*
X110617142Y-102438214D01*
X110369523Y-102495357D01*
X110245714Y-102552500D01*
X110183809Y-102609642D01*
X110121904Y-102723928D01*
X110121904Y-102838214D01*
X110183809Y-102952500D01*
X110245714Y-103009642D01*
X110369523Y-103066785D01*
X110617142Y-103123928D01*
X110926666Y-103123928D01*
X111174285Y-103066785D01*
X111298095Y-103009642D01*
X111360000Y-102952500D01*
X111421904Y-102838214D01*
D11*
G36*
X125632224Y-115360122D02*
G01*
X125631645Y-115254388D01*
X125630078Y-115177868D01*
X125627028Y-115125628D01*
X125622004Y-115092737D01*
X125614511Y-115074263D01*
X125604056Y-115065273D01*
X125590147Y-115060837D01*
X125588346Y-115060406D01*
X125555855Y-115053667D01*
X125491748Y-115041192D01*
X125402849Y-115024281D01*
X125295981Y-115004229D01*
X125177967Y-114982336D01*
X125173822Y-114981571D01*
X125058169Y-114959641D01*
X124955986Y-114939123D01*
X124873402Y-114921341D01*
X124816544Y-114907619D01*
X124791542Y-114899282D01*
X124791099Y-114898884D01*
X124778890Y-114874323D01*
X124758544Y-114823685D01*
X124734455Y-114757905D01*
X124734326Y-114757539D01*
X124703182Y-114674683D01*
X124663509Y-114577000D01*
X124623619Y-114484923D01*
X124621647Y-114480566D01*
X124553580Y-114330593D01*
X124780361Y-113998502D01*
X124849496Y-113896626D01*
X124911303Y-113804343D01*
X124962267Y-113726997D01*
X124998873Y-113669936D01*
X125017606Y-113638505D01*
X125018996Y-113635521D01*
X125012810Y-113612679D01*
X124982965Y-113570018D01*
X124928053Y-113505872D01*
X124846666Y-113418579D01*
X124760078Y-113329465D01*
X124674753Y-113243559D01*
X124596892Y-113166673D01*
X124531303Y-113103436D01*
X124482795Y-113058477D01*
X124456175Y-113036424D01*
X124454805Y-113035604D01*
X124436537Y-113033166D01*
X124406705Y-113042350D01*
X124361279Y-113065426D01*
X124296230Y-113104663D01*
X124207530Y-113162330D01*
X124093343Y-113239205D01*
X123992838Y-113307430D01*
X123902697Y-113368418D01*
X123828151Y-113418644D01*
X123774435Y-113454584D01*
X123746782Y-113472713D01*
X123744905Y-113473854D01*
X123718410Y-113471641D01*
X123666914Y-113454862D01*
X123600149Y-113426858D01*
X123578828Y-113416878D01*
X123483841Y-113373328D01*
X123376063Y-113326866D01*
X123282808Y-113289123D01*
X123213594Y-113261927D01*
X123160994Y-113240325D01*
X123133503Y-113227842D01*
X123131384Y-113226291D01*
X123127876Y-113203332D01*
X123118262Y-113149214D01*
X123103911Y-113071132D01*
X123086193Y-112976281D01*
X123066475Y-112871857D01*
X123046126Y-112765056D01*
X123026514Y-112663074D01*
X123009009Y-112573106D01*
X122994978Y-112502347D01*
X122985791Y-112457994D01*
X122983193Y-112447115D01*
X122976782Y-112435878D01*
X122962303Y-112427395D01*
X122934867Y-112421286D01*
X122889589Y-112417168D01*
X122821580Y-112414659D01*
X122725953Y-112413379D01*
X122597820Y-112412946D01*
X122545299Y-112412923D01*
X122118155Y-112412923D01*
X122097909Y-112515500D01*
X122086930Y-112572569D01*
X122070905Y-112657731D01*
X122051767Y-112760628D01*
X122031449Y-112870904D01*
X122025868Y-112901385D01*
X122006083Y-113003145D01*
X121986627Y-113091795D01*
X121969303Y-113159892D01*
X121955912Y-113199996D01*
X121951921Y-113206677D01*
X121923658Y-113223081D01*
X121868891Y-113246601D01*
X121798412Y-113272684D01*
X121783231Y-113277858D01*
X121689104Y-113312044D01*
X121582899Y-113354477D01*
X121487527Y-113396003D01*
X121487084Y-113396208D01*
X121337475Y-113465360D01*
X120668383Y-113010488D01*
X120375884Y-113302500D01*
X120288830Y-113390820D01*
X120212091Y-113471375D01*
X120149763Y-113539640D01*
X120105944Y-113591092D01*
X120084730Y-113621206D01*
X120083384Y-113625526D01*
X120093984Y-113650889D01*
X120123453Y-113702642D01*
X120168295Y-113775132D01*
X120225016Y-113862706D01*
X120288538Y-113957388D01*
X120353332Y-114053484D01*
X120409713Y-114139163D01*
X120454212Y-114208984D01*
X120483361Y-114257506D01*
X120493692Y-114279218D01*
X120484950Y-114305707D01*
X120461913Y-114355938D01*
X120429369Y-114419549D01*
X120425751Y-114426292D01*
X120382790Y-114511954D01*
X120361721Y-114570694D01*
X120361497Y-114607228D01*
X120381072Y-114626269D01*
X120381346Y-114626380D01*
X120404528Y-114635898D01*
X120459559Y-114658597D01*
X120542178Y-114692718D01*
X120648128Y-114736500D01*
X120773148Y-114788184D01*
X120912980Y-114846008D01*
X121048363Y-114902009D01*
X121197766Y-114963553D01*
X121336168Y-115020061D01*
X121459327Y-115069839D01*
X121562998Y-115111194D01*
X121642941Y-115142432D01*
X121694912Y-115161859D01*
X121714308Y-115167846D01*
X121736557Y-115152832D01*
X121772018Y-115113561D01*
X121811113Y-115061193D01*
X121934755Y-114912059D01*
X122076478Y-114795489D01*
X122233296Y-114712882D01*
X122402225Y-114665634D01*
X122580278Y-114655143D01*
X122662461Y-114662769D01*
X122832969Y-114704318D01*
X122983541Y-114775877D01*
X123112691Y-114873005D01*
X123218936Y-114991266D01*
X123300790Y-115126220D01*
X123356768Y-115273429D01*
X123385385Y-115428456D01*
X123385156Y-115586861D01*
X123354595Y-115744206D01*
X123292218Y-115896054D01*
X123196540Y-116037965D01*
X123142428Y-116097197D01*
X123003480Y-116210797D01*
X122851639Y-116289894D01*
X122691333Y-116335014D01*
X122526988Y-116346684D01*
X122363029Y-116325431D01*
X122203882Y-116271780D01*
X122053975Y-116186260D01*
X121917733Y-116069395D01*
X121811113Y-115938807D01*
X121770358Y-115884412D01*
X121735282Y-115845986D01*
X121714274Y-115832154D01*
X121691365Y-115839397D01*
X121636635Y-115859995D01*
X121554328Y-115892254D01*
X121448685Y-115934479D01*
X121323950Y-115984977D01*
X121184364Y-116042052D01*
X121048330Y-116098146D01*
X120898799Y-116160033D01*
X120760233Y-116217356D01*
X120636893Y-116268356D01*
X120533036Y-116311273D01*
X120452920Y-116344347D01*
X120400805Y-116365819D01*
X120381346Y-116373775D01*
X120361577Y-116392571D01*
X120361635Y-116428926D01*
X120382559Y-116487521D01*
X120425387Y-116573032D01*
X120425751Y-116573708D01*
X120458988Y-116638093D01*
X120483198Y-116690139D01*
X120493596Y-116719488D01*
X120493692Y-116720783D01*
X120483145Y-116742876D01*
X120453816Y-116791652D01*
X120409173Y-116861669D01*
X120352686Y-116947486D01*
X120288538Y-117042612D01*
X120223589Y-117139460D01*
X120167104Y-117226747D01*
X120122579Y-117298819D01*
X120093510Y-117350023D01*
X120083384Y-117374474D01*
X120096693Y-117396990D01*
X120133888Y-117442258D01*
X120190872Y-117505756D01*
X120263551Y-117582961D01*
X120347829Y-117669349D01*
X120375984Y-117697601D01*
X120668584Y-117989713D01*
X120994896Y-117767369D01*
X121095103Y-117699798D01*
X121185037Y-117640493D01*
X121259490Y-117592783D01*
X121313249Y-117559993D01*
X121341106Y-117545452D01*
X121343088Y-117545026D01*
X121369345Y-117552692D01*
X121422163Y-117573311D01*
X121492690Y-117603315D01*
X121539907Y-117624375D01*
X121630306Y-117663752D01*
X121721634Y-117700835D01*
X121798800Y-117729585D01*
X121822308Y-117737395D01*
X121885084Y-117759583D01*
X121933589Y-117781273D01*
X121951921Y-117793187D01*
X121963141Y-117819477D01*
X121979046Y-117876858D01*
X121997833Y-117957882D01*
X122017701Y-118055105D01*
X122025868Y-118098615D01*
X122046171Y-118209104D01*
X122065830Y-118315084D01*
X122082912Y-118406199D01*
X122095482Y-118472092D01*
X122097909Y-118484500D01*
X122118155Y-118587077D01*
X122545299Y-118587077D01*
X122685754Y-118586847D01*
X122792021Y-118585901D01*
X122868987Y-118583859D01*
X122921540Y-118580338D01*
X122954567Y-118574957D01*
X122972955Y-118567334D01*
X122981592Y-118557088D01*
X122983193Y-118552885D01*
X122988873Y-118527530D01*
X123000205Y-118471516D01*
X123015821Y-118392036D01*
X123034353Y-118296288D01*
X123054431Y-118191467D01*
X123074688Y-118084768D01*
X123093754Y-117983387D01*
X123110261Y-117894521D01*
X123122841Y-117825363D01*
X123130125Y-117783111D01*
X123131384Y-117773710D01*
X123148237Y-117765193D01*
X123193130Y-117746340D01*
X123257570Y-117720676D01*
X123282808Y-117710877D01*
X123380314Y-117671352D01*
X123488041Y-117624808D01*
X123578828Y-117583123D01*
X123648247Y-117552450D01*
X123705290Y-117532044D01*
X123740223Y-117525232D01*
X123744905Y-117526318D01*
X123767009Y-117540715D01*
X123816169Y-117573588D01*
X123887152Y-117621410D01*
X123974722Y-117680652D01*
X124073643Y-117747785D01*
X124093170Y-117761059D01*
X124208860Y-117838954D01*
X124296956Y-117896213D01*
X124361514Y-117935119D01*
X124406589Y-117957956D01*
X124436237Y-117967006D01*
X124454515Y-117964552D01*
X124454631Y-117964489D01*
X124478639Y-117945173D01*
X124525053Y-117902449D01*
X124589063Y-117840949D01*
X124665855Y-117765302D01*
X124750618Y-117680139D01*
X124760078Y-117670535D01*
X124864011Y-117563210D01*
X124940325Y-117480385D01*
X124990429Y-117420395D01*
X125015730Y-117381577D01*
X125018996Y-117364480D01*
X125004750Y-117339527D01*
X124971844Y-117287745D01*
X124923792Y-117214480D01*
X124864110Y-117125080D01*
X124796312Y-117024889D01*
X124780361Y-117001499D01*
X124553580Y-116669407D01*
X124621647Y-116519435D01*
X124661315Y-116428230D01*
X124701209Y-116330331D01*
X124733017Y-116246169D01*
X124734326Y-116242462D01*
X124758424Y-116176631D01*
X124778800Y-116125884D01*
X124791064Y-116101158D01*
X124791099Y-116101116D01*
X124813266Y-116093271D01*
X124867783Y-116079934D01*
X124948520Y-116062430D01*
X125049350Y-116042083D01*
X125164144Y-116020218D01*
X125173822Y-116018429D01*
X125292096Y-115996496D01*
X125399458Y-115976360D01*
X125489083Y-115959320D01*
X125554149Y-115946672D01*
X125587832Y-115939716D01*
X125588346Y-115939594D01*
X125602675Y-115935361D01*
X125613493Y-115927129D01*
X125621294Y-115909967D01*
X125626571Y-115878942D01*
X125629818Y-115829122D01*
X125631528Y-115755576D01*
X125632193Y-115653371D01*
X125632307Y-115517575D01*
X125632308Y-115500000D01*
X125632224Y-115360122D01*
G37*
X125632224Y-115360122D02*
X125631645Y-115254388D01*
X125630078Y-115177868D01*
X125627028Y-115125628D01*
X125622004Y-115092737D01*
X125614511Y-115074263D01*
X125604056Y-115065273D01*
X125590147Y-115060837D01*
X125588346Y-115060406D01*
X125555855Y-115053667D01*
X125491748Y-115041192D01*
X125402849Y-115024281D01*
X125295981Y-115004229D01*
X125177967Y-114982336D01*
X125173822Y-114981571D01*
X125058169Y-114959641D01*
X124955986Y-114939123D01*
X124873402Y-114921341D01*
X124816544Y-114907619D01*
X124791542Y-114899282D01*
X124791099Y-114898884D01*
X124778890Y-114874323D01*
X124758544Y-114823685D01*
X124734455Y-114757905D01*
X124734326Y-114757539D01*
X124703182Y-114674683D01*
X124663509Y-114577000D01*
X124623619Y-114484923D01*
X124621647Y-114480566D01*
X124553580Y-114330593D01*
X124780361Y-113998502D01*
X124849496Y-113896626D01*
X124911303Y-113804343D01*
X124962267Y-113726997D01*
X124998873Y-113669936D01*
X125017606Y-113638505D01*
X125018996Y-113635521D01*
X125012810Y-113612679D01*
X124982965Y-113570018D01*
X124928053Y-113505872D01*
X124846666Y-113418579D01*
X124760078Y-113329465D01*
X124674753Y-113243559D01*
X124596892Y-113166673D01*
X124531303Y-113103436D01*
X124482795Y-113058477D01*
X124456175Y-113036424D01*
X124454805Y-113035604D01*
X124436537Y-113033166D01*
X124406705Y-113042350D01*
X124361279Y-113065426D01*
X124296230Y-113104663D01*
X124207530Y-113162330D01*
X124093343Y-113239205D01*
X123992838Y-113307430D01*
X123902697Y-113368418D01*
X123828151Y-113418644D01*
X123774435Y-113454584D01*
X123746782Y-113472713D01*
X123744905Y-113473854D01*
X123718410Y-113471641D01*
X123666914Y-113454862D01*
X123600149Y-113426858D01*
X123578828Y-113416878D01*
X123483841Y-113373328D01*
X123376063Y-113326866D01*
X123282808Y-113289123D01*
X123213594Y-113261927D01*
X123160994Y-113240325D01*
X123133503Y-113227842D01*
X123131384Y-113226291D01*
X123127876Y-113203332D01*
X123118262Y-113149214D01*
X123103911Y-113071132D01*
X123086193Y-112976281D01*
X123066475Y-112871857D01*
X123046126Y-112765056D01*
X123026514Y-112663074D01*
X123009009Y-112573106D01*
X122994978Y-112502347D01*
X122985791Y-112457994D01*
X122983193Y-112447115D01*
X122976782Y-112435878D01*
X122962303Y-112427395D01*
X122934867Y-112421286D01*
X122889589Y-112417168D01*
X122821580Y-112414659D01*
X122725953Y-112413379D01*
X122597820Y-112412946D01*
X122545299Y-112412923D01*
X122118155Y-112412923D01*
X122097909Y-112515500D01*
X122086930Y-112572569D01*
X122070905Y-112657731D01*
X122051767Y-112760628D01*
X122031449Y-112870904D01*
X122025868Y-112901385D01*
X122006083Y-113003145D01*
X121986627Y-113091795D01*
X121969303Y-113159892D01*
X121955912Y-113199996D01*
X121951921Y-113206677D01*
X121923658Y-113223081D01*
X121868891Y-113246601D01*
X121798412Y-113272684D01*
X121783231Y-113277858D01*
X121689104Y-113312044D01*
X121582899Y-113354477D01*
X121487527Y-113396003D01*
X121487084Y-113396208D01*
X121337475Y-113465360D01*
X120668383Y-113010488D01*
X120375884Y-113302500D01*
X120288830Y-113390820D01*
X120212091Y-113471375D01*
X120149763Y-113539640D01*
X120105944Y-113591092D01*
X120084730Y-113621206D01*
X120083384Y-113625526D01*
X120093984Y-113650889D01*
X120123453Y-113702642D01*
X120168295Y-113775132D01*
X120225016Y-113862706D01*
X120288538Y-113957388D01*
X120353332Y-114053484D01*
X120409713Y-114139163D01*
X120454212Y-114208984D01*
X120483361Y-114257506D01*
X120493692Y-114279218D01*
X120484950Y-114305707D01*
X120461913Y-114355938D01*
X120429369Y-114419549D01*
X120425751Y-114426292D01*
X120382790Y-114511954D01*
X120361721Y-114570694D01*
X120361497Y-114607228D01*
X120381072Y-114626269D01*
X120381346Y-114626380D01*
X120404528Y-114635898D01*
X120459559Y-114658597D01*
X120542178Y-114692718D01*
X120648128Y-114736500D01*
X120773148Y-114788184D01*
X120912980Y-114846008D01*
X121048363Y-114902009D01*
X121197766Y-114963553D01*
X121336168Y-115020061D01*
X121459327Y-115069839D01*
X121562998Y-115111194D01*
X121642941Y-115142432D01*
X121694912Y-115161859D01*
X121714308Y-115167846D01*
X121736557Y-115152832D01*
X121772018Y-115113561D01*
X121811113Y-115061193D01*
X121934755Y-114912059D01*
X122076478Y-114795489D01*
X122233296Y-114712882D01*
X122402225Y-114665634D01*
X122580278Y-114655143D01*
X122662461Y-114662769D01*
X122832969Y-114704318D01*
X122983541Y-114775877D01*
X123112691Y-114873005D01*
X123218936Y-114991266D01*
X123300790Y-115126220D01*
X123356768Y-115273429D01*
X123385385Y-115428456D01*
X123385156Y-115586861D01*
X123354595Y-115744206D01*
X123292218Y-115896054D01*
X123196540Y-116037965D01*
X123142428Y-116097197D01*
X123003480Y-116210797D01*
X122851639Y-116289894D01*
X122691333Y-116335014D01*
X122526988Y-116346684D01*
X122363029Y-116325431D01*
X122203882Y-116271780D01*
X122053975Y-116186260D01*
X121917733Y-116069395D01*
X121811113Y-115938807D01*
X121770358Y-115884412D01*
X121735282Y-115845986D01*
X121714274Y-115832154D01*
X121691365Y-115839397D01*
X121636635Y-115859995D01*
X121554328Y-115892254D01*
X121448685Y-115934479D01*
X121323950Y-115984977D01*
X121184364Y-116042052D01*
X121048330Y-116098146D01*
X120898799Y-116160033D01*
X120760233Y-116217356D01*
X120636893Y-116268356D01*
X120533036Y-116311273D01*
X120452920Y-116344347D01*
X120400805Y-116365819D01*
X120381346Y-116373775D01*
X120361577Y-116392571D01*
X120361635Y-116428926D01*
X120382559Y-116487521D01*
X120425387Y-116573032D01*
X120425751Y-116573708D01*
X120458988Y-116638093D01*
X120483198Y-116690139D01*
X120493596Y-116719488D01*
X120493692Y-116720783D01*
X120483145Y-116742876D01*
X120453816Y-116791652D01*
X120409173Y-116861669D01*
X120352686Y-116947486D01*
X120288538Y-117042612D01*
X120223589Y-117139460D01*
X120167104Y-117226747D01*
X120122579Y-117298819D01*
X120093510Y-117350023D01*
X120083384Y-117374474D01*
X120096693Y-117396990D01*
X120133888Y-117442258D01*
X120190872Y-117505756D01*
X120263551Y-117582961D01*
X120347829Y-117669349D01*
X120375984Y-117697601D01*
X120668584Y-117989713D01*
X120994896Y-117767369D01*
X121095103Y-117699798D01*
X121185037Y-117640493D01*
X121259490Y-117592783D01*
X121313249Y-117559993D01*
X121341106Y-117545452D01*
X121343088Y-117545026D01*
X121369345Y-117552692D01*
X121422163Y-117573311D01*
X121492690Y-117603315D01*
X121539907Y-117624375D01*
X121630306Y-117663752D01*
X121721634Y-117700835D01*
X121798800Y-117729585D01*
X121822308Y-117737395D01*
X121885084Y-117759583D01*
X121933589Y-117781273D01*
X121951921Y-117793187D01*
X121963141Y-117819477D01*
X121979046Y-117876858D01*
X121997833Y-117957882D01*
X122017701Y-118055105D01*
X122025868Y-118098615D01*
X122046171Y-118209104D01*
X122065830Y-118315084D01*
X122082912Y-118406199D01*
X122095482Y-118472092D01*
X122097909Y-118484500D01*
X122118155Y-118587077D01*
X122545299Y-118587077D01*
X122685754Y-118586847D01*
X122792021Y-118585901D01*
X122868987Y-118583859D01*
X122921540Y-118580338D01*
X122954567Y-118574957D01*
X122972955Y-118567334D01*
X122981592Y-118557088D01*
X122983193Y-118552885D01*
X122988873Y-118527530D01*
X123000205Y-118471516D01*
X123015821Y-118392036D01*
X123034353Y-118296288D01*
X123054431Y-118191467D01*
X123074688Y-118084768D01*
X123093754Y-117983387D01*
X123110261Y-117894521D01*
X123122841Y-117825363D01*
X123130125Y-117783111D01*
X123131384Y-117773710D01*
X123148237Y-117765193D01*
X123193130Y-117746340D01*
X123257570Y-117720676D01*
X123282808Y-117710877D01*
X123380314Y-117671352D01*
X123488041Y-117624808D01*
X123578828Y-117583123D01*
X123648247Y-117552450D01*
X123705290Y-117532044D01*
X123740223Y-117525232D01*
X123744905Y-117526318D01*
X123767009Y-117540715D01*
X123816169Y-117573588D01*
X123887152Y-117621410D01*
X123974722Y-117680652D01*
X124073643Y-117747785D01*
X124093170Y-117761059D01*
X124208860Y-117838954D01*
X124296956Y-117896213D01*
X124361514Y-117935119D01*
X124406589Y-117957956D01*
X124436237Y-117967006D01*
X124454515Y-117964552D01*
X124454631Y-117964489D01*
X124478639Y-117945173D01*
X124525053Y-117902449D01*
X124589063Y-117840949D01*
X124665855Y-117765302D01*
X124750618Y-117680139D01*
X124760078Y-117670535D01*
X124864011Y-117563210D01*
X124940325Y-117480385D01*
X124990429Y-117420395D01*
X125015730Y-117381577D01*
X125018996Y-117364480D01*
X125004750Y-117339527D01*
X124971844Y-117287745D01*
X124923792Y-117214480D01*
X124864110Y-117125080D01*
X124796312Y-117024889D01*
X124780361Y-117001499D01*
X124553580Y-116669407D01*
X124621647Y-116519435D01*
X124661315Y-116428230D01*
X124701209Y-116330331D01*
X124733017Y-116246169D01*
X124734326Y-116242462D01*
X124758424Y-116176631D01*
X124778800Y-116125884D01*
X124791064Y-116101158D01*
X124791099Y-116101116D01*
X124813266Y-116093271D01*
X124867783Y-116079934D01*
X124948520Y-116062430D01*
X125049350Y-116042083D01*
X125164144Y-116020218D01*
X125173822Y-116018429D01*
X125292096Y-115996496D01*
X125399458Y-115976360D01*
X125489083Y-115959320D01*
X125554149Y-115946672D01*
X125587832Y-115939716D01*
X125588346Y-115939594D01*
X125602675Y-115935361D01*
X125613493Y-115927129D01*
X125621294Y-115909967D01*
X125626571Y-115878942D01*
X125629818Y-115829122D01*
X125631528Y-115755576D01*
X125632193Y-115653371D01*
X125632307Y-115517575D01*
X125632308Y-115500000D01*
X125632224Y-115360122D01*
G36*
X119272162Y-111254776D02*
G01*
X119221639Y-111177472D01*
X119176410Y-111140186D01*
X119094337Y-111110647D01*
X119029393Y-111108301D01*
X118942555Y-111113615D01*
X118854897Y-111313885D01*
X118810113Y-111411261D01*
X118774087Y-111474887D01*
X118742883Y-111507971D01*
X118712564Y-111513720D01*
X118679195Y-111495342D01*
X118657077Y-111475077D01*
X118621607Y-111416111D01*
X118619121Y-111351976D01*
X118646765Y-111293074D01*
X118701680Y-111249803D01*
X118721072Y-111242064D01*
X118781636Y-111204994D01*
X118807448Y-111162346D01*
X118829529Y-111103846D01*
X118745816Y-111103846D01*
X118688850Y-111109018D01*
X118640811Y-111129277D01*
X118585654Y-111171738D01*
X118578486Y-111178049D01*
X118529415Y-111225280D01*
X118503080Y-111265879D01*
X118490965Y-111316672D01*
X118486997Y-111358780D01*
X118486009Y-111434098D01*
X118498534Y-111487714D01*
X118517131Y-111521162D01*
X118558025Y-111573732D01*
X118602252Y-111610121D01*
X118657874Y-111633150D01*
X118732953Y-111645641D01*
X118835551Y-111650413D01*
X118887624Y-111650794D01*
X118950052Y-111649499D01*
X118950052Y-111531529D01*
X118916562Y-111530161D01*
X118911077Y-111526751D01*
X118918528Y-111504247D01*
X118938247Y-111455818D01*
X118966282Y-111391092D01*
X118972308Y-111377557D01*
X119013904Y-111295756D01*
X119050462Y-111250688D01*
X119084704Y-111240783D01*
X119119352Y-111264474D01*
X119134661Y-111284040D01*
X119165279Y-111354640D01*
X119160220Y-111420720D01*
X119122849Y-111476041D01*
X119056527Y-111514364D01*
X119003884Y-111526651D01*
X118950052Y-111531529D01*
X118950052Y-111649499D01*
X119009280Y-111648270D01*
X119099290Y-111638968D01*
X119164833Y-111620540D01*
X119213088Y-111590640D01*
X119251233Y-111546920D01*
X119263560Y-111527859D01*
X119295664Y-111441274D01*
X119297684Y-111346478D01*
X119272162Y-111254776D01*
G37*
X119272162Y-111254776D02*
X119221639Y-111177472D01*
X119176410Y-111140186D01*
X119094337Y-111110647D01*
X119029393Y-111108301D01*
X118942555Y-111113615D01*
X118854897Y-111313885D01*
X118810113Y-111411261D01*
X118774087Y-111474887D01*
X118742883Y-111507971D01*
X118712564Y-111513720D01*
X118679195Y-111495342D01*
X118657077Y-111475077D01*
X118621607Y-111416111D01*
X118619121Y-111351976D01*
X118646765Y-111293074D01*
X118701680Y-111249803D01*
X118721072Y-111242064D01*
X118781636Y-111204994D01*
X118807448Y-111162346D01*
X118829529Y-111103846D01*
X118745816Y-111103846D01*
X118688850Y-111109018D01*
X118640811Y-111129277D01*
X118585654Y-111171738D01*
X118578486Y-111178049D01*
X118529415Y-111225280D01*
X118503080Y-111265879D01*
X118490965Y-111316672D01*
X118486997Y-111358780D01*
X118486009Y-111434098D01*
X118498534Y-111487714D01*
X118517131Y-111521162D01*
X118558025Y-111573732D01*
X118602252Y-111610121D01*
X118657874Y-111633150D01*
X118732953Y-111645641D01*
X118835551Y-111650413D01*
X118887624Y-111650794D01*
X118950052Y-111649499D01*
X118950052Y-111531529D01*
X118916562Y-111530161D01*
X118911077Y-111526751D01*
X118918528Y-111504247D01*
X118938247Y-111455818D01*
X118966282Y-111391092D01*
X118972308Y-111377557D01*
X119013904Y-111295756D01*
X119050462Y-111250688D01*
X119084704Y-111240783D01*
X119119352Y-111264474D01*
X119134661Y-111284040D01*
X119165279Y-111354640D01*
X119160220Y-111420720D01*
X119122849Y-111476041D01*
X119056527Y-111514364D01*
X119003884Y-111526651D01*
X118950052Y-111531529D01*
X118950052Y-111649499D01*
X119009280Y-111648270D01*
X119099290Y-111638968D01*
X119164833Y-111620540D01*
X119213088Y-111590640D01*
X119251233Y-111546920D01*
X119263560Y-111527859D01*
X119295664Y-111441274D01*
X119297684Y-111346478D01*
X119272162Y-111254776D01*
G36*
X119283218Y-111929193D02*
G01*
X119273012Y-111905839D01*
X119228866Y-111850098D01*
X119165033Y-111802431D01*
X119096913Y-111772952D01*
X119063330Y-111768154D01*
X119016444Y-111784240D01*
X118991635Y-111819525D01*
X118976613Y-111857356D01*
X118973845Y-111874679D01*
X118993934Y-111883114D01*
X119037649Y-111899770D01*
X119057402Y-111907077D01*
X119125729Y-111948052D01*
X119159809Y-112007378D01*
X119158761Y-112083448D01*
X119157419Y-112089082D01*
X119138164Y-112129695D01*
X119100625Y-112159552D01*
X119040191Y-112179945D01*
X118952249Y-112192164D01*
X118832187Y-112197500D01*
X118768302Y-112198000D01*
X118667597Y-112198248D01*
X118598946Y-112199874D01*
X118555327Y-112204199D01*
X118529718Y-112212546D01*
X118515097Y-112226235D01*
X118504442Y-112246589D01*
X118503905Y-112247766D01*
X118487333Y-112286962D01*
X118481231Y-112306381D01*
X118499681Y-112309365D01*
X118550677Y-112311919D01*
X118627692Y-112313860D01*
X118724195Y-112315003D01*
X118794816Y-112315231D01*
X118931475Y-112314068D01*
X119035149Y-112309521D01*
X119111892Y-112300001D01*
X119167754Y-112283919D01*
X119208788Y-112259687D01*
X119241046Y-112225714D01*
X119263560Y-112192167D01*
X119293524Y-112111501D01*
X119300282Y-112017619D01*
X119283218Y-111929193D01*
G37*
X119283218Y-111929193D02*
X119273012Y-111905839D01*
X119228866Y-111850098D01*
X119165033Y-111802431D01*
X119096913Y-111772952D01*
X119063330Y-111768154D01*
X119016444Y-111784240D01*
X118991635Y-111819525D01*
X118976613Y-111857356D01*
X118973845Y-111874679D01*
X118993934Y-111883114D01*
X119037649Y-111899770D01*
X119057402Y-111907077D01*
X119125729Y-111948052D01*
X119159809Y-112007378D01*
X119158761Y-112083448D01*
X119157419Y-112089082D01*
X119138164Y-112129695D01*
X119100625Y-112159552D01*
X119040191Y-112179945D01*
X118952249Y-112192164D01*
X118832187Y-112197500D01*
X118768302Y-112198000D01*
X118667597Y-112198248D01*
X118598946Y-112199874D01*
X118555327Y-112204199D01*
X118529718Y-112212546D01*
X118515097Y-112226235D01*
X118504442Y-112246589D01*
X118503905Y-112247766D01*
X118487333Y-112286962D01*
X118481231Y-112306381D01*
X118499681Y-112309365D01*
X118550677Y-112311919D01*
X118627692Y-112313860D01*
X118724195Y-112315003D01*
X118794816Y-112315231D01*
X118931475Y-112314068D01*
X119035149Y-112309521D01*
X119111892Y-112300001D01*
X119167754Y-112283919D01*
X119208788Y-112259687D01*
X119241046Y-112225714D01*
X119263560Y-112192167D01*
X119293524Y-112111501D01*
X119300282Y-112017619D01*
X119283218Y-111929193D01*
G36*
X119286472Y-112612667D02*
G01*
X119260883Y-112556410D01*
X119229876Y-112512253D01*
X119195205Y-112479899D01*
X119150480Y-112457562D01*
X119089308Y-112443454D01*
X119005299Y-112435789D01*
X118892060Y-112432780D01*
X118817491Y-112432462D01*
X118526580Y-112432462D01*
X118503905Y-112482227D01*
X118487333Y-112521424D01*
X118481231Y-112540843D01*
X118499390Y-112544558D01*
X118548352Y-112547505D01*
X118619847Y-112549309D01*
X118676615Y-112549692D01*
X118758629Y-112551339D01*
X118823691Y-112555778D01*
X118863533Y-112562260D01*
X118872000Y-112567410D01*
X118863354Y-112602023D01*
X118841177Y-112656360D01*
X118811114Y-112719278D01*
X118778808Y-112779632D01*
X118749902Y-112826279D01*
X118730039Y-112848074D01*
X118729825Y-112848161D01*
X118693065Y-112846286D01*
X118657974Y-112829475D01*
X118629472Y-112799961D01*
X118619939Y-112756884D01*
X118621050Y-112720068D01*
X118621867Y-112667926D01*
X118609651Y-112640556D01*
X118577376Y-112624118D01*
X118571290Y-112622045D01*
X118525261Y-112614919D01*
X118497313Y-112633976D01*
X118483993Y-112683647D01*
X118481530Y-112737303D01*
X118499790Y-112833858D01*
X118525869Y-112883841D01*
X118587132Y-112945571D01*
X118662330Y-112978310D01*
X118741789Y-112981247D01*
X118815833Y-112953576D01*
X118862231Y-112911953D01*
X118888207Y-112870396D01*
X118921093Y-112805078D01*
X118954443Y-112728962D01*
X118959539Y-112716274D01*
X118996435Y-112632667D01*
X119028954Y-112584470D01*
X119061282Y-112568970D01*
X119097606Y-112583450D01*
X119126000Y-112608308D01*
X119160961Y-112667061D01*
X119163583Y-112731707D01*
X119136642Y-112790992D01*
X119082912Y-112833661D01*
X119069050Y-112839261D01*
X119018064Y-112871867D01*
X118980213Y-112919470D01*
X118949150Y-112979539D01*
X119037232Y-112979539D01*
X119091049Y-112976003D01*
X119133466Y-112960844D01*
X119178721Y-112927232D01*
X119213580Y-112894965D01*
X119262938Y-112844791D01*
X119289453Y-112805807D01*
X119300089Y-112763936D01*
X119301846Y-112716540D01*
X119286472Y-112612667D01*
G37*
X119286472Y-112612667D02*
X119260883Y-112556410D01*
X119229876Y-112512253D01*
X119195205Y-112479899D01*
X119150480Y-112457562D01*
X119089308Y-112443454D01*
X119005299Y-112435789D01*
X118892060Y-112432780D01*
X118817491Y-112432462D01*
X118526580Y-112432462D01*
X118503905Y-112482227D01*
X118487333Y-112521424D01*
X118481231Y-112540843D01*
X118499390Y-112544558D01*
X118548352Y-112547505D01*
X118619847Y-112549309D01*
X118676615Y-112549692D01*
X118758629Y-112551339D01*
X118823691Y-112555778D01*
X118863533Y-112562260D01*
X118872000Y-112567410D01*
X118863354Y-112602023D01*
X118841177Y-112656360D01*
X118811114Y-112719278D01*
X118778808Y-112779632D01*
X118749902Y-112826279D01*
X118730039Y-112848074D01*
X118729825Y-112848161D01*
X118693065Y-112846286D01*
X118657974Y-112829475D01*
X118629472Y-112799961D01*
X118619939Y-112756884D01*
X118621050Y-112720068D01*
X118621867Y-112667926D01*
X118609651Y-112640556D01*
X118577376Y-112624118D01*
X118571290Y-112622045D01*
X118525261Y-112614919D01*
X118497313Y-112633976D01*
X118483993Y-112683647D01*
X118481530Y-112737303D01*
X118499790Y-112833858D01*
X118525869Y-112883841D01*
X118587132Y-112945571D01*
X118662330Y-112978310D01*
X118741789Y-112981247D01*
X118815833Y-112953576D01*
X118862231Y-112911953D01*
X118888207Y-112870396D01*
X118921093Y-112805078D01*
X118954443Y-112728962D01*
X118959539Y-112716274D01*
X118996435Y-112632667D01*
X119028954Y-112584470D01*
X119061282Y-112568970D01*
X119097606Y-112583450D01*
X119126000Y-112608308D01*
X119160961Y-112667061D01*
X119163583Y-112731707D01*
X119136642Y-112790992D01*
X119082912Y-112833661D01*
X119069050Y-112839261D01*
X119018064Y-112871867D01*
X118980213Y-112919470D01*
X118949150Y-112979539D01*
X119037232Y-112979539D01*
X119091049Y-112976003D01*
X119133466Y-112960844D01*
X119178721Y-112927232D01*
X119213580Y-112894965D01*
X119262938Y-112844791D01*
X119289453Y-112805807D01*
X119300089Y-112763936D01*
X119301846Y-112716540D01*
X119286472Y-112612667D01*
G36*
X119283338Y-113104071D02*
G01*
X119231932Y-113101089D01*
X119153808Y-113098753D01*
X119055143Y-113097251D01*
X118951657Y-113096769D01*
X118601467Y-113096769D01*
X118539637Y-113158599D01*
X118501538Y-113201207D01*
X118486105Y-113238610D01*
X118487082Y-113289730D01*
X118489567Y-113310022D01*
X118496800Y-113373446D01*
X118500945Y-113425905D01*
X118501328Y-113438692D01*
X118498824Y-113481801D01*
X118492538Y-113543456D01*
X118489567Y-113567362D01*
X118484972Y-113626078D01*
X118494954Y-113665536D01*
X118525772Y-113704662D01*
X118539637Y-113718785D01*
X118601467Y-113780615D01*
X119256497Y-113780615D01*
X119279171Y-113730850D01*
X119295966Y-113687998D01*
X119301846Y-113662927D01*
X119283264Y-113656499D01*
X119231345Y-113650491D01*
X119151828Y-113645303D01*
X119050454Y-113641336D01*
X118964808Y-113639423D01*
X118627769Y-113634077D01*
X118621175Y-113587440D01*
X118625786Y-113545024D01*
X118640713Y-113524240D01*
X118668623Y-113518430D01*
X118728075Y-113513470D01*
X118811534Y-113509754D01*
X118911468Y-113507676D01*
X118962896Y-113507376D01*
X119258946Y-113507077D01*
X119280396Y-113445546D01*
X119294980Y-113401996D01*
X119301781Y-113378306D01*
X119301846Y-113377623D01*
X119283358Y-113375246D01*
X119232094Y-113372634D01*
X119154351Y-113370005D01*
X119056426Y-113367579D01*
X118964808Y-113365885D01*
X118627769Y-113360539D01*
X118627769Y-113243308D01*
X118935254Y-113237928D01*
X119242739Y-113232549D01*
X119272293Y-113175399D01*
X119292587Y-113133203D01*
X119301796Y-113108230D01*
X119301846Y-113107509D01*
X119283338Y-113104071D01*
G37*
X119283338Y-113104071D02*
X119231932Y-113101089D01*
X119153808Y-113098753D01*
X119055143Y-113097251D01*
X118951657Y-113096769D01*
X118601467Y-113096769D01*
X118539637Y-113158599D01*
X118501538Y-113201207D01*
X118486105Y-113238610D01*
X118487082Y-113289730D01*
X118489567Y-113310022D01*
X118496800Y-113373446D01*
X118500945Y-113425905D01*
X118501328Y-113438692D01*
X118498824Y-113481801D01*
X118492538Y-113543456D01*
X118489567Y-113567362D01*
X118484972Y-113626078D01*
X118494954Y-113665536D01*
X118525772Y-113704662D01*
X118539637Y-113718785D01*
X118601467Y-113780615D01*
X119256497Y-113780615D01*
X119279171Y-113730850D01*
X119295966Y-113687998D01*
X119301846Y-113662927D01*
X119283264Y-113656499D01*
X119231345Y-113650491D01*
X119151828Y-113645303D01*
X119050454Y-113641336D01*
X118964808Y-113639423D01*
X118627769Y-113634077D01*
X118621175Y-113587440D01*
X118625786Y-113545024D01*
X118640713Y-113524240D01*
X118668623Y-113518430D01*
X118728075Y-113513470D01*
X118811534Y-113509754D01*
X118911468Y-113507676D01*
X118962896Y-113507376D01*
X119258946Y-113507077D01*
X119280396Y-113445546D01*
X119294980Y-113401996D01*
X119301781Y-113378306D01*
X119301846Y-113377623D01*
X119283358Y-113375246D01*
X119232094Y-113372634D01*
X119154351Y-113370005D01*
X119056426Y-113367579D01*
X118964808Y-113365885D01*
X118627769Y-113360539D01*
X118627769Y-113243308D01*
X118935254Y-113237928D01*
X119242739Y-113232549D01*
X119272293Y-113175399D01*
X119292587Y-113133203D01*
X119301796Y-113108230D01*
X119301846Y-113107509D01*
X119283338Y-113104071D01*
G36*
X119139711Y-113897919D02*
G01*
X118993680Y-113898167D01*
X118881345Y-113899128D01*
X118797322Y-113901206D01*
X118736231Y-113904807D01*
X118692691Y-113910335D01*
X118661321Y-113918196D01*
X118636738Y-113928793D01*
X118622706Y-113936818D01*
X118546612Y-114003272D01*
X118498916Y-114087530D01*
X118481801Y-114180751D01*
X118497454Y-114274100D01*
X118525582Y-114329688D01*
X118574240Y-114388043D01*
X118633667Y-114427814D01*
X118711493Y-114451810D01*
X118815348Y-114462839D01*
X118891538Y-114464401D01*
X118897014Y-114464191D01*
X118897014Y-114327692D01*
X118809645Y-114326859D01*
X118751808Y-114323039D01*
X118713971Y-114314254D01*
X118686602Y-114298526D01*
X118665958Y-114279734D01*
X118626110Y-114216625D01*
X118622705Y-114148863D01*
X118655975Y-114084821D01*
X118660483Y-114079836D01*
X118683933Y-114058561D01*
X118711834Y-114045221D01*
X118753359Y-114037999D01*
X118817684Y-114035077D01*
X118888800Y-114034615D01*
X118978142Y-114035617D01*
X119037742Y-114039762D01*
X119076911Y-114048764D01*
X119104960Y-114064333D01*
X119119856Y-114077098D01*
X119157425Y-114136400D01*
X119161943Y-114204699D01*
X119133247Y-114269890D01*
X119122594Y-114282472D01*
X119098937Y-114303889D01*
X119070749Y-114317256D01*
X119028755Y-114324434D01*
X118963681Y-114327281D01*
X118897014Y-114327692D01*
X118897014Y-114464191D01*
X119014235Y-114459678D01*
X119106423Y-114443638D01*
X119175731Y-114413472D01*
X119229789Y-114366371D01*
X119257495Y-114329688D01*
X119287428Y-114263010D01*
X119301322Y-114185728D01*
X119297603Y-114113890D01*
X119282600Y-114073692D01*
X119278330Y-114057918D01*
X119294250Y-114047450D01*
X119336911Y-114040144D01*
X119401894Y-114034615D01*
X119474268Y-114028563D01*
X119517813Y-114020156D01*
X119542713Y-114004859D01*
X119559155Y-113978136D01*
X119566436Y-113961346D01*
X119593037Y-113897846D01*
X119139711Y-113897919D01*
G37*
X119139711Y-113897919D02*
X118993680Y-113898167D01*
X118881345Y-113899128D01*
X118797322Y-113901206D01*
X118736231Y-113904807D01*
X118692691Y-113910335D01*
X118661321Y-113918196D01*
X118636738Y-113928793D01*
X118622706Y-113936818D01*
X118546612Y-114003272D01*
X118498916Y-114087530D01*
X118481801Y-114180751D01*
X118497454Y-114274100D01*
X118525582Y-114329688D01*
X118574240Y-114388043D01*
X118633667Y-114427814D01*
X118711493Y-114451810D01*
X118815348Y-114462839D01*
X118891538Y-114464401D01*
X118897014Y-114464191D01*
X118897014Y-114327692D01*
X118809645Y-114326859D01*
X118751808Y-114323039D01*
X118713971Y-114314254D01*
X118686602Y-114298526D01*
X118665958Y-114279734D01*
X118626110Y-114216625D01*
X118622705Y-114148863D01*
X118655975Y-114084821D01*
X118660483Y-114079836D01*
X118683933Y-114058561D01*
X118711834Y-114045221D01*
X118753359Y-114037999D01*
X118817684Y-114035077D01*
X118888800Y-114034615D01*
X118978142Y-114035617D01*
X119037742Y-114039762D01*
X119076911Y-114048764D01*
X119104960Y-114064333D01*
X119119856Y-114077098D01*
X119157425Y-114136400D01*
X119161943Y-114204699D01*
X119133247Y-114269890D01*
X119122594Y-114282472D01*
X119098937Y-114303889D01*
X119070749Y-114317256D01*
X119028755Y-114324434D01*
X118963681Y-114327281D01*
X118897014Y-114327692D01*
X118897014Y-114464191D01*
X119014235Y-114459678D01*
X119106423Y-114443638D01*
X119175731Y-114413472D01*
X119229789Y-114366371D01*
X119257495Y-114329688D01*
X119287428Y-114263010D01*
X119301322Y-114185728D01*
X119297603Y-114113890D01*
X119282600Y-114073692D01*
X119278330Y-114057918D01*
X119294250Y-114047450D01*
X119336911Y-114040144D01*
X119401894Y-114034615D01*
X119474268Y-114028563D01*
X119517813Y-114020156D01*
X119542713Y-114004859D01*
X119559155Y-113978136D01*
X119566436Y-113961346D01*
X119593037Y-113897846D01*
X119139711Y-113897919D01*
G36*
X119295330Y-114786638D02*
G01*
X119262579Y-114697883D01*
X119204650Y-114625978D01*
X119163872Y-114597856D01*
X119089046Y-114567198D01*
X119034942Y-114567835D01*
X118998554Y-114600013D01*
X118992367Y-114611919D01*
X118973075Y-114663325D01*
X118978018Y-114689578D01*
X119010413Y-114698470D01*
X119028308Y-114698923D01*
X119094141Y-114715203D01*
X119140193Y-114757635D01*
X119162436Y-114816612D01*
X119156839Y-114882525D01*
X119127771Y-114936105D01*
X119111190Y-114954202D01*
X119091075Y-114967029D01*
X119060668Y-114975694D01*
X119013212Y-114981304D01*
X118941950Y-114984965D01*
X118840125Y-114987785D01*
X118807885Y-114988516D01*
X118697590Y-114991180D01*
X118619964Y-114994208D01*
X118568604Y-114998750D01*
X118537110Y-115005954D01*
X118519080Y-115016967D01*
X118508112Y-115032940D01*
X118503267Y-115043166D01*
X118486699Y-115086594D01*
X118481231Y-115112158D01*
X118499493Y-115120605D01*
X118554704Y-115125761D01*
X118647501Y-115127654D01*
X118778522Y-115126311D01*
X118798731Y-115125893D01*
X118918267Y-115122942D01*
X119005551Y-115119452D01*
X119067409Y-115114486D01*
X119110664Y-115107107D01*
X119142140Y-115096376D01*
X119168661Y-115081355D01*
X119180025Y-115073498D01*
X119230308Y-115028447D01*
X119269419Y-114978060D01*
X119272833Y-114971892D01*
X119299788Y-114881542D01*
X119295330Y-114786638D01*
G37*
X119295330Y-114786638D02*
X119262579Y-114697883D01*
X119204650Y-114625978D01*
X119163872Y-114597856D01*
X119089046Y-114567198D01*
X119034942Y-114567835D01*
X118998554Y-114600013D01*
X118992367Y-114611919D01*
X118973075Y-114663325D01*
X118978018Y-114689578D01*
X119010413Y-114698470D01*
X119028308Y-114698923D01*
X119094141Y-114715203D01*
X119140193Y-114757635D01*
X119162436Y-114816612D01*
X119156839Y-114882525D01*
X119127771Y-114936105D01*
X119111190Y-114954202D01*
X119091075Y-114967029D01*
X119060668Y-114975694D01*
X119013212Y-114981304D01*
X118941950Y-114984965D01*
X118840125Y-114987785D01*
X118807885Y-114988516D01*
X118697590Y-114991180D01*
X118619964Y-114994208D01*
X118568604Y-114998750D01*
X118537110Y-115005954D01*
X118519080Y-115016967D01*
X118508112Y-115032940D01*
X118503267Y-115043166D01*
X118486699Y-115086594D01*
X118481231Y-115112158D01*
X118499493Y-115120605D01*
X118554704Y-115125761D01*
X118647501Y-115127654D01*
X118778522Y-115126311D01*
X118798731Y-115125893D01*
X118918267Y-115122942D01*
X119005551Y-115119452D01*
X119067409Y-115114486D01*
X119110664Y-115107107D01*
X119142140Y-115096376D01*
X119168661Y-115081355D01*
X119180025Y-115073498D01*
X119230308Y-115028447D01*
X119269419Y-114978060D01*
X119272833Y-114971892D01*
X119299788Y-114881542D01*
X119295330Y-114786638D01*
G36*
X119293697Y-115446499D02*
G01*
X119265267Y-115369940D01*
X119264721Y-115369064D01*
X119229873Y-115321715D01*
X119189148Y-115286759D01*
X119136075Y-115262175D01*
X119064186Y-115245938D01*
X118967008Y-115236025D01*
X118838072Y-115230414D01*
X118819702Y-115229923D01*
X118542713Y-115222859D01*
X118511972Y-115282305D01*
X118491198Y-115325319D01*
X118481354Y-115351290D01*
X118481231Y-115352491D01*
X118499394Y-115356986D01*
X118548388Y-115360556D01*
X118619969Y-115362752D01*
X118677932Y-115363231D01*
X118771830Y-115363242D01*
X118830797Y-115367534D01*
X118858921Y-115382497D01*
X118860294Y-115414518D01*
X118839002Y-115469986D01*
X118799864Y-115553731D01*
X118767357Y-115615311D01*
X118739155Y-115646983D01*
X118708418Y-115656294D01*
X118706896Y-115656308D01*
X118653946Y-115640943D01*
X118625340Y-115595453D01*
X118621197Y-115525834D01*
X118621916Y-115475687D01*
X118607473Y-115449246D01*
X118572782Y-115432757D01*
X118528584Y-115423267D01*
X118503507Y-115436943D01*
X118499918Y-115442093D01*
X118485504Y-115490575D01*
X118483463Y-115558469D01*
X118493017Y-115628388D01*
X118510478Y-115677932D01*
X118568636Y-115746430D01*
X118649592Y-115785366D01*
X118712840Y-115793077D01*
X118769889Y-115787193D01*
X118816458Y-115765899D01*
X118857819Y-115723735D01*
X118899245Y-115655241D01*
X118946007Y-115554956D01*
X118948650Y-115548846D01*
X118990383Y-115458510D01*
X119024609Y-115402765D01*
X119055365Y-115378871D01*
X119086689Y-115384087D01*
X119122617Y-115415672D01*
X119130884Y-115425117D01*
X119162942Y-115488383D01*
X119161593Y-115553936D01*
X119130162Y-115611028D01*
X119071976Y-115648907D01*
X119060554Y-115652426D01*
X119005163Y-115686700D01*
X118978482Y-115730191D01*
X118952040Y-115793077D01*
X119020452Y-115793077D01*
X119119890Y-115773948D01*
X119211098Y-115717169D01*
X119241611Y-115687622D01*
X119280772Y-115620458D01*
X119298500Y-115535044D01*
X119293697Y-115446499D01*
G37*
X119293697Y-115446499D02*
X119265267Y-115369940D01*
X119264721Y-115369064D01*
X119229873Y-115321715D01*
X119189148Y-115286759D01*
X119136075Y-115262175D01*
X119064186Y-115245938D01*
X118967008Y-115236025D01*
X118838072Y-115230414D01*
X118819702Y-115229923D01*
X118542713Y-115222859D01*
X118511972Y-115282305D01*
X118491198Y-115325319D01*
X118481354Y-115351290D01*
X118481231Y-115352491D01*
X118499394Y-115356986D01*
X118548388Y-115360556D01*
X118619969Y-115362752D01*
X118677932Y-115363231D01*
X118771830Y-115363242D01*
X118830797Y-115367534D01*
X118858921Y-115382497D01*
X118860294Y-115414518D01*
X118839002Y-115469986D01*
X118799864Y-115553731D01*
X118767357Y-115615311D01*
X118739155Y-115646983D01*
X118708418Y-115656294D01*
X118706896Y-115656308D01*
X118653946Y-115640943D01*
X118625340Y-115595453D01*
X118621197Y-115525834D01*
X118621916Y-115475687D01*
X118607473Y-115449246D01*
X118572782Y-115432757D01*
X118528584Y-115423267D01*
X118503507Y-115436943D01*
X118499918Y-115442093D01*
X118485504Y-115490575D01*
X118483463Y-115558469D01*
X118493017Y-115628388D01*
X118510478Y-115677932D01*
X118568636Y-115746430D01*
X118649592Y-115785366D01*
X118712840Y-115793077D01*
X118769889Y-115787193D01*
X118816458Y-115765899D01*
X118857819Y-115723735D01*
X118899245Y-115655241D01*
X118946007Y-115554956D01*
X118948650Y-115548846D01*
X118990383Y-115458510D01*
X119024609Y-115402765D01*
X119055365Y-115378871D01*
X119086689Y-115384087D01*
X119122617Y-115415672D01*
X119130884Y-115425117D01*
X119162942Y-115488383D01*
X119161593Y-115553936D01*
X119130162Y-115611028D01*
X119071976Y-115648907D01*
X119060554Y-115652426D01*
X119005163Y-115686700D01*
X118978482Y-115730191D01*
X118952040Y-115793077D01*
X119020452Y-115793077D01*
X119119890Y-115773948D01*
X119211098Y-115717169D01*
X119241611Y-115687622D01*
X119280772Y-115620458D01*
X119298500Y-115535044D01*
X119293697Y-115446499D01*
G36*
X119427880Y-116340154D02*
G01*
X119348020Y-116334428D01*
X119300961Y-116327851D01*
X119280434Y-116318738D01*
X119280171Y-116305402D01*
X119282622Y-116301077D01*
X119300364Y-116243556D01*
X119299328Y-116168732D01*
X119281090Y-116092661D01*
X119257495Y-116045082D01*
X119219802Y-115996298D01*
X119177145Y-115960636D01*
X119122943Y-115936155D01*
X119050616Y-115920913D01*
X118953581Y-115912970D01*
X118825258Y-115910384D01*
X118800642Y-115910338D01*
X118524130Y-115910308D01*
X118502680Y-115971839D01*
X118488088Y-116015541D01*
X118481294Y-116039518D01*
X118481231Y-116040223D01*
X118499655Y-116042585D01*
X118550474Y-116044594D01*
X118627007Y-116046099D01*
X118722570Y-116046947D01*
X118780671Y-116047077D01*
X118895229Y-116047349D01*
X118977333Y-116048748D01*
X119033607Y-116052151D01*
X119070674Y-116058433D01*
X119095156Y-116068471D01*
X119113675Y-116083139D01*
X119122594Y-116092298D01*
X119158534Y-116155211D01*
X119161225Y-116223864D01*
X119130830Y-116286152D01*
X119119856Y-116297671D01*
X119099221Y-116314567D01*
X119074744Y-116326286D01*
X119039353Y-116333767D01*
X118985974Y-116337946D01*
X118907534Y-116339763D01*
X118799383Y-116340154D01*
X118524130Y-116340154D01*
X118502680Y-116401685D01*
X118488088Y-116445387D01*
X118481294Y-116469364D01*
X118481231Y-116470070D01*
X118499931Y-116471874D01*
X118552678Y-116473500D01*
X118634443Y-116474883D01*
X118740195Y-116475958D01*
X118864906Y-116476660D01*
X119003545Y-116476923D01*
X119538194Y-116476923D01*
X119591764Y-116349923D01*
X119427880Y-116340154D01*
G37*
X119427880Y-116340154D02*
X119348020Y-116334428D01*
X119300961Y-116327851D01*
X119280434Y-116318738D01*
X119280171Y-116305402D01*
X119282622Y-116301077D01*
X119300364Y-116243556D01*
X119299328Y-116168732D01*
X119281090Y-116092661D01*
X119257495Y-116045082D01*
X119219802Y-115996298D01*
X119177145Y-115960636D01*
X119122943Y-115936155D01*
X119050616Y-115920913D01*
X118953581Y-115912970D01*
X118825258Y-115910384D01*
X118800642Y-115910338D01*
X118524130Y-115910308D01*
X118502680Y-115971839D01*
X118488088Y-116015541D01*
X118481294Y-116039518D01*
X118481231Y-116040223D01*
X118499655Y-116042585D01*
X118550474Y-116044594D01*
X118627007Y-116046099D01*
X118722570Y-116046947D01*
X118780671Y-116047077D01*
X118895229Y-116047349D01*
X118977333Y-116048748D01*
X119033607Y-116052151D01*
X119070674Y-116058433D01*
X119095156Y-116068471D01*
X119113675Y-116083139D01*
X119122594Y-116092298D01*
X119158534Y-116155211D01*
X119161225Y-116223864D01*
X119130830Y-116286152D01*
X119119856Y-116297671D01*
X119099221Y-116314567D01*
X119074744Y-116326286D01*
X119039353Y-116333767D01*
X118985974Y-116337946D01*
X118907534Y-116339763D01*
X118799383Y-116340154D01*
X118524130Y-116340154D01*
X118502680Y-116401685D01*
X118488088Y-116445387D01*
X118481294Y-116469364D01*
X118481231Y-116470070D01*
X118499931Y-116471874D01*
X118552678Y-116473500D01*
X118634443Y-116474883D01*
X118740195Y-116475958D01*
X118864906Y-116476660D01*
X119003545Y-116476923D01*
X119538194Y-116476923D01*
X119591764Y-116349923D01*
X119427880Y-116340154D01*
G36*
X119320255Y-117965746D02*
G01*
X119268433Y-117888714D01*
X119193588Y-117829184D01*
X119098346Y-117793622D01*
X119028244Y-117786429D01*
X118998991Y-117787246D01*
X118976593Y-117794086D01*
X118956526Y-117812888D01*
X118934267Y-117849592D01*
X118905291Y-117910138D01*
X118865073Y-118000466D01*
X118864871Y-118000923D01*
X118826790Y-118084067D01*
X118792975Y-118152247D01*
X118767067Y-118198495D01*
X118752705Y-118215842D01*
X118752589Y-118215846D01*
X118721315Y-118200557D01*
X118686843Y-118164804D01*
X118662010Y-118123758D01*
X118657077Y-118102963D01*
X118674138Y-118046230D01*
X118716867Y-117997373D01*
X118763845Y-117973535D01*
X118798478Y-117950603D01*
X118837919Y-117905682D01*
X118871991Y-117852877D01*
X118890520Y-117806290D01*
X118891538Y-117796548D01*
X118874785Y-117785582D01*
X118831961Y-117784921D01*
X118774219Y-117792980D01*
X118712711Y-117808173D01*
X118658591Y-117828914D01*
X118656490Y-117829962D01*
X118569340Y-117892379D01*
X118510061Y-117973274D01*
X118480966Y-118065144D01*
X118484366Y-118160487D01*
X118522572Y-118251802D01*
X118525259Y-118255862D01*
X118590358Y-118327694D01*
X118675295Y-118374927D01*
X118786979Y-118401066D01*
X118818357Y-118404574D01*
X118966464Y-118410787D01*
X119035532Y-118403339D01*
X119035532Y-118215846D01*
X118992448Y-118213410D01*
X118979874Y-118200086D01*
X118989281Y-118166868D01*
X119011517Y-118114506D01*
X119039390Y-118055976D01*
X119040128Y-118054521D01*
X119066223Y-118004911D01*
X119083637Y-117985000D01*
X119101893Y-117989910D01*
X119125880Y-118010584D01*
X119160594Y-118063181D01*
X119163144Y-118119823D01*
X119137881Y-118170631D01*
X119089153Y-118205724D01*
X119035532Y-118215846D01*
X119035532Y-118403339D01*
X119084964Y-118398008D01*
X119178945Y-118365222D01*
X119244785Y-118319579D01*
X119311319Y-118237198D01*
X119344324Y-118146454D01*
X119346427Y-118053815D01*
X119320255Y-117965746D01*
G37*
X119320255Y-117965746D02*
X119268433Y-117888714D01*
X119193588Y-117829184D01*
X119098346Y-117793622D01*
X119028244Y-117786429D01*
X118998991Y-117787246D01*
X118976593Y-117794086D01*
X118956526Y-117812888D01*
X118934267Y-117849592D01*
X118905291Y-117910138D01*
X118865073Y-118000466D01*
X118864871Y-118000923D01*
X118826790Y-118084067D01*
X118792975Y-118152247D01*
X118767067Y-118198495D01*
X118752705Y-118215842D01*
X118752589Y-118215846D01*
X118721315Y-118200557D01*
X118686843Y-118164804D01*
X118662010Y-118123758D01*
X118657077Y-118102963D01*
X118674138Y-118046230D01*
X118716867Y-117997373D01*
X118763845Y-117973535D01*
X118798478Y-117950603D01*
X118837919Y-117905682D01*
X118871991Y-117852877D01*
X118890520Y-117806290D01*
X118891538Y-117796548D01*
X118874785Y-117785582D01*
X118831961Y-117784921D01*
X118774219Y-117792980D01*
X118712711Y-117808173D01*
X118658591Y-117828914D01*
X118656490Y-117829962D01*
X118569340Y-117892379D01*
X118510061Y-117973274D01*
X118480966Y-118065144D01*
X118484366Y-118160487D01*
X118522572Y-118251802D01*
X118525259Y-118255862D01*
X118590358Y-118327694D01*
X118675295Y-118374927D01*
X118786979Y-118401066D01*
X118818357Y-118404574D01*
X118966464Y-118410787D01*
X119035532Y-118403339D01*
X119035532Y-118215846D01*
X118992448Y-118213410D01*
X118979874Y-118200086D01*
X118989281Y-118166868D01*
X119011517Y-118114506D01*
X119039390Y-118055976D01*
X119040128Y-118054521D01*
X119066223Y-118004911D01*
X119083637Y-117985000D01*
X119101893Y-117989910D01*
X119125880Y-118010584D01*
X119160594Y-118063181D01*
X119163144Y-118119823D01*
X119137881Y-118170631D01*
X119089153Y-118205724D01*
X119035532Y-118215846D01*
X119035532Y-118403339D01*
X119084964Y-118398008D01*
X119178945Y-118365222D01*
X119244785Y-118319579D01*
X119311319Y-118237198D01*
X119344324Y-118146454D01*
X119346427Y-118053815D01*
X119320255Y-117965746D01*
G36*
X119332744Y-119483114D02*
G01*
X119284591Y-119391536D01*
X119207095Y-119323951D01*
X119157273Y-119299943D01*
X119082467Y-119281262D01*
X118987948Y-119271699D01*
X118884790Y-119270792D01*
X118784065Y-119278079D01*
X118696847Y-119293097D01*
X118634209Y-119315385D01*
X118623421Y-119322235D01*
X118542895Y-119403368D01*
X118494664Y-119499734D01*
X118480550Y-119604299D01*
X118502371Y-119710032D01*
X118515453Y-119739457D01*
X118555769Y-119796759D01*
X118609225Y-119847050D01*
X118616005Y-119851803D01*
X118648679Y-119871122D01*
X118683606Y-119883892D01*
X118729586Y-119891436D01*
X118795416Y-119895076D01*
X118889895Y-119896135D01*
X118911077Y-119896154D01*
X118917818Y-119896106D01*
X118917818Y-119700769D01*
X118828651Y-119699632D01*
X118769480Y-119695159D01*
X118731259Y-119685754D01*
X118704947Y-119669824D01*
X118696154Y-119661692D01*
X118662739Y-119614942D01*
X118664263Y-119569553D01*
X118693248Y-119523660D01*
X118724191Y-119496288D01*
X118769357Y-119480077D01*
X118840580Y-119470974D01*
X118848886Y-119470349D01*
X118977963Y-119468796D01*
X119073828Y-119485035D01*
X119135893Y-119518848D01*
X119163568Y-119570016D01*
X119165077Y-119588280D01*
X119157487Y-119636240D01*
X119131192Y-119669047D01*
X119080905Y-119689105D01*
X119001336Y-119698822D01*
X118917818Y-119700769D01*
X118917818Y-119896106D01*
X119011751Y-119895426D01*
X119082094Y-119892371D01*
X119130837Y-119885678D01*
X119166712Y-119874040D01*
X119198452Y-119856147D01*
X119204352Y-119852192D01*
X119283896Y-119785733D01*
X119330071Y-119713315D01*
X119348401Y-119625151D01*
X119349297Y-119595213D01*
X119332744Y-119483114D01*
G37*
X119332744Y-119483114D02*
X119284591Y-119391536D01*
X119207095Y-119323951D01*
X119157273Y-119299943D01*
X119082467Y-119281262D01*
X118987948Y-119271699D01*
X118884790Y-119270792D01*
X118784065Y-119278079D01*
X118696847Y-119293097D01*
X118634209Y-119315385D01*
X118623421Y-119322235D01*
X118542895Y-119403368D01*
X118494664Y-119499734D01*
X118480550Y-119604299D01*
X118502371Y-119710032D01*
X118515453Y-119739457D01*
X118555769Y-119796759D01*
X118609225Y-119847050D01*
X118616005Y-119851803D01*
X118648679Y-119871122D01*
X118683606Y-119883892D01*
X118729586Y-119891436D01*
X118795416Y-119895076D01*
X118889895Y-119896135D01*
X118911077Y-119896154D01*
X118917818Y-119896106D01*
X118917818Y-119700769D01*
X118828651Y-119699632D01*
X118769480Y-119695159D01*
X118731259Y-119685754D01*
X118704947Y-119669824D01*
X118696154Y-119661692D01*
X118662739Y-119614942D01*
X118664263Y-119569553D01*
X118693248Y-119523660D01*
X118724191Y-119496288D01*
X118769357Y-119480077D01*
X118840580Y-119470974D01*
X118848886Y-119470349D01*
X118977963Y-119468796D01*
X119073828Y-119485035D01*
X119135893Y-119518848D01*
X119163568Y-119570016D01*
X119165077Y-119588280D01*
X119157487Y-119636240D01*
X119131192Y-119669047D01*
X119080905Y-119689105D01*
X119001336Y-119698822D01*
X118917818Y-119700769D01*
X118917818Y-119896106D01*
X119011751Y-119895426D01*
X119082094Y-119892371D01*
X119130837Y-119885678D01*
X119166712Y-119874040D01*
X119198452Y-119856147D01*
X119204352Y-119852192D01*
X119283896Y-119785733D01*
X119330071Y-119713315D01*
X119348401Y-119625151D01*
X119349297Y-119595213D01*
X119332744Y-119483114D01*
G36*
X119324911Y-117228336D02*
G01*
X119288642Y-117165633D01*
X119252642Y-117122039D01*
X119214925Y-117090155D01*
X119168801Y-117068190D01*
X119107579Y-117054351D01*
X119024569Y-117046847D01*
X118913081Y-117043883D01*
X118832938Y-117043539D01*
X118537935Y-117043539D01*
X118463485Y-117209615D01*
X118786598Y-117219385D01*
X118907271Y-117223421D01*
X118994859Y-117227656D01*
X119055350Y-117232903D01*
X119094732Y-117239975D01*
X119118993Y-117249689D01*
X119134120Y-117262856D01*
X119137394Y-117267081D01*
X119162966Y-117331091D01*
X119152847Y-117395792D01*
X119126000Y-117434308D01*
X119106976Y-117449975D01*
X119082012Y-117460820D01*
X119044166Y-117467712D01*
X118986498Y-117471521D01*
X118902065Y-117473117D01*
X118814072Y-117473385D01*
X118703677Y-117473437D01*
X118625537Y-117475328D01*
X118572835Y-117481655D01*
X118538758Y-117495017D01*
X118516489Y-117518015D01*
X118499213Y-117553246D01*
X118481262Y-117600303D01*
X118461722Y-117651697D01*
X118808515Y-117645579D01*
X118933532Y-117643116D01*
X119025918Y-117640233D01*
X119092119Y-117636102D01*
X119138580Y-117629893D01*
X119171744Y-117620774D01*
X119198056Y-117607917D01*
X119221271Y-117592416D01*
X119295431Y-117517629D01*
X119338316Y-117426372D01*
X119348588Y-117327117D01*
X119324911Y-117228336D01*
G37*
X119324911Y-117228336D02*
X119288642Y-117165633D01*
X119252642Y-117122039D01*
X119214925Y-117090155D01*
X119168801Y-117068190D01*
X119107579Y-117054351D01*
X119024569Y-117046847D01*
X118913081Y-117043883D01*
X118832938Y-117043539D01*
X118537935Y-117043539D01*
X118463485Y-117209615D01*
X118786598Y-117219385D01*
X118907271Y-117223421D01*
X118994859Y-117227656D01*
X119055350Y-117232903D01*
X119094732Y-117239975D01*
X119118993Y-117249689D01*
X119134120Y-117262856D01*
X119137394Y-117267081D01*
X119162966Y-117331091D01*
X119152847Y-117395792D01*
X119126000Y-117434308D01*
X119106976Y-117449975D01*
X119082012Y-117460820D01*
X119044166Y-117467712D01*
X118986498Y-117471521D01*
X118902065Y-117473117D01*
X118814072Y-117473385D01*
X118703677Y-117473437D01*
X118625537Y-117475328D01*
X118572835Y-117481655D01*
X118538758Y-117495017D01*
X118516489Y-117518015D01*
X118499213Y-117553246D01*
X118481262Y-117600303D01*
X118461722Y-117651697D01*
X118808515Y-117645579D01*
X118933532Y-117643116D01*
X119025918Y-117640233D01*
X119092119Y-117636102D01*
X119138580Y-117629893D01*
X119171744Y-117620774D01*
X119198056Y-117607917D01*
X119221271Y-117592416D01*
X119295431Y-117517629D01*
X119338316Y-117426372D01*
X119348588Y-117327117D01*
X119324911Y-117228336D01*
G36*
X119335495Y-118731114D02*
G01*
X119298273Y-118656461D01*
X119229739Y-118590569D01*
X119204352Y-118572423D01*
X119171134Y-118552655D01*
X119135055Y-118539828D01*
X119086902Y-118532490D01*
X119017464Y-118529187D01*
X118925794Y-118528462D01*
X118800170Y-118531737D01*
X118705846Y-118543123D01*
X118635477Y-118564959D01*
X118581714Y-118599581D01*
X118537212Y-118649330D01*
X118534577Y-118652986D01*
X118507623Y-118702015D01*
X118494288Y-118761055D01*
X118491000Y-118836141D01*
X118491000Y-118958205D01*
X118372503Y-118958256D01*
X118306508Y-118959392D01*
X118267798Y-118966314D01*
X118244581Y-118984402D01*
X118225067Y-119019038D01*
X118221080Y-119027355D01*
X118202397Y-119066280D01*
X118190597Y-119096417D01*
X118189578Y-119118826D01*
X118203239Y-119134567D01*
X118235478Y-119144698D01*
X118290196Y-119150277D01*
X118371289Y-119152365D01*
X118482656Y-119152019D01*
X118628198Y-119150300D01*
X118671731Y-119149763D01*
X118821795Y-119147828D01*
X118919958Y-119146096D01*
X118919958Y-118958308D01*
X118836636Y-118957252D01*
X118782120Y-118952562D01*
X118746163Y-118941949D01*
X118718518Y-118923128D01*
X118705035Y-118910350D01*
X118665583Y-118858110D01*
X118662372Y-118811858D01*
X118694951Y-118764133D01*
X118696154Y-118762923D01*
X118721332Y-118743506D01*
X118755553Y-118731693D01*
X118808252Y-118725735D01*
X118888869Y-118723880D01*
X118906729Y-118723846D01*
X119017825Y-118728330D01*
X119094839Y-118742926D01*
X119141853Y-118769350D01*
X119162950Y-118809317D01*
X119165077Y-118832416D01*
X119155100Y-118887238D01*
X119122248Y-118924842D01*
X119062143Y-118947477D01*
X118970402Y-118957394D01*
X118919958Y-118958308D01*
X118919958Y-119146096D01*
X118937940Y-119145778D01*
X119025321Y-119143127D01*
X119089095Y-119139394D01*
X119134418Y-119134093D01*
X119166445Y-119126742D01*
X119190332Y-119116857D01*
X119211236Y-119103954D01*
X119219102Y-119098421D01*
X119293405Y-119025031D01*
X119335533Y-118932240D01*
X119347278Y-118824904D01*
X119335495Y-118731114D01*
G37*
X119335495Y-118731114D02*
X119298273Y-118656461D01*
X119229739Y-118590569D01*
X119204352Y-118572423D01*
X119171134Y-118552655D01*
X119135055Y-118539828D01*
X119086902Y-118532490D01*
X119017464Y-118529187D01*
X118925794Y-118528462D01*
X118800170Y-118531737D01*
X118705846Y-118543123D01*
X118635477Y-118564959D01*
X118581714Y-118599581D01*
X118537212Y-118649330D01*
X118534577Y-118652986D01*
X118507623Y-118702015D01*
X118494288Y-118761055D01*
X118491000Y-118836141D01*
X118491000Y-118958205D01*
X118372503Y-118958256D01*
X118306508Y-118959392D01*
X118267798Y-118966314D01*
X118244581Y-118984402D01*
X118225067Y-119019038D01*
X118221080Y-119027355D01*
X118202397Y-119066280D01*
X118190597Y-119096417D01*
X118189578Y-119118826D01*
X118203239Y-119134567D01*
X118235478Y-119144698D01*
X118290196Y-119150277D01*
X118371289Y-119152365D01*
X118482656Y-119152019D01*
X118628198Y-119150300D01*
X118671731Y-119149763D01*
X118821795Y-119147828D01*
X118919958Y-119146096D01*
X118919958Y-118958308D01*
X118836636Y-118957252D01*
X118782120Y-118952562D01*
X118746163Y-118941949D01*
X118718518Y-118923128D01*
X118705035Y-118910350D01*
X118665583Y-118858110D01*
X118662372Y-118811858D01*
X118694951Y-118764133D01*
X118696154Y-118762923D01*
X118721332Y-118743506D01*
X118755553Y-118731693D01*
X118808252Y-118725735D01*
X118888869Y-118723880D01*
X118906729Y-118723846D01*
X119017825Y-118728330D01*
X119094839Y-118742926D01*
X119141853Y-118769350D01*
X119162950Y-118809317D01*
X119165077Y-118832416D01*
X119155100Y-118887238D01*
X119122248Y-118924842D01*
X119062143Y-118947477D01*
X118970402Y-118957394D01*
X118919958Y-118958308D01*
X118919958Y-119146096D01*
X118937940Y-119145778D01*
X119025321Y-119143127D01*
X119089095Y-119139394D01*
X119134418Y-119134093D01*
X119166445Y-119126742D01*
X119190332Y-119116857D01*
X119211236Y-119103954D01*
X119219102Y-119098421D01*
X119293405Y-119025031D01*
X119335533Y-118932240D01*
X119347278Y-118824904D01*
X119335495Y-118731114D01*
D12*
X114070000Y-80740000D02*
X114400000Y-80740000D01*
X114400000Y-80740000D02*
X114400000Y-74200000D01*
X114400000Y-74200000D02*
X114070000Y-74200000D01*
X111990000Y-80740000D02*
X111660000Y-80740000D01*
X111660000Y-80740000D02*
X111660000Y-74200000D01*
X111660000Y-74200000D02*
X111990000Y-74200000D01*
X121820000Y-74200000D02*
X122150000Y-74200000D01*
X121820000Y-80740000D02*
X121820000Y-74200000D01*
X122150000Y-80740000D02*
X121820000Y-80740000D01*
X124560000Y-74200000D02*
X124230000Y-74200000D01*
X124560000Y-80740000D02*
X124560000Y-74200000D01*
X124230000Y-80740000D02*
X124560000Y-80740000D01*
X134390000Y-80740000D02*
X134720000Y-80740000D01*
X134720000Y-80740000D02*
X134720000Y-74200000D01*
X134720000Y-74200000D02*
X134390000Y-74200000D01*
X132310000Y-80740000D02*
X131980000Y-80740000D01*
X131980000Y-80740000D02*
X131980000Y-74200000D01*
X131980000Y-74200000D02*
X132310000Y-74200000D01*
D10*
X113482380Y-77303333D02*
X113006190Y-76970000D01*
X113482380Y-76731904D02*
X112482380Y-76731904D01*
X112482380Y-77112857D01*
X112530000Y-77208095D01*
X112577619Y-77255714D01*
X112672857Y-77303333D01*
X112815714Y-77303333D01*
X112910952Y-77255714D01*
X112958571Y-77208095D01*
X113006190Y-77112857D01*
X113006190Y-76731904D01*
X113482380Y-78255714D02*
X113482380Y-77684285D01*
X113482380Y-77970000D02*
X112482380Y-77970000D01*
X112625238Y-77874761D01*
X112720476Y-77779523D01*
X112768095Y-77684285D01*
X123642380Y-77303333D02*
X123166190Y-76970000D01*
X123642380Y-76731904D02*
X122642380Y-76731904D01*
X122642380Y-77112857D01*
X122690000Y-77208095D01*
X122737619Y-77255714D01*
X122832857Y-77303333D01*
X122975714Y-77303333D01*
X123070952Y-77255714D01*
X123118571Y-77208095D01*
X123166190Y-77112857D01*
X123166190Y-76731904D01*
X122737619Y-77684285D02*
X122690000Y-77731904D01*
X122642380Y-77827142D01*
X122642380Y-78065238D01*
X122690000Y-78160476D01*
X122737619Y-78208095D01*
X122832857Y-78255714D01*
X122928095Y-78255714D01*
X123070952Y-78208095D01*
X123642380Y-77636666D01*
X123642380Y-78255714D01*
X133802380Y-77303333D02*
X133326190Y-76970000D01*
X133802380Y-76731904D02*
X132802380Y-76731904D01*
X132802380Y-77112857D01*
X132850000Y-77208095D01*
X132897619Y-77255714D01*
X132992857Y-77303333D01*
X133135714Y-77303333D01*
X133230952Y-77255714D01*
X133278571Y-77208095D01*
X133326190Y-77112857D01*
X133326190Y-76731904D01*
X132802380Y-77636666D02*
X132802380Y-78255714D01*
X133183333Y-77922380D01*
X133183333Y-78065238D01*
X133230952Y-78160476D01*
X133278571Y-78208095D01*
X133373809Y-78255714D01*
X133611904Y-78255714D01*
X133707142Y-78208095D01*
X133754761Y-78160476D01*
X133802380Y-78065238D01*
X133802380Y-77779523D01*
X133754761Y-77684285D01*
X133707142Y-77636666D01*
M02*
