G04 #@! TF.GenerationSoftware,KiCad,Pcbnew,5.1.5-52549c5~84~ubuntu18.04.1*
G04 #@! TF.CreationDate,2020-01-02T13:16:35+00:00*
G04 #@! TF.ProjectId,receiver,72656365-6976-4657-922e-6b696361645f,rev?*
G04 #@! TF.SameCoordinates,Original*
G04 #@! TF.FileFunction,Soldermask,Bot*
G04 #@! TF.FilePolarity,Negative*
%FSLAX46Y46*%
G04 Gerber Fmt 4.6, Leading zero omitted, Abs format (unit mm)*
G04 Created by KiCad (PCBNEW 5.1.5-52549c5~84~ubuntu18.04.1) date 2020-01-02 13:16:35*
%MOMM*%
%LPD*%
G04 APERTURE LIST*
%ADD10C,0.100000*%
G04 APERTURE END LIST*
D10*
G36*
X131189393Y-123209304D02*
G01*
X131426101Y-123307352D01*
X131426103Y-123307353D01*
X131639135Y-123449696D01*
X131820304Y-123630865D01*
X131962647Y-123843897D01*
X131962648Y-123843899D01*
X132060696Y-124080607D01*
X132110680Y-124331893D01*
X132110680Y-124588107D01*
X132060696Y-124839393D01*
X131962648Y-125076101D01*
X131962647Y-125076103D01*
X131820304Y-125289135D01*
X131639135Y-125470304D01*
X131426103Y-125612647D01*
X131426102Y-125612648D01*
X131426101Y-125612648D01*
X131189393Y-125710696D01*
X130938107Y-125760680D01*
X130681893Y-125760680D01*
X130430607Y-125710696D01*
X130193899Y-125612648D01*
X130193898Y-125612648D01*
X130193897Y-125612647D01*
X129980865Y-125470304D01*
X129799696Y-125289135D01*
X129657353Y-125076103D01*
X129657352Y-125076101D01*
X129559304Y-124839393D01*
X129509320Y-124588107D01*
X129509320Y-124331893D01*
X129559304Y-124080607D01*
X129657352Y-123843899D01*
X129657353Y-123843897D01*
X129799696Y-123630865D01*
X129980865Y-123449696D01*
X130193897Y-123307353D01*
X130193899Y-123307352D01*
X130430607Y-123209304D01*
X130681893Y-123159320D01*
X130938107Y-123159320D01*
X131189393Y-123209304D01*
G37*
G36*
X128300680Y-125760680D02*
G01*
X125699320Y-125760680D01*
X125699320Y-123159320D01*
X128300680Y-123159320D01*
X128300680Y-125760680D01*
G37*
G36*
X112139393Y-123209304D02*
G01*
X112376101Y-123307352D01*
X112376103Y-123307353D01*
X112589135Y-123449696D01*
X112770304Y-123630865D01*
X112912647Y-123843897D01*
X112912648Y-123843899D01*
X113010696Y-124080607D01*
X113060680Y-124331893D01*
X113060680Y-124588107D01*
X113010696Y-124839393D01*
X112912648Y-125076101D01*
X112912647Y-125076103D01*
X112770304Y-125289135D01*
X112589135Y-125470304D01*
X112376103Y-125612647D01*
X112376102Y-125612648D01*
X112376101Y-125612648D01*
X112139393Y-125710696D01*
X111888107Y-125760680D01*
X111631893Y-125760680D01*
X111380607Y-125710696D01*
X111143899Y-125612648D01*
X111143898Y-125612648D01*
X111143897Y-125612647D01*
X110930865Y-125470304D01*
X110749696Y-125289135D01*
X110607353Y-125076103D01*
X110607352Y-125076101D01*
X110509304Y-124839393D01*
X110459320Y-124588107D01*
X110459320Y-124331893D01*
X110509304Y-124080607D01*
X110607352Y-123843899D01*
X110607353Y-123843897D01*
X110749696Y-123630865D01*
X110930865Y-123449696D01*
X111143897Y-123307353D01*
X111143899Y-123307352D01*
X111380607Y-123209304D01*
X111631893Y-123159320D01*
X111888107Y-123159320D01*
X112139393Y-123209304D01*
G37*
G36*
X109250680Y-125760680D02*
G01*
X106649320Y-125760680D01*
X106649320Y-123159320D01*
X109250680Y-123159320D01*
X109250680Y-125760680D01*
G37*
G36*
X122153642Y-123689781D02*
G01*
X122299414Y-123750162D01*
X122299416Y-123750163D01*
X122430608Y-123837822D01*
X122542178Y-123949392D01*
X122629837Y-124080584D01*
X122629838Y-124080586D01*
X122690219Y-124226358D01*
X122721000Y-124381107D01*
X122721000Y-124538893D01*
X122690219Y-124693642D01*
X122629847Y-124839393D01*
X122629837Y-124839416D01*
X122542178Y-124970608D01*
X122430608Y-125082178D01*
X122299416Y-125169837D01*
X122299415Y-125169838D01*
X122299414Y-125169838D01*
X122153642Y-125230219D01*
X121998893Y-125261000D01*
X121841107Y-125261000D01*
X121686358Y-125230219D01*
X121540586Y-125169838D01*
X121540585Y-125169838D01*
X121540584Y-125169837D01*
X121409392Y-125082178D01*
X121297822Y-124970608D01*
X121210163Y-124839416D01*
X121210153Y-124839393D01*
X121149781Y-124693642D01*
X121119000Y-124538893D01*
X121119000Y-124381107D01*
X121149781Y-124226358D01*
X121210162Y-124080586D01*
X121210163Y-124080584D01*
X121297822Y-123949392D01*
X121409392Y-123837822D01*
X121540584Y-123750163D01*
X121540586Y-123750162D01*
X121686358Y-123689781D01*
X121841107Y-123659000D01*
X121998893Y-123659000D01*
X122153642Y-123689781D01*
G37*
G36*
X117253642Y-123689781D02*
G01*
X117399414Y-123750162D01*
X117399416Y-123750163D01*
X117530608Y-123837822D01*
X117642178Y-123949392D01*
X117729837Y-124080584D01*
X117729838Y-124080586D01*
X117790219Y-124226358D01*
X117821000Y-124381107D01*
X117821000Y-124538893D01*
X117790219Y-124693642D01*
X117729847Y-124839393D01*
X117729837Y-124839416D01*
X117642178Y-124970608D01*
X117530608Y-125082178D01*
X117399416Y-125169837D01*
X117399415Y-125169838D01*
X117399414Y-125169838D01*
X117253642Y-125230219D01*
X117098893Y-125261000D01*
X116941107Y-125261000D01*
X116786358Y-125230219D01*
X116640586Y-125169838D01*
X116640585Y-125169838D01*
X116640584Y-125169837D01*
X116509392Y-125082178D01*
X116397822Y-124970608D01*
X116310163Y-124839416D01*
X116310153Y-124839393D01*
X116249781Y-124693642D01*
X116219000Y-124538893D01*
X116219000Y-124381107D01*
X116249781Y-124226358D01*
X116310162Y-124080586D01*
X116310163Y-124080584D01*
X116397822Y-123949392D01*
X116509392Y-123837822D01*
X116640584Y-123750163D01*
X116640586Y-123750162D01*
X116786358Y-123689781D01*
X116941107Y-123659000D01*
X117098893Y-123659000D01*
X117253642Y-123689781D01*
G37*
G36*
X108198228Y-119831703D02*
G01*
X108353100Y-119895853D01*
X108492481Y-119988985D01*
X108611015Y-120107519D01*
X108704147Y-120246900D01*
X108768297Y-120401772D01*
X108801000Y-120566184D01*
X108801000Y-120733816D01*
X108768297Y-120898228D01*
X108704147Y-121053100D01*
X108611015Y-121192481D01*
X108492481Y-121311015D01*
X108353100Y-121404147D01*
X108198228Y-121468297D01*
X108033816Y-121501000D01*
X107866184Y-121501000D01*
X107701772Y-121468297D01*
X107546900Y-121404147D01*
X107407519Y-121311015D01*
X107288985Y-121192481D01*
X107195853Y-121053100D01*
X107131703Y-120898228D01*
X107099000Y-120733816D01*
X107099000Y-120566184D01*
X107131703Y-120401772D01*
X107195853Y-120246900D01*
X107288985Y-120107519D01*
X107407519Y-119988985D01*
X107546900Y-119895853D01*
X107701772Y-119831703D01*
X107866184Y-119799000D01*
X108033816Y-119799000D01*
X108198228Y-119831703D01*
G37*
G36*
X116421000Y-121501000D02*
G01*
X114719000Y-121501000D01*
X114719000Y-119799000D01*
X116421000Y-119799000D01*
X116421000Y-121501000D01*
G37*
G36*
X128300680Y-120680680D02*
G01*
X125699320Y-120680680D01*
X125699320Y-118079320D01*
X128300680Y-118079320D01*
X128300680Y-120680680D01*
G37*
G36*
X131189393Y-118129304D02*
G01*
X131426101Y-118227352D01*
X131426103Y-118227353D01*
X131639135Y-118369696D01*
X131820304Y-118550865D01*
X131888201Y-118652481D01*
X131962648Y-118763899D01*
X132060696Y-119000607D01*
X132110680Y-119251893D01*
X132110680Y-119508107D01*
X132060696Y-119759393D01*
X131962648Y-119996101D01*
X131962647Y-119996103D01*
X131820304Y-120209135D01*
X131639135Y-120390304D01*
X131426103Y-120532647D01*
X131426102Y-120532648D01*
X131426101Y-120532648D01*
X131189393Y-120630696D01*
X130938107Y-120680680D01*
X130681893Y-120680680D01*
X130430607Y-120630696D01*
X130193899Y-120532648D01*
X130193898Y-120532648D01*
X130193897Y-120532647D01*
X129980865Y-120390304D01*
X129799696Y-120209135D01*
X129657353Y-119996103D01*
X129657352Y-119996101D01*
X129559304Y-119759393D01*
X129509320Y-119508107D01*
X129509320Y-119251893D01*
X129559304Y-119000607D01*
X129657352Y-118763899D01*
X129731799Y-118652481D01*
X129799696Y-118550865D01*
X129980865Y-118369696D01*
X130193897Y-118227353D01*
X130193899Y-118227352D01*
X130430607Y-118129304D01*
X130681893Y-118079320D01*
X130938107Y-118079320D01*
X131189393Y-118129304D01*
G37*
G36*
X108198228Y-117291703D02*
G01*
X108353100Y-117355853D01*
X108492481Y-117448985D01*
X108611015Y-117567519D01*
X108704147Y-117706900D01*
X108768297Y-117861772D01*
X108801000Y-118026184D01*
X108801000Y-118193816D01*
X108768297Y-118358228D01*
X108704147Y-118513100D01*
X108611015Y-118652481D01*
X108492481Y-118771015D01*
X108353100Y-118864147D01*
X108198228Y-118928297D01*
X108033816Y-118961000D01*
X107866184Y-118961000D01*
X107701772Y-118928297D01*
X107546900Y-118864147D01*
X107407519Y-118771015D01*
X107288985Y-118652481D01*
X107195853Y-118513100D01*
X107131703Y-118358228D01*
X107099000Y-118193816D01*
X107099000Y-118026184D01*
X107131703Y-117861772D01*
X107195853Y-117706900D01*
X107288985Y-117567519D01*
X107407519Y-117448985D01*
X107546900Y-117355853D01*
X107701772Y-117291703D01*
X107866184Y-117259000D01*
X108033816Y-117259000D01*
X108198228Y-117291703D01*
G37*
G36*
X115818228Y-117291703D02*
G01*
X115973100Y-117355853D01*
X116112481Y-117448985D01*
X116231015Y-117567519D01*
X116324147Y-117706900D01*
X116388297Y-117861772D01*
X116421000Y-118026184D01*
X116421000Y-118193816D01*
X116388297Y-118358228D01*
X116324147Y-118513100D01*
X116231015Y-118652481D01*
X116112481Y-118771015D01*
X115973100Y-118864147D01*
X115818228Y-118928297D01*
X115653816Y-118961000D01*
X115486184Y-118961000D01*
X115321772Y-118928297D01*
X115166900Y-118864147D01*
X115027519Y-118771015D01*
X114908985Y-118652481D01*
X114815853Y-118513100D01*
X114751703Y-118358228D01*
X114719000Y-118193816D01*
X114719000Y-118026184D01*
X114751703Y-117861772D01*
X114815853Y-117706900D01*
X114908985Y-117567519D01*
X115027519Y-117448985D01*
X115166900Y-117355853D01*
X115321772Y-117291703D01*
X115486184Y-117259000D01*
X115653816Y-117259000D01*
X115818228Y-117291703D01*
G37*
G36*
X115818228Y-114751703D02*
G01*
X115973100Y-114815853D01*
X116112481Y-114908985D01*
X116231015Y-115027519D01*
X116324147Y-115166900D01*
X116388297Y-115321772D01*
X116421000Y-115486184D01*
X116421000Y-115653816D01*
X116388297Y-115818228D01*
X116324147Y-115973100D01*
X116231015Y-116112481D01*
X116112481Y-116231015D01*
X115973100Y-116324147D01*
X115818228Y-116388297D01*
X115653816Y-116421000D01*
X115486184Y-116421000D01*
X115321772Y-116388297D01*
X115166900Y-116324147D01*
X115027519Y-116231015D01*
X114908985Y-116112481D01*
X114815853Y-115973100D01*
X114751703Y-115818228D01*
X114719000Y-115653816D01*
X114719000Y-115486184D01*
X114751703Y-115321772D01*
X114815853Y-115166900D01*
X114908985Y-115027519D01*
X115027519Y-114908985D01*
X115166900Y-114815853D01*
X115321772Y-114751703D01*
X115486184Y-114719000D01*
X115653816Y-114719000D01*
X115818228Y-114751703D01*
G37*
G36*
X108198228Y-114751703D02*
G01*
X108353100Y-114815853D01*
X108492481Y-114908985D01*
X108611015Y-115027519D01*
X108704147Y-115166900D01*
X108768297Y-115321772D01*
X108801000Y-115486184D01*
X108801000Y-115653816D01*
X108768297Y-115818228D01*
X108704147Y-115973100D01*
X108611015Y-116112481D01*
X108492481Y-116231015D01*
X108353100Y-116324147D01*
X108198228Y-116388297D01*
X108033816Y-116421000D01*
X107866184Y-116421000D01*
X107701772Y-116388297D01*
X107546900Y-116324147D01*
X107407519Y-116231015D01*
X107288985Y-116112481D01*
X107195853Y-115973100D01*
X107131703Y-115818228D01*
X107099000Y-115653816D01*
X107099000Y-115486184D01*
X107131703Y-115321772D01*
X107195853Y-115166900D01*
X107288985Y-115027519D01*
X107407519Y-114908985D01*
X107546900Y-114815853D01*
X107701772Y-114751703D01*
X107866184Y-114719000D01*
X108033816Y-114719000D01*
X108198228Y-114751703D01*
G37*
G36*
X115818228Y-112211703D02*
G01*
X115973100Y-112275853D01*
X116112481Y-112368985D01*
X116231015Y-112487519D01*
X116324147Y-112626900D01*
X116388297Y-112781772D01*
X116421000Y-112946184D01*
X116421000Y-113113816D01*
X116388297Y-113278228D01*
X116324147Y-113433100D01*
X116231015Y-113572481D01*
X116112481Y-113691015D01*
X115973100Y-113784147D01*
X115818228Y-113848297D01*
X115653816Y-113881000D01*
X115486184Y-113881000D01*
X115321772Y-113848297D01*
X115166900Y-113784147D01*
X115027519Y-113691015D01*
X114908985Y-113572481D01*
X114815853Y-113433100D01*
X114751703Y-113278228D01*
X114719000Y-113113816D01*
X114719000Y-112946184D01*
X114751703Y-112781772D01*
X114815853Y-112626900D01*
X114908985Y-112487519D01*
X115027519Y-112368985D01*
X115166900Y-112275853D01*
X115321772Y-112211703D01*
X115486184Y-112179000D01*
X115653816Y-112179000D01*
X115818228Y-112211703D01*
G37*
G36*
X108198228Y-112211703D02*
G01*
X108353100Y-112275853D01*
X108492481Y-112368985D01*
X108611015Y-112487519D01*
X108704147Y-112626900D01*
X108768297Y-112781772D01*
X108801000Y-112946184D01*
X108801000Y-113113816D01*
X108768297Y-113278228D01*
X108704147Y-113433100D01*
X108611015Y-113572481D01*
X108492481Y-113691015D01*
X108353100Y-113784147D01*
X108198228Y-113848297D01*
X108033816Y-113881000D01*
X107866184Y-113881000D01*
X107701772Y-113848297D01*
X107546900Y-113784147D01*
X107407519Y-113691015D01*
X107288985Y-113572481D01*
X107195853Y-113433100D01*
X107131703Y-113278228D01*
X107099000Y-113113816D01*
X107099000Y-112946184D01*
X107131703Y-112781772D01*
X107195853Y-112626900D01*
X107288985Y-112487519D01*
X107407519Y-112368985D01*
X107546900Y-112275853D01*
X107701772Y-112211703D01*
X107866184Y-112179000D01*
X108033816Y-112179000D01*
X108198228Y-112211703D01*
G37*
G36*
X115818228Y-109671703D02*
G01*
X115973100Y-109735853D01*
X116112481Y-109828985D01*
X116231015Y-109947519D01*
X116324147Y-110086900D01*
X116388297Y-110241772D01*
X116421000Y-110406184D01*
X116421000Y-110573816D01*
X116388297Y-110738228D01*
X116324147Y-110893100D01*
X116231015Y-111032481D01*
X116112481Y-111151015D01*
X115973100Y-111244147D01*
X115818228Y-111308297D01*
X115653816Y-111341000D01*
X115486184Y-111341000D01*
X115321772Y-111308297D01*
X115166900Y-111244147D01*
X115027519Y-111151015D01*
X114908985Y-111032481D01*
X114815853Y-110893100D01*
X114751703Y-110738228D01*
X114719000Y-110573816D01*
X114719000Y-110406184D01*
X114751703Y-110241772D01*
X114815853Y-110086900D01*
X114908985Y-109947519D01*
X115027519Y-109828985D01*
X115166900Y-109735853D01*
X115321772Y-109671703D01*
X115486184Y-109639000D01*
X115653816Y-109639000D01*
X115818228Y-109671703D01*
G37*
G36*
X108198228Y-109671703D02*
G01*
X108353100Y-109735853D01*
X108492481Y-109828985D01*
X108611015Y-109947519D01*
X108704147Y-110086900D01*
X108768297Y-110241772D01*
X108801000Y-110406184D01*
X108801000Y-110573816D01*
X108768297Y-110738228D01*
X108704147Y-110893100D01*
X108611015Y-111032481D01*
X108492481Y-111151015D01*
X108353100Y-111244147D01*
X108198228Y-111308297D01*
X108033816Y-111341000D01*
X107866184Y-111341000D01*
X107701772Y-111308297D01*
X107546900Y-111244147D01*
X107407519Y-111151015D01*
X107288985Y-111032481D01*
X107195853Y-110893100D01*
X107131703Y-110738228D01*
X107099000Y-110573816D01*
X107099000Y-110406184D01*
X107131703Y-110241772D01*
X107195853Y-110086900D01*
X107288985Y-109947519D01*
X107407519Y-109828985D01*
X107546900Y-109735853D01*
X107701772Y-109671703D01*
X107866184Y-109639000D01*
X108033816Y-109639000D01*
X108198228Y-109671703D01*
G37*
G36*
X115818228Y-107131703D02*
G01*
X115973100Y-107195853D01*
X116112481Y-107288985D01*
X116231015Y-107407519D01*
X116324147Y-107546900D01*
X116388297Y-107701772D01*
X116421000Y-107866184D01*
X116421000Y-108033816D01*
X116388297Y-108198228D01*
X116324147Y-108353100D01*
X116231015Y-108492481D01*
X116112481Y-108611015D01*
X115973100Y-108704147D01*
X115818228Y-108768297D01*
X115653816Y-108801000D01*
X115486184Y-108801000D01*
X115321772Y-108768297D01*
X115166900Y-108704147D01*
X115027519Y-108611015D01*
X114908985Y-108492481D01*
X114815853Y-108353100D01*
X114751703Y-108198228D01*
X114719000Y-108033816D01*
X114719000Y-107866184D01*
X114751703Y-107701772D01*
X114815853Y-107546900D01*
X114908985Y-107407519D01*
X115027519Y-107288985D01*
X115166900Y-107195853D01*
X115321772Y-107131703D01*
X115486184Y-107099000D01*
X115653816Y-107099000D01*
X115818228Y-107131703D01*
G37*
G36*
X122128228Y-107131703D02*
G01*
X122283100Y-107195853D01*
X122422481Y-107288985D01*
X122541015Y-107407519D01*
X122634147Y-107546900D01*
X122698297Y-107701772D01*
X122731000Y-107866184D01*
X122731000Y-108033816D01*
X122698297Y-108198228D01*
X122634147Y-108353100D01*
X122541015Y-108492481D01*
X122422481Y-108611015D01*
X122283100Y-108704147D01*
X122128228Y-108768297D01*
X121963816Y-108801000D01*
X121796184Y-108801000D01*
X121631772Y-108768297D01*
X121476900Y-108704147D01*
X121337519Y-108611015D01*
X121218985Y-108492481D01*
X121125853Y-108353100D01*
X121061703Y-108198228D01*
X121029000Y-108033816D01*
X121029000Y-107866184D01*
X121061703Y-107701772D01*
X121125853Y-107546900D01*
X121218985Y-107407519D01*
X121337519Y-107288985D01*
X121476900Y-107195853D01*
X121631772Y-107131703D01*
X121796184Y-107099000D01*
X121963816Y-107099000D01*
X122128228Y-107131703D01*
G37*
G36*
X119628228Y-107131703D02*
G01*
X119783100Y-107195853D01*
X119922481Y-107288985D01*
X120041015Y-107407519D01*
X120134147Y-107546900D01*
X120198297Y-107701772D01*
X120231000Y-107866184D01*
X120231000Y-108033816D01*
X120198297Y-108198228D01*
X120134147Y-108353100D01*
X120041015Y-108492481D01*
X119922481Y-108611015D01*
X119783100Y-108704147D01*
X119628228Y-108768297D01*
X119463816Y-108801000D01*
X119296184Y-108801000D01*
X119131772Y-108768297D01*
X118976900Y-108704147D01*
X118837519Y-108611015D01*
X118718985Y-108492481D01*
X118625853Y-108353100D01*
X118561703Y-108198228D01*
X118529000Y-108033816D01*
X118529000Y-107866184D01*
X118561703Y-107701772D01*
X118625853Y-107546900D01*
X118718985Y-107407519D01*
X118837519Y-107288985D01*
X118976900Y-107195853D01*
X119131772Y-107131703D01*
X119296184Y-107099000D01*
X119463816Y-107099000D01*
X119628228Y-107131703D01*
G37*
G36*
X108198228Y-107131703D02*
G01*
X108353100Y-107195853D01*
X108492481Y-107288985D01*
X108611015Y-107407519D01*
X108704147Y-107546900D01*
X108768297Y-107701772D01*
X108801000Y-107866184D01*
X108801000Y-108033816D01*
X108768297Y-108198228D01*
X108704147Y-108353100D01*
X108611015Y-108492481D01*
X108492481Y-108611015D01*
X108353100Y-108704147D01*
X108198228Y-108768297D01*
X108033816Y-108801000D01*
X107866184Y-108801000D01*
X107701772Y-108768297D01*
X107546900Y-108704147D01*
X107407519Y-108611015D01*
X107288985Y-108492481D01*
X107195853Y-108353100D01*
X107131703Y-108198228D01*
X107099000Y-108033816D01*
X107099000Y-107866184D01*
X107131703Y-107701772D01*
X107195853Y-107546900D01*
X107288985Y-107407519D01*
X107407519Y-107288985D01*
X107546900Y-107195853D01*
X107701772Y-107131703D01*
X107866184Y-107099000D01*
X108033816Y-107099000D01*
X108198228Y-107131703D01*
G37*
G36*
X115818228Y-104591703D02*
G01*
X115973100Y-104655853D01*
X116112481Y-104748985D01*
X116231015Y-104867519D01*
X116324147Y-105006900D01*
X116388297Y-105161772D01*
X116421000Y-105326184D01*
X116421000Y-105493816D01*
X116388297Y-105658228D01*
X116324147Y-105813100D01*
X116231015Y-105952481D01*
X116112481Y-106071015D01*
X115973100Y-106164147D01*
X115818228Y-106228297D01*
X115653816Y-106261000D01*
X115486184Y-106261000D01*
X115321772Y-106228297D01*
X115166900Y-106164147D01*
X115027519Y-106071015D01*
X114908985Y-105952481D01*
X114815853Y-105813100D01*
X114751703Y-105658228D01*
X114719000Y-105493816D01*
X114719000Y-105326184D01*
X114751703Y-105161772D01*
X114815853Y-105006900D01*
X114908985Y-104867519D01*
X115027519Y-104748985D01*
X115166900Y-104655853D01*
X115321772Y-104591703D01*
X115486184Y-104559000D01*
X115653816Y-104559000D01*
X115818228Y-104591703D01*
G37*
G36*
X108198228Y-104591703D02*
G01*
X108353100Y-104655853D01*
X108492481Y-104748985D01*
X108611015Y-104867519D01*
X108704147Y-105006900D01*
X108768297Y-105161772D01*
X108801000Y-105326184D01*
X108801000Y-105493816D01*
X108768297Y-105658228D01*
X108704147Y-105813100D01*
X108611015Y-105952481D01*
X108492481Y-106071015D01*
X108353100Y-106164147D01*
X108198228Y-106228297D01*
X108033816Y-106261000D01*
X107866184Y-106261000D01*
X107701772Y-106228297D01*
X107546900Y-106164147D01*
X107407519Y-106071015D01*
X107288985Y-105952481D01*
X107195853Y-105813100D01*
X107131703Y-105658228D01*
X107099000Y-105493816D01*
X107099000Y-105326184D01*
X107131703Y-105161772D01*
X107195853Y-105006900D01*
X107288985Y-104867519D01*
X107407519Y-104748985D01*
X107546900Y-104655853D01*
X107701772Y-104591703D01*
X107866184Y-104559000D01*
X108033816Y-104559000D01*
X108198228Y-104591703D01*
G37*
G36*
X127208228Y-102051703D02*
G01*
X127363100Y-102115853D01*
X127502481Y-102208985D01*
X127621015Y-102327519D01*
X127714147Y-102466900D01*
X127778297Y-102621772D01*
X127811000Y-102786184D01*
X127811000Y-102953816D01*
X127778297Y-103118228D01*
X127714147Y-103273100D01*
X127621015Y-103412481D01*
X127502481Y-103531015D01*
X127363100Y-103624147D01*
X127208228Y-103688297D01*
X127043816Y-103721000D01*
X126876184Y-103721000D01*
X126711772Y-103688297D01*
X126556900Y-103624147D01*
X126417519Y-103531015D01*
X126298985Y-103412481D01*
X126205853Y-103273100D01*
X126141703Y-103118228D01*
X126109000Y-102953816D01*
X126109000Y-102786184D01*
X126141703Y-102621772D01*
X126205853Y-102466900D01*
X126298985Y-102327519D01*
X126417519Y-102208985D01*
X126556900Y-102115853D01*
X126711772Y-102051703D01*
X126876184Y-102019000D01*
X127043816Y-102019000D01*
X127208228Y-102051703D01*
G37*
G36*
X124708228Y-102051703D02*
G01*
X124863100Y-102115853D01*
X125002481Y-102208985D01*
X125121015Y-102327519D01*
X125214147Y-102466900D01*
X125278297Y-102621772D01*
X125311000Y-102786184D01*
X125311000Y-102953816D01*
X125278297Y-103118228D01*
X125214147Y-103273100D01*
X125121015Y-103412481D01*
X125002481Y-103531015D01*
X124863100Y-103624147D01*
X124708228Y-103688297D01*
X124543816Y-103721000D01*
X124376184Y-103721000D01*
X124211772Y-103688297D01*
X124056900Y-103624147D01*
X123917519Y-103531015D01*
X123798985Y-103412481D01*
X123705853Y-103273100D01*
X123641703Y-103118228D01*
X123609000Y-102953816D01*
X123609000Y-102786184D01*
X123641703Y-102621772D01*
X123705853Y-102466900D01*
X123798985Y-102327519D01*
X123917519Y-102208985D01*
X124056900Y-102115853D01*
X124211772Y-102051703D01*
X124376184Y-102019000D01*
X124543816Y-102019000D01*
X124708228Y-102051703D01*
G37*
G36*
X108198228Y-102051703D02*
G01*
X108353100Y-102115853D01*
X108492481Y-102208985D01*
X108611015Y-102327519D01*
X108704147Y-102466900D01*
X108768297Y-102621772D01*
X108801000Y-102786184D01*
X108801000Y-102953816D01*
X108768297Y-103118228D01*
X108704147Y-103273100D01*
X108611015Y-103412481D01*
X108492481Y-103531015D01*
X108353100Y-103624147D01*
X108198228Y-103688297D01*
X108033816Y-103721000D01*
X107866184Y-103721000D01*
X107701772Y-103688297D01*
X107546900Y-103624147D01*
X107407519Y-103531015D01*
X107288985Y-103412481D01*
X107195853Y-103273100D01*
X107131703Y-103118228D01*
X107099000Y-102953816D01*
X107099000Y-102786184D01*
X107131703Y-102621772D01*
X107195853Y-102466900D01*
X107288985Y-102327519D01*
X107407519Y-102208985D01*
X107546900Y-102115853D01*
X107701772Y-102051703D01*
X107866184Y-102019000D01*
X108033816Y-102019000D01*
X108198228Y-102051703D01*
G37*
G36*
X115818228Y-102051703D02*
G01*
X115973100Y-102115853D01*
X116112481Y-102208985D01*
X116231015Y-102327519D01*
X116324147Y-102466900D01*
X116388297Y-102621772D01*
X116421000Y-102786184D01*
X116421000Y-102953816D01*
X116388297Y-103118228D01*
X116324147Y-103273100D01*
X116231015Y-103412481D01*
X116112481Y-103531015D01*
X115973100Y-103624147D01*
X115818228Y-103688297D01*
X115653816Y-103721000D01*
X115486184Y-103721000D01*
X115321772Y-103688297D01*
X115166900Y-103624147D01*
X115027519Y-103531015D01*
X114908985Y-103412481D01*
X114815853Y-103273100D01*
X114751703Y-103118228D01*
X114719000Y-102953816D01*
X114719000Y-102786184D01*
X114751703Y-102621772D01*
X114815853Y-102466900D01*
X114908985Y-102327519D01*
X115027519Y-102208985D01*
X115166900Y-102115853D01*
X115321772Y-102051703D01*
X115486184Y-102019000D01*
X115653816Y-102019000D01*
X115818228Y-102051703D01*
G37*
G36*
X120883642Y-101919781D02*
G01*
X121029414Y-101980162D01*
X121029416Y-101980163D01*
X121160608Y-102067822D01*
X121272178Y-102179392D01*
X121291951Y-102208985D01*
X121359838Y-102310586D01*
X121420219Y-102456358D01*
X121451000Y-102611107D01*
X121451000Y-102768893D01*
X121420219Y-102923642D01*
X121407720Y-102953816D01*
X121359837Y-103069416D01*
X121272178Y-103200608D01*
X121160608Y-103312178D01*
X121029416Y-103399837D01*
X121029415Y-103399838D01*
X121029414Y-103399838D01*
X120883642Y-103460219D01*
X120728893Y-103491000D01*
X120571107Y-103491000D01*
X120416358Y-103460219D01*
X120270586Y-103399838D01*
X120270585Y-103399838D01*
X120270584Y-103399837D01*
X120139392Y-103312178D01*
X120027822Y-103200608D01*
X119940163Y-103069416D01*
X119892280Y-102953816D01*
X119879781Y-102923642D01*
X119849000Y-102768893D01*
X119849000Y-102611107D01*
X119879781Y-102456358D01*
X119940162Y-102310586D01*
X120008049Y-102208985D01*
X120027822Y-102179392D01*
X120139392Y-102067822D01*
X120270584Y-101980163D01*
X120270586Y-101980162D01*
X120416358Y-101919781D01*
X120571107Y-101889000D01*
X120728893Y-101889000D01*
X120883642Y-101919781D01*
G37*
G36*
X115818228Y-99511703D02*
G01*
X115973100Y-99575853D01*
X116112481Y-99668985D01*
X116231015Y-99787519D01*
X116324147Y-99926900D01*
X116388297Y-100081772D01*
X116421000Y-100246184D01*
X116421000Y-100413816D01*
X116388297Y-100578228D01*
X116324147Y-100733100D01*
X116231015Y-100872481D01*
X116112481Y-100991015D01*
X115973100Y-101084147D01*
X115818228Y-101148297D01*
X115653816Y-101181000D01*
X115486184Y-101181000D01*
X115321772Y-101148297D01*
X115166900Y-101084147D01*
X115027519Y-100991015D01*
X114908985Y-100872481D01*
X114815853Y-100733100D01*
X114751703Y-100578228D01*
X114719000Y-100413816D01*
X114719000Y-100246184D01*
X114751703Y-100081772D01*
X114815853Y-99926900D01*
X114908985Y-99787519D01*
X115027519Y-99668985D01*
X115166900Y-99575853D01*
X115321772Y-99511703D01*
X115486184Y-99479000D01*
X115653816Y-99479000D01*
X115818228Y-99511703D01*
G37*
G36*
X108198228Y-99511703D02*
G01*
X108353100Y-99575853D01*
X108492481Y-99668985D01*
X108611015Y-99787519D01*
X108704147Y-99926900D01*
X108768297Y-100081772D01*
X108801000Y-100246184D01*
X108801000Y-100413816D01*
X108768297Y-100578228D01*
X108704147Y-100733100D01*
X108611015Y-100872481D01*
X108492481Y-100991015D01*
X108353100Y-101084147D01*
X108198228Y-101148297D01*
X108033816Y-101181000D01*
X107866184Y-101181000D01*
X107701772Y-101148297D01*
X107546900Y-101084147D01*
X107407519Y-100991015D01*
X107288985Y-100872481D01*
X107195853Y-100733100D01*
X107131703Y-100578228D01*
X107099000Y-100413816D01*
X107099000Y-100246184D01*
X107131703Y-100081772D01*
X107195853Y-99926900D01*
X107288985Y-99787519D01*
X107407519Y-99668985D01*
X107546900Y-99575853D01*
X107701772Y-99511703D01*
X107866184Y-99479000D01*
X108033816Y-99479000D01*
X108198228Y-99511703D01*
G37*
G36*
X124708228Y-96971703D02*
G01*
X124863100Y-97035853D01*
X125002481Y-97128985D01*
X125121015Y-97247519D01*
X125214147Y-97386900D01*
X125278297Y-97541772D01*
X125311000Y-97706184D01*
X125311000Y-97873816D01*
X125278297Y-98038228D01*
X125214147Y-98193100D01*
X125121015Y-98332481D01*
X125002481Y-98451015D01*
X124863100Y-98544147D01*
X124708228Y-98608297D01*
X124543816Y-98641000D01*
X124376184Y-98641000D01*
X124211772Y-98608297D01*
X124056900Y-98544147D01*
X123917519Y-98451015D01*
X123798985Y-98332481D01*
X123705853Y-98193100D01*
X123641703Y-98038228D01*
X123609000Y-97873816D01*
X123609000Y-97706184D01*
X123641703Y-97541772D01*
X123705853Y-97386900D01*
X123798985Y-97247519D01*
X123917519Y-97128985D01*
X124056900Y-97035853D01*
X124211772Y-96971703D01*
X124376184Y-96939000D01*
X124543816Y-96939000D01*
X124708228Y-96971703D01*
G37*
G36*
X115818228Y-96971703D02*
G01*
X115973100Y-97035853D01*
X116112481Y-97128985D01*
X116231015Y-97247519D01*
X116324147Y-97386900D01*
X116388297Y-97541772D01*
X116421000Y-97706184D01*
X116421000Y-97873816D01*
X116388297Y-98038228D01*
X116324147Y-98193100D01*
X116231015Y-98332481D01*
X116112481Y-98451015D01*
X115973100Y-98544147D01*
X115818228Y-98608297D01*
X115653816Y-98641000D01*
X115486184Y-98641000D01*
X115321772Y-98608297D01*
X115166900Y-98544147D01*
X115027519Y-98451015D01*
X114908985Y-98332481D01*
X114815853Y-98193100D01*
X114751703Y-98038228D01*
X114719000Y-97873816D01*
X114719000Y-97706184D01*
X114751703Y-97541772D01*
X114815853Y-97386900D01*
X114908985Y-97247519D01*
X115027519Y-97128985D01*
X115166900Y-97035853D01*
X115321772Y-96971703D01*
X115486184Y-96939000D01*
X115653816Y-96939000D01*
X115818228Y-96971703D01*
G37*
G36*
X108198228Y-96971703D02*
G01*
X108353100Y-97035853D01*
X108492481Y-97128985D01*
X108611015Y-97247519D01*
X108704147Y-97386900D01*
X108768297Y-97541772D01*
X108801000Y-97706184D01*
X108801000Y-97873816D01*
X108768297Y-98038228D01*
X108704147Y-98193100D01*
X108611015Y-98332481D01*
X108492481Y-98451015D01*
X108353100Y-98544147D01*
X108198228Y-98608297D01*
X108033816Y-98641000D01*
X107866184Y-98641000D01*
X107701772Y-98608297D01*
X107546900Y-98544147D01*
X107407519Y-98451015D01*
X107288985Y-98332481D01*
X107195853Y-98193100D01*
X107131703Y-98038228D01*
X107099000Y-97873816D01*
X107099000Y-97706184D01*
X107131703Y-97541772D01*
X107195853Y-97386900D01*
X107288985Y-97247519D01*
X107407519Y-97128985D01*
X107546900Y-97035853D01*
X107701772Y-96971703D01*
X107866184Y-96939000D01*
X108033816Y-96939000D01*
X108198228Y-96971703D01*
G37*
G36*
X127208228Y-96971703D02*
G01*
X127363100Y-97035853D01*
X127502481Y-97128985D01*
X127621015Y-97247519D01*
X127714147Y-97386900D01*
X127778297Y-97541772D01*
X127811000Y-97706184D01*
X127811000Y-97873816D01*
X127778297Y-98038228D01*
X127714147Y-98193100D01*
X127621015Y-98332481D01*
X127502481Y-98451015D01*
X127363100Y-98544147D01*
X127208228Y-98608297D01*
X127043816Y-98641000D01*
X126876184Y-98641000D01*
X126711772Y-98608297D01*
X126556900Y-98544147D01*
X126417519Y-98451015D01*
X126298985Y-98332481D01*
X126205853Y-98193100D01*
X126141703Y-98038228D01*
X126109000Y-97873816D01*
X126109000Y-97706184D01*
X126141703Y-97541772D01*
X126205853Y-97386900D01*
X126298985Y-97247519D01*
X126417519Y-97128985D01*
X126556900Y-97035853D01*
X126711772Y-96971703D01*
X126876184Y-96939000D01*
X127043816Y-96939000D01*
X127208228Y-96971703D01*
G37*
G36*
X120883642Y-97019781D02*
G01*
X121029414Y-97080162D01*
X121029416Y-97080163D01*
X121160608Y-97167822D01*
X121272178Y-97279392D01*
X121344012Y-97386900D01*
X121359838Y-97410586D01*
X121420219Y-97556358D01*
X121451000Y-97711107D01*
X121451000Y-97868893D01*
X121420219Y-98023642D01*
X121359838Y-98169414D01*
X121359837Y-98169416D01*
X121272178Y-98300608D01*
X121160608Y-98412178D01*
X121029416Y-98499837D01*
X121029415Y-98499838D01*
X121029414Y-98499838D01*
X120883642Y-98560219D01*
X120728893Y-98591000D01*
X120571107Y-98591000D01*
X120416358Y-98560219D01*
X120270586Y-98499838D01*
X120270585Y-98499838D01*
X120270584Y-98499837D01*
X120139392Y-98412178D01*
X120027822Y-98300608D01*
X119940163Y-98169416D01*
X119940162Y-98169414D01*
X119879781Y-98023642D01*
X119849000Y-97868893D01*
X119849000Y-97711107D01*
X119879781Y-97556358D01*
X119940162Y-97410586D01*
X119955988Y-97386900D01*
X120027822Y-97279392D01*
X120139392Y-97167822D01*
X120270584Y-97080163D01*
X120270586Y-97080162D01*
X120416358Y-97019781D01*
X120571107Y-96989000D01*
X120728893Y-96989000D01*
X120883642Y-97019781D01*
G37*
G36*
X108198228Y-94431703D02*
G01*
X108353100Y-94495853D01*
X108492481Y-94588985D01*
X108611015Y-94707519D01*
X108704147Y-94846900D01*
X108768297Y-95001772D01*
X108801000Y-95166184D01*
X108801000Y-95333816D01*
X108768297Y-95498228D01*
X108704147Y-95653100D01*
X108611015Y-95792481D01*
X108492481Y-95911015D01*
X108353100Y-96004147D01*
X108198228Y-96068297D01*
X108033816Y-96101000D01*
X107866184Y-96101000D01*
X107701772Y-96068297D01*
X107546900Y-96004147D01*
X107407519Y-95911015D01*
X107288985Y-95792481D01*
X107195853Y-95653100D01*
X107131703Y-95498228D01*
X107099000Y-95333816D01*
X107099000Y-95166184D01*
X107131703Y-95001772D01*
X107195853Y-94846900D01*
X107288985Y-94707519D01*
X107407519Y-94588985D01*
X107546900Y-94495853D01*
X107701772Y-94431703D01*
X107866184Y-94399000D01*
X108033816Y-94399000D01*
X108198228Y-94431703D01*
G37*
G36*
X115818228Y-94431703D02*
G01*
X115973100Y-94495853D01*
X116112481Y-94588985D01*
X116231015Y-94707519D01*
X116324147Y-94846900D01*
X116388297Y-95001772D01*
X116421000Y-95166184D01*
X116421000Y-95333816D01*
X116388297Y-95498228D01*
X116324147Y-95653100D01*
X116231015Y-95792481D01*
X116112481Y-95911015D01*
X115973100Y-96004147D01*
X115818228Y-96068297D01*
X115653816Y-96101000D01*
X115486184Y-96101000D01*
X115321772Y-96068297D01*
X115166900Y-96004147D01*
X115027519Y-95911015D01*
X114908985Y-95792481D01*
X114815853Y-95653100D01*
X114751703Y-95498228D01*
X114719000Y-95333816D01*
X114719000Y-95166184D01*
X114751703Y-95001772D01*
X114815853Y-94846900D01*
X114908985Y-94707519D01*
X115027519Y-94588985D01*
X115166900Y-94495853D01*
X115321772Y-94431703D01*
X115486184Y-94399000D01*
X115653816Y-94399000D01*
X115818228Y-94431703D01*
G37*
G36*
X128558228Y-93161703D02*
G01*
X128713100Y-93225853D01*
X128852481Y-93318985D01*
X128971015Y-93437519D01*
X129064147Y-93576900D01*
X129128297Y-93731772D01*
X129161000Y-93896184D01*
X129161000Y-94063816D01*
X129128297Y-94228228D01*
X129064147Y-94383100D01*
X128971015Y-94522481D01*
X128852481Y-94641015D01*
X128713100Y-94734147D01*
X128558228Y-94798297D01*
X128393816Y-94831000D01*
X128226184Y-94831000D01*
X128061772Y-94798297D01*
X127906900Y-94734147D01*
X127767519Y-94641015D01*
X127648985Y-94522481D01*
X127555853Y-94383100D01*
X127491703Y-94228228D01*
X127459000Y-94063816D01*
X127459000Y-93896184D01*
X127491703Y-93731772D01*
X127555853Y-93576900D01*
X127648985Y-93437519D01*
X127767519Y-93318985D01*
X127906900Y-93225853D01*
X128061772Y-93161703D01*
X128226184Y-93129000D01*
X128393816Y-93129000D01*
X128558228Y-93161703D01*
G37*
G36*
X131058228Y-93161703D02*
G01*
X131213100Y-93225853D01*
X131352481Y-93318985D01*
X131471015Y-93437519D01*
X131564147Y-93576900D01*
X131628297Y-93731772D01*
X131661000Y-93896184D01*
X131661000Y-94063816D01*
X131628297Y-94228228D01*
X131564147Y-94383100D01*
X131471015Y-94522481D01*
X131352481Y-94641015D01*
X131213100Y-94734147D01*
X131058228Y-94798297D01*
X130893816Y-94831000D01*
X130726184Y-94831000D01*
X130561772Y-94798297D01*
X130406900Y-94734147D01*
X130267519Y-94641015D01*
X130148985Y-94522481D01*
X130055853Y-94383100D01*
X129991703Y-94228228D01*
X129959000Y-94063816D01*
X129959000Y-93896184D01*
X129991703Y-93731772D01*
X130055853Y-93576900D01*
X130148985Y-93437519D01*
X130267519Y-93318985D01*
X130406900Y-93225853D01*
X130561772Y-93161703D01*
X130726184Y-93129000D01*
X130893816Y-93129000D01*
X131058228Y-93161703D01*
G37*
G36*
X115818228Y-91891703D02*
G01*
X115973100Y-91955853D01*
X116112481Y-92048985D01*
X116231015Y-92167519D01*
X116324147Y-92306900D01*
X116388297Y-92461772D01*
X116421000Y-92626184D01*
X116421000Y-92793816D01*
X116388297Y-92958228D01*
X116324147Y-93113100D01*
X116231015Y-93252481D01*
X116112481Y-93371015D01*
X115973100Y-93464147D01*
X115818228Y-93528297D01*
X115653816Y-93561000D01*
X115486184Y-93561000D01*
X115321772Y-93528297D01*
X115166900Y-93464147D01*
X115027519Y-93371015D01*
X114908985Y-93252481D01*
X114815853Y-93113100D01*
X114751703Y-92958228D01*
X114719000Y-92793816D01*
X114719000Y-92626184D01*
X114751703Y-92461772D01*
X114815853Y-92306900D01*
X114908985Y-92167519D01*
X115027519Y-92048985D01*
X115166900Y-91955853D01*
X115321772Y-91891703D01*
X115486184Y-91859000D01*
X115653816Y-91859000D01*
X115818228Y-91891703D01*
G37*
G36*
X108198228Y-91891703D02*
G01*
X108353100Y-91955853D01*
X108492481Y-92048985D01*
X108611015Y-92167519D01*
X108704147Y-92306900D01*
X108768297Y-92461772D01*
X108801000Y-92626184D01*
X108801000Y-92793816D01*
X108768297Y-92958228D01*
X108704147Y-93113100D01*
X108611015Y-93252481D01*
X108492481Y-93371015D01*
X108353100Y-93464147D01*
X108198228Y-93528297D01*
X108033816Y-93561000D01*
X107866184Y-93561000D01*
X107701772Y-93528297D01*
X107546900Y-93464147D01*
X107407519Y-93371015D01*
X107288985Y-93252481D01*
X107195853Y-93113100D01*
X107131703Y-92958228D01*
X107099000Y-92793816D01*
X107099000Y-92626184D01*
X107131703Y-92461772D01*
X107195853Y-92306900D01*
X107288985Y-92167519D01*
X107407519Y-92048985D01*
X107546900Y-91955853D01*
X107701772Y-91891703D01*
X107866184Y-91859000D01*
X108033816Y-91859000D01*
X108198228Y-91891703D01*
G37*
G36*
X108198228Y-89351703D02*
G01*
X108353100Y-89415853D01*
X108492481Y-89508985D01*
X108611015Y-89627519D01*
X108704147Y-89766900D01*
X108768297Y-89921772D01*
X108801000Y-90086184D01*
X108801000Y-90253816D01*
X108768297Y-90418228D01*
X108704147Y-90573100D01*
X108611015Y-90712481D01*
X108492481Y-90831015D01*
X108353100Y-90924147D01*
X108198228Y-90988297D01*
X108033816Y-91021000D01*
X107866184Y-91021000D01*
X107701772Y-90988297D01*
X107546900Y-90924147D01*
X107407519Y-90831015D01*
X107288985Y-90712481D01*
X107195853Y-90573100D01*
X107131703Y-90418228D01*
X107099000Y-90253816D01*
X107099000Y-90086184D01*
X107131703Y-89921772D01*
X107195853Y-89766900D01*
X107288985Y-89627519D01*
X107407519Y-89508985D01*
X107546900Y-89415853D01*
X107701772Y-89351703D01*
X107866184Y-89319000D01*
X108033816Y-89319000D01*
X108198228Y-89351703D01*
G37*
G36*
X115818228Y-89351703D02*
G01*
X115973100Y-89415853D01*
X116112481Y-89508985D01*
X116231015Y-89627519D01*
X116324147Y-89766900D01*
X116388297Y-89921772D01*
X116421000Y-90086184D01*
X116421000Y-90253816D01*
X116388297Y-90418228D01*
X116324147Y-90573100D01*
X116231015Y-90712481D01*
X116112481Y-90831015D01*
X115973100Y-90924147D01*
X115818228Y-90988297D01*
X115653816Y-91021000D01*
X115486184Y-91021000D01*
X115321772Y-90988297D01*
X115166900Y-90924147D01*
X115027519Y-90831015D01*
X114908985Y-90712481D01*
X114815853Y-90573100D01*
X114751703Y-90418228D01*
X114719000Y-90253816D01*
X114719000Y-90086184D01*
X114751703Y-89921772D01*
X114815853Y-89766900D01*
X114908985Y-89627519D01*
X115027519Y-89508985D01*
X115166900Y-89415853D01*
X115321772Y-89351703D01*
X115486184Y-89319000D01*
X115653816Y-89319000D01*
X115818228Y-89351703D01*
G37*
G36*
X125967142Y-89388242D02*
G01*
X126115101Y-89449529D01*
X126248255Y-89538499D01*
X126361501Y-89651745D01*
X126450471Y-89784899D01*
X126511758Y-89932858D01*
X126543000Y-90089925D01*
X126543000Y-90250075D01*
X126511758Y-90407142D01*
X126450471Y-90555101D01*
X126361501Y-90688255D01*
X126248255Y-90801501D01*
X126115101Y-90890471D01*
X125967142Y-90951758D01*
X125810075Y-90983000D01*
X125649925Y-90983000D01*
X125492858Y-90951758D01*
X125344899Y-90890471D01*
X125211745Y-90801501D01*
X125098499Y-90688255D01*
X125009529Y-90555101D01*
X124948242Y-90407142D01*
X124917000Y-90250075D01*
X124917000Y-90089925D01*
X124948242Y-89932858D01*
X125009529Y-89784899D01*
X125098499Y-89651745D01*
X125211745Y-89538499D01*
X125344899Y-89449529D01*
X125492858Y-89388242D01*
X125649925Y-89357000D01*
X125810075Y-89357000D01*
X125967142Y-89388242D01*
G37*
G36*
X128507142Y-89388242D02*
G01*
X128655101Y-89449529D01*
X128788255Y-89538499D01*
X128901501Y-89651745D01*
X128990471Y-89784899D01*
X129051758Y-89932858D01*
X129083000Y-90089925D01*
X129083000Y-90250075D01*
X129051758Y-90407142D01*
X128990471Y-90555101D01*
X128901501Y-90688255D01*
X128788255Y-90801501D01*
X128655101Y-90890471D01*
X128507142Y-90951758D01*
X128350075Y-90983000D01*
X128189925Y-90983000D01*
X128032858Y-90951758D01*
X127884899Y-90890471D01*
X127751745Y-90801501D01*
X127638499Y-90688255D01*
X127549529Y-90555101D01*
X127488242Y-90407142D01*
X127457000Y-90250075D01*
X127457000Y-90089925D01*
X127488242Y-89932858D01*
X127549529Y-89784899D01*
X127638499Y-89651745D01*
X127751745Y-89538499D01*
X127884899Y-89449529D01*
X128032858Y-89388242D01*
X128189925Y-89357000D01*
X128350075Y-89357000D01*
X128507142Y-89388242D01*
G37*
G36*
X123427142Y-89388242D02*
G01*
X123575101Y-89449529D01*
X123708255Y-89538499D01*
X123821501Y-89651745D01*
X123910471Y-89784899D01*
X123971758Y-89932858D01*
X124003000Y-90089925D01*
X124003000Y-90250075D01*
X123971758Y-90407142D01*
X123910471Y-90555101D01*
X123821501Y-90688255D01*
X123708255Y-90801501D01*
X123575101Y-90890471D01*
X123427142Y-90951758D01*
X123270075Y-90983000D01*
X123109925Y-90983000D01*
X122952858Y-90951758D01*
X122804899Y-90890471D01*
X122671745Y-90801501D01*
X122558499Y-90688255D01*
X122469529Y-90555101D01*
X122408242Y-90407142D01*
X122377000Y-90250075D01*
X122377000Y-90089925D01*
X122408242Y-89932858D01*
X122469529Y-89784899D01*
X122558499Y-89651745D01*
X122671745Y-89538499D01*
X122804899Y-89449529D01*
X122952858Y-89388242D01*
X123109925Y-89357000D01*
X123270075Y-89357000D01*
X123427142Y-89388242D01*
G37*
G36*
X131047142Y-89388242D02*
G01*
X131195101Y-89449529D01*
X131328255Y-89538499D01*
X131441501Y-89651745D01*
X131530471Y-89784899D01*
X131591758Y-89932858D01*
X131623000Y-90089925D01*
X131623000Y-90250075D01*
X131591758Y-90407142D01*
X131530471Y-90555101D01*
X131441501Y-90688255D01*
X131328255Y-90801501D01*
X131195101Y-90890471D01*
X131047142Y-90951758D01*
X130890075Y-90983000D01*
X130729925Y-90983000D01*
X130572858Y-90951758D01*
X130424899Y-90890471D01*
X130291745Y-90801501D01*
X130178499Y-90688255D01*
X130089529Y-90555101D01*
X130028242Y-90407142D01*
X129997000Y-90250075D01*
X129997000Y-90089925D01*
X130028242Y-89932858D01*
X130089529Y-89784899D01*
X130178499Y-89651745D01*
X130291745Y-89538499D01*
X130424899Y-89449529D01*
X130572858Y-89388242D01*
X130729925Y-89357000D01*
X130890075Y-89357000D01*
X131047142Y-89388242D01*
G37*
G36*
X115818228Y-86811703D02*
G01*
X115973100Y-86875853D01*
X116112481Y-86968985D01*
X116231015Y-87087519D01*
X116324147Y-87226900D01*
X116388297Y-87381772D01*
X116421000Y-87546184D01*
X116421000Y-87713816D01*
X116388297Y-87878228D01*
X116324147Y-88033100D01*
X116231015Y-88172481D01*
X116112481Y-88291015D01*
X115973100Y-88384147D01*
X115818228Y-88448297D01*
X115653816Y-88481000D01*
X115486184Y-88481000D01*
X115321772Y-88448297D01*
X115166900Y-88384147D01*
X115027519Y-88291015D01*
X114908985Y-88172481D01*
X114815853Y-88033100D01*
X114751703Y-87878228D01*
X114719000Y-87713816D01*
X114719000Y-87546184D01*
X114751703Y-87381772D01*
X114815853Y-87226900D01*
X114908985Y-87087519D01*
X115027519Y-86968985D01*
X115166900Y-86875853D01*
X115321772Y-86811703D01*
X115486184Y-86779000D01*
X115653816Y-86779000D01*
X115818228Y-86811703D01*
G37*
G36*
X108198228Y-86811703D02*
G01*
X108353100Y-86875853D01*
X108492481Y-86968985D01*
X108611015Y-87087519D01*
X108704147Y-87226900D01*
X108768297Y-87381772D01*
X108801000Y-87546184D01*
X108801000Y-87713816D01*
X108768297Y-87878228D01*
X108704147Y-88033100D01*
X108611015Y-88172481D01*
X108492481Y-88291015D01*
X108353100Y-88384147D01*
X108198228Y-88448297D01*
X108033816Y-88481000D01*
X107866184Y-88481000D01*
X107701772Y-88448297D01*
X107546900Y-88384147D01*
X107407519Y-88291015D01*
X107288985Y-88172481D01*
X107195853Y-88033100D01*
X107131703Y-87878228D01*
X107099000Y-87713816D01*
X107099000Y-87546184D01*
X107131703Y-87381772D01*
X107195853Y-87226900D01*
X107288985Y-87087519D01*
X107407519Y-86968985D01*
X107546900Y-86875853D01*
X107701772Y-86811703D01*
X107866184Y-86779000D01*
X108033816Y-86779000D01*
X108198228Y-86811703D01*
G37*
G36*
X131623000Y-88443000D02*
G01*
X129997000Y-88443000D01*
X129997000Y-86817000D01*
X131623000Y-86817000D01*
X131623000Y-88443000D01*
G37*
G36*
X128507142Y-86848242D02*
G01*
X128655101Y-86909529D01*
X128788255Y-86998499D01*
X128901501Y-87111745D01*
X128990471Y-87244899D01*
X129051758Y-87392858D01*
X129083000Y-87549925D01*
X129083000Y-87710075D01*
X129051758Y-87867142D01*
X128990471Y-88015101D01*
X128901501Y-88148255D01*
X128788255Y-88261501D01*
X128655101Y-88350471D01*
X128507142Y-88411758D01*
X128350075Y-88443000D01*
X128189925Y-88443000D01*
X128032858Y-88411758D01*
X127884899Y-88350471D01*
X127751745Y-88261501D01*
X127638499Y-88148255D01*
X127549529Y-88015101D01*
X127488242Y-87867142D01*
X127457000Y-87710075D01*
X127457000Y-87549925D01*
X127488242Y-87392858D01*
X127549529Y-87244899D01*
X127638499Y-87111745D01*
X127751745Y-86998499D01*
X127884899Y-86909529D01*
X128032858Y-86848242D01*
X128189925Y-86817000D01*
X128350075Y-86817000D01*
X128507142Y-86848242D01*
G37*
G36*
X125967142Y-86848242D02*
G01*
X126115101Y-86909529D01*
X126248255Y-86998499D01*
X126361501Y-87111745D01*
X126450471Y-87244899D01*
X126511758Y-87392858D01*
X126543000Y-87549925D01*
X126543000Y-87710075D01*
X126511758Y-87867142D01*
X126450471Y-88015101D01*
X126361501Y-88148255D01*
X126248255Y-88261501D01*
X126115101Y-88350471D01*
X125967142Y-88411758D01*
X125810075Y-88443000D01*
X125649925Y-88443000D01*
X125492858Y-88411758D01*
X125344899Y-88350471D01*
X125211745Y-88261501D01*
X125098499Y-88148255D01*
X125009529Y-88015101D01*
X124948242Y-87867142D01*
X124917000Y-87710075D01*
X124917000Y-87549925D01*
X124948242Y-87392858D01*
X125009529Y-87244899D01*
X125098499Y-87111745D01*
X125211745Y-86998499D01*
X125344899Y-86909529D01*
X125492858Y-86848242D01*
X125649925Y-86817000D01*
X125810075Y-86817000D01*
X125967142Y-86848242D01*
G37*
G36*
X123427142Y-86848242D02*
G01*
X123575101Y-86909529D01*
X123708255Y-86998499D01*
X123821501Y-87111745D01*
X123910471Y-87244899D01*
X123971758Y-87392858D01*
X124003000Y-87549925D01*
X124003000Y-87710075D01*
X123971758Y-87867142D01*
X123910471Y-88015101D01*
X123821501Y-88148255D01*
X123708255Y-88261501D01*
X123575101Y-88350471D01*
X123427142Y-88411758D01*
X123270075Y-88443000D01*
X123109925Y-88443000D01*
X122952858Y-88411758D01*
X122804899Y-88350471D01*
X122671745Y-88261501D01*
X122558499Y-88148255D01*
X122469529Y-88015101D01*
X122408242Y-87867142D01*
X122377000Y-87710075D01*
X122377000Y-87549925D01*
X122408242Y-87392858D01*
X122469529Y-87244899D01*
X122558499Y-87111745D01*
X122671745Y-86998499D01*
X122804899Y-86909529D01*
X122952858Y-86848242D01*
X123109925Y-86817000D01*
X123270075Y-86817000D01*
X123427142Y-86848242D01*
G37*
G36*
X123438228Y-80461703D02*
G01*
X123593100Y-80525853D01*
X123732481Y-80618985D01*
X123851015Y-80737519D01*
X123944147Y-80876900D01*
X124008297Y-81031772D01*
X124041000Y-81196184D01*
X124041000Y-81363816D01*
X124008297Y-81528228D01*
X123944147Y-81683100D01*
X123851015Y-81822481D01*
X123732481Y-81941015D01*
X123593100Y-82034147D01*
X123438228Y-82098297D01*
X123273816Y-82131000D01*
X123106184Y-82131000D01*
X122941772Y-82098297D01*
X122786900Y-82034147D01*
X122647519Y-81941015D01*
X122528985Y-81822481D01*
X122435853Y-81683100D01*
X122371703Y-81528228D01*
X122339000Y-81363816D01*
X122339000Y-81196184D01*
X122371703Y-81031772D01*
X122435853Y-80876900D01*
X122528985Y-80737519D01*
X122647519Y-80618985D01*
X122786900Y-80525853D01*
X122941772Y-80461703D01*
X123106184Y-80429000D01*
X123273816Y-80429000D01*
X123438228Y-80461703D01*
G37*
G36*
X133598228Y-80461703D02*
G01*
X133753100Y-80525853D01*
X133892481Y-80618985D01*
X134011015Y-80737519D01*
X134104147Y-80876900D01*
X134168297Y-81031772D01*
X134201000Y-81196184D01*
X134201000Y-81363816D01*
X134168297Y-81528228D01*
X134104147Y-81683100D01*
X134011015Y-81822481D01*
X133892481Y-81941015D01*
X133753100Y-82034147D01*
X133598228Y-82098297D01*
X133433816Y-82131000D01*
X133266184Y-82131000D01*
X133101772Y-82098297D01*
X132946900Y-82034147D01*
X132807519Y-81941015D01*
X132688985Y-81822481D01*
X132595853Y-81683100D01*
X132531703Y-81528228D01*
X132499000Y-81363816D01*
X132499000Y-81196184D01*
X132531703Y-81031772D01*
X132595853Y-80876900D01*
X132688985Y-80737519D01*
X132807519Y-80618985D01*
X132946900Y-80525853D01*
X133101772Y-80461703D01*
X133266184Y-80429000D01*
X133433816Y-80429000D01*
X133598228Y-80461703D01*
G37*
G36*
X113278228Y-80461703D02*
G01*
X113433100Y-80525853D01*
X113572481Y-80618985D01*
X113691015Y-80737519D01*
X113784147Y-80876900D01*
X113848297Y-81031772D01*
X113881000Y-81196184D01*
X113881000Y-81363816D01*
X113848297Y-81528228D01*
X113784147Y-81683100D01*
X113691015Y-81822481D01*
X113572481Y-81941015D01*
X113433100Y-82034147D01*
X113278228Y-82098297D01*
X113113816Y-82131000D01*
X112946184Y-82131000D01*
X112781772Y-82098297D01*
X112626900Y-82034147D01*
X112487519Y-81941015D01*
X112368985Y-81822481D01*
X112275853Y-81683100D01*
X112211703Y-81528228D01*
X112179000Y-81363816D01*
X112179000Y-81196184D01*
X112211703Y-81031772D01*
X112275853Y-80876900D01*
X112368985Y-80737519D01*
X112487519Y-80618985D01*
X112626900Y-80525853D01*
X112781772Y-80461703D01*
X112946184Y-80429000D01*
X113113816Y-80429000D01*
X113278228Y-80461703D01*
G37*
G36*
X113278228Y-72841703D02*
G01*
X113433100Y-72905853D01*
X113572481Y-72998985D01*
X113691015Y-73117519D01*
X113784147Y-73256900D01*
X113848297Y-73411772D01*
X113881000Y-73576184D01*
X113881000Y-73743816D01*
X113848297Y-73908228D01*
X113784147Y-74063100D01*
X113691015Y-74202481D01*
X113572481Y-74321015D01*
X113433100Y-74414147D01*
X113278228Y-74478297D01*
X113113816Y-74511000D01*
X112946184Y-74511000D01*
X112781772Y-74478297D01*
X112626900Y-74414147D01*
X112487519Y-74321015D01*
X112368985Y-74202481D01*
X112275853Y-74063100D01*
X112211703Y-73908228D01*
X112179000Y-73743816D01*
X112179000Y-73576184D01*
X112211703Y-73411772D01*
X112275853Y-73256900D01*
X112368985Y-73117519D01*
X112487519Y-72998985D01*
X112626900Y-72905853D01*
X112781772Y-72841703D01*
X112946184Y-72809000D01*
X113113816Y-72809000D01*
X113278228Y-72841703D01*
G37*
G36*
X123438228Y-72841703D02*
G01*
X123593100Y-72905853D01*
X123732481Y-72998985D01*
X123851015Y-73117519D01*
X123944147Y-73256900D01*
X124008297Y-73411772D01*
X124041000Y-73576184D01*
X124041000Y-73743816D01*
X124008297Y-73908228D01*
X123944147Y-74063100D01*
X123851015Y-74202481D01*
X123732481Y-74321015D01*
X123593100Y-74414147D01*
X123438228Y-74478297D01*
X123273816Y-74511000D01*
X123106184Y-74511000D01*
X122941772Y-74478297D01*
X122786900Y-74414147D01*
X122647519Y-74321015D01*
X122528985Y-74202481D01*
X122435853Y-74063100D01*
X122371703Y-73908228D01*
X122339000Y-73743816D01*
X122339000Y-73576184D01*
X122371703Y-73411772D01*
X122435853Y-73256900D01*
X122528985Y-73117519D01*
X122647519Y-72998985D01*
X122786900Y-72905853D01*
X122941772Y-72841703D01*
X123106184Y-72809000D01*
X123273816Y-72809000D01*
X123438228Y-72841703D01*
G37*
G36*
X133598228Y-72841703D02*
G01*
X133753100Y-72905853D01*
X133892481Y-72998985D01*
X134011015Y-73117519D01*
X134104147Y-73256900D01*
X134168297Y-73411772D01*
X134201000Y-73576184D01*
X134201000Y-73743816D01*
X134168297Y-73908228D01*
X134104147Y-74063100D01*
X134011015Y-74202481D01*
X133892481Y-74321015D01*
X133753100Y-74414147D01*
X133598228Y-74478297D01*
X133433816Y-74511000D01*
X133266184Y-74511000D01*
X133101772Y-74478297D01*
X132946900Y-74414147D01*
X132807519Y-74321015D01*
X132688985Y-74202481D01*
X132595853Y-74063100D01*
X132531703Y-73908228D01*
X132499000Y-73743816D01*
X132499000Y-73576184D01*
X132531703Y-73411772D01*
X132595853Y-73256900D01*
X132688985Y-73117519D01*
X132807519Y-72998985D01*
X132946900Y-72905853D01*
X133101772Y-72841703D01*
X133266184Y-72809000D01*
X133433816Y-72809000D01*
X133598228Y-72841703D01*
G37*
G36*
X117781416Y-70109879D02*
G01*
X117972592Y-70189067D01*
X117972594Y-70189068D01*
X118144648Y-70304031D01*
X118290969Y-70450352D01*
X118405933Y-70622408D01*
X118485121Y-70813584D01*
X118525490Y-71016534D01*
X118525490Y-71223466D01*
X118485121Y-71426416D01*
X118405933Y-71617592D01*
X118405932Y-71617594D01*
X118290969Y-71789648D01*
X118144648Y-71935969D01*
X117972594Y-72050932D01*
X117972593Y-72050933D01*
X117972592Y-72050933D01*
X117781416Y-72130121D01*
X117578466Y-72170490D01*
X117371534Y-72170490D01*
X117168584Y-72130121D01*
X116977408Y-72050933D01*
X116977407Y-72050933D01*
X116977406Y-72050932D01*
X116805352Y-71935969D01*
X116659031Y-71789648D01*
X116544068Y-71617594D01*
X116544067Y-71617592D01*
X116464879Y-71426416D01*
X116424510Y-71223466D01*
X116424510Y-71016534D01*
X116464879Y-70813584D01*
X116544067Y-70622408D01*
X116659031Y-70450352D01*
X116805352Y-70304031D01*
X116977406Y-70189068D01*
X116977408Y-70189067D01*
X117168584Y-70109879D01*
X117371534Y-70069510D01*
X117578466Y-70069510D01*
X117781416Y-70109879D01*
G37*
G36*
X115350490Y-72170490D02*
G01*
X113249510Y-72170490D01*
X113249510Y-70069510D01*
X115350490Y-70069510D01*
X115350490Y-72170490D01*
G37*
G36*
X120956416Y-70109879D02*
G01*
X121147592Y-70189067D01*
X121147594Y-70189068D01*
X121319648Y-70304031D01*
X121465969Y-70450352D01*
X121580933Y-70622408D01*
X121660121Y-70813584D01*
X121700490Y-71016534D01*
X121700490Y-71223466D01*
X121660121Y-71426416D01*
X121580933Y-71617592D01*
X121580932Y-71617594D01*
X121465969Y-71789648D01*
X121319648Y-71935969D01*
X121147594Y-72050932D01*
X121147593Y-72050933D01*
X121147592Y-72050933D01*
X120956416Y-72130121D01*
X120753466Y-72170490D01*
X120546534Y-72170490D01*
X120343584Y-72130121D01*
X120152408Y-72050933D01*
X120152407Y-72050933D01*
X120152406Y-72050932D01*
X119980352Y-71935969D01*
X119834031Y-71789648D01*
X119719068Y-71617594D01*
X119719067Y-71617592D01*
X119639879Y-71426416D01*
X119599510Y-71223466D01*
X119599510Y-71016534D01*
X119639879Y-70813584D01*
X119719067Y-70622408D01*
X119834031Y-70450352D01*
X119980352Y-70304031D01*
X120152406Y-70189068D01*
X120152408Y-70189067D01*
X120343584Y-70109879D01*
X120546534Y-70069510D01*
X120753466Y-70069510D01*
X120956416Y-70109879D01*
G37*
G36*
X124131416Y-70109879D02*
G01*
X124322592Y-70189067D01*
X124322594Y-70189068D01*
X124494648Y-70304031D01*
X124640969Y-70450352D01*
X124755933Y-70622408D01*
X124835121Y-70813584D01*
X124875490Y-71016534D01*
X124875490Y-71223466D01*
X124835121Y-71426416D01*
X124755933Y-71617592D01*
X124755932Y-71617594D01*
X124640969Y-71789648D01*
X124494648Y-71935969D01*
X124322594Y-72050932D01*
X124322593Y-72050933D01*
X124322592Y-72050933D01*
X124131416Y-72130121D01*
X123928466Y-72170490D01*
X123721534Y-72170490D01*
X123518584Y-72130121D01*
X123327408Y-72050933D01*
X123327407Y-72050933D01*
X123327406Y-72050932D01*
X123155352Y-71935969D01*
X123009031Y-71789648D01*
X122894068Y-71617594D01*
X122894067Y-71617592D01*
X122814879Y-71426416D01*
X122774510Y-71223466D01*
X122774510Y-71016534D01*
X122814879Y-70813584D01*
X122894067Y-70622408D01*
X123009031Y-70450352D01*
X123155352Y-70304031D01*
X123327406Y-70189068D01*
X123327408Y-70189067D01*
X123518584Y-70109879D01*
X123721534Y-70069510D01*
X123928466Y-70069510D01*
X124131416Y-70109879D01*
G37*
M02*
