G04 #@! TF.GenerationSoftware,KiCad,Pcbnew,5.1.5-52549c5~84~ubuntu18.04.1*
G04 #@! TF.CreationDate,2020-01-02T13:16:35+00:00*
G04 #@! TF.ProjectId,receiver,72656365-6976-4657-922e-6b696361645f,rev?*
G04 #@! TF.SameCoordinates,Original*
G04 #@! TF.FileFunction,Copper,L1,Top*
G04 #@! TF.FilePolarity,Positive*
%FSLAX46Y46*%
G04 Gerber Fmt 4.6, Leading zero omitted, Abs format (unit mm)*
G04 Created by KiCad (PCBNEW 5.1.5-52549c5~84~ubuntu18.04.1) date 2020-01-02 13:16:35*
%MOMM*%
%LPD*%
G04 APERTURE LIST*
%ADD10R,3.800000X2.000000*%
%ADD11R,1.500000X2.000000*%
%ADD12C,1.600000*%
%ADD13R,1.524000X1.524000*%
%ADD14C,1.524000*%
%ADD15R,1.600000X1.600000*%
%ADD16O,1.600000X1.600000*%
%ADD17R,2.499360X2.499360*%
%ADD18C,2.499360*%
%ADD19C,1.500000*%
%ADD20C,1.998980*%
%ADD21R,1.998980X1.998980*%
%ADD22C,0.800000*%
%ADD23C,0.350000*%
%ADD24C,0.550000*%
%ADD25C,0.750000*%
%ADD26C,0.250000*%
%ADD27C,0.254000*%
G04 APERTURE END LIST*
D10*
X107950000Y-75590000D03*
D11*
X107950000Y-81890000D03*
X110250000Y-81890000D03*
X105650000Y-81890000D03*
X115810000Y-81890000D03*
X120410000Y-81890000D03*
X118110000Y-81890000D03*
D10*
X118110000Y-75590000D03*
X128270000Y-75590000D03*
D11*
X128270000Y-81890000D03*
X130570000Y-81890000D03*
X125970000Y-81890000D03*
D12*
X121880000Y-107950000D03*
X119380000Y-107950000D03*
D13*
X130810000Y-87630000D03*
D14*
X130810000Y-90170000D03*
X128270000Y-87630000D03*
X128270000Y-90170000D03*
X125730000Y-87630000D03*
X125730000Y-90170000D03*
X123190000Y-87630000D03*
X123190000Y-90170000D03*
D15*
X115570000Y-120650000D03*
D16*
X107950000Y-87630000D03*
X115570000Y-118110000D03*
X107950000Y-90170000D03*
X115570000Y-115570000D03*
X107950000Y-92710000D03*
X115570000Y-113030000D03*
X107950000Y-95250000D03*
X115570000Y-110490000D03*
X107950000Y-97790000D03*
X115570000Y-107950000D03*
X107950000Y-100330000D03*
X115570000Y-105410000D03*
X107950000Y-102870000D03*
X115570000Y-102870000D03*
X107950000Y-105410000D03*
X115570000Y-100330000D03*
X107950000Y-107950000D03*
X115570000Y-97790000D03*
X107950000Y-110490000D03*
X115570000Y-95250000D03*
X107950000Y-113030000D03*
X115570000Y-92710000D03*
X107950000Y-115570000D03*
X115570000Y-90170000D03*
X107950000Y-118110000D03*
X115570000Y-87630000D03*
X107950000Y-120650000D03*
D12*
X126960000Y-102870000D03*
X124460000Y-102870000D03*
X124460000Y-97790000D03*
X126960000Y-97790000D03*
X130810000Y-93980000D03*
X128310000Y-93980000D03*
D17*
X107950000Y-124460000D03*
D18*
X111760000Y-124460000D03*
D17*
X127000000Y-124460000D03*
D18*
X130810000Y-124460000D03*
X130810000Y-119380000D03*
D17*
X127000000Y-119380000D03*
D19*
X120650000Y-102690000D03*
X120650000Y-97790000D03*
X121920000Y-124460000D03*
X117020000Y-124460000D03*
D20*
X123825000Y-71120000D03*
X120650000Y-71120000D03*
X117475000Y-71120000D03*
D21*
X114300000Y-71120000D03*
D12*
X113030000Y-81280000D03*
D16*
X113030000Y-73660000D03*
X123190000Y-73660000D03*
D12*
X123190000Y-81280000D03*
X133350000Y-81280000D03*
D16*
X133350000Y-73660000D03*
D22*
X115570000Y-85314992D03*
D23*
X116800000Y-102870000D02*
X121880000Y-107950000D01*
X115570000Y-102870000D02*
X116800000Y-102870000D01*
X116840000Y-105410000D02*
X119380000Y-107950000D01*
X115570000Y-105410000D02*
X116840000Y-105410000D01*
X118290000Y-100330000D02*
X120650000Y-102690000D01*
X115570000Y-100330000D02*
X118290000Y-100330000D01*
X124280000Y-102690000D02*
X124460000Y-102870000D01*
X120650000Y-102690000D02*
X124280000Y-102690000D01*
X115570000Y-97790000D02*
X120650000Y-97790000D01*
X124460000Y-97790000D02*
X120650000Y-97790000D01*
D24*
X113030000Y-72390000D02*
X114300000Y-71120000D01*
X113030000Y-73660000D02*
X113030000Y-72390000D01*
X120015000Y-73660000D02*
X117475000Y-71120000D01*
X123190000Y-73660000D02*
X120015000Y-73660000D01*
X132550001Y-72860001D02*
X133350000Y-73660000D01*
X129335509Y-69645509D02*
X132550001Y-72860001D01*
X122124491Y-69645509D02*
X129335509Y-69645509D01*
X120650000Y-71120000D02*
X122124491Y-69645509D01*
D25*
X121920000Y-124460000D02*
X127000000Y-124460000D01*
X111760000Y-124460000D02*
X117020000Y-124460000D01*
D24*
X112420000Y-81890000D02*
X113030000Y-81280000D01*
X110250000Y-81890000D02*
X112420000Y-81890000D01*
D23*
X114770001Y-109690001D02*
X115570000Y-110490000D01*
X113294979Y-108214979D02*
X114770001Y-109690001D01*
X113294979Y-90884979D02*
X113294979Y-108214979D01*
X105650000Y-83240000D02*
X113294979Y-90884979D01*
X105650000Y-81890000D02*
X105650000Y-83240000D01*
X115570000Y-83390160D02*
X115570000Y-82130000D01*
X113844989Y-85115170D02*
X115570000Y-83390160D01*
X115570000Y-95250000D02*
X113844989Y-93524989D01*
X115570000Y-82130000D02*
X115810000Y-81890000D01*
X113844989Y-93524989D02*
X113844989Y-85115170D01*
D24*
X122580000Y-81890000D02*
X123190000Y-81280000D01*
X120410000Y-81890000D02*
X122580000Y-81890000D01*
X132740000Y-81890000D02*
X133350000Y-81280000D01*
X130570000Y-81890000D02*
X132740000Y-81890000D01*
D23*
X125970000Y-83240000D02*
X125970000Y-81890000D01*
X125390000Y-83820000D02*
X125970000Y-83240000D01*
X115917990Y-83820000D02*
X125390000Y-83820000D01*
X114394999Y-85342991D02*
X115917990Y-83820000D01*
X114394999Y-91534999D02*
X114394999Y-85342991D01*
X115570000Y-92710000D02*
X114394999Y-91534999D01*
D26*
X107805001Y-98095001D02*
X106985001Y-98095001D01*
D23*
X121920000Y-119380000D02*
X115570000Y-113030000D01*
X127000000Y-119380000D02*
X121920000Y-119380000D01*
X115570000Y-85314992D02*
X125505008Y-85314992D01*
X125954992Y-85314992D02*
X125505008Y-85314992D01*
X128270000Y-87630000D02*
X125954992Y-85314992D01*
D27*
G36*
X133467869Y-64174722D02*
G01*
X133581246Y-64208953D01*
X133685819Y-64264555D01*
X133777596Y-64339407D01*
X133853091Y-64430664D01*
X133909419Y-64534844D01*
X133944440Y-64647976D01*
X133960000Y-64796022D01*
X133960000Y-72359438D01*
X133768574Y-72280147D01*
X133491335Y-72225000D01*
X133208665Y-72225000D01*
X133203051Y-72226117D01*
X130010596Y-69033663D01*
X129982090Y-68998928D01*
X129843524Y-68885211D01*
X129685436Y-68800711D01*
X129513900Y-68748676D01*
X129380213Y-68735509D01*
X129380211Y-68735509D01*
X129335509Y-68731106D01*
X129290807Y-68735509D01*
X123214261Y-68735509D01*
X123251621Y-68704160D01*
X123293465Y-68661431D01*
X123335918Y-68619273D01*
X123341742Y-68612132D01*
X123497053Y-68418965D01*
X123529814Y-68368901D01*
X123563260Y-68319315D01*
X123567586Y-68311179D01*
X123682418Y-68091524D01*
X123704802Y-68036120D01*
X123728007Y-67980919D01*
X123730670Y-67972097D01*
X123800652Y-67734321D01*
X123811861Y-67675559D01*
X123823890Y-67616962D01*
X123824789Y-67607791D01*
X123847253Y-67360951D01*
X123846835Y-67301134D01*
X123847253Y-67241318D01*
X123846354Y-67232147D01*
X123820446Y-66985644D01*
X123808412Y-66927017D01*
X123797208Y-66868284D01*
X123794544Y-66859462D01*
X123721249Y-66622686D01*
X123698074Y-66567555D01*
X123675661Y-66512080D01*
X123671334Y-66503944D01*
X123553446Y-66285914D01*
X123520012Y-66236346D01*
X123487240Y-66186265D01*
X123481416Y-66179124D01*
X123323423Y-65988144D01*
X123280988Y-65946005D01*
X123239125Y-65903255D01*
X123232024Y-65897381D01*
X123039946Y-65740727D01*
X122990169Y-65707655D01*
X122940763Y-65673826D01*
X122932657Y-65669444D01*
X122713809Y-65553081D01*
X122658532Y-65530298D01*
X122603525Y-65506721D01*
X122594722Y-65503997D01*
X122357441Y-65432357D01*
X122298754Y-65420736D01*
X122240248Y-65408300D01*
X122231085Y-65407337D01*
X122231083Y-65407337D01*
X121984405Y-65383150D01*
X121984402Y-65383150D01*
X121952419Y-65380000D01*
X116807581Y-65380000D01*
X116774339Y-65383274D01*
X116757863Y-65383274D01*
X116748698Y-65384237D01*
X116502382Y-65411866D01*
X116443865Y-65424305D01*
X116385192Y-65435922D01*
X116376389Y-65438647D01*
X116140131Y-65513592D01*
X116085209Y-65537132D01*
X116029842Y-65559952D01*
X116021736Y-65564336D01*
X115804534Y-65683744D01*
X115755171Y-65717543D01*
X115705352Y-65750643D01*
X115698252Y-65756517D01*
X115508379Y-65915839D01*
X115466516Y-65958588D01*
X115424082Y-66000727D01*
X115418258Y-66007868D01*
X115262947Y-66201035D01*
X115230186Y-66251099D01*
X115196740Y-66300685D01*
X115192418Y-66308814D01*
X115192415Y-66308819D01*
X115192414Y-66308822D01*
X115077582Y-66528476D01*
X115055173Y-66583942D01*
X115031994Y-66639081D01*
X115029330Y-66647903D01*
X114959348Y-66885679D01*
X114948139Y-66944441D01*
X114936110Y-67003038D01*
X114935211Y-67012209D01*
X114912747Y-67259049D01*
X114913165Y-67318866D01*
X114912747Y-67378682D01*
X114913646Y-67387853D01*
X114939554Y-67634357D01*
X114951588Y-67692983D01*
X114962792Y-67751716D01*
X114965456Y-67760538D01*
X115038751Y-67997314D01*
X115061931Y-68052457D01*
X115084339Y-68107920D01*
X115088665Y-68116054D01*
X115088667Y-68116059D01*
X115088670Y-68116064D01*
X115206553Y-68334086D01*
X115239988Y-68383654D01*
X115272759Y-68433735D01*
X115278584Y-68440876D01*
X115436577Y-68631856D01*
X115479012Y-68673995D01*
X115520875Y-68716745D01*
X115527976Y-68722618D01*
X115720053Y-68879273D01*
X115769875Y-68912374D01*
X115819237Y-68946173D01*
X115827343Y-68950556D01*
X116046191Y-69066919D01*
X116101479Y-69089707D01*
X116156475Y-69113279D01*
X116165278Y-69116003D01*
X116402559Y-69187643D01*
X116461246Y-69199264D01*
X116519752Y-69211700D01*
X116528915Y-69212663D01*
X116528917Y-69212663D01*
X116775595Y-69236850D01*
X116775598Y-69236850D01*
X116807581Y-69240000D01*
X121243066Y-69240000D01*
X120966602Y-69516464D01*
X120810983Y-69485510D01*
X120489017Y-69485510D01*
X120173237Y-69548322D01*
X119875778Y-69671533D01*
X119608073Y-69850408D01*
X119380408Y-70078073D01*
X119201533Y-70345778D01*
X119078322Y-70643237D01*
X119062500Y-70722780D01*
X119046678Y-70643237D01*
X118923467Y-70345778D01*
X118744592Y-70078073D01*
X118516927Y-69850408D01*
X118249222Y-69671533D01*
X117951763Y-69548322D01*
X117635983Y-69485510D01*
X117314017Y-69485510D01*
X116998237Y-69548322D01*
X116700778Y-69671533D01*
X116433073Y-69850408D01*
X116205408Y-70078073D01*
X116026533Y-70345778D01*
X115937562Y-70560574D01*
X115937562Y-70120510D01*
X115925302Y-69996028D01*
X115888992Y-69876330D01*
X115830027Y-69766016D01*
X115750675Y-69669325D01*
X115653984Y-69589973D01*
X115543670Y-69531008D01*
X115423972Y-69494698D01*
X115299490Y-69482438D01*
X113300510Y-69482438D01*
X113176028Y-69494698D01*
X113056330Y-69531008D01*
X112946016Y-69589973D01*
X112849325Y-69669325D01*
X112769973Y-69766016D01*
X112711008Y-69876330D01*
X112674698Y-69996028D01*
X112662438Y-70120510D01*
X112662438Y-71470629D01*
X112418149Y-71714918D01*
X112383420Y-71743419D01*
X112341026Y-71795077D01*
X112269702Y-71881985D01*
X112185202Y-72040074D01*
X112133168Y-72211609D01*
X112115597Y-72390000D01*
X112120001Y-72434711D01*
X112120001Y-72542183D01*
X112115241Y-72545363D01*
X111915363Y-72745241D01*
X111758320Y-72980273D01*
X111650147Y-73241426D01*
X111595000Y-73518665D01*
X111595000Y-73801335D01*
X111650147Y-74078574D01*
X111758320Y-74339727D01*
X111915363Y-74574759D01*
X112115241Y-74774637D01*
X112350273Y-74931680D01*
X112611426Y-75039853D01*
X112888665Y-75095000D01*
X113171335Y-75095000D01*
X113448574Y-75039853D01*
X113709727Y-74931680D01*
X113944759Y-74774637D01*
X114129396Y-74590000D01*
X115571928Y-74590000D01*
X115575000Y-75304250D01*
X115733750Y-75463000D01*
X117983000Y-75463000D01*
X117983000Y-74113750D01*
X117824250Y-73955000D01*
X116210000Y-73951928D01*
X116085518Y-73964188D01*
X115965820Y-74000498D01*
X115855506Y-74059463D01*
X115758815Y-74138815D01*
X115679463Y-74235506D01*
X115620498Y-74345820D01*
X115584188Y-74465518D01*
X115571928Y-74590000D01*
X114129396Y-74590000D01*
X114144637Y-74574759D01*
X114301680Y-74339727D01*
X114409853Y-74078574D01*
X114465000Y-73801335D01*
X114465000Y-73518665D01*
X114409853Y-73241426D01*
X114301680Y-72980273D01*
X114152870Y-72757562D01*
X115299490Y-72757562D01*
X115423972Y-72745302D01*
X115543670Y-72708992D01*
X115653984Y-72650027D01*
X115750675Y-72570675D01*
X115830027Y-72473984D01*
X115888992Y-72363670D01*
X115925302Y-72243972D01*
X115937562Y-72119490D01*
X115937562Y-71679426D01*
X116026533Y-71894222D01*
X116205408Y-72161927D01*
X116433073Y-72389592D01*
X116700778Y-72568467D01*
X116998237Y-72691678D01*
X117314017Y-72754490D01*
X117635983Y-72754490D01*
X117791602Y-72723536D01*
X119021875Y-73953808D01*
X118395750Y-73955000D01*
X118237000Y-74113750D01*
X118237000Y-75463000D01*
X120486250Y-75463000D01*
X120645000Y-75304250D01*
X120648072Y-74590000D01*
X120646102Y-74570000D01*
X122072183Y-74570000D01*
X122075363Y-74574759D01*
X122275241Y-74774637D01*
X122510273Y-74931680D01*
X122771426Y-75039853D01*
X123048665Y-75095000D01*
X123331335Y-75095000D01*
X123608574Y-75039853D01*
X123869727Y-74931680D01*
X124104759Y-74774637D01*
X124289396Y-74590000D01*
X125731928Y-74590000D01*
X125735000Y-75304250D01*
X125893750Y-75463000D01*
X128143000Y-75463000D01*
X128143000Y-74113750D01*
X128397000Y-74113750D01*
X128397000Y-75463000D01*
X130646250Y-75463000D01*
X130805000Y-75304250D01*
X130808072Y-74590000D01*
X130795812Y-74465518D01*
X130759502Y-74345820D01*
X130700537Y-74235506D01*
X130621185Y-74138815D01*
X130524494Y-74059463D01*
X130414180Y-74000498D01*
X130294482Y-73964188D01*
X130170000Y-73951928D01*
X128555750Y-73955000D01*
X128397000Y-74113750D01*
X128143000Y-74113750D01*
X127984250Y-73955000D01*
X126370000Y-73951928D01*
X126245518Y-73964188D01*
X126125820Y-74000498D01*
X126015506Y-74059463D01*
X125918815Y-74138815D01*
X125839463Y-74235506D01*
X125780498Y-74345820D01*
X125744188Y-74465518D01*
X125731928Y-74590000D01*
X124289396Y-74590000D01*
X124304637Y-74574759D01*
X124461680Y-74339727D01*
X124569853Y-74078574D01*
X124625000Y-73801335D01*
X124625000Y-73518665D01*
X124569853Y-73241426D01*
X124461680Y-72980273D01*
X124304637Y-72745241D01*
X124259484Y-72700088D01*
X124301763Y-72691678D01*
X124599222Y-72568467D01*
X124866927Y-72389592D01*
X125094592Y-72161927D01*
X125273467Y-71894222D01*
X125396678Y-71596763D01*
X125459490Y-71280983D01*
X125459490Y-70959017D01*
X125396678Y-70643237D01*
X125360340Y-70555509D01*
X128958576Y-70555509D01*
X131916117Y-73513051D01*
X131915000Y-73518665D01*
X131915000Y-73801335D01*
X131970147Y-74078574D01*
X132078320Y-74339727D01*
X132235363Y-74574759D01*
X132435241Y-74774637D01*
X132670273Y-74931680D01*
X132931426Y-75039853D01*
X133208665Y-75095000D01*
X133491335Y-75095000D01*
X133768574Y-75039853D01*
X133960000Y-74960562D01*
X133960000Y-79979438D01*
X133768574Y-79900147D01*
X133491335Y-79845000D01*
X133208665Y-79845000D01*
X132931426Y-79900147D01*
X132670273Y-80008320D01*
X132435241Y-80165363D01*
X132235363Y-80365241D01*
X132078320Y-80600273D01*
X131970147Y-80861426D01*
X131958072Y-80922130D01*
X131958072Y-80890000D01*
X131945812Y-80765518D01*
X131909502Y-80645820D01*
X131850537Y-80535506D01*
X131771185Y-80438815D01*
X131674494Y-80359463D01*
X131564180Y-80300498D01*
X131444482Y-80264188D01*
X131320000Y-80251928D01*
X129820000Y-80251928D01*
X129695518Y-80264188D01*
X129575820Y-80300498D01*
X129465506Y-80359463D01*
X129420000Y-80396809D01*
X129374494Y-80359463D01*
X129264180Y-80300498D01*
X129144482Y-80264188D01*
X129020000Y-80251928D01*
X128555750Y-80255000D01*
X128397000Y-80413750D01*
X128397000Y-81763000D01*
X128417000Y-81763000D01*
X128417000Y-82017000D01*
X128397000Y-82017000D01*
X128397000Y-83366250D01*
X128555750Y-83525000D01*
X129020000Y-83528072D01*
X129144482Y-83515812D01*
X129264180Y-83479502D01*
X129374494Y-83420537D01*
X129420000Y-83383191D01*
X129465506Y-83420537D01*
X129575820Y-83479502D01*
X129695518Y-83515812D01*
X129820000Y-83528072D01*
X131320000Y-83528072D01*
X131444482Y-83515812D01*
X131564180Y-83479502D01*
X131674494Y-83420537D01*
X131771185Y-83341185D01*
X131850537Y-83244494D01*
X131909502Y-83134180D01*
X131945812Y-83014482D01*
X131958072Y-82890000D01*
X131958072Y-82800000D01*
X132695298Y-82800000D01*
X132740000Y-82804403D01*
X132784702Y-82800000D01*
X132784704Y-82800000D01*
X132918391Y-82786833D01*
X133089927Y-82734798D01*
X133149124Y-82703156D01*
X133208665Y-82715000D01*
X133491335Y-82715000D01*
X133768574Y-82659853D01*
X133960000Y-82580562D01*
X133960001Y-130777711D01*
X133945278Y-130927869D01*
X133911047Y-131041246D01*
X133855446Y-131145817D01*
X133780594Y-131237595D01*
X133689335Y-131313091D01*
X133585160Y-131369419D01*
X133472024Y-131404440D01*
X133323979Y-131420000D01*
X105442279Y-131420000D01*
X105292131Y-131405278D01*
X105178754Y-131371047D01*
X105074183Y-131315446D01*
X104982405Y-131240594D01*
X104906909Y-131149335D01*
X104850581Y-131045160D01*
X104815560Y-130932024D01*
X104800000Y-130783979D01*
X104800000Y-128219049D01*
X106022747Y-128219049D01*
X106023165Y-128278866D01*
X106022747Y-128338682D01*
X106023646Y-128347853D01*
X106049554Y-128594357D01*
X106061588Y-128652983D01*
X106072792Y-128711716D01*
X106075456Y-128720538D01*
X106148751Y-128957314D01*
X106171931Y-129012457D01*
X106194339Y-129067920D01*
X106198665Y-129076054D01*
X106198667Y-129076059D01*
X106198670Y-129076064D01*
X106316553Y-129294086D01*
X106349988Y-129343654D01*
X106382759Y-129393735D01*
X106388584Y-129400876D01*
X106546577Y-129591856D01*
X106589012Y-129633995D01*
X106630875Y-129676745D01*
X106637976Y-129682618D01*
X106830053Y-129839273D01*
X106879875Y-129872374D01*
X106929237Y-129906173D01*
X106937343Y-129910556D01*
X107156191Y-130026919D01*
X107211479Y-130049707D01*
X107266475Y-130073279D01*
X107275278Y-130076003D01*
X107512559Y-130147643D01*
X107571246Y-130159264D01*
X107629752Y-130171700D01*
X107638915Y-130172663D01*
X107638917Y-130172663D01*
X107885595Y-130196850D01*
X107885598Y-130196850D01*
X107917581Y-130200000D01*
X111792419Y-130200000D01*
X111825661Y-130196726D01*
X111842137Y-130196726D01*
X111851302Y-130195763D01*
X112097618Y-130168134D01*
X112156098Y-130155703D01*
X112214808Y-130144079D01*
X112223611Y-130141353D01*
X112459869Y-130066408D01*
X112514824Y-130042854D01*
X112570158Y-130020047D01*
X112578264Y-130015664D01*
X112795466Y-129896256D01*
X112844791Y-129862482D01*
X112894648Y-129829357D01*
X112901749Y-129823483D01*
X113091621Y-129664160D01*
X113133465Y-129621431D01*
X113175918Y-129579273D01*
X113181742Y-129572132D01*
X113337053Y-129378965D01*
X113369814Y-129328901D01*
X113403260Y-129279315D01*
X113407586Y-129271179D01*
X113522418Y-129051524D01*
X113544802Y-128996120D01*
X113568007Y-128940919D01*
X113570670Y-128932097D01*
X113640652Y-128694321D01*
X113651861Y-128635559D01*
X113663890Y-128576962D01*
X113664789Y-128567791D01*
X113687253Y-128320951D01*
X113686835Y-128261135D01*
X113687253Y-128201318D01*
X113686354Y-128192147D01*
X113660446Y-127945644D01*
X113648412Y-127887017D01*
X113637208Y-127828284D01*
X113634544Y-127819462D01*
X113561249Y-127582686D01*
X113538074Y-127527555D01*
X113515661Y-127472080D01*
X113511334Y-127463944D01*
X113393446Y-127245914D01*
X113360012Y-127196346D01*
X113327240Y-127146265D01*
X113321416Y-127139124D01*
X113163423Y-126948144D01*
X113120988Y-126906005D01*
X113079125Y-126863255D01*
X113072024Y-126857381D01*
X112879946Y-126700727D01*
X112830169Y-126667655D01*
X112780763Y-126633826D01*
X112772657Y-126629444D01*
X112553809Y-126513081D01*
X112498532Y-126490298D01*
X112443525Y-126466721D01*
X112434722Y-126463997D01*
X112197441Y-126392357D01*
X112138754Y-126380736D01*
X112080248Y-126368300D01*
X112071085Y-126367337D01*
X112071083Y-126367337D01*
X111840009Y-126344680D01*
X111945625Y-126344680D01*
X112309741Y-126272253D01*
X112652731Y-126130182D01*
X112961413Y-125923926D01*
X113223926Y-125661413D01*
X113351825Y-125470000D01*
X116071315Y-125470000D01*
X116137114Y-125535799D01*
X116363957Y-125687371D01*
X116616011Y-125791775D01*
X116883589Y-125845000D01*
X117156411Y-125845000D01*
X117423989Y-125791775D01*
X117676043Y-125687371D01*
X117902886Y-125535799D01*
X118095799Y-125342886D01*
X118247371Y-125116043D01*
X118351775Y-124863989D01*
X118405000Y-124596411D01*
X118405000Y-124323589D01*
X120535000Y-124323589D01*
X120535000Y-124596411D01*
X120588225Y-124863989D01*
X120692629Y-125116043D01*
X120844201Y-125342886D01*
X121037114Y-125535799D01*
X121263957Y-125687371D01*
X121516011Y-125791775D01*
X121783589Y-125845000D01*
X122056411Y-125845000D01*
X122323989Y-125791775D01*
X122576043Y-125687371D01*
X122802886Y-125535799D01*
X122868685Y-125470000D01*
X125112248Y-125470000D01*
X125112248Y-125709680D01*
X125124508Y-125834162D01*
X125160818Y-125953860D01*
X125219783Y-126064174D01*
X125299135Y-126160865D01*
X125395826Y-126240217D01*
X125506140Y-126299182D01*
X125625838Y-126335492D01*
X125684596Y-126341279D01*
X125664339Y-126343274D01*
X125647863Y-126343274D01*
X125638698Y-126344237D01*
X125392382Y-126371866D01*
X125333865Y-126384305D01*
X125275192Y-126395922D01*
X125266389Y-126398647D01*
X125030131Y-126473592D01*
X124975209Y-126497132D01*
X124919842Y-126519952D01*
X124911736Y-126524336D01*
X124694534Y-126643744D01*
X124645171Y-126677543D01*
X124595352Y-126710643D01*
X124588252Y-126716517D01*
X124398379Y-126875839D01*
X124356516Y-126918588D01*
X124314082Y-126960727D01*
X124308258Y-126967868D01*
X124152947Y-127161035D01*
X124120186Y-127211099D01*
X124086740Y-127260685D01*
X124082418Y-127268814D01*
X124082415Y-127268819D01*
X124082414Y-127268822D01*
X123967582Y-127488476D01*
X123945173Y-127543942D01*
X123921994Y-127599081D01*
X123919330Y-127607903D01*
X123849348Y-127845679D01*
X123838139Y-127904441D01*
X123826110Y-127963038D01*
X123825211Y-127972209D01*
X123802747Y-128219049D01*
X123803165Y-128278866D01*
X123802747Y-128338682D01*
X123803646Y-128347853D01*
X123829554Y-128594357D01*
X123841588Y-128652983D01*
X123852792Y-128711716D01*
X123855456Y-128720538D01*
X123928751Y-128957314D01*
X123951931Y-129012457D01*
X123974339Y-129067920D01*
X123978665Y-129076054D01*
X123978667Y-129076059D01*
X123978670Y-129076064D01*
X124096553Y-129294086D01*
X124129988Y-129343654D01*
X124162759Y-129393735D01*
X124168584Y-129400876D01*
X124326577Y-129591856D01*
X124369012Y-129633995D01*
X124410875Y-129676745D01*
X124417976Y-129682618D01*
X124610053Y-129839273D01*
X124659875Y-129872374D01*
X124709237Y-129906173D01*
X124717343Y-129910556D01*
X124936191Y-130026919D01*
X124991479Y-130049707D01*
X125046475Y-130073279D01*
X125055278Y-130076003D01*
X125292559Y-130147643D01*
X125351246Y-130159264D01*
X125409752Y-130171700D01*
X125418915Y-130172663D01*
X125418917Y-130172663D01*
X125665595Y-130196850D01*
X125665598Y-130196850D01*
X125697581Y-130200000D01*
X130842419Y-130200000D01*
X130875661Y-130196726D01*
X130892137Y-130196726D01*
X130901302Y-130195763D01*
X131147618Y-130168134D01*
X131206098Y-130155703D01*
X131264808Y-130144079D01*
X131273611Y-130141353D01*
X131509869Y-130066408D01*
X131564824Y-130042854D01*
X131620158Y-130020047D01*
X131628264Y-130015664D01*
X131845466Y-129896256D01*
X131894791Y-129862482D01*
X131944648Y-129829357D01*
X131951749Y-129823483D01*
X132141621Y-129664160D01*
X132183465Y-129621431D01*
X132225918Y-129579273D01*
X132231742Y-129572132D01*
X132387053Y-129378965D01*
X132419814Y-129328901D01*
X132453260Y-129279315D01*
X132457586Y-129271179D01*
X132572418Y-129051524D01*
X132594802Y-128996120D01*
X132618007Y-128940919D01*
X132620670Y-128932097D01*
X132690652Y-128694321D01*
X132701861Y-128635559D01*
X132713890Y-128576962D01*
X132714789Y-128567791D01*
X132737253Y-128320951D01*
X132736835Y-128261135D01*
X132737253Y-128201318D01*
X132736354Y-128192147D01*
X132710446Y-127945644D01*
X132698412Y-127887017D01*
X132687208Y-127828284D01*
X132684544Y-127819462D01*
X132611249Y-127582686D01*
X132588074Y-127527555D01*
X132565661Y-127472080D01*
X132561334Y-127463944D01*
X132443446Y-127245914D01*
X132410012Y-127196346D01*
X132377240Y-127146265D01*
X132371416Y-127139124D01*
X132213423Y-126948144D01*
X132170988Y-126906005D01*
X132129125Y-126863255D01*
X132122024Y-126857381D01*
X131929946Y-126700727D01*
X131880169Y-126667655D01*
X131830763Y-126633826D01*
X131822657Y-126629444D01*
X131603809Y-126513081D01*
X131548532Y-126490298D01*
X131493525Y-126466721D01*
X131484722Y-126463997D01*
X131247441Y-126392357D01*
X131188754Y-126380736D01*
X131130248Y-126368300D01*
X131121085Y-126367337D01*
X131121083Y-126367337D01*
X130911935Y-126346830D01*
X131231025Y-126306405D01*
X131583151Y-126188789D01*
X131817896Y-126063315D01*
X131943771Y-125773377D01*
X130810000Y-124639605D01*
X129676229Y-125773377D01*
X129802104Y-126063315D01*
X130134262Y-126229139D01*
X130492387Y-126326975D01*
X130677269Y-126340000D01*
X128328390Y-126340000D01*
X128374162Y-126335492D01*
X128493860Y-126299182D01*
X128604174Y-126240217D01*
X128700865Y-126160865D01*
X128780217Y-126064174D01*
X128839182Y-125953860D01*
X128875492Y-125834162D01*
X128887752Y-125709680D01*
X128887752Y-124512719D01*
X128916935Y-124512719D01*
X128963595Y-124881025D01*
X129081211Y-125233151D01*
X129206685Y-125467896D01*
X129496623Y-125593771D01*
X130630395Y-124460000D01*
X130989605Y-124460000D01*
X132123377Y-125593771D01*
X132413315Y-125467896D01*
X132579139Y-125135738D01*
X132676975Y-124777613D01*
X132703065Y-124407281D01*
X132656405Y-124038975D01*
X132538789Y-123686849D01*
X132413315Y-123452104D01*
X132123377Y-123326229D01*
X130989605Y-124460000D01*
X130630395Y-124460000D01*
X129496623Y-123326229D01*
X129206685Y-123452104D01*
X129040861Y-123784262D01*
X128943025Y-124142387D01*
X128916935Y-124512719D01*
X128887752Y-124512719D01*
X128887752Y-123210320D01*
X128881479Y-123146623D01*
X129676229Y-123146623D01*
X130810000Y-124280395D01*
X131943771Y-123146623D01*
X131817896Y-122856685D01*
X131485738Y-122690861D01*
X131127613Y-122593025D01*
X130757281Y-122566935D01*
X130388975Y-122613595D01*
X130036849Y-122731211D01*
X129802104Y-122856685D01*
X129676229Y-123146623D01*
X128881479Y-123146623D01*
X128875492Y-123085838D01*
X128839182Y-122966140D01*
X128780217Y-122855826D01*
X128700865Y-122759135D01*
X128604174Y-122679783D01*
X128493860Y-122620818D01*
X128374162Y-122584508D01*
X128249680Y-122572248D01*
X125750320Y-122572248D01*
X125625838Y-122584508D01*
X125506140Y-122620818D01*
X125395826Y-122679783D01*
X125299135Y-122759135D01*
X125219783Y-122855826D01*
X125160818Y-122966140D01*
X125124508Y-123085838D01*
X125112248Y-123210320D01*
X125112248Y-123450000D01*
X122868685Y-123450000D01*
X122802886Y-123384201D01*
X122576043Y-123232629D01*
X122323989Y-123128225D01*
X122056411Y-123075000D01*
X121783589Y-123075000D01*
X121516011Y-123128225D01*
X121263957Y-123232629D01*
X121037114Y-123384201D01*
X120844201Y-123577114D01*
X120692629Y-123803957D01*
X120588225Y-124056011D01*
X120535000Y-124323589D01*
X118405000Y-124323589D01*
X118351775Y-124056011D01*
X118247371Y-123803957D01*
X118095799Y-123577114D01*
X117902886Y-123384201D01*
X117676043Y-123232629D01*
X117423989Y-123128225D01*
X117156411Y-123075000D01*
X116883589Y-123075000D01*
X116616011Y-123128225D01*
X116363957Y-123232629D01*
X116137114Y-123384201D01*
X116071315Y-123450000D01*
X113351825Y-123450000D01*
X113223926Y-123258587D01*
X112961413Y-122996074D01*
X112652731Y-122789818D01*
X112309741Y-122647747D01*
X111945625Y-122575320D01*
X111574375Y-122575320D01*
X111210259Y-122647747D01*
X110867269Y-122789818D01*
X110558587Y-122996074D01*
X110296074Y-123258587D01*
X110089818Y-123567269D01*
X109947747Y-123910259D01*
X109875320Y-124274375D01*
X109875320Y-124645625D01*
X109947747Y-125009741D01*
X110089818Y-125352731D01*
X110296074Y-125661413D01*
X110558587Y-125923926D01*
X110867269Y-126130182D01*
X111210259Y-126272253D01*
X111550847Y-126340000D01*
X109278390Y-126340000D01*
X109324162Y-126335492D01*
X109443860Y-126299182D01*
X109554174Y-126240217D01*
X109650865Y-126160865D01*
X109730217Y-126064174D01*
X109789182Y-125953860D01*
X109825492Y-125834162D01*
X109837752Y-125709680D01*
X109837752Y-123210320D01*
X109825492Y-123085838D01*
X109789182Y-122966140D01*
X109730217Y-122855826D01*
X109650865Y-122759135D01*
X109554174Y-122679783D01*
X109443860Y-122620818D01*
X109324162Y-122584508D01*
X109199680Y-122572248D01*
X106700320Y-122572248D01*
X106575838Y-122584508D01*
X106456140Y-122620818D01*
X106345826Y-122679783D01*
X106249135Y-122759135D01*
X106169783Y-122855826D01*
X106110818Y-122966140D01*
X106074508Y-123085838D01*
X106062248Y-123210320D01*
X106062248Y-125709680D01*
X106074508Y-125834162D01*
X106110818Y-125953860D01*
X106169783Y-126064174D01*
X106249135Y-126160865D01*
X106345826Y-126240217D01*
X106456140Y-126299182D01*
X106575838Y-126335492D01*
X106700320Y-126347752D01*
X107827361Y-126347752D01*
X107612382Y-126371866D01*
X107553865Y-126384305D01*
X107495192Y-126395922D01*
X107486389Y-126398647D01*
X107250131Y-126473592D01*
X107195209Y-126497132D01*
X107139842Y-126519952D01*
X107131736Y-126524336D01*
X106914534Y-126643744D01*
X106865171Y-126677543D01*
X106815352Y-126710643D01*
X106808252Y-126716517D01*
X106618379Y-126875839D01*
X106576516Y-126918588D01*
X106534082Y-126960727D01*
X106528258Y-126967868D01*
X106372947Y-127161035D01*
X106340186Y-127211099D01*
X106306740Y-127260685D01*
X106302418Y-127268814D01*
X106302415Y-127268819D01*
X106302414Y-127268822D01*
X106187582Y-127488476D01*
X106165173Y-127543942D01*
X106141994Y-127599081D01*
X106139330Y-127607903D01*
X106069348Y-127845679D01*
X106058139Y-127904441D01*
X106046110Y-127963038D01*
X106045211Y-127972209D01*
X106022747Y-128219049D01*
X104800000Y-128219049D01*
X104800000Y-83518223D01*
X104890660Y-83527152D01*
X104898038Y-83551473D01*
X104973251Y-83692189D01*
X105028852Y-83759939D01*
X105074473Y-83815528D01*
X105105383Y-83840895D01*
X107519553Y-86255065D01*
X107270273Y-86358320D01*
X107035241Y-86515363D01*
X106835363Y-86715241D01*
X106678320Y-86950273D01*
X106570147Y-87211426D01*
X106515000Y-87488665D01*
X106515000Y-87771335D01*
X106570147Y-88048574D01*
X106678320Y-88309727D01*
X106835363Y-88544759D01*
X107035241Y-88744637D01*
X107267759Y-88900000D01*
X107035241Y-89055363D01*
X106835363Y-89255241D01*
X106678320Y-89490273D01*
X106570147Y-89751426D01*
X106515000Y-90028665D01*
X106515000Y-90311335D01*
X106570147Y-90588574D01*
X106678320Y-90849727D01*
X106835363Y-91084759D01*
X107035241Y-91284637D01*
X107267759Y-91440000D01*
X107035241Y-91595363D01*
X106835363Y-91795241D01*
X106678320Y-92030273D01*
X106570147Y-92291426D01*
X106515000Y-92568665D01*
X106515000Y-92851335D01*
X106570147Y-93128574D01*
X106678320Y-93389727D01*
X106835363Y-93624759D01*
X107035241Y-93824637D01*
X107267759Y-93980000D01*
X107035241Y-94135363D01*
X106835363Y-94335241D01*
X106678320Y-94570273D01*
X106570147Y-94831426D01*
X106515000Y-95108665D01*
X106515000Y-95391335D01*
X106570147Y-95668574D01*
X106678320Y-95929727D01*
X106835363Y-96164759D01*
X107035241Y-96364637D01*
X107267759Y-96520000D01*
X107035241Y-96675363D01*
X106835363Y-96875241D01*
X106678320Y-97110273D01*
X106570147Y-97371426D01*
X106550923Y-97468071D01*
X106445000Y-97555000D01*
X106350027Y-97670725D01*
X106279455Y-97802754D01*
X106235998Y-97946015D01*
X106221324Y-98095001D01*
X106235998Y-98243987D01*
X106279455Y-98387248D01*
X106350027Y-98519277D01*
X106445000Y-98635002D01*
X106560725Y-98729975D01*
X106692754Y-98800547D01*
X106836015Y-98844004D01*
X106947668Y-98855001D01*
X106985605Y-98855001D01*
X107035241Y-98904637D01*
X107267759Y-99060000D01*
X107035241Y-99215363D01*
X106835363Y-99415241D01*
X106678320Y-99650273D01*
X106570147Y-99911426D01*
X106515000Y-100188665D01*
X106515000Y-100471335D01*
X106570147Y-100748574D01*
X106678320Y-101009727D01*
X106835363Y-101244759D01*
X107035241Y-101444637D01*
X107267759Y-101600000D01*
X107035241Y-101755363D01*
X106835363Y-101955241D01*
X106678320Y-102190273D01*
X106570147Y-102451426D01*
X106515000Y-102728665D01*
X106515000Y-103011335D01*
X106570147Y-103288574D01*
X106678320Y-103549727D01*
X106835363Y-103784759D01*
X107035241Y-103984637D01*
X107267759Y-104140000D01*
X107035241Y-104295363D01*
X106835363Y-104495241D01*
X106678320Y-104730273D01*
X106570147Y-104991426D01*
X106515000Y-105268665D01*
X106515000Y-105551335D01*
X106570147Y-105828574D01*
X106678320Y-106089727D01*
X106835363Y-106324759D01*
X107035241Y-106524637D01*
X107267759Y-106680000D01*
X107035241Y-106835363D01*
X106835363Y-107035241D01*
X106678320Y-107270273D01*
X106570147Y-107531426D01*
X106515000Y-107808665D01*
X106515000Y-108091335D01*
X106570147Y-108368574D01*
X106678320Y-108629727D01*
X106835363Y-108864759D01*
X107035241Y-109064637D01*
X107267759Y-109220000D01*
X107035241Y-109375363D01*
X106835363Y-109575241D01*
X106678320Y-109810273D01*
X106570147Y-110071426D01*
X106515000Y-110348665D01*
X106515000Y-110631335D01*
X106570147Y-110908574D01*
X106678320Y-111169727D01*
X106835363Y-111404759D01*
X107035241Y-111604637D01*
X107267759Y-111760000D01*
X107035241Y-111915363D01*
X106835363Y-112115241D01*
X106678320Y-112350273D01*
X106570147Y-112611426D01*
X106515000Y-112888665D01*
X106515000Y-113171335D01*
X106570147Y-113448574D01*
X106678320Y-113709727D01*
X106835363Y-113944759D01*
X107035241Y-114144637D01*
X107267759Y-114300000D01*
X107035241Y-114455363D01*
X106835363Y-114655241D01*
X106678320Y-114890273D01*
X106570147Y-115151426D01*
X106515000Y-115428665D01*
X106515000Y-115711335D01*
X106570147Y-115988574D01*
X106678320Y-116249727D01*
X106835363Y-116484759D01*
X107035241Y-116684637D01*
X107267759Y-116840000D01*
X107035241Y-116995363D01*
X106835363Y-117195241D01*
X106678320Y-117430273D01*
X106570147Y-117691426D01*
X106515000Y-117968665D01*
X106515000Y-118251335D01*
X106570147Y-118528574D01*
X106678320Y-118789727D01*
X106835363Y-119024759D01*
X107035241Y-119224637D01*
X107267759Y-119380000D01*
X107035241Y-119535363D01*
X106835363Y-119735241D01*
X106678320Y-119970273D01*
X106570147Y-120231426D01*
X106515000Y-120508665D01*
X106515000Y-120791335D01*
X106570147Y-121068574D01*
X106678320Y-121329727D01*
X106835363Y-121564759D01*
X107035241Y-121764637D01*
X107270273Y-121921680D01*
X107531426Y-122029853D01*
X107808665Y-122085000D01*
X108091335Y-122085000D01*
X108368574Y-122029853D01*
X108629727Y-121921680D01*
X108864759Y-121764637D01*
X109064637Y-121564759D01*
X109221680Y-121329727D01*
X109329853Y-121068574D01*
X109385000Y-120791335D01*
X109385000Y-120508665D01*
X109329853Y-120231426D01*
X109221680Y-119970273D01*
X109064637Y-119735241D01*
X108864759Y-119535363D01*
X108632241Y-119380000D01*
X108864759Y-119224637D01*
X109064637Y-119024759D01*
X109221680Y-118789727D01*
X109329853Y-118528574D01*
X109385000Y-118251335D01*
X109385000Y-117968665D01*
X109329853Y-117691426D01*
X109221680Y-117430273D01*
X109064637Y-117195241D01*
X108864759Y-116995363D01*
X108632241Y-116840000D01*
X108864759Y-116684637D01*
X109064637Y-116484759D01*
X109221680Y-116249727D01*
X109329853Y-115988574D01*
X109385000Y-115711335D01*
X109385000Y-115428665D01*
X109329853Y-115151426D01*
X109221680Y-114890273D01*
X109064637Y-114655241D01*
X108864759Y-114455363D01*
X108632241Y-114300000D01*
X108864759Y-114144637D01*
X109064637Y-113944759D01*
X109221680Y-113709727D01*
X109329853Y-113448574D01*
X109385000Y-113171335D01*
X109385000Y-112888665D01*
X109329853Y-112611426D01*
X109221680Y-112350273D01*
X109064637Y-112115241D01*
X108864759Y-111915363D01*
X108632241Y-111760000D01*
X108864759Y-111604637D01*
X109064637Y-111404759D01*
X109221680Y-111169727D01*
X109329853Y-110908574D01*
X109385000Y-110631335D01*
X109385000Y-110348665D01*
X109329853Y-110071426D01*
X109221680Y-109810273D01*
X109064637Y-109575241D01*
X108864759Y-109375363D01*
X108632241Y-109220000D01*
X108864759Y-109064637D01*
X109064637Y-108864759D01*
X109221680Y-108629727D01*
X109329853Y-108368574D01*
X109385000Y-108091335D01*
X109385000Y-107808665D01*
X109329853Y-107531426D01*
X109221680Y-107270273D01*
X109064637Y-107035241D01*
X108864759Y-106835363D01*
X108632241Y-106680000D01*
X108864759Y-106524637D01*
X109064637Y-106324759D01*
X109221680Y-106089727D01*
X109329853Y-105828574D01*
X109385000Y-105551335D01*
X109385000Y-105268665D01*
X109329853Y-104991426D01*
X109221680Y-104730273D01*
X109064637Y-104495241D01*
X108864759Y-104295363D01*
X108632241Y-104140000D01*
X108864759Y-103984637D01*
X109064637Y-103784759D01*
X109221680Y-103549727D01*
X109329853Y-103288574D01*
X109385000Y-103011335D01*
X109385000Y-102728665D01*
X109329853Y-102451426D01*
X109221680Y-102190273D01*
X109064637Y-101955241D01*
X108864759Y-101755363D01*
X108632241Y-101600000D01*
X108864759Y-101444637D01*
X109064637Y-101244759D01*
X109221680Y-101009727D01*
X109329853Y-100748574D01*
X109385000Y-100471335D01*
X109385000Y-100188665D01*
X109329853Y-99911426D01*
X109221680Y-99650273D01*
X109064637Y-99415241D01*
X108864759Y-99215363D01*
X108632241Y-99060000D01*
X108864759Y-98904637D01*
X109064637Y-98704759D01*
X109221680Y-98469727D01*
X109329853Y-98208574D01*
X109385000Y-97931335D01*
X109385000Y-97648665D01*
X109329853Y-97371426D01*
X109221680Y-97110273D01*
X109064637Y-96875241D01*
X108864759Y-96675363D01*
X108632241Y-96520000D01*
X108864759Y-96364637D01*
X109064637Y-96164759D01*
X109221680Y-95929727D01*
X109329853Y-95668574D01*
X109385000Y-95391335D01*
X109385000Y-95108665D01*
X109329853Y-94831426D01*
X109221680Y-94570273D01*
X109064637Y-94335241D01*
X108864759Y-94135363D01*
X108632241Y-93980000D01*
X108864759Y-93824637D01*
X109064637Y-93624759D01*
X109221680Y-93389727D01*
X109329853Y-93128574D01*
X109385000Y-92851335D01*
X109385000Y-92568665D01*
X109329853Y-92291426D01*
X109221680Y-92030273D01*
X109064637Y-91795241D01*
X108864759Y-91595363D01*
X108632241Y-91440000D01*
X108864759Y-91284637D01*
X109064637Y-91084759D01*
X109221680Y-90849727D01*
X109329853Y-90588574D01*
X109385000Y-90311335D01*
X109385000Y-90028665D01*
X109329853Y-89751426D01*
X109221680Y-89490273D01*
X109064637Y-89255241D01*
X108864759Y-89055363D01*
X108632241Y-88900000D01*
X108864759Y-88744637D01*
X109064637Y-88544759D01*
X109221680Y-88309727D01*
X109324935Y-88060447D01*
X112484979Y-91220491D01*
X112484980Y-108175181D01*
X112481060Y-108214979D01*
X112496700Y-108373766D01*
X112543017Y-108526452D01*
X112618230Y-108667168D01*
X112646785Y-108701962D01*
X112719452Y-108790507D01*
X112750362Y-108815874D01*
X114159580Y-110225093D01*
X114135000Y-110348665D01*
X114135000Y-110631335D01*
X114190147Y-110908574D01*
X114298320Y-111169727D01*
X114455363Y-111404759D01*
X114655241Y-111604637D01*
X114887759Y-111760000D01*
X114655241Y-111915363D01*
X114455363Y-112115241D01*
X114298320Y-112350273D01*
X114190147Y-112611426D01*
X114135000Y-112888665D01*
X114135000Y-113171335D01*
X114190147Y-113448574D01*
X114298320Y-113709727D01*
X114455363Y-113944759D01*
X114655241Y-114144637D01*
X114887759Y-114300000D01*
X114655241Y-114455363D01*
X114455363Y-114655241D01*
X114298320Y-114890273D01*
X114190147Y-115151426D01*
X114135000Y-115428665D01*
X114135000Y-115711335D01*
X114190147Y-115988574D01*
X114298320Y-116249727D01*
X114455363Y-116484759D01*
X114655241Y-116684637D01*
X114887759Y-116840000D01*
X114655241Y-116995363D01*
X114455363Y-117195241D01*
X114298320Y-117430273D01*
X114190147Y-117691426D01*
X114135000Y-117968665D01*
X114135000Y-118251335D01*
X114190147Y-118528574D01*
X114298320Y-118789727D01*
X114455363Y-119024759D01*
X114653961Y-119223357D01*
X114645518Y-119224188D01*
X114525820Y-119260498D01*
X114415506Y-119319463D01*
X114318815Y-119398815D01*
X114239463Y-119495506D01*
X114180498Y-119605820D01*
X114144188Y-119725518D01*
X114131928Y-119850000D01*
X114131928Y-121450000D01*
X114144188Y-121574482D01*
X114180498Y-121694180D01*
X114239463Y-121804494D01*
X114318815Y-121901185D01*
X114415506Y-121980537D01*
X114525820Y-122039502D01*
X114645518Y-122075812D01*
X114770000Y-122088072D01*
X116370000Y-122088072D01*
X116494482Y-122075812D01*
X116614180Y-122039502D01*
X116724494Y-121980537D01*
X116821185Y-121901185D01*
X116900537Y-121804494D01*
X116959502Y-121694180D01*
X116995812Y-121574482D01*
X117008072Y-121450000D01*
X117008072Y-119850000D01*
X116995812Y-119725518D01*
X116959502Y-119605820D01*
X116900537Y-119495506D01*
X116821185Y-119398815D01*
X116724494Y-119319463D01*
X116614180Y-119260498D01*
X116494482Y-119224188D01*
X116486039Y-119223357D01*
X116684637Y-119024759D01*
X116841680Y-118789727D01*
X116949853Y-118528574D01*
X117005000Y-118251335D01*
X117005000Y-117968665D01*
X116949853Y-117691426D01*
X116841680Y-117430273D01*
X116684637Y-117195241D01*
X116484759Y-116995363D01*
X116252241Y-116840000D01*
X116484759Y-116684637D01*
X116684637Y-116484759D01*
X116841680Y-116249727D01*
X116949853Y-115988574D01*
X117005000Y-115711335D01*
X117005000Y-115610512D01*
X121319105Y-119924618D01*
X121344472Y-119955528D01*
X121412210Y-120011119D01*
X121467810Y-120056749D01*
X121543024Y-120096951D01*
X121608527Y-120131963D01*
X121761212Y-120178280D01*
X121880209Y-120190000D01*
X121880211Y-120190000D01*
X121919999Y-120193919D01*
X121959787Y-120190000D01*
X125112248Y-120190000D01*
X125112248Y-120629680D01*
X125124508Y-120754162D01*
X125160818Y-120873860D01*
X125219783Y-120984174D01*
X125299135Y-121080865D01*
X125395826Y-121160217D01*
X125506140Y-121219182D01*
X125625838Y-121255492D01*
X125750320Y-121267752D01*
X128249680Y-121267752D01*
X128374162Y-121255492D01*
X128493860Y-121219182D01*
X128604174Y-121160217D01*
X128700865Y-121080865D01*
X128780217Y-120984174D01*
X128839182Y-120873860D01*
X128875492Y-120754162D01*
X128887752Y-120629680D01*
X128887752Y-119194375D01*
X128925320Y-119194375D01*
X128925320Y-119565625D01*
X128997747Y-119929741D01*
X129139818Y-120272731D01*
X129346074Y-120581413D01*
X129608587Y-120843926D01*
X129917269Y-121050182D01*
X130260259Y-121192253D01*
X130624375Y-121264680D01*
X130995625Y-121264680D01*
X131359741Y-121192253D01*
X131702731Y-121050182D01*
X132011413Y-120843926D01*
X132273926Y-120581413D01*
X132480182Y-120272731D01*
X132622253Y-119929741D01*
X132694680Y-119565625D01*
X132694680Y-119194375D01*
X132622253Y-118830259D01*
X132480182Y-118487269D01*
X132273926Y-118178587D01*
X132011413Y-117916074D01*
X131702731Y-117709818D01*
X131359741Y-117567747D01*
X130995625Y-117495320D01*
X130624375Y-117495320D01*
X130260259Y-117567747D01*
X129917269Y-117709818D01*
X129608587Y-117916074D01*
X129346074Y-118178587D01*
X129139818Y-118487269D01*
X128997747Y-118830259D01*
X128925320Y-119194375D01*
X128887752Y-119194375D01*
X128887752Y-118130320D01*
X128875492Y-118005838D01*
X128839182Y-117886140D01*
X128780217Y-117775826D01*
X128700865Y-117679135D01*
X128604174Y-117599783D01*
X128493860Y-117540818D01*
X128374162Y-117504508D01*
X128249680Y-117492248D01*
X125750320Y-117492248D01*
X125625838Y-117504508D01*
X125506140Y-117540818D01*
X125395826Y-117599783D01*
X125299135Y-117679135D01*
X125219783Y-117775826D01*
X125160818Y-117886140D01*
X125124508Y-118005838D01*
X125112248Y-118130320D01*
X125112248Y-118570000D01*
X122255513Y-118570000D01*
X116980420Y-113294907D01*
X117005000Y-113171335D01*
X117005000Y-112888665D01*
X116949853Y-112611426D01*
X116841680Y-112350273D01*
X116684637Y-112115241D01*
X116484759Y-111915363D01*
X116252241Y-111760000D01*
X116484759Y-111604637D01*
X116684637Y-111404759D01*
X116841680Y-111169727D01*
X116949853Y-110908574D01*
X117005000Y-110631335D01*
X117005000Y-110348665D01*
X116949853Y-110071426D01*
X116841680Y-109810273D01*
X116684637Y-109575241D01*
X116484759Y-109375363D01*
X116252241Y-109220000D01*
X116484759Y-109064637D01*
X116606694Y-108942702D01*
X118566903Y-108942702D01*
X118638486Y-109186671D01*
X118893996Y-109307571D01*
X119168184Y-109376300D01*
X119450512Y-109390217D01*
X119730130Y-109348787D01*
X119996292Y-109253603D01*
X120121514Y-109186671D01*
X120193097Y-108942702D01*
X119380000Y-108129605D01*
X118566903Y-108942702D01*
X116606694Y-108942702D01*
X116684637Y-108864759D01*
X116841680Y-108629727D01*
X116949853Y-108368574D01*
X117005000Y-108091335D01*
X117005000Y-108020512D01*
X117939783Y-108020512D01*
X117981213Y-108300130D01*
X118076397Y-108566292D01*
X118143329Y-108691514D01*
X118387298Y-108763097D01*
X119200395Y-107950000D01*
X118387298Y-107136903D01*
X118143329Y-107208486D01*
X118022429Y-107463996D01*
X117953700Y-107738184D01*
X117939783Y-108020512D01*
X117005000Y-108020512D01*
X117005000Y-107808665D01*
X116949853Y-107531426D01*
X116841680Y-107270273D01*
X116684637Y-107035241D01*
X116484759Y-106835363D01*
X116249727Y-106678320D01*
X116239135Y-106673933D01*
X116425131Y-106562385D01*
X116633519Y-106373414D01*
X116801037Y-106147420D01*
X116921246Y-105893087D01*
X116961904Y-105759039D01*
X116839915Y-105537000D01*
X115697000Y-105537000D01*
X115697000Y-105557000D01*
X115443000Y-105557000D01*
X115443000Y-105537000D01*
X114300085Y-105537000D01*
X114178096Y-105759039D01*
X114218754Y-105893087D01*
X114338963Y-106147420D01*
X114506481Y-106373414D01*
X114714869Y-106562385D01*
X114900865Y-106673933D01*
X114890273Y-106678320D01*
X114655241Y-106835363D01*
X114455363Y-107035241D01*
X114298320Y-107270273D01*
X114190147Y-107531426D01*
X114135000Y-107808665D01*
X114135000Y-107909488D01*
X114104979Y-107879467D01*
X114104979Y-94930491D01*
X114159580Y-94985093D01*
X114135000Y-95108665D01*
X114135000Y-95391335D01*
X114190147Y-95668574D01*
X114298320Y-95929727D01*
X114455363Y-96164759D01*
X114655241Y-96364637D01*
X114887759Y-96520000D01*
X114655241Y-96675363D01*
X114455363Y-96875241D01*
X114298320Y-97110273D01*
X114190147Y-97371426D01*
X114135000Y-97648665D01*
X114135000Y-97931335D01*
X114190147Y-98208574D01*
X114298320Y-98469727D01*
X114455363Y-98704759D01*
X114655241Y-98904637D01*
X114887759Y-99060000D01*
X114655241Y-99215363D01*
X114455363Y-99415241D01*
X114298320Y-99650273D01*
X114190147Y-99911426D01*
X114135000Y-100188665D01*
X114135000Y-100471335D01*
X114190147Y-100748574D01*
X114298320Y-101009727D01*
X114455363Y-101244759D01*
X114655241Y-101444637D01*
X114887759Y-101600000D01*
X114655241Y-101755363D01*
X114455363Y-101955241D01*
X114298320Y-102190273D01*
X114190147Y-102451426D01*
X114135000Y-102728665D01*
X114135000Y-103011335D01*
X114190147Y-103288574D01*
X114298320Y-103549727D01*
X114455363Y-103784759D01*
X114655241Y-103984637D01*
X114890273Y-104141680D01*
X114900865Y-104146067D01*
X114714869Y-104257615D01*
X114506481Y-104446586D01*
X114338963Y-104672580D01*
X114218754Y-104926913D01*
X114178096Y-105060961D01*
X114300085Y-105283000D01*
X115443000Y-105283000D01*
X115443000Y-105263000D01*
X115697000Y-105263000D01*
X115697000Y-105283000D01*
X116839915Y-105283000D01*
X116961904Y-105060961D01*
X116921246Y-104926913D01*
X116801037Y-104672580D01*
X116633519Y-104446586D01*
X116425131Y-104257615D01*
X116239135Y-104146067D01*
X116249727Y-104141680D01*
X116484759Y-103984637D01*
X116626942Y-103842454D01*
X119296234Y-106511747D01*
X119029870Y-106551213D01*
X118763708Y-106646397D01*
X118638486Y-106713329D01*
X118566903Y-106957298D01*
X119380000Y-107770395D01*
X119394143Y-107756253D01*
X119573748Y-107935858D01*
X119559605Y-107950000D01*
X120372702Y-108763097D01*
X120616671Y-108691514D01*
X120630324Y-108662659D01*
X120765363Y-108864759D01*
X120965241Y-109064637D01*
X121200273Y-109221680D01*
X121461426Y-109329853D01*
X121738665Y-109385000D01*
X122021335Y-109385000D01*
X122298574Y-109329853D01*
X122559727Y-109221680D01*
X122794759Y-109064637D01*
X122994637Y-108864759D01*
X123151680Y-108629727D01*
X123259853Y-108368574D01*
X123315000Y-108091335D01*
X123315000Y-107808665D01*
X123259853Y-107531426D01*
X123151680Y-107270273D01*
X122994637Y-107035241D01*
X122794759Y-106835363D01*
X122559727Y-106678320D01*
X122298574Y-106570147D01*
X122021335Y-106515000D01*
X121738665Y-106515000D01*
X121615093Y-106539580D01*
X117400900Y-102325388D01*
X117375528Y-102294472D01*
X117252189Y-102193251D01*
X117111473Y-102118037D01*
X116958788Y-102071720D01*
X116839791Y-102060000D01*
X116839788Y-102060000D01*
X116800000Y-102056081D01*
X116760212Y-102060000D01*
X116754635Y-102060000D01*
X116684637Y-101955241D01*
X116484759Y-101755363D01*
X116252241Y-101600000D01*
X116484759Y-101444637D01*
X116684637Y-101244759D01*
X116754635Y-101140000D01*
X117954488Y-101140000D01*
X119282102Y-102467614D01*
X119265000Y-102553589D01*
X119265000Y-102826411D01*
X119318225Y-103093989D01*
X119422629Y-103346043D01*
X119574201Y-103572886D01*
X119767114Y-103765799D01*
X119993957Y-103917371D01*
X120246011Y-104021775D01*
X120513589Y-104075000D01*
X120786411Y-104075000D01*
X121053989Y-104021775D01*
X121306043Y-103917371D01*
X121532886Y-103765799D01*
X121725799Y-103572886D01*
X121774500Y-103500000D01*
X123167722Y-103500000D01*
X123188320Y-103549727D01*
X123345363Y-103784759D01*
X123545241Y-103984637D01*
X123780273Y-104141680D01*
X124041426Y-104249853D01*
X124318665Y-104305000D01*
X124601335Y-104305000D01*
X124878574Y-104249853D01*
X125139727Y-104141680D01*
X125374759Y-103984637D01*
X125574637Y-103784759D01*
X125710000Y-103582173D01*
X125845363Y-103784759D01*
X126045241Y-103984637D01*
X126280273Y-104141680D01*
X126541426Y-104249853D01*
X126818665Y-104305000D01*
X127101335Y-104305000D01*
X127378574Y-104249853D01*
X127639727Y-104141680D01*
X127874759Y-103984637D01*
X128074637Y-103784759D01*
X128231680Y-103549727D01*
X128339853Y-103288574D01*
X128395000Y-103011335D01*
X128395000Y-102728665D01*
X128339853Y-102451426D01*
X128231680Y-102190273D01*
X128074637Y-101955241D01*
X127874759Y-101755363D01*
X127639727Y-101598320D01*
X127378574Y-101490147D01*
X127101335Y-101435000D01*
X126818665Y-101435000D01*
X126541426Y-101490147D01*
X126280273Y-101598320D01*
X126045241Y-101755363D01*
X125845363Y-101955241D01*
X125710000Y-102157827D01*
X125574637Y-101955241D01*
X125374759Y-101755363D01*
X125139727Y-101598320D01*
X124878574Y-101490147D01*
X124601335Y-101435000D01*
X124318665Y-101435000D01*
X124041426Y-101490147D01*
X123780273Y-101598320D01*
X123545241Y-101755363D01*
X123420604Y-101880000D01*
X121774500Y-101880000D01*
X121725799Y-101807114D01*
X121532886Y-101614201D01*
X121306043Y-101462629D01*
X121053989Y-101358225D01*
X120786411Y-101305000D01*
X120513589Y-101305000D01*
X120427614Y-101322102D01*
X118890900Y-99785387D01*
X118865528Y-99754472D01*
X118742189Y-99653251D01*
X118601473Y-99578037D01*
X118448788Y-99531720D01*
X118329791Y-99520000D01*
X118329788Y-99520000D01*
X118290000Y-99516081D01*
X118250212Y-99520000D01*
X116754635Y-99520000D01*
X116684637Y-99415241D01*
X116484759Y-99215363D01*
X116252241Y-99060000D01*
X116484759Y-98904637D01*
X116684637Y-98704759D01*
X116754635Y-98600000D01*
X119525500Y-98600000D01*
X119574201Y-98672886D01*
X119767114Y-98865799D01*
X119993957Y-99017371D01*
X120246011Y-99121775D01*
X120513589Y-99175000D01*
X120786411Y-99175000D01*
X121053989Y-99121775D01*
X121306043Y-99017371D01*
X121532886Y-98865799D01*
X121725799Y-98672886D01*
X121774500Y-98600000D01*
X123275365Y-98600000D01*
X123345363Y-98704759D01*
X123545241Y-98904637D01*
X123780273Y-99061680D01*
X124041426Y-99169853D01*
X124318665Y-99225000D01*
X124601335Y-99225000D01*
X124878574Y-99169853D01*
X125139727Y-99061680D01*
X125374759Y-98904637D01*
X125574637Y-98704759D01*
X125710000Y-98502173D01*
X125845363Y-98704759D01*
X126045241Y-98904637D01*
X126280273Y-99061680D01*
X126541426Y-99169853D01*
X126818665Y-99225000D01*
X127101335Y-99225000D01*
X127378574Y-99169853D01*
X127639727Y-99061680D01*
X127874759Y-98904637D01*
X128074637Y-98704759D01*
X128231680Y-98469727D01*
X128339853Y-98208574D01*
X128395000Y-97931335D01*
X128395000Y-97648665D01*
X128339853Y-97371426D01*
X128231680Y-97110273D01*
X128074637Y-96875241D01*
X127874759Y-96675363D01*
X127639727Y-96518320D01*
X127378574Y-96410147D01*
X127101335Y-96355000D01*
X126818665Y-96355000D01*
X126541426Y-96410147D01*
X126280273Y-96518320D01*
X126045241Y-96675363D01*
X125845363Y-96875241D01*
X125710000Y-97077827D01*
X125574637Y-96875241D01*
X125374759Y-96675363D01*
X125139727Y-96518320D01*
X124878574Y-96410147D01*
X124601335Y-96355000D01*
X124318665Y-96355000D01*
X124041426Y-96410147D01*
X123780273Y-96518320D01*
X123545241Y-96675363D01*
X123345363Y-96875241D01*
X123275365Y-96980000D01*
X121774500Y-96980000D01*
X121725799Y-96907114D01*
X121532886Y-96714201D01*
X121306043Y-96562629D01*
X121053989Y-96458225D01*
X120786411Y-96405000D01*
X120513589Y-96405000D01*
X120246011Y-96458225D01*
X119993957Y-96562629D01*
X119767114Y-96714201D01*
X119574201Y-96907114D01*
X119525500Y-96980000D01*
X116754635Y-96980000D01*
X116684637Y-96875241D01*
X116484759Y-96675363D01*
X116252241Y-96520000D01*
X116484759Y-96364637D01*
X116684637Y-96164759D01*
X116841680Y-95929727D01*
X116949853Y-95668574D01*
X117005000Y-95391335D01*
X117005000Y-95108665D01*
X116949853Y-94831426D01*
X116841680Y-94570273D01*
X116684637Y-94335241D01*
X116484759Y-94135363D01*
X116252241Y-93980000D01*
X116463764Y-93838665D01*
X126875000Y-93838665D01*
X126875000Y-94121335D01*
X126930147Y-94398574D01*
X127038320Y-94659727D01*
X127195363Y-94894759D01*
X127395241Y-95094637D01*
X127630273Y-95251680D01*
X127891426Y-95359853D01*
X128168665Y-95415000D01*
X128451335Y-95415000D01*
X128728574Y-95359853D01*
X128989727Y-95251680D01*
X129224759Y-95094637D01*
X129346694Y-94972702D01*
X129996903Y-94972702D01*
X130068486Y-95216671D01*
X130323996Y-95337571D01*
X130598184Y-95406300D01*
X130880512Y-95420217D01*
X131160130Y-95378787D01*
X131426292Y-95283603D01*
X131551514Y-95216671D01*
X131623097Y-94972702D01*
X130810000Y-94159605D01*
X129996903Y-94972702D01*
X129346694Y-94972702D01*
X129424637Y-94894759D01*
X129558692Y-94694131D01*
X129573329Y-94721514D01*
X129817298Y-94793097D01*
X130630395Y-93980000D01*
X130989605Y-93980000D01*
X131802702Y-94793097D01*
X132046671Y-94721514D01*
X132167571Y-94466004D01*
X132236300Y-94191816D01*
X132250217Y-93909488D01*
X132208787Y-93629870D01*
X132113603Y-93363708D01*
X132046671Y-93238486D01*
X131802702Y-93166903D01*
X130989605Y-93980000D01*
X130630395Y-93980000D01*
X129817298Y-93166903D01*
X129573329Y-93238486D01*
X129559676Y-93267341D01*
X129424637Y-93065241D01*
X129346694Y-92987298D01*
X129996903Y-92987298D01*
X130810000Y-93800395D01*
X131623097Y-92987298D01*
X131551514Y-92743329D01*
X131296004Y-92622429D01*
X131021816Y-92553700D01*
X130739488Y-92539783D01*
X130459870Y-92581213D01*
X130193708Y-92676397D01*
X130068486Y-92743329D01*
X129996903Y-92987298D01*
X129346694Y-92987298D01*
X129224759Y-92865363D01*
X128989727Y-92708320D01*
X128728574Y-92600147D01*
X128451335Y-92545000D01*
X128168665Y-92545000D01*
X127891426Y-92600147D01*
X127630273Y-92708320D01*
X127395241Y-92865363D01*
X127195363Y-93065241D01*
X127038320Y-93300273D01*
X126930147Y-93561426D01*
X126875000Y-93838665D01*
X116463764Y-93838665D01*
X116484759Y-93824637D01*
X116684637Y-93624759D01*
X116841680Y-93389727D01*
X116949853Y-93128574D01*
X117005000Y-92851335D01*
X117005000Y-92568665D01*
X116949853Y-92291426D01*
X116841680Y-92030273D01*
X116684637Y-91795241D01*
X116484759Y-91595363D01*
X116252241Y-91440000D01*
X116484759Y-91284637D01*
X116684637Y-91084759D01*
X116841680Y-90849727D01*
X116949853Y-90588574D01*
X117005000Y-90311335D01*
X117005000Y-90028665D01*
X116949853Y-89751426D01*
X116841680Y-89490273D01*
X116684637Y-89255241D01*
X116484759Y-89055363D01*
X116252241Y-88900000D01*
X116484759Y-88744637D01*
X116684637Y-88544759D01*
X116841680Y-88309727D01*
X116949853Y-88048574D01*
X117005000Y-87771335D01*
X117005000Y-87488665D01*
X116949853Y-87211426D01*
X116841680Y-86950273D01*
X116684637Y-86715241D01*
X116484759Y-86515363D01*
X116249727Y-86358320D01*
X116002748Y-86256018D01*
X116060256Y-86232197D01*
X116220700Y-86124992D01*
X125619480Y-86124992D01*
X125727488Y-86233000D01*
X125592408Y-86233000D01*
X125322510Y-86286686D01*
X125068273Y-86391995D01*
X124839465Y-86544880D01*
X124644880Y-86739465D01*
X124491995Y-86968273D01*
X124460000Y-87045515D01*
X124428005Y-86968273D01*
X124275120Y-86739465D01*
X124080535Y-86544880D01*
X123851727Y-86391995D01*
X123597490Y-86286686D01*
X123327592Y-86233000D01*
X123052408Y-86233000D01*
X122782510Y-86286686D01*
X122528273Y-86391995D01*
X122299465Y-86544880D01*
X122104880Y-86739465D01*
X121951995Y-86968273D01*
X121846686Y-87222510D01*
X121793000Y-87492408D01*
X121793000Y-87767592D01*
X121846686Y-88037490D01*
X121951995Y-88291727D01*
X122104880Y-88520535D01*
X122299465Y-88715120D01*
X122528273Y-88868005D01*
X122605515Y-88900000D01*
X122528273Y-88931995D01*
X122299465Y-89084880D01*
X122104880Y-89279465D01*
X121951995Y-89508273D01*
X121846686Y-89762510D01*
X121793000Y-90032408D01*
X121793000Y-90307592D01*
X121846686Y-90577490D01*
X121951995Y-90831727D01*
X122104880Y-91060535D01*
X122299465Y-91255120D01*
X122528273Y-91408005D01*
X122782510Y-91513314D01*
X123052408Y-91567000D01*
X123327592Y-91567000D01*
X123597490Y-91513314D01*
X123851727Y-91408005D01*
X124080535Y-91255120D01*
X124275120Y-91060535D01*
X124428005Y-90831727D01*
X124460000Y-90754485D01*
X124491995Y-90831727D01*
X124644880Y-91060535D01*
X124839465Y-91255120D01*
X125068273Y-91408005D01*
X125322510Y-91513314D01*
X125592408Y-91567000D01*
X125867592Y-91567000D01*
X126137490Y-91513314D01*
X126391727Y-91408005D01*
X126620535Y-91255120D01*
X126815120Y-91060535D01*
X126968005Y-90831727D01*
X127000000Y-90754485D01*
X127031995Y-90831727D01*
X127184880Y-91060535D01*
X127379465Y-91255120D01*
X127608273Y-91408005D01*
X127862510Y-91513314D01*
X128132408Y-91567000D01*
X128407592Y-91567000D01*
X128677490Y-91513314D01*
X128931727Y-91408005D01*
X129160535Y-91255120D01*
X129280090Y-91135565D01*
X130024040Y-91135565D01*
X130091020Y-91375656D01*
X130340048Y-91492756D01*
X130607135Y-91559023D01*
X130882017Y-91571910D01*
X131154133Y-91530922D01*
X131413023Y-91437636D01*
X131528980Y-91375656D01*
X131595960Y-91135565D01*
X130810000Y-90349605D01*
X130024040Y-91135565D01*
X129280090Y-91135565D01*
X129355120Y-91060535D01*
X129508005Y-90831727D01*
X129537692Y-90760057D01*
X129542364Y-90773023D01*
X129604344Y-90888980D01*
X129844435Y-90955960D01*
X130630395Y-90170000D01*
X130989605Y-90170000D01*
X131775565Y-90955960D01*
X132015656Y-90888980D01*
X132132756Y-90639952D01*
X132199023Y-90372865D01*
X132211910Y-90097983D01*
X132170922Y-89825867D01*
X132077636Y-89566977D01*
X132015656Y-89451020D01*
X131775565Y-89384040D01*
X130989605Y-90170000D01*
X130630395Y-90170000D01*
X129844435Y-89384040D01*
X129604344Y-89451020D01*
X129540515Y-89586760D01*
X129508005Y-89508273D01*
X129355120Y-89279465D01*
X129160535Y-89084880D01*
X128931727Y-88931995D01*
X128854485Y-88900000D01*
X128931727Y-88868005D01*
X129160535Y-88715120D01*
X129355120Y-88520535D01*
X129413920Y-88432535D01*
X129422188Y-88516482D01*
X129458498Y-88636180D01*
X129517463Y-88746494D01*
X129596815Y-88843185D01*
X129693506Y-88922537D01*
X129803820Y-88981502D01*
X129923518Y-89017812D01*
X130048000Y-89030072D01*
X130072683Y-89030072D01*
X130024040Y-89204435D01*
X130810000Y-89990395D01*
X131595960Y-89204435D01*
X131547317Y-89030072D01*
X131572000Y-89030072D01*
X131696482Y-89017812D01*
X131816180Y-88981502D01*
X131926494Y-88922537D01*
X132023185Y-88843185D01*
X132102537Y-88746494D01*
X132161502Y-88636180D01*
X132197812Y-88516482D01*
X132210072Y-88392000D01*
X132210072Y-86868000D01*
X132197812Y-86743518D01*
X132161502Y-86623820D01*
X132102537Y-86513506D01*
X132023185Y-86416815D01*
X131926494Y-86337463D01*
X131816180Y-86278498D01*
X131696482Y-86242188D01*
X131572000Y-86229928D01*
X130048000Y-86229928D01*
X129923518Y-86242188D01*
X129803820Y-86278498D01*
X129693506Y-86337463D01*
X129596815Y-86416815D01*
X129517463Y-86513506D01*
X129458498Y-86623820D01*
X129422188Y-86743518D01*
X129413920Y-86827465D01*
X129355120Y-86739465D01*
X129160535Y-86544880D01*
X128931727Y-86391995D01*
X128677490Y-86286686D01*
X128407592Y-86233000D01*
X128132408Y-86233000D01*
X128037409Y-86251896D01*
X126555891Y-84770379D01*
X126530520Y-84739464D01*
X126407181Y-84638243D01*
X126266465Y-84563029D01*
X126113780Y-84516712D01*
X125994783Y-84504992D01*
X125994780Y-84504992D01*
X125954992Y-84501073D01*
X125915204Y-84504992D01*
X125826767Y-84504992D01*
X125842189Y-84496749D01*
X125965528Y-84395528D01*
X125990899Y-84364613D01*
X126514619Y-83840894D01*
X126545528Y-83815528D01*
X126638999Y-83701633D01*
X126646749Y-83692190D01*
X126721962Y-83551474D01*
X126721963Y-83551473D01*
X126729341Y-83527152D01*
X126844482Y-83515812D01*
X126964180Y-83479502D01*
X127074494Y-83420537D01*
X127120000Y-83383191D01*
X127165506Y-83420537D01*
X127275820Y-83479502D01*
X127395518Y-83515812D01*
X127520000Y-83528072D01*
X127984250Y-83525000D01*
X128143000Y-83366250D01*
X128143000Y-82017000D01*
X128123000Y-82017000D01*
X128123000Y-81763000D01*
X128143000Y-81763000D01*
X128143000Y-80413750D01*
X127984250Y-80255000D01*
X127520000Y-80251928D01*
X127395518Y-80264188D01*
X127275820Y-80300498D01*
X127165506Y-80359463D01*
X127120000Y-80396809D01*
X127074494Y-80359463D01*
X126964180Y-80300498D01*
X126844482Y-80264188D01*
X126720000Y-80251928D01*
X125220000Y-80251928D01*
X125095518Y-80264188D01*
X124975820Y-80300498D01*
X124865506Y-80359463D01*
X124768815Y-80438815D01*
X124689463Y-80535506D01*
X124630498Y-80645820D01*
X124594188Y-80765518D01*
X124581928Y-80890000D01*
X124581928Y-80922130D01*
X124569853Y-80861426D01*
X124461680Y-80600273D01*
X124304637Y-80365241D01*
X124104759Y-80165363D01*
X123869727Y-80008320D01*
X123608574Y-79900147D01*
X123331335Y-79845000D01*
X123048665Y-79845000D01*
X122771426Y-79900147D01*
X122510273Y-80008320D01*
X122275241Y-80165363D01*
X122075363Y-80365241D01*
X121918320Y-80600273D01*
X121810147Y-80861426D01*
X121798072Y-80922130D01*
X121798072Y-80890000D01*
X121785812Y-80765518D01*
X121749502Y-80645820D01*
X121690537Y-80535506D01*
X121611185Y-80438815D01*
X121514494Y-80359463D01*
X121404180Y-80300498D01*
X121284482Y-80264188D01*
X121160000Y-80251928D01*
X119660000Y-80251928D01*
X119535518Y-80264188D01*
X119415820Y-80300498D01*
X119305506Y-80359463D01*
X119260000Y-80396809D01*
X119214494Y-80359463D01*
X119104180Y-80300498D01*
X118984482Y-80264188D01*
X118860000Y-80251928D01*
X118395750Y-80255000D01*
X118237000Y-80413750D01*
X118237000Y-81763000D01*
X118257000Y-81763000D01*
X118257000Y-82017000D01*
X118237000Y-82017000D01*
X118237000Y-82037000D01*
X117983000Y-82037000D01*
X117983000Y-82017000D01*
X117963000Y-82017000D01*
X117963000Y-81763000D01*
X117983000Y-81763000D01*
X117983000Y-80413750D01*
X117824250Y-80255000D01*
X117360000Y-80251928D01*
X117235518Y-80264188D01*
X117115820Y-80300498D01*
X117005506Y-80359463D01*
X116960000Y-80396809D01*
X116914494Y-80359463D01*
X116804180Y-80300498D01*
X116684482Y-80264188D01*
X116560000Y-80251928D01*
X115060000Y-80251928D01*
X114935518Y-80264188D01*
X114815820Y-80300498D01*
X114705506Y-80359463D01*
X114608815Y-80438815D01*
X114529463Y-80535506D01*
X114470498Y-80645820D01*
X114434188Y-80765518D01*
X114421928Y-80890000D01*
X114421928Y-80922130D01*
X114409853Y-80861426D01*
X114301680Y-80600273D01*
X114144637Y-80365241D01*
X113944759Y-80165363D01*
X113709727Y-80008320D01*
X113448574Y-79900147D01*
X113171335Y-79845000D01*
X112888665Y-79845000D01*
X112611426Y-79900147D01*
X112350273Y-80008320D01*
X112115241Y-80165363D01*
X111915363Y-80365241D01*
X111758320Y-80600273D01*
X111650147Y-80861426D01*
X111638072Y-80922130D01*
X111638072Y-80890000D01*
X111625812Y-80765518D01*
X111589502Y-80645820D01*
X111530537Y-80535506D01*
X111451185Y-80438815D01*
X111354494Y-80359463D01*
X111244180Y-80300498D01*
X111124482Y-80264188D01*
X111000000Y-80251928D01*
X109500000Y-80251928D01*
X109375518Y-80264188D01*
X109255820Y-80300498D01*
X109145506Y-80359463D01*
X109100000Y-80396809D01*
X109054494Y-80359463D01*
X108944180Y-80300498D01*
X108824482Y-80264188D01*
X108700000Y-80251928D01*
X108235750Y-80255000D01*
X108077000Y-80413750D01*
X108077000Y-81763000D01*
X108097000Y-81763000D01*
X108097000Y-82017000D01*
X108077000Y-82017000D01*
X108077000Y-83366250D01*
X108235750Y-83525000D01*
X108700000Y-83528072D01*
X108824482Y-83515812D01*
X108944180Y-83479502D01*
X109054494Y-83420537D01*
X109100000Y-83383191D01*
X109145506Y-83420537D01*
X109255820Y-83479502D01*
X109375518Y-83515812D01*
X109500000Y-83528072D01*
X111000000Y-83528072D01*
X111124482Y-83515812D01*
X111244180Y-83479502D01*
X111354494Y-83420537D01*
X111451185Y-83341185D01*
X111530537Y-83244494D01*
X111589502Y-83134180D01*
X111625812Y-83014482D01*
X111638072Y-82890000D01*
X111638072Y-82800000D01*
X112375298Y-82800000D01*
X112420000Y-82804403D01*
X112464702Y-82800000D01*
X112464704Y-82800000D01*
X112598391Y-82786833D01*
X112769927Y-82734798D01*
X112829124Y-82703156D01*
X112888665Y-82715000D01*
X113171335Y-82715000D01*
X113448574Y-82659853D01*
X113709727Y-82551680D01*
X113944759Y-82394637D01*
X114144637Y-82194759D01*
X114301680Y-81959727D01*
X114409853Y-81698574D01*
X114421928Y-81637870D01*
X114421928Y-82890000D01*
X114434188Y-83014482D01*
X114470498Y-83134180D01*
X114529463Y-83244494D01*
X114547804Y-83266843D01*
X113300372Y-84514275D01*
X113269462Y-84539642D01*
X113244097Y-84570550D01*
X113168240Y-84662981D01*
X113093027Y-84803697D01*
X113046710Y-84956382D01*
X113031070Y-85115170D01*
X113034990Y-85154968D01*
X113034989Y-89479477D01*
X107069498Y-83513986D01*
X107075518Y-83515812D01*
X107200000Y-83528072D01*
X107664250Y-83525000D01*
X107823000Y-83366250D01*
X107823000Y-82017000D01*
X107803000Y-82017000D01*
X107803000Y-81763000D01*
X107823000Y-81763000D01*
X107823000Y-80413750D01*
X107664250Y-80255000D01*
X107200000Y-80251928D01*
X107075518Y-80264188D01*
X106955820Y-80300498D01*
X106845506Y-80359463D01*
X106800000Y-80396809D01*
X106754494Y-80359463D01*
X106644180Y-80300498D01*
X106524482Y-80264188D01*
X106400000Y-80251928D01*
X104900000Y-80251928D01*
X104800000Y-80261777D01*
X104800000Y-76590000D01*
X105411928Y-76590000D01*
X105424188Y-76714482D01*
X105460498Y-76834180D01*
X105519463Y-76944494D01*
X105598815Y-77041185D01*
X105695506Y-77120537D01*
X105805820Y-77179502D01*
X105925518Y-77215812D01*
X106050000Y-77228072D01*
X107664250Y-77225000D01*
X107823000Y-77066250D01*
X107823000Y-75717000D01*
X108077000Y-75717000D01*
X108077000Y-77066250D01*
X108235750Y-77225000D01*
X109850000Y-77228072D01*
X109974482Y-77215812D01*
X110094180Y-77179502D01*
X110204494Y-77120537D01*
X110301185Y-77041185D01*
X110380537Y-76944494D01*
X110439502Y-76834180D01*
X110475812Y-76714482D01*
X110488072Y-76590000D01*
X115571928Y-76590000D01*
X115584188Y-76714482D01*
X115620498Y-76834180D01*
X115679463Y-76944494D01*
X115758815Y-77041185D01*
X115855506Y-77120537D01*
X115965820Y-77179502D01*
X116085518Y-77215812D01*
X116210000Y-77228072D01*
X117824250Y-77225000D01*
X117983000Y-77066250D01*
X117983000Y-75717000D01*
X118237000Y-75717000D01*
X118237000Y-77066250D01*
X118395750Y-77225000D01*
X120010000Y-77228072D01*
X120134482Y-77215812D01*
X120254180Y-77179502D01*
X120364494Y-77120537D01*
X120461185Y-77041185D01*
X120540537Y-76944494D01*
X120599502Y-76834180D01*
X120635812Y-76714482D01*
X120648072Y-76590000D01*
X125731928Y-76590000D01*
X125744188Y-76714482D01*
X125780498Y-76834180D01*
X125839463Y-76944494D01*
X125918815Y-77041185D01*
X126015506Y-77120537D01*
X126125820Y-77179502D01*
X126245518Y-77215812D01*
X126370000Y-77228072D01*
X127984250Y-77225000D01*
X128143000Y-77066250D01*
X128143000Y-75717000D01*
X128397000Y-75717000D01*
X128397000Y-77066250D01*
X128555750Y-77225000D01*
X130170000Y-77228072D01*
X130294482Y-77215812D01*
X130414180Y-77179502D01*
X130524494Y-77120537D01*
X130621185Y-77041185D01*
X130700537Y-76944494D01*
X130759502Y-76834180D01*
X130795812Y-76714482D01*
X130808072Y-76590000D01*
X130805000Y-75875750D01*
X130646250Y-75717000D01*
X128397000Y-75717000D01*
X128143000Y-75717000D01*
X125893750Y-75717000D01*
X125735000Y-75875750D01*
X125731928Y-76590000D01*
X120648072Y-76590000D01*
X120645000Y-75875750D01*
X120486250Y-75717000D01*
X118237000Y-75717000D01*
X117983000Y-75717000D01*
X115733750Y-75717000D01*
X115575000Y-75875750D01*
X115571928Y-76590000D01*
X110488072Y-76590000D01*
X110485000Y-75875750D01*
X110326250Y-75717000D01*
X108077000Y-75717000D01*
X107823000Y-75717000D01*
X105573750Y-75717000D01*
X105415000Y-75875750D01*
X105411928Y-76590000D01*
X104800000Y-76590000D01*
X104800000Y-74590000D01*
X105411928Y-74590000D01*
X105415000Y-75304250D01*
X105573750Y-75463000D01*
X107823000Y-75463000D01*
X107823000Y-74113750D01*
X108077000Y-74113750D01*
X108077000Y-75463000D01*
X110326250Y-75463000D01*
X110485000Y-75304250D01*
X110488072Y-74590000D01*
X110475812Y-74465518D01*
X110439502Y-74345820D01*
X110380537Y-74235506D01*
X110301185Y-74138815D01*
X110204494Y-74059463D01*
X110094180Y-74000498D01*
X109974482Y-73964188D01*
X109850000Y-73951928D01*
X108235750Y-73955000D01*
X108077000Y-74113750D01*
X107823000Y-74113750D01*
X107664250Y-73955000D01*
X106050000Y-73951928D01*
X105925518Y-73964188D01*
X105805820Y-74000498D01*
X105695506Y-74059463D01*
X105598815Y-74138815D01*
X105519463Y-74235506D01*
X105460498Y-74345820D01*
X105424188Y-74465518D01*
X105411928Y-74590000D01*
X104800000Y-74590000D01*
X104800000Y-64802279D01*
X104814722Y-64652131D01*
X104848953Y-64538754D01*
X104904555Y-64434181D01*
X104979407Y-64342404D01*
X105070664Y-64266909D01*
X105174844Y-64210581D01*
X105287976Y-64175560D01*
X105436022Y-64160000D01*
X133317721Y-64160000D01*
X133467869Y-64174722D01*
G37*
X133467869Y-64174722D02*
X133581246Y-64208953D01*
X133685819Y-64264555D01*
X133777596Y-64339407D01*
X133853091Y-64430664D01*
X133909419Y-64534844D01*
X133944440Y-64647976D01*
X133960000Y-64796022D01*
X133960000Y-72359438D01*
X133768574Y-72280147D01*
X133491335Y-72225000D01*
X133208665Y-72225000D01*
X133203051Y-72226117D01*
X130010596Y-69033663D01*
X129982090Y-68998928D01*
X129843524Y-68885211D01*
X129685436Y-68800711D01*
X129513900Y-68748676D01*
X129380213Y-68735509D01*
X129380211Y-68735509D01*
X129335509Y-68731106D01*
X129290807Y-68735509D01*
X123214261Y-68735509D01*
X123251621Y-68704160D01*
X123293465Y-68661431D01*
X123335918Y-68619273D01*
X123341742Y-68612132D01*
X123497053Y-68418965D01*
X123529814Y-68368901D01*
X123563260Y-68319315D01*
X123567586Y-68311179D01*
X123682418Y-68091524D01*
X123704802Y-68036120D01*
X123728007Y-67980919D01*
X123730670Y-67972097D01*
X123800652Y-67734321D01*
X123811861Y-67675559D01*
X123823890Y-67616962D01*
X123824789Y-67607791D01*
X123847253Y-67360951D01*
X123846835Y-67301134D01*
X123847253Y-67241318D01*
X123846354Y-67232147D01*
X123820446Y-66985644D01*
X123808412Y-66927017D01*
X123797208Y-66868284D01*
X123794544Y-66859462D01*
X123721249Y-66622686D01*
X123698074Y-66567555D01*
X123675661Y-66512080D01*
X123671334Y-66503944D01*
X123553446Y-66285914D01*
X123520012Y-66236346D01*
X123487240Y-66186265D01*
X123481416Y-66179124D01*
X123323423Y-65988144D01*
X123280988Y-65946005D01*
X123239125Y-65903255D01*
X123232024Y-65897381D01*
X123039946Y-65740727D01*
X122990169Y-65707655D01*
X122940763Y-65673826D01*
X122932657Y-65669444D01*
X122713809Y-65553081D01*
X122658532Y-65530298D01*
X122603525Y-65506721D01*
X122594722Y-65503997D01*
X122357441Y-65432357D01*
X122298754Y-65420736D01*
X122240248Y-65408300D01*
X122231085Y-65407337D01*
X122231083Y-65407337D01*
X121984405Y-65383150D01*
X121984402Y-65383150D01*
X121952419Y-65380000D01*
X116807581Y-65380000D01*
X116774339Y-65383274D01*
X116757863Y-65383274D01*
X116748698Y-65384237D01*
X116502382Y-65411866D01*
X116443865Y-65424305D01*
X116385192Y-65435922D01*
X116376389Y-65438647D01*
X116140131Y-65513592D01*
X116085209Y-65537132D01*
X116029842Y-65559952D01*
X116021736Y-65564336D01*
X115804534Y-65683744D01*
X115755171Y-65717543D01*
X115705352Y-65750643D01*
X115698252Y-65756517D01*
X115508379Y-65915839D01*
X115466516Y-65958588D01*
X115424082Y-66000727D01*
X115418258Y-66007868D01*
X115262947Y-66201035D01*
X115230186Y-66251099D01*
X115196740Y-66300685D01*
X115192418Y-66308814D01*
X115192415Y-66308819D01*
X115192414Y-66308822D01*
X115077582Y-66528476D01*
X115055173Y-66583942D01*
X115031994Y-66639081D01*
X115029330Y-66647903D01*
X114959348Y-66885679D01*
X114948139Y-66944441D01*
X114936110Y-67003038D01*
X114935211Y-67012209D01*
X114912747Y-67259049D01*
X114913165Y-67318866D01*
X114912747Y-67378682D01*
X114913646Y-67387853D01*
X114939554Y-67634357D01*
X114951588Y-67692983D01*
X114962792Y-67751716D01*
X114965456Y-67760538D01*
X115038751Y-67997314D01*
X115061931Y-68052457D01*
X115084339Y-68107920D01*
X115088665Y-68116054D01*
X115088667Y-68116059D01*
X115088670Y-68116064D01*
X115206553Y-68334086D01*
X115239988Y-68383654D01*
X115272759Y-68433735D01*
X115278584Y-68440876D01*
X115436577Y-68631856D01*
X115479012Y-68673995D01*
X115520875Y-68716745D01*
X115527976Y-68722618D01*
X115720053Y-68879273D01*
X115769875Y-68912374D01*
X115819237Y-68946173D01*
X115827343Y-68950556D01*
X116046191Y-69066919D01*
X116101479Y-69089707D01*
X116156475Y-69113279D01*
X116165278Y-69116003D01*
X116402559Y-69187643D01*
X116461246Y-69199264D01*
X116519752Y-69211700D01*
X116528915Y-69212663D01*
X116528917Y-69212663D01*
X116775595Y-69236850D01*
X116775598Y-69236850D01*
X116807581Y-69240000D01*
X121243066Y-69240000D01*
X120966602Y-69516464D01*
X120810983Y-69485510D01*
X120489017Y-69485510D01*
X120173237Y-69548322D01*
X119875778Y-69671533D01*
X119608073Y-69850408D01*
X119380408Y-70078073D01*
X119201533Y-70345778D01*
X119078322Y-70643237D01*
X119062500Y-70722780D01*
X119046678Y-70643237D01*
X118923467Y-70345778D01*
X118744592Y-70078073D01*
X118516927Y-69850408D01*
X118249222Y-69671533D01*
X117951763Y-69548322D01*
X117635983Y-69485510D01*
X117314017Y-69485510D01*
X116998237Y-69548322D01*
X116700778Y-69671533D01*
X116433073Y-69850408D01*
X116205408Y-70078073D01*
X116026533Y-70345778D01*
X115937562Y-70560574D01*
X115937562Y-70120510D01*
X115925302Y-69996028D01*
X115888992Y-69876330D01*
X115830027Y-69766016D01*
X115750675Y-69669325D01*
X115653984Y-69589973D01*
X115543670Y-69531008D01*
X115423972Y-69494698D01*
X115299490Y-69482438D01*
X113300510Y-69482438D01*
X113176028Y-69494698D01*
X113056330Y-69531008D01*
X112946016Y-69589973D01*
X112849325Y-69669325D01*
X112769973Y-69766016D01*
X112711008Y-69876330D01*
X112674698Y-69996028D01*
X112662438Y-70120510D01*
X112662438Y-71470629D01*
X112418149Y-71714918D01*
X112383420Y-71743419D01*
X112341026Y-71795077D01*
X112269702Y-71881985D01*
X112185202Y-72040074D01*
X112133168Y-72211609D01*
X112115597Y-72390000D01*
X112120001Y-72434711D01*
X112120001Y-72542183D01*
X112115241Y-72545363D01*
X111915363Y-72745241D01*
X111758320Y-72980273D01*
X111650147Y-73241426D01*
X111595000Y-73518665D01*
X111595000Y-73801335D01*
X111650147Y-74078574D01*
X111758320Y-74339727D01*
X111915363Y-74574759D01*
X112115241Y-74774637D01*
X112350273Y-74931680D01*
X112611426Y-75039853D01*
X112888665Y-75095000D01*
X113171335Y-75095000D01*
X113448574Y-75039853D01*
X113709727Y-74931680D01*
X113944759Y-74774637D01*
X114129396Y-74590000D01*
X115571928Y-74590000D01*
X115575000Y-75304250D01*
X115733750Y-75463000D01*
X117983000Y-75463000D01*
X117983000Y-74113750D01*
X117824250Y-73955000D01*
X116210000Y-73951928D01*
X116085518Y-73964188D01*
X115965820Y-74000498D01*
X115855506Y-74059463D01*
X115758815Y-74138815D01*
X115679463Y-74235506D01*
X115620498Y-74345820D01*
X115584188Y-74465518D01*
X115571928Y-74590000D01*
X114129396Y-74590000D01*
X114144637Y-74574759D01*
X114301680Y-74339727D01*
X114409853Y-74078574D01*
X114465000Y-73801335D01*
X114465000Y-73518665D01*
X114409853Y-73241426D01*
X114301680Y-72980273D01*
X114152870Y-72757562D01*
X115299490Y-72757562D01*
X115423972Y-72745302D01*
X115543670Y-72708992D01*
X115653984Y-72650027D01*
X115750675Y-72570675D01*
X115830027Y-72473984D01*
X115888992Y-72363670D01*
X115925302Y-72243972D01*
X115937562Y-72119490D01*
X115937562Y-71679426D01*
X116026533Y-71894222D01*
X116205408Y-72161927D01*
X116433073Y-72389592D01*
X116700778Y-72568467D01*
X116998237Y-72691678D01*
X117314017Y-72754490D01*
X117635983Y-72754490D01*
X117791602Y-72723536D01*
X119021875Y-73953808D01*
X118395750Y-73955000D01*
X118237000Y-74113750D01*
X118237000Y-75463000D01*
X120486250Y-75463000D01*
X120645000Y-75304250D01*
X120648072Y-74590000D01*
X120646102Y-74570000D01*
X122072183Y-74570000D01*
X122075363Y-74574759D01*
X122275241Y-74774637D01*
X122510273Y-74931680D01*
X122771426Y-75039853D01*
X123048665Y-75095000D01*
X123331335Y-75095000D01*
X123608574Y-75039853D01*
X123869727Y-74931680D01*
X124104759Y-74774637D01*
X124289396Y-74590000D01*
X125731928Y-74590000D01*
X125735000Y-75304250D01*
X125893750Y-75463000D01*
X128143000Y-75463000D01*
X128143000Y-74113750D01*
X128397000Y-74113750D01*
X128397000Y-75463000D01*
X130646250Y-75463000D01*
X130805000Y-75304250D01*
X130808072Y-74590000D01*
X130795812Y-74465518D01*
X130759502Y-74345820D01*
X130700537Y-74235506D01*
X130621185Y-74138815D01*
X130524494Y-74059463D01*
X130414180Y-74000498D01*
X130294482Y-73964188D01*
X130170000Y-73951928D01*
X128555750Y-73955000D01*
X128397000Y-74113750D01*
X128143000Y-74113750D01*
X127984250Y-73955000D01*
X126370000Y-73951928D01*
X126245518Y-73964188D01*
X126125820Y-74000498D01*
X126015506Y-74059463D01*
X125918815Y-74138815D01*
X125839463Y-74235506D01*
X125780498Y-74345820D01*
X125744188Y-74465518D01*
X125731928Y-74590000D01*
X124289396Y-74590000D01*
X124304637Y-74574759D01*
X124461680Y-74339727D01*
X124569853Y-74078574D01*
X124625000Y-73801335D01*
X124625000Y-73518665D01*
X124569853Y-73241426D01*
X124461680Y-72980273D01*
X124304637Y-72745241D01*
X124259484Y-72700088D01*
X124301763Y-72691678D01*
X124599222Y-72568467D01*
X124866927Y-72389592D01*
X125094592Y-72161927D01*
X125273467Y-71894222D01*
X125396678Y-71596763D01*
X125459490Y-71280983D01*
X125459490Y-70959017D01*
X125396678Y-70643237D01*
X125360340Y-70555509D01*
X128958576Y-70555509D01*
X131916117Y-73513051D01*
X131915000Y-73518665D01*
X131915000Y-73801335D01*
X131970147Y-74078574D01*
X132078320Y-74339727D01*
X132235363Y-74574759D01*
X132435241Y-74774637D01*
X132670273Y-74931680D01*
X132931426Y-75039853D01*
X133208665Y-75095000D01*
X133491335Y-75095000D01*
X133768574Y-75039853D01*
X133960000Y-74960562D01*
X133960000Y-79979438D01*
X133768574Y-79900147D01*
X133491335Y-79845000D01*
X133208665Y-79845000D01*
X132931426Y-79900147D01*
X132670273Y-80008320D01*
X132435241Y-80165363D01*
X132235363Y-80365241D01*
X132078320Y-80600273D01*
X131970147Y-80861426D01*
X131958072Y-80922130D01*
X131958072Y-80890000D01*
X131945812Y-80765518D01*
X131909502Y-80645820D01*
X131850537Y-80535506D01*
X131771185Y-80438815D01*
X131674494Y-80359463D01*
X131564180Y-80300498D01*
X131444482Y-80264188D01*
X131320000Y-80251928D01*
X129820000Y-80251928D01*
X129695518Y-80264188D01*
X129575820Y-80300498D01*
X129465506Y-80359463D01*
X129420000Y-80396809D01*
X129374494Y-80359463D01*
X129264180Y-80300498D01*
X129144482Y-80264188D01*
X129020000Y-80251928D01*
X128555750Y-80255000D01*
X128397000Y-80413750D01*
X128397000Y-81763000D01*
X128417000Y-81763000D01*
X128417000Y-82017000D01*
X128397000Y-82017000D01*
X128397000Y-83366250D01*
X128555750Y-83525000D01*
X129020000Y-83528072D01*
X129144482Y-83515812D01*
X129264180Y-83479502D01*
X129374494Y-83420537D01*
X129420000Y-83383191D01*
X129465506Y-83420537D01*
X129575820Y-83479502D01*
X129695518Y-83515812D01*
X129820000Y-83528072D01*
X131320000Y-83528072D01*
X131444482Y-83515812D01*
X131564180Y-83479502D01*
X131674494Y-83420537D01*
X131771185Y-83341185D01*
X131850537Y-83244494D01*
X131909502Y-83134180D01*
X131945812Y-83014482D01*
X131958072Y-82890000D01*
X131958072Y-82800000D01*
X132695298Y-82800000D01*
X132740000Y-82804403D01*
X132784702Y-82800000D01*
X132784704Y-82800000D01*
X132918391Y-82786833D01*
X133089927Y-82734798D01*
X133149124Y-82703156D01*
X133208665Y-82715000D01*
X133491335Y-82715000D01*
X133768574Y-82659853D01*
X133960000Y-82580562D01*
X133960001Y-130777711D01*
X133945278Y-130927869D01*
X133911047Y-131041246D01*
X133855446Y-131145817D01*
X133780594Y-131237595D01*
X133689335Y-131313091D01*
X133585160Y-131369419D01*
X133472024Y-131404440D01*
X133323979Y-131420000D01*
X105442279Y-131420000D01*
X105292131Y-131405278D01*
X105178754Y-131371047D01*
X105074183Y-131315446D01*
X104982405Y-131240594D01*
X104906909Y-131149335D01*
X104850581Y-131045160D01*
X104815560Y-130932024D01*
X104800000Y-130783979D01*
X104800000Y-128219049D01*
X106022747Y-128219049D01*
X106023165Y-128278866D01*
X106022747Y-128338682D01*
X106023646Y-128347853D01*
X106049554Y-128594357D01*
X106061588Y-128652983D01*
X106072792Y-128711716D01*
X106075456Y-128720538D01*
X106148751Y-128957314D01*
X106171931Y-129012457D01*
X106194339Y-129067920D01*
X106198665Y-129076054D01*
X106198667Y-129076059D01*
X106198670Y-129076064D01*
X106316553Y-129294086D01*
X106349988Y-129343654D01*
X106382759Y-129393735D01*
X106388584Y-129400876D01*
X106546577Y-129591856D01*
X106589012Y-129633995D01*
X106630875Y-129676745D01*
X106637976Y-129682618D01*
X106830053Y-129839273D01*
X106879875Y-129872374D01*
X106929237Y-129906173D01*
X106937343Y-129910556D01*
X107156191Y-130026919D01*
X107211479Y-130049707D01*
X107266475Y-130073279D01*
X107275278Y-130076003D01*
X107512559Y-130147643D01*
X107571246Y-130159264D01*
X107629752Y-130171700D01*
X107638915Y-130172663D01*
X107638917Y-130172663D01*
X107885595Y-130196850D01*
X107885598Y-130196850D01*
X107917581Y-130200000D01*
X111792419Y-130200000D01*
X111825661Y-130196726D01*
X111842137Y-130196726D01*
X111851302Y-130195763D01*
X112097618Y-130168134D01*
X112156098Y-130155703D01*
X112214808Y-130144079D01*
X112223611Y-130141353D01*
X112459869Y-130066408D01*
X112514824Y-130042854D01*
X112570158Y-130020047D01*
X112578264Y-130015664D01*
X112795466Y-129896256D01*
X112844791Y-129862482D01*
X112894648Y-129829357D01*
X112901749Y-129823483D01*
X113091621Y-129664160D01*
X113133465Y-129621431D01*
X113175918Y-129579273D01*
X113181742Y-129572132D01*
X113337053Y-129378965D01*
X113369814Y-129328901D01*
X113403260Y-129279315D01*
X113407586Y-129271179D01*
X113522418Y-129051524D01*
X113544802Y-128996120D01*
X113568007Y-128940919D01*
X113570670Y-128932097D01*
X113640652Y-128694321D01*
X113651861Y-128635559D01*
X113663890Y-128576962D01*
X113664789Y-128567791D01*
X113687253Y-128320951D01*
X113686835Y-128261135D01*
X113687253Y-128201318D01*
X113686354Y-128192147D01*
X113660446Y-127945644D01*
X113648412Y-127887017D01*
X113637208Y-127828284D01*
X113634544Y-127819462D01*
X113561249Y-127582686D01*
X113538074Y-127527555D01*
X113515661Y-127472080D01*
X113511334Y-127463944D01*
X113393446Y-127245914D01*
X113360012Y-127196346D01*
X113327240Y-127146265D01*
X113321416Y-127139124D01*
X113163423Y-126948144D01*
X113120988Y-126906005D01*
X113079125Y-126863255D01*
X113072024Y-126857381D01*
X112879946Y-126700727D01*
X112830169Y-126667655D01*
X112780763Y-126633826D01*
X112772657Y-126629444D01*
X112553809Y-126513081D01*
X112498532Y-126490298D01*
X112443525Y-126466721D01*
X112434722Y-126463997D01*
X112197441Y-126392357D01*
X112138754Y-126380736D01*
X112080248Y-126368300D01*
X112071085Y-126367337D01*
X112071083Y-126367337D01*
X111840009Y-126344680D01*
X111945625Y-126344680D01*
X112309741Y-126272253D01*
X112652731Y-126130182D01*
X112961413Y-125923926D01*
X113223926Y-125661413D01*
X113351825Y-125470000D01*
X116071315Y-125470000D01*
X116137114Y-125535799D01*
X116363957Y-125687371D01*
X116616011Y-125791775D01*
X116883589Y-125845000D01*
X117156411Y-125845000D01*
X117423989Y-125791775D01*
X117676043Y-125687371D01*
X117902886Y-125535799D01*
X118095799Y-125342886D01*
X118247371Y-125116043D01*
X118351775Y-124863989D01*
X118405000Y-124596411D01*
X118405000Y-124323589D01*
X120535000Y-124323589D01*
X120535000Y-124596411D01*
X120588225Y-124863989D01*
X120692629Y-125116043D01*
X120844201Y-125342886D01*
X121037114Y-125535799D01*
X121263957Y-125687371D01*
X121516011Y-125791775D01*
X121783589Y-125845000D01*
X122056411Y-125845000D01*
X122323989Y-125791775D01*
X122576043Y-125687371D01*
X122802886Y-125535799D01*
X122868685Y-125470000D01*
X125112248Y-125470000D01*
X125112248Y-125709680D01*
X125124508Y-125834162D01*
X125160818Y-125953860D01*
X125219783Y-126064174D01*
X125299135Y-126160865D01*
X125395826Y-126240217D01*
X125506140Y-126299182D01*
X125625838Y-126335492D01*
X125684596Y-126341279D01*
X125664339Y-126343274D01*
X125647863Y-126343274D01*
X125638698Y-126344237D01*
X125392382Y-126371866D01*
X125333865Y-126384305D01*
X125275192Y-126395922D01*
X125266389Y-126398647D01*
X125030131Y-126473592D01*
X124975209Y-126497132D01*
X124919842Y-126519952D01*
X124911736Y-126524336D01*
X124694534Y-126643744D01*
X124645171Y-126677543D01*
X124595352Y-126710643D01*
X124588252Y-126716517D01*
X124398379Y-126875839D01*
X124356516Y-126918588D01*
X124314082Y-126960727D01*
X124308258Y-126967868D01*
X124152947Y-127161035D01*
X124120186Y-127211099D01*
X124086740Y-127260685D01*
X124082418Y-127268814D01*
X124082415Y-127268819D01*
X124082414Y-127268822D01*
X123967582Y-127488476D01*
X123945173Y-127543942D01*
X123921994Y-127599081D01*
X123919330Y-127607903D01*
X123849348Y-127845679D01*
X123838139Y-127904441D01*
X123826110Y-127963038D01*
X123825211Y-127972209D01*
X123802747Y-128219049D01*
X123803165Y-128278866D01*
X123802747Y-128338682D01*
X123803646Y-128347853D01*
X123829554Y-128594357D01*
X123841588Y-128652983D01*
X123852792Y-128711716D01*
X123855456Y-128720538D01*
X123928751Y-128957314D01*
X123951931Y-129012457D01*
X123974339Y-129067920D01*
X123978665Y-129076054D01*
X123978667Y-129076059D01*
X123978670Y-129076064D01*
X124096553Y-129294086D01*
X124129988Y-129343654D01*
X124162759Y-129393735D01*
X124168584Y-129400876D01*
X124326577Y-129591856D01*
X124369012Y-129633995D01*
X124410875Y-129676745D01*
X124417976Y-129682618D01*
X124610053Y-129839273D01*
X124659875Y-129872374D01*
X124709237Y-129906173D01*
X124717343Y-129910556D01*
X124936191Y-130026919D01*
X124991479Y-130049707D01*
X125046475Y-130073279D01*
X125055278Y-130076003D01*
X125292559Y-130147643D01*
X125351246Y-130159264D01*
X125409752Y-130171700D01*
X125418915Y-130172663D01*
X125418917Y-130172663D01*
X125665595Y-130196850D01*
X125665598Y-130196850D01*
X125697581Y-130200000D01*
X130842419Y-130200000D01*
X130875661Y-130196726D01*
X130892137Y-130196726D01*
X130901302Y-130195763D01*
X131147618Y-130168134D01*
X131206098Y-130155703D01*
X131264808Y-130144079D01*
X131273611Y-130141353D01*
X131509869Y-130066408D01*
X131564824Y-130042854D01*
X131620158Y-130020047D01*
X131628264Y-130015664D01*
X131845466Y-129896256D01*
X131894791Y-129862482D01*
X131944648Y-129829357D01*
X131951749Y-129823483D01*
X132141621Y-129664160D01*
X132183465Y-129621431D01*
X132225918Y-129579273D01*
X132231742Y-129572132D01*
X132387053Y-129378965D01*
X132419814Y-129328901D01*
X132453260Y-129279315D01*
X132457586Y-129271179D01*
X132572418Y-129051524D01*
X132594802Y-128996120D01*
X132618007Y-128940919D01*
X132620670Y-128932097D01*
X132690652Y-128694321D01*
X132701861Y-128635559D01*
X132713890Y-128576962D01*
X132714789Y-128567791D01*
X132737253Y-128320951D01*
X132736835Y-128261135D01*
X132737253Y-128201318D01*
X132736354Y-128192147D01*
X132710446Y-127945644D01*
X132698412Y-127887017D01*
X132687208Y-127828284D01*
X132684544Y-127819462D01*
X132611249Y-127582686D01*
X132588074Y-127527555D01*
X132565661Y-127472080D01*
X132561334Y-127463944D01*
X132443446Y-127245914D01*
X132410012Y-127196346D01*
X132377240Y-127146265D01*
X132371416Y-127139124D01*
X132213423Y-126948144D01*
X132170988Y-126906005D01*
X132129125Y-126863255D01*
X132122024Y-126857381D01*
X131929946Y-126700727D01*
X131880169Y-126667655D01*
X131830763Y-126633826D01*
X131822657Y-126629444D01*
X131603809Y-126513081D01*
X131548532Y-126490298D01*
X131493525Y-126466721D01*
X131484722Y-126463997D01*
X131247441Y-126392357D01*
X131188754Y-126380736D01*
X131130248Y-126368300D01*
X131121085Y-126367337D01*
X131121083Y-126367337D01*
X130911935Y-126346830D01*
X131231025Y-126306405D01*
X131583151Y-126188789D01*
X131817896Y-126063315D01*
X131943771Y-125773377D01*
X130810000Y-124639605D01*
X129676229Y-125773377D01*
X129802104Y-126063315D01*
X130134262Y-126229139D01*
X130492387Y-126326975D01*
X130677269Y-126340000D01*
X128328390Y-126340000D01*
X128374162Y-126335492D01*
X128493860Y-126299182D01*
X128604174Y-126240217D01*
X128700865Y-126160865D01*
X128780217Y-126064174D01*
X128839182Y-125953860D01*
X128875492Y-125834162D01*
X128887752Y-125709680D01*
X128887752Y-124512719D01*
X128916935Y-124512719D01*
X128963595Y-124881025D01*
X129081211Y-125233151D01*
X129206685Y-125467896D01*
X129496623Y-125593771D01*
X130630395Y-124460000D01*
X130989605Y-124460000D01*
X132123377Y-125593771D01*
X132413315Y-125467896D01*
X132579139Y-125135738D01*
X132676975Y-124777613D01*
X132703065Y-124407281D01*
X132656405Y-124038975D01*
X132538789Y-123686849D01*
X132413315Y-123452104D01*
X132123377Y-123326229D01*
X130989605Y-124460000D01*
X130630395Y-124460000D01*
X129496623Y-123326229D01*
X129206685Y-123452104D01*
X129040861Y-123784262D01*
X128943025Y-124142387D01*
X128916935Y-124512719D01*
X128887752Y-124512719D01*
X128887752Y-123210320D01*
X128881479Y-123146623D01*
X129676229Y-123146623D01*
X130810000Y-124280395D01*
X131943771Y-123146623D01*
X131817896Y-122856685D01*
X131485738Y-122690861D01*
X131127613Y-122593025D01*
X130757281Y-122566935D01*
X130388975Y-122613595D01*
X130036849Y-122731211D01*
X129802104Y-122856685D01*
X129676229Y-123146623D01*
X128881479Y-123146623D01*
X128875492Y-123085838D01*
X128839182Y-122966140D01*
X128780217Y-122855826D01*
X128700865Y-122759135D01*
X128604174Y-122679783D01*
X128493860Y-122620818D01*
X128374162Y-122584508D01*
X128249680Y-122572248D01*
X125750320Y-122572248D01*
X125625838Y-122584508D01*
X125506140Y-122620818D01*
X125395826Y-122679783D01*
X125299135Y-122759135D01*
X125219783Y-122855826D01*
X125160818Y-122966140D01*
X125124508Y-123085838D01*
X125112248Y-123210320D01*
X125112248Y-123450000D01*
X122868685Y-123450000D01*
X122802886Y-123384201D01*
X122576043Y-123232629D01*
X122323989Y-123128225D01*
X122056411Y-123075000D01*
X121783589Y-123075000D01*
X121516011Y-123128225D01*
X121263957Y-123232629D01*
X121037114Y-123384201D01*
X120844201Y-123577114D01*
X120692629Y-123803957D01*
X120588225Y-124056011D01*
X120535000Y-124323589D01*
X118405000Y-124323589D01*
X118351775Y-124056011D01*
X118247371Y-123803957D01*
X118095799Y-123577114D01*
X117902886Y-123384201D01*
X117676043Y-123232629D01*
X117423989Y-123128225D01*
X117156411Y-123075000D01*
X116883589Y-123075000D01*
X116616011Y-123128225D01*
X116363957Y-123232629D01*
X116137114Y-123384201D01*
X116071315Y-123450000D01*
X113351825Y-123450000D01*
X113223926Y-123258587D01*
X112961413Y-122996074D01*
X112652731Y-122789818D01*
X112309741Y-122647747D01*
X111945625Y-122575320D01*
X111574375Y-122575320D01*
X111210259Y-122647747D01*
X110867269Y-122789818D01*
X110558587Y-122996074D01*
X110296074Y-123258587D01*
X110089818Y-123567269D01*
X109947747Y-123910259D01*
X109875320Y-124274375D01*
X109875320Y-124645625D01*
X109947747Y-125009741D01*
X110089818Y-125352731D01*
X110296074Y-125661413D01*
X110558587Y-125923926D01*
X110867269Y-126130182D01*
X111210259Y-126272253D01*
X111550847Y-126340000D01*
X109278390Y-126340000D01*
X109324162Y-126335492D01*
X109443860Y-126299182D01*
X109554174Y-126240217D01*
X109650865Y-126160865D01*
X109730217Y-126064174D01*
X109789182Y-125953860D01*
X109825492Y-125834162D01*
X109837752Y-125709680D01*
X109837752Y-123210320D01*
X109825492Y-123085838D01*
X109789182Y-122966140D01*
X109730217Y-122855826D01*
X109650865Y-122759135D01*
X109554174Y-122679783D01*
X109443860Y-122620818D01*
X109324162Y-122584508D01*
X109199680Y-122572248D01*
X106700320Y-122572248D01*
X106575838Y-122584508D01*
X106456140Y-122620818D01*
X106345826Y-122679783D01*
X106249135Y-122759135D01*
X106169783Y-122855826D01*
X106110818Y-122966140D01*
X106074508Y-123085838D01*
X106062248Y-123210320D01*
X106062248Y-125709680D01*
X106074508Y-125834162D01*
X106110818Y-125953860D01*
X106169783Y-126064174D01*
X106249135Y-126160865D01*
X106345826Y-126240217D01*
X106456140Y-126299182D01*
X106575838Y-126335492D01*
X106700320Y-126347752D01*
X107827361Y-126347752D01*
X107612382Y-126371866D01*
X107553865Y-126384305D01*
X107495192Y-126395922D01*
X107486389Y-126398647D01*
X107250131Y-126473592D01*
X107195209Y-126497132D01*
X107139842Y-126519952D01*
X107131736Y-126524336D01*
X106914534Y-126643744D01*
X106865171Y-126677543D01*
X106815352Y-126710643D01*
X106808252Y-126716517D01*
X106618379Y-126875839D01*
X106576516Y-126918588D01*
X106534082Y-126960727D01*
X106528258Y-126967868D01*
X106372947Y-127161035D01*
X106340186Y-127211099D01*
X106306740Y-127260685D01*
X106302418Y-127268814D01*
X106302415Y-127268819D01*
X106302414Y-127268822D01*
X106187582Y-127488476D01*
X106165173Y-127543942D01*
X106141994Y-127599081D01*
X106139330Y-127607903D01*
X106069348Y-127845679D01*
X106058139Y-127904441D01*
X106046110Y-127963038D01*
X106045211Y-127972209D01*
X106022747Y-128219049D01*
X104800000Y-128219049D01*
X104800000Y-83518223D01*
X104890660Y-83527152D01*
X104898038Y-83551473D01*
X104973251Y-83692189D01*
X105028852Y-83759939D01*
X105074473Y-83815528D01*
X105105383Y-83840895D01*
X107519553Y-86255065D01*
X107270273Y-86358320D01*
X107035241Y-86515363D01*
X106835363Y-86715241D01*
X106678320Y-86950273D01*
X106570147Y-87211426D01*
X106515000Y-87488665D01*
X106515000Y-87771335D01*
X106570147Y-88048574D01*
X106678320Y-88309727D01*
X106835363Y-88544759D01*
X107035241Y-88744637D01*
X107267759Y-88900000D01*
X107035241Y-89055363D01*
X106835363Y-89255241D01*
X106678320Y-89490273D01*
X106570147Y-89751426D01*
X106515000Y-90028665D01*
X106515000Y-90311335D01*
X106570147Y-90588574D01*
X106678320Y-90849727D01*
X106835363Y-91084759D01*
X107035241Y-91284637D01*
X107267759Y-91440000D01*
X107035241Y-91595363D01*
X106835363Y-91795241D01*
X106678320Y-92030273D01*
X106570147Y-92291426D01*
X106515000Y-92568665D01*
X106515000Y-92851335D01*
X106570147Y-93128574D01*
X106678320Y-93389727D01*
X106835363Y-93624759D01*
X107035241Y-93824637D01*
X107267759Y-93980000D01*
X107035241Y-94135363D01*
X106835363Y-94335241D01*
X106678320Y-94570273D01*
X106570147Y-94831426D01*
X106515000Y-95108665D01*
X106515000Y-95391335D01*
X106570147Y-95668574D01*
X106678320Y-95929727D01*
X106835363Y-96164759D01*
X107035241Y-96364637D01*
X107267759Y-96520000D01*
X107035241Y-96675363D01*
X106835363Y-96875241D01*
X106678320Y-97110273D01*
X106570147Y-97371426D01*
X106550923Y-97468071D01*
X106445000Y-97555000D01*
X106350027Y-97670725D01*
X106279455Y-97802754D01*
X106235998Y-97946015D01*
X106221324Y-98095001D01*
X106235998Y-98243987D01*
X106279455Y-98387248D01*
X106350027Y-98519277D01*
X106445000Y-98635002D01*
X106560725Y-98729975D01*
X106692754Y-98800547D01*
X106836015Y-98844004D01*
X106947668Y-98855001D01*
X106985605Y-98855001D01*
X107035241Y-98904637D01*
X107267759Y-99060000D01*
X107035241Y-99215363D01*
X106835363Y-99415241D01*
X106678320Y-99650273D01*
X106570147Y-99911426D01*
X106515000Y-100188665D01*
X106515000Y-100471335D01*
X106570147Y-100748574D01*
X106678320Y-101009727D01*
X106835363Y-101244759D01*
X107035241Y-101444637D01*
X107267759Y-101600000D01*
X107035241Y-101755363D01*
X106835363Y-101955241D01*
X106678320Y-102190273D01*
X106570147Y-102451426D01*
X106515000Y-102728665D01*
X106515000Y-103011335D01*
X106570147Y-103288574D01*
X106678320Y-103549727D01*
X106835363Y-103784759D01*
X107035241Y-103984637D01*
X107267759Y-104140000D01*
X107035241Y-104295363D01*
X106835363Y-104495241D01*
X106678320Y-104730273D01*
X106570147Y-104991426D01*
X106515000Y-105268665D01*
X106515000Y-105551335D01*
X106570147Y-105828574D01*
X106678320Y-106089727D01*
X106835363Y-106324759D01*
X107035241Y-106524637D01*
X107267759Y-106680000D01*
X107035241Y-106835363D01*
X106835363Y-107035241D01*
X106678320Y-107270273D01*
X106570147Y-107531426D01*
X106515000Y-107808665D01*
X106515000Y-108091335D01*
X106570147Y-108368574D01*
X106678320Y-108629727D01*
X106835363Y-108864759D01*
X107035241Y-109064637D01*
X107267759Y-109220000D01*
X107035241Y-109375363D01*
X106835363Y-109575241D01*
X106678320Y-109810273D01*
X106570147Y-110071426D01*
X106515000Y-110348665D01*
X106515000Y-110631335D01*
X106570147Y-110908574D01*
X106678320Y-111169727D01*
X106835363Y-111404759D01*
X107035241Y-111604637D01*
X107267759Y-111760000D01*
X107035241Y-111915363D01*
X106835363Y-112115241D01*
X106678320Y-112350273D01*
X106570147Y-112611426D01*
X106515000Y-112888665D01*
X106515000Y-113171335D01*
X106570147Y-113448574D01*
X106678320Y-113709727D01*
X106835363Y-113944759D01*
X107035241Y-114144637D01*
X107267759Y-114300000D01*
X107035241Y-114455363D01*
X106835363Y-114655241D01*
X106678320Y-114890273D01*
X106570147Y-115151426D01*
X106515000Y-115428665D01*
X106515000Y-115711335D01*
X106570147Y-115988574D01*
X106678320Y-116249727D01*
X106835363Y-116484759D01*
X107035241Y-116684637D01*
X107267759Y-116840000D01*
X107035241Y-116995363D01*
X106835363Y-117195241D01*
X106678320Y-117430273D01*
X106570147Y-117691426D01*
X106515000Y-117968665D01*
X106515000Y-118251335D01*
X106570147Y-118528574D01*
X106678320Y-118789727D01*
X106835363Y-119024759D01*
X107035241Y-119224637D01*
X107267759Y-119380000D01*
X107035241Y-119535363D01*
X106835363Y-119735241D01*
X106678320Y-119970273D01*
X106570147Y-120231426D01*
X106515000Y-120508665D01*
X106515000Y-120791335D01*
X106570147Y-121068574D01*
X106678320Y-121329727D01*
X106835363Y-121564759D01*
X107035241Y-121764637D01*
X107270273Y-121921680D01*
X107531426Y-122029853D01*
X107808665Y-122085000D01*
X108091335Y-122085000D01*
X108368574Y-122029853D01*
X108629727Y-121921680D01*
X108864759Y-121764637D01*
X109064637Y-121564759D01*
X109221680Y-121329727D01*
X109329853Y-121068574D01*
X109385000Y-120791335D01*
X109385000Y-120508665D01*
X109329853Y-120231426D01*
X109221680Y-119970273D01*
X109064637Y-119735241D01*
X108864759Y-119535363D01*
X108632241Y-119380000D01*
X108864759Y-119224637D01*
X109064637Y-119024759D01*
X109221680Y-118789727D01*
X109329853Y-118528574D01*
X109385000Y-118251335D01*
X109385000Y-117968665D01*
X109329853Y-117691426D01*
X109221680Y-117430273D01*
X109064637Y-117195241D01*
X108864759Y-116995363D01*
X108632241Y-116840000D01*
X108864759Y-116684637D01*
X109064637Y-116484759D01*
X109221680Y-116249727D01*
X109329853Y-115988574D01*
X109385000Y-115711335D01*
X109385000Y-115428665D01*
X109329853Y-115151426D01*
X109221680Y-114890273D01*
X109064637Y-114655241D01*
X108864759Y-114455363D01*
X108632241Y-114300000D01*
X108864759Y-114144637D01*
X109064637Y-113944759D01*
X109221680Y-113709727D01*
X109329853Y-113448574D01*
X109385000Y-113171335D01*
X109385000Y-112888665D01*
X109329853Y-112611426D01*
X109221680Y-112350273D01*
X109064637Y-112115241D01*
X108864759Y-111915363D01*
X108632241Y-111760000D01*
X108864759Y-111604637D01*
X109064637Y-111404759D01*
X109221680Y-111169727D01*
X109329853Y-110908574D01*
X109385000Y-110631335D01*
X109385000Y-110348665D01*
X109329853Y-110071426D01*
X109221680Y-109810273D01*
X109064637Y-109575241D01*
X108864759Y-109375363D01*
X108632241Y-109220000D01*
X108864759Y-109064637D01*
X109064637Y-108864759D01*
X109221680Y-108629727D01*
X109329853Y-108368574D01*
X109385000Y-108091335D01*
X109385000Y-107808665D01*
X109329853Y-107531426D01*
X109221680Y-107270273D01*
X109064637Y-107035241D01*
X108864759Y-106835363D01*
X108632241Y-106680000D01*
X108864759Y-106524637D01*
X109064637Y-106324759D01*
X109221680Y-106089727D01*
X109329853Y-105828574D01*
X109385000Y-105551335D01*
X109385000Y-105268665D01*
X109329853Y-104991426D01*
X109221680Y-104730273D01*
X109064637Y-104495241D01*
X108864759Y-104295363D01*
X108632241Y-104140000D01*
X108864759Y-103984637D01*
X109064637Y-103784759D01*
X109221680Y-103549727D01*
X109329853Y-103288574D01*
X109385000Y-103011335D01*
X109385000Y-102728665D01*
X109329853Y-102451426D01*
X109221680Y-102190273D01*
X109064637Y-101955241D01*
X108864759Y-101755363D01*
X108632241Y-101600000D01*
X108864759Y-101444637D01*
X109064637Y-101244759D01*
X109221680Y-101009727D01*
X109329853Y-100748574D01*
X109385000Y-100471335D01*
X109385000Y-100188665D01*
X109329853Y-99911426D01*
X109221680Y-99650273D01*
X109064637Y-99415241D01*
X108864759Y-99215363D01*
X108632241Y-99060000D01*
X108864759Y-98904637D01*
X109064637Y-98704759D01*
X109221680Y-98469727D01*
X109329853Y-98208574D01*
X109385000Y-97931335D01*
X109385000Y-97648665D01*
X109329853Y-97371426D01*
X109221680Y-97110273D01*
X109064637Y-96875241D01*
X108864759Y-96675363D01*
X108632241Y-96520000D01*
X108864759Y-96364637D01*
X109064637Y-96164759D01*
X109221680Y-95929727D01*
X109329853Y-95668574D01*
X109385000Y-95391335D01*
X109385000Y-95108665D01*
X109329853Y-94831426D01*
X109221680Y-94570273D01*
X109064637Y-94335241D01*
X108864759Y-94135363D01*
X108632241Y-93980000D01*
X108864759Y-93824637D01*
X109064637Y-93624759D01*
X109221680Y-93389727D01*
X109329853Y-93128574D01*
X109385000Y-92851335D01*
X109385000Y-92568665D01*
X109329853Y-92291426D01*
X109221680Y-92030273D01*
X109064637Y-91795241D01*
X108864759Y-91595363D01*
X108632241Y-91440000D01*
X108864759Y-91284637D01*
X109064637Y-91084759D01*
X109221680Y-90849727D01*
X109329853Y-90588574D01*
X109385000Y-90311335D01*
X109385000Y-90028665D01*
X109329853Y-89751426D01*
X109221680Y-89490273D01*
X109064637Y-89255241D01*
X108864759Y-89055363D01*
X108632241Y-88900000D01*
X108864759Y-88744637D01*
X109064637Y-88544759D01*
X109221680Y-88309727D01*
X109324935Y-88060447D01*
X112484979Y-91220491D01*
X112484980Y-108175181D01*
X112481060Y-108214979D01*
X112496700Y-108373766D01*
X112543017Y-108526452D01*
X112618230Y-108667168D01*
X112646785Y-108701962D01*
X112719452Y-108790507D01*
X112750362Y-108815874D01*
X114159580Y-110225093D01*
X114135000Y-110348665D01*
X114135000Y-110631335D01*
X114190147Y-110908574D01*
X114298320Y-111169727D01*
X114455363Y-111404759D01*
X114655241Y-111604637D01*
X114887759Y-111760000D01*
X114655241Y-111915363D01*
X114455363Y-112115241D01*
X114298320Y-112350273D01*
X114190147Y-112611426D01*
X114135000Y-112888665D01*
X114135000Y-113171335D01*
X114190147Y-113448574D01*
X114298320Y-113709727D01*
X114455363Y-113944759D01*
X114655241Y-114144637D01*
X114887759Y-114300000D01*
X114655241Y-114455363D01*
X114455363Y-114655241D01*
X114298320Y-114890273D01*
X114190147Y-115151426D01*
X114135000Y-115428665D01*
X114135000Y-115711335D01*
X114190147Y-115988574D01*
X114298320Y-116249727D01*
X114455363Y-116484759D01*
X114655241Y-116684637D01*
X114887759Y-116840000D01*
X114655241Y-116995363D01*
X114455363Y-117195241D01*
X114298320Y-117430273D01*
X114190147Y-117691426D01*
X114135000Y-117968665D01*
X114135000Y-118251335D01*
X114190147Y-118528574D01*
X114298320Y-118789727D01*
X114455363Y-119024759D01*
X114653961Y-119223357D01*
X114645518Y-119224188D01*
X114525820Y-119260498D01*
X114415506Y-119319463D01*
X114318815Y-119398815D01*
X114239463Y-119495506D01*
X114180498Y-119605820D01*
X114144188Y-119725518D01*
X114131928Y-119850000D01*
X114131928Y-121450000D01*
X114144188Y-121574482D01*
X114180498Y-121694180D01*
X114239463Y-121804494D01*
X114318815Y-121901185D01*
X114415506Y-121980537D01*
X114525820Y-122039502D01*
X114645518Y-122075812D01*
X114770000Y-122088072D01*
X116370000Y-122088072D01*
X116494482Y-122075812D01*
X116614180Y-122039502D01*
X116724494Y-121980537D01*
X116821185Y-121901185D01*
X116900537Y-121804494D01*
X116959502Y-121694180D01*
X116995812Y-121574482D01*
X117008072Y-121450000D01*
X117008072Y-119850000D01*
X116995812Y-119725518D01*
X116959502Y-119605820D01*
X116900537Y-119495506D01*
X116821185Y-119398815D01*
X116724494Y-119319463D01*
X116614180Y-119260498D01*
X116494482Y-119224188D01*
X116486039Y-119223357D01*
X116684637Y-119024759D01*
X116841680Y-118789727D01*
X116949853Y-118528574D01*
X117005000Y-118251335D01*
X117005000Y-117968665D01*
X116949853Y-117691426D01*
X116841680Y-117430273D01*
X116684637Y-117195241D01*
X116484759Y-116995363D01*
X116252241Y-116840000D01*
X116484759Y-116684637D01*
X116684637Y-116484759D01*
X116841680Y-116249727D01*
X116949853Y-115988574D01*
X117005000Y-115711335D01*
X117005000Y-115610512D01*
X121319105Y-119924618D01*
X121344472Y-119955528D01*
X121412210Y-120011119D01*
X121467810Y-120056749D01*
X121543024Y-120096951D01*
X121608527Y-120131963D01*
X121761212Y-120178280D01*
X121880209Y-120190000D01*
X121880211Y-120190000D01*
X121919999Y-120193919D01*
X121959787Y-120190000D01*
X125112248Y-120190000D01*
X125112248Y-120629680D01*
X125124508Y-120754162D01*
X125160818Y-120873860D01*
X125219783Y-120984174D01*
X125299135Y-121080865D01*
X125395826Y-121160217D01*
X125506140Y-121219182D01*
X125625838Y-121255492D01*
X125750320Y-121267752D01*
X128249680Y-121267752D01*
X128374162Y-121255492D01*
X128493860Y-121219182D01*
X128604174Y-121160217D01*
X128700865Y-121080865D01*
X128780217Y-120984174D01*
X128839182Y-120873860D01*
X128875492Y-120754162D01*
X128887752Y-120629680D01*
X128887752Y-119194375D01*
X128925320Y-119194375D01*
X128925320Y-119565625D01*
X128997747Y-119929741D01*
X129139818Y-120272731D01*
X129346074Y-120581413D01*
X129608587Y-120843926D01*
X129917269Y-121050182D01*
X130260259Y-121192253D01*
X130624375Y-121264680D01*
X130995625Y-121264680D01*
X131359741Y-121192253D01*
X131702731Y-121050182D01*
X132011413Y-120843926D01*
X132273926Y-120581413D01*
X132480182Y-120272731D01*
X132622253Y-119929741D01*
X132694680Y-119565625D01*
X132694680Y-119194375D01*
X132622253Y-118830259D01*
X132480182Y-118487269D01*
X132273926Y-118178587D01*
X132011413Y-117916074D01*
X131702731Y-117709818D01*
X131359741Y-117567747D01*
X130995625Y-117495320D01*
X130624375Y-117495320D01*
X130260259Y-117567747D01*
X129917269Y-117709818D01*
X129608587Y-117916074D01*
X129346074Y-118178587D01*
X129139818Y-118487269D01*
X128997747Y-118830259D01*
X128925320Y-119194375D01*
X128887752Y-119194375D01*
X128887752Y-118130320D01*
X128875492Y-118005838D01*
X128839182Y-117886140D01*
X128780217Y-117775826D01*
X128700865Y-117679135D01*
X128604174Y-117599783D01*
X128493860Y-117540818D01*
X128374162Y-117504508D01*
X128249680Y-117492248D01*
X125750320Y-117492248D01*
X125625838Y-117504508D01*
X125506140Y-117540818D01*
X125395826Y-117599783D01*
X125299135Y-117679135D01*
X125219783Y-117775826D01*
X125160818Y-117886140D01*
X125124508Y-118005838D01*
X125112248Y-118130320D01*
X125112248Y-118570000D01*
X122255513Y-118570000D01*
X116980420Y-113294907D01*
X117005000Y-113171335D01*
X117005000Y-112888665D01*
X116949853Y-112611426D01*
X116841680Y-112350273D01*
X116684637Y-112115241D01*
X116484759Y-111915363D01*
X116252241Y-111760000D01*
X116484759Y-111604637D01*
X116684637Y-111404759D01*
X116841680Y-111169727D01*
X116949853Y-110908574D01*
X117005000Y-110631335D01*
X117005000Y-110348665D01*
X116949853Y-110071426D01*
X116841680Y-109810273D01*
X116684637Y-109575241D01*
X116484759Y-109375363D01*
X116252241Y-109220000D01*
X116484759Y-109064637D01*
X116606694Y-108942702D01*
X118566903Y-108942702D01*
X118638486Y-109186671D01*
X118893996Y-109307571D01*
X119168184Y-109376300D01*
X119450512Y-109390217D01*
X119730130Y-109348787D01*
X119996292Y-109253603D01*
X120121514Y-109186671D01*
X120193097Y-108942702D01*
X119380000Y-108129605D01*
X118566903Y-108942702D01*
X116606694Y-108942702D01*
X116684637Y-108864759D01*
X116841680Y-108629727D01*
X116949853Y-108368574D01*
X117005000Y-108091335D01*
X117005000Y-108020512D01*
X117939783Y-108020512D01*
X117981213Y-108300130D01*
X118076397Y-108566292D01*
X118143329Y-108691514D01*
X118387298Y-108763097D01*
X119200395Y-107950000D01*
X118387298Y-107136903D01*
X118143329Y-107208486D01*
X118022429Y-107463996D01*
X117953700Y-107738184D01*
X117939783Y-108020512D01*
X117005000Y-108020512D01*
X117005000Y-107808665D01*
X116949853Y-107531426D01*
X116841680Y-107270273D01*
X116684637Y-107035241D01*
X116484759Y-106835363D01*
X116249727Y-106678320D01*
X116239135Y-106673933D01*
X116425131Y-106562385D01*
X116633519Y-106373414D01*
X116801037Y-106147420D01*
X116921246Y-105893087D01*
X116961904Y-105759039D01*
X116839915Y-105537000D01*
X115697000Y-105537000D01*
X115697000Y-105557000D01*
X115443000Y-105557000D01*
X115443000Y-105537000D01*
X114300085Y-105537000D01*
X114178096Y-105759039D01*
X114218754Y-105893087D01*
X114338963Y-106147420D01*
X114506481Y-106373414D01*
X114714869Y-106562385D01*
X114900865Y-106673933D01*
X114890273Y-106678320D01*
X114655241Y-106835363D01*
X114455363Y-107035241D01*
X114298320Y-107270273D01*
X114190147Y-107531426D01*
X114135000Y-107808665D01*
X114135000Y-107909488D01*
X114104979Y-107879467D01*
X114104979Y-94930491D01*
X114159580Y-94985093D01*
X114135000Y-95108665D01*
X114135000Y-95391335D01*
X114190147Y-95668574D01*
X114298320Y-95929727D01*
X114455363Y-96164759D01*
X114655241Y-96364637D01*
X114887759Y-96520000D01*
X114655241Y-96675363D01*
X114455363Y-96875241D01*
X114298320Y-97110273D01*
X114190147Y-97371426D01*
X114135000Y-97648665D01*
X114135000Y-97931335D01*
X114190147Y-98208574D01*
X114298320Y-98469727D01*
X114455363Y-98704759D01*
X114655241Y-98904637D01*
X114887759Y-99060000D01*
X114655241Y-99215363D01*
X114455363Y-99415241D01*
X114298320Y-99650273D01*
X114190147Y-99911426D01*
X114135000Y-100188665D01*
X114135000Y-100471335D01*
X114190147Y-100748574D01*
X114298320Y-101009727D01*
X114455363Y-101244759D01*
X114655241Y-101444637D01*
X114887759Y-101600000D01*
X114655241Y-101755363D01*
X114455363Y-101955241D01*
X114298320Y-102190273D01*
X114190147Y-102451426D01*
X114135000Y-102728665D01*
X114135000Y-103011335D01*
X114190147Y-103288574D01*
X114298320Y-103549727D01*
X114455363Y-103784759D01*
X114655241Y-103984637D01*
X114890273Y-104141680D01*
X114900865Y-104146067D01*
X114714869Y-104257615D01*
X114506481Y-104446586D01*
X114338963Y-104672580D01*
X114218754Y-104926913D01*
X114178096Y-105060961D01*
X114300085Y-105283000D01*
X115443000Y-105283000D01*
X115443000Y-105263000D01*
X115697000Y-105263000D01*
X115697000Y-105283000D01*
X116839915Y-105283000D01*
X116961904Y-105060961D01*
X116921246Y-104926913D01*
X116801037Y-104672580D01*
X116633519Y-104446586D01*
X116425131Y-104257615D01*
X116239135Y-104146067D01*
X116249727Y-104141680D01*
X116484759Y-103984637D01*
X116626942Y-103842454D01*
X119296234Y-106511747D01*
X119029870Y-106551213D01*
X118763708Y-106646397D01*
X118638486Y-106713329D01*
X118566903Y-106957298D01*
X119380000Y-107770395D01*
X119394143Y-107756253D01*
X119573748Y-107935858D01*
X119559605Y-107950000D01*
X120372702Y-108763097D01*
X120616671Y-108691514D01*
X120630324Y-108662659D01*
X120765363Y-108864759D01*
X120965241Y-109064637D01*
X121200273Y-109221680D01*
X121461426Y-109329853D01*
X121738665Y-109385000D01*
X122021335Y-109385000D01*
X122298574Y-109329853D01*
X122559727Y-109221680D01*
X122794759Y-109064637D01*
X122994637Y-108864759D01*
X123151680Y-108629727D01*
X123259853Y-108368574D01*
X123315000Y-108091335D01*
X123315000Y-107808665D01*
X123259853Y-107531426D01*
X123151680Y-107270273D01*
X122994637Y-107035241D01*
X122794759Y-106835363D01*
X122559727Y-106678320D01*
X122298574Y-106570147D01*
X122021335Y-106515000D01*
X121738665Y-106515000D01*
X121615093Y-106539580D01*
X117400900Y-102325388D01*
X117375528Y-102294472D01*
X117252189Y-102193251D01*
X117111473Y-102118037D01*
X116958788Y-102071720D01*
X116839791Y-102060000D01*
X116839788Y-102060000D01*
X116800000Y-102056081D01*
X116760212Y-102060000D01*
X116754635Y-102060000D01*
X116684637Y-101955241D01*
X116484759Y-101755363D01*
X116252241Y-101600000D01*
X116484759Y-101444637D01*
X116684637Y-101244759D01*
X116754635Y-101140000D01*
X117954488Y-101140000D01*
X119282102Y-102467614D01*
X119265000Y-102553589D01*
X119265000Y-102826411D01*
X119318225Y-103093989D01*
X119422629Y-103346043D01*
X119574201Y-103572886D01*
X119767114Y-103765799D01*
X119993957Y-103917371D01*
X120246011Y-104021775D01*
X120513589Y-104075000D01*
X120786411Y-104075000D01*
X121053989Y-104021775D01*
X121306043Y-103917371D01*
X121532886Y-103765799D01*
X121725799Y-103572886D01*
X121774500Y-103500000D01*
X123167722Y-103500000D01*
X123188320Y-103549727D01*
X123345363Y-103784759D01*
X123545241Y-103984637D01*
X123780273Y-104141680D01*
X124041426Y-104249853D01*
X124318665Y-104305000D01*
X124601335Y-104305000D01*
X124878574Y-104249853D01*
X125139727Y-104141680D01*
X125374759Y-103984637D01*
X125574637Y-103784759D01*
X125710000Y-103582173D01*
X125845363Y-103784759D01*
X126045241Y-103984637D01*
X126280273Y-104141680D01*
X126541426Y-104249853D01*
X126818665Y-104305000D01*
X127101335Y-104305000D01*
X127378574Y-104249853D01*
X127639727Y-104141680D01*
X127874759Y-103984637D01*
X128074637Y-103784759D01*
X128231680Y-103549727D01*
X128339853Y-103288574D01*
X128395000Y-103011335D01*
X128395000Y-102728665D01*
X128339853Y-102451426D01*
X128231680Y-102190273D01*
X128074637Y-101955241D01*
X127874759Y-101755363D01*
X127639727Y-101598320D01*
X127378574Y-101490147D01*
X127101335Y-101435000D01*
X126818665Y-101435000D01*
X126541426Y-101490147D01*
X126280273Y-101598320D01*
X126045241Y-101755363D01*
X125845363Y-101955241D01*
X125710000Y-102157827D01*
X125574637Y-101955241D01*
X125374759Y-101755363D01*
X125139727Y-101598320D01*
X124878574Y-101490147D01*
X124601335Y-101435000D01*
X124318665Y-101435000D01*
X124041426Y-101490147D01*
X123780273Y-101598320D01*
X123545241Y-101755363D01*
X123420604Y-101880000D01*
X121774500Y-101880000D01*
X121725799Y-101807114D01*
X121532886Y-101614201D01*
X121306043Y-101462629D01*
X121053989Y-101358225D01*
X120786411Y-101305000D01*
X120513589Y-101305000D01*
X120427614Y-101322102D01*
X118890900Y-99785387D01*
X118865528Y-99754472D01*
X118742189Y-99653251D01*
X118601473Y-99578037D01*
X118448788Y-99531720D01*
X118329791Y-99520000D01*
X118329788Y-99520000D01*
X118290000Y-99516081D01*
X118250212Y-99520000D01*
X116754635Y-99520000D01*
X116684637Y-99415241D01*
X116484759Y-99215363D01*
X116252241Y-99060000D01*
X116484759Y-98904637D01*
X116684637Y-98704759D01*
X116754635Y-98600000D01*
X119525500Y-98600000D01*
X119574201Y-98672886D01*
X119767114Y-98865799D01*
X119993957Y-99017371D01*
X120246011Y-99121775D01*
X120513589Y-99175000D01*
X120786411Y-99175000D01*
X121053989Y-99121775D01*
X121306043Y-99017371D01*
X121532886Y-98865799D01*
X121725799Y-98672886D01*
X121774500Y-98600000D01*
X123275365Y-98600000D01*
X123345363Y-98704759D01*
X123545241Y-98904637D01*
X123780273Y-99061680D01*
X124041426Y-99169853D01*
X124318665Y-99225000D01*
X124601335Y-99225000D01*
X124878574Y-99169853D01*
X125139727Y-99061680D01*
X125374759Y-98904637D01*
X125574637Y-98704759D01*
X125710000Y-98502173D01*
X125845363Y-98704759D01*
X126045241Y-98904637D01*
X126280273Y-99061680D01*
X126541426Y-99169853D01*
X126818665Y-99225000D01*
X127101335Y-99225000D01*
X127378574Y-99169853D01*
X127639727Y-99061680D01*
X127874759Y-98904637D01*
X128074637Y-98704759D01*
X128231680Y-98469727D01*
X128339853Y-98208574D01*
X128395000Y-97931335D01*
X128395000Y-97648665D01*
X128339853Y-97371426D01*
X128231680Y-97110273D01*
X128074637Y-96875241D01*
X127874759Y-96675363D01*
X127639727Y-96518320D01*
X127378574Y-96410147D01*
X127101335Y-96355000D01*
X126818665Y-96355000D01*
X126541426Y-96410147D01*
X126280273Y-96518320D01*
X126045241Y-96675363D01*
X125845363Y-96875241D01*
X125710000Y-97077827D01*
X125574637Y-96875241D01*
X125374759Y-96675363D01*
X125139727Y-96518320D01*
X124878574Y-96410147D01*
X124601335Y-96355000D01*
X124318665Y-96355000D01*
X124041426Y-96410147D01*
X123780273Y-96518320D01*
X123545241Y-96675363D01*
X123345363Y-96875241D01*
X123275365Y-96980000D01*
X121774500Y-96980000D01*
X121725799Y-96907114D01*
X121532886Y-96714201D01*
X121306043Y-96562629D01*
X121053989Y-96458225D01*
X120786411Y-96405000D01*
X120513589Y-96405000D01*
X120246011Y-96458225D01*
X119993957Y-96562629D01*
X119767114Y-96714201D01*
X119574201Y-96907114D01*
X119525500Y-96980000D01*
X116754635Y-96980000D01*
X116684637Y-96875241D01*
X116484759Y-96675363D01*
X116252241Y-96520000D01*
X116484759Y-96364637D01*
X116684637Y-96164759D01*
X116841680Y-95929727D01*
X116949853Y-95668574D01*
X117005000Y-95391335D01*
X117005000Y-95108665D01*
X116949853Y-94831426D01*
X116841680Y-94570273D01*
X116684637Y-94335241D01*
X116484759Y-94135363D01*
X116252241Y-93980000D01*
X116463764Y-93838665D01*
X126875000Y-93838665D01*
X126875000Y-94121335D01*
X126930147Y-94398574D01*
X127038320Y-94659727D01*
X127195363Y-94894759D01*
X127395241Y-95094637D01*
X127630273Y-95251680D01*
X127891426Y-95359853D01*
X128168665Y-95415000D01*
X128451335Y-95415000D01*
X128728574Y-95359853D01*
X128989727Y-95251680D01*
X129224759Y-95094637D01*
X129346694Y-94972702D01*
X129996903Y-94972702D01*
X130068486Y-95216671D01*
X130323996Y-95337571D01*
X130598184Y-95406300D01*
X130880512Y-95420217D01*
X131160130Y-95378787D01*
X131426292Y-95283603D01*
X131551514Y-95216671D01*
X131623097Y-94972702D01*
X130810000Y-94159605D01*
X129996903Y-94972702D01*
X129346694Y-94972702D01*
X129424637Y-94894759D01*
X129558692Y-94694131D01*
X129573329Y-94721514D01*
X129817298Y-94793097D01*
X130630395Y-93980000D01*
X130989605Y-93980000D01*
X131802702Y-94793097D01*
X132046671Y-94721514D01*
X132167571Y-94466004D01*
X132236300Y-94191816D01*
X132250217Y-93909488D01*
X132208787Y-93629870D01*
X132113603Y-93363708D01*
X132046671Y-93238486D01*
X131802702Y-93166903D01*
X130989605Y-93980000D01*
X130630395Y-93980000D01*
X129817298Y-93166903D01*
X129573329Y-93238486D01*
X129559676Y-93267341D01*
X129424637Y-93065241D01*
X129346694Y-92987298D01*
X129996903Y-92987298D01*
X130810000Y-93800395D01*
X131623097Y-92987298D01*
X131551514Y-92743329D01*
X131296004Y-92622429D01*
X131021816Y-92553700D01*
X130739488Y-92539783D01*
X130459870Y-92581213D01*
X130193708Y-92676397D01*
X130068486Y-92743329D01*
X129996903Y-92987298D01*
X129346694Y-92987298D01*
X129224759Y-92865363D01*
X128989727Y-92708320D01*
X128728574Y-92600147D01*
X128451335Y-92545000D01*
X128168665Y-92545000D01*
X127891426Y-92600147D01*
X127630273Y-92708320D01*
X127395241Y-92865363D01*
X127195363Y-93065241D01*
X127038320Y-93300273D01*
X126930147Y-93561426D01*
X126875000Y-93838665D01*
X116463764Y-93838665D01*
X116484759Y-93824637D01*
X116684637Y-93624759D01*
X116841680Y-93389727D01*
X116949853Y-93128574D01*
X117005000Y-92851335D01*
X117005000Y-92568665D01*
X116949853Y-92291426D01*
X116841680Y-92030273D01*
X116684637Y-91795241D01*
X116484759Y-91595363D01*
X116252241Y-91440000D01*
X116484759Y-91284637D01*
X116684637Y-91084759D01*
X116841680Y-90849727D01*
X116949853Y-90588574D01*
X117005000Y-90311335D01*
X117005000Y-90028665D01*
X116949853Y-89751426D01*
X116841680Y-89490273D01*
X116684637Y-89255241D01*
X116484759Y-89055363D01*
X116252241Y-88900000D01*
X116484759Y-88744637D01*
X116684637Y-88544759D01*
X116841680Y-88309727D01*
X116949853Y-88048574D01*
X117005000Y-87771335D01*
X117005000Y-87488665D01*
X116949853Y-87211426D01*
X116841680Y-86950273D01*
X116684637Y-86715241D01*
X116484759Y-86515363D01*
X116249727Y-86358320D01*
X116002748Y-86256018D01*
X116060256Y-86232197D01*
X116220700Y-86124992D01*
X125619480Y-86124992D01*
X125727488Y-86233000D01*
X125592408Y-86233000D01*
X125322510Y-86286686D01*
X125068273Y-86391995D01*
X124839465Y-86544880D01*
X124644880Y-86739465D01*
X124491995Y-86968273D01*
X124460000Y-87045515D01*
X124428005Y-86968273D01*
X124275120Y-86739465D01*
X124080535Y-86544880D01*
X123851727Y-86391995D01*
X123597490Y-86286686D01*
X123327592Y-86233000D01*
X123052408Y-86233000D01*
X122782510Y-86286686D01*
X122528273Y-86391995D01*
X122299465Y-86544880D01*
X122104880Y-86739465D01*
X121951995Y-86968273D01*
X121846686Y-87222510D01*
X121793000Y-87492408D01*
X121793000Y-87767592D01*
X121846686Y-88037490D01*
X121951995Y-88291727D01*
X122104880Y-88520535D01*
X122299465Y-88715120D01*
X122528273Y-88868005D01*
X122605515Y-88900000D01*
X122528273Y-88931995D01*
X122299465Y-89084880D01*
X122104880Y-89279465D01*
X121951995Y-89508273D01*
X121846686Y-89762510D01*
X121793000Y-90032408D01*
X121793000Y-90307592D01*
X121846686Y-90577490D01*
X121951995Y-90831727D01*
X122104880Y-91060535D01*
X122299465Y-91255120D01*
X122528273Y-91408005D01*
X122782510Y-91513314D01*
X123052408Y-91567000D01*
X123327592Y-91567000D01*
X123597490Y-91513314D01*
X123851727Y-91408005D01*
X124080535Y-91255120D01*
X124275120Y-91060535D01*
X124428005Y-90831727D01*
X124460000Y-90754485D01*
X124491995Y-90831727D01*
X124644880Y-91060535D01*
X124839465Y-91255120D01*
X125068273Y-91408005D01*
X125322510Y-91513314D01*
X125592408Y-91567000D01*
X125867592Y-91567000D01*
X126137490Y-91513314D01*
X126391727Y-91408005D01*
X126620535Y-91255120D01*
X126815120Y-91060535D01*
X126968005Y-90831727D01*
X127000000Y-90754485D01*
X127031995Y-90831727D01*
X127184880Y-91060535D01*
X127379465Y-91255120D01*
X127608273Y-91408005D01*
X127862510Y-91513314D01*
X128132408Y-91567000D01*
X128407592Y-91567000D01*
X128677490Y-91513314D01*
X128931727Y-91408005D01*
X129160535Y-91255120D01*
X129280090Y-91135565D01*
X130024040Y-91135565D01*
X130091020Y-91375656D01*
X130340048Y-91492756D01*
X130607135Y-91559023D01*
X130882017Y-91571910D01*
X131154133Y-91530922D01*
X131413023Y-91437636D01*
X131528980Y-91375656D01*
X131595960Y-91135565D01*
X130810000Y-90349605D01*
X130024040Y-91135565D01*
X129280090Y-91135565D01*
X129355120Y-91060535D01*
X129508005Y-90831727D01*
X129537692Y-90760057D01*
X129542364Y-90773023D01*
X129604344Y-90888980D01*
X129844435Y-90955960D01*
X130630395Y-90170000D01*
X130989605Y-90170000D01*
X131775565Y-90955960D01*
X132015656Y-90888980D01*
X132132756Y-90639952D01*
X132199023Y-90372865D01*
X132211910Y-90097983D01*
X132170922Y-89825867D01*
X132077636Y-89566977D01*
X132015656Y-89451020D01*
X131775565Y-89384040D01*
X130989605Y-90170000D01*
X130630395Y-90170000D01*
X129844435Y-89384040D01*
X129604344Y-89451020D01*
X129540515Y-89586760D01*
X129508005Y-89508273D01*
X129355120Y-89279465D01*
X129160535Y-89084880D01*
X128931727Y-88931995D01*
X128854485Y-88900000D01*
X128931727Y-88868005D01*
X129160535Y-88715120D01*
X129355120Y-88520535D01*
X129413920Y-88432535D01*
X129422188Y-88516482D01*
X129458498Y-88636180D01*
X129517463Y-88746494D01*
X129596815Y-88843185D01*
X129693506Y-88922537D01*
X129803820Y-88981502D01*
X129923518Y-89017812D01*
X130048000Y-89030072D01*
X130072683Y-89030072D01*
X130024040Y-89204435D01*
X130810000Y-89990395D01*
X131595960Y-89204435D01*
X131547317Y-89030072D01*
X131572000Y-89030072D01*
X131696482Y-89017812D01*
X131816180Y-88981502D01*
X131926494Y-88922537D01*
X132023185Y-88843185D01*
X132102537Y-88746494D01*
X132161502Y-88636180D01*
X132197812Y-88516482D01*
X132210072Y-88392000D01*
X132210072Y-86868000D01*
X132197812Y-86743518D01*
X132161502Y-86623820D01*
X132102537Y-86513506D01*
X132023185Y-86416815D01*
X131926494Y-86337463D01*
X131816180Y-86278498D01*
X131696482Y-86242188D01*
X131572000Y-86229928D01*
X130048000Y-86229928D01*
X129923518Y-86242188D01*
X129803820Y-86278498D01*
X129693506Y-86337463D01*
X129596815Y-86416815D01*
X129517463Y-86513506D01*
X129458498Y-86623820D01*
X129422188Y-86743518D01*
X129413920Y-86827465D01*
X129355120Y-86739465D01*
X129160535Y-86544880D01*
X128931727Y-86391995D01*
X128677490Y-86286686D01*
X128407592Y-86233000D01*
X128132408Y-86233000D01*
X128037409Y-86251896D01*
X126555891Y-84770379D01*
X126530520Y-84739464D01*
X126407181Y-84638243D01*
X126266465Y-84563029D01*
X126113780Y-84516712D01*
X125994783Y-84504992D01*
X125994780Y-84504992D01*
X125954992Y-84501073D01*
X125915204Y-84504992D01*
X125826767Y-84504992D01*
X125842189Y-84496749D01*
X125965528Y-84395528D01*
X125990899Y-84364613D01*
X126514619Y-83840894D01*
X126545528Y-83815528D01*
X126638999Y-83701633D01*
X126646749Y-83692190D01*
X126721962Y-83551474D01*
X126721963Y-83551473D01*
X126729341Y-83527152D01*
X126844482Y-83515812D01*
X126964180Y-83479502D01*
X127074494Y-83420537D01*
X127120000Y-83383191D01*
X127165506Y-83420537D01*
X127275820Y-83479502D01*
X127395518Y-83515812D01*
X127520000Y-83528072D01*
X127984250Y-83525000D01*
X128143000Y-83366250D01*
X128143000Y-82017000D01*
X128123000Y-82017000D01*
X128123000Y-81763000D01*
X128143000Y-81763000D01*
X128143000Y-80413750D01*
X127984250Y-80255000D01*
X127520000Y-80251928D01*
X127395518Y-80264188D01*
X127275820Y-80300498D01*
X127165506Y-80359463D01*
X127120000Y-80396809D01*
X127074494Y-80359463D01*
X126964180Y-80300498D01*
X126844482Y-80264188D01*
X126720000Y-80251928D01*
X125220000Y-80251928D01*
X125095518Y-80264188D01*
X124975820Y-80300498D01*
X124865506Y-80359463D01*
X124768815Y-80438815D01*
X124689463Y-80535506D01*
X124630498Y-80645820D01*
X124594188Y-80765518D01*
X124581928Y-80890000D01*
X124581928Y-80922130D01*
X124569853Y-80861426D01*
X124461680Y-80600273D01*
X124304637Y-80365241D01*
X124104759Y-80165363D01*
X123869727Y-80008320D01*
X123608574Y-79900147D01*
X123331335Y-79845000D01*
X123048665Y-79845000D01*
X122771426Y-79900147D01*
X122510273Y-80008320D01*
X122275241Y-80165363D01*
X122075363Y-80365241D01*
X121918320Y-80600273D01*
X121810147Y-80861426D01*
X121798072Y-80922130D01*
X121798072Y-80890000D01*
X121785812Y-80765518D01*
X121749502Y-80645820D01*
X121690537Y-80535506D01*
X121611185Y-80438815D01*
X121514494Y-80359463D01*
X121404180Y-80300498D01*
X121284482Y-80264188D01*
X121160000Y-80251928D01*
X119660000Y-80251928D01*
X119535518Y-80264188D01*
X119415820Y-80300498D01*
X119305506Y-80359463D01*
X119260000Y-80396809D01*
X119214494Y-80359463D01*
X119104180Y-80300498D01*
X118984482Y-80264188D01*
X118860000Y-80251928D01*
X118395750Y-80255000D01*
X118237000Y-80413750D01*
X118237000Y-81763000D01*
X118257000Y-81763000D01*
X118257000Y-82017000D01*
X118237000Y-82017000D01*
X118237000Y-82037000D01*
X117983000Y-82037000D01*
X117983000Y-82017000D01*
X117963000Y-82017000D01*
X117963000Y-81763000D01*
X117983000Y-81763000D01*
X117983000Y-80413750D01*
X117824250Y-80255000D01*
X117360000Y-80251928D01*
X117235518Y-80264188D01*
X117115820Y-80300498D01*
X117005506Y-80359463D01*
X116960000Y-80396809D01*
X116914494Y-80359463D01*
X116804180Y-80300498D01*
X116684482Y-80264188D01*
X116560000Y-80251928D01*
X115060000Y-80251928D01*
X114935518Y-80264188D01*
X114815820Y-80300498D01*
X114705506Y-80359463D01*
X114608815Y-80438815D01*
X114529463Y-80535506D01*
X114470498Y-80645820D01*
X114434188Y-80765518D01*
X114421928Y-80890000D01*
X114421928Y-80922130D01*
X114409853Y-80861426D01*
X114301680Y-80600273D01*
X114144637Y-80365241D01*
X113944759Y-80165363D01*
X113709727Y-80008320D01*
X113448574Y-79900147D01*
X113171335Y-79845000D01*
X112888665Y-79845000D01*
X112611426Y-79900147D01*
X112350273Y-80008320D01*
X112115241Y-80165363D01*
X111915363Y-80365241D01*
X111758320Y-80600273D01*
X111650147Y-80861426D01*
X111638072Y-80922130D01*
X111638072Y-80890000D01*
X111625812Y-80765518D01*
X111589502Y-80645820D01*
X111530537Y-80535506D01*
X111451185Y-80438815D01*
X111354494Y-80359463D01*
X111244180Y-80300498D01*
X111124482Y-80264188D01*
X111000000Y-80251928D01*
X109500000Y-80251928D01*
X109375518Y-80264188D01*
X109255820Y-80300498D01*
X109145506Y-80359463D01*
X109100000Y-80396809D01*
X109054494Y-80359463D01*
X108944180Y-80300498D01*
X108824482Y-80264188D01*
X108700000Y-80251928D01*
X108235750Y-80255000D01*
X108077000Y-80413750D01*
X108077000Y-81763000D01*
X108097000Y-81763000D01*
X108097000Y-82017000D01*
X108077000Y-82017000D01*
X108077000Y-83366250D01*
X108235750Y-83525000D01*
X108700000Y-83528072D01*
X108824482Y-83515812D01*
X108944180Y-83479502D01*
X109054494Y-83420537D01*
X109100000Y-83383191D01*
X109145506Y-83420537D01*
X109255820Y-83479502D01*
X109375518Y-83515812D01*
X109500000Y-83528072D01*
X111000000Y-83528072D01*
X111124482Y-83515812D01*
X111244180Y-83479502D01*
X111354494Y-83420537D01*
X111451185Y-83341185D01*
X111530537Y-83244494D01*
X111589502Y-83134180D01*
X111625812Y-83014482D01*
X111638072Y-82890000D01*
X111638072Y-82800000D01*
X112375298Y-82800000D01*
X112420000Y-82804403D01*
X112464702Y-82800000D01*
X112464704Y-82800000D01*
X112598391Y-82786833D01*
X112769927Y-82734798D01*
X112829124Y-82703156D01*
X112888665Y-82715000D01*
X113171335Y-82715000D01*
X113448574Y-82659853D01*
X113709727Y-82551680D01*
X113944759Y-82394637D01*
X114144637Y-82194759D01*
X114301680Y-81959727D01*
X114409853Y-81698574D01*
X114421928Y-81637870D01*
X114421928Y-82890000D01*
X114434188Y-83014482D01*
X114470498Y-83134180D01*
X114529463Y-83244494D01*
X114547804Y-83266843D01*
X113300372Y-84514275D01*
X113269462Y-84539642D01*
X113244097Y-84570550D01*
X113168240Y-84662981D01*
X113093027Y-84803697D01*
X113046710Y-84956382D01*
X113031070Y-85115170D01*
X113034990Y-85154968D01*
X113034989Y-89479477D01*
X107069498Y-83513986D01*
X107075518Y-83515812D01*
X107200000Y-83528072D01*
X107664250Y-83525000D01*
X107823000Y-83366250D01*
X107823000Y-82017000D01*
X107803000Y-82017000D01*
X107803000Y-81763000D01*
X107823000Y-81763000D01*
X107823000Y-80413750D01*
X107664250Y-80255000D01*
X107200000Y-80251928D01*
X107075518Y-80264188D01*
X106955820Y-80300498D01*
X106845506Y-80359463D01*
X106800000Y-80396809D01*
X106754494Y-80359463D01*
X106644180Y-80300498D01*
X106524482Y-80264188D01*
X106400000Y-80251928D01*
X104900000Y-80251928D01*
X104800000Y-80261777D01*
X104800000Y-76590000D01*
X105411928Y-76590000D01*
X105424188Y-76714482D01*
X105460498Y-76834180D01*
X105519463Y-76944494D01*
X105598815Y-77041185D01*
X105695506Y-77120537D01*
X105805820Y-77179502D01*
X105925518Y-77215812D01*
X106050000Y-77228072D01*
X107664250Y-77225000D01*
X107823000Y-77066250D01*
X107823000Y-75717000D01*
X108077000Y-75717000D01*
X108077000Y-77066250D01*
X108235750Y-77225000D01*
X109850000Y-77228072D01*
X109974482Y-77215812D01*
X110094180Y-77179502D01*
X110204494Y-77120537D01*
X110301185Y-77041185D01*
X110380537Y-76944494D01*
X110439502Y-76834180D01*
X110475812Y-76714482D01*
X110488072Y-76590000D01*
X115571928Y-76590000D01*
X115584188Y-76714482D01*
X115620498Y-76834180D01*
X115679463Y-76944494D01*
X115758815Y-77041185D01*
X115855506Y-77120537D01*
X115965820Y-77179502D01*
X116085518Y-77215812D01*
X116210000Y-77228072D01*
X117824250Y-77225000D01*
X117983000Y-77066250D01*
X117983000Y-75717000D01*
X118237000Y-75717000D01*
X118237000Y-77066250D01*
X118395750Y-77225000D01*
X120010000Y-77228072D01*
X120134482Y-77215812D01*
X120254180Y-77179502D01*
X120364494Y-77120537D01*
X120461185Y-77041185D01*
X120540537Y-76944494D01*
X120599502Y-76834180D01*
X120635812Y-76714482D01*
X120648072Y-76590000D01*
X125731928Y-76590000D01*
X125744188Y-76714482D01*
X125780498Y-76834180D01*
X125839463Y-76944494D01*
X125918815Y-77041185D01*
X126015506Y-77120537D01*
X126125820Y-77179502D01*
X126245518Y-77215812D01*
X126370000Y-77228072D01*
X127984250Y-77225000D01*
X128143000Y-77066250D01*
X128143000Y-75717000D01*
X128397000Y-75717000D01*
X128397000Y-77066250D01*
X128555750Y-77225000D01*
X130170000Y-77228072D01*
X130294482Y-77215812D01*
X130414180Y-77179502D01*
X130524494Y-77120537D01*
X130621185Y-77041185D01*
X130700537Y-76944494D01*
X130759502Y-76834180D01*
X130795812Y-76714482D01*
X130808072Y-76590000D01*
X130805000Y-75875750D01*
X130646250Y-75717000D01*
X128397000Y-75717000D01*
X128143000Y-75717000D01*
X125893750Y-75717000D01*
X125735000Y-75875750D01*
X125731928Y-76590000D01*
X120648072Y-76590000D01*
X120645000Y-75875750D01*
X120486250Y-75717000D01*
X118237000Y-75717000D01*
X117983000Y-75717000D01*
X115733750Y-75717000D01*
X115575000Y-75875750D01*
X115571928Y-76590000D01*
X110488072Y-76590000D01*
X110485000Y-75875750D01*
X110326250Y-75717000D01*
X108077000Y-75717000D01*
X107823000Y-75717000D01*
X105573750Y-75717000D01*
X105415000Y-75875750D01*
X105411928Y-76590000D01*
X104800000Y-76590000D01*
X104800000Y-74590000D01*
X105411928Y-74590000D01*
X105415000Y-75304250D01*
X105573750Y-75463000D01*
X107823000Y-75463000D01*
X107823000Y-74113750D01*
X108077000Y-74113750D01*
X108077000Y-75463000D01*
X110326250Y-75463000D01*
X110485000Y-75304250D01*
X110488072Y-74590000D01*
X110475812Y-74465518D01*
X110439502Y-74345820D01*
X110380537Y-74235506D01*
X110301185Y-74138815D01*
X110204494Y-74059463D01*
X110094180Y-74000498D01*
X109974482Y-73964188D01*
X109850000Y-73951928D01*
X108235750Y-73955000D01*
X108077000Y-74113750D01*
X107823000Y-74113750D01*
X107664250Y-73955000D01*
X106050000Y-73951928D01*
X105925518Y-73964188D01*
X105805820Y-74000498D01*
X105695506Y-74059463D01*
X105598815Y-74138815D01*
X105519463Y-74235506D01*
X105460498Y-74345820D01*
X105424188Y-74465518D01*
X105411928Y-74590000D01*
X104800000Y-74590000D01*
X104800000Y-64802279D01*
X104814722Y-64652131D01*
X104848953Y-64538754D01*
X104904555Y-64434181D01*
X104979407Y-64342404D01*
X105070664Y-64266909D01*
X105174844Y-64210581D01*
X105287976Y-64175560D01*
X105436022Y-64160000D01*
X133317721Y-64160000D01*
X133467869Y-64174722D01*
M02*
