M48
; DRILL file {KiCad 5.1.5-52549c5~84~ubuntu18.04.1} date Thu 02 Jan 2020 19:58:27 GMT
; FORMAT={-:-/ absolute / metric / decimal}
; #@! TF.CreationDate,2020-01-02T19:58:27+00:00
; #@! TF.GenerationSoftware,Kicad,Pcbnew,5.1.5-52549c5~84~ubuntu18.04.1
; #@! TF.FileFunction,Plated,1,2,PTH
FMAT,2
METRIC
T1C0.400
T2C0.762
T3C0.800
T4C0.800
T5C1.001
%
G90
G05
T1
X115.57Y-85.315
T2
X123.19Y-87.63
X123.19Y-90.17
X125.73Y-87.63
X125.73Y-90.17
X128.27Y-87.63
X128.27Y-90.17
X130.81Y-87.63
X130.81Y-90.17
T3
X107.95Y-87.63
X107.95Y-90.17
X107.95Y-92.71
X107.95Y-95.25
X107.95Y-97.79
X107.95Y-100.33
X107.95Y-102.87
X107.95Y-105.41
X107.95Y-107.95
X107.95Y-110.49
X107.95Y-113.03
X107.95Y-115.57
X107.95Y-118.11
X107.95Y-120.65
X115.57Y-87.63
X115.57Y-90.17
X115.57Y-92.71
X115.57Y-95.25
X115.57Y-97.79
X115.57Y-100.33
X115.57Y-102.87
X115.57Y-105.41
X115.57Y-107.95
X115.57Y-110.49
X115.57Y-113.03
X115.57Y-115.57
X115.57Y-118.11
X115.57Y-120.65
X124.46Y-102.87
X126.96Y-102.87
X123.19Y-73.66
X123.19Y-81.28
X133.35Y-73.66
X133.35Y-81.28
X113.03Y-73.66
X113.03Y-81.28
X119.38Y-107.95
X121.88Y-107.95
X124.46Y-97.79
X126.96Y-97.79
X117.02Y-124.46
X121.92Y-124.46
X128.31Y-93.98
X130.81Y-93.98
X120.65Y-97.79
X120.65Y-102.69
T4
X114.3Y-71.12
X117.475Y-71.12
X120.65Y-71.12
X123.825Y-71.12
T5
X127.0Y-124.46
X130.81Y-124.46
X127.0Y-119.38
X130.81Y-119.38
X107.95Y-124.46
X111.76Y-124.46
T0
M30
