G04 #@! TF.GenerationSoftware,KiCad,Pcbnew,5.1.5-52549c5~84~ubuntu18.04.1*
G04 #@! TF.CreationDate,2020-01-02T13:16:35+00:00*
G04 #@! TF.ProjectId,receiver,72656365-6976-4657-922e-6b696361645f,rev?*
G04 #@! TF.SameCoordinates,Original*
G04 #@! TF.FileFunction,Copper,L2,Bot*
G04 #@! TF.FilePolarity,Positive*
%FSLAX46Y46*%
G04 Gerber Fmt 4.6, Leading zero omitted, Abs format (unit mm)*
G04 Created by KiCad (PCBNEW 5.1.5-52549c5~84~ubuntu18.04.1) date 2020-01-02 13:16:35*
%MOMM*%
%LPD*%
G04 APERTURE LIST*
%ADD10C,1.600000*%
%ADD11R,1.524000X1.524000*%
%ADD12C,1.524000*%
%ADD13R,1.600000X1.600000*%
%ADD14O,1.600000X1.600000*%
%ADD15R,2.499360X2.499360*%
%ADD16C,2.499360*%
%ADD17C,1.500000*%
%ADD18C,1.998980*%
%ADD19R,1.998980X1.998980*%
%ADD20C,0.800000*%
%ADD21C,0.350000*%
%ADD22C,0.254000*%
G04 APERTURE END LIST*
D10*
X121880000Y-107950000D03*
X119380000Y-107950000D03*
D11*
X130810000Y-87630000D03*
D12*
X130810000Y-90170000D03*
X128270000Y-87630000D03*
X128270000Y-90170000D03*
X125730000Y-87630000D03*
X125730000Y-90170000D03*
X123190000Y-87630000D03*
X123190000Y-90170000D03*
D13*
X115570000Y-120650000D03*
D14*
X107950000Y-87630000D03*
X115570000Y-118110000D03*
X107950000Y-90170000D03*
X115570000Y-115570000D03*
X107950000Y-92710000D03*
X115570000Y-113030000D03*
X107950000Y-95250000D03*
X115570000Y-110490000D03*
X107950000Y-97790000D03*
X115570000Y-107950000D03*
X107950000Y-100330000D03*
X115570000Y-105410000D03*
X107950000Y-102870000D03*
X115570000Y-102870000D03*
X107950000Y-105410000D03*
X115570000Y-100330000D03*
X107950000Y-107950000D03*
X115570000Y-97790000D03*
X107950000Y-110490000D03*
X115570000Y-95250000D03*
X107950000Y-113030000D03*
X115570000Y-92710000D03*
X107950000Y-115570000D03*
X115570000Y-90170000D03*
X107950000Y-118110000D03*
X115570000Y-87630000D03*
X107950000Y-120650000D03*
D10*
X126960000Y-102870000D03*
X124460000Y-102870000D03*
X124460000Y-97790000D03*
X126960000Y-97790000D03*
X130810000Y-93980000D03*
X128310000Y-93980000D03*
D15*
X107950000Y-124460000D03*
D16*
X111760000Y-124460000D03*
D15*
X127000000Y-124460000D03*
D16*
X130810000Y-124460000D03*
X130810000Y-119380000D03*
D15*
X127000000Y-119380000D03*
D17*
X120650000Y-102690000D03*
X120650000Y-97790000D03*
X121920000Y-124460000D03*
X117020000Y-124460000D03*
D18*
X123825000Y-71120000D03*
X120650000Y-71120000D03*
X117475000Y-71120000D03*
D19*
X114300000Y-71120000D03*
D10*
X113030000Y-81280000D03*
D14*
X113030000Y-73660000D03*
X123190000Y-73660000D03*
D10*
X123190000Y-81280000D03*
X133350000Y-81280000D03*
D14*
X133350000Y-73660000D03*
D20*
X115570000Y-85314992D03*
D21*
X106774999Y-88994999D02*
X107950000Y-90170000D01*
X106774999Y-87065999D02*
X106774999Y-88994999D01*
X109301007Y-84539990D02*
X106774999Y-87065999D01*
X118110000Y-86359999D02*
X116289991Y-84539990D01*
X116289991Y-84539990D02*
X109301007Y-84539990D01*
X127508001Y-90931999D02*
X128270000Y-90170000D01*
X125179990Y-93260010D02*
X127508001Y-90931999D01*
X120422179Y-93260010D02*
X125179990Y-93260010D01*
X118110000Y-90947831D02*
X120422179Y-93260010D01*
X118110000Y-86359999D02*
X118110000Y-90947831D01*
X106224989Y-90984989D02*
X106224989Y-86838178D01*
X107950000Y-92710000D02*
X106224989Y-90984989D01*
X116517813Y-83989982D02*
X118660010Y-86132179D01*
X106224989Y-86838178D02*
X109073185Y-83989982D01*
X109073185Y-83989982D02*
X116517813Y-83989982D01*
X125730000Y-90170000D02*
X123190000Y-92710000D01*
X123190000Y-92710000D02*
X120650000Y-92710000D01*
X118660010Y-86132179D02*
X118660010Y-90720011D01*
X118660010Y-90720011D02*
X118660011Y-90720011D01*
X118660011Y-90720011D02*
X120650000Y-92710000D01*
X120935662Y-87630000D02*
X123190000Y-87630000D01*
X116745634Y-83439972D02*
X120935662Y-87630000D01*
X108845364Y-83439972D02*
X116745634Y-83439972D01*
X107950000Y-95250000D02*
X105674979Y-92974979D01*
X105674979Y-86610357D02*
X108845364Y-83439972D01*
X105674979Y-92974979D02*
X105674979Y-86610357D01*
X108617543Y-82889962D02*
X117179962Y-82889962D01*
X105124969Y-86382536D02*
X108617543Y-82889962D01*
X107950000Y-97790000D02*
X105124969Y-94964969D01*
X105124969Y-94964969D02*
X105124969Y-86382536D01*
X117179962Y-82889962D02*
X119380000Y-85090000D01*
X125730000Y-87630000D02*
X123190000Y-85090000D01*
X123190000Y-85090000D02*
X119380000Y-85090000D01*
X107950000Y-87630000D02*
X110490000Y-85090000D01*
X110490000Y-85090000D02*
X115345008Y-85090000D01*
X115345008Y-85090000D02*
X115570000Y-85314992D01*
D22*
G36*
X133467869Y-64174722D02*
G01*
X133581246Y-64208953D01*
X133685819Y-64264555D01*
X133777596Y-64339407D01*
X133853091Y-64430664D01*
X133909419Y-64534844D01*
X133944440Y-64647976D01*
X133960000Y-64796022D01*
X133960000Y-72359438D01*
X133768574Y-72280147D01*
X133491335Y-72225000D01*
X133208665Y-72225000D01*
X132931426Y-72280147D01*
X132670273Y-72388320D01*
X132435241Y-72545363D01*
X132235363Y-72745241D01*
X132078320Y-72980273D01*
X131970147Y-73241426D01*
X131915000Y-73518665D01*
X131915000Y-73801335D01*
X131970147Y-74078574D01*
X132078320Y-74339727D01*
X132235363Y-74574759D01*
X132435241Y-74774637D01*
X132670273Y-74931680D01*
X132931426Y-75039853D01*
X133208665Y-75095000D01*
X133491335Y-75095000D01*
X133768574Y-75039853D01*
X133960000Y-74960562D01*
X133960000Y-79979438D01*
X133768574Y-79900147D01*
X133491335Y-79845000D01*
X133208665Y-79845000D01*
X132931426Y-79900147D01*
X132670273Y-80008320D01*
X132435241Y-80165363D01*
X132235363Y-80365241D01*
X132078320Y-80600273D01*
X131970147Y-80861426D01*
X131915000Y-81138665D01*
X131915000Y-81421335D01*
X131970147Y-81698574D01*
X132078320Y-81959727D01*
X132235363Y-82194759D01*
X132435241Y-82394637D01*
X132670273Y-82551680D01*
X132931426Y-82659853D01*
X133208665Y-82715000D01*
X133491335Y-82715000D01*
X133768574Y-82659853D01*
X133960000Y-82580562D01*
X133960001Y-130777711D01*
X133945278Y-130927869D01*
X133911047Y-131041246D01*
X133855446Y-131145817D01*
X133780594Y-131237595D01*
X133689335Y-131313091D01*
X133585160Y-131369419D01*
X133472024Y-131404440D01*
X133323979Y-131420000D01*
X105442279Y-131420000D01*
X105292131Y-131405278D01*
X105178754Y-131371047D01*
X105074183Y-131315446D01*
X104982405Y-131240594D01*
X104906909Y-131149335D01*
X104850581Y-131045160D01*
X104815560Y-130932024D01*
X104800000Y-130783979D01*
X104800000Y-128219049D01*
X106022747Y-128219049D01*
X106023165Y-128278866D01*
X106022747Y-128338682D01*
X106023646Y-128347853D01*
X106049554Y-128594357D01*
X106061588Y-128652983D01*
X106072792Y-128711716D01*
X106075456Y-128720538D01*
X106148751Y-128957314D01*
X106171931Y-129012457D01*
X106194339Y-129067920D01*
X106198665Y-129076054D01*
X106198667Y-129076059D01*
X106198670Y-129076064D01*
X106316553Y-129294086D01*
X106349988Y-129343654D01*
X106382759Y-129393735D01*
X106388584Y-129400876D01*
X106546577Y-129591856D01*
X106589012Y-129633995D01*
X106630875Y-129676745D01*
X106637976Y-129682618D01*
X106830053Y-129839273D01*
X106879875Y-129872374D01*
X106929237Y-129906173D01*
X106937343Y-129910556D01*
X107156191Y-130026919D01*
X107211479Y-130049707D01*
X107266475Y-130073279D01*
X107275278Y-130076003D01*
X107512559Y-130147643D01*
X107571246Y-130159264D01*
X107629752Y-130171700D01*
X107638915Y-130172663D01*
X107638917Y-130172663D01*
X107885595Y-130196850D01*
X107885598Y-130196850D01*
X107917581Y-130200000D01*
X111792419Y-130200000D01*
X111825661Y-130196726D01*
X111842137Y-130196726D01*
X111851302Y-130195763D01*
X112097618Y-130168134D01*
X112156098Y-130155703D01*
X112214808Y-130144079D01*
X112223611Y-130141353D01*
X112459869Y-130066408D01*
X112514824Y-130042854D01*
X112570158Y-130020047D01*
X112578264Y-130015664D01*
X112795466Y-129896256D01*
X112844791Y-129862482D01*
X112894648Y-129829357D01*
X112901749Y-129823483D01*
X113091621Y-129664160D01*
X113133465Y-129621431D01*
X113175918Y-129579273D01*
X113181742Y-129572132D01*
X113337053Y-129378965D01*
X113369814Y-129328901D01*
X113403260Y-129279315D01*
X113407586Y-129271179D01*
X113522418Y-129051524D01*
X113544802Y-128996120D01*
X113568007Y-128940919D01*
X113570670Y-128932097D01*
X113640652Y-128694321D01*
X113651861Y-128635559D01*
X113663890Y-128576962D01*
X113664789Y-128567791D01*
X113687253Y-128320951D01*
X113686835Y-128261135D01*
X113687129Y-128219049D01*
X123802747Y-128219049D01*
X123803165Y-128278866D01*
X123802747Y-128338682D01*
X123803646Y-128347853D01*
X123829554Y-128594357D01*
X123841588Y-128652983D01*
X123852792Y-128711716D01*
X123855456Y-128720538D01*
X123928751Y-128957314D01*
X123951931Y-129012457D01*
X123974339Y-129067920D01*
X123978665Y-129076054D01*
X123978667Y-129076059D01*
X123978670Y-129076064D01*
X124096553Y-129294086D01*
X124129988Y-129343654D01*
X124162759Y-129393735D01*
X124168584Y-129400876D01*
X124326577Y-129591856D01*
X124369012Y-129633995D01*
X124410875Y-129676745D01*
X124417976Y-129682618D01*
X124610053Y-129839273D01*
X124659875Y-129872374D01*
X124709237Y-129906173D01*
X124717343Y-129910556D01*
X124936191Y-130026919D01*
X124991479Y-130049707D01*
X125046475Y-130073279D01*
X125055278Y-130076003D01*
X125292559Y-130147643D01*
X125351246Y-130159264D01*
X125409752Y-130171700D01*
X125418915Y-130172663D01*
X125418917Y-130172663D01*
X125665595Y-130196850D01*
X125665598Y-130196850D01*
X125697581Y-130200000D01*
X130842419Y-130200000D01*
X130875661Y-130196726D01*
X130892137Y-130196726D01*
X130901302Y-130195763D01*
X131147618Y-130168134D01*
X131206098Y-130155703D01*
X131264808Y-130144079D01*
X131273611Y-130141353D01*
X131509869Y-130066408D01*
X131564824Y-130042854D01*
X131620158Y-130020047D01*
X131628264Y-130015664D01*
X131845466Y-129896256D01*
X131894791Y-129862482D01*
X131944648Y-129829357D01*
X131951749Y-129823483D01*
X132141621Y-129664160D01*
X132183465Y-129621431D01*
X132225918Y-129579273D01*
X132231742Y-129572132D01*
X132387053Y-129378965D01*
X132419814Y-129328901D01*
X132453260Y-129279315D01*
X132457586Y-129271179D01*
X132572418Y-129051524D01*
X132594802Y-128996120D01*
X132618007Y-128940919D01*
X132620670Y-128932097D01*
X132690652Y-128694321D01*
X132701861Y-128635559D01*
X132713890Y-128576962D01*
X132714789Y-128567791D01*
X132737253Y-128320951D01*
X132736835Y-128261135D01*
X132737253Y-128201318D01*
X132736354Y-128192147D01*
X132710446Y-127945644D01*
X132698412Y-127887017D01*
X132687208Y-127828284D01*
X132684544Y-127819462D01*
X132611249Y-127582686D01*
X132588074Y-127527555D01*
X132565661Y-127472080D01*
X132561334Y-127463944D01*
X132443446Y-127245914D01*
X132410012Y-127196346D01*
X132377240Y-127146265D01*
X132371416Y-127139124D01*
X132213423Y-126948144D01*
X132170988Y-126906005D01*
X132129125Y-126863255D01*
X132122024Y-126857381D01*
X131929946Y-126700727D01*
X131880169Y-126667655D01*
X131830763Y-126633826D01*
X131822657Y-126629444D01*
X131603809Y-126513081D01*
X131548532Y-126490298D01*
X131493525Y-126466721D01*
X131484722Y-126463997D01*
X131247441Y-126392357D01*
X131188754Y-126380736D01*
X131130248Y-126368300D01*
X131121085Y-126367337D01*
X131121083Y-126367337D01*
X130890009Y-126344680D01*
X130995625Y-126344680D01*
X131359741Y-126272253D01*
X131702731Y-126130182D01*
X132011413Y-125923926D01*
X132273926Y-125661413D01*
X132480182Y-125352731D01*
X132622253Y-125009741D01*
X132694680Y-124645625D01*
X132694680Y-124274375D01*
X132622253Y-123910259D01*
X132480182Y-123567269D01*
X132273926Y-123258587D01*
X132011413Y-122996074D01*
X131702731Y-122789818D01*
X131359741Y-122647747D01*
X130995625Y-122575320D01*
X130624375Y-122575320D01*
X130260259Y-122647747D01*
X129917269Y-122789818D01*
X129608587Y-122996074D01*
X129346074Y-123258587D01*
X129139818Y-123567269D01*
X128997747Y-123910259D01*
X128925320Y-124274375D01*
X128925320Y-124645625D01*
X128997747Y-125009741D01*
X129139818Y-125352731D01*
X129346074Y-125661413D01*
X129608587Y-125923926D01*
X129917269Y-126130182D01*
X130260259Y-126272253D01*
X130600847Y-126340000D01*
X128328390Y-126340000D01*
X128374162Y-126335492D01*
X128493860Y-126299182D01*
X128604174Y-126240217D01*
X128700865Y-126160865D01*
X128780217Y-126064174D01*
X128839182Y-125953860D01*
X128875492Y-125834162D01*
X128887752Y-125709680D01*
X128887752Y-123210320D01*
X128875492Y-123085838D01*
X128839182Y-122966140D01*
X128780217Y-122855826D01*
X128700865Y-122759135D01*
X128604174Y-122679783D01*
X128493860Y-122620818D01*
X128374162Y-122584508D01*
X128249680Y-122572248D01*
X125750320Y-122572248D01*
X125625838Y-122584508D01*
X125506140Y-122620818D01*
X125395826Y-122679783D01*
X125299135Y-122759135D01*
X125219783Y-122855826D01*
X125160818Y-122966140D01*
X125124508Y-123085838D01*
X125112248Y-123210320D01*
X125112248Y-125709680D01*
X125124508Y-125834162D01*
X125160818Y-125953860D01*
X125219783Y-126064174D01*
X125299135Y-126160865D01*
X125395826Y-126240217D01*
X125506140Y-126299182D01*
X125625838Y-126335492D01*
X125684596Y-126341279D01*
X125664339Y-126343274D01*
X125647863Y-126343274D01*
X125638698Y-126344237D01*
X125392382Y-126371866D01*
X125333865Y-126384305D01*
X125275192Y-126395922D01*
X125266389Y-126398647D01*
X125030131Y-126473592D01*
X124975209Y-126497132D01*
X124919842Y-126519952D01*
X124911736Y-126524336D01*
X124694534Y-126643744D01*
X124645171Y-126677543D01*
X124595352Y-126710643D01*
X124588252Y-126716517D01*
X124398379Y-126875839D01*
X124356516Y-126918588D01*
X124314082Y-126960727D01*
X124308258Y-126967868D01*
X124152947Y-127161035D01*
X124120186Y-127211099D01*
X124086740Y-127260685D01*
X124082418Y-127268814D01*
X124082415Y-127268819D01*
X124082414Y-127268822D01*
X123967582Y-127488476D01*
X123945173Y-127543942D01*
X123921994Y-127599081D01*
X123919330Y-127607903D01*
X123849348Y-127845679D01*
X123838139Y-127904441D01*
X123826110Y-127963038D01*
X123825211Y-127972209D01*
X123802747Y-128219049D01*
X113687129Y-128219049D01*
X113687253Y-128201318D01*
X113686354Y-128192147D01*
X113660446Y-127945644D01*
X113648412Y-127887017D01*
X113637208Y-127828284D01*
X113634544Y-127819462D01*
X113561249Y-127582686D01*
X113538074Y-127527555D01*
X113515661Y-127472080D01*
X113511334Y-127463944D01*
X113393446Y-127245914D01*
X113360012Y-127196346D01*
X113327240Y-127146265D01*
X113321416Y-127139124D01*
X113163423Y-126948144D01*
X113120988Y-126906005D01*
X113079125Y-126863255D01*
X113072024Y-126857381D01*
X112879946Y-126700727D01*
X112830169Y-126667655D01*
X112780763Y-126633826D01*
X112772657Y-126629444D01*
X112553809Y-126513081D01*
X112498532Y-126490298D01*
X112443525Y-126466721D01*
X112434722Y-126463997D01*
X112197441Y-126392357D01*
X112138754Y-126380736D01*
X112080248Y-126368300D01*
X112071085Y-126367337D01*
X112071083Y-126367337D01*
X111840009Y-126344680D01*
X111945625Y-126344680D01*
X112309741Y-126272253D01*
X112652731Y-126130182D01*
X112961413Y-125923926D01*
X113223926Y-125661413D01*
X113430182Y-125352731D01*
X113572253Y-125009741D01*
X113644680Y-124645625D01*
X113644680Y-124323589D01*
X115635000Y-124323589D01*
X115635000Y-124596411D01*
X115688225Y-124863989D01*
X115792629Y-125116043D01*
X115944201Y-125342886D01*
X116137114Y-125535799D01*
X116363957Y-125687371D01*
X116616011Y-125791775D01*
X116883589Y-125845000D01*
X117156411Y-125845000D01*
X117423989Y-125791775D01*
X117676043Y-125687371D01*
X117902886Y-125535799D01*
X118095799Y-125342886D01*
X118247371Y-125116043D01*
X118351775Y-124863989D01*
X118405000Y-124596411D01*
X118405000Y-124323589D01*
X120535000Y-124323589D01*
X120535000Y-124596411D01*
X120588225Y-124863989D01*
X120692629Y-125116043D01*
X120844201Y-125342886D01*
X121037114Y-125535799D01*
X121263957Y-125687371D01*
X121516011Y-125791775D01*
X121783589Y-125845000D01*
X122056411Y-125845000D01*
X122323989Y-125791775D01*
X122576043Y-125687371D01*
X122802886Y-125535799D01*
X122995799Y-125342886D01*
X123147371Y-125116043D01*
X123251775Y-124863989D01*
X123305000Y-124596411D01*
X123305000Y-124323589D01*
X123251775Y-124056011D01*
X123147371Y-123803957D01*
X122995799Y-123577114D01*
X122802886Y-123384201D01*
X122576043Y-123232629D01*
X122323989Y-123128225D01*
X122056411Y-123075000D01*
X121783589Y-123075000D01*
X121516011Y-123128225D01*
X121263957Y-123232629D01*
X121037114Y-123384201D01*
X120844201Y-123577114D01*
X120692629Y-123803957D01*
X120588225Y-124056011D01*
X120535000Y-124323589D01*
X118405000Y-124323589D01*
X118351775Y-124056011D01*
X118247371Y-123803957D01*
X118095799Y-123577114D01*
X117902886Y-123384201D01*
X117676043Y-123232629D01*
X117423989Y-123128225D01*
X117156411Y-123075000D01*
X116883589Y-123075000D01*
X116616011Y-123128225D01*
X116363957Y-123232629D01*
X116137114Y-123384201D01*
X115944201Y-123577114D01*
X115792629Y-123803957D01*
X115688225Y-124056011D01*
X115635000Y-124323589D01*
X113644680Y-124323589D01*
X113644680Y-124274375D01*
X113572253Y-123910259D01*
X113430182Y-123567269D01*
X113223926Y-123258587D01*
X112961413Y-122996074D01*
X112652731Y-122789818D01*
X112309741Y-122647747D01*
X111945625Y-122575320D01*
X111574375Y-122575320D01*
X111210259Y-122647747D01*
X110867269Y-122789818D01*
X110558587Y-122996074D01*
X110296074Y-123258587D01*
X110089818Y-123567269D01*
X109947747Y-123910259D01*
X109875320Y-124274375D01*
X109875320Y-124645625D01*
X109947747Y-125009741D01*
X110089818Y-125352731D01*
X110296074Y-125661413D01*
X110558587Y-125923926D01*
X110867269Y-126130182D01*
X111210259Y-126272253D01*
X111550847Y-126340000D01*
X109278390Y-126340000D01*
X109324162Y-126335492D01*
X109443860Y-126299182D01*
X109554174Y-126240217D01*
X109650865Y-126160865D01*
X109730217Y-126064174D01*
X109789182Y-125953860D01*
X109825492Y-125834162D01*
X109837752Y-125709680D01*
X109834680Y-124745750D01*
X109675930Y-124587000D01*
X108077000Y-124587000D01*
X108077000Y-124607000D01*
X107823000Y-124607000D01*
X107823000Y-124587000D01*
X106224070Y-124587000D01*
X106065320Y-124745750D01*
X106062248Y-125709680D01*
X106074508Y-125834162D01*
X106110818Y-125953860D01*
X106169783Y-126064174D01*
X106249135Y-126160865D01*
X106345826Y-126240217D01*
X106456140Y-126299182D01*
X106575838Y-126335492D01*
X106700320Y-126347752D01*
X107664250Y-126344680D01*
X107822998Y-126185932D01*
X107822998Y-126344680D01*
X107854749Y-126344680D01*
X107612382Y-126371866D01*
X107553865Y-126384305D01*
X107495192Y-126395922D01*
X107486389Y-126398647D01*
X107250131Y-126473592D01*
X107195209Y-126497132D01*
X107139842Y-126519952D01*
X107131736Y-126524336D01*
X106914534Y-126643744D01*
X106865171Y-126677543D01*
X106815352Y-126710643D01*
X106808252Y-126716517D01*
X106618379Y-126875839D01*
X106576516Y-126918588D01*
X106534082Y-126960727D01*
X106528258Y-126967868D01*
X106372947Y-127161035D01*
X106340186Y-127211099D01*
X106306740Y-127260685D01*
X106302418Y-127268814D01*
X106302415Y-127268819D01*
X106302414Y-127268822D01*
X106187582Y-127488476D01*
X106165173Y-127543942D01*
X106141994Y-127599081D01*
X106139330Y-127607903D01*
X106069348Y-127845679D01*
X106058139Y-127904441D01*
X106046110Y-127963038D01*
X106045211Y-127972209D01*
X106022747Y-128219049D01*
X104800000Y-128219049D01*
X104800000Y-123210320D01*
X106062248Y-123210320D01*
X106065320Y-124174250D01*
X106224070Y-124333000D01*
X107823000Y-124333000D01*
X107823000Y-122734070D01*
X108077000Y-122734070D01*
X108077000Y-124333000D01*
X109675930Y-124333000D01*
X109834680Y-124174250D01*
X109837752Y-123210320D01*
X109825492Y-123085838D01*
X109789182Y-122966140D01*
X109730217Y-122855826D01*
X109650865Y-122759135D01*
X109554174Y-122679783D01*
X109443860Y-122620818D01*
X109324162Y-122584508D01*
X109199680Y-122572248D01*
X108235750Y-122575320D01*
X108077000Y-122734070D01*
X107823000Y-122734070D01*
X107664250Y-122575320D01*
X106700320Y-122572248D01*
X106575838Y-122584508D01*
X106456140Y-122620818D01*
X106345826Y-122679783D01*
X106249135Y-122759135D01*
X106169783Y-122855826D01*
X106110818Y-122966140D01*
X106074508Y-123085838D01*
X106062248Y-123210320D01*
X104800000Y-123210320D01*
X104800000Y-107808665D01*
X106515000Y-107808665D01*
X106515000Y-108091335D01*
X106570147Y-108368574D01*
X106678320Y-108629727D01*
X106835363Y-108864759D01*
X107035241Y-109064637D01*
X107267759Y-109220000D01*
X107035241Y-109375363D01*
X106835363Y-109575241D01*
X106678320Y-109810273D01*
X106570147Y-110071426D01*
X106515000Y-110348665D01*
X106515000Y-110631335D01*
X106570147Y-110908574D01*
X106678320Y-111169727D01*
X106835363Y-111404759D01*
X107035241Y-111604637D01*
X107267759Y-111760000D01*
X107035241Y-111915363D01*
X106835363Y-112115241D01*
X106678320Y-112350273D01*
X106570147Y-112611426D01*
X106515000Y-112888665D01*
X106515000Y-113171335D01*
X106570147Y-113448574D01*
X106678320Y-113709727D01*
X106835363Y-113944759D01*
X107035241Y-114144637D01*
X107267759Y-114300000D01*
X107035241Y-114455363D01*
X106835363Y-114655241D01*
X106678320Y-114890273D01*
X106570147Y-115151426D01*
X106515000Y-115428665D01*
X106515000Y-115711335D01*
X106570147Y-115988574D01*
X106678320Y-116249727D01*
X106835363Y-116484759D01*
X107035241Y-116684637D01*
X107267759Y-116840000D01*
X107035241Y-116995363D01*
X106835363Y-117195241D01*
X106678320Y-117430273D01*
X106570147Y-117691426D01*
X106515000Y-117968665D01*
X106515000Y-118251335D01*
X106570147Y-118528574D01*
X106678320Y-118789727D01*
X106835363Y-119024759D01*
X107035241Y-119224637D01*
X107267759Y-119380000D01*
X107035241Y-119535363D01*
X106835363Y-119735241D01*
X106678320Y-119970273D01*
X106570147Y-120231426D01*
X106515000Y-120508665D01*
X106515000Y-120791335D01*
X106570147Y-121068574D01*
X106678320Y-121329727D01*
X106835363Y-121564759D01*
X107035241Y-121764637D01*
X107270273Y-121921680D01*
X107531426Y-122029853D01*
X107808665Y-122085000D01*
X108091335Y-122085000D01*
X108368574Y-122029853D01*
X108629727Y-121921680D01*
X108864759Y-121764637D01*
X109064637Y-121564759D01*
X109221680Y-121329727D01*
X109329853Y-121068574D01*
X109385000Y-120791335D01*
X109385000Y-120508665D01*
X109329853Y-120231426D01*
X109221680Y-119970273D01*
X109141317Y-119850000D01*
X114131928Y-119850000D01*
X114131928Y-121450000D01*
X114144188Y-121574482D01*
X114180498Y-121694180D01*
X114239463Y-121804494D01*
X114318815Y-121901185D01*
X114415506Y-121980537D01*
X114525820Y-122039502D01*
X114645518Y-122075812D01*
X114770000Y-122088072D01*
X116370000Y-122088072D01*
X116494482Y-122075812D01*
X116614180Y-122039502D01*
X116724494Y-121980537D01*
X116821185Y-121901185D01*
X116900537Y-121804494D01*
X116959502Y-121694180D01*
X116995812Y-121574482D01*
X117008072Y-121450000D01*
X117008072Y-119850000D01*
X116995812Y-119725518D01*
X116959502Y-119605820D01*
X116900537Y-119495506D01*
X116821185Y-119398815D01*
X116724494Y-119319463D01*
X116614180Y-119260498D01*
X116494482Y-119224188D01*
X116486039Y-119223357D01*
X116684637Y-119024759D01*
X116841680Y-118789727D01*
X116949853Y-118528574D01*
X117005000Y-118251335D01*
X117005000Y-118130320D01*
X125112248Y-118130320D01*
X125112248Y-120629680D01*
X125124508Y-120754162D01*
X125160818Y-120873860D01*
X125219783Y-120984174D01*
X125299135Y-121080865D01*
X125395826Y-121160217D01*
X125506140Y-121219182D01*
X125625838Y-121255492D01*
X125750320Y-121267752D01*
X128249680Y-121267752D01*
X128374162Y-121255492D01*
X128493860Y-121219182D01*
X128604174Y-121160217D01*
X128700865Y-121080865D01*
X128780217Y-120984174D01*
X128839182Y-120873860D01*
X128875492Y-120754162D01*
X128881478Y-120693377D01*
X129676229Y-120693377D01*
X129802104Y-120983315D01*
X130134262Y-121149139D01*
X130492387Y-121246975D01*
X130862719Y-121273065D01*
X131231025Y-121226405D01*
X131583151Y-121108789D01*
X131817896Y-120983315D01*
X131943771Y-120693377D01*
X130810000Y-119559605D01*
X129676229Y-120693377D01*
X128881478Y-120693377D01*
X128887752Y-120629680D01*
X128887752Y-119432719D01*
X128916935Y-119432719D01*
X128963595Y-119801025D01*
X129081211Y-120153151D01*
X129206685Y-120387896D01*
X129496623Y-120513771D01*
X130630395Y-119380000D01*
X130989605Y-119380000D01*
X132123377Y-120513771D01*
X132413315Y-120387896D01*
X132579139Y-120055738D01*
X132676975Y-119697613D01*
X132703065Y-119327281D01*
X132656405Y-118958975D01*
X132538789Y-118606849D01*
X132413315Y-118372104D01*
X132123377Y-118246229D01*
X130989605Y-119380000D01*
X130630395Y-119380000D01*
X129496623Y-118246229D01*
X129206685Y-118372104D01*
X129040861Y-118704262D01*
X128943025Y-119062387D01*
X128916935Y-119432719D01*
X128887752Y-119432719D01*
X128887752Y-118130320D01*
X128881479Y-118066623D01*
X129676229Y-118066623D01*
X130810000Y-119200395D01*
X131943771Y-118066623D01*
X131817896Y-117776685D01*
X131485738Y-117610861D01*
X131127613Y-117513025D01*
X130757281Y-117486935D01*
X130388975Y-117533595D01*
X130036849Y-117651211D01*
X129802104Y-117776685D01*
X129676229Y-118066623D01*
X128881479Y-118066623D01*
X128875492Y-118005838D01*
X128839182Y-117886140D01*
X128780217Y-117775826D01*
X128700865Y-117679135D01*
X128604174Y-117599783D01*
X128493860Y-117540818D01*
X128374162Y-117504508D01*
X128249680Y-117492248D01*
X125750320Y-117492248D01*
X125625838Y-117504508D01*
X125506140Y-117540818D01*
X125395826Y-117599783D01*
X125299135Y-117679135D01*
X125219783Y-117775826D01*
X125160818Y-117886140D01*
X125124508Y-118005838D01*
X125112248Y-118130320D01*
X117005000Y-118130320D01*
X117005000Y-117968665D01*
X116949853Y-117691426D01*
X116841680Y-117430273D01*
X116684637Y-117195241D01*
X116484759Y-116995363D01*
X116252241Y-116840000D01*
X116484759Y-116684637D01*
X116684637Y-116484759D01*
X116841680Y-116249727D01*
X116949853Y-115988574D01*
X117005000Y-115711335D01*
X117005000Y-115428665D01*
X116949853Y-115151426D01*
X116841680Y-114890273D01*
X116684637Y-114655241D01*
X116484759Y-114455363D01*
X116252241Y-114300000D01*
X116484759Y-114144637D01*
X116684637Y-113944759D01*
X116841680Y-113709727D01*
X116949853Y-113448574D01*
X117005000Y-113171335D01*
X117005000Y-112888665D01*
X116949853Y-112611426D01*
X116841680Y-112350273D01*
X116684637Y-112115241D01*
X116484759Y-111915363D01*
X116252241Y-111760000D01*
X116484759Y-111604637D01*
X116684637Y-111404759D01*
X116841680Y-111169727D01*
X116949853Y-110908574D01*
X117005000Y-110631335D01*
X117005000Y-110348665D01*
X116949853Y-110071426D01*
X116841680Y-109810273D01*
X116684637Y-109575241D01*
X116484759Y-109375363D01*
X116252241Y-109220000D01*
X116484759Y-109064637D01*
X116684637Y-108864759D01*
X116841680Y-108629727D01*
X116949853Y-108368574D01*
X117005000Y-108091335D01*
X117005000Y-107808665D01*
X117945000Y-107808665D01*
X117945000Y-108091335D01*
X118000147Y-108368574D01*
X118108320Y-108629727D01*
X118265363Y-108864759D01*
X118465241Y-109064637D01*
X118700273Y-109221680D01*
X118961426Y-109329853D01*
X119238665Y-109385000D01*
X119521335Y-109385000D01*
X119798574Y-109329853D01*
X120059727Y-109221680D01*
X120294759Y-109064637D01*
X120416694Y-108942702D01*
X121066903Y-108942702D01*
X121138486Y-109186671D01*
X121393996Y-109307571D01*
X121668184Y-109376300D01*
X121950512Y-109390217D01*
X122230130Y-109348787D01*
X122496292Y-109253603D01*
X122621514Y-109186671D01*
X122693097Y-108942702D01*
X121880000Y-108129605D01*
X121066903Y-108942702D01*
X120416694Y-108942702D01*
X120494637Y-108864759D01*
X120628692Y-108664131D01*
X120643329Y-108691514D01*
X120887298Y-108763097D01*
X121700395Y-107950000D01*
X122059605Y-107950000D01*
X122872702Y-108763097D01*
X123116671Y-108691514D01*
X123237571Y-108436004D01*
X123306300Y-108161816D01*
X123320217Y-107879488D01*
X123278787Y-107599870D01*
X123183603Y-107333708D01*
X123116671Y-107208486D01*
X122872702Y-107136903D01*
X122059605Y-107950000D01*
X121700395Y-107950000D01*
X120887298Y-107136903D01*
X120643329Y-107208486D01*
X120629676Y-107237341D01*
X120494637Y-107035241D01*
X120416694Y-106957298D01*
X121066903Y-106957298D01*
X121880000Y-107770395D01*
X122693097Y-106957298D01*
X122621514Y-106713329D01*
X122366004Y-106592429D01*
X122091816Y-106523700D01*
X121809488Y-106509783D01*
X121529870Y-106551213D01*
X121263708Y-106646397D01*
X121138486Y-106713329D01*
X121066903Y-106957298D01*
X120416694Y-106957298D01*
X120294759Y-106835363D01*
X120059727Y-106678320D01*
X119798574Y-106570147D01*
X119521335Y-106515000D01*
X119238665Y-106515000D01*
X118961426Y-106570147D01*
X118700273Y-106678320D01*
X118465241Y-106835363D01*
X118265363Y-107035241D01*
X118108320Y-107270273D01*
X118000147Y-107531426D01*
X117945000Y-107808665D01*
X117005000Y-107808665D01*
X116949853Y-107531426D01*
X116841680Y-107270273D01*
X116684637Y-107035241D01*
X116484759Y-106835363D01*
X116252241Y-106680000D01*
X116484759Y-106524637D01*
X116684637Y-106324759D01*
X116841680Y-106089727D01*
X116949853Y-105828574D01*
X117005000Y-105551335D01*
X117005000Y-105268665D01*
X116949853Y-104991426D01*
X116841680Y-104730273D01*
X116684637Y-104495241D01*
X116484759Y-104295363D01*
X116249727Y-104138320D01*
X116239135Y-104133933D01*
X116425131Y-104022385D01*
X116633519Y-103833414D01*
X116801037Y-103607420D01*
X116921246Y-103353087D01*
X116961904Y-103219039D01*
X116839915Y-102997000D01*
X115697000Y-102997000D01*
X115697000Y-103017000D01*
X115443000Y-103017000D01*
X115443000Y-102997000D01*
X114300085Y-102997000D01*
X114178096Y-103219039D01*
X114218754Y-103353087D01*
X114338963Y-103607420D01*
X114506481Y-103833414D01*
X114714869Y-104022385D01*
X114900865Y-104133933D01*
X114890273Y-104138320D01*
X114655241Y-104295363D01*
X114455363Y-104495241D01*
X114298320Y-104730273D01*
X114190147Y-104991426D01*
X114135000Y-105268665D01*
X114135000Y-105551335D01*
X114190147Y-105828574D01*
X114298320Y-106089727D01*
X114455363Y-106324759D01*
X114655241Y-106524637D01*
X114887759Y-106680000D01*
X114655241Y-106835363D01*
X114455363Y-107035241D01*
X114298320Y-107270273D01*
X114190147Y-107531426D01*
X114135000Y-107808665D01*
X114135000Y-108091335D01*
X114190147Y-108368574D01*
X114298320Y-108629727D01*
X114455363Y-108864759D01*
X114655241Y-109064637D01*
X114887759Y-109220000D01*
X114655241Y-109375363D01*
X114455363Y-109575241D01*
X114298320Y-109810273D01*
X114190147Y-110071426D01*
X114135000Y-110348665D01*
X114135000Y-110631335D01*
X114190147Y-110908574D01*
X114298320Y-111169727D01*
X114455363Y-111404759D01*
X114655241Y-111604637D01*
X114887759Y-111760000D01*
X114655241Y-111915363D01*
X114455363Y-112115241D01*
X114298320Y-112350273D01*
X114190147Y-112611426D01*
X114135000Y-112888665D01*
X114135000Y-113171335D01*
X114190147Y-113448574D01*
X114298320Y-113709727D01*
X114455363Y-113944759D01*
X114655241Y-114144637D01*
X114887759Y-114300000D01*
X114655241Y-114455363D01*
X114455363Y-114655241D01*
X114298320Y-114890273D01*
X114190147Y-115151426D01*
X114135000Y-115428665D01*
X114135000Y-115711335D01*
X114190147Y-115988574D01*
X114298320Y-116249727D01*
X114455363Y-116484759D01*
X114655241Y-116684637D01*
X114887759Y-116840000D01*
X114655241Y-116995363D01*
X114455363Y-117195241D01*
X114298320Y-117430273D01*
X114190147Y-117691426D01*
X114135000Y-117968665D01*
X114135000Y-118251335D01*
X114190147Y-118528574D01*
X114298320Y-118789727D01*
X114455363Y-119024759D01*
X114653961Y-119223357D01*
X114645518Y-119224188D01*
X114525820Y-119260498D01*
X114415506Y-119319463D01*
X114318815Y-119398815D01*
X114239463Y-119495506D01*
X114180498Y-119605820D01*
X114144188Y-119725518D01*
X114131928Y-119850000D01*
X109141317Y-119850000D01*
X109064637Y-119735241D01*
X108864759Y-119535363D01*
X108632241Y-119380000D01*
X108864759Y-119224637D01*
X109064637Y-119024759D01*
X109221680Y-118789727D01*
X109329853Y-118528574D01*
X109385000Y-118251335D01*
X109385000Y-117968665D01*
X109329853Y-117691426D01*
X109221680Y-117430273D01*
X109064637Y-117195241D01*
X108864759Y-116995363D01*
X108632241Y-116840000D01*
X108864759Y-116684637D01*
X109064637Y-116484759D01*
X109221680Y-116249727D01*
X109329853Y-115988574D01*
X109385000Y-115711335D01*
X109385000Y-115428665D01*
X109329853Y-115151426D01*
X109221680Y-114890273D01*
X109064637Y-114655241D01*
X108864759Y-114455363D01*
X108632241Y-114300000D01*
X108864759Y-114144637D01*
X109064637Y-113944759D01*
X109221680Y-113709727D01*
X109329853Y-113448574D01*
X109385000Y-113171335D01*
X109385000Y-112888665D01*
X109329853Y-112611426D01*
X109221680Y-112350273D01*
X109064637Y-112115241D01*
X108864759Y-111915363D01*
X108632241Y-111760000D01*
X108864759Y-111604637D01*
X109064637Y-111404759D01*
X109221680Y-111169727D01*
X109329853Y-110908574D01*
X109385000Y-110631335D01*
X109385000Y-110348665D01*
X109329853Y-110071426D01*
X109221680Y-109810273D01*
X109064637Y-109575241D01*
X108864759Y-109375363D01*
X108632241Y-109220000D01*
X108864759Y-109064637D01*
X109064637Y-108864759D01*
X109221680Y-108629727D01*
X109329853Y-108368574D01*
X109385000Y-108091335D01*
X109385000Y-107808665D01*
X109329853Y-107531426D01*
X109221680Y-107270273D01*
X109064637Y-107035241D01*
X108864759Y-106835363D01*
X108629727Y-106678320D01*
X108619135Y-106673933D01*
X108805131Y-106562385D01*
X109013519Y-106373414D01*
X109181037Y-106147420D01*
X109301246Y-105893087D01*
X109341904Y-105759039D01*
X109219915Y-105537000D01*
X108077000Y-105537000D01*
X108077000Y-105557000D01*
X107823000Y-105557000D01*
X107823000Y-105537000D01*
X106680085Y-105537000D01*
X106558096Y-105759039D01*
X106598754Y-105893087D01*
X106718963Y-106147420D01*
X106886481Y-106373414D01*
X107094869Y-106562385D01*
X107280865Y-106673933D01*
X107270273Y-106678320D01*
X107035241Y-106835363D01*
X106835363Y-107035241D01*
X106678320Y-107270273D01*
X106570147Y-107531426D01*
X106515000Y-107808665D01*
X104800000Y-107808665D01*
X104800000Y-95785512D01*
X106539580Y-97525093D01*
X106515000Y-97648665D01*
X106515000Y-97931335D01*
X106570147Y-98208574D01*
X106678320Y-98469727D01*
X106835363Y-98704759D01*
X107035241Y-98904637D01*
X107267759Y-99060000D01*
X107035241Y-99215363D01*
X106835363Y-99415241D01*
X106678320Y-99650273D01*
X106570147Y-99911426D01*
X106515000Y-100188665D01*
X106515000Y-100471335D01*
X106570147Y-100748574D01*
X106678320Y-101009727D01*
X106835363Y-101244759D01*
X107035241Y-101444637D01*
X107267759Y-101600000D01*
X107035241Y-101755363D01*
X106835363Y-101955241D01*
X106678320Y-102190273D01*
X106570147Y-102451426D01*
X106515000Y-102728665D01*
X106515000Y-103011335D01*
X106570147Y-103288574D01*
X106678320Y-103549727D01*
X106835363Y-103784759D01*
X107035241Y-103984637D01*
X107270273Y-104141680D01*
X107280865Y-104146067D01*
X107094869Y-104257615D01*
X106886481Y-104446586D01*
X106718963Y-104672580D01*
X106598754Y-104926913D01*
X106558096Y-105060961D01*
X106680085Y-105283000D01*
X107823000Y-105283000D01*
X107823000Y-105263000D01*
X108077000Y-105263000D01*
X108077000Y-105283000D01*
X109219915Y-105283000D01*
X109341904Y-105060961D01*
X109301246Y-104926913D01*
X109181037Y-104672580D01*
X109013519Y-104446586D01*
X108805131Y-104257615D01*
X108619135Y-104146067D01*
X108629727Y-104141680D01*
X108864759Y-103984637D01*
X109064637Y-103784759D01*
X109221680Y-103549727D01*
X109329853Y-103288574D01*
X109385000Y-103011335D01*
X109385000Y-102728665D01*
X109329853Y-102451426D01*
X109221680Y-102190273D01*
X109064637Y-101955241D01*
X108864759Y-101755363D01*
X108632241Y-101600000D01*
X108864759Y-101444637D01*
X109064637Y-101244759D01*
X109221680Y-101009727D01*
X109329853Y-100748574D01*
X109385000Y-100471335D01*
X109385000Y-100188665D01*
X109329853Y-99911426D01*
X109221680Y-99650273D01*
X109064637Y-99415241D01*
X108864759Y-99215363D01*
X108632241Y-99060000D01*
X108864759Y-98904637D01*
X109064637Y-98704759D01*
X109221680Y-98469727D01*
X109329853Y-98208574D01*
X109385000Y-97931335D01*
X109385000Y-97648665D01*
X109329853Y-97371426D01*
X109221680Y-97110273D01*
X109064637Y-96875241D01*
X108864759Y-96675363D01*
X108632241Y-96520000D01*
X108864759Y-96364637D01*
X109064637Y-96164759D01*
X109221680Y-95929727D01*
X109329853Y-95668574D01*
X109385000Y-95391335D01*
X109385000Y-95108665D01*
X109329853Y-94831426D01*
X109221680Y-94570273D01*
X109064637Y-94335241D01*
X108864759Y-94135363D01*
X108632241Y-93980000D01*
X108864759Y-93824637D01*
X109064637Y-93624759D01*
X109221680Y-93389727D01*
X109329853Y-93128574D01*
X109385000Y-92851335D01*
X109385000Y-92568665D01*
X109329853Y-92291426D01*
X109221680Y-92030273D01*
X109064637Y-91795241D01*
X108864759Y-91595363D01*
X108632241Y-91440000D01*
X108864759Y-91284637D01*
X109064637Y-91084759D01*
X109221680Y-90849727D01*
X109329853Y-90588574D01*
X109385000Y-90311335D01*
X109385000Y-90028665D01*
X109329853Y-89751426D01*
X109221680Y-89490273D01*
X109064637Y-89255241D01*
X108864759Y-89055363D01*
X108632241Y-88900000D01*
X108864759Y-88744637D01*
X109064637Y-88544759D01*
X109221680Y-88309727D01*
X109329853Y-88048574D01*
X109385000Y-87771335D01*
X109385000Y-87488665D01*
X109360420Y-87365093D01*
X110825513Y-85900000D01*
X114716106Y-85900000D01*
X114766063Y-85974766D01*
X114910226Y-86118929D01*
X115079744Y-86232197D01*
X115137252Y-86256018D01*
X114890273Y-86358320D01*
X114655241Y-86515363D01*
X114455363Y-86715241D01*
X114298320Y-86950273D01*
X114190147Y-87211426D01*
X114135000Y-87488665D01*
X114135000Y-87771335D01*
X114190147Y-88048574D01*
X114298320Y-88309727D01*
X114455363Y-88544759D01*
X114655241Y-88744637D01*
X114887759Y-88900000D01*
X114655241Y-89055363D01*
X114455363Y-89255241D01*
X114298320Y-89490273D01*
X114190147Y-89751426D01*
X114135000Y-90028665D01*
X114135000Y-90311335D01*
X114190147Y-90588574D01*
X114298320Y-90849727D01*
X114455363Y-91084759D01*
X114655241Y-91284637D01*
X114887759Y-91440000D01*
X114655241Y-91595363D01*
X114455363Y-91795241D01*
X114298320Y-92030273D01*
X114190147Y-92291426D01*
X114135000Y-92568665D01*
X114135000Y-92851335D01*
X114190147Y-93128574D01*
X114298320Y-93389727D01*
X114455363Y-93624759D01*
X114655241Y-93824637D01*
X114887759Y-93980000D01*
X114655241Y-94135363D01*
X114455363Y-94335241D01*
X114298320Y-94570273D01*
X114190147Y-94831426D01*
X114135000Y-95108665D01*
X114135000Y-95391335D01*
X114190147Y-95668574D01*
X114298320Y-95929727D01*
X114455363Y-96164759D01*
X114655241Y-96364637D01*
X114887759Y-96520000D01*
X114655241Y-96675363D01*
X114455363Y-96875241D01*
X114298320Y-97110273D01*
X114190147Y-97371426D01*
X114135000Y-97648665D01*
X114135000Y-97931335D01*
X114190147Y-98208574D01*
X114298320Y-98469727D01*
X114455363Y-98704759D01*
X114655241Y-98904637D01*
X114887759Y-99060000D01*
X114655241Y-99215363D01*
X114455363Y-99415241D01*
X114298320Y-99650273D01*
X114190147Y-99911426D01*
X114135000Y-100188665D01*
X114135000Y-100471335D01*
X114190147Y-100748574D01*
X114298320Y-101009727D01*
X114455363Y-101244759D01*
X114655241Y-101444637D01*
X114890273Y-101601680D01*
X114900865Y-101606067D01*
X114714869Y-101717615D01*
X114506481Y-101906586D01*
X114338963Y-102132580D01*
X114218754Y-102386913D01*
X114178096Y-102520961D01*
X114300085Y-102743000D01*
X115443000Y-102743000D01*
X115443000Y-102723000D01*
X115697000Y-102723000D01*
X115697000Y-102743000D01*
X116839915Y-102743000D01*
X116943978Y-102553589D01*
X119265000Y-102553589D01*
X119265000Y-102826411D01*
X119318225Y-103093989D01*
X119422629Y-103346043D01*
X119574201Y-103572886D01*
X119767114Y-103765799D01*
X119993957Y-103917371D01*
X120246011Y-104021775D01*
X120513589Y-104075000D01*
X120786411Y-104075000D01*
X121053989Y-104021775D01*
X121306043Y-103917371D01*
X121532886Y-103765799D01*
X121725799Y-103572886D01*
X121877371Y-103346043D01*
X121981775Y-103093989D01*
X122035000Y-102826411D01*
X122035000Y-102728665D01*
X123025000Y-102728665D01*
X123025000Y-103011335D01*
X123080147Y-103288574D01*
X123188320Y-103549727D01*
X123345363Y-103784759D01*
X123545241Y-103984637D01*
X123780273Y-104141680D01*
X124041426Y-104249853D01*
X124318665Y-104305000D01*
X124601335Y-104305000D01*
X124878574Y-104249853D01*
X125139727Y-104141680D01*
X125374759Y-103984637D01*
X125496694Y-103862702D01*
X126146903Y-103862702D01*
X126218486Y-104106671D01*
X126473996Y-104227571D01*
X126748184Y-104296300D01*
X127030512Y-104310217D01*
X127310130Y-104268787D01*
X127576292Y-104173603D01*
X127701514Y-104106671D01*
X127773097Y-103862702D01*
X126960000Y-103049605D01*
X126146903Y-103862702D01*
X125496694Y-103862702D01*
X125574637Y-103784759D01*
X125708692Y-103584131D01*
X125723329Y-103611514D01*
X125967298Y-103683097D01*
X126780395Y-102870000D01*
X127139605Y-102870000D01*
X127952702Y-103683097D01*
X128196671Y-103611514D01*
X128317571Y-103356004D01*
X128386300Y-103081816D01*
X128400217Y-102799488D01*
X128358787Y-102519870D01*
X128263603Y-102253708D01*
X128196671Y-102128486D01*
X127952702Y-102056903D01*
X127139605Y-102870000D01*
X126780395Y-102870000D01*
X125967298Y-102056903D01*
X125723329Y-102128486D01*
X125709676Y-102157341D01*
X125574637Y-101955241D01*
X125496694Y-101877298D01*
X126146903Y-101877298D01*
X126960000Y-102690395D01*
X127773097Y-101877298D01*
X127701514Y-101633329D01*
X127446004Y-101512429D01*
X127171816Y-101443700D01*
X126889488Y-101429783D01*
X126609870Y-101471213D01*
X126343708Y-101566397D01*
X126218486Y-101633329D01*
X126146903Y-101877298D01*
X125496694Y-101877298D01*
X125374759Y-101755363D01*
X125139727Y-101598320D01*
X124878574Y-101490147D01*
X124601335Y-101435000D01*
X124318665Y-101435000D01*
X124041426Y-101490147D01*
X123780273Y-101598320D01*
X123545241Y-101755363D01*
X123345363Y-101955241D01*
X123188320Y-102190273D01*
X123080147Y-102451426D01*
X123025000Y-102728665D01*
X122035000Y-102728665D01*
X122035000Y-102553589D01*
X121981775Y-102286011D01*
X121877371Y-102033957D01*
X121725799Y-101807114D01*
X121532886Y-101614201D01*
X121306043Y-101462629D01*
X121053989Y-101358225D01*
X120786411Y-101305000D01*
X120513589Y-101305000D01*
X120246011Y-101358225D01*
X119993957Y-101462629D01*
X119767114Y-101614201D01*
X119574201Y-101807114D01*
X119422629Y-102033957D01*
X119318225Y-102286011D01*
X119265000Y-102553589D01*
X116943978Y-102553589D01*
X116961904Y-102520961D01*
X116921246Y-102386913D01*
X116801037Y-102132580D01*
X116633519Y-101906586D01*
X116425131Y-101717615D01*
X116239135Y-101606067D01*
X116249727Y-101601680D01*
X116484759Y-101444637D01*
X116684637Y-101244759D01*
X116841680Y-101009727D01*
X116949853Y-100748574D01*
X117005000Y-100471335D01*
X117005000Y-100188665D01*
X116949853Y-99911426D01*
X116841680Y-99650273D01*
X116684637Y-99415241D01*
X116484759Y-99215363D01*
X116252241Y-99060000D01*
X116484759Y-98904637D01*
X116684637Y-98704759D01*
X116841680Y-98469727D01*
X116949853Y-98208574D01*
X117005000Y-97931335D01*
X117005000Y-97653589D01*
X119265000Y-97653589D01*
X119265000Y-97926411D01*
X119318225Y-98193989D01*
X119422629Y-98446043D01*
X119574201Y-98672886D01*
X119767114Y-98865799D01*
X119993957Y-99017371D01*
X120246011Y-99121775D01*
X120513589Y-99175000D01*
X120786411Y-99175000D01*
X121053989Y-99121775D01*
X121306043Y-99017371D01*
X121532886Y-98865799D01*
X121725799Y-98672886D01*
X121877371Y-98446043D01*
X121981775Y-98193989D01*
X122035000Y-97926411D01*
X122035000Y-97653589D01*
X122034021Y-97648665D01*
X123025000Y-97648665D01*
X123025000Y-97931335D01*
X123080147Y-98208574D01*
X123188320Y-98469727D01*
X123345363Y-98704759D01*
X123545241Y-98904637D01*
X123780273Y-99061680D01*
X124041426Y-99169853D01*
X124318665Y-99225000D01*
X124601335Y-99225000D01*
X124878574Y-99169853D01*
X125139727Y-99061680D01*
X125374759Y-98904637D01*
X125496694Y-98782702D01*
X126146903Y-98782702D01*
X126218486Y-99026671D01*
X126473996Y-99147571D01*
X126748184Y-99216300D01*
X127030512Y-99230217D01*
X127310130Y-99188787D01*
X127576292Y-99093603D01*
X127701514Y-99026671D01*
X127773097Y-98782702D01*
X126960000Y-97969605D01*
X126146903Y-98782702D01*
X125496694Y-98782702D01*
X125574637Y-98704759D01*
X125708692Y-98504131D01*
X125723329Y-98531514D01*
X125967298Y-98603097D01*
X126780395Y-97790000D01*
X127139605Y-97790000D01*
X127952702Y-98603097D01*
X128196671Y-98531514D01*
X128317571Y-98276004D01*
X128386300Y-98001816D01*
X128400217Y-97719488D01*
X128358787Y-97439870D01*
X128263603Y-97173708D01*
X128196671Y-97048486D01*
X127952702Y-96976903D01*
X127139605Y-97790000D01*
X126780395Y-97790000D01*
X125967298Y-96976903D01*
X125723329Y-97048486D01*
X125709676Y-97077341D01*
X125574637Y-96875241D01*
X125496694Y-96797298D01*
X126146903Y-96797298D01*
X126960000Y-97610395D01*
X127773097Y-96797298D01*
X127701514Y-96553329D01*
X127446004Y-96432429D01*
X127171816Y-96363700D01*
X126889488Y-96349783D01*
X126609870Y-96391213D01*
X126343708Y-96486397D01*
X126218486Y-96553329D01*
X126146903Y-96797298D01*
X125496694Y-96797298D01*
X125374759Y-96675363D01*
X125139727Y-96518320D01*
X124878574Y-96410147D01*
X124601335Y-96355000D01*
X124318665Y-96355000D01*
X124041426Y-96410147D01*
X123780273Y-96518320D01*
X123545241Y-96675363D01*
X123345363Y-96875241D01*
X123188320Y-97110273D01*
X123080147Y-97371426D01*
X123025000Y-97648665D01*
X122034021Y-97648665D01*
X121981775Y-97386011D01*
X121877371Y-97133957D01*
X121725799Y-96907114D01*
X121532886Y-96714201D01*
X121306043Y-96562629D01*
X121053989Y-96458225D01*
X120786411Y-96405000D01*
X120513589Y-96405000D01*
X120246011Y-96458225D01*
X119993957Y-96562629D01*
X119767114Y-96714201D01*
X119574201Y-96907114D01*
X119422629Y-97133957D01*
X119318225Y-97386011D01*
X119265000Y-97653589D01*
X117005000Y-97653589D01*
X117005000Y-97648665D01*
X116949853Y-97371426D01*
X116841680Y-97110273D01*
X116684637Y-96875241D01*
X116484759Y-96675363D01*
X116252241Y-96520000D01*
X116484759Y-96364637D01*
X116684637Y-96164759D01*
X116841680Y-95929727D01*
X116949853Y-95668574D01*
X117005000Y-95391335D01*
X117005000Y-95108665D01*
X116977955Y-94972702D01*
X127496903Y-94972702D01*
X127568486Y-95216671D01*
X127823996Y-95337571D01*
X128098184Y-95406300D01*
X128380512Y-95420217D01*
X128660130Y-95378787D01*
X128926292Y-95283603D01*
X129051514Y-95216671D01*
X129123097Y-94972702D01*
X128310000Y-94159605D01*
X127496903Y-94972702D01*
X116977955Y-94972702D01*
X116949853Y-94831426D01*
X116841680Y-94570273D01*
X116684637Y-94335241D01*
X116484759Y-94135363D01*
X116252241Y-93980000D01*
X116484759Y-93824637D01*
X116684637Y-93624759D01*
X116841680Y-93389727D01*
X116949853Y-93128574D01*
X117005000Y-92851335D01*
X117005000Y-92568665D01*
X116949853Y-92291426D01*
X116841680Y-92030273D01*
X116684637Y-91795241D01*
X116484759Y-91595363D01*
X116252241Y-91440000D01*
X116484759Y-91284637D01*
X116684637Y-91084759D01*
X116841680Y-90849727D01*
X116949853Y-90588574D01*
X117005000Y-90311335D01*
X117005000Y-90028665D01*
X116949853Y-89751426D01*
X116841680Y-89490273D01*
X116684637Y-89255241D01*
X116484759Y-89055363D01*
X116252241Y-88900000D01*
X116484759Y-88744637D01*
X116684637Y-88544759D01*
X116841680Y-88309727D01*
X116949853Y-88048574D01*
X117005000Y-87771335D01*
X117005000Y-87488665D01*
X116949853Y-87211426D01*
X116841680Y-86950273D01*
X116684637Y-86715241D01*
X116484759Y-86515363D01*
X116249727Y-86358320D01*
X116002748Y-86256018D01*
X116060256Y-86232197D01*
X116229774Y-86118929D01*
X116373937Y-85974766D01*
X116456176Y-85851687D01*
X117300000Y-86695512D01*
X117300001Y-90908033D01*
X117296081Y-90947831D01*
X117311721Y-91106618D01*
X117358038Y-91259304D01*
X117433251Y-91400020D01*
X117467441Y-91441680D01*
X117534473Y-91523359D01*
X117565383Y-91548726D01*
X119821284Y-93804628D01*
X119846651Y-93835538D01*
X119905975Y-93884224D01*
X119969989Y-93936759D01*
X120045203Y-93976961D01*
X120110706Y-94011973D01*
X120263391Y-94058290D01*
X120382388Y-94070010D01*
X120382391Y-94070010D01*
X120422179Y-94073929D01*
X120461967Y-94070010D01*
X125140202Y-94070010D01*
X125179990Y-94073929D01*
X125219778Y-94070010D01*
X125219781Y-94070010D01*
X125338778Y-94058290D01*
X125364418Y-94050512D01*
X126869783Y-94050512D01*
X126911213Y-94330130D01*
X127006397Y-94596292D01*
X127073329Y-94721514D01*
X127317298Y-94793097D01*
X128130395Y-93980000D01*
X128489605Y-93980000D01*
X129302702Y-94793097D01*
X129546671Y-94721514D01*
X129560324Y-94692659D01*
X129695363Y-94894759D01*
X129895241Y-95094637D01*
X130130273Y-95251680D01*
X130391426Y-95359853D01*
X130668665Y-95415000D01*
X130951335Y-95415000D01*
X131228574Y-95359853D01*
X131489727Y-95251680D01*
X131724759Y-95094637D01*
X131924637Y-94894759D01*
X132081680Y-94659727D01*
X132189853Y-94398574D01*
X132245000Y-94121335D01*
X132245000Y-93838665D01*
X132189853Y-93561426D01*
X132081680Y-93300273D01*
X131924637Y-93065241D01*
X131724759Y-92865363D01*
X131489727Y-92708320D01*
X131228574Y-92600147D01*
X130951335Y-92545000D01*
X130668665Y-92545000D01*
X130391426Y-92600147D01*
X130130273Y-92708320D01*
X129895241Y-92865363D01*
X129695363Y-93065241D01*
X129561308Y-93265869D01*
X129546671Y-93238486D01*
X129302702Y-93166903D01*
X128489605Y-93980000D01*
X128130395Y-93980000D01*
X127317298Y-93166903D01*
X127073329Y-93238486D01*
X126952429Y-93493996D01*
X126883700Y-93768184D01*
X126869783Y-94050512D01*
X125364418Y-94050512D01*
X125491463Y-94011973D01*
X125632179Y-93936759D01*
X125755518Y-93835538D01*
X125780889Y-93804623D01*
X126598214Y-92987298D01*
X127496903Y-92987298D01*
X128310000Y-93800395D01*
X129123097Y-92987298D01*
X129051514Y-92743329D01*
X128796004Y-92622429D01*
X128521816Y-92553700D01*
X128239488Y-92539783D01*
X127959870Y-92581213D01*
X127693708Y-92676397D01*
X127568486Y-92743329D01*
X127496903Y-92987298D01*
X126598214Y-92987298D01*
X128037409Y-91548104D01*
X128132408Y-91567000D01*
X128407592Y-91567000D01*
X128677490Y-91513314D01*
X128931727Y-91408005D01*
X129160535Y-91255120D01*
X129355120Y-91060535D01*
X129508005Y-90831727D01*
X129540000Y-90754485D01*
X129571995Y-90831727D01*
X129724880Y-91060535D01*
X129919465Y-91255120D01*
X130148273Y-91408005D01*
X130402510Y-91513314D01*
X130672408Y-91567000D01*
X130947592Y-91567000D01*
X131217490Y-91513314D01*
X131471727Y-91408005D01*
X131700535Y-91255120D01*
X131895120Y-91060535D01*
X132048005Y-90831727D01*
X132153314Y-90577490D01*
X132207000Y-90307592D01*
X132207000Y-90032408D01*
X132153314Y-89762510D01*
X132048005Y-89508273D01*
X131895120Y-89279465D01*
X131700535Y-89084880D01*
X131612535Y-89026080D01*
X131696482Y-89017812D01*
X131816180Y-88981502D01*
X131926494Y-88922537D01*
X132023185Y-88843185D01*
X132102537Y-88746494D01*
X132161502Y-88636180D01*
X132197812Y-88516482D01*
X132210072Y-88392000D01*
X132207000Y-87915750D01*
X132048250Y-87757000D01*
X130937000Y-87757000D01*
X130937000Y-87777000D01*
X130683000Y-87777000D01*
X130683000Y-87757000D01*
X130663000Y-87757000D01*
X130663000Y-87503000D01*
X130683000Y-87503000D01*
X130683000Y-86391750D01*
X130937000Y-86391750D01*
X130937000Y-87503000D01*
X132048250Y-87503000D01*
X132207000Y-87344250D01*
X132210072Y-86868000D01*
X132197812Y-86743518D01*
X132161502Y-86623820D01*
X132102537Y-86513506D01*
X132023185Y-86416815D01*
X131926494Y-86337463D01*
X131816180Y-86278498D01*
X131696482Y-86242188D01*
X131572000Y-86229928D01*
X131095750Y-86233000D01*
X130937000Y-86391750D01*
X130683000Y-86391750D01*
X130524250Y-86233000D01*
X130048000Y-86229928D01*
X129923518Y-86242188D01*
X129803820Y-86278498D01*
X129693506Y-86337463D01*
X129596815Y-86416815D01*
X129517463Y-86513506D01*
X129458498Y-86623820D01*
X129422188Y-86743518D01*
X129413920Y-86827465D01*
X129355120Y-86739465D01*
X129160535Y-86544880D01*
X128931727Y-86391995D01*
X128677490Y-86286686D01*
X128407592Y-86233000D01*
X128132408Y-86233000D01*
X127862510Y-86286686D01*
X127608273Y-86391995D01*
X127379465Y-86544880D01*
X127184880Y-86739465D01*
X127031995Y-86968273D01*
X127000000Y-87045515D01*
X126968005Y-86968273D01*
X126815120Y-86739465D01*
X126620535Y-86544880D01*
X126391727Y-86391995D01*
X126137490Y-86286686D01*
X125867592Y-86233000D01*
X125592408Y-86233000D01*
X125497409Y-86251896D01*
X123790900Y-84545387D01*
X123765528Y-84514472D01*
X123642189Y-84413251D01*
X123501473Y-84338037D01*
X123348788Y-84291720D01*
X123229791Y-84280000D01*
X123229788Y-84280000D01*
X123190000Y-84276081D01*
X123150212Y-84280000D01*
X119715513Y-84280000D01*
X117780861Y-82345349D01*
X117755490Y-82314434D01*
X117632151Y-82213213D01*
X117491435Y-82137999D01*
X117338750Y-82091682D01*
X117219753Y-82079962D01*
X117219750Y-82079962D01*
X117179962Y-82076043D01*
X117140174Y-82079962D01*
X114221342Y-82079962D01*
X114301680Y-81959727D01*
X114409853Y-81698574D01*
X114465000Y-81421335D01*
X114465000Y-81138665D01*
X121755000Y-81138665D01*
X121755000Y-81421335D01*
X121810147Y-81698574D01*
X121918320Y-81959727D01*
X122075363Y-82194759D01*
X122275241Y-82394637D01*
X122510273Y-82551680D01*
X122771426Y-82659853D01*
X123048665Y-82715000D01*
X123331335Y-82715000D01*
X123608574Y-82659853D01*
X123869727Y-82551680D01*
X124104759Y-82394637D01*
X124304637Y-82194759D01*
X124461680Y-81959727D01*
X124569853Y-81698574D01*
X124625000Y-81421335D01*
X124625000Y-81138665D01*
X124569853Y-80861426D01*
X124461680Y-80600273D01*
X124304637Y-80365241D01*
X124104759Y-80165363D01*
X123869727Y-80008320D01*
X123608574Y-79900147D01*
X123331335Y-79845000D01*
X123048665Y-79845000D01*
X122771426Y-79900147D01*
X122510273Y-80008320D01*
X122275241Y-80165363D01*
X122075363Y-80365241D01*
X121918320Y-80600273D01*
X121810147Y-80861426D01*
X121755000Y-81138665D01*
X114465000Y-81138665D01*
X114409853Y-80861426D01*
X114301680Y-80600273D01*
X114144637Y-80365241D01*
X113944759Y-80165363D01*
X113709727Y-80008320D01*
X113448574Y-79900147D01*
X113171335Y-79845000D01*
X112888665Y-79845000D01*
X112611426Y-79900147D01*
X112350273Y-80008320D01*
X112115241Y-80165363D01*
X111915363Y-80365241D01*
X111758320Y-80600273D01*
X111650147Y-80861426D01*
X111595000Y-81138665D01*
X111595000Y-81421335D01*
X111650147Y-81698574D01*
X111758320Y-81959727D01*
X111838658Y-82079962D01*
X108657334Y-82079962D01*
X108617543Y-82076043D01*
X108458755Y-82091682D01*
X108306069Y-82137999D01*
X108199879Y-82194759D01*
X108165354Y-82213213D01*
X108042015Y-82314434D01*
X108016648Y-82345344D01*
X104800000Y-85561993D01*
X104800000Y-73518665D01*
X111595000Y-73518665D01*
X111595000Y-73801335D01*
X111650147Y-74078574D01*
X111758320Y-74339727D01*
X111915363Y-74574759D01*
X112115241Y-74774637D01*
X112350273Y-74931680D01*
X112611426Y-75039853D01*
X112888665Y-75095000D01*
X113171335Y-75095000D01*
X113448574Y-75039853D01*
X113709727Y-74931680D01*
X113944759Y-74774637D01*
X114144637Y-74574759D01*
X114301680Y-74339727D01*
X114409853Y-74078574D01*
X114465000Y-73801335D01*
X114465000Y-73518665D01*
X121755000Y-73518665D01*
X121755000Y-73801335D01*
X121810147Y-74078574D01*
X121918320Y-74339727D01*
X122075363Y-74574759D01*
X122275241Y-74774637D01*
X122510273Y-74931680D01*
X122771426Y-75039853D01*
X123048665Y-75095000D01*
X123331335Y-75095000D01*
X123608574Y-75039853D01*
X123869727Y-74931680D01*
X124104759Y-74774637D01*
X124304637Y-74574759D01*
X124461680Y-74339727D01*
X124569853Y-74078574D01*
X124625000Y-73801335D01*
X124625000Y-73518665D01*
X124569853Y-73241426D01*
X124461680Y-72980273D01*
X124304637Y-72745241D01*
X124258810Y-72699414D01*
X124510911Y-72612314D01*
X124684742Y-72519399D01*
X124780445Y-72255050D01*
X123825000Y-71299605D01*
X122869555Y-72255050D01*
X122871439Y-72260253D01*
X122771426Y-72280147D01*
X122510273Y-72388320D01*
X122275241Y-72545363D01*
X122075363Y-72745241D01*
X121918320Y-72980273D01*
X121810147Y-73241426D01*
X121755000Y-73518665D01*
X114465000Y-73518665D01*
X114409853Y-73241426D01*
X114301680Y-72980273D01*
X114152870Y-72757562D01*
X115299490Y-72757562D01*
X115423972Y-72745302D01*
X115543670Y-72708992D01*
X115653984Y-72650027D01*
X115750675Y-72570675D01*
X115830027Y-72473984D01*
X115888992Y-72363670D01*
X115925302Y-72243972D01*
X115937562Y-72119490D01*
X115937562Y-71679426D01*
X116026533Y-71894222D01*
X116205408Y-72161927D01*
X116433073Y-72389592D01*
X116700778Y-72568467D01*
X116998237Y-72691678D01*
X117314017Y-72754490D01*
X117635983Y-72754490D01*
X117951763Y-72691678D01*
X118249222Y-72568467D01*
X118516927Y-72389592D01*
X118744592Y-72161927D01*
X118923467Y-71894222D01*
X119046678Y-71596763D01*
X119062500Y-71517220D01*
X119078322Y-71596763D01*
X119201533Y-71894222D01*
X119380408Y-72161927D01*
X119608073Y-72389592D01*
X119875778Y-72568467D01*
X120173237Y-72691678D01*
X120489017Y-72754490D01*
X120810983Y-72754490D01*
X121126763Y-72691678D01*
X121424222Y-72568467D01*
X121691927Y-72389592D01*
X121919592Y-72161927D01*
X122098467Y-71894222D01*
X122221678Y-71596763D01*
X122235835Y-71525588D01*
X122332686Y-71805911D01*
X122425601Y-71979742D01*
X122689950Y-72075445D01*
X123645395Y-71120000D01*
X124004605Y-71120000D01*
X124960050Y-72075445D01*
X125224399Y-71979742D01*
X125365238Y-71690213D01*
X125446885Y-71378771D01*
X125466205Y-71057385D01*
X125422454Y-70738405D01*
X125317314Y-70434089D01*
X125224399Y-70260258D01*
X124960050Y-70164555D01*
X124004605Y-71120000D01*
X123645395Y-71120000D01*
X122689950Y-70164555D01*
X122425601Y-70260258D01*
X122284762Y-70549787D01*
X122238324Y-70726924D01*
X122221678Y-70643237D01*
X122098467Y-70345778D01*
X121919592Y-70078073D01*
X121826469Y-69984950D01*
X122869555Y-69984950D01*
X123825000Y-70940395D01*
X124780445Y-69984950D01*
X124684742Y-69720601D01*
X124395213Y-69579762D01*
X124083771Y-69498115D01*
X123762385Y-69478795D01*
X123443405Y-69522546D01*
X123139089Y-69627686D01*
X122965258Y-69720601D01*
X122869555Y-69984950D01*
X121826469Y-69984950D01*
X121691927Y-69850408D01*
X121424222Y-69671533D01*
X121126763Y-69548322D01*
X120810983Y-69485510D01*
X120489017Y-69485510D01*
X120173237Y-69548322D01*
X119875778Y-69671533D01*
X119608073Y-69850408D01*
X119380408Y-70078073D01*
X119201533Y-70345778D01*
X119078322Y-70643237D01*
X119062500Y-70722780D01*
X119046678Y-70643237D01*
X118923467Y-70345778D01*
X118744592Y-70078073D01*
X118516927Y-69850408D01*
X118249222Y-69671533D01*
X117951763Y-69548322D01*
X117635983Y-69485510D01*
X117314017Y-69485510D01*
X116998237Y-69548322D01*
X116700778Y-69671533D01*
X116433073Y-69850408D01*
X116205408Y-70078073D01*
X116026533Y-70345778D01*
X115937562Y-70560574D01*
X115937562Y-70120510D01*
X115925302Y-69996028D01*
X115888992Y-69876330D01*
X115830027Y-69766016D01*
X115750675Y-69669325D01*
X115653984Y-69589973D01*
X115543670Y-69531008D01*
X115423972Y-69494698D01*
X115299490Y-69482438D01*
X113300510Y-69482438D01*
X113176028Y-69494698D01*
X113056330Y-69531008D01*
X112946016Y-69589973D01*
X112849325Y-69669325D01*
X112769973Y-69766016D01*
X112711008Y-69876330D01*
X112674698Y-69996028D01*
X112662438Y-70120510D01*
X112662438Y-72119490D01*
X112674698Y-72243972D01*
X112681447Y-72266219D01*
X112611426Y-72280147D01*
X112350273Y-72388320D01*
X112115241Y-72545363D01*
X111915363Y-72745241D01*
X111758320Y-72980273D01*
X111650147Y-73241426D01*
X111595000Y-73518665D01*
X104800000Y-73518665D01*
X104800000Y-67259049D01*
X114912747Y-67259049D01*
X114913165Y-67318866D01*
X114912747Y-67378682D01*
X114913646Y-67387853D01*
X114939554Y-67634357D01*
X114951588Y-67692983D01*
X114962792Y-67751716D01*
X114965456Y-67760538D01*
X115038751Y-67997314D01*
X115061931Y-68052457D01*
X115084339Y-68107920D01*
X115088665Y-68116054D01*
X115088667Y-68116059D01*
X115088670Y-68116064D01*
X115206553Y-68334086D01*
X115239988Y-68383654D01*
X115272759Y-68433735D01*
X115278584Y-68440876D01*
X115436577Y-68631856D01*
X115479012Y-68673995D01*
X115520875Y-68716745D01*
X115527976Y-68722618D01*
X115720053Y-68879273D01*
X115769875Y-68912374D01*
X115819237Y-68946173D01*
X115827343Y-68950556D01*
X116046191Y-69066919D01*
X116101479Y-69089707D01*
X116156475Y-69113279D01*
X116165278Y-69116003D01*
X116402559Y-69187643D01*
X116461246Y-69199264D01*
X116519752Y-69211700D01*
X116528915Y-69212663D01*
X116528917Y-69212663D01*
X116775595Y-69236850D01*
X116775598Y-69236850D01*
X116807581Y-69240000D01*
X121952419Y-69240000D01*
X121985661Y-69236726D01*
X122002137Y-69236726D01*
X122011302Y-69235763D01*
X122257618Y-69208134D01*
X122316098Y-69195703D01*
X122374808Y-69184079D01*
X122383611Y-69181353D01*
X122619869Y-69106408D01*
X122674824Y-69082854D01*
X122730158Y-69060047D01*
X122738264Y-69055664D01*
X122955466Y-68936256D01*
X123004791Y-68902482D01*
X123054648Y-68869357D01*
X123061749Y-68863483D01*
X123251621Y-68704160D01*
X123293465Y-68661431D01*
X123335918Y-68619273D01*
X123341742Y-68612132D01*
X123497053Y-68418965D01*
X123529814Y-68368901D01*
X123563260Y-68319315D01*
X123567586Y-68311179D01*
X123682418Y-68091524D01*
X123704802Y-68036120D01*
X123728007Y-67980919D01*
X123730670Y-67972097D01*
X123800652Y-67734321D01*
X123811861Y-67675559D01*
X123823890Y-67616962D01*
X123824789Y-67607791D01*
X123847253Y-67360951D01*
X123846835Y-67301134D01*
X123847253Y-67241318D01*
X123846354Y-67232147D01*
X123820446Y-66985644D01*
X123808412Y-66927017D01*
X123797208Y-66868284D01*
X123794544Y-66859462D01*
X123721249Y-66622686D01*
X123698074Y-66567555D01*
X123675661Y-66512080D01*
X123671334Y-66503944D01*
X123553446Y-66285914D01*
X123520012Y-66236346D01*
X123487240Y-66186265D01*
X123481416Y-66179124D01*
X123323423Y-65988144D01*
X123280988Y-65946005D01*
X123239125Y-65903255D01*
X123232024Y-65897381D01*
X123039946Y-65740727D01*
X122990169Y-65707655D01*
X122940763Y-65673826D01*
X122932657Y-65669444D01*
X122713809Y-65553081D01*
X122658532Y-65530298D01*
X122603525Y-65506721D01*
X122594722Y-65503997D01*
X122357441Y-65432357D01*
X122298754Y-65420736D01*
X122240248Y-65408300D01*
X122231085Y-65407337D01*
X122231083Y-65407337D01*
X121984405Y-65383150D01*
X121984402Y-65383150D01*
X121952419Y-65380000D01*
X116807581Y-65380000D01*
X116774339Y-65383274D01*
X116757863Y-65383274D01*
X116748698Y-65384237D01*
X116502382Y-65411866D01*
X116443865Y-65424305D01*
X116385192Y-65435922D01*
X116376389Y-65438647D01*
X116140131Y-65513592D01*
X116085209Y-65537132D01*
X116029842Y-65559952D01*
X116021736Y-65564336D01*
X115804534Y-65683744D01*
X115755171Y-65717543D01*
X115705352Y-65750643D01*
X115698252Y-65756517D01*
X115508379Y-65915839D01*
X115466516Y-65958588D01*
X115424082Y-66000727D01*
X115418258Y-66007868D01*
X115262947Y-66201035D01*
X115230186Y-66251099D01*
X115196740Y-66300685D01*
X115192418Y-66308814D01*
X115192415Y-66308819D01*
X115192414Y-66308822D01*
X115077582Y-66528476D01*
X115055173Y-66583942D01*
X115031994Y-66639081D01*
X115029330Y-66647903D01*
X114959348Y-66885679D01*
X114948139Y-66944441D01*
X114936110Y-67003038D01*
X114935211Y-67012209D01*
X114912747Y-67259049D01*
X104800000Y-67259049D01*
X104800000Y-64802279D01*
X104814722Y-64652131D01*
X104848953Y-64538754D01*
X104904555Y-64434181D01*
X104979407Y-64342404D01*
X105070664Y-64266909D01*
X105174844Y-64210581D01*
X105287976Y-64175560D01*
X105436022Y-64160000D01*
X133317721Y-64160000D01*
X133467869Y-64174722D01*
G37*
X133467869Y-64174722D02*
X133581246Y-64208953D01*
X133685819Y-64264555D01*
X133777596Y-64339407D01*
X133853091Y-64430664D01*
X133909419Y-64534844D01*
X133944440Y-64647976D01*
X133960000Y-64796022D01*
X133960000Y-72359438D01*
X133768574Y-72280147D01*
X133491335Y-72225000D01*
X133208665Y-72225000D01*
X132931426Y-72280147D01*
X132670273Y-72388320D01*
X132435241Y-72545363D01*
X132235363Y-72745241D01*
X132078320Y-72980273D01*
X131970147Y-73241426D01*
X131915000Y-73518665D01*
X131915000Y-73801335D01*
X131970147Y-74078574D01*
X132078320Y-74339727D01*
X132235363Y-74574759D01*
X132435241Y-74774637D01*
X132670273Y-74931680D01*
X132931426Y-75039853D01*
X133208665Y-75095000D01*
X133491335Y-75095000D01*
X133768574Y-75039853D01*
X133960000Y-74960562D01*
X133960000Y-79979438D01*
X133768574Y-79900147D01*
X133491335Y-79845000D01*
X133208665Y-79845000D01*
X132931426Y-79900147D01*
X132670273Y-80008320D01*
X132435241Y-80165363D01*
X132235363Y-80365241D01*
X132078320Y-80600273D01*
X131970147Y-80861426D01*
X131915000Y-81138665D01*
X131915000Y-81421335D01*
X131970147Y-81698574D01*
X132078320Y-81959727D01*
X132235363Y-82194759D01*
X132435241Y-82394637D01*
X132670273Y-82551680D01*
X132931426Y-82659853D01*
X133208665Y-82715000D01*
X133491335Y-82715000D01*
X133768574Y-82659853D01*
X133960000Y-82580562D01*
X133960001Y-130777711D01*
X133945278Y-130927869D01*
X133911047Y-131041246D01*
X133855446Y-131145817D01*
X133780594Y-131237595D01*
X133689335Y-131313091D01*
X133585160Y-131369419D01*
X133472024Y-131404440D01*
X133323979Y-131420000D01*
X105442279Y-131420000D01*
X105292131Y-131405278D01*
X105178754Y-131371047D01*
X105074183Y-131315446D01*
X104982405Y-131240594D01*
X104906909Y-131149335D01*
X104850581Y-131045160D01*
X104815560Y-130932024D01*
X104800000Y-130783979D01*
X104800000Y-128219049D01*
X106022747Y-128219049D01*
X106023165Y-128278866D01*
X106022747Y-128338682D01*
X106023646Y-128347853D01*
X106049554Y-128594357D01*
X106061588Y-128652983D01*
X106072792Y-128711716D01*
X106075456Y-128720538D01*
X106148751Y-128957314D01*
X106171931Y-129012457D01*
X106194339Y-129067920D01*
X106198665Y-129076054D01*
X106198667Y-129076059D01*
X106198670Y-129076064D01*
X106316553Y-129294086D01*
X106349988Y-129343654D01*
X106382759Y-129393735D01*
X106388584Y-129400876D01*
X106546577Y-129591856D01*
X106589012Y-129633995D01*
X106630875Y-129676745D01*
X106637976Y-129682618D01*
X106830053Y-129839273D01*
X106879875Y-129872374D01*
X106929237Y-129906173D01*
X106937343Y-129910556D01*
X107156191Y-130026919D01*
X107211479Y-130049707D01*
X107266475Y-130073279D01*
X107275278Y-130076003D01*
X107512559Y-130147643D01*
X107571246Y-130159264D01*
X107629752Y-130171700D01*
X107638915Y-130172663D01*
X107638917Y-130172663D01*
X107885595Y-130196850D01*
X107885598Y-130196850D01*
X107917581Y-130200000D01*
X111792419Y-130200000D01*
X111825661Y-130196726D01*
X111842137Y-130196726D01*
X111851302Y-130195763D01*
X112097618Y-130168134D01*
X112156098Y-130155703D01*
X112214808Y-130144079D01*
X112223611Y-130141353D01*
X112459869Y-130066408D01*
X112514824Y-130042854D01*
X112570158Y-130020047D01*
X112578264Y-130015664D01*
X112795466Y-129896256D01*
X112844791Y-129862482D01*
X112894648Y-129829357D01*
X112901749Y-129823483D01*
X113091621Y-129664160D01*
X113133465Y-129621431D01*
X113175918Y-129579273D01*
X113181742Y-129572132D01*
X113337053Y-129378965D01*
X113369814Y-129328901D01*
X113403260Y-129279315D01*
X113407586Y-129271179D01*
X113522418Y-129051524D01*
X113544802Y-128996120D01*
X113568007Y-128940919D01*
X113570670Y-128932097D01*
X113640652Y-128694321D01*
X113651861Y-128635559D01*
X113663890Y-128576962D01*
X113664789Y-128567791D01*
X113687253Y-128320951D01*
X113686835Y-128261135D01*
X113687129Y-128219049D01*
X123802747Y-128219049D01*
X123803165Y-128278866D01*
X123802747Y-128338682D01*
X123803646Y-128347853D01*
X123829554Y-128594357D01*
X123841588Y-128652983D01*
X123852792Y-128711716D01*
X123855456Y-128720538D01*
X123928751Y-128957314D01*
X123951931Y-129012457D01*
X123974339Y-129067920D01*
X123978665Y-129076054D01*
X123978667Y-129076059D01*
X123978670Y-129076064D01*
X124096553Y-129294086D01*
X124129988Y-129343654D01*
X124162759Y-129393735D01*
X124168584Y-129400876D01*
X124326577Y-129591856D01*
X124369012Y-129633995D01*
X124410875Y-129676745D01*
X124417976Y-129682618D01*
X124610053Y-129839273D01*
X124659875Y-129872374D01*
X124709237Y-129906173D01*
X124717343Y-129910556D01*
X124936191Y-130026919D01*
X124991479Y-130049707D01*
X125046475Y-130073279D01*
X125055278Y-130076003D01*
X125292559Y-130147643D01*
X125351246Y-130159264D01*
X125409752Y-130171700D01*
X125418915Y-130172663D01*
X125418917Y-130172663D01*
X125665595Y-130196850D01*
X125665598Y-130196850D01*
X125697581Y-130200000D01*
X130842419Y-130200000D01*
X130875661Y-130196726D01*
X130892137Y-130196726D01*
X130901302Y-130195763D01*
X131147618Y-130168134D01*
X131206098Y-130155703D01*
X131264808Y-130144079D01*
X131273611Y-130141353D01*
X131509869Y-130066408D01*
X131564824Y-130042854D01*
X131620158Y-130020047D01*
X131628264Y-130015664D01*
X131845466Y-129896256D01*
X131894791Y-129862482D01*
X131944648Y-129829357D01*
X131951749Y-129823483D01*
X132141621Y-129664160D01*
X132183465Y-129621431D01*
X132225918Y-129579273D01*
X132231742Y-129572132D01*
X132387053Y-129378965D01*
X132419814Y-129328901D01*
X132453260Y-129279315D01*
X132457586Y-129271179D01*
X132572418Y-129051524D01*
X132594802Y-128996120D01*
X132618007Y-128940919D01*
X132620670Y-128932097D01*
X132690652Y-128694321D01*
X132701861Y-128635559D01*
X132713890Y-128576962D01*
X132714789Y-128567791D01*
X132737253Y-128320951D01*
X132736835Y-128261135D01*
X132737253Y-128201318D01*
X132736354Y-128192147D01*
X132710446Y-127945644D01*
X132698412Y-127887017D01*
X132687208Y-127828284D01*
X132684544Y-127819462D01*
X132611249Y-127582686D01*
X132588074Y-127527555D01*
X132565661Y-127472080D01*
X132561334Y-127463944D01*
X132443446Y-127245914D01*
X132410012Y-127196346D01*
X132377240Y-127146265D01*
X132371416Y-127139124D01*
X132213423Y-126948144D01*
X132170988Y-126906005D01*
X132129125Y-126863255D01*
X132122024Y-126857381D01*
X131929946Y-126700727D01*
X131880169Y-126667655D01*
X131830763Y-126633826D01*
X131822657Y-126629444D01*
X131603809Y-126513081D01*
X131548532Y-126490298D01*
X131493525Y-126466721D01*
X131484722Y-126463997D01*
X131247441Y-126392357D01*
X131188754Y-126380736D01*
X131130248Y-126368300D01*
X131121085Y-126367337D01*
X131121083Y-126367337D01*
X130890009Y-126344680D01*
X130995625Y-126344680D01*
X131359741Y-126272253D01*
X131702731Y-126130182D01*
X132011413Y-125923926D01*
X132273926Y-125661413D01*
X132480182Y-125352731D01*
X132622253Y-125009741D01*
X132694680Y-124645625D01*
X132694680Y-124274375D01*
X132622253Y-123910259D01*
X132480182Y-123567269D01*
X132273926Y-123258587D01*
X132011413Y-122996074D01*
X131702731Y-122789818D01*
X131359741Y-122647747D01*
X130995625Y-122575320D01*
X130624375Y-122575320D01*
X130260259Y-122647747D01*
X129917269Y-122789818D01*
X129608587Y-122996074D01*
X129346074Y-123258587D01*
X129139818Y-123567269D01*
X128997747Y-123910259D01*
X128925320Y-124274375D01*
X128925320Y-124645625D01*
X128997747Y-125009741D01*
X129139818Y-125352731D01*
X129346074Y-125661413D01*
X129608587Y-125923926D01*
X129917269Y-126130182D01*
X130260259Y-126272253D01*
X130600847Y-126340000D01*
X128328390Y-126340000D01*
X128374162Y-126335492D01*
X128493860Y-126299182D01*
X128604174Y-126240217D01*
X128700865Y-126160865D01*
X128780217Y-126064174D01*
X128839182Y-125953860D01*
X128875492Y-125834162D01*
X128887752Y-125709680D01*
X128887752Y-123210320D01*
X128875492Y-123085838D01*
X128839182Y-122966140D01*
X128780217Y-122855826D01*
X128700865Y-122759135D01*
X128604174Y-122679783D01*
X128493860Y-122620818D01*
X128374162Y-122584508D01*
X128249680Y-122572248D01*
X125750320Y-122572248D01*
X125625838Y-122584508D01*
X125506140Y-122620818D01*
X125395826Y-122679783D01*
X125299135Y-122759135D01*
X125219783Y-122855826D01*
X125160818Y-122966140D01*
X125124508Y-123085838D01*
X125112248Y-123210320D01*
X125112248Y-125709680D01*
X125124508Y-125834162D01*
X125160818Y-125953860D01*
X125219783Y-126064174D01*
X125299135Y-126160865D01*
X125395826Y-126240217D01*
X125506140Y-126299182D01*
X125625838Y-126335492D01*
X125684596Y-126341279D01*
X125664339Y-126343274D01*
X125647863Y-126343274D01*
X125638698Y-126344237D01*
X125392382Y-126371866D01*
X125333865Y-126384305D01*
X125275192Y-126395922D01*
X125266389Y-126398647D01*
X125030131Y-126473592D01*
X124975209Y-126497132D01*
X124919842Y-126519952D01*
X124911736Y-126524336D01*
X124694534Y-126643744D01*
X124645171Y-126677543D01*
X124595352Y-126710643D01*
X124588252Y-126716517D01*
X124398379Y-126875839D01*
X124356516Y-126918588D01*
X124314082Y-126960727D01*
X124308258Y-126967868D01*
X124152947Y-127161035D01*
X124120186Y-127211099D01*
X124086740Y-127260685D01*
X124082418Y-127268814D01*
X124082415Y-127268819D01*
X124082414Y-127268822D01*
X123967582Y-127488476D01*
X123945173Y-127543942D01*
X123921994Y-127599081D01*
X123919330Y-127607903D01*
X123849348Y-127845679D01*
X123838139Y-127904441D01*
X123826110Y-127963038D01*
X123825211Y-127972209D01*
X123802747Y-128219049D01*
X113687129Y-128219049D01*
X113687253Y-128201318D01*
X113686354Y-128192147D01*
X113660446Y-127945644D01*
X113648412Y-127887017D01*
X113637208Y-127828284D01*
X113634544Y-127819462D01*
X113561249Y-127582686D01*
X113538074Y-127527555D01*
X113515661Y-127472080D01*
X113511334Y-127463944D01*
X113393446Y-127245914D01*
X113360012Y-127196346D01*
X113327240Y-127146265D01*
X113321416Y-127139124D01*
X113163423Y-126948144D01*
X113120988Y-126906005D01*
X113079125Y-126863255D01*
X113072024Y-126857381D01*
X112879946Y-126700727D01*
X112830169Y-126667655D01*
X112780763Y-126633826D01*
X112772657Y-126629444D01*
X112553809Y-126513081D01*
X112498532Y-126490298D01*
X112443525Y-126466721D01*
X112434722Y-126463997D01*
X112197441Y-126392357D01*
X112138754Y-126380736D01*
X112080248Y-126368300D01*
X112071085Y-126367337D01*
X112071083Y-126367337D01*
X111840009Y-126344680D01*
X111945625Y-126344680D01*
X112309741Y-126272253D01*
X112652731Y-126130182D01*
X112961413Y-125923926D01*
X113223926Y-125661413D01*
X113430182Y-125352731D01*
X113572253Y-125009741D01*
X113644680Y-124645625D01*
X113644680Y-124323589D01*
X115635000Y-124323589D01*
X115635000Y-124596411D01*
X115688225Y-124863989D01*
X115792629Y-125116043D01*
X115944201Y-125342886D01*
X116137114Y-125535799D01*
X116363957Y-125687371D01*
X116616011Y-125791775D01*
X116883589Y-125845000D01*
X117156411Y-125845000D01*
X117423989Y-125791775D01*
X117676043Y-125687371D01*
X117902886Y-125535799D01*
X118095799Y-125342886D01*
X118247371Y-125116043D01*
X118351775Y-124863989D01*
X118405000Y-124596411D01*
X118405000Y-124323589D01*
X120535000Y-124323589D01*
X120535000Y-124596411D01*
X120588225Y-124863989D01*
X120692629Y-125116043D01*
X120844201Y-125342886D01*
X121037114Y-125535799D01*
X121263957Y-125687371D01*
X121516011Y-125791775D01*
X121783589Y-125845000D01*
X122056411Y-125845000D01*
X122323989Y-125791775D01*
X122576043Y-125687371D01*
X122802886Y-125535799D01*
X122995799Y-125342886D01*
X123147371Y-125116043D01*
X123251775Y-124863989D01*
X123305000Y-124596411D01*
X123305000Y-124323589D01*
X123251775Y-124056011D01*
X123147371Y-123803957D01*
X122995799Y-123577114D01*
X122802886Y-123384201D01*
X122576043Y-123232629D01*
X122323989Y-123128225D01*
X122056411Y-123075000D01*
X121783589Y-123075000D01*
X121516011Y-123128225D01*
X121263957Y-123232629D01*
X121037114Y-123384201D01*
X120844201Y-123577114D01*
X120692629Y-123803957D01*
X120588225Y-124056011D01*
X120535000Y-124323589D01*
X118405000Y-124323589D01*
X118351775Y-124056011D01*
X118247371Y-123803957D01*
X118095799Y-123577114D01*
X117902886Y-123384201D01*
X117676043Y-123232629D01*
X117423989Y-123128225D01*
X117156411Y-123075000D01*
X116883589Y-123075000D01*
X116616011Y-123128225D01*
X116363957Y-123232629D01*
X116137114Y-123384201D01*
X115944201Y-123577114D01*
X115792629Y-123803957D01*
X115688225Y-124056011D01*
X115635000Y-124323589D01*
X113644680Y-124323589D01*
X113644680Y-124274375D01*
X113572253Y-123910259D01*
X113430182Y-123567269D01*
X113223926Y-123258587D01*
X112961413Y-122996074D01*
X112652731Y-122789818D01*
X112309741Y-122647747D01*
X111945625Y-122575320D01*
X111574375Y-122575320D01*
X111210259Y-122647747D01*
X110867269Y-122789818D01*
X110558587Y-122996074D01*
X110296074Y-123258587D01*
X110089818Y-123567269D01*
X109947747Y-123910259D01*
X109875320Y-124274375D01*
X109875320Y-124645625D01*
X109947747Y-125009741D01*
X110089818Y-125352731D01*
X110296074Y-125661413D01*
X110558587Y-125923926D01*
X110867269Y-126130182D01*
X111210259Y-126272253D01*
X111550847Y-126340000D01*
X109278390Y-126340000D01*
X109324162Y-126335492D01*
X109443860Y-126299182D01*
X109554174Y-126240217D01*
X109650865Y-126160865D01*
X109730217Y-126064174D01*
X109789182Y-125953860D01*
X109825492Y-125834162D01*
X109837752Y-125709680D01*
X109834680Y-124745750D01*
X109675930Y-124587000D01*
X108077000Y-124587000D01*
X108077000Y-124607000D01*
X107823000Y-124607000D01*
X107823000Y-124587000D01*
X106224070Y-124587000D01*
X106065320Y-124745750D01*
X106062248Y-125709680D01*
X106074508Y-125834162D01*
X106110818Y-125953860D01*
X106169783Y-126064174D01*
X106249135Y-126160865D01*
X106345826Y-126240217D01*
X106456140Y-126299182D01*
X106575838Y-126335492D01*
X106700320Y-126347752D01*
X107664250Y-126344680D01*
X107822998Y-126185932D01*
X107822998Y-126344680D01*
X107854749Y-126344680D01*
X107612382Y-126371866D01*
X107553865Y-126384305D01*
X107495192Y-126395922D01*
X107486389Y-126398647D01*
X107250131Y-126473592D01*
X107195209Y-126497132D01*
X107139842Y-126519952D01*
X107131736Y-126524336D01*
X106914534Y-126643744D01*
X106865171Y-126677543D01*
X106815352Y-126710643D01*
X106808252Y-126716517D01*
X106618379Y-126875839D01*
X106576516Y-126918588D01*
X106534082Y-126960727D01*
X106528258Y-126967868D01*
X106372947Y-127161035D01*
X106340186Y-127211099D01*
X106306740Y-127260685D01*
X106302418Y-127268814D01*
X106302415Y-127268819D01*
X106302414Y-127268822D01*
X106187582Y-127488476D01*
X106165173Y-127543942D01*
X106141994Y-127599081D01*
X106139330Y-127607903D01*
X106069348Y-127845679D01*
X106058139Y-127904441D01*
X106046110Y-127963038D01*
X106045211Y-127972209D01*
X106022747Y-128219049D01*
X104800000Y-128219049D01*
X104800000Y-123210320D01*
X106062248Y-123210320D01*
X106065320Y-124174250D01*
X106224070Y-124333000D01*
X107823000Y-124333000D01*
X107823000Y-122734070D01*
X108077000Y-122734070D01*
X108077000Y-124333000D01*
X109675930Y-124333000D01*
X109834680Y-124174250D01*
X109837752Y-123210320D01*
X109825492Y-123085838D01*
X109789182Y-122966140D01*
X109730217Y-122855826D01*
X109650865Y-122759135D01*
X109554174Y-122679783D01*
X109443860Y-122620818D01*
X109324162Y-122584508D01*
X109199680Y-122572248D01*
X108235750Y-122575320D01*
X108077000Y-122734070D01*
X107823000Y-122734070D01*
X107664250Y-122575320D01*
X106700320Y-122572248D01*
X106575838Y-122584508D01*
X106456140Y-122620818D01*
X106345826Y-122679783D01*
X106249135Y-122759135D01*
X106169783Y-122855826D01*
X106110818Y-122966140D01*
X106074508Y-123085838D01*
X106062248Y-123210320D01*
X104800000Y-123210320D01*
X104800000Y-107808665D01*
X106515000Y-107808665D01*
X106515000Y-108091335D01*
X106570147Y-108368574D01*
X106678320Y-108629727D01*
X106835363Y-108864759D01*
X107035241Y-109064637D01*
X107267759Y-109220000D01*
X107035241Y-109375363D01*
X106835363Y-109575241D01*
X106678320Y-109810273D01*
X106570147Y-110071426D01*
X106515000Y-110348665D01*
X106515000Y-110631335D01*
X106570147Y-110908574D01*
X106678320Y-111169727D01*
X106835363Y-111404759D01*
X107035241Y-111604637D01*
X107267759Y-111760000D01*
X107035241Y-111915363D01*
X106835363Y-112115241D01*
X106678320Y-112350273D01*
X106570147Y-112611426D01*
X106515000Y-112888665D01*
X106515000Y-113171335D01*
X106570147Y-113448574D01*
X106678320Y-113709727D01*
X106835363Y-113944759D01*
X107035241Y-114144637D01*
X107267759Y-114300000D01*
X107035241Y-114455363D01*
X106835363Y-114655241D01*
X106678320Y-114890273D01*
X106570147Y-115151426D01*
X106515000Y-115428665D01*
X106515000Y-115711335D01*
X106570147Y-115988574D01*
X106678320Y-116249727D01*
X106835363Y-116484759D01*
X107035241Y-116684637D01*
X107267759Y-116840000D01*
X107035241Y-116995363D01*
X106835363Y-117195241D01*
X106678320Y-117430273D01*
X106570147Y-117691426D01*
X106515000Y-117968665D01*
X106515000Y-118251335D01*
X106570147Y-118528574D01*
X106678320Y-118789727D01*
X106835363Y-119024759D01*
X107035241Y-119224637D01*
X107267759Y-119380000D01*
X107035241Y-119535363D01*
X106835363Y-119735241D01*
X106678320Y-119970273D01*
X106570147Y-120231426D01*
X106515000Y-120508665D01*
X106515000Y-120791335D01*
X106570147Y-121068574D01*
X106678320Y-121329727D01*
X106835363Y-121564759D01*
X107035241Y-121764637D01*
X107270273Y-121921680D01*
X107531426Y-122029853D01*
X107808665Y-122085000D01*
X108091335Y-122085000D01*
X108368574Y-122029853D01*
X108629727Y-121921680D01*
X108864759Y-121764637D01*
X109064637Y-121564759D01*
X109221680Y-121329727D01*
X109329853Y-121068574D01*
X109385000Y-120791335D01*
X109385000Y-120508665D01*
X109329853Y-120231426D01*
X109221680Y-119970273D01*
X109141317Y-119850000D01*
X114131928Y-119850000D01*
X114131928Y-121450000D01*
X114144188Y-121574482D01*
X114180498Y-121694180D01*
X114239463Y-121804494D01*
X114318815Y-121901185D01*
X114415506Y-121980537D01*
X114525820Y-122039502D01*
X114645518Y-122075812D01*
X114770000Y-122088072D01*
X116370000Y-122088072D01*
X116494482Y-122075812D01*
X116614180Y-122039502D01*
X116724494Y-121980537D01*
X116821185Y-121901185D01*
X116900537Y-121804494D01*
X116959502Y-121694180D01*
X116995812Y-121574482D01*
X117008072Y-121450000D01*
X117008072Y-119850000D01*
X116995812Y-119725518D01*
X116959502Y-119605820D01*
X116900537Y-119495506D01*
X116821185Y-119398815D01*
X116724494Y-119319463D01*
X116614180Y-119260498D01*
X116494482Y-119224188D01*
X116486039Y-119223357D01*
X116684637Y-119024759D01*
X116841680Y-118789727D01*
X116949853Y-118528574D01*
X117005000Y-118251335D01*
X117005000Y-118130320D01*
X125112248Y-118130320D01*
X125112248Y-120629680D01*
X125124508Y-120754162D01*
X125160818Y-120873860D01*
X125219783Y-120984174D01*
X125299135Y-121080865D01*
X125395826Y-121160217D01*
X125506140Y-121219182D01*
X125625838Y-121255492D01*
X125750320Y-121267752D01*
X128249680Y-121267752D01*
X128374162Y-121255492D01*
X128493860Y-121219182D01*
X128604174Y-121160217D01*
X128700865Y-121080865D01*
X128780217Y-120984174D01*
X128839182Y-120873860D01*
X128875492Y-120754162D01*
X128881478Y-120693377D01*
X129676229Y-120693377D01*
X129802104Y-120983315D01*
X130134262Y-121149139D01*
X130492387Y-121246975D01*
X130862719Y-121273065D01*
X131231025Y-121226405D01*
X131583151Y-121108789D01*
X131817896Y-120983315D01*
X131943771Y-120693377D01*
X130810000Y-119559605D01*
X129676229Y-120693377D01*
X128881478Y-120693377D01*
X128887752Y-120629680D01*
X128887752Y-119432719D01*
X128916935Y-119432719D01*
X128963595Y-119801025D01*
X129081211Y-120153151D01*
X129206685Y-120387896D01*
X129496623Y-120513771D01*
X130630395Y-119380000D01*
X130989605Y-119380000D01*
X132123377Y-120513771D01*
X132413315Y-120387896D01*
X132579139Y-120055738D01*
X132676975Y-119697613D01*
X132703065Y-119327281D01*
X132656405Y-118958975D01*
X132538789Y-118606849D01*
X132413315Y-118372104D01*
X132123377Y-118246229D01*
X130989605Y-119380000D01*
X130630395Y-119380000D01*
X129496623Y-118246229D01*
X129206685Y-118372104D01*
X129040861Y-118704262D01*
X128943025Y-119062387D01*
X128916935Y-119432719D01*
X128887752Y-119432719D01*
X128887752Y-118130320D01*
X128881479Y-118066623D01*
X129676229Y-118066623D01*
X130810000Y-119200395D01*
X131943771Y-118066623D01*
X131817896Y-117776685D01*
X131485738Y-117610861D01*
X131127613Y-117513025D01*
X130757281Y-117486935D01*
X130388975Y-117533595D01*
X130036849Y-117651211D01*
X129802104Y-117776685D01*
X129676229Y-118066623D01*
X128881479Y-118066623D01*
X128875492Y-118005838D01*
X128839182Y-117886140D01*
X128780217Y-117775826D01*
X128700865Y-117679135D01*
X128604174Y-117599783D01*
X128493860Y-117540818D01*
X128374162Y-117504508D01*
X128249680Y-117492248D01*
X125750320Y-117492248D01*
X125625838Y-117504508D01*
X125506140Y-117540818D01*
X125395826Y-117599783D01*
X125299135Y-117679135D01*
X125219783Y-117775826D01*
X125160818Y-117886140D01*
X125124508Y-118005838D01*
X125112248Y-118130320D01*
X117005000Y-118130320D01*
X117005000Y-117968665D01*
X116949853Y-117691426D01*
X116841680Y-117430273D01*
X116684637Y-117195241D01*
X116484759Y-116995363D01*
X116252241Y-116840000D01*
X116484759Y-116684637D01*
X116684637Y-116484759D01*
X116841680Y-116249727D01*
X116949853Y-115988574D01*
X117005000Y-115711335D01*
X117005000Y-115428665D01*
X116949853Y-115151426D01*
X116841680Y-114890273D01*
X116684637Y-114655241D01*
X116484759Y-114455363D01*
X116252241Y-114300000D01*
X116484759Y-114144637D01*
X116684637Y-113944759D01*
X116841680Y-113709727D01*
X116949853Y-113448574D01*
X117005000Y-113171335D01*
X117005000Y-112888665D01*
X116949853Y-112611426D01*
X116841680Y-112350273D01*
X116684637Y-112115241D01*
X116484759Y-111915363D01*
X116252241Y-111760000D01*
X116484759Y-111604637D01*
X116684637Y-111404759D01*
X116841680Y-111169727D01*
X116949853Y-110908574D01*
X117005000Y-110631335D01*
X117005000Y-110348665D01*
X116949853Y-110071426D01*
X116841680Y-109810273D01*
X116684637Y-109575241D01*
X116484759Y-109375363D01*
X116252241Y-109220000D01*
X116484759Y-109064637D01*
X116684637Y-108864759D01*
X116841680Y-108629727D01*
X116949853Y-108368574D01*
X117005000Y-108091335D01*
X117005000Y-107808665D01*
X117945000Y-107808665D01*
X117945000Y-108091335D01*
X118000147Y-108368574D01*
X118108320Y-108629727D01*
X118265363Y-108864759D01*
X118465241Y-109064637D01*
X118700273Y-109221680D01*
X118961426Y-109329853D01*
X119238665Y-109385000D01*
X119521335Y-109385000D01*
X119798574Y-109329853D01*
X120059727Y-109221680D01*
X120294759Y-109064637D01*
X120416694Y-108942702D01*
X121066903Y-108942702D01*
X121138486Y-109186671D01*
X121393996Y-109307571D01*
X121668184Y-109376300D01*
X121950512Y-109390217D01*
X122230130Y-109348787D01*
X122496292Y-109253603D01*
X122621514Y-109186671D01*
X122693097Y-108942702D01*
X121880000Y-108129605D01*
X121066903Y-108942702D01*
X120416694Y-108942702D01*
X120494637Y-108864759D01*
X120628692Y-108664131D01*
X120643329Y-108691514D01*
X120887298Y-108763097D01*
X121700395Y-107950000D01*
X122059605Y-107950000D01*
X122872702Y-108763097D01*
X123116671Y-108691514D01*
X123237571Y-108436004D01*
X123306300Y-108161816D01*
X123320217Y-107879488D01*
X123278787Y-107599870D01*
X123183603Y-107333708D01*
X123116671Y-107208486D01*
X122872702Y-107136903D01*
X122059605Y-107950000D01*
X121700395Y-107950000D01*
X120887298Y-107136903D01*
X120643329Y-107208486D01*
X120629676Y-107237341D01*
X120494637Y-107035241D01*
X120416694Y-106957298D01*
X121066903Y-106957298D01*
X121880000Y-107770395D01*
X122693097Y-106957298D01*
X122621514Y-106713329D01*
X122366004Y-106592429D01*
X122091816Y-106523700D01*
X121809488Y-106509783D01*
X121529870Y-106551213D01*
X121263708Y-106646397D01*
X121138486Y-106713329D01*
X121066903Y-106957298D01*
X120416694Y-106957298D01*
X120294759Y-106835363D01*
X120059727Y-106678320D01*
X119798574Y-106570147D01*
X119521335Y-106515000D01*
X119238665Y-106515000D01*
X118961426Y-106570147D01*
X118700273Y-106678320D01*
X118465241Y-106835363D01*
X118265363Y-107035241D01*
X118108320Y-107270273D01*
X118000147Y-107531426D01*
X117945000Y-107808665D01*
X117005000Y-107808665D01*
X116949853Y-107531426D01*
X116841680Y-107270273D01*
X116684637Y-107035241D01*
X116484759Y-106835363D01*
X116252241Y-106680000D01*
X116484759Y-106524637D01*
X116684637Y-106324759D01*
X116841680Y-106089727D01*
X116949853Y-105828574D01*
X117005000Y-105551335D01*
X117005000Y-105268665D01*
X116949853Y-104991426D01*
X116841680Y-104730273D01*
X116684637Y-104495241D01*
X116484759Y-104295363D01*
X116249727Y-104138320D01*
X116239135Y-104133933D01*
X116425131Y-104022385D01*
X116633519Y-103833414D01*
X116801037Y-103607420D01*
X116921246Y-103353087D01*
X116961904Y-103219039D01*
X116839915Y-102997000D01*
X115697000Y-102997000D01*
X115697000Y-103017000D01*
X115443000Y-103017000D01*
X115443000Y-102997000D01*
X114300085Y-102997000D01*
X114178096Y-103219039D01*
X114218754Y-103353087D01*
X114338963Y-103607420D01*
X114506481Y-103833414D01*
X114714869Y-104022385D01*
X114900865Y-104133933D01*
X114890273Y-104138320D01*
X114655241Y-104295363D01*
X114455363Y-104495241D01*
X114298320Y-104730273D01*
X114190147Y-104991426D01*
X114135000Y-105268665D01*
X114135000Y-105551335D01*
X114190147Y-105828574D01*
X114298320Y-106089727D01*
X114455363Y-106324759D01*
X114655241Y-106524637D01*
X114887759Y-106680000D01*
X114655241Y-106835363D01*
X114455363Y-107035241D01*
X114298320Y-107270273D01*
X114190147Y-107531426D01*
X114135000Y-107808665D01*
X114135000Y-108091335D01*
X114190147Y-108368574D01*
X114298320Y-108629727D01*
X114455363Y-108864759D01*
X114655241Y-109064637D01*
X114887759Y-109220000D01*
X114655241Y-109375363D01*
X114455363Y-109575241D01*
X114298320Y-109810273D01*
X114190147Y-110071426D01*
X114135000Y-110348665D01*
X114135000Y-110631335D01*
X114190147Y-110908574D01*
X114298320Y-111169727D01*
X114455363Y-111404759D01*
X114655241Y-111604637D01*
X114887759Y-111760000D01*
X114655241Y-111915363D01*
X114455363Y-112115241D01*
X114298320Y-112350273D01*
X114190147Y-112611426D01*
X114135000Y-112888665D01*
X114135000Y-113171335D01*
X114190147Y-113448574D01*
X114298320Y-113709727D01*
X114455363Y-113944759D01*
X114655241Y-114144637D01*
X114887759Y-114300000D01*
X114655241Y-114455363D01*
X114455363Y-114655241D01*
X114298320Y-114890273D01*
X114190147Y-115151426D01*
X114135000Y-115428665D01*
X114135000Y-115711335D01*
X114190147Y-115988574D01*
X114298320Y-116249727D01*
X114455363Y-116484759D01*
X114655241Y-116684637D01*
X114887759Y-116840000D01*
X114655241Y-116995363D01*
X114455363Y-117195241D01*
X114298320Y-117430273D01*
X114190147Y-117691426D01*
X114135000Y-117968665D01*
X114135000Y-118251335D01*
X114190147Y-118528574D01*
X114298320Y-118789727D01*
X114455363Y-119024759D01*
X114653961Y-119223357D01*
X114645518Y-119224188D01*
X114525820Y-119260498D01*
X114415506Y-119319463D01*
X114318815Y-119398815D01*
X114239463Y-119495506D01*
X114180498Y-119605820D01*
X114144188Y-119725518D01*
X114131928Y-119850000D01*
X109141317Y-119850000D01*
X109064637Y-119735241D01*
X108864759Y-119535363D01*
X108632241Y-119380000D01*
X108864759Y-119224637D01*
X109064637Y-119024759D01*
X109221680Y-118789727D01*
X109329853Y-118528574D01*
X109385000Y-118251335D01*
X109385000Y-117968665D01*
X109329853Y-117691426D01*
X109221680Y-117430273D01*
X109064637Y-117195241D01*
X108864759Y-116995363D01*
X108632241Y-116840000D01*
X108864759Y-116684637D01*
X109064637Y-116484759D01*
X109221680Y-116249727D01*
X109329853Y-115988574D01*
X109385000Y-115711335D01*
X109385000Y-115428665D01*
X109329853Y-115151426D01*
X109221680Y-114890273D01*
X109064637Y-114655241D01*
X108864759Y-114455363D01*
X108632241Y-114300000D01*
X108864759Y-114144637D01*
X109064637Y-113944759D01*
X109221680Y-113709727D01*
X109329853Y-113448574D01*
X109385000Y-113171335D01*
X109385000Y-112888665D01*
X109329853Y-112611426D01*
X109221680Y-112350273D01*
X109064637Y-112115241D01*
X108864759Y-111915363D01*
X108632241Y-111760000D01*
X108864759Y-111604637D01*
X109064637Y-111404759D01*
X109221680Y-111169727D01*
X109329853Y-110908574D01*
X109385000Y-110631335D01*
X109385000Y-110348665D01*
X109329853Y-110071426D01*
X109221680Y-109810273D01*
X109064637Y-109575241D01*
X108864759Y-109375363D01*
X108632241Y-109220000D01*
X108864759Y-109064637D01*
X109064637Y-108864759D01*
X109221680Y-108629727D01*
X109329853Y-108368574D01*
X109385000Y-108091335D01*
X109385000Y-107808665D01*
X109329853Y-107531426D01*
X109221680Y-107270273D01*
X109064637Y-107035241D01*
X108864759Y-106835363D01*
X108629727Y-106678320D01*
X108619135Y-106673933D01*
X108805131Y-106562385D01*
X109013519Y-106373414D01*
X109181037Y-106147420D01*
X109301246Y-105893087D01*
X109341904Y-105759039D01*
X109219915Y-105537000D01*
X108077000Y-105537000D01*
X108077000Y-105557000D01*
X107823000Y-105557000D01*
X107823000Y-105537000D01*
X106680085Y-105537000D01*
X106558096Y-105759039D01*
X106598754Y-105893087D01*
X106718963Y-106147420D01*
X106886481Y-106373414D01*
X107094869Y-106562385D01*
X107280865Y-106673933D01*
X107270273Y-106678320D01*
X107035241Y-106835363D01*
X106835363Y-107035241D01*
X106678320Y-107270273D01*
X106570147Y-107531426D01*
X106515000Y-107808665D01*
X104800000Y-107808665D01*
X104800000Y-95785512D01*
X106539580Y-97525093D01*
X106515000Y-97648665D01*
X106515000Y-97931335D01*
X106570147Y-98208574D01*
X106678320Y-98469727D01*
X106835363Y-98704759D01*
X107035241Y-98904637D01*
X107267759Y-99060000D01*
X107035241Y-99215363D01*
X106835363Y-99415241D01*
X106678320Y-99650273D01*
X106570147Y-99911426D01*
X106515000Y-100188665D01*
X106515000Y-100471335D01*
X106570147Y-100748574D01*
X106678320Y-101009727D01*
X106835363Y-101244759D01*
X107035241Y-101444637D01*
X107267759Y-101600000D01*
X107035241Y-101755363D01*
X106835363Y-101955241D01*
X106678320Y-102190273D01*
X106570147Y-102451426D01*
X106515000Y-102728665D01*
X106515000Y-103011335D01*
X106570147Y-103288574D01*
X106678320Y-103549727D01*
X106835363Y-103784759D01*
X107035241Y-103984637D01*
X107270273Y-104141680D01*
X107280865Y-104146067D01*
X107094869Y-104257615D01*
X106886481Y-104446586D01*
X106718963Y-104672580D01*
X106598754Y-104926913D01*
X106558096Y-105060961D01*
X106680085Y-105283000D01*
X107823000Y-105283000D01*
X107823000Y-105263000D01*
X108077000Y-105263000D01*
X108077000Y-105283000D01*
X109219915Y-105283000D01*
X109341904Y-105060961D01*
X109301246Y-104926913D01*
X109181037Y-104672580D01*
X109013519Y-104446586D01*
X108805131Y-104257615D01*
X108619135Y-104146067D01*
X108629727Y-104141680D01*
X108864759Y-103984637D01*
X109064637Y-103784759D01*
X109221680Y-103549727D01*
X109329853Y-103288574D01*
X109385000Y-103011335D01*
X109385000Y-102728665D01*
X109329853Y-102451426D01*
X109221680Y-102190273D01*
X109064637Y-101955241D01*
X108864759Y-101755363D01*
X108632241Y-101600000D01*
X108864759Y-101444637D01*
X109064637Y-101244759D01*
X109221680Y-101009727D01*
X109329853Y-100748574D01*
X109385000Y-100471335D01*
X109385000Y-100188665D01*
X109329853Y-99911426D01*
X109221680Y-99650273D01*
X109064637Y-99415241D01*
X108864759Y-99215363D01*
X108632241Y-99060000D01*
X108864759Y-98904637D01*
X109064637Y-98704759D01*
X109221680Y-98469727D01*
X109329853Y-98208574D01*
X109385000Y-97931335D01*
X109385000Y-97648665D01*
X109329853Y-97371426D01*
X109221680Y-97110273D01*
X109064637Y-96875241D01*
X108864759Y-96675363D01*
X108632241Y-96520000D01*
X108864759Y-96364637D01*
X109064637Y-96164759D01*
X109221680Y-95929727D01*
X109329853Y-95668574D01*
X109385000Y-95391335D01*
X109385000Y-95108665D01*
X109329853Y-94831426D01*
X109221680Y-94570273D01*
X109064637Y-94335241D01*
X108864759Y-94135363D01*
X108632241Y-93980000D01*
X108864759Y-93824637D01*
X109064637Y-93624759D01*
X109221680Y-93389727D01*
X109329853Y-93128574D01*
X109385000Y-92851335D01*
X109385000Y-92568665D01*
X109329853Y-92291426D01*
X109221680Y-92030273D01*
X109064637Y-91795241D01*
X108864759Y-91595363D01*
X108632241Y-91440000D01*
X108864759Y-91284637D01*
X109064637Y-91084759D01*
X109221680Y-90849727D01*
X109329853Y-90588574D01*
X109385000Y-90311335D01*
X109385000Y-90028665D01*
X109329853Y-89751426D01*
X109221680Y-89490273D01*
X109064637Y-89255241D01*
X108864759Y-89055363D01*
X108632241Y-88900000D01*
X108864759Y-88744637D01*
X109064637Y-88544759D01*
X109221680Y-88309727D01*
X109329853Y-88048574D01*
X109385000Y-87771335D01*
X109385000Y-87488665D01*
X109360420Y-87365093D01*
X110825513Y-85900000D01*
X114716106Y-85900000D01*
X114766063Y-85974766D01*
X114910226Y-86118929D01*
X115079744Y-86232197D01*
X115137252Y-86256018D01*
X114890273Y-86358320D01*
X114655241Y-86515363D01*
X114455363Y-86715241D01*
X114298320Y-86950273D01*
X114190147Y-87211426D01*
X114135000Y-87488665D01*
X114135000Y-87771335D01*
X114190147Y-88048574D01*
X114298320Y-88309727D01*
X114455363Y-88544759D01*
X114655241Y-88744637D01*
X114887759Y-88900000D01*
X114655241Y-89055363D01*
X114455363Y-89255241D01*
X114298320Y-89490273D01*
X114190147Y-89751426D01*
X114135000Y-90028665D01*
X114135000Y-90311335D01*
X114190147Y-90588574D01*
X114298320Y-90849727D01*
X114455363Y-91084759D01*
X114655241Y-91284637D01*
X114887759Y-91440000D01*
X114655241Y-91595363D01*
X114455363Y-91795241D01*
X114298320Y-92030273D01*
X114190147Y-92291426D01*
X114135000Y-92568665D01*
X114135000Y-92851335D01*
X114190147Y-93128574D01*
X114298320Y-93389727D01*
X114455363Y-93624759D01*
X114655241Y-93824637D01*
X114887759Y-93980000D01*
X114655241Y-94135363D01*
X114455363Y-94335241D01*
X114298320Y-94570273D01*
X114190147Y-94831426D01*
X114135000Y-95108665D01*
X114135000Y-95391335D01*
X114190147Y-95668574D01*
X114298320Y-95929727D01*
X114455363Y-96164759D01*
X114655241Y-96364637D01*
X114887759Y-96520000D01*
X114655241Y-96675363D01*
X114455363Y-96875241D01*
X114298320Y-97110273D01*
X114190147Y-97371426D01*
X114135000Y-97648665D01*
X114135000Y-97931335D01*
X114190147Y-98208574D01*
X114298320Y-98469727D01*
X114455363Y-98704759D01*
X114655241Y-98904637D01*
X114887759Y-99060000D01*
X114655241Y-99215363D01*
X114455363Y-99415241D01*
X114298320Y-99650273D01*
X114190147Y-99911426D01*
X114135000Y-100188665D01*
X114135000Y-100471335D01*
X114190147Y-100748574D01*
X114298320Y-101009727D01*
X114455363Y-101244759D01*
X114655241Y-101444637D01*
X114890273Y-101601680D01*
X114900865Y-101606067D01*
X114714869Y-101717615D01*
X114506481Y-101906586D01*
X114338963Y-102132580D01*
X114218754Y-102386913D01*
X114178096Y-102520961D01*
X114300085Y-102743000D01*
X115443000Y-102743000D01*
X115443000Y-102723000D01*
X115697000Y-102723000D01*
X115697000Y-102743000D01*
X116839915Y-102743000D01*
X116943978Y-102553589D01*
X119265000Y-102553589D01*
X119265000Y-102826411D01*
X119318225Y-103093989D01*
X119422629Y-103346043D01*
X119574201Y-103572886D01*
X119767114Y-103765799D01*
X119993957Y-103917371D01*
X120246011Y-104021775D01*
X120513589Y-104075000D01*
X120786411Y-104075000D01*
X121053989Y-104021775D01*
X121306043Y-103917371D01*
X121532886Y-103765799D01*
X121725799Y-103572886D01*
X121877371Y-103346043D01*
X121981775Y-103093989D01*
X122035000Y-102826411D01*
X122035000Y-102728665D01*
X123025000Y-102728665D01*
X123025000Y-103011335D01*
X123080147Y-103288574D01*
X123188320Y-103549727D01*
X123345363Y-103784759D01*
X123545241Y-103984637D01*
X123780273Y-104141680D01*
X124041426Y-104249853D01*
X124318665Y-104305000D01*
X124601335Y-104305000D01*
X124878574Y-104249853D01*
X125139727Y-104141680D01*
X125374759Y-103984637D01*
X125496694Y-103862702D01*
X126146903Y-103862702D01*
X126218486Y-104106671D01*
X126473996Y-104227571D01*
X126748184Y-104296300D01*
X127030512Y-104310217D01*
X127310130Y-104268787D01*
X127576292Y-104173603D01*
X127701514Y-104106671D01*
X127773097Y-103862702D01*
X126960000Y-103049605D01*
X126146903Y-103862702D01*
X125496694Y-103862702D01*
X125574637Y-103784759D01*
X125708692Y-103584131D01*
X125723329Y-103611514D01*
X125967298Y-103683097D01*
X126780395Y-102870000D01*
X127139605Y-102870000D01*
X127952702Y-103683097D01*
X128196671Y-103611514D01*
X128317571Y-103356004D01*
X128386300Y-103081816D01*
X128400217Y-102799488D01*
X128358787Y-102519870D01*
X128263603Y-102253708D01*
X128196671Y-102128486D01*
X127952702Y-102056903D01*
X127139605Y-102870000D01*
X126780395Y-102870000D01*
X125967298Y-102056903D01*
X125723329Y-102128486D01*
X125709676Y-102157341D01*
X125574637Y-101955241D01*
X125496694Y-101877298D01*
X126146903Y-101877298D01*
X126960000Y-102690395D01*
X127773097Y-101877298D01*
X127701514Y-101633329D01*
X127446004Y-101512429D01*
X127171816Y-101443700D01*
X126889488Y-101429783D01*
X126609870Y-101471213D01*
X126343708Y-101566397D01*
X126218486Y-101633329D01*
X126146903Y-101877298D01*
X125496694Y-101877298D01*
X125374759Y-101755363D01*
X125139727Y-101598320D01*
X124878574Y-101490147D01*
X124601335Y-101435000D01*
X124318665Y-101435000D01*
X124041426Y-101490147D01*
X123780273Y-101598320D01*
X123545241Y-101755363D01*
X123345363Y-101955241D01*
X123188320Y-102190273D01*
X123080147Y-102451426D01*
X123025000Y-102728665D01*
X122035000Y-102728665D01*
X122035000Y-102553589D01*
X121981775Y-102286011D01*
X121877371Y-102033957D01*
X121725799Y-101807114D01*
X121532886Y-101614201D01*
X121306043Y-101462629D01*
X121053989Y-101358225D01*
X120786411Y-101305000D01*
X120513589Y-101305000D01*
X120246011Y-101358225D01*
X119993957Y-101462629D01*
X119767114Y-101614201D01*
X119574201Y-101807114D01*
X119422629Y-102033957D01*
X119318225Y-102286011D01*
X119265000Y-102553589D01*
X116943978Y-102553589D01*
X116961904Y-102520961D01*
X116921246Y-102386913D01*
X116801037Y-102132580D01*
X116633519Y-101906586D01*
X116425131Y-101717615D01*
X116239135Y-101606067D01*
X116249727Y-101601680D01*
X116484759Y-101444637D01*
X116684637Y-101244759D01*
X116841680Y-101009727D01*
X116949853Y-100748574D01*
X117005000Y-100471335D01*
X117005000Y-100188665D01*
X116949853Y-99911426D01*
X116841680Y-99650273D01*
X116684637Y-99415241D01*
X116484759Y-99215363D01*
X116252241Y-99060000D01*
X116484759Y-98904637D01*
X116684637Y-98704759D01*
X116841680Y-98469727D01*
X116949853Y-98208574D01*
X117005000Y-97931335D01*
X117005000Y-97653589D01*
X119265000Y-97653589D01*
X119265000Y-97926411D01*
X119318225Y-98193989D01*
X119422629Y-98446043D01*
X119574201Y-98672886D01*
X119767114Y-98865799D01*
X119993957Y-99017371D01*
X120246011Y-99121775D01*
X120513589Y-99175000D01*
X120786411Y-99175000D01*
X121053989Y-99121775D01*
X121306043Y-99017371D01*
X121532886Y-98865799D01*
X121725799Y-98672886D01*
X121877371Y-98446043D01*
X121981775Y-98193989D01*
X122035000Y-97926411D01*
X122035000Y-97653589D01*
X122034021Y-97648665D01*
X123025000Y-97648665D01*
X123025000Y-97931335D01*
X123080147Y-98208574D01*
X123188320Y-98469727D01*
X123345363Y-98704759D01*
X123545241Y-98904637D01*
X123780273Y-99061680D01*
X124041426Y-99169853D01*
X124318665Y-99225000D01*
X124601335Y-99225000D01*
X124878574Y-99169853D01*
X125139727Y-99061680D01*
X125374759Y-98904637D01*
X125496694Y-98782702D01*
X126146903Y-98782702D01*
X126218486Y-99026671D01*
X126473996Y-99147571D01*
X126748184Y-99216300D01*
X127030512Y-99230217D01*
X127310130Y-99188787D01*
X127576292Y-99093603D01*
X127701514Y-99026671D01*
X127773097Y-98782702D01*
X126960000Y-97969605D01*
X126146903Y-98782702D01*
X125496694Y-98782702D01*
X125574637Y-98704759D01*
X125708692Y-98504131D01*
X125723329Y-98531514D01*
X125967298Y-98603097D01*
X126780395Y-97790000D01*
X127139605Y-97790000D01*
X127952702Y-98603097D01*
X128196671Y-98531514D01*
X128317571Y-98276004D01*
X128386300Y-98001816D01*
X128400217Y-97719488D01*
X128358787Y-97439870D01*
X128263603Y-97173708D01*
X128196671Y-97048486D01*
X127952702Y-96976903D01*
X127139605Y-97790000D01*
X126780395Y-97790000D01*
X125967298Y-96976903D01*
X125723329Y-97048486D01*
X125709676Y-97077341D01*
X125574637Y-96875241D01*
X125496694Y-96797298D01*
X126146903Y-96797298D01*
X126960000Y-97610395D01*
X127773097Y-96797298D01*
X127701514Y-96553329D01*
X127446004Y-96432429D01*
X127171816Y-96363700D01*
X126889488Y-96349783D01*
X126609870Y-96391213D01*
X126343708Y-96486397D01*
X126218486Y-96553329D01*
X126146903Y-96797298D01*
X125496694Y-96797298D01*
X125374759Y-96675363D01*
X125139727Y-96518320D01*
X124878574Y-96410147D01*
X124601335Y-96355000D01*
X124318665Y-96355000D01*
X124041426Y-96410147D01*
X123780273Y-96518320D01*
X123545241Y-96675363D01*
X123345363Y-96875241D01*
X123188320Y-97110273D01*
X123080147Y-97371426D01*
X123025000Y-97648665D01*
X122034021Y-97648665D01*
X121981775Y-97386011D01*
X121877371Y-97133957D01*
X121725799Y-96907114D01*
X121532886Y-96714201D01*
X121306043Y-96562629D01*
X121053989Y-96458225D01*
X120786411Y-96405000D01*
X120513589Y-96405000D01*
X120246011Y-96458225D01*
X119993957Y-96562629D01*
X119767114Y-96714201D01*
X119574201Y-96907114D01*
X119422629Y-97133957D01*
X119318225Y-97386011D01*
X119265000Y-97653589D01*
X117005000Y-97653589D01*
X117005000Y-97648665D01*
X116949853Y-97371426D01*
X116841680Y-97110273D01*
X116684637Y-96875241D01*
X116484759Y-96675363D01*
X116252241Y-96520000D01*
X116484759Y-96364637D01*
X116684637Y-96164759D01*
X116841680Y-95929727D01*
X116949853Y-95668574D01*
X117005000Y-95391335D01*
X117005000Y-95108665D01*
X116977955Y-94972702D01*
X127496903Y-94972702D01*
X127568486Y-95216671D01*
X127823996Y-95337571D01*
X128098184Y-95406300D01*
X128380512Y-95420217D01*
X128660130Y-95378787D01*
X128926292Y-95283603D01*
X129051514Y-95216671D01*
X129123097Y-94972702D01*
X128310000Y-94159605D01*
X127496903Y-94972702D01*
X116977955Y-94972702D01*
X116949853Y-94831426D01*
X116841680Y-94570273D01*
X116684637Y-94335241D01*
X116484759Y-94135363D01*
X116252241Y-93980000D01*
X116484759Y-93824637D01*
X116684637Y-93624759D01*
X116841680Y-93389727D01*
X116949853Y-93128574D01*
X117005000Y-92851335D01*
X117005000Y-92568665D01*
X116949853Y-92291426D01*
X116841680Y-92030273D01*
X116684637Y-91795241D01*
X116484759Y-91595363D01*
X116252241Y-91440000D01*
X116484759Y-91284637D01*
X116684637Y-91084759D01*
X116841680Y-90849727D01*
X116949853Y-90588574D01*
X117005000Y-90311335D01*
X117005000Y-90028665D01*
X116949853Y-89751426D01*
X116841680Y-89490273D01*
X116684637Y-89255241D01*
X116484759Y-89055363D01*
X116252241Y-88900000D01*
X116484759Y-88744637D01*
X116684637Y-88544759D01*
X116841680Y-88309727D01*
X116949853Y-88048574D01*
X117005000Y-87771335D01*
X117005000Y-87488665D01*
X116949853Y-87211426D01*
X116841680Y-86950273D01*
X116684637Y-86715241D01*
X116484759Y-86515363D01*
X116249727Y-86358320D01*
X116002748Y-86256018D01*
X116060256Y-86232197D01*
X116229774Y-86118929D01*
X116373937Y-85974766D01*
X116456176Y-85851687D01*
X117300000Y-86695512D01*
X117300001Y-90908033D01*
X117296081Y-90947831D01*
X117311721Y-91106618D01*
X117358038Y-91259304D01*
X117433251Y-91400020D01*
X117467441Y-91441680D01*
X117534473Y-91523359D01*
X117565383Y-91548726D01*
X119821284Y-93804628D01*
X119846651Y-93835538D01*
X119905975Y-93884224D01*
X119969989Y-93936759D01*
X120045203Y-93976961D01*
X120110706Y-94011973D01*
X120263391Y-94058290D01*
X120382388Y-94070010D01*
X120382391Y-94070010D01*
X120422179Y-94073929D01*
X120461967Y-94070010D01*
X125140202Y-94070010D01*
X125179990Y-94073929D01*
X125219778Y-94070010D01*
X125219781Y-94070010D01*
X125338778Y-94058290D01*
X125364418Y-94050512D01*
X126869783Y-94050512D01*
X126911213Y-94330130D01*
X127006397Y-94596292D01*
X127073329Y-94721514D01*
X127317298Y-94793097D01*
X128130395Y-93980000D01*
X128489605Y-93980000D01*
X129302702Y-94793097D01*
X129546671Y-94721514D01*
X129560324Y-94692659D01*
X129695363Y-94894759D01*
X129895241Y-95094637D01*
X130130273Y-95251680D01*
X130391426Y-95359853D01*
X130668665Y-95415000D01*
X130951335Y-95415000D01*
X131228574Y-95359853D01*
X131489727Y-95251680D01*
X131724759Y-95094637D01*
X131924637Y-94894759D01*
X132081680Y-94659727D01*
X132189853Y-94398574D01*
X132245000Y-94121335D01*
X132245000Y-93838665D01*
X132189853Y-93561426D01*
X132081680Y-93300273D01*
X131924637Y-93065241D01*
X131724759Y-92865363D01*
X131489727Y-92708320D01*
X131228574Y-92600147D01*
X130951335Y-92545000D01*
X130668665Y-92545000D01*
X130391426Y-92600147D01*
X130130273Y-92708320D01*
X129895241Y-92865363D01*
X129695363Y-93065241D01*
X129561308Y-93265869D01*
X129546671Y-93238486D01*
X129302702Y-93166903D01*
X128489605Y-93980000D01*
X128130395Y-93980000D01*
X127317298Y-93166903D01*
X127073329Y-93238486D01*
X126952429Y-93493996D01*
X126883700Y-93768184D01*
X126869783Y-94050512D01*
X125364418Y-94050512D01*
X125491463Y-94011973D01*
X125632179Y-93936759D01*
X125755518Y-93835538D01*
X125780889Y-93804623D01*
X126598214Y-92987298D01*
X127496903Y-92987298D01*
X128310000Y-93800395D01*
X129123097Y-92987298D01*
X129051514Y-92743329D01*
X128796004Y-92622429D01*
X128521816Y-92553700D01*
X128239488Y-92539783D01*
X127959870Y-92581213D01*
X127693708Y-92676397D01*
X127568486Y-92743329D01*
X127496903Y-92987298D01*
X126598214Y-92987298D01*
X128037409Y-91548104D01*
X128132408Y-91567000D01*
X128407592Y-91567000D01*
X128677490Y-91513314D01*
X128931727Y-91408005D01*
X129160535Y-91255120D01*
X129355120Y-91060535D01*
X129508005Y-90831727D01*
X129540000Y-90754485D01*
X129571995Y-90831727D01*
X129724880Y-91060535D01*
X129919465Y-91255120D01*
X130148273Y-91408005D01*
X130402510Y-91513314D01*
X130672408Y-91567000D01*
X130947592Y-91567000D01*
X131217490Y-91513314D01*
X131471727Y-91408005D01*
X131700535Y-91255120D01*
X131895120Y-91060535D01*
X132048005Y-90831727D01*
X132153314Y-90577490D01*
X132207000Y-90307592D01*
X132207000Y-90032408D01*
X132153314Y-89762510D01*
X132048005Y-89508273D01*
X131895120Y-89279465D01*
X131700535Y-89084880D01*
X131612535Y-89026080D01*
X131696482Y-89017812D01*
X131816180Y-88981502D01*
X131926494Y-88922537D01*
X132023185Y-88843185D01*
X132102537Y-88746494D01*
X132161502Y-88636180D01*
X132197812Y-88516482D01*
X132210072Y-88392000D01*
X132207000Y-87915750D01*
X132048250Y-87757000D01*
X130937000Y-87757000D01*
X130937000Y-87777000D01*
X130683000Y-87777000D01*
X130683000Y-87757000D01*
X130663000Y-87757000D01*
X130663000Y-87503000D01*
X130683000Y-87503000D01*
X130683000Y-86391750D01*
X130937000Y-86391750D01*
X130937000Y-87503000D01*
X132048250Y-87503000D01*
X132207000Y-87344250D01*
X132210072Y-86868000D01*
X132197812Y-86743518D01*
X132161502Y-86623820D01*
X132102537Y-86513506D01*
X132023185Y-86416815D01*
X131926494Y-86337463D01*
X131816180Y-86278498D01*
X131696482Y-86242188D01*
X131572000Y-86229928D01*
X131095750Y-86233000D01*
X130937000Y-86391750D01*
X130683000Y-86391750D01*
X130524250Y-86233000D01*
X130048000Y-86229928D01*
X129923518Y-86242188D01*
X129803820Y-86278498D01*
X129693506Y-86337463D01*
X129596815Y-86416815D01*
X129517463Y-86513506D01*
X129458498Y-86623820D01*
X129422188Y-86743518D01*
X129413920Y-86827465D01*
X129355120Y-86739465D01*
X129160535Y-86544880D01*
X128931727Y-86391995D01*
X128677490Y-86286686D01*
X128407592Y-86233000D01*
X128132408Y-86233000D01*
X127862510Y-86286686D01*
X127608273Y-86391995D01*
X127379465Y-86544880D01*
X127184880Y-86739465D01*
X127031995Y-86968273D01*
X127000000Y-87045515D01*
X126968005Y-86968273D01*
X126815120Y-86739465D01*
X126620535Y-86544880D01*
X126391727Y-86391995D01*
X126137490Y-86286686D01*
X125867592Y-86233000D01*
X125592408Y-86233000D01*
X125497409Y-86251896D01*
X123790900Y-84545387D01*
X123765528Y-84514472D01*
X123642189Y-84413251D01*
X123501473Y-84338037D01*
X123348788Y-84291720D01*
X123229791Y-84280000D01*
X123229788Y-84280000D01*
X123190000Y-84276081D01*
X123150212Y-84280000D01*
X119715513Y-84280000D01*
X117780861Y-82345349D01*
X117755490Y-82314434D01*
X117632151Y-82213213D01*
X117491435Y-82137999D01*
X117338750Y-82091682D01*
X117219753Y-82079962D01*
X117219750Y-82079962D01*
X117179962Y-82076043D01*
X117140174Y-82079962D01*
X114221342Y-82079962D01*
X114301680Y-81959727D01*
X114409853Y-81698574D01*
X114465000Y-81421335D01*
X114465000Y-81138665D01*
X121755000Y-81138665D01*
X121755000Y-81421335D01*
X121810147Y-81698574D01*
X121918320Y-81959727D01*
X122075363Y-82194759D01*
X122275241Y-82394637D01*
X122510273Y-82551680D01*
X122771426Y-82659853D01*
X123048665Y-82715000D01*
X123331335Y-82715000D01*
X123608574Y-82659853D01*
X123869727Y-82551680D01*
X124104759Y-82394637D01*
X124304637Y-82194759D01*
X124461680Y-81959727D01*
X124569853Y-81698574D01*
X124625000Y-81421335D01*
X124625000Y-81138665D01*
X124569853Y-80861426D01*
X124461680Y-80600273D01*
X124304637Y-80365241D01*
X124104759Y-80165363D01*
X123869727Y-80008320D01*
X123608574Y-79900147D01*
X123331335Y-79845000D01*
X123048665Y-79845000D01*
X122771426Y-79900147D01*
X122510273Y-80008320D01*
X122275241Y-80165363D01*
X122075363Y-80365241D01*
X121918320Y-80600273D01*
X121810147Y-80861426D01*
X121755000Y-81138665D01*
X114465000Y-81138665D01*
X114409853Y-80861426D01*
X114301680Y-80600273D01*
X114144637Y-80365241D01*
X113944759Y-80165363D01*
X113709727Y-80008320D01*
X113448574Y-79900147D01*
X113171335Y-79845000D01*
X112888665Y-79845000D01*
X112611426Y-79900147D01*
X112350273Y-80008320D01*
X112115241Y-80165363D01*
X111915363Y-80365241D01*
X111758320Y-80600273D01*
X111650147Y-80861426D01*
X111595000Y-81138665D01*
X111595000Y-81421335D01*
X111650147Y-81698574D01*
X111758320Y-81959727D01*
X111838658Y-82079962D01*
X108657334Y-82079962D01*
X108617543Y-82076043D01*
X108458755Y-82091682D01*
X108306069Y-82137999D01*
X108199879Y-82194759D01*
X108165354Y-82213213D01*
X108042015Y-82314434D01*
X108016648Y-82345344D01*
X104800000Y-85561993D01*
X104800000Y-73518665D01*
X111595000Y-73518665D01*
X111595000Y-73801335D01*
X111650147Y-74078574D01*
X111758320Y-74339727D01*
X111915363Y-74574759D01*
X112115241Y-74774637D01*
X112350273Y-74931680D01*
X112611426Y-75039853D01*
X112888665Y-75095000D01*
X113171335Y-75095000D01*
X113448574Y-75039853D01*
X113709727Y-74931680D01*
X113944759Y-74774637D01*
X114144637Y-74574759D01*
X114301680Y-74339727D01*
X114409853Y-74078574D01*
X114465000Y-73801335D01*
X114465000Y-73518665D01*
X121755000Y-73518665D01*
X121755000Y-73801335D01*
X121810147Y-74078574D01*
X121918320Y-74339727D01*
X122075363Y-74574759D01*
X122275241Y-74774637D01*
X122510273Y-74931680D01*
X122771426Y-75039853D01*
X123048665Y-75095000D01*
X123331335Y-75095000D01*
X123608574Y-75039853D01*
X123869727Y-74931680D01*
X124104759Y-74774637D01*
X124304637Y-74574759D01*
X124461680Y-74339727D01*
X124569853Y-74078574D01*
X124625000Y-73801335D01*
X124625000Y-73518665D01*
X124569853Y-73241426D01*
X124461680Y-72980273D01*
X124304637Y-72745241D01*
X124258810Y-72699414D01*
X124510911Y-72612314D01*
X124684742Y-72519399D01*
X124780445Y-72255050D01*
X123825000Y-71299605D01*
X122869555Y-72255050D01*
X122871439Y-72260253D01*
X122771426Y-72280147D01*
X122510273Y-72388320D01*
X122275241Y-72545363D01*
X122075363Y-72745241D01*
X121918320Y-72980273D01*
X121810147Y-73241426D01*
X121755000Y-73518665D01*
X114465000Y-73518665D01*
X114409853Y-73241426D01*
X114301680Y-72980273D01*
X114152870Y-72757562D01*
X115299490Y-72757562D01*
X115423972Y-72745302D01*
X115543670Y-72708992D01*
X115653984Y-72650027D01*
X115750675Y-72570675D01*
X115830027Y-72473984D01*
X115888992Y-72363670D01*
X115925302Y-72243972D01*
X115937562Y-72119490D01*
X115937562Y-71679426D01*
X116026533Y-71894222D01*
X116205408Y-72161927D01*
X116433073Y-72389592D01*
X116700778Y-72568467D01*
X116998237Y-72691678D01*
X117314017Y-72754490D01*
X117635983Y-72754490D01*
X117951763Y-72691678D01*
X118249222Y-72568467D01*
X118516927Y-72389592D01*
X118744592Y-72161927D01*
X118923467Y-71894222D01*
X119046678Y-71596763D01*
X119062500Y-71517220D01*
X119078322Y-71596763D01*
X119201533Y-71894222D01*
X119380408Y-72161927D01*
X119608073Y-72389592D01*
X119875778Y-72568467D01*
X120173237Y-72691678D01*
X120489017Y-72754490D01*
X120810983Y-72754490D01*
X121126763Y-72691678D01*
X121424222Y-72568467D01*
X121691927Y-72389592D01*
X121919592Y-72161927D01*
X122098467Y-71894222D01*
X122221678Y-71596763D01*
X122235835Y-71525588D01*
X122332686Y-71805911D01*
X122425601Y-71979742D01*
X122689950Y-72075445D01*
X123645395Y-71120000D01*
X124004605Y-71120000D01*
X124960050Y-72075445D01*
X125224399Y-71979742D01*
X125365238Y-71690213D01*
X125446885Y-71378771D01*
X125466205Y-71057385D01*
X125422454Y-70738405D01*
X125317314Y-70434089D01*
X125224399Y-70260258D01*
X124960050Y-70164555D01*
X124004605Y-71120000D01*
X123645395Y-71120000D01*
X122689950Y-70164555D01*
X122425601Y-70260258D01*
X122284762Y-70549787D01*
X122238324Y-70726924D01*
X122221678Y-70643237D01*
X122098467Y-70345778D01*
X121919592Y-70078073D01*
X121826469Y-69984950D01*
X122869555Y-69984950D01*
X123825000Y-70940395D01*
X124780445Y-69984950D01*
X124684742Y-69720601D01*
X124395213Y-69579762D01*
X124083771Y-69498115D01*
X123762385Y-69478795D01*
X123443405Y-69522546D01*
X123139089Y-69627686D01*
X122965258Y-69720601D01*
X122869555Y-69984950D01*
X121826469Y-69984950D01*
X121691927Y-69850408D01*
X121424222Y-69671533D01*
X121126763Y-69548322D01*
X120810983Y-69485510D01*
X120489017Y-69485510D01*
X120173237Y-69548322D01*
X119875778Y-69671533D01*
X119608073Y-69850408D01*
X119380408Y-70078073D01*
X119201533Y-70345778D01*
X119078322Y-70643237D01*
X119062500Y-70722780D01*
X119046678Y-70643237D01*
X118923467Y-70345778D01*
X118744592Y-70078073D01*
X118516927Y-69850408D01*
X118249222Y-69671533D01*
X117951763Y-69548322D01*
X117635983Y-69485510D01*
X117314017Y-69485510D01*
X116998237Y-69548322D01*
X116700778Y-69671533D01*
X116433073Y-69850408D01*
X116205408Y-70078073D01*
X116026533Y-70345778D01*
X115937562Y-70560574D01*
X115937562Y-70120510D01*
X115925302Y-69996028D01*
X115888992Y-69876330D01*
X115830027Y-69766016D01*
X115750675Y-69669325D01*
X115653984Y-69589973D01*
X115543670Y-69531008D01*
X115423972Y-69494698D01*
X115299490Y-69482438D01*
X113300510Y-69482438D01*
X113176028Y-69494698D01*
X113056330Y-69531008D01*
X112946016Y-69589973D01*
X112849325Y-69669325D01*
X112769973Y-69766016D01*
X112711008Y-69876330D01*
X112674698Y-69996028D01*
X112662438Y-70120510D01*
X112662438Y-72119490D01*
X112674698Y-72243972D01*
X112681447Y-72266219D01*
X112611426Y-72280147D01*
X112350273Y-72388320D01*
X112115241Y-72545363D01*
X111915363Y-72745241D01*
X111758320Y-72980273D01*
X111650147Y-73241426D01*
X111595000Y-73518665D01*
X104800000Y-73518665D01*
X104800000Y-67259049D01*
X114912747Y-67259049D01*
X114913165Y-67318866D01*
X114912747Y-67378682D01*
X114913646Y-67387853D01*
X114939554Y-67634357D01*
X114951588Y-67692983D01*
X114962792Y-67751716D01*
X114965456Y-67760538D01*
X115038751Y-67997314D01*
X115061931Y-68052457D01*
X115084339Y-68107920D01*
X115088665Y-68116054D01*
X115088667Y-68116059D01*
X115088670Y-68116064D01*
X115206553Y-68334086D01*
X115239988Y-68383654D01*
X115272759Y-68433735D01*
X115278584Y-68440876D01*
X115436577Y-68631856D01*
X115479012Y-68673995D01*
X115520875Y-68716745D01*
X115527976Y-68722618D01*
X115720053Y-68879273D01*
X115769875Y-68912374D01*
X115819237Y-68946173D01*
X115827343Y-68950556D01*
X116046191Y-69066919D01*
X116101479Y-69089707D01*
X116156475Y-69113279D01*
X116165278Y-69116003D01*
X116402559Y-69187643D01*
X116461246Y-69199264D01*
X116519752Y-69211700D01*
X116528915Y-69212663D01*
X116528917Y-69212663D01*
X116775595Y-69236850D01*
X116775598Y-69236850D01*
X116807581Y-69240000D01*
X121952419Y-69240000D01*
X121985661Y-69236726D01*
X122002137Y-69236726D01*
X122011302Y-69235763D01*
X122257618Y-69208134D01*
X122316098Y-69195703D01*
X122374808Y-69184079D01*
X122383611Y-69181353D01*
X122619869Y-69106408D01*
X122674824Y-69082854D01*
X122730158Y-69060047D01*
X122738264Y-69055664D01*
X122955466Y-68936256D01*
X123004791Y-68902482D01*
X123054648Y-68869357D01*
X123061749Y-68863483D01*
X123251621Y-68704160D01*
X123293465Y-68661431D01*
X123335918Y-68619273D01*
X123341742Y-68612132D01*
X123497053Y-68418965D01*
X123529814Y-68368901D01*
X123563260Y-68319315D01*
X123567586Y-68311179D01*
X123682418Y-68091524D01*
X123704802Y-68036120D01*
X123728007Y-67980919D01*
X123730670Y-67972097D01*
X123800652Y-67734321D01*
X123811861Y-67675559D01*
X123823890Y-67616962D01*
X123824789Y-67607791D01*
X123847253Y-67360951D01*
X123846835Y-67301134D01*
X123847253Y-67241318D01*
X123846354Y-67232147D01*
X123820446Y-66985644D01*
X123808412Y-66927017D01*
X123797208Y-66868284D01*
X123794544Y-66859462D01*
X123721249Y-66622686D01*
X123698074Y-66567555D01*
X123675661Y-66512080D01*
X123671334Y-66503944D01*
X123553446Y-66285914D01*
X123520012Y-66236346D01*
X123487240Y-66186265D01*
X123481416Y-66179124D01*
X123323423Y-65988144D01*
X123280988Y-65946005D01*
X123239125Y-65903255D01*
X123232024Y-65897381D01*
X123039946Y-65740727D01*
X122990169Y-65707655D01*
X122940763Y-65673826D01*
X122932657Y-65669444D01*
X122713809Y-65553081D01*
X122658532Y-65530298D01*
X122603525Y-65506721D01*
X122594722Y-65503997D01*
X122357441Y-65432357D01*
X122298754Y-65420736D01*
X122240248Y-65408300D01*
X122231085Y-65407337D01*
X122231083Y-65407337D01*
X121984405Y-65383150D01*
X121984402Y-65383150D01*
X121952419Y-65380000D01*
X116807581Y-65380000D01*
X116774339Y-65383274D01*
X116757863Y-65383274D01*
X116748698Y-65384237D01*
X116502382Y-65411866D01*
X116443865Y-65424305D01*
X116385192Y-65435922D01*
X116376389Y-65438647D01*
X116140131Y-65513592D01*
X116085209Y-65537132D01*
X116029842Y-65559952D01*
X116021736Y-65564336D01*
X115804534Y-65683744D01*
X115755171Y-65717543D01*
X115705352Y-65750643D01*
X115698252Y-65756517D01*
X115508379Y-65915839D01*
X115466516Y-65958588D01*
X115424082Y-66000727D01*
X115418258Y-66007868D01*
X115262947Y-66201035D01*
X115230186Y-66251099D01*
X115196740Y-66300685D01*
X115192418Y-66308814D01*
X115192415Y-66308819D01*
X115192414Y-66308822D01*
X115077582Y-66528476D01*
X115055173Y-66583942D01*
X115031994Y-66639081D01*
X115029330Y-66647903D01*
X114959348Y-66885679D01*
X114948139Y-66944441D01*
X114936110Y-67003038D01*
X114935211Y-67012209D01*
X114912747Y-67259049D01*
X104800000Y-67259049D01*
X104800000Y-64802279D01*
X104814722Y-64652131D01*
X104848953Y-64538754D01*
X104904555Y-64434181D01*
X104979407Y-64342404D01*
X105070664Y-64266909D01*
X105174844Y-64210581D01*
X105287976Y-64175560D01*
X105436022Y-64160000D01*
X133317721Y-64160000D01*
X133467869Y-64174722D01*
M02*
